<?xml version="1.0" encoding="UTF-8" standalone="no"?>
<svg
   xmlns:dc="http://purl.org/dc/elements/1.1/"
   xmlns:cc="http://creativecommons.org/ns#"
   xmlns:rdf="http://www.w3.org/1999/02/22-rdf-syntax-ns#"
   xmlns:svg="http://www.w3.org/2000/svg"
   xmlns="http://www.w3.org/2000/svg"
   version="1.1"
   id="svg2"
   xml:space="preserve"
   width="1365.3333"
   height="1365.3333"
   viewBox="0 0 1365.3333 1365.3333"><metadata
     id="metadata8"><rdf:RDF><cc:Work
         rdf:about=""><dc:format>image/svg+xml</dc:format><dc:type
           rdf:resource="http://purl.org/dc/dcmitype/StillImage" /><dc:title></dc:title></cc:Work></rdf:RDF></metadata><defs
     id="defs6"><clipPath
       clipPathUnits="userSpaceOnUse"
       id="clipPath18"><path
         d="M 191,933 C 135.771,933 91,888.229 91,833 v 0 -643 C 91,134.771 135.771,90 191,90 v 0 h 643 c 55.229,0 100,44.771 100,100 v 0 643 c 0,55.229 -44.771,100 -100,100 v 0 z"
         id="path16" /></clipPath><clipPath
       clipPathUnits="userSpaceOnUse"
       id="clipPath30"><path
         d="m 288,805 c -38.66,0 -70,-31.34 -70,-70 v 0 -447 c 0,-38.66 31.34,-70 70,-70 v 0 h 447 c 38.66,0 70,31.34 70,70 v 0 447 c 0,38.66 -31.34,70 -70,70 v 0 z"
         id="path28" /></clipPath></defs><rect
     ry="136.746"
     y="120.66663"
     x="121.33661"
     height="1124"
     width="1122.66"
     id="rect4495"
     style="fill:#ffff00;fill-opacity:1;stroke:none;stroke-width:0.18086329;stroke-miterlimit:4;stroke-dasharray:none;stroke-opacity:1" /><rect
     ry="104.61827"
     y="291.33313"
     x="291.33313"
     height="782.66699"
     width="782.66699"
     id="rect4497"
     style="fill:#ff0000;fill-opacity:1;stroke:none;stroke-width:0.20988223;stroke-miterlimit:4;stroke-dasharray:none;stroke-opacity:1" /></svg>