<?xml version="1.0" encoding="UTF-8" standalone="no"?>
<svg
   xmlns:dc="http://purl.org/dc/elements/1.1/"
   xmlns:cc="http://creativecommons.org/ns#"
   xmlns:rdf="http://www.w3.org/1999/02/22-rdf-syntax-ns#"
   xmlns:svg="http://www.w3.org/2000/svg"
   xmlns="http://www.w3.org/2000/svg"
   viewBox="0 0 1365.3333 1365.3333"
   height="1365.3333"
   width="1365.3333"
   xml:space="preserve"
   id="svg2"
   version="1.1"><metadata
     id="metadata8"><rdf:RDF><cc:Work
         rdf:about=""><dc:format>image/svg+xml</dc:format><dc:type
           rdf:resource="http://purl.org/dc/dcmitype/StillImage" /><dc:title></dc:title></cc:Work></rdf:RDF></metadata><defs
     id="defs6"><clipPath
       id="clipPath18"
       clipPathUnits="userSpaceOnUse"><path
         id="path16"
         d="M 0,1024 H 1024 V 0 H 0 Z" /></clipPath><clipPath
       id="clipPath30"
       clipPathUnits="userSpaceOnUse"><path
         id="path28"
         d="M 0,1024 H 1024 V 0 H 0 Z" /></clipPath></defs><g
     transform="matrix(1.3333333,0,0,-1.3333333,0,1365.3333)"
     id="g10"><g
       id="g12"><g
         clip-path="url(#clipPath18)"
         id="g14"><g
           transform="translate(933,190)"
           id="g20"><path
             id="path22"
             style="fill:#559ecb;fill-opacity:1;fill-rule:nonzero;stroke:none"
             d="m 0,0 c 0,-55.229 -44.771,-100 -100,-100 h -643 c -55.229,0 -100,44.771 -100,100 v 643 c 0,55.229 44.771,100 100,100 h 643 C -44.771,743 0,698.229 0,643 Z" /></g></g></g><g
       id="g24"><g
         clip-path="url(#clipPath30)"
         id="g26"><g
           transform="translate(772.6445,512.8389)"
           id="g32"><path
             id="path34"
             style="fill:#c9c9c9;fill-opacity:1;fill-rule:evenodd;stroke:none"
             d="m 0,0 c 0,-142.971 -115.9,-258.871 -258.87,-258.871 -142.971,0 -258.871,115.9 -258.871,258.871 0,142.97 115.9,258.871 258.871,258.871 C -115.9,258.871 0,142.97 0,0" /></g><g
           transform="translate(632.3223,512.0312)"
           id="g36"><path
             id="path38"
             style="fill:#a8a8a8;fill-opacity:1;fill-rule:evenodd;stroke:none"
             d="m 0,0 c 0,-65.918 -53.438,-119.355 -119.355,-119.355 -65.918,0 -119.355,53.437 -119.355,119.355 0,65.918 53.437,119.355 119.355,119.355 C -53.438,119.355 0,65.918 0,0" /></g><g
           transform="translate(470.4839,653.918)"
           id="g40"><path
             id="path42"
             style="fill:#000000;fill-opacity:1;fill-rule:evenodd;stroke:none"
             d="m 0,0 h 87.136 c 0.101,-1.859 0.263,-3.472 0.264,-5.085 0.013,-47.493 0.05,-94.986 -0.113,-142.478 -0.009,-2.316 -1.254,-5.148 -2.866,-6.845 -6.521,-6.87 -13.412,-13.391 -20.625,-20.491 7.085,-7.073 13.929,-13.578 20.324,-20.497 1.793,-1.94 3.17,-5.087 3.205,-7.702 0.342,-25.99 0.245,-51.986 0.585,-77.976 0.061,-4.751 -1.537,-5.909 -5.975,-5.882 -25.663,0.158 -51.327,0.144 -76.99,0.012 -4.118,-0.022 -5.844,0.879 -5.815,5.521 0.299,47.823 0.332,95.648 0.62,143.47 0.013,2.165 1.231,4.806 2.754,6.394 6.661,6.946 13.64,13.584 20.899,20.723 -7.362,7.311 -14.274,14.02 -20.962,20.944 -1.353,1.402 -2.63,3.615 -2.643,5.462 -0.179,27.328 -0.141,54.657 -0.139,81.985 0,0.64 0.173,1.28 0.341,2.445" /></g></g></g></g></svg>