<?xml version="1.0" encoding="UTF-8" standalone="no"?>
<svg
   xmlns:dc="http://purl.org/dc/elements/1.1/"
   xmlns:cc="http://creativecommons.org/ns#"
   xmlns:rdf="http://www.w3.org/1999/02/22-rdf-syntax-ns#"
   xmlns:svg="http://www.w3.org/2000/svg"
   xmlns="http://www.w3.org/2000/svg"
   viewBox="0 0 1365.3333 1365.3333"
   height="1365.3333"
   width="1365.3333"
   xml:space="preserve"
   id="svg4592"
   version="1.1"><metadata
     id="metadata4598"><rdf:RDF><cc:Work
         rdf:about=""><dc:format>image/svg+xml</dc:format><dc:type
           rdf:resource="http://purl.org/dc/dcmitype/StillImage" /><dc:title></dc:title></cc:Work></rdf:RDF></metadata><defs
     id="defs4596"><clipPath
       id="clipPath4608"
       clipPathUnits="userSpaceOnUse"><path
         id="path4606"
         d="M 0,1024 H 1024 V 0 H 0 Z" /></clipPath></defs><g
     transform="matrix(1.3333333,0,0,-1.3333333,0,1365.3333)"
     id="g4600"><g
       id="g4602"><g
         clip-path="url(#clipPath4608)"
         id="g4604"><g
           transform="translate(932,189)"
           id="g4610"><path
             id="path4612"
             style="fill:#2b2b2b;fill-opacity:1;fill-rule:nonzero;stroke:none"
             d="m 0,0 c 0,-55.229 -44.771,-100 -100,-100 h -643 c -55.229,0 -100,44.771 -100,100 v 643 c 0,55.229 44.771,100 100,100 h 643 C -44.771,743 0,698.229 0,643 Z" /></g><g
           transform="translate(89,378.8574)"
           id="g4614"><path
             id="path4616"
             style="fill:none;stroke:#4fbba3;stroke-width:40;stroke-linecap:butt;stroke-linejoin:miter;stroke-miterlimit:10;stroke-dasharray:none;stroke-opacity:1"
             d="M 0,0 132.999,-0.135 174,82.143 226.597,-34.172 305,309.019 386,-90.26 426,-0.857 h 71 l 46.5,177 50.5,-177 h 63 l 36.5,104.5 32,-102.1 117.5,0.105" /></g></g></g></g></svg>