<?xml version="1.0" encoding="UTF-8" standalone="no"?>
<svg
   xmlns:dc="http://purl.org/dc/elements/1.1/"
   xmlns:cc="http://creativecommons.org/ns#"
   xmlns:rdf="http://www.w3.org/1999/02/22-rdf-syntax-ns#"
   xmlns:svg="http://www.w3.org/2000/svg"
   xmlns="http://www.w3.org/2000/svg"
   viewBox="0 0 1365.3333 1365.3333"
   height="1365.3333"
   width="1365.3333"
   xml:space="preserve"
   id="svg4618"
   version="1.1"><metadata
     id="metadata4624"><rdf:RDF><cc:Work
         rdf:about=""><dc:format>image/svg+xml</dc:format><dc:type
           rdf:resource="http://purl.org/dc/dcmitype/StillImage" /><dc:title></dc:title></cc:Work></rdf:RDF></metadata><defs
     id="defs4622"><clipPath
       id="clipPath4634"
       clipPathUnits="userSpaceOnUse"><path
         id="path4632"
         d="M 0,1024 H 1024 V 0 H 0 Z" /></clipPath><clipPath
       id="clipPath4646"
       clipPathUnits="userSpaceOnUse"><path
         id="path4644"
         d="M 190,933 C 134.771,933 90,888.229 90,833 v 0 -643 C 90,134.771 134.771,90 190,90 v 0 h 643 c 55.229,0 100,44.771 100,100 v 0 643 c 0,55.229 -44.771,100 -100,100 v 0 z" /></clipPath><clipPath
       id="clipPath4658"
       clipPathUnits="userSpaceOnUse"><path
         id="path4656"
         d="M 190,933 C 134.771,933 90,888.229 90,833 v 0 -643 C 90,134.771 134.771,90 190,90 v 0 h 643 c 55.229,0 100,44.771 100,100 v 0 643 c 0,55.229 -44.771,100 -100,100 v 0 z" /></clipPath><clipPath
       id="clipPath4670"
       clipPathUnits="userSpaceOnUse"><path
         id="path4668"
         d="M 0,1024 H 1024 V 0 H 0 Z" /></clipPath></defs><g
     transform="matrix(1.3333333,0,0,-1.3333333,0,1365.3333)"
     id="g4626"><g
       id="g4628"><g
         clip-path="url(#clipPath4634)"
         id="g4630"><g
           transform="translate(933,190)"
           id="g4636"><path
             id="path4638"
             style="fill:#444444;fill-opacity:1;fill-rule:nonzero;stroke:none"
             d="m 0,0 c 0,-55.229 -44.771,-100 -100,-100 h -643 c -55.229,0 -100,44.771 -100,100 v 643 c 0,55.229 44.771,100 100,100 h 643 C -44.771,743 0,698.229 0,643 Z" /></g></g></g><g
       id="g4640"><g
         clip-path="url(#clipPath4646)"
         id="g4642"><g
           transform="translate(712.9775,388.5869)"
           id="g4648"><path
             id="path4650"
             style="fill:#5ea024;fill-opacity:1;fill-rule:nonzero;stroke:none"
             d="m 0,0 c 48.327,76.901 116.294,140.85 106.99,238.958 -0.494,5.207 2.402,11.461 8.69,12.538 6.535,1.12 9.137,-4.624 11.982,-9.386 12.681,-21.242 14.04,-46.382 21.251,-68.565 11.772,7.032 2.012,29.487 19.926,26.716 12.647,-1.957 13.77,-19.127 15.356,-30.593 2.496,-18.057 2.094,-36.513 3.076,-58.329 15.047,23.931 22.779,18.853 25.253,-3.34 2.117,-19.02 -2.096,-37.189 -8.463,-55.006 -8.357,-23.402 4.405,-14.773 14.789,-9.647 V -3.021 c -10.606,-18.281 -44.313,-30.45 -14.907,-59.538 3.928,-3.887 -1.074,-13.346 -6.223,-17.518 -11.754,-9.527 -20.207,-14.52 -9.31,-34.593 10.375,-19.111 -23.183,-24.661 -27.386,-37.794 -4.241,-13.258 17.414,-32.898 -8.219,-45.156 -5.778,-2.761 -15.992,-8.891 -15.468,-10.347 14.141,-39.337 -49.855,-41.39 -37.45,-79.147 -28.86,-3.311 -31.304,-31.905 -46.175,-48.549 -17.399,-19.468 -16.455,-68.467 0.793,-88.34 32.93,-37.949 30.997,-51.246 -12.35,-77.763 -9.319,-5.702 -19.628,-10.042 -29.901,-13.886 -109.533,-40.98 -222.508,-39.841 -335.78,-23.866 -48.829,6.889 -97.487,18.502 -138.93,48.865 -29.609,21.693 -32.232,37.209 -4.12,59.77 16.904,13.572 20.869,28.349 21.4,48.326 1.084,40.685 -27.116,62.26 -50.013,89.499 -17.377,20.674 -27.43,47.614 -50.634,64.393 -1.498,1.083 -1.039,6.664 0.171,9.431 11.158,25.524 -16.481,20.977 -25.049,29.758 -14.735,15.096 17.274,32.15 -5.064,43.244 -35.296,17.528 -6.974,63.56 -37.197,83.599 -0.288,0.192 2.95,9.156 5.996,10.37 23.998,9.538 8.59,17.392 -0.084,26.904 -8.124,8.911 -14.677,19.251 -21.921,28.962 v 33.119 c 14.101,0.831 25.578,2.186 16.333,21.96 -7.038,15.051 -6.093,32.172 -6.022,48.764 0.103,24.688 11.319,21.719 27.222,5.967 -2.109,21.514 -5.143,37.989 -0.126,54.159 4.029,12.989 2.041,33.869 19.104,33.941 13.015,0.051 9.001,-19.77 12.581,-30.762 1.251,-3.836 3.198,-7.449 6.895,-15.886 2.313,26.965 0.951,49.238 9.79,69.734 4.113,9.534 5.618,24.754 19.586,22.237 11.821,-2.129 9.376,-16.59 9.318,-25.553 -0.546,-86.378 55.784,-143.956 103.455,-211.483 z" /></g></g></g><g
       id="g4652"><g
         clip-path="url(#clipPath4658)"
         id="g4654"><g
           transform="translate(276.3457,43.9326)"
           id="g4660"><path
             id="path4662"
             style="fill:#5ea024;fill-opacity:1;fill-rule:evenodd;stroke:none"
             d="m 0,0 c 20.01,-31.36 -6.857,-40.341 -23.947,-57.396 -1.828,6.926 -3.958,12.125 -4.497,17.484 -3.69,36.583 -6.017,73.338 -10.762,109.78 -6.171,47.395 2.609,91.165 21.787,134.867 14.317,32.624 39.523,56.402 58.366,85.138 2.974,4.533 9.747,6.573 13.925,9.233 1.224,14.18 2.456,28.182 3.61,42.192 0.133,1.603 0.496,3.877 -0.363,4.772 -17.452,18.209 -27.427,44.532 -54.894,51.88 -10.785,2.882 -15.868,6.742 -12.551,19.632 2.473,9.611 1.604,20.765 -0.441,30.682 -2.355,11.417 -1.623,19.715 10.789,23.274 -11.649,23.858 -23.046,46.843 -34.044,70.017 -2.312,4.866 -4.094,10.382 -4.363,15.69 -0.196,3.859 1.436,9.547 4.221,11.311 2.526,1.599 7.76,-0.818 11.715,-1.806 5.628,-1.409 11.177,-3.131 16.76,-4.719 -0.771,7.675 0.376,16.294 -2.813,22.781 -3.757,7.639 -11.272,13.43 -17.991,20.955 26.299,8.211 25.781,7.989 15.456,32.238 -2.874,6.749 -1.683,15.23 -2.626,25.987 28.883,-16.083 44.291,-12.477 64.858,6.666 17.59,16.373 36.801,31.267 56.584,44.947 18.66,12.903 26.346,25.634 22.983,48.079 3.7,0.208 7.555,1.372 10.812,0.442 13.918,-3.979 20.21,-0.604 17.358,15.07 -0.568,3.11 2.756,7.568 5.332,10.482 6.188,7.005 12.491,14.103 19.784,19.851 3.302,2.603 10.294,4.35 13.498,2.605 15.511,-8.452 26.77,-3.555 38.164,8.006 15.796,16.026 27.276,15.868 43.167,0.057 -4.577,-1.272 -8.356,-2.322 -12.134,-3.372 -0.297,-1.191 -0.594,-2.383 -0.89,-3.573 12.944,-3.069 25.889,-6.139 40.941,-9.707 -0.19,1.027 1.312,-1.899 0.598,-4.11 -4.23,-13.065 -2.46,-20.264 13.714,-22.303 5.234,-0.659 9.058,-12.511 15.016,-21.489 0.937,-0.085 5.596,-0.508 12.754,-1.16 -8.981,-19.389 5.351,-26.936 16.363,-37.073 15.791,-14.537 30.877,-29.899 45.531,-45.597 15.698,-16.814 32.935,-22.649 54.849,-12.603 4.543,2.083 12.195,1.721 16.212,-0.898 2.722,-1.773 1.714,-9.45 2.134,-14.506 0.299,-3.599 -0.326,-7.336 0.369,-10.832 2.335,-11.755 5.076,-23.429 7.663,-35.136 -1.375,-0.642 -2.748,-1.284 -4.123,-1.925 2.424,-0.748 4.82,-2.033 7.274,-2.157 13.828,-0.7 14.096,-7.237 8.135,-17.35 -6.442,-10.929 -12.39,-22.15 -18.553,-33.244 1.318,-1.383 2.634,-2.765 3.95,-4.147 6.434,1.833 12.777,4.432 19.335,5.217 4.081,0.487 10.723,-0.525 12.177,-3.122 1.772,-3.169 0.933,-10.426 -1.652,-12.878 -6.269,-5.938 -14.143,-10.211 -21.483,-14.978 -10.912,-7.084 -16.359,-15.901 -10.942,-29.25 4.543,-11.194 12.263,-12.443 22.784,-9.437 3.776,1.077 8.372,-0.727 12.595,-1.213 -1.015,-4.54 -0.517,-11.332 -3.32,-13.218 -10.284,-6.928 -21.668,-12.226 -30.123,-16.78 -4.313,-8.83 -7.128,-16.877 -11.82,-23.619 -5.79,-8.328 -4.389,-12.437 4.886,-15.905 3.998,-1.494 7.038,-5.55 10.515,-8.441 -4.448,-2.184 -8.805,-6.024 -13.36,-6.273 -22.005,-1.214 -29.081,-16.63 -33.895,-34.881 -2.453,-0.247 -4.577,-0.831 -6.612,-0.608 -21.539,2.364 -22.287,1.52 -16.329,-19.059 0.764,-2.642 2.334,-5.441 1.988,-7.958 -4.174,-30.327 15.243,-50.045 33.454,-68.467 33.924,-34.322 48.955,-76.97 55.788,-122.384 3.767,-25.039 0.097,-51.355 -1.545,-77.008 -2.069,-32.358 -5.242,-64.656 -8.554,-96.916 -0.593,-5.793 -4.162,-11.279 -6.357,-16.908 -3.454,3.818 -6.924,7.625 -10.354,11.467 -1.4,1.568 -2.66,4.57 -4.072,4.626 -21.913,0.854 -15.753,13.861 -11.965,26.36 1.033,3.408 0.157,7.396 0.157,11.846 -11.188,3.081 -16.891,-1.225 -19.015,-11.833 -0.97,-4.841 -2.982,-9.518 -3.561,-14.384 -3.768,-31.696 -23.505,-49.572 -51.47,-60.852 -77.765,-31.369 -157.688,-39.37 -239.739,-21.581 -21.445,4.652 -42.588,11.064 -63.465,17.905 C 58.65,-80.021 35.222,-57.203 28.483,-19.709 26.094,-6.422 19.134,0.781 0,0" /></g></g></g><g
       id="g4664"><g
         clip-path="url(#clipPath4670)"
         id="g4666"><g
           transform="translate(526.2793,590.6167)"
           id="g4672"><path
             id="path4674"
             style="fill:#c4c4c4;fill-opacity:1;fill-rule:evenodd;stroke:none"
             d="m 0,0 c -4.875,-53.814 -37.528,-94.838 -72.932,-91.63 -35.403,3.207 -60.152,49.431 -55.277,103.245 4.875,53.813 37.528,94.839 72.932,91.631 C -19.874,100.039 4.875,53.813 0,0" /></g><g
           transform="translate(636.2793,602.2329)"
           id="g4676"><path
             id="path4678"
             style="fill:#c4c4c4;fill-opacity:1;fill-rule:evenodd;stroke:none"
             d="m 0,0 c -4.875,53.814 -37.528,94.838 -72.932,91.63 -35.404,-3.207 -60.152,-49.431 -55.277,-103.245 4.875,-53.813 37.527,-94.839 72.932,-91.632 C -19.874,-100.039 4.875,-53.813 0,0" /></g><g
           transform="translate(299.2485,343.6299)"
           id="g4680"><path
             id="path4682"
             style="fill:#f7941e;fill-opacity:1;fill-rule:evenodd;stroke:none"
             d="m 0,0 c -1.361,12.089 4.157,22.312 14.543,31.643 12.146,10.909 9.94,16.843 -6.155,21.003 -3.869,1 -8.168,0.599 -11.872,1.94 -8.983,3.247 -21.587,-0.103 -21.976,17.16 -0.374,16.549 4.597,27.384 19.643,33.189 9.034,3.486 18.474,2.576 27.696,-0.063 55.304,-15.832 109.064,-15.507 162.319,10.168 25.658,12.37 53.396,10.677 79.733,-2.473 46.836,-23.383 95.728,-21.946 145.126,-10.706 10.455,2.377 20.582,6.648 31.513,4.674 14.554,-2.627 25.865,-10.296 25.983,-26.024 0.114,-14.996 -7.788,-25.398 -24.457,-26.284 -2.662,-0.142 -5.384,-0.538 -7.923,-1.322 -4.968,-1.536 -11.611,-1.196 -13.548,-7.122 -2.064,-6.324 3.768,-9.545 7.776,-12.74 14.114,-11.256 17.723,-26.314 15.948,-43.207 -1.805,-17.195 -11.52,-24.658 -28.977,-22.29 -6.614,0.896 -13.098,2.841 -19.591,4.511 -7.667,1.969 -13.1,1.236 -13.975,-8.507 -1.453,-16.193 -13.22,-20.352 -26.856,-21.616 -24.218,-2.247 -48.438,-0.804 -72.018,4.365 -46.878,10.274 -93.219,5.882 -139.629,-2.284 -15.933,-2.805 -31.99,-3.027 -48.087,-2.577 -16.883,0.472 -32.793,2.092 -35.396,24.013 -0.814,6.869 -6.267,7.945 -12.231,6.704 -3.938,-0.818 -7.841,-1.801 -11.772,-2.661 C 8.438,-36.491 -0.289,-29.485 0,0" /></g></g></g></g></svg>