<?xml version="1.0" encoding="UTF-8" standalone="no"?>
<svg
   xmlns:dc="http://purl.org/dc/elements/1.1/"
   xmlns:cc="http://creativecommons.org/ns#"
   xmlns:rdf="http://www.w3.org/1999/02/22-rdf-syntax-ns#"
   xmlns:svg="http://www.w3.org/2000/svg"
   xmlns="http://www.w3.org/2000/svg"
   viewBox="0 0 1365.3333 1365.3333"
   height="1365.3333"
   width="1365.3333"
   xml:space="preserve"
   id="svg4835"
   version="1.1"><metadata
     id="metadata4841"><rdf:RDF><cc:Work
         rdf:about=""><dc:format>image/svg+xml</dc:format><dc:type
           rdf:resource="http://purl.org/dc/dcmitype/StillImage" /><dc:title></dc:title></cc:Work></rdf:RDF></metadata><defs
     id="defs4839"><clipPath
       id="clipPath4851"
       clipPathUnits="userSpaceOnUse"><path
         id="path4849"
         d="M 0,1024 H 1024 V 0 H 0 Z" /></clipPath></defs><g
     transform="matrix(1.3333333,0,0,-1.3333333,0,1365.3333)"
     id="g4843"><g
       id="g4845"><g
         clip-path="url(#clipPath4851)"
         id="g4847"><g
           transform="translate(932,189)"
           id="g4853"><path
             id="path4855"
             style="fill:#af2533;fill-opacity:1;fill-rule:nonzero;stroke:none"
             d="m 0,0 c 0,-55.229 -44.771,-100 -100,-100 h -643 c -55.229,0 -100,44.771 -100,100 v 643 c 0,55.229 44.771,100 100,100 h 643 C -44.771,743 0,698.229 0,643 Z" /></g><g
           transform="translate(329,315.4717)"
           id="g4857"><path
             id="path4859"
             style="fill:#f68c48;fill-opacity:1;fill-rule:nonzero;stroke:none"
             d="m 0,0 v 406.054 c 0,0 0.312,2.474 3.709,2.474 h 224.28 c 0,0 5.773,0.063 6.708,-6.438 0.937,-6.5 6.605,-62.851 6.605,-62.851 0,0 0.728,-4.019 -3.536,-3.967 -4.264,0.053 -157.61,0.028 -157.61,0.028 l -0.138,-104.412 141.314,0.146 c 0,0 4.889,0.28 4.785,-5.856 -0.104,-6.397 -0.104,-60.636 -0.104,-60.636 0,0 0.467,-6.916 -5.877,-6.916 -6.345,0 -139.841,0.053 -139.841,0.053 L 79.879,-1.586 c 0,0 0.347,-5.886 -6.379,-5.886 H 4.992 c 0,0 -4.992,1.091 -4.992,5.876 z" /></g><g
           transform="translate(697,717.3652)"
           id="g4861"><path
             id="path4863"
             style="fill:#f68c48;fill-opacity:1;fill-rule:nonzero;stroke:none"
             d="m 0,0 v -333.663 c 0,0 0.264,-15.702 15.311,-15.702 h 11.925 c 0,0 2.764,-0.592 2.764,-3.436 v -48.26 c 0,0 0.145,-3.502 -0.93,-4.405 -1.074,-0.9 -14.322,-8.908 -41.051,-8.908 -26.732,0 -67.019,4.718 -67.019,75.722 V 2.496 c 0,0 0.213,4.022 6.939,4.16 6.725,0.139 64.843,0 64.843,0 C -7.218,6.656 0,7.281 0,0" /></g></g></g></g></svg>