<?xml version="1.0" encoding="UTF-8" standalone="no"?>
<svg
   xmlns:dc="http://purl.org/dc/elements/1.1/"
   xmlns:cc="http://creativecommons.org/ns#"
   xmlns:rdf="http://www.w3.org/1999/02/22-rdf-syntax-ns#"
   xmlns:svg="http://www.w3.org/2000/svg"
   xmlns="http://www.w3.org/2000/svg"
   viewBox="0 0 1365.3333 1365.3333"
   height="1365.3333"
   width="1365.3333"
   xml:space="preserve"
   id="svg5135"
   version="1.1"><metadata
     id="metadata5141"><rdf:RDF><cc:Work
         rdf:about=""><dc:format>image/svg+xml</dc:format><dc:type
           rdf:resource="http://purl.org/dc/dcmitype/StillImage" /><dc:title></dc:title></cc:Work></rdf:RDF></metadata><defs
     id="defs5139"><clipPath
       id="clipPath5151"
       clipPathUnits="userSpaceOnUse"><path
         id="path5149"
         d="M 0,1024 H 1024 V 0 H 0 Z" /></clipPath><clipPath
       id="clipPath5163"
       clipPathUnits="userSpaceOnUse"><path
         id="path5161"
         d="M 217.677,806.813 H 807.323 V 217.187 H 217.677 Z" /></clipPath></defs><g
     transform="matrix(1.3333333,0,0,-1.3333333,0,1365.3333)"
     id="g5143"><g
       id="g5145"><g
         clip-path="url(#clipPath5151)"
         id="g5147"><g
           transform="translate(934,191)"
           id="g5153"><path
             id="path5155"
             style="fill:#0067af;fill-opacity:1;fill-rule:nonzero;stroke:none"
             d="m 0,0 c 0,-55.228 -44.772,-100 -100,-100 h -643 c -55.228,0 -100,44.772 -100,100 v 643 c 0,55.228 44.772,100 100,100 h 643 C -44.772,743 0,698.228 0,643 Z" /></g><g
           id="g5157"><g
             id="g5159" /><g
             id="g5191"><g
               id="g5189"
               clip-path="url(#clipPath5163)"><g
                 id="g5167"
                 transform="translate(618.2665,454.1039)"><path
                   id="path5165"
                   style="fill:#ffffff;fill-opacity:1;fill-rule:nonzero;stroke:none"
                   d="m 0,0 -4.019,-2.881 v -0.107 l -86.558,-55.553 c 23.118,-10.581 121.901,-53.85 216.138,-66.334 38.817,49.058 62.408,110.8 63.459,178.179 0.606,39.05 -6.422,76.429 -19.685,110.748 C 103.647,74.945 1.331,0.958 0,0" /></g><g
                 id="g5171"
                 transform="translate(616.0705,574.1746)"><path
                   id="path5169"
                   style="fill:#ffffff;fill-opacity:1;fill-rule:nonzero;stroke:none"
                   d="M 0,0 0.013,-4.485 V -4.632 -5.37 H 0 l -1.491,-96.021 C 22.546,-83.257 109.436,-15.033 163.699,62.381 126.532,141.985 54.821,202.396 -32.455,224.004 -0.845,120.763 -0.007,1.591 0,0" /></g><g
                 id="g5175"
                 transform="translate(509.2826,642.2721)"><path
                   id="path5173"
                   style="fill:#ffffff;fill-opacity:1;fill-rule:nonzero;stroke:none"
                   d="m 0,0 5.157,-2.848 0.034,0.02 84.261,-57.849 c -0.745,28.475 -5.423,132.86 -34.298,220.629 -15.399,2.735 -31.217,4.299 -47.361,4.552 -82.525,1.291 -157.637,-31.477 -211.999,-85.293 C -101.391,55.447 -1.278,0.705 0,0" /></g><g
                 id="g5179"
                 transform="translate(507.9184,217.2234)"><path
                   id="path5177"
                   style="fill:#ffffff;fill-opacity:1;fill-rule:nonzero;stroke:none"
                   d="M 0,0 C 88.155,-1.371 167.865,36.115 222.839,96.613 116.178,113.243 8.518,164.597 7.26,165.203 l -4.552,2.196 -0.106,-0.067 -83.583,57.384 C -78.599,195.608 -67.845,88.98 -33.061,2.376 -22.22,0.992 -11.193,0.173 0,0" /></g><g
                 id="g5183"
                 transform="translate(408.2643,571.2066)"><path
                   id="path5181"
                   style="fill:#ffffff;fill-opacity:1;fill-rule:nonzero;stroke:none"
                   d="M 0,0 4.432,3.274 4.598,3.035 90.065,57.883 c -15.759,8.404 -111.786,58.288 -206.855,78.006 -44.919,-50.849 -72.623,-117.356 -73.761,-190.517 -0.632,-40.634 6.988,-79.477 21.315,-114.927 C -104.925,-78.186 -1.338,-0.992 0,0" /></g><g
                 id="g5187"
                 transform="translate(409.2093,448.5739)"><path
                   id="path5185"
                   style="fill:#ffffff;fill-opacity:1;fill-rule:nonzero;stroke:none"
                   d="M 0,0 -0.306,5.357 0.2,5.384 -0.306,5.73 1.198,102.642 C -25.022,82.152 -110.222,12.551 -162.042,-65.209 -122.34,-146.942 -45.944,-207.74 46.057,-225.84 7.526,-123.584 0.093,-1.604 0,0" /></g></g></g></g></g></g></g></svg>