<?xml version="1.0" encoding="UTF-8" standalone="no"?>
<svg
   xmlns:dc="http://purl.org/dc/elements/1.1/"
   xmlns:cc="http://creativecommons.org/ns#"
   xmlns:rdf="http://www.w3.org/1999/02/22-rdf-syntax-ns#"
   xmlns:svg="http://www.w3.org/2000/svg"
   xmlns="http://www.w3.org/2000/svg"
   viewBox="0 0 1365.3333 1365.3333"
   height="1365.3333"
   width="1365.3333"
   xml:space="preserve"
   id="svg5105"
   version="1.1"><metadata
     id="metadata5111"><rdf:RDF><cc:Work
         rdf:about=""><dc:format>image/svg+xml</dc:format><dc:type
           rdf:resource="http://purl.org/dc/dcmitype/StillImage" /><dc:title></dc:title></cc:Work></rdf:RDF></metadata><defs
     id="defs5109"><clipPath
       id="clipPath5121"
       clipPathUnits="userSpaceOnUse"><path
         id="path5119"
         d="M 0,1024 H 1024 V 0 H 0 Z" /></clipPath></defs><g
     transform="matrix(1.3333333,0,0,-1.3333333,0,1365.3333)"
     id="g5113"><g
       id="g5115"><g
         clip-path="url(#clipPath5121)"
         id="g5117"><g
           transform="translate(933,190)"
           id="g5123"><path
             id="path5125"
             style="fill:#0067af;fill-opacity:1;fill-rule:nonzero;stroke:none"
             d="m 0,0 c 0,-55.229 -44.771,-100 -100,-100 h -643 c -55.229,0 -100,44.771 -100,100 v 643 c 0,55.229 44.771,100 100,100 h 643 C -44.771,743 0,698.229 0,643 Z" /></g><g
           transform="translate(378.8999,502)"
           id="g5127"><path
             id="path5129"
             style="fill:#35d0fb;fill-opacity:1;fill-rule:nonzero;stroke:none"
             d="m 0,0 c -1.38,-0.12 -16.24,0 -16.24,0 0,0 -9.66,-0.25 -13.66,1.88 V 158.5 c 0,0 31.58,2.67 48.58,0 0,0 59.88,-1.83 59.55,-81.83 C 77.89,58 73.66,2 0,0 M 1.64,223.67 C -35.03,224 -101.65,220.83 -101.65,220.83 -116.82,219.17 -114.9,214 -114.9,214 v -404 c 0,-8.38 8,-8 8,-8 h 71.88 c 6.45,0 6.11,7.94 6.11,7.94 l 0.24,126.44 c 0,0 29.36,-1.38 36.24,-1.38 72.5,1 153.471,43.5 153.971,146 C 162.041,220 38.31,223.33 1.64,223.67" /></g><g
           transform="translate(771,604)"
           id="g5131"><path
             id="path5133"
             style="fill:#35d0fb;fill-opacity:1;fill-rule:nonzero;stroke:none"
             d="m 0,0 v -54 c 0,0 -0.063,-7.188 -7.813,-4 -7.75,3.187 -37.437,18.875 -73.312,18.875 -14.375,0 -37.938,-3.25 -37.938,-25.75 0.168,-12.291 0.7,-17.124 40.2,-34.625 39.5,-17.5 96.18,-39.167 96.18,-103.167 0,-64 -45.658,-103 -114.325,-103.333 -33.334,0.334 -50.662,2.001 -92.996,24.334 -2.503,1.249 -7.918,3.999 -7.751,16.249 0.167,12.25 -0.003,52.082 -0.003,52.082 0,0 -0.912,10.834 9.006,5.751 9.916,-5.083 47.251,-28.751 92.585,-28.584 7,0 33,-0.999 32.667,23.334 -0.25,14.334 -10.75,25.584 -36.75,36.084 -26,10.5 -97.307,39.25 -97.528,103.75 C -198,-8.5 -137.5,27 -77.5,27 -55,26.75 -24.25,19.25 -5.5,9 -4.083,8.334 0,5.083 0,0" /></g></g></g></g></svg>