<?xml version="1.0" encoding="UTF-8" standalone="no"?>
<svg
   xmlns:dc="http://purl.org/dc/elements/1.1/"
   xmlns:cc="http://creativecommons.org/ns#"
   xmlns:rdf="http://www.w3.org/1999/02/22-rdf-syntax-ns#"
   xmlns:svg="http://www.w3.org/2000/svg"
   xmlns="http://www.w3.org/2000/svg"
   viewBox="0 0 1365.3333 1365.3333"
   height="1365.3333"
   width="1365.3333"
   xml:space="preserve"
   id="svg5013"
   version="1.1"><metadata
     id="metadata5019"><rdf:RDF><cc:Work
         rdf:about=""><dc:format>image/svg+xml</dc:format><dc:type
           rdf:resource="http://purl.org/dc/dcmitype/StillImage" /><dc:title></dc:title></cc:Work></rdf:RDF></metadata><defs
     id="defs5017"><clipPath
       id="clipPath5029"
       clipPathUnits="userSpaceOnUse"><path
         id="path5027"
         d="M 0,1024 H 1024 V 0 H 0 Z" /></clipPath><clipPath
       id="clipPath5041"
       clipPathUnits="userSpaceOnUse"><path
         id="path5039"
         d="M 219,806 H 806 V 219 H 219 Z" /></clipPath></defs><g
     transform="matrix(1.3333333,0,0,-1.3333333,0,1365.3333)"
     id="g5021"><g
       id="g5023"><g
         clip-path="url(#clipPath5029)"
         id="g5025"><g
           transform="translate(934,191)"
           id="g5031"><path
             id="path5033"
             style="fill:#aea8d3;fill-opacity:1;fill-rule:nonzero;stroke:none"
             d="m 0,0 c 0,-55.228 -44.772,-100 -100,-100 h -643 c -55.228,0 -100,44.772 -100,100 v 643 c 0,55.228 44.772,100 100,100 h 643 C -44.772,743 0,698.228 0,643 Z" /></g><g
           id="g5035"><g
             id="g5037" /><g
             id="g5061"><g
               style="opacity:0.75"
               id="g5059"
               clip-path="url(#clipPath5041)"><g
                 id="g5045"
                 transform="translate(806,736)"><path
                   id="path5043"
                   style="fill:#000000;fill-opacity:1;fill-rule:nonzero;stroke:none"
                   d="m 0,0 c 0,38.66 -31.34,70 -70,70 h -66 V -64.813 l 136,1.855 z" /></g><path
                 id="path5047"
                 style="fill:#000000;fill-opacity:1;fill-rule:nonzero;stroke:none"
                 d="M 670,671 H 536 V 536 h 134 z" /><path
                 id="path5049"
                 style="fill:#000000;fill-opacity:1;fill-rule:nonzero;stroke:none"
                 d="M 535,806 H 402 V 671 h 133 z" /><g
                 id="g5053"
                 transform="translate(536,536)"><path
                   id="path5051"
                   style="fill:#000000;fill-opacity:1;fill-rule:nonzero;stroke:none"
                   d="m 0,0 h -134 v 135 h -183 v -382 c 0,-38.66 31.34,-70 70,-70 h 382 v 183 H 0 Z" /></g><g
                 id="g5057"
                 transform="translate(670.1866,536)"><path
                   id="path5055"
                   style="fill:#000000;fill-opacity:1;fill-rule:nonzero;stroke:none"
                   d="m 0,0 h 0.813 v -134 h 135 V 2.229 Z" /></g></g></g></g></g></g></g></svg>