<?xml version="1.0" encoding="UTF-8" standalone="no"?>
<svg
   xmlns:dc="http://purl.org/dc/elements/1.1/"
   xmlns:cc="http://creativecommons.org/ns#"
   xmlns:rdf="http://www.w3.org/1999/02/22-rdf-syntax-ns#"
   xmlns:svg="http://www.w3.org/2000/svg"
   xmlns="http://www.w3.org/2000/svg"
   viewBox="0 0 1365.3333 1365.3333"
   height="1365.3333"
   width="1365.3333"
   xml:space="preserve"
   id="svg4865"
   version="1.1"><metadata
     id="metadata4871"><rdf:RDF><cc:Work
         rdf:about=""><dc:format>image/svg+xml</dc:format><dc:type
           rdf:resource="http://purl.org/dc/dcmitype/StillImage" /><dc:title></dc:title></cc:Work></rdf:RDF></metadata><defs
     id="defs4869"><clipPath
       id="clipPath4881"
       clipPathUnits="userSpaceOnUse"><path
         id="path4879"
         d="M 0,1024 H 1024 V 0 H 0 Z" /></clipPath></defs><g
     transform="matrix(1.3333333,0,0,-1.3333333,0,1365.3333)"
     id="g4873"><g
       id="g4875"><g
         clip-path="url(#clipPath4881)"
         id="g4877"><g
           transform="translate(933,190)"
           id="g4883"><path
             id="path4885"
             style="fill:#db7c00;fill-opacity:1;fill-rule:nonzero;stroke:none"
             d="m 0,0 c 0,-55.229 -44.771,-100 -100,-100 h -643 c -55.229,0 -100,44.771 -100,100 v 643 c 0,55.229 44.771,100 100,100 h 643 C -44.771,743 0,698.229 0,643 Z" /></g><g
           transform="translate(267.25,313.7188)"
           id="g4887"><path
             id="path4889"
             style="fill:#ffd539;fill-opacity:1;fill-rule:nonzero;stroke:none"
             d="m 0,0 c -2.031,-6.737 3.063,-6.281 4,-6.284 0.938,-0.003 66.25,-0.193 70,0.008 m 49.75,177.557 40.83,165.17 43.17,-165.17 z M 339.25,1.651 c 0,0 -121.452,401.367 -122.429,404.636 -0.821,2.994 -5.852,2.994 -6.821,2.994 h -93.75 c -5.583,-0.041 -6.021,-1.532 -6,-2.87 0.021,-1.337 0.25,-14.005 0,-23.755 C 110,372.906 109,372.469 109,372.469 L 0,0 c -2.031,-6.737 4,-6.284 4,-6.284 0,0 66.25,-0.193 70,0.008 3.75,0.2 4.5,3.803 4.5,3.803 l 29,102.502 115.02,-0.249 c 0,0 30.23,-98.499 31.73,-102.749 1.297,-3.875 3.078,-3.75 3.5,-3.75 h 78 c 6,0 3.5,8.37 3.5,8.37" /></g><g
           transform="translate(730,689.666)"
           id="g4891"><path
             id="path4893"
             style="fill:#ffd539;fill-opacity:1;fill-rule:nonzero;stroke:none"
             d="m 0,0 c 0,-23.932 -19.4,-43.333 -43.333,-43.333 -23.933,0 -43.333,19.401 -43.333,43.333 0,23.932 19.4,43.333 43.333,43.333 C -19.4,43.333 0,23.932 0,0" /></g><g
           transform="translate(653,615)"
           id="g4895"><path
             id="path4897"
             style="fill:#ffd539;fill-opacity:1;fill-rule:nonzero;stroke:none"
             d="m 0,0 h 67 c 0,0 7.176,0.333 7.259,-6.751 0.083,-7.083 -0.009,-294.562 -0.009,-294.562 0,0 0.748,-6.687 -5.418,-6.687 H -3 c 0,0 -6,-0.438 -6,6.812 V -8 c 0,0 -0.813,8 9,8" /></g></g></g></g></svg>