<?xml version="1.0" encoding="UTF-8" standalone="no"?>
<svg
   xmlns:dc="http://purl.org/dc/elements/1.1/"
   xmlns:cc="http://creativecommons.org/ns#"
   xmlns:rdf="http://www.w3.org/1999/02/22-rdf-syntax-ns#"
   xmlns:svg="http://www.w3.org/2000/svg"
   xmlns="http://www.w3.org/2000/svg"
   viewBox="0 0 1365.3333 1365.3333"
   height="1365.3333"
   width="1365.3333"
   xml:space="preserve"
   id="svg4587"
   version="1.1"><metadata
     id="metadata4593"><rdf:RDF><cc:Work
         rdf:about=""><dc:format>image/svg+xml</dc:format><dc:type
           rdf:resource="http://purl.org/dc/dcmitype/StillImage" /><dc:title></dc:title></cc:Work></rdf:RDF></metadata><defs
     id="defs4591"><clipPath
       id="clipPath4603"
       clipPathUnits="userSpaceOnUse"><path
         id="path4601"
         d="M 0,1024 H 1024 V 0 H 0 Z" /></clipPath></defs><g
     transform="matrix(1.3333333,0,0,-1.3333333,0,1365.3333)"
     id="g4595"><g
       id="g4597"><g
         clip-path="url(#clipPath4603)"
         id="g4599"><g
           transform="translate(938,192)"
           id="g4605"><path
             id="path4607"
             style="fill:#d8a607;fill-opacity:1;fill-rule:nonzero;stroke:none"
             d="m 0,0 c 0,-55.229 -44.771,-100 -100,-100 h -643 c -55.229,0 -100,44.771 -100,100 v 643 c 0,55.229 44.771,100 100,100 h 643 C -44.771,743 0,698.229 0,643 Z" /></g><g
           transform="translate(348.2998,545.1377)"
           id="g4609"><path
             id="path4611"
             style="fill:#664b06;fill-opacity:1;fill-rule:evenodd;stroke:none"
             d="M 0,0 C 21.092,1.068 41.057,0.65 60.564,3.438 83.951,6.779 99.552,24.695 102.466,47.475 105.676,72.579 95.498,94.498 75.251,104.1 50.984,115.608 25.593,112.586 0,109.81 Z m 0.011,-176.134 c 28.76,-2.387 57.161,-4.907 83.921,8.143 23.31,11.369 29.85,32.121 28.276,56.212 -1.39,21.245 -11.384,37.096 -31.534,45.423 -26.108,10.79 -53.365,6.002 -81.216,6.942 0,-36.641 -0.011,-71.831 0.021,-107.024 0.002,-2.829 0.301,-5.66 0.532,-9.696 m 117.135,151.44 c 4.513,-1.827 7.702,-3.188 10.94,-4.416 33.364,-12.662 57.475,-34.403 63.692,-70.713 7.03,-41.034 -3.188,-77.142 -36.998,-103.926 -24.671,-19.537 -54.001,-27.469 -84.643,-30.729 -45.78,-4.874 -91.507,-1.185 -137.217,1.88 -7.633,0.512 -11.212,3.404 -11.195,11.9 0.245,125.091 0.253,250.18 0.071,375.268 -0.011,7.372 2.193,10.392 9.619,10.759 23.979,1.186 47.933,2.85 71.9,4.247 32.729,1.908 65.409,1.792 97.263,-7.045 37.245,-10.332 65.107,-31.194 74.704,-70.878 10.962,-45.325 -4.917,-94.29 -53.418,-113.287 -1.143,-0.447 -2.11,-1.347 -4.718,-3.06" /></g><g
           transform="translate(661.7168,580.5029)"
           id="g4613"><path
             id="path4615"
             style="fill:#664b06;fill-opacity:1;fill-rule:evenodd;stroke:none"
             d="m 0,0 c 6.955,5.928 14.182,12.206 21.532,18.329 16.666,13.88 35.44,23.04 57.38,24.258 11.869,0.658 13.332,-1.091 13.34,-12.625 0.009,-16.681 0.013,-33.364 -0.02,-50.044 -0.02,-12.114 -0.719,-12.56 -13.277,-13.024 -24.595,-0.906 -47.267,-7.5 -66.932,-23.002 -6.009,-4.736 -8.526,-10.212 -8.492,-18.098 0.264,-60.629 -0.12,-121.257 0.269,-181.88 0.066,-9.936 -3.195,-12.798 -12.695,-12.501 -18.265,0.567 -36.573,0.496 -54.844,-0.022 -9.38,-0.268 -12.138,3.452 -12.131,12.474 0.07,84.685 -0.139,169.369 -0.436,254.055 -0.036,10.24 -0.889,20.49 -1.726,30.705 -0.525,6.419 2.123,8.452 8.309,8.35 16.996,-0.275 34.005,-0.291 51.001,-0.017 6.584,0.107 10.26,-2.625 11.778,-8.792 C -4.462,18.071 -1.967,7.979 0,0" /></g></g></g></g></svg>