<?xml version="1.0" encoding="UTF-8" standalone="no"?>
<svg
   xmlns:dc="http://purl.org/dc/elements/1.1/"
   xmlns:cc="http://creativecommons.org/ns#"
   xmlns:rdf="http://www.w3.org/1999/02/22-rdf-syntax-ns#"
   xmlns:svg="http://www.w3.org/2000/svg"
   xmlns="http://www.w3.org/2000/svg"
   viewBox="0 0 1365.3333 1365.3333"
   height="1365.3333"
   width="1365.3333"
   xml:space="preserve"
   id="svg4545"
   version="1.1"><metadata
     id="metadata4551"><rdf:RDF><cc:Work
         rdf:about=""><dc:format>image/svg+xml</dc:format><dc:type
           rdf:resource="http://purl.org/dc/dcmitype/StillImage" /><dc:title></dc:title></cc:Work></rdf:RDF></metadata><defs
     id="defs4549"><clipPath
       id="clipPath4561"
       clipPathUnits="userSpaceOnUse"><path
         id="path4559"
         d="M 0,1024 H 1024 V 0 H 0 Z" /></clipPath><clipPath
       id="clipPath4573"
       clipPathUnits="userSpaceOnUse"><path
         id="path4571"
         d="M 253.433,711 H 751.671 V 312.712 H 253.433 Z" /></clipPath></defs><g
     transform="matrix(1.3333333,0,0,-1.3333333,0,1365.3333)"
     id="g4553"><g
       id="g4555"><g
         clip-path="url(#clipPath4561)"
         id="g4557"><g
           transform="translate(934,191)"
           id="g4563"><path
             id="path4565"
             style="fill:#36d7b7;fill-opacity:1;fill-rule:nonzero;stroke:none"
             d="m 0,0 c 0,-55.228 -44.772,-100 -100,-100 h -643 c -55.228,0 -100,44.772 -100,100 v 643 c 0,55.228 44.772,100 100,100 h 643 C -44.772,743 0,698.228 0,643 Z" /></g><g
           id="g4567"><g
             id="g4569" /><g
             id="g4585"><g
               id="g4583"
               clip-path="url(#clipPath4573)"><g
                 id="g4577"
                 transform="translate(406.3828,466.8877)"><path
                   id="path4575"
                   style="fill:#000000;fill-opacity:1;fill-rule:nonzero;stroke:none"
                   d="m 0,0 -12.848,82.344 c -4.088,23.944 -9.344,63.656 -12.848,89.352 h -1.752 c -4.088,-26.28 -9.928,-66.576 -14.016,-89.352 L -56.064,0 Z m -63.656,-59.568 -15.945,-81.848 c -0.915,-4.697 -5.03,-8.088 -9.815,-8.088 h -53.53 c -6.376,0 -11.123,5.886 -9.773,12.117 l 80.931,373.616 c 0.997,4.6 5.067,7.883 9.774,7.883 h 75.378 c 4.788,0 8.903,-3.393 9.817,-8.092 l 72.616,-373.616 c 1.2,-6.173 -3.528,-11.908 -9.816,-11.908 H 31.706 c -4.833,0 -8.975,3.456 -9.839,8.211 L 7.008,-59.568 Z" /></g><g
                 id="g4581"
                 transform="translate(749.7705,404.3994)"><path
                   id="path4579"
                   style="fill:#000000;fill-opacity:1;fill-rule:nonzero;stroke:none"
                   d="m 0,0 c 0,-26.497 0.889,-52.55 1.892,-76.606 0.236,-5.679 -4.308,-10.41 -9.992,-10.41 h -46.811 c -5.007,0 -9.243,3.704 -9.911,8.666 l -2.921,21.703 h -1.169 c -13.432,-19.273 -36.792,-35.041 -66.575,-35.041 -54.313,0 -75.92,40.296 -75.92,117.384 V 188.56 c 0,5.523 4.477,10 10,10 h 56.504 c 5.523,0 10,-4.477 10,-10 V 33.872 c 0,-37.376 7.591,-61.32 28.615,-61.32 13.433,0 21.608,9.928 25.112,19.272 2.92,5.84 4.672,14.6 4.672,24.529 V 188.56 c 0,5.523 4.477,10 10,10 H -10 c 5.523,0 10,-4.477 10,-10 z" /></g></g></g></g></g></g></g></svg>