<?xml version="1.0" encoding="UTF-8" standalone="no"?>
<svg
   xmlns:dc="http://purl.org/dc/elements/1.1/"
   xmlns:cc="http://creativecommons.org/ns#"
   xmlns:rdf="http://www.w3.org/1999/02/22-rdf-syntax-ns#"
   xmlns:svg="http://www.w3.org/2000/svg"
   xmlns="http://www.w3.org/2000/svg"
   viewBox="0 0 1365.3333 1365.3333"
   height="1365.3333"
   width="1365.3333"
   xml:space="preserve"
   id="svg4643"
   version="1.1"><metadata
     id="metadata4649"><rdf:RDF><cc:Work
         rdf:about=""><dc:format>image/svg+xml</dc:format><dc:type
           rdf:resource="http://purl.org/dc/dcmitype/StillImage" /><dc:title></dc:title></cc:Work></rdf:RDF></metadata><defs
     id="defs4647"><clipPath
       id="clipPath4659"
       clipPathUnits="userSpaceOnUse"><path
         id="path4657"
         d="M 0,1024 H 1024 V 0 H 0 Z" /></clipPath><clipPath
       id="clipPath4671"
       clipPathUnits="userSpaceOnUse"><path
         id="path4669"
         d="M 251.682,711 H 752.69 V 317.384 H 251.682 Z" /></clipPath></defs><g
     transform="matrix(1.3333333,0,0,-1.3333333,0,1365.3333)"
     id="g4651"><g
       id="g4653"><g
         clip-path="url(#clipPath4659)"
         id="g4655"><g
           transform="translate(934,191)"
           id="g4661"><path
             id="path4663"
             style="fill:#663399;fill-opacity:1;fill-rule:nonzero;stroke:none"
             d="m 0,0 c 0,-55.228 -44.772,-100 -100,-100 h -643 c -55.228,0 -100,44.772 -100,100 v 643 c 0,55.228 44.772,100 100,100 h 643 C -44.772,743 0,698.228 0,643 Z" /></g><g
           id="g4665"><g
             id="g4667" /><g
             id="g4683"><g
               style="opacity:0.75"
               id="g4681"
               clip-path="url(#clipPath4671)"><g
                 id="g4675"
                 transform="translate(404.6318,466.8877)"><path
                   id="path4673"
                   style="fill:#ffffff;fill-opacity:1;fill-rule:nonzero;stroke:none"
                   d="m 0,0 -12.848,82.344 c -4.042,23.676 -9.227,62.769 -12.73,88.483 -0.068,0.502 -0.496,0.869 -1.002,0.869 -0.5,0 -0.924,-0.357 -1,-0.85 -4.081,-26.292 -9.84,-65.97 -13.884,-88.502 L -56.064,0 Z m -63.656,-59.568 -15.945,-81.848 c -0.915,-4.697 -5.03,-8.088 -9.815,-8.088 h -53.53 c -6.376,0 -11.123,5.886 -9.773,12.117 l 80.931,373.616 c 0.997,4.6 5.067,7.883 9.774,7.883 h 75.378 c 4.788,0 8.903,-3.393 9.817,-8.092 l 72.616,-373.616 c 1.2,-6.173 -3.528,-11.908 -9.816,-11.908 H 31.706 c -4.833,0 -8.975,3.456 -9.839,8.211 L 7.008,-59.568 Z" /></g><g
                 id="g4679"
                 transform="translate(538.9473,517.1118)"><path
                   id="path4677"
                   style="fill:#ffffff;fill-opacity:1;fill-rule:nonzero;stroke:none"
                   d="m 0,0 c 0,27.039 -0.891,51.405 -1.895,75.433 -0.238,5.681 4.304,10.415 9.99,10.415 h 46.733 c 5.043,0 9.297,-3.756 9.922,-8.76 l 2.994,-23.944 h 0.631 c 0.336,0 0.647,0.168 0.834,0.448 14.633,21.948 39.032,36.928 68.614,36.928 54.313,0 75.92,-43.216 75.92,-106.872 v -173.376 c 0,-5.523 -4.477,-10 -10,-10 h -56.504 c -5.523,0 -10,4.477 -10,10 v 168.704 c 0,23.944 -5.84,47.304 -28.031,47.304 -12.849,0 -23.36,-8.76 -28.616,-25.696 -2.336,-5.84 -4.088,-15.184 -4.088,-26.281 v -164.031 c 0,-5.523 -4.477,-10 -10,-10 H 10 c -5.523,0 -10,4.477 -10,10 z" /></g></g></g></g></g></g></g></svg>