<?xml version="1.0" encoding="UTF-8" standalone="no"?>
<svg
   xmlns:dc="http://purl.org/dc/elements/1.1/"
   xmlns:cc="http://creativecommons.org/ns#"
   xmlns:rdf="http://www.w3.org/1999/02/22-rdf-syntax-ns#"
   xmlns:svg="http://www.w3.org/2000/svg"
   xmlns="http://www.w3.org/2000/svg"
   viewBox="0 0 1365.3333 1365.3333"
   height="1365.3333"
   width="1365.3333"
   xml:space="preserve"
   id="svg5193"
   version="1.1"><metadata
     id="metadata5199"><rdf:RDF><cc:Work
         rdf:about=""><dc:format>image/svg+xml</dc:format><dc:type
           rdf:resource="http://purl.org/dc/dcmitype/StillImage" /><dc:title></dc:title></cc:Work></rdf:RDF></metadata><defs
     id="defs5197"><clipPath
       id="clipPath5209"
       clipPathUnits="userSpaceOnUse"><path
         id="path5207"
         d="M 0,1024 H 1024 V 0 H 0 Z" /></clipPath><clipPath
       id="clipPath5221"
       clipPathUnits="userSpaceOnUse"><path
         id="path5219"
         d="M 346.735,721.512 H 683.11 V 317.384 H 346.735 Z" /></clipPath></defs><g
     transform="matrix(1.3333333,0,0,-1.3333333,0,1365.3333)"
     id="g5201"><g
       id="g5203"><g
         clip-path="url(#clipPath5209)"
         id="g5205"><g
           transform="translate(934,191)"
           id="g5211"><path
             id="path5213"
             style="fill:#86e2d5;fill-opacity:1;fill-rule:nonzero;stroke:none"
             d="m 0,0 c 0,-55.228 -44.772,-100 -100,-100 h -643 c -55.228,0 -100,44.772 -100,100 v 643 c 0,55.228 44.772,100 100,100 h 643 C -44.772,743 0,698.228 0,643 Z" /></g><g
           id="g5215"><g
             id="g5217" /><g
             id="g5233"><g
               id="g5231"
               clip-path="url(#clipPath5221)"><g
                 id="g5225"
                 transform="translate(423.2388,525.8716)"><path
                   id="path5223"
                   style="fill:#000000;fill-opacity:1;fill-rule:nonzero;stroke:none"
                   d="m 0,0 c 4.088,-0.584 8.176,-0.584 12.848,-0.584 38.544,0 55.48,27.448 55.48,64.24 0,34.456 -14.016,61.32 -49.64,61.32 -7.008,0 -14.016,-1.168 -18.688,-2.92 z m -76.504,171.072 c 0,4.839 3.459,8.981 8.22,9.843 20.501,3.713 46.145,5.965 71.788,5.965 45.552,0 81.76,-7.008 106.871,-30.368 23.361,-21.024 33.873,-53.144 33.873,-86.432 0,-42.632 -12.848,-73 -33.289,-94.608 -24.527,-26.28 -63.655,-37.96 -95.775,-37.96 -5.256,0 -9.928,0 -15.184,0.584 v -136.584 c 0,-5.523 -4.477,-10 -10,-10 h -56.504 c -5.523,0 -10,4.477 -10,10 z" /></g><g
                 id="g5229"
                 transform="translate(616.6064,721.5117)"><path
                   id="path5227"
                   style="fill:#000000;fill-opacity:1;fill-rule:nonzero;stroke:none"
                   d="m 0,0 h 56.504 c 5.523,0 10,-4.477 10,-10 v -384.128 c 0,-5.523 -4.477,-10 -10,-10 H 0 c -5.523,0 -10,4.477 -10,10 L -10,-10 c 0,5.523 4.477,10 10,10" /></g></g></g></g></g></g></g></svg>