<?xml version="1.0" encoding="UTF-8" standalone="no"?>
<svg
   xmlns:dc="http://purl.org/dc/elements/1.1/"
   xmlns:cc="http://creativecommons.org/ns#"
   xmlns:rdf="http://www.w3.org/1999/02/22-rdf-syntax-ns#"
   xmlns:svg="http://www.w3.org/2000/svg"
   xmlns="http://www.w3.org/2000/svg"
   viewBox="0 0 1365.3333 1365.3333"
   height="1365.3333"
   width="1365.3333"
   xml:space="preserve"
   id="svg4941"
   version="1.1"><metadata
     id="metadata4947"><rdf:RDF><cc:Work
         rdf:about=""><dc:format>image/svg+xml</dc:format><dc:type
           rdf:resource="http://purl.org/dc/dcmitype/StillImage" /><dc:title></dc:title></cc:Work></rdf:RDF></metadata><defs
     id="defs4945"><clipPath
       id="clipPath4957"
       clipPathUnits="userSpaceOnUse"><path
         id="path4955"
         d="M 0,1024 H 1024 V 0 H 0 Z" /></clipPath></defs><g
     transform="matrix(1.3333333,0,0,-1.3333333,0,1365.3333)"
     id="g4949"><g
       id="g4951"><g
         clip-path="url(#clipPath4957)"
         id="g4953"><g
           transform="translate(933,190)"
           id="g4959"><path
             id="path4961"
             style="fill:#97295f;fill-opacity:1;fill-rule:nonzero;stroke:none"
             d="m 0,0 c 0,-55.229 -44.771,-100 -100,-100 h -643 c -55.229,0 -100,44.771 -100,100 v 643 c 0,55.229 44.771,100 100,100 h 643 C -44.771,743 0,698.229 0,643 Z" /></g><g
           transform="translate(322.856,312.6094)"
           id="g4963"><path
             id="path4965"
             style="fill:#eb90bb;fill-opacity:1;fill-rule:nonzero;stroke:none"
             d="m 0,0 -0.111,405.137 c 0,0 0.082,4.433 4.382,4.571 4.299,0.139 71.453,0.067 71.453,0.067 0,0 3.42,0.413 3.42,-5.065 V 0.531 c 0,0 1.53,-8.14 -4.504,-8.14 H 6.294 C 6.294,-7.609 0.002,-7.801 0,0" /></g><g
           transform="translate(568.8047,369.7305)"
           id="g4967"><path
             id="path4969"
             style="fill:#eb90bb;fill-opacity:1;fill-rule:nonzero;stroke:none"
             d="m 0,0 c 47.437,0 80.969,23.719 80.969,126.497 0,102.779 -69.448,106.107 -80.96,106.107 -11.514,0 -22.814,-1.248 -22.814,-1.248 V 1.666 c 0,0 15.003,-1.769 22.805,-1.666 m -108.805,-55.758 v 346.201 c 0,0 0,4.202 7.81,5.827 17.357,2.833 38.524,4.833 95.831,4.161 34.398,0 168.481,-9.156 167.927,-172.27 C 162.589,64.498 153.361,5.549 106.48,-31.068 76.244,-55.202 38.825,-67.963 -14.437,-67.686 c -20.944,0.069 -57.101,1.248 -79.571,3.747 -2.913,0.276 -14.797,1.801 -14.797,8.181" /></g></g></g></g></svg>