<?xml version="1.0" encoding="UTF-8" standalone="no"?>
<svg
   xmlns:dc="http://purl.org/dc/elements/1.1/"
   xmlns:cc="http://creativecommons.org/ns#"
   xmlns:rdf="http://www.w3.org/1999/02/22-rdf-syntax-ns#"
   xmlns:svg="http://www.w3.org/2000/svg"
   xmlns="http://www.w3.org/2000/svg"
   viewBox="0 0 1365.3333 1365.3333"
   height="1365.3333"
   width="1365.3333"
   xml:space="preserve"
   id="svg5235"
   version="1.1"><metadata
     id="metadata5241"><rdf:RDF><cc:Work
         rdf:about=""><dc:format>image/svg+xml</dc:format><dc:type
           rdf:resource="http://purl.org/dc/dcmitype/StillImage" /><dc:title></dc:title></cc:Work></rdf:RDF></metadata><defs
     id="defs5239"><clipPath
       id="clipPath5251"
       clipPathUnits="userSpaceOnUse"><path
         id="path5249"
         d="M 0,1024 H 1024 V 0 H 0 Z" /></clipPath><clipPath
       id="clipPath5263"
       clipPathUnits="userSpaceOnUse"><path
         id="path5261"
         d="M 326.671,712.751 H 729.039 V 317.384 H 326.671 Z" /></clipPath></defs><g
     transform="matrix(1.3333333,0,0,-1.3333333,0,1365.3333)"
     id="g5243"><g
       id="g5245"><g
         clip-path="url(#clipPath5251)"
         id="g5247"><g
           transform="translate(934,191)"
           id="g5253"><path
             id="path5255"
             style="fill:#bf55ec;fill-opacity:1;fill-rule:nonzero;stroke:none"
             d="m 0,0 c 0,-55.228 -44.772,-100 -100,-100 h -643 c -55.228,0 -100,44.772 -100,100 v 643 c 0,55.228 44.772,100 100,100 h 643 C -44.772,743 0,698.228 0,643 Z" /></g><g
           id="g5257"><g
             id="g5259" /><g
             id="g5275"><g
               style="opacity:0.75"
               id="g5273"
               clip-path="url(#clipPath5263)"><g
                 id="g5267"
                 transform="translate(403.1748,525.8716)"><path
                   id="path5265"
                   style="fill:#ffffff;fill-opacity:1;fill-rule:nonzero;stroke:none"
                   d="m 0,0 c 4.088,-0.584 8.176,-0.584 12.848,-0.584 38.544,0 55.48,27.448 55.48,64.24 0,34.456 -14.016,61.32 -49.64,61.32 -7.008,0 -14.016,-1.168 -18.688,-2.92 z m -76.504,171.072 c 0,4.839 3.459,8.981 8.22,9.843 20.501,3.713 46.145,5.965 71.788,5.965 45.552,0 81.76,-7.008 106.872,-30.368 23.36,-21.024 33.872,-53.144 33.872,-86.432 0,-42.632 -12.849,-73 -33.288,-94.608 -24.528,-26.28 -63.656,-37.96 -95.776,-37.96 -5.256,0 -9.928,0 -15.184,0.584 v -136.584 c 0,-5.523 -4.477,-10 -10,-10 h -56.504 c -5.523,0 -10,4.477 -10,10 z" /></g><g
                 id="g5271"
                 transform="translate(586.543,517.1118)"><path
                   id="path5269"
                   style="fill:#ffffff;fill-opacity:1;fill-rule:nonzero;stroke:none"
                   d="m 0,0 c 0,24.476 -0.891,51.179 -1.894,75.443 -0.235,5.679 4.307,10.405 9.991,10.405 h 46.484 c 5.148,0 9.454,-3.909 9.953,-9.032 L 67.744,43.8 h 2.336 c 12.264,30.368 35.624,46.72 56.064,46.72 2.674,0 4.91,-0.062 6.853,-0.167 5.321,-0.286 9.499,-4.659 9.499,-9.988 V 23.99 c 0,-5.573 -4.548,-10.066 -10.12,-9.998 -1.955,0.024 -4.025,0.024 -6.232,0.024 -16.352,0 -37.96,-11.096 -46.136,-40.297 -2.336,-6.424 -3.504,-16.935 -3.504,-28.615 v -134.832 c 0,-5.523 -4.477,-10 -10,-10 H 10 c -5.523,0 -10,4.477 -10,10 z" /></g></g></g></g></g></g></g></svg>