<?xml version="1.0" encoding="UTF-8" standalone="no"?>
<svg
   xmlns:dc="http://purl.org/dc/elements/1.1/"
   xmlns:cc="http://creativecommons.org/ns#"
   xmlns:rdf="http://www.w3.org/1999/02/22-rdf-syntax-ns#"
   xmlns:svg="http://www.w3.org/2000/svg"
   xmlns="http://www.w3.org/2000/svg"
   viewBox="0 0 1365.3333 1365.3333"
   height="1365.3333"
   width="1365.3333"
   xml:space="preserve"
   id="svg4503"
   version="1.1"><metadata
     id="metadata4509"><rdf:RDF><cc:Work
         rdf:about=""><dc:format>image/svg+xml</dc:format><dc:type
           rdf:resource="http://purl.org/dc/dcmitype/StillImage" /><dc:title></dc:title></cc:Work></rdf:RDF></metadata><defs
     id="defs4507"><clipPath
       id="clipPath4519"
       clipPathUnits="userSpaceOnUse"><path
         id="path4517"
         d="M 0,1024 H 1024 V 0 H 0 Z" /></clipPath><clipPath
       id="clipPath4531"
       clipPathUnits="userSpaceOnUse"><path
         id="path4529"
         d="M 264.738,711 H 749.981 V 313.88 H 264.738 Z" /></clipPath></defs><g
     transform="matrix(1.3333333,0,0,-1.3333333,0,1365.3333)"
     id="g4511"><g
       id="g4513"><g
         clip-path="url(#clipPath4519)"
         id="g4515"><g
           transform="translate(934,191)"
           id="g4521"><path
             id="path4523"
             style="fill:#be90d4;fill-opacity:1;fill-rule:nonzero;stroke:none"
             d="m 0,0 c 0,-55.228 -44.772,-100 -100,-100 h -643 c -55.228,0 -100,44.772 -100,100 v 643 c 0,55.228 44.772,100 100,100 h 643 C -44.772,743 0,698.228 0,643 Z" /></g><g
           id="g4525"><g
             id="g4527" /><g
             id="g4543"><g
               style="opacity:0.5"
               id="g4541"
               clip-path="url(#clipPath4531)"><g
                 id="g4535"
                 transform="translate(417.688,466.8877)"><path
                   id="path4533"
                   style="fill:#000000;fill-opacity:1;fill-rule:nonzero;stroke:none"
                   d="m 0,0 -12.848,82.344 c -4.088,23.944 -9.344,63.656 -12.848,89.352 h -1.752 c -4.088,-26.28 -9.928,-66.576 -14.016,-89.352 L -56.064,0 Z m -63.656,-59.568 -15.945,-81.848 c -0.915,-4.697 -5.03,-8.088 -9.815,-8.088 h -53.53 c -6.376,0 -11.123,5.886 -9.773,12.117 l 80.931,373.616 c 0.997,4.6 5.067,7.883 9.774,7.883 h 75.378 c 4.788,0 8.903,-3.393 9.817,-8.092 l 72.616,-373.616 c 1.2,-6.173 -3.528,-11.908 -9.816,-11.908 H 31.706 c -4.833,0 -8.975,3.456 -9.839,8.211 L 7.008,-59.568 Z" /></g><g
                 id="g4539"
                 transform="translate(680.4854,486.7432)"><path
                   id="path4537"
                   style="fill:#000000;fill-opacity:1;fill-rule:nonzero;stroke:none"
                   d="M 0,0 C 0,36.208 -9.344,64.825 -32.12,64.825 -57.231,64.825 -67.16,28.617 -67.744,0 Z m -67.744,-53.728 c 0.584,-44.383 26.28,-60.736 60.152,-60.736 16.599,0 31.474,2.757 43.832,6.153 5.664,1.556 11.44,-2.06 12.496,-7.838 l 6.413,-35.08 c 0.896,-4.903 -1.956,-9.699 -6.679,-11.29 -18.959,-6.388 -44.666,-10.344 -69.493,-10.344 -78.256,0 -120.889,51.391 -120.889,140.743 0,95.776 50.224,153.009 114.465,153.009 61.319,0 96.943,-48.472 96.943,-134.905 0,-13.866 -0.537,-23.432 -1.248,-30.703 -0.5,-5.117 -4.811,-9.009 -9.951,-9.009 z" /></g></g></g></g></g></g></g></svg>