<?xml version="1.0" encoding="UTF-8" standalone="no"?>
<svg
   xmlns:dc="http://purl.org/dc/elements/1.1/"
   xmlns:cc="http://creativecommons.org/ns#"
   xmlns:rdf="http://www.w3.org/1999/02/22-rdf-syntax-ns#"
   xmlns:svg="http://www.w3.org/2000/svg"
   xmlns="http://www.w3.org/2000/svg"
   viewBox="0 0 1365.3333 1365.3333"
   height="1365.3333"
   width="1365.3333"
   xml:space="preserve"
   id="svg4685"
   version="1.1"><metadata
     id="metadata4691"><rdf:RDF><cc:Work
         rdf:about=""><dc:format>image/svg+xml</dc:format><dc:type
           rdf:resource="http://purl.org/dc/dcmitype/StillImage" /><dc:title></dc:title></cc:Work></rdf:RDF></metadata><defs
     id="defs4689"><clipPath
       id="clipPath4701"
       clipPathUnits="userSpaceOnUse"><path
         id="path4699"
         d="M 0,1024 H 1024 V 0 H 0 Z" /></clipPath><clipPath
       id="clipPath4713"
       clipPathUnits="userSpaceOnUse"><path
         id="path4711"
         d="M 339.727,711 H 691.286 V 317.384 H 339.727 Z" /></clipPath></defs><g
     transform="matrix(1.3333333,0,0,-1.3333333,0,1365.3333)"
     id="g4693"><g
       id="g4695"><g
         clip-path="url(#clipPath4701)"
         id="g4697"><g
           transform="translate(934,191)"
           id="g4703"><path
             id="path4705"
             style="fill:#e67e22;fill-opacity:1;fill-rule:nonzero;stroke:none"
             d="m 0,0 c 0,-55.228 -44.772,-100 -100,-100 h -643 c -55.228,0 -100,44.772 -100,100 v 643 c 0,55.228 44.772,100 100,100 h 643 C -44.772,743 0,698.228 0,643 Z" /></g><g
           id="g4707"><g
             id="g4709" /><g
             id="g4725"><g
               style="opacity:0.5"
               id="g4723"
               clip-path="url(#clipPath4713)"><g
                 id="g4717"
                 transform="translate(416.2305,700.9995)"><path
                   id="path4715"
                   style="fill:#ffffff;fill-opacity:1;fill-rule:nonzero;stroke:none"
                   d="m 0,0 v -373.616 c 0,-5.523 -4.477,-10 -10,-10 h -56.504 c -5.523,0 -10,4.477 -10,10 V 0 c 0,5.523 4.477,10 10,10 H -10 C -4.477,10 0,5.523 0,0" /></g><g
                 id="g4721"
                 transform="translate(477.542,517.1118)"><path
                   id="path4719"
                   style="fill:#ffffff;fill-opacity:1;fill-rule:nonzero;stroke:none"
                   d="m 0,0 c 0,27.039 -0.891,51.405 -1.895,75.433 -0.238,5.681 4.304,10.415 9.99,10.415 h 46.733 c 5.044,0 9.298,-3.756 9.923,-8.76 l 2.993,-23.944 h 1.168 c 14.6,22.192 39.128,37.376 68.912,37.376 54.312,0 75.92,-43.216 75.92,-106.872 v -173.376 c 0,-5.523 -4.477,-10 -10,-10 H 147.24 c -5.523,0 -10,4.477 -10,10 V -21.024 C 137.24,2.92 131.4,26.28 109.208,26.28 96.36,26.28 85.849,17.52 80.592,0.584 78.256,-5.256 76.504,-14.6 76.504,-25.697 v -164.031 c 0,-5.523 -4.477,-10 -10,-10 H 10 c -5.523,0 -10,4.477 -10,10 z" /></g></g></g></g></g></g></g></svg>