<?xml version="1.0" encoding="UTF-8" standalone="no"?>
<svg
   xmlns:dc="http://purl.org/dc/elements/1.1/"
   xmlns:cc="http://creativecommons.org/ns#"
   xmlns:rdf="http://www.w3.org/1999/02/22-rdf-syntax-ns#"
   xmlns:svg="http://www.w3.org/2000/svg"
   xmlns="http://www.w3.org/2000/svg"
   viewBox="0 0 1365.3333 1365.3333"
   height="1365.3333"
   width="1365.3333"
   xml:space="preserve"
   id="svg5063"
   version="1.1"><metadata
     id="metadata5069"><rdf:RDF><cc:Work
         rdf:about=""><dc:format>image/svg+xml</dc:format><dc:type
           rdf:resource="http://purl.org/dc/dcmitype/StillImage" /><dc:title></dc:title></cc:Work></rdf:RDF></metadata><defs
     id="defs5067"><clipPath
       id="clipPath5079"
       clipPathUnits="userSpaceOnUse"><path
         id="path5077"
         d="M 0,1024 H 1024 V 0 H 0 Z" /></clipPath><clipPath
       id="clipPath5091"
       clipPathUnits="userSpaceOnUse"><path
         id="path5089"
         d="M 220.158,706.963 H 803.98 V 312.76 H 220.158 Z" /></clipPath></defs><g
     transform="matrix(1.3333333,0,0,-1.3333333,0,1365.3333)"
     id="g5071"><g
       id="g5073"><g
         clip-path="url(#clipPath5079)"
         id="g5075"><g
           transform="translate(934,191)"
           id="g5081"><path
             id="path5083"
             style="fill:#a0d468;fill-opacity:1;fill-rule:nonzero;stroke:none"
             d="m 0,0 c 0,-55.228 -44.772,-100 -100,-100 h -643 c -55.228,0 -100,44.772 -100,100 v 643 c 0,55.228 44.772,100 100,100 h 643 C -44.772,743 0,698.228 0,643 Z" /></g><g
           id="g5085"><g
             id="g5087" /><g
             id="g5103"><g
               style="opacity:0.5"
               id="g5101"
               clip-path="url(#clipPath5091)"><g
                 id="g5095"
                 transform="translate(472.0457,453.7943)"><path
                   id="path5093"
                   style="fill:#000000;fill-opacity:1;fill-rule:nonzero;stroke:none"
                   d="M 0,0 C -2.312,36.993 -4.624,86.702 -4.046,128.896 H -5.202 C -12.138,87.28 -22.542,39.305 -30.056,9.248 l -32.324,-132.03 c -1.045,-4.268 -4.87,-7.27 -9.264,-7.27 h -38.145 c -4.423,0 -8.266,3.04 -9.283,7.344 L -149.705,6.937 c -7.514,31.212 -17.918,79.765 -24.276,121.959 h -1.156 c -1.156,-42.194 -4.046,-91.326 -5.78,-130.052 l -6.472,-126.205 c -0.26,-5.071 -4.448,-9.049 -9.526,-9.049 h -45.434 c -5.535,0 -9.907,4.695 -9.514,10.215 l 26.386,370.503 c 0.356,4.992 4.509,8.861 9.514,8.861 h 63.803 c 4.473,0 8.346,-3.11 9.312,-7.477 l 29.558,-133.558 c 10.337,-48.817 20.105,-91.927 27.033,-135.568 0.077,-0.486 0.495,-0.842 0.986,-0.842 h 0.008 c 0.5,0 0.922,0.368 0.989,0.865 5.78,43.07 14.4,86.741 24.161,135.545 l 29.558,133.558 c 0.967,4.367 4.839,7.477 9.313,7.477 h 63.131 c 5.043,0 9.215,-3.926 9.521,-8.959 l 22.538,-370.503 c 0.334,-5.486 -4.025,-10.117 -9.52,-10.117 H 16.002 c -5.08,0 -9.268,3.98 -9.526,9.053 z" /></g><g
                 id="g5099"
                 transform="translate(802.084,403.508)"><path
                   id="path5097"
                   style="fill:#000000;fill-opacity:1;fill-rule:nonzero;stroke:none"
                   d="m 0,0 c 0,-26.359 0.889,-52.274 1.887,-76.184 0.227,-5.421 -4.103,-9.94 -9.529,-9.94 h -47.021 c -4.776,0 -8.816,3.532 -9.453,8.265 l -2.934,21.791 h -1.156 c -13.293,-19.074 -36.414,-34.68 -65.893,-34.68 -53.755,0 -75.141,39.883 -75.141,116.18 v 161.553 c 0,5.268 4.27,9.538 9.538,9.538 h 56.644 c 5.267,0 9.538,-4.27 9.538,-9.538 V 33.524 c 0,-36.993 7.514,-60.691 28.322,-60.691 13.295,0 21.387,9.827 24.855,19.076 2.89,5.78 4.623,14.45 4.623,24.275 v 170.801 c 0,5.268 4.271,9.538 9.538,9.538 h 56.644 c 5.268,0 9.538,-4.27 9.538,-9.538 z" /></g></g></g></g></g></g></g></svg>