<?xml version="1.0" encoding="UTF-8" standalone="no"?>
<svg
   xmlns:dc="http://purl.org/dc/elements/1.1/"
   xmlns:cc="http://creativecommons.org/ns#"
   xmlns:rdf="http://www.w3.org/1999/02/22-rdf-syntax-ns#"
   xmlns:svg="http://www.w3.org/2000/svg"
   xmlns="http://www.w3.org/2000/svg"
   viewBox="0 0 1365.3333 1365.3333"
   height="1365.3333"
   width="1365.3333"
   xml:space="preserve"
   id="svg4971"
   version="1.1"><metadata
     id="metadata4977"><rdf:RDF><cc:Work
         rdf:about=""><dc:format>image/svg+xml</dc:format><dc:type
           rdf:resource="http://purl.org/dc/dcmitype/StillImage" /><dc:title></dc:title></cc:Work></rdf:RDF></metadata><defs
     id="defs4975"><clipPath
       id="clipPath4987"
       clipPathUnits="userSpaceOnUse"><path
         id="path4985"
         d="M 0,1024 H 1024 V 0 H 0 Z" /></clipPath><clipPath
       id="clipPath4999"
       clipPathUnits="userSpaceOnUse"><path
         id="path4997"
         d="M 335.187,714.776 H 706.054 V 306.33 H 335.187 Z" /></clipPath></defs><g
     transform="matrix(1.3333333,0,0,-1.3333333,0,1365.3333)"
     id="g4979"><g
       id="g4981"><g
         clip-path="url(#clipPath4987)"
         id="g4983"><g
           transform="translate(934,191)"
           id="g4989"><path
             id="path4991"
             style="fill:#bde6ef;fill-opacity:1;fill-rule:nonzero;stroke:none"
             d="m 0,0 c 0,-55.228 -44.772,-100 -100,-100 h -643 c -55.228,0 -100,44.772 -100,100 v 643 c 0,55.228 44.772,100 100,100 h 643 C -44.772,743 0,698.228 0,643 Z" /></g><g
           id="g4993"><g
             id="g4995" /><g
             id="g5011"><g
               id="g5009"
               clip-path="url(#clipPath4999)"><g
                 id="g5003"
                 transform="translate(345.1865,714.7762)"><path
                   id="path5001"
                   style="fill:#000000;fill-opacity:1;fill-rule:nonzero;stroke:none"
                   d="m 0,0 h 59.387 c 5.523,0 10,-4.477 10,-10 v -321.179 c 0,-5.523 4.477,-10 10,-10 h 84.232 c 5.523,0 10,-4.477 10,-10 v -47.267 c 0,-5.523 -4.477,-10 -10,-10 H 0 c -5.523,0 -10,4.477 -10,10 V -10 c 0,5.523 4.477,10 10,10" /></g><g
                 id="g5007"
                 transform="translate(558.1885,513.5834)"><path
                   id="path5005"
                   style="fill:#000000;fill-opacity:1;fill-rule:nonzero;stroke:none"
                   d="m 0,0 c 0,25.53 -0.934,53.395 -1.981,78.677 -0.236,5.679 4.307,10.406 9.991,10.406 h 48.97 c 5.148,0 9.455,-3.909 9.953,-9.033 l 3.364,-34.6 h 2.424 c 12.725,31.512 36.966,48.481 58.175,48.481 2.99,0 5.453,-0.076 7.574,-0.2 5.281,-0.308 9.395,-4.692 9.395,-9.982 V 24.512 c 0,-5.572 -4.548,-10.074 -10.12,-9.998 -2.141,0.03 -4.414,0.03 -6.849,0.03 -16.967,0 -39.389,-11.514 -47.874,-41.815 -2.423,-6.666 -3.635,-17.573 -3.635,-29.693 v -140.289 c 0,-5.523 -4.477,-10 -10,-10 H 10 c -5.523,0 -10,4.477 -10,10 z" /></g></g></g></g></g></g></g></svg>