<?xml version="1.0" encoding="UTF-8" standalone="no"?>
<svg
   xmlns:dc="http://purl.org/dc/elements/1.1/"
   xmlns:cc="http://creativecommons.org/ns#"
   xmlns:rdf="http://www.w3.org/1999/02/22-rdf-syntax-ns#"
   xmlns:svg="http://www.w3.org/2000/svg"
   xmlns="http://www.w3.org/2000/svg"
   viewBox="0 0 1365.3333 1365.3333"
   height="1365.3333"
   width="1365.3333"
   xml:space="preserve"
   id="svg5277"
   version="1.1"><metadata
     id="metadata5283"><rdf:RDF><cc:Work
         rdf:about=""><dc:format>image/svg+xml</dc:format><dc:type
           rdf:resource="http://purl.org/dc/dcmitype/StillImage" /><dc:title></dc:title></cc:Work></rdf:RDF></metadata><defs
     id="defs5281"><clipPath
       id="clipPath5293"
       clipPathUnits="userSpaceOnUse"><path
         id="path5291"
         d="M 0,1024 H 1024 V 0 H 0 Z" /></clipPath><clipPath
       id="clipPath5305"
       clipPathUnits="userSpaceOnUse"><path
         id="path5303"
         d="M 222,800.111 H 803.111 V 219 H 222 Z" /></clipPath></defs><g
     transform="matrix(1.3333333,0,0,-1.3333333,0,1365.3333)"
     id="g5285"><g
       id="g5287"><g
         clip-path="url(#clipPath5293)"
         id="g5289"><g
           transform="translate(934,191)"
           id="g5295"><path
             id="path5297"
             style="fill:#bf55ec;fill-opacity:1;fill-rule:nonzero;stroke:none"
             d="m 0,0 c 0,-55.228 -44.772,-100 -100,-100 h -643 c -55.228,0 -100,44.772 -100,100 v 643 c 0,55.228 44.772,100 100,100 h 643 C -44.772,743 0,698.228 0,643 Z" /></g><g
           id="g5299"><g
             id="g5301" /><g
             id="g5313"><g
               id="g5311"
               clip-path="url(#clipPath5305)"><g
                 id="g5309"
                 transform="translate(651.7801,499.1198)"><path
                   id="path5307"
                   style="fill:#ffffff;fill-opacity:1;fill-rule:nonzero;stroke:none"
                   d="m 0,0 -217.917,-125.811 c -1.864,-1.138 -3.971,-1.67 -6.053,-1.67 -2.082,0 -4.541,0.532 -6.405,1.622 -3.729,2.155 -6.405,6.15 -6.405,10.484 v 251.67 c 0,4.334 2.676,8.329 6.405,10.484 3.729,2.179 8.554,2.179 12.282,0 L -0.088,20.968 C 3.641,18.814 6.009,14.818 6.009,10.484 6.009,6.15 3.729,2.155 0,0 m -139.225,300.991 c -160.459,0 -290.555,-130.096 -290.555,-290.555 0,-160.459 130.096,-290.556 290.555,-290.556 160.46,0 290.556,130.097 290.556,290.556 0,160.459 -130.096,290.555 -290.556,290.555" /></g></g></g></g></g></g></g></svg>