<?xml version="1.0" encoding="UTF-8" standalone="no"?>
<svg
   xmlns:dc="http://purl.org/dc/elements/1.1/"
   xmlns:cc="http://creativecommons.org/ns#"
   xmlns:rdf="http://www.w3.org/1999/02/22-rdf-syntax-ns#"
   xmlns:svg="http://www.w3.org/2000/svg"
   xmlns="http://www.w3.org/2000/svg"
   viewBox="0 0 1365.3333 1365.3333"
   height="1365.3333"
   width="1365.3333"
   xml:space="preserve"
   id="svg4617"
   version="1.1"><metadata
     id="metadata4623"><rdf:RDF><cc:Work
         rdf:about=""><dc:format>image/svg+xml</dc:format><dc:type
           rdf:resource="http://purl.org/dc/dcmitype/StillImage" /><dc:title></dc:title></cc:Work></rdf:RDF></metadata><defs
     id="defs4621"><clipPath
       id="clipPath4633"
       clipPathUnits="userSpaceOnUse"><path
         id="path4631"
         d="M 0,1024 H 1024 V 0 H 0 Z" /></clipPath></defs><g
     transform="matrix(1.3333333,0,0,-1.3333333,0,1365.3333)"
     id="g4625"><g
       id="g4627"><g
         clip-path="url(#clipPath4633)"
         id="g4629"><g
           transform="translate(933,190)"
           id="g4635"><path
             id="path4637"
             style="fill:#533d3c;fill-opacity:1;fill-rule:nonzero;stroke:none"
             d="m 0,0 c 0,-55.229 -44.772,-100 -100,-100 h -643 c -55.229,0 -100,44.771 -100,100 v 643 c 0,55.229 44.771,100 100,100 h 643 C -44.772,743 0,698.229 0,643 Z" /></g><g
           transform="translate(409.1978,401.0176)"
           id="g4639"><path
             id="path4641"
             style="fill:#ffffff;fill-opacity:1;fill-rule:evenodd;stroke:none"
             d="M 0,0 C 55.441,22.758 111.543,36.883 169.969,48.124 128.263,76.436 99.212,113.655 76.778,157.601 56.433,102.333 30.025,51.565 0,0 m 319.361,58.676 c 10.75,-2.326 21.846,-3.327 31.734,-8.833 9.989,-5.564 15.575,-17.267 12.395,-26.441 -11.79,10.959 -26.124,16.059 -41.769,17.942 -29.452,3.547 -58.768,1.222 -89.359,-1.709 6.434,-5.301 13.133,-7.297 19.281,-9.828 27.269,-11.226 54.775,-21.84 84.694,-23.903 9.445,-0.652 18.146,0.231 25.05,8.286 -2.922,-17.579 -10.14,-23.848 -28.081,-24.256 -14.833,-0.338 -29.331,2.322 -43.699,5.746 -32.345,7.712 -62.794,20.272 -91.926,36.152 -3.771,2.057 -7.218,2.879 -11.769,2.164 -63.388,-9.943 -125.4,-25.521 -186.533,-44.808 -2.825,-0.891 -4.874,-1.815 -6.575,-4.804 -19.389,-34.087 -39.762,-67.575 -65.867,-97.068 -12.208,-13.793 -25.578,-26.441 -44.25,-31.259 -14.629,-3.774 -26.887,1.654 -37.76,10.74 -4.343,3.627 -4.199,9.326 -2.929,14.48 1.878,7.627 5.132,14.67 9.891,21.028 24.022,32.101 56.815,52.73 91.978,70.445 -1.492,-4.215 -5.047,-6.625 -8.048,-9.467 -3.029,-2.871 -6.12,-5.685 -9.308,-8.381 -18.809,-15.884 -35.863,-33.42 -50.257,-53.447 -6.316,-8.793 -12.15,-17.885 -15.372,-28.342 -0.69,-2.238 -2.092,-5.08 -0.247,-7.004 2.094,-2.183 4.672,0.116 6.763,0.909 9.572,3.634 17.644,9.722 24.835,16.822 33.022,32.611 56.971,71.689 79.276,111.912 14.584,24.035 27.005,49.23 40.072,74.091 18.67,35.52 36.021,71.631 51.769,108.532 1.625,3.81 2.13,7.098 1.016,11.178 -8.323,30.493 -15.762,61.254 -20.342,92.507 -3.011,20.555 -4.396,41.498 -0.377,62.288 2.484,12.844 9.384,19.832 22.322,22.005 25.522,4.289 37.906,-9.706 39.376,-33.341 0.574,-9.235 -1.51,-18.261 -4.806,-27.052 1.893,17.937 -4.832,33.154 -14.314,47.488 -2.526,3.822 -5.289,9.262 -10.215,8.272 -5.564,-1.119 -6.631,-7.214 -7.467,-12.417 -2.854,-17.778 -3.442,-35.553 -1.844,-53.563 1.975,-22.25 7.257,-43.767 12.46,-65.347 0.278,-1.158 0.85,-2.245 1.939,-5.052 7.297,21.869 11.398,42.989 18.852,63.366 -1.304,-16.672 -2.456,-33.36 -3.96,-50.015 -1.164,-12.899 -2.864,-25.753 -6.033,-38.338 -0.66,-2.62 -0.158,-4.753 0.71,-7.079 13.898,-37.244 34.274,-70.281 61.784,-99.211 14.381,-15.125 30.585,-27.271 48.465,-37.59 2.639,-1.525 5.083,-2.65 8.252,-2.164 30.178,4.622 60.555,6.171 91.056,5.813 3.8,-0.173 7.601,-0.346 11.403,-0.52 2.476,-1.162 5.118,-0.941 7.734,-0.927" /></g></g></g></g></svg>