<?xml version="1.0" encoding="UTF-8" standalone="no"?>
<svg
   xmlns:dc="http://purl.org/dc/elements/1.1/"
   xmlns:cc="http://creativecommons.org/ns#"
   xmlns:rdf="http://www.w3.org/1999/02/22-rdf-syntax-ns#"
   xmlns:svg="http://www.w3.org/2000/svg"
   xmlns="http://www.w3.org/2000/svg"
   viewBox="0 0 1365.3333 1365.3333"
   height="1365.3333"
   width="1365.3333"
   xml:space="preserve"
   id="svg4793"
   version="1.1"><metadata
     id="metadata4799"><rdf:RDF><cc:Work
         rdf:about=""><dc:format>image/svg+xml</dc:format><dc:type
           rdf:resource="http://purl.org/dc/dcmitype/StillImage" /><dc:title></dc:title></cc:Work></rdf:RDF></metadata><defs
     id="defs4797"><clipPath
       id="clipPath4809"
       clipPathUnits="userSpaceOnUse"><path
         id="path4807"
         d="M 0,1024 H 1024 V 0 H 0 Z" /></clipPath><clipPath
       id="clipPath4821"
       clipPathUnits="userSpaceOnUse"><path
         id="path4819"
         d="M 222.291,736.135 H 797.703 V 314.751 H 222.291 Z" /></clipPath></defs><g
     transform="matrix(1.3333333,0,0,-1.3333333,0,1365.3333)"
     id="g4801"><g
       id="g4803"><g
         clip-path="url(#clipPath4809)"
         id="g4805"><g
           transform="translate(934,191)"
           id="g4811"><path
             id="path4813"
             style="fill:#ffde55;fill-opacity:1;fill-rule:nonzero;stroke:none"
             d="m 0,0 c 0,-55.228 -44.772,-100 -100,-100 h -643 c -55.228,0 -100,44.772 -100,100 v 643 c 0,55.228 44.772,100 100,100 h 643 C -44.772,743 0,698.228 0,643 Z" /></g><g
           id="g4815"><g
             id="g4817" /><g
             id="g4833"><g
               id="g4831"
               clip-path="url(#clipPath4821)"><g
                 id="g4825"
                 transform="translate(232.291,736.1348)"><path
                   id="path4823"
                   style="fill:#000000;fill-opacity:1;fill-rule:nonzero;stroke:none"
                   d="m 0,0 h 163.183 c 5.523,0 10,-4.477 10,-10 v -51.272 c 0,-5.523 -4.477,-10 -10,-10 H 81.901 c -5.523,0 -10,-4.478 -10,-10 v -88.16 c 0,-5.523 4.477,-10 10,-10 h 75.03 c 5.523,0 10,-4.477 10,-10 v -48.147 c 0,-5.523 -4.477,-10 -10,-10 h -75.03 c -5.523,0 -10,-4.477 -10,-10 v -153.805 c 0,-5.523 -4.477,-10 -10,-10 H 0 c -5.523,0 -10,4.477 -10,10 L -10,-10 c 0,5.523 4.477,10 10,10" /></g><g
                 id="g4829"
                 transform="translate(502.2914,620.4731)"><path
                   id="path4827"
                   style="fill:#000000;fill-opacity:1;fill-rule:nonzero;stroke:none"
                   d="m 0,0 c 5.05,0 9.307,-3.765 9.925,-8.777 l 15.173,-123.14 c 3.752,-33.135 8.128,-63.77 10.629,-92.53 h 1.876 c 4.376,28.76 10.628,61.896 16.88,91.28 L 79.748,-8.021 C 80.689,-3.355 84.79,0 89.55,0 h 46.74 c 4.777,0 8.887,-3.379 9.811,-8.066 l 24.044,-121.976 c 6.877,-34.385 12.504,-64.395 16.255,-94.405 h 1.25 c 2.501,28.76 6.252,60.645 10.629,93.78 L 215.803,-8.579 C 216.51,-3.656 220.728,0 225.702,0 h 59.705 c 6.535,0 11.314,-6.166 9.684,-12.495 L 221.47,-298.217 c -1.139,-4.418 -5.122,-7.505 -9.684,-7.505 h -54.159 c -4.729,0 -8.811,3.312 -9.785,7.94 l -20.835,98.969 c -6.252,28.134 -11.879,60.019 -15.631,95.03 h -1.25 c -4.376,-35.011 -11.254,-66.896 -18.131,-95.655 l -23.787,-98.629 c -1.083,-4.491 -5.101,-7.655 -9.721,-7.655 H 3.557 c -4.605,0 -8.614,3.144 -9.712,7.617 L -76.271,-12.383 C -77.817,-6.082 -73.047,0 -66.559,0 Z" /></g></g></g></g></g></g></g></svg>