<?xml version="1.0" encoding="UTF-8" standalone="no"?>
<svg
   xmlns:dc="http://purl.org/dc/elements/1.1/"
   xmlns:cc="http://creativecommons.org/ns#"
   xmlns:rdf="http://www.w3.org/1999/02/22-rdf-syntax-ns#"
   xmlns:svg="http://www.w3.org/2000/svg"
   xmlns="http://www.w3.org/2000/svg"
   viewBox="0 0 1365.3333 1365.3333"
   height="1365.3333"
   width="1365.3333"
   xml:space="preserve"
   id="svg4727"
   version="1.1"><metadata
     id="metadata4733"><rdf:RDF><cc:Work
         rdf:about=""><dc:format>image/svg+xml</dc:format><dc:type
           rdf:resource="http://purl.org/dc/dcmitype/StillImage" /><dc:title></dc:title></cc:Work></rdf:RDF></metadata><defs
     id="defs4731"><clipPath
       id="clipPath4743"
       clipPathUnits="userSpaceOnUse"><path
         id="path4741"
         d="M 0,1024 H 1024 V 0 H 0 Z" /></clipPath><clipPath
       id="clipPath4755"
       clipPathUnits="userSpaceOnUse"><path
         id="path4753"
         d="m 325.209,726.184 h 423.38 v -408.8 h -423.38 z" /></clipPath><clipPath
       id="clipPath4759"
       clipPathUnits="userSpaceOnUse"><path
         id="path4757"
         d="M 325.209,712.751 H 553.382 V 317.384 H 325.209 Z" /></clipPath><clipPath
       id="clipPath4763"
       clipPathUnits="userSpaceOnUse"><path
         id="path4761"
         d="m 567.562,726.184 h 181.027 v -408.8 H 567.562 Z" /></clipPath></defs><g
     transform="matrix(1.3333333,0,0,-1.3333333,0,1365.3333)"
     id="g4735"><g
       id="g4737"><g
         clip-path="url(#clipPath4743)"
         id="g4739"><g
           transform="translate(934,191)"
           id="g4745"><path
             id="path4747"
             style="fill:#22a7f0;fill-opacity:1;fill-rule:nonzero;stroke:none"
             d="m 0,0 c 0,-55.228 -44.772,-100 -100,-100 h -643 c -55.228,0 -100,44.772 -100,100 v 643 c 0,55.228 44.772,100 100,100 h 643 C -44.772,743 0,698.228 0,643 Z" /></g><g
           id="g4749"><g
             id="g4751" /><g
             id="g4791"><g
               style="opacity:0.80000299"
               id="g4789"
               clip-path="url(#clipPath4755)"><g
                 id="g4775"><g
                   id="g4765" /><g
                   id="g4773"><g
                     id="g4771"
                     clip-path="url(#clipPath4759)"><g
                       id="g4769"
                       transform="translate(401.7134,533.4639)"><path
                         id="path4767"
                         style="fill:#ffffff;fill-opacity:1;fill-rule:nonzero;stroke:none"
                         d="m 0,0 h 14.016 c 33.288,0 51.976,26.864 51.976,61.32 0,33.872 -13.432,57.232 -47.304,58.4 -7.008,0 -14.6,-0.584 -18.688,-2.336 z m -76.504,163.344 c 0,4.875 3.507,9.05 8.314,9.86 22.448,3.784 49.283,6.084 75.198,6.084 42.048,0 80.008,-5.84 105.119,-29.2 23.945,-21.609 31.537,-47.888 31.537,-81.76 0,-42.048 -21.024,-80.008 -60.736,-98.112 v -1.168 c 26.864,-11.097 40.296,-35.624 47.888,-78.256 6.034,-34.813 13.912,-72.576 20.411,-93.939 1.957,-6.435 -2.833,-12.933 -9.56,-12.933 H 82.83 c -4.354,0 -8.197,2.812 -9.528,6.957 -5.234,16.306 -12.286,50.508 -17.238,87.65 C 49.056,-73 36.792,-58.984 11.68,-58.984 H 0 V -206.08 c 0,-5.523 -4.477,-10 -10,-10 h -56.504 c -5.523,0 -10,4.477 -10,10 z" /></g></g></g></g><g
                 id="g4787"><g
                   id="g4777" /><g
                   id="g4785"><g
                     id="g4783"
                     clip-path="url(#clipPath4763)"><g
                       id="g4781"
                       transform="translate(606.1055,327.3838)"><path
                         id="path4779"
                         style="fill:#ffffff;fill-opacity:1;fill-rule:nonzero;stroke:none"
                         d="m 0,0 v 221.264 h -28.544 c -5.523,0 -10,4.477 -10,10 v 34.312 c 0,5.523 4.477,10 10,10 H 0 v 11.096 c 0,32.704 7.008,62.488 29.784,85.848 16.352,16.936 40.88,26.28 67.744,26.28 15.023,0 27.372,-1.672 37.3,-4.003 5.036,-1.183 8.301,-6.06 7.548,-11.178 l -5.859,-39.845 c -0.812,-5.518 -5.97,-9.273 -11.481,-8.414 -4.07,0.634 -8.622,0.952 -13.492,0.952 -25.696,0 -35.04,-22.776 -35.04,-47.304 v -13.432 h 39.64 c 5.522,0 10,-4.477 10,-10 v -34.312 c 0,-5.523 -4.478,-10 -10,-10 H 76.504 V 0 c 0,-5.523 -4.477,-10 -10,-10 L 10,-10 C 4.477,-10 0,-5.523 0,0" /></g></g></g></g></g></g></g></g></g></g></svg>