<?xml version="1.0" encoding="UTF-8" standalone="no"?>
<svg
   xmlns:dc="http://purl.org/dc/elements/1.1/"
   xmlns:cc="http://creativecommons.org/ns#"
   xmlns:rdf="http://www.w3.org/1999/02/22-rdf-syntax-ns#"
   xmlns:svg="http://www.w3.org/2000/svg"
   xmlns="http://www.w3.org/2000/svg"
   viewBox="0 0 1365.3333 1365.3333"
   height="1365.3333"
   width="1365.3333"
   xml:space="preserve"
   id="svg4899"
   version="1.1"><metadata
     id="metadata4905"><rdf:RDF><cc:Work
         rdf:about=""><dc:format>image/svg+xml</dc:format><dc:type
           rdf:resource="http://purl.org/dc/dcmitype/StillImage" /><dc:title></dc:title></cc:Work></rdf:RDF></metadata><defs
     id="defs4903"><clipPath
       id="clipPath4915"
       clipPathUnits="userSpaceOnUse"><path
         id="path4913"
         d="M 0,1024 H 1024 V 0 H 0 Z" /></clipPath><clipPath
       id="clipPath4927"
       clipPathUnits="userSpaceOnUse"><path
         id="path4925"
         d="M 380.685,711 H 677.303 V 313.88 H 380.685 Z" /></clipPath></defs><g
     transform="matrix(1.3333333,0,0,-1.3333333,0,1365.3333)"
     id="g4907"><g
       id="g4909"><g
         clip-path="url(#clipPath4915)"
         id="g4911"><g
           transform="translate(934,191)"
           id="g4917"><path
             id="path4919"
             style="fill:#f1a9a0;fill-opacity:1;fill-rule:nonzero;stroke:none"
             d="m 0,0 c 0,-55.228 -44.772,-100 -100,-100 h -643 c -55.228,0 -100,44.772 -100,100 v 643 c 0,55.228 44.772,100 100,100 h 643 C -44.772,743 0,698.228 0,643 Z" /></g><g
           id="g4921"><g
             id="g4923" /><g
             id="g4939"><g
               style="opacity:0.75"
               id="g4937"
               clip-path="url(#clipPath4927)"><g
                 id="g4931"
                 transform="translate(457.189,700.9995)"><path
                   id="path4929"
                   style="fill:#000000;fill-opacity:1;fill-rule:nonzero;stroke:none"
                   d="m 0,0 v -373.616 c 0,-5.523 -4.477,-10 -10,-10 h -56.504 c -5.523,0 -10,4.477 -10,10 V 0 c 0,5.523 4.477,10 10,10 H -10 C -4.477,10 0,5.523 0,0" /></g><g
                 id="g4935"
                 transform="translate(673.0413,330.1536)"><path
                   id="path4933"
                   style="fill:#000000;fill-opacity:1;fill-rule:nonzero;stroke:none"
                   d="m 0,0 c 0.508,-4.706 -2.342,-9.156 -6.855,-10.584 -9.634,-3.049 -24.56,-5.69 -40.806,-5.69 -72.416,0 -119.722,50.224 -119.722,143.079 0,88.185 51.977,149.505 130.817,149.505 12.979,0 25.058,-2.101 33.654,-4.582 4.852,-1.4 7.861,-6.24 7.039,-11.222 l -6.726,-40.754 c -0.945,-5.721 -6.551,-9.369 -12.194,-8.033 -5.075,1.202 -11.131,2.103 -18.269,2.103 -36.792,0 -58.4,-35.04 -58.4,-84.096 0,-51.976 21.608,-83.512 57.232,-83.512 6.426,0 12.264,0.587 17.629,1.876 5.892,1.415 11.696,-2.604 12.346,-8.629 z" /></g></g></g></g></g></g></g></svg>