<?xml version="1.0" encoding="UTF-8" standalone="no"?>
<!DOCTYPE svg PUBLIC "-//W3C//DTD SVG 1.1//EN" "http://www.w3.org/Graphics/SVG/1.1/DTD/svg11.dtd">
<svg width="100%" height="100%" viewBox="0 0 1024 1024" version="1.1" xmlns="http://www.w3.org/2000/svg" xmlns:xlink="http://www.w3.org/1999/xlink" xml:space="preserve" xmlns:serif="http://www.serif.com/" style="fill-rule:evenodd;clip-rule:evenodd;stroke-linejoin:round;stroke-miterlimit:1.41421;">
    <g transform="matrix(1,0,0,1,-1137,0)">
        <g id="Affinity-Photo" serif:id="Affinity Photo" transform="matrix(1,0,0,1,1137.23,0)">
            <rect x="0" y="0" width="1024" height="1024" style="fill:none;"/>
            <g id="Icon-Template">
                <path id="Outer" d="M932,192C932,136.808 887.192,92 832,92L192,92C136.808,92 92,136.808 92,192L92,832C92,887.192 136.808,932 192,932L832,932C887.192,932 932,887.192 932,832L932,192Z" style="fill:rgb(210,61,137);"/>
                <g id="Layer1" transform="matrix(2.66344,0,0,2.66344,-861.318,-979.571)">
                    <path d="M405.798,605.471L432.335,651.884L512.992,513.835L486.208,468.093C459.404,513.886 432.601,559.678 405.798,605.471Z" style="fill:rgb(255,181,234);"/>
                    <path d="M491.426,465.174L571.768,602.449L625.37,602.33L544.919,465.156C527.088,465.162 509.257,465.168 491.426,465.174Z" style="fill:rgb(255,181,234);"/>
                    <path d="M437.534,654.879L598.985,654.879L625.439,608.451L464.698,608.387C455.644,623.884 446.589,639.382 437.534,654.879Z" style="fill:rgb(255,181,234);"/>
                </g>
            </g>
            <g transform="matrix(1,0,0,1,-1133.42,30.9117)">
                <clipPath id="_clip1">
                    <path d="M1615.33,434.192L2031.65,434.192L2031.65,503L1942.86,503L1942.86,434.192L1924.86,434.192L1924.86,503L1895.55,503L1895.55,434.364L1877.55,434.364L1877.55,503L1848.25,503L1848.25,434.364L1830.25,434.364L1830.25,503L1800.94,503L1800.94,434.364L1782.94,434.364L1782.94,503L1753.63,503L1753.63,434.364L1735.63,434.364L1735.63,503L1705.54,503L1705.54,434.192L1687.54,434.192L1687.54,503L1615.33,503L1615.33,521L1687.54,521L1687.54,594.103L1615.33,594.103L1615.33,434.192ZM1705.54,521L1735.63,521L1735.63,594.103L1705.54,594.103L1705.54,521ZM1782.94,594.103L1753.63,594.103L1753.63,521L1782.94,521L1782.94,594.103ZM1830.25,594.103L1800.94,594.103L1800.94,521L1830.25,521L1830.25,594.103ZM1877.55,594.103L1848.25,594.103L1848.25,521L1877.55,521L1877.55,594.103ZM1924.86,594.103L1895.55,594.103L1895.55,521L1924.86,521L1924.86,594.103ZM2031.65,594.103L1942.86,594.103L1942.86,521L2031.65,521L2031.65,594.103Z"/>
                </clipPath>
                <g clip-path="url(#_clip1)">
                    <path d="M1990.16,566.67L1640.23,566.67L1640.23,455.694L1990.16,455.694C1990.16,492.686 1990.16,529.678 1990.16,566.67ZM1658.23,473.694L1658.23,548.67L1972.16,548.67L1972.16,473.694C1867.52,473.694 1762.87,473.694 1658.23,473.694Z" style="fill:rgb(123,7,72);fill-rule:nonzero;"/>
                </g>
            </g>
        </g>
    </g>
</svg>
