<?xml version="1.0" encoding="UTF-8" standalone="no"?>
<svg
   xmlns:dc="http://purl.org/dc/elements/1.1/"
   xmlns:cc="http://creativecommons.org/ns#"
   xmlns:rdf="http://www.w3.org/1999/02/22-rdf-syntax-ns#"
   xmlns:svg="http://www.w3.org/2000/svg"
   xmlns="http://www.w3.org/2000/svg"
   viewBox="0 0 1365.3333 1365.3333"
   height="1365.3333"
   width="1365.3333"
   xml:space="preserve"
   id="svg2"
   version="1.1"><metadata
     id="metadata8"><rdf:RDF><cc:Work
         rdf:about=""><dc:format>image/svg+xml</dc:format><dc:type
           rdf:resource="http://purl.org/dc/dcmitype/StillImage" /><dc:title></dc:title></cc:Work></rdf:RDF></metadata><defs
     id="defs6"><clipPath
       id="clipPath18"
       clipPathUnits="userSpaceOnUse"><path
         id="path16"
         d="M 0,1024 H 1024 V 0 H 0 Z" /></clipPath><clipPath
       id="clipPath30"
       clipPathUnits="userSpaceOnUse"><path
         id="path28"
         d="M 233.741,874 C 186.11,874 147,835.889 147,788.26 v 0 -554.522 C 147,186.109 186.11,147 233.741,147 v 0 h 554.52 C 835.89,147 874,186.109 874,233.738 v 0 554.522 C 874,835.889 835.89,874 788.261,874 v 0 z" /></clipPath></defs><g
     transform="matrix(1.3333333,0,0,-1.3333333,0,1365.3333)"
     id="g10"><g
       id="g12"><g
         clip-path="url(#clipPath18)"
         id="g14"><g
           transform="translate(932,189)"
           id="g20"><path
             id="path22"
             style="fill:#ffffff;fill-opacity:1;fill-rule:nonzero;stroke:none"
             d="m 0,0 c 0,-55.229 -44.772,-100 -100,-100 h -643 c -55.229,0 -100,44.771 -100,100 v 643 c 0,55.229 44.771,100 100,100 h 643 C -44.772,743 0,698.229 0,643 Z" /></g></g></g><g
       id="g24"><g
         clip-path="url(#clipPath30)"
         id="g26"><g
           transform="translate(859,233.2383)"
           id="g32"><path
             id="path34"
             style="fill:#ffffff;fill-opacity:1;fill-rule:nonzero;stroke:none"
             d="M 0,0 C 0,-39.344 -31.896,-71.238 -71.241,-71.238 H -625.759 C -665.104,-71.238 -697,-39.344 -697,0 v 554.523 c 0,39.344 31.896,71.239 71.241,71.239 H -71.241 C -31.896,625.762 0,593.867 0,554.523 Z" /></g><g
           transform="translate(788.2617,874)"
           id="g36"><path
             id="path38"
             style="fill:#4fc1e9;fill-opacity:1;fill-rule:nonzero;stroke:none"
             d="m 0,0 h -554.521 c -47.63,0 -86.741,-38.11 -86.741,-85.741 v -554.521 c 0,-47.629 39.111,-86.738 86.741,-86.738 H 0 c 47.629,0 85.738,39.109 85.738,86.738 V -85.741 C 85.738,-38.11 47.629,0 0,0 m 0,-30 c 31.01,0 55.738,-24.729 55.738,-55.741 V -640.262 C 55.738,-671.272 31.01,-697 0,-697 h -554.521 c -31.011,0 -56.741,25.728 -56.741,56.738 v 554.521 c 0,31.012 25.73,55.741 56.741,55.741 H -0.262" /></g><g
           transform="translate(69.5,782.5)"
           id="g40"><path
             id="path42"
             style="fill:none;stroke:#4fc1e9;stroke-width:30;stroke-linecap:butt;stroke-linejoin:round;stroke-miterlimit:10;stroke-dasharray:none;stroke-opacity:1"
             d="M 0,0 441.5,-291.5 883,0" /></g></g></g></g></svg>