<?xml version="1.0" encoding="UTF-8" standalone="no"?>
<svg
   xmlns:dc="http://purl.org/dc/elements/1.1/"
   xmlns:cc="http://creativecommons.org/ns#"
   xmlns:rdf="http://www.w3.org/1999/02/22-rdf-syntax-ns#"
   xmlns:svg="http://www.w3.org/2000/svg"
   xmlns="http://www.w3.org/2000/svg"
   xmlns:sodipodi="http://sodipodi.sourceforge.net/DTD/sodipodi-0.dtd"
   xmlns:inkscape="http://www.inkscape.org/namespaces/inkscape"
   viewBox="0 0 1365.3333 1365.3333"
   height="1365.3333"
   width="1365.3333"
   xml:space="preserve"
   id="svg4519"
   version="1.1"
   sodipodi:docname="alfred.svg"
   inkscape:version="0.92.1 r15371"><sodipodi:namedview
     pagecolor="#ffffff"
     bordercolor="#666666"
     borderopacity="1"
     objecttolerance="10"
     gridtolerance="10"
     guidetolerance="10"
     inkscape:pageopacity="0"
     inkscape:pageshadow="2"
     inkscape:window-width="3200"
     inkscape:window-height="1690"
     id="namedview42"
     showgrid="false"
     inkscape:zoom="0.17285157"
     inkscape:cx="11.570621"
     inkscape:cy="682.66663"
     inkscape:window-x="0"
     inkscape:window-y="54"
     inkscape:window-maximized="1"
     inkscape:current-layer="svg4519" /><metadata
     id="metadata4525"><rdf:RDF><cc:Work
         rdf:about=""><dc:format>image/svg+xml</dc:format><dc:type
           rdf:resource="http://purl.org/dc/dcmitype/StillImage" /><dc:title /></cc:Work></rdf:RDF></metadata><defs
     id="defs4523"><clipPath
       id="clipPath4535"
       clipPathUnits="userSpaceOnUse"><path
         id="path4533"
         d="M 0,1024 H 1024 V 0 H 0 Z" /></clipPath><clipPath
       id="clipPath4547"
       clipPathUnits="userSpaceOnUse"><path
         id="path4545"
         d="m 220.578,447.662 c 0,-77.749 130.552,-140.776 291.596,-140.776 v 0 c 161.044,0 291.596,63.027 291.596,140.776 v 0 c 0,77.748 -130.552,140.776 -291.596,140.776 v 0 c -161.044,0 -291.596,-63.028 -291.596,-140.776" /></clipPath><radialGradient
       id="radialGradient4561"
       spreadMethod="pad"
       gradientTransform="matrix(228.96098,0,0,-228.96098,512.17432,447.66187)"
       gradientUnits="userSpaceOnUse"
       r="1"
       cy="0"
       cx="0"
       fy="0"
       fx="0"><stop
         id="stop4553"
         offset="0"
         style="stop-opacity:1;stop-color:#0d0a0b" /><stop
         id="stop4555"
         offset="0"
         style="stop-opacity:1;stop-color:#0d0a0b" /><stop
         id="stop4557"
         offset="0"
         style="stop-opacity:1;stop-color:#0d0a0b" /><stop
         id="stop4559"
         offset="1"
         style="stop-opacity:1;stop-color:#0d0a0b" /></radialGradient><clipPath
       id="clipPath4571"
       clipPathUnits="userSpaceOnUse"><path
         id="path4569"
         d="M 482.953,742 C 385.763,742 306,663.29 306,566.102 v 0 -62.268 c 0,-17.422 3.029,-34.249 7.745,-50.139 v 0 l 124.292,-44.618 220.891,21.659 54.916,37.72 c 2.336,11.428 3.156,23.259 3.156,35.378 v 0 62.268 C 717,663.29 639.025,742 541.837,742 v 0 z" /></clipPath><linearGradient
       id="linearGradient4585"
       spreadMethod="pad"
       gradientTransform="matrix(411,0,0,-411,306,575.53857)"
       gradientUnits="userSpaceOnUse"
       y2="0"
       x2="1"
       y1="0"
       x1="0"><stop
         id="stop4577"
         offset="0"
         style="stop-opacity:1;stop-color:#0d0a0b" /><stop
         id="stop4579"
         offset="0"
         style="stop-opacity:1;stop-color:#0d0a0b" /><stop
         id="stop4581"
         offset="0"
         style="stop-opacity:1;stop-color:#0d0a0b" /><stop
         id="stop4583"
         offset="1"
         style="stop-opacity:1;stop-color:#0d0a0b" /></linearGradient><clipPath
       id="clipPath4595"
       clipPathUnits="userSpaceOnUse"><path
         id="path4593"
         d="M 0,1024 H 1024 V 0 H 0 Z" /></clipPath></defs><g
     transform="matrix(1.3333333,0,0,-1.3333333,0,1365.3333)"
     id="g4527"><g
       id="g4529"><g
         clip-path="url(#clipPath4535)"
         id="g4531"><g
           transform="translate(933,190)"
           id="g4537"><path
             id="path4539"
             style="fill:#b0b7c2;fill-opacity:1;fill-rule:nonzero;stroke:none"
             d="m 0,0 c 0,-55.229 -44.772,-100 -100,-100 h -643 c -55.229,0 -100,44.771 -100,100 v 643 c 0,55.229 44.771,100 100,100 h 643 C -44.772,743 0,698.229 0,643 Z" /></g></g></g><g
       id="g4541"><g
         clip-path="url(#clipPath4547)"
         id="g4543"><g
           id="g4549"><g
             id="g4551"><path
               id="path4563"
               style="fill:url(#radialGradient4561);stroke:none"
               d="m 220.578,447.662 c 0,-77.749 130.552,-140.776 291.596,-140.776 v 0 c 161.044,0 291.596,63.027 291.596,140.776 v 0 c 0,77.748 -130.552,140.776 -291.596,140.776 v 0 c -161.044,0 -291.596,-63.028 -291.596,-140.776" /></g></g></g></g><g
       id="g4565"><g
         clip-path="url(#clipPath4571)"
         id="g4567"><g
           id="g4573"><g
             id="g4575"><path
               id="path4587"
               style="fill:url(#linearGradient4585);stroke:none"
               d="M 482.953,742 C 385.763,742 306,663.29 306,566.102 v 0 -62.268 c 0,-17.422 3.029,-34.249 7.745,-50.139 v 0 l 124.292,-44.618 220.891,21.659 54.916,37.72 c 2.336,11.428 3.156,23.259 3.156,35.378 v 0 62.268 C 717,663.29 639.025,742 541.837,742 v 0 z" /></g></g></g></g><g
       id="g4589"><g
         clip-path="url(#clipPath4595)"
         id="g4591"><g
           transform="translate(308.9653,506.9922)"
           id="g4597"><path
             id="path4599"
             style="fill:#632e8e;fill-opacity:1;fill-rule:nonzero;stroke:none"
             d="M 0,0 C 0,0 42.781,-71.914 204.733,-71.914 366.682,-71.914 406.547,0 406.547,0 c 0,0 2.539,4.851 4.78,1.579 2.245,-3.274 2.6,-17.09 2.6,-26.903 0,-9.816 1.509,-22.167 -1.678,-27.243 -3.187,-5.077 -41.606,-73.775 -202.616,-73.775 -112.034,0 -188.837,26.736 -209.633,64.299 -3.354,5.524 -4.024,11.504 -4.472,19.852 -0.447,8.347 0,37.677 0,37.677 0,0 -0.388,10.968 4.472,4.514" /></g></g></g></g></svg>