<?xml version="1.0" encoding="UTF-8" standalone="no"?>
<svg
   xmlns:dc="http://purl.org/dc/elements/1.1/"
   xmlns:cc="http://creativecommons.org/ns#"
   xmlns:rdf="http://www.w3.org/1999/02/22-rdf-syntax-ns#"
   xmlns:svg="http://www.w3.org/2000/svg"
   xmlns="http://www.w3.org/2000/svg"
   viewBox="0 0 1365.3333 1365.3333"
   height="1365.3333"
   width="1365.3333"
   xml:space="preserve"
   id="svg4601"
   version="1.1"><metadata
     id="metadata4607"><rdf:RDF><cc:Work
         rdf:about=""><dc:format>image/svg+xml</dc:format><dc:type
           rdf:resource="http://purl.org/dc/dcmitype/StillImage" /><dc:title></dc:title></cc:Work></rdf:RDF></metadata><defs
     id="defs4605"><clipPath
       id="clipPath4617"
       clipPathUnits="userSpaceOnUse"><path
         id="path4615"
         d="M 0,1024 H 1024 V 0 H 0 Z" /></clipPath></defs><g
     transform="matrix(1.3333333,0,0,-1.3333333,0,1365.3333)"
     id="g4609"><g
       id="g4611"><g
         clip-path="url(#clipPath4617)"
         id="g4613"><g
           transform="translate(934,190)"
           id="g4619"><path
             id="path4621"
             style="fill:#505050;fill-opacity:1;fill-rule:nonzero;stroke:none"
             d="m 0,0 c 0,-55.228 -44.772,-100 -100,-100 h -643 c -55.228,0 -100,44.772 -100,100 v 643 c 0,55.228 44.772,100 100,100 h 643 C -44.772,743 0,698.228 0,643 Z" /></g><g
           transform="translate(216.3189,839.6725)"
           id="g4623"><path
             id="path4625"
             style="fill:#a9ef00;fill-opacity:1;fill-rule:nonzero;stroke:none"
             d="m 0,0 c 0,-20.943 -16.978,-37.922 -37.921,-37.922 -20.944,0 -37.922,16.979 -37.922,37.922 0,20.943 16.978,37.921 37.922,37.921 C -16.978,37.921 0,20.943 0,0" /></g></g></g><text
       id="text4629"
       style="font-variant:normal;font-weight:300;font-stretch:normal;font-size:500px;font-family:'Open Sans Light';-inkscape-font-specification:OpenSans-Light;writing-mode:lr-tb;fill:#ffffff;fill-opacity:1;fill-rule:nonzero;stroke:none"
       transform="matrix(1,0,0,-1,361.4751,364.1074)"><tspan
         id="tspan4627"
         y="0"
         x="0">A</tspan></text>
</g></svg>