<?xml version="1.0" encoding="UTF-8" standalone="no"?>
<svg
   xmlns:dc="http://purl.org/dc/elements/1.1/"
   xmlns:cc="http://creativecommons.org/ns#"
   xmlns:rdf="http://www.w3.org/1999/02/22-rdf-syntax-ns#"
   xmlns:svg="http://www.w3.org/2000/svg"
   xmlns="http://www.w3.org/2000/svg"
   viewBox="0 0 1365.3333 1365.3333"
   height="1365.3333"
   width="1365.3333"
   xml:space="preserve"
   id="svg4631"
   version="1.1"><metadata
     id="metadata4637"><rdf:RDF><cc:Work
         rdf:about=""><dc:format>image/svg+xml</dc:format><dc:type
           rdf:resource="http://purl.org/dc/dcmitype/StillImage" /><dc:title></dc:title></cc:Work></rdf:RDF></metadata><defs
     id="defs4635"><clipPath
       id="clipPath4647"
       clipPathUnits="userSpaceOnUse"><path
         id="path4645"
         d="M 0,1024 H 1024 V 0 H 0 Z" /></clipPath><clipPath
       id="clipPath4659"
       clipPathUnits="userSpaceOnUse"><path
         id="path4657"
         d="M 189.078,934 C 133.807,934 89,889.194 89,833.922 v 0 -643.844 C 89,134.806 133.807,90 189.078,90 v 0 H 832.922 C 888.194,90 933,134.806 933,190.078 v 0 643.844 C 933,889.194 888.194,934 832.922,934 v 0 z" /></clipPath></defs><g
     transform="matrix(1.3333333,0,0,-1.3333333,0,1365.3333)"
     id="g4639"><g
       id="g4641"><g
         clip-path="url(#clipPath4647)"
         id="g4643"><g
           transform="translate(933,190.0779)"
           id="g4649"><path
             id="path4651"
             style="fill:#1363b6;fill-opacity:1;fill-rule:nonzero;stroke:none"
             d="M 0,0 C 0,-55.272 -44.806,-100.078 -100.078,-100.078 H -743.922 C -799.194,-100.078 -844,-55.272 -844,0 v 643.844 c 0,55.272 44.806,100.078 100.078,100.078 h 643.844 C -44.806,743.922 0,699.116 0,643.844 Z" /></g></g></g><g
       id="g4653"><g
         clip-path="url(#clipPath4659)"
         id="g4655"><g
           transform="translate(468.5944,754.3216)"
           id="g4661"><path
             id="path4663"
             style="fill:#000000;fill-opacity:1;fill-rule:nonzero;stroke:none"
             d="M 0,0 C -2.058,-5.907 -3.725,-10.693 -5.094,-14.621 1.279,-17.004 6.253,-18.864 12.37,-21.151 8.404,-14.37 4.817,-8.236 0,0 M 63.396,29.456 C 59.585,35.034 56.305,39.833 53.09,44.538 51.093,43.316 48.162,41.522 46.999,40.81 45.859,34.651 44.633,30.005 44.302,25.296 c -0.14,-1.993 1.074,-4.835 2.634,-5.984 1.627,-1.197 4.413,-0.82 8.259,-1.346 -2.151,2.825 -3.221,4.232 -4.113,5.402 4.247,2.1 7.909,3.911 12.314,6.088 M 178.262,-376.29 c 11.005,-4.418 19.121,-7.676 29.605,-11.885 -5.443,10.157 -9.327,17.405 -13.211,24.654 -1.178,0.953 -2.355,1.906 -3.533,2.859 -3.716,-4.516 -7.432,-9.031 -12.861,-15.628 m 237.945,332.735 c -9.257,-6.971 -18.514,-13.943 -27.771,-20.915 21.912,-3.613 28.743,2.429 27.771,20.915 m -73.166,10.981 c 4.36,0.709 10.291,0.215 11.154,2.073 3.307,7.128 5.106,14.982 6.998,22.68 0.119,0.487 -4.348,3.323 -5.686,2.749 -9.395,-4.032 -14.008,-14.228 -12.466,-27.502 M 32.313,-7.29 C 35.054,3.985 44.253,3.798 53.476,3.569 l -0.837,2.699 c -2.072,0.102 -4.144,0.203 -6.234,0.305 0.685,2.777 1.336,5.419 1.988,8.061 -0.512,0.199 -1.023,0.398 -1.535,0.597 -1.54,-1.807 -3.08,-3.613 -3.888,-4.56 -3.722,2.87 -7.159,5.52 -11.238,8.665 V 8.044 C 27.339,11.409 23.87,14.066 21.174,16.131 17.534,13.505 14.465,11.29 10.574,8.482 17.198,6.329 23.141,4.398 30.984,1.849 27.073,0 25.436,-0.773 23.917,-1.492 26.287,-3.128 28.54,-4.685 32.313,-7.29 M 258.71,-43.013 c 0.587,-0.609 1.684,-2.032 3.053,-3.112 3.3,-2.601 8.462,-4.344 9.8,-7.67 5.702,-14.171 20.604,-14.281 30.938,-21.135 4.964,-3.292 10.957,2.582 7.794,7.534 -5.083,7.957 -10.992,18.106 -18.836,20.888 -9.701,3.44 -14.048,8.677 -18.258,16.758 0.641,-3.562 1.282,-7.123 2.111,-11.725 -5.494,-0.509 -10.691,-0.99 -16.602,-1.538 m -137.403,-422.948 1.751,-1.988 c 25.677,9.733 54.608,10.296 77.692,28.419 -9.647,5.783 -19.096,10.786 -27.757,16.904 -4.683,3.309 -7.329,2.762 -10.651,-1.162 -8.192,-9.68 -16.525,-19.24 -24.83,-28.824 -3.282,-3.788 -4.71,-10.706 -12.465,-7.412 -0.344,0.146 -2.453,-3.863 -3.74,-5.937 M 288.161,7.267 c 3.762,-9.989 13.925,-19.671 13.416,-34.358 -0.123,-3.551 8.256,-7.397 12.725,-11.108 2.213,3.293 4.799,6.403 6.533,9.932 1.681,3.422 1.802,7.707 3.797,10.862 8.836,13.974 -1.922,26.179 -3.225,39.333 -1.669,-2.642 -3.338,-5.284 -4.948,-7.834 -4.216,3.312 -8.091,6.357 -11.829,9.294 -5.44,-5.325 -10.276,-10.059 -16.469,-16.121 m -1107.755,-579.03 c 15.405,-3.487 30.717,-7.477 46.235,-10.357 32.694,-6.066 65.334,-12.854 98.295,-16.934 38.656,-4.784 77.582,-7.796 116.479,-10.088 31.01,-1.828 62.173,-2.413 93.228,-1.723 30.248,0.673 60.64,2.142 90.617,6 44.182,5.687 88.097,13.533 132.043,20.953 52.595,8.879 103.204,25.059 153.567,42.235 23.17,7.902 47.029,13.768 70.299,21.401 7.182,2.356 13.199,8.043 20.185,11.259 19.211,8.845 38.654,17.188 56.898,25.241 -0.749,1.628 -3.702,5.324 -2.85,6.756 1.825,3.067 5.281,5.793 8.673,7.168 6.83,2.769 14.26,4.062 21.074,6.859 6.746,2.77 12.792,5.367 13.734,15.366 0.725,7.698 7.167,14.91 11.268,22.225 5.219,9.311 10.566,18.553 15.994,27.744 7.023,11.892 4.279,17.996 -9.571,20.888 -3.48,0.726 -7.109,1.007 -10.42,2.19 -2.645,0.945 -6.401,2.453 -7.106,4.564 -4.953,14.837 -18.713,20.96 -29.057,30.426 -4.863,4.45 -8.447,7.64 0.131,13.049 16.671,10.512 16.33,11.098 31.337,-1.415 4.75,-3.961 9.023,-8.623 14.172,-11.946 6.608,-4.265 10.777,-7.857 4.401,-15.958 -1.071,-1.361 3.135,-10.106 5.564,-10.426 9.778,-1.291 19.922,-1.45 29.697,-0.201 3.329,0.425 6.66,5.843 8.778,9.653 3.994,7.186 6.253,15.445 10.834,22.166 4.475,6.564 10.947,11.766 17.46,18.517 -1.882,0.948 -4.76,3.428 -5.882,2.795 -7.304,-4.117 -11.797,1.93 -17.152,4.275 -5.272,2.309 -10.227,4.189 -10.836,12.295 -0.322,4.293 -7.225,8.443 -11.687,11.992 -6.96,5.535 -7.522,11.253 -2.244,18.181 3.723,4.885 7.023,10.091 10.555,15.123 11.103,15.818 34.867,17.012 46.594,1.666 6.226,-8.148 12.301,-17.09 10.584,-28.423 -2.324,-15.343 4.774,-24.856 18.601,-29.812 14.951,-5.36 21.55,-17.639 26.686,-31.128 3.087,-8.106 5.663,-16.423 8.104,-24.753 2.351,-8.025 4.233,-16.187 6.748,-25.945 13.245,13.874 24.493,27.801 28.355,45.898 5.247,24.592 8.554,49.617 14.311,74.075 3.049,12.953 2.833,25.242 2.256,38.329 -1.125,25.54 0.73,51.201 0.993,76.816 0.079,7.733 -1.016,15.478 -1.593,23.217 -0.048,0.642 -0.35,1.268 -0.372,1.908 -0.911,26.185 -25.249,31.101 -40.313,44.437 -5.835,5.166 -12.536,9.705 -17.136,15.814 -4.358,5.787 -13.12,6.59 -15.042,14.509 -1.411,-0.78 -2.823,-1.56 -5.17,-2.857 0.413,2.533 0.722,4.427 1.279,7.844 -9.273,-3.21 -17.909,-6.199 -29.218,-10.114 4.239,5.357 7.007,8.855 10.906,13.781 -6.884,-0.333 -11.986,-0.58 -17.854,-0.863 2.964,-6.484 5.043,-11.031 7.122,-15.579 -0.468,-0.742 -0.935,-1.484 -1.403,-2.226 -4.681,3.406 -8.539,4.341 -10.987,-2.136 -1.052,3.064 -2.103,6.128 -3.258,9.493 -2.512,-2.228 -4.688,-4.158 -6.864,-6.088 -0.659,0.457 -1.319,0.914 -1.978,1.372 1.779,3.235 3.558,6.471 5.284,9.61 -4.416,-0.551 -9.079,-1.133 -14.565,-1.818 1.668,4.173 2.698,6.747 4.762,11.909 -6.534,-4.041 -10.986,-6.795 -15.697,-9.709 0.466,6.971 0.849,12.708 1.385,20.721 -2.975,-5.415 -4.788,-8.717 -6.248,-11.374 -2.885,2.474 -5.191,4.451 -7.497,6.429 -1.241,-3.775 -2.98,-7.47 -3.602,-11.345 -0.861,-5.356 -0.881,-10.847 -1.261,-16.281 -1.105,-0.022 -2.211,-0.044 -3.316,-0.066 1.124,-1.761 2.248,-3.522 3.357,-5.261 -3.112,-2.919 -6.076,-5.701 -9.041,-8.482 -1.957,2.105 -3.913,4.21 -5.995,6.45 -1.707,-2.043 -4.12,-4.931 -6.532,-7.819 -0.547,0.377 -1.093,0.754 -1.64,1.131 2.685,5.309 5.37,10.618 7.765,15.355 -10.762,-1.794 -22.551,-3.76 -36.316,-6.055 4.755,6.197 8.905,11.607 13.996,18.242 h -8.453 c -0.257,0.583 -0.515,1.165 -0.772,1.747 3.007,1.56 6.166,2.889 8.976,4.748 2.466,1.631 4.542,3.855 8.24,7.083 v 8.593 c -4.479,-2.298 -9.048,-5.06 -13.936,-7.032 -4.982,-2.011 -10.278,-3.245 -16.144,-5.035 -2.743,3.665 -5.879,7.855 -8.911,11.906 -5.209,-6.003 -9.998,-11.524 -15.222,-17.545 -2.126,11.583 13.075,17.65 7.587,31.802 -9.113,-9.721 -16.291,-17.602 -23.772,-25.185 -1.704,-1.726 -4.459,-2.416 -7.501,-3.979 1.889,5.853 5.136,10.739 4.305,14.789 -0.84,4.091 -5.72,7.354 -9.408,11.654 -1.267,-0.729 -4.548,-1.797 -6.493,-4.029 -1.28,-1.468 -1.254,-6.566 -0.76,-6.723 11.213,-3.56 6.922,-10.236 3.28,-17.402 -2.098,1.677 -4.148,3.315 -7.439,5.945 v -9.895 c -4.778,-1.208 -9.17,-2.32 -14.88,-3.764 -0.82,1.47 -2.282,4.091 -4.21,7.549 -1.409,-2.333 -2.565,-4.249 -4.376,-7.249 -1.259,2.772 -2.172,4.782 -3.715,8.181 -1.303,-2.832 -2.017,-4.384 -3.283,-7.137 -3.257,4.506 -6.248,8.647 -10.772,14.907 h 11.555 c 0.173,1.493 0.483,4.171 0.863,7.46 -7.539,-1.937 -14.286,-3.67 -21.604,-5.55 2.044,6.304 3.817,11.776 5.591,17.248 -0.358,0.239 -0.715,0.478 -1.073,0.717 -2.232,-2.686 -4.464,-5.372 -6.13,-7.377 -2.49,2.905 -4.453,5.194 -6.415,7.484 -1.87,-2.419 -4.117,-4.637 -5.53,-7.298 -3.068,-5.774 -4.748,-11.965 -8.519,-17.786 -3.563,-5.498 -6.082,-9.552 -12.372,-12.199 -0.721,3.469 -1.29,6.206 -1.953,9.391 -2.764,-2.213 -5.385,-4.309 -8.005,-6.406 -0.508,0.426 -1.017,0.852 -1.526,1.278 3.725,4.453 7.451,8.906 10.916,13.047 -11.179,1.001 -22.952,2.055 -36.894,3.303 6.154,4.637 11.368,8.567 17.462,13.159 -2.747,1.952 -4.592,3.262 -7.024,4.991 6.419,2.126 12.245,4.055 17.931,5.938 2.763,4.283 5.831,9.039 9.272,14.374 -0.183,0.293 -1.158,1.852 -2.512,4.016 -6.455,-18.938 -22.936,-9.743 -35.47,-13.49 -1.964,4.783 -3.939,9.593 -5.986,14.577 -6.652,-4.512 -12.322,-8.357 -18.388,-12.472 -1.222,12.032 18.723,12.549 14.023,25.084 -15.634,0.349 -21.03,-18.949 -39.196,-13.685 4.315,2.21 8.631,4.42 12.946,6.631 -0.708,0.934 -1.415,1.869 -2.122,2.804 h -5.874 c 2.165,12.235 -8.125,5.127 -12.51,8.361 8.448,-6.985 8.889,-13.474 -0.344,-19.901 -1.4,1.793 -3.039,3.892 -5.733,7.342 -0.98,-4.378 -1.611,-7.197 -2.117,-9.46 h -15.694 c -0.465,2.079 -1.075,4.808 -1.685,7.535 -4.927,-1.473 -9.703,5.205 -9.213,13.399 -3.425,-1.346 -6.68,-2.624 -9.934,-3.902 -0.341,0.618 -0.682,1.235 -1.023,1.853 4.875,3.277 9.749,6.553 14.045,9.44 -10.507,4.038 -21.325,8.195 -34.2,13.142 7.39,2.908 13.445,5.29 20.898,8.223 -2.979,2.295 -4.823,3.716 -8.275,6.376 7.921,0.521 14.33,0.943 20.843,1.371 3.538,3.031 7.776,6.66 12.82,10.98 -0.08,0.212 -0.742,1.97 -1.606,4.264 -11.36,-15.807 -24.395,-3.739 -37.522,-2.967 -0.585,4.807 -1.189,9.778 -1.805,14.842 -7.297,-2.469 -14.199,-4.805 -21.102,-7.14 -0.377,0.693 -0.753,1.387 -1.13,2.081 7.24,4.593 14.48,9.187 22.493,14.27 -2.163,8.854 -10.421,4.867 -13.827,3.66 -8.731,-3.093 -16.425,-9.371 -28.019,-5.797 5.96,3.97 11.019,7.34 17.435,11.614 -13.099,0.085 -6.571,7.782 -6.879,13.72 -4.772,-0.547 -9.217,-1.057 -15.639,-1.793 8.511,-9.922 6.904,-16.317 -3.122,-20.356 -1.065,2.022 -2.346,4.456 -4.339,8.24 -1.813,-3.841 -3.057,-6.477 -4.006,-8.488 -5.064,1.391 -9.696,2.663 -15.043,4.133 v 8.03 c -1.717,-0.417 -3.255,-0.792 -5.925,-1.442 5.542,8.15 10.455,15.375 15.564,22.888 -7.347,3.97 -16.856,-1.252 -16.212,11.306 0.169,3.297 -10.821,6.83 -16.262,10.831 -7.947,5.843 -17.525,10.852 -15.811,23.344 H 464.406 V -51.862 c -3.904,0.977 -7.808,1.954 -11.585,2.898 -5.966,-4.778 -13.816,-8.481 -17.62,-14.67 -7.056,-11.483 -16.306,-17.245 -29.141,-20.101 -7.634,-1.699 -14.068,-5.884 -12.901,-16.963 1.875,-17.793 1.896,-35.805 2.166,-53.733 0.117,-7.75 -1.872,-15.553 -1.546,-23.275 0.643,-15.23 2.539,-30.403 3.355,-45.63 1.052,-19.625 0.6,-39.374 2.535,-58.896 2.361,-23.812 11.743,-43.854 36.836,-51.886 9.136,-2.925 18.591,-4.852 27.901,-7.234 v -322.97 h -1284 c 0,30.853 0,61.706 0,92.559" /></g></g></g></g></svg>