<?xml version="1.0" encoding="UTF-8" standalone="no"?>
<svg
   xmlns:dc="http://purl.org/dc/elements/1.1/"
   xmlns:cc="http://creativecommons.org/ns#"
   xmlns:rdf="http://www.w3.org/1999/02/22-rdf-syntax-ns#"
   xmlns:svg="http://www.w3.org/2000/svg"
   xmlns="http://www.w3.org/2000/svg"
   xmlns:sodipodi="http://sodipodi.sourceforge.net/DTD/sodipodi-0.dtd"
   xmlns:inkscape="http://www.inkscape.org/namespaces/inkscape"
   viewBox="0 0 1280 1280"
   height="1280"
   width="1280"
   xml:space="preserve"
   version="1.1"
   id="svg3504"
   inkscape:version="0.91 r13725"
   sodipodi:docname="Anaconda.svg"><sodipodi:namedview
     pagecolor="#ffffff"
     bordercolor="#666666"
     borderopacity="1"
     objecttolerance="10"
     gridtolerance="10"
     guidetolerance="10"
     inkscape:pageopacity="0"
     inkscape:pageshadow="2"
     inkscape:window-width="718"
     inkscape:window-height="480"
     id="namedview34"
     showgrid="false"
     inkscape:zoom="0.184375"
     inkscape:cx="640"
     inkscape:cy="640"
     inkscape:window-x="235"
     inkscape:window-y="94"
     inkscape:window-maximized="0"
     inkscape:current-layer="svg3504" /><metadata
     id="metadata3510"><rdf:RDF><cc:Work
         rdf:about=""><dc:format>image/svg+xml</dc:format><dc:type
           rdf:resource="http://purl.org/dc/dcmitype/StillImage" /><dc:title /></cc:Work></rdf:RDF></metadata><defs
     id="defs3508"><clipPath
       id="clipPath3518"
       clipPathUnits="userSpaceOnUse"><path
         id="path3520"
         d="m 0,1024 1024,0 L 1024,0 0,0 0,1024 Z" /></clipPath><clipPath
       id="clipPath3530"
       clipPathUnits="userSpaceOnUse"><path
         id="path3532"
         d="m 0,1024 1024,0 L 1024,0 0,0 0,1024 Z" /></clipPath><clipPath
       id="clipPath3542"
       clipPathUnits="userSpaceOnUse"><path
         id="path3544"
         d="m 0,1024 1024,0 L 1024,0 0,0 0,1024 Z" /></clipPath><clipPath
       clipPathUnits="userSpaceOnUse"
       id="clipPath5293"><path
         d="M 0,1024 H 1024 V 0 H 0 Z"
         id="path5291" /></clipPath><clipPath
       clipPathUnits="userSpaceOnUse"
       id="clipPath5305"><path
         d="M 222,800.111 H 803.111 V 219 H 222 Z"
         id="path5303" /></clipPath></defs><g
     transform="matrix(1.3272061,0,0,-1.3272061,-39.490922,1319.4909)"
     id="g3512"><g
       id="g3514"><g
         clip-path="url(#clipPath3518)"
         id="g3516"><g
           transform="translate(933,190)"
           id="g3522"><path
             id="path3524"
             style="fill:#ffffff;fill-opacity:1;fill-rule:nonzero;stroke:none"
             d="m 0,0 c 0,-55.229 -44.771,-100 -100,-100 l -643,0 c -55.229,0 -100,44.771 -100,100 l 0,643 c 0,55.229 44.771,100 100,100 l 643,0 C -44.771,743 0,698.229 0,643 L 0,0 Z"
             inkscape:connector-curvature="0" /></g></g></g><g
       id="g3526"><g
         clip-path="url(#clipPath3530)"
         id="g3528"><g
           transform="translate(804,294.3701)"
           id="g3534"><path
             id="path3536"
             style="fill:#ffffff;fill-opacity:1;fill-rule:nonzero;stroke:none"
             d="m 0,0 c 0,-37.554 -30.34,-70.37 -69,-70.37 l -447,0 c -38.66,0 -71,32.816 -71,70.37 l 0,434.208 c 0,37.553 32.34,66.422 71,66.422 l 447,0 c 38.66,0 69,-28.869 69,-66.422 L 0,0 Z"
             inkscape:connector-curvature="0" /></g></g></g><g
       id="g3538"
       transform="matrix(0.79841616,0,0,0.79841616,102.96689,103.15511)"><g
         clip-path="url(#clipPath3542)"
         id="g3540"><g
           transform="translate(533.8125,876.125)"
           id="g3546"><path
             id="path3548"
             style="fill:#0c7543;fill-opacity:1;fill-rule:evenodd;stroke:none"
             d="m 0,0 c 36.864,-0.296 90.628,-67.174 108.887,-91.611 74.101,-99.179 124.055,-218.621 154.48,-362.358 22.168,-104.716 -7.401,-199.34 -78.308,-230.655 -99.556,-43.97 -262.892,-69.689 -353.814,2.847 -46.105,36.783 -76.764,129.198 -51.969,210.01 18.021,58.732 53.843,102.852 101.09,132.414 77.905,48.747 168.861,26.809 214.282,-35.594 13.892,-19.086 34.261,-52.16 19.221,-84.717 -19.271,-41.715 -90.898,-44.382 -135.973,-24.916 -18.032,10.439 -36.07,20.884 -54.104,31.323 -14.446,6.224 -37.801,9.32 -51.969,0.711 -22.543,-13.693 -30.952,-55.811 -21.357,-90.41 13.206,-47.616 39.987,-76.933 90.412,-87.565 34.52,-7.277 73.927,2.278 99.667,11.391 72.848,25.792 166.164,93.282 143.801,204.316 -16.739,83.13 -82.407,185.022 -150.209,214.994 -70.421,31.129 -121.899,-2.116 -164.449,-36.307 -62.105,-49.906 -108.56,-146.561 -130.99,-236.351 -29.853,-119.5 32.868,-228.94 116.039,-255.573 l 0,-0.712 c -82.044,6.472 -139.039,48.979 -160.889,116.04 -5.42,16.634 -7.551,32.626 -9.255,52.681 -1.778,20.909 -1.721,44.906 0.713,66.919 1.632,21.748 5.132,44.998 12.101,66.206 27.818,100.372 66.718,186.292 119.6,261.268 17.225,24.424 37.638,46.78 56.24,69.055 27.452,32.87 61.197,64.517 98.956,86.851 C -26.626,-9.05 -15.777,-1.849 0,0"
             inkscape:connector-curvature="0" /></g><g
           transform="translate(533.8125,876.125)"
           id="g3550"><path
             id="path3552"
             style="fill:none;stroke:#006838;stroke-width:1;stroke-linecap:butt;stroke-linejoin:miter;stroke-miterlimit:10;stroke-dasharray:none;stroke-opacity:1"
             d="m 0,0 c 36.864,-0.296 90.628,-67.174 108.887,-91.611 74.101,-99.179 124.055,-218.621 154.48,-362.358 22.168,-104.716 -7.401,-199.34 -78.308,-230.655 -99.556,-43.97 -262.892,-69.689 -353.814,2.847 -46.105,36.783 -76.764,129.198 -51.969,210.01 18.021,58.732 53.843,102.852 101.09,132.414 77.905,48.747 168.861,26.809 214.282,-35.594 13.892,-19.086 34.261,-52.16 19.221,-84.717 -19.271,-41.715 -90.898,-44.382 -135.973,-24.916 -18.032,10.439 -36.07,20.884 -54.104,31.323 -14.446,6.224 -37.801,9.32 -51.969,0.711 -22.543,-13.693 -30.952,-55.811 -21.357,-90.41 13.206,-47.616 39.987,-76.933 90.412,-87.565 34.52,-7.277 73.927,2.278 99.667,11.391 72.848,25.792 166.164,93.282 143.801,204.316 -16.739,83.13 -82.407,185.022 -150.209,214.994 -70.421,31.129 -121.899,-2.116 -164.449,-36.307 -62.105,-49.906 -108.56,-146.561 -130.99,-236.351 -29.853,-119.5 32.868,-228.94 116.039,-255.573 l 0,-0.712 c -82.044,6.472 -139.039,48.979 -160.889,116.04 -5.42,16.634 -7.551,32.626 -9.255,52.681 -1.778,20.909 -1.721,44.906 0.713,66.919 1.632,21.748 5.132,44.998 12.101,66.206 27.818,100.372 66.718,186.292 119.6,261.268 17.225,24.424 37.638,46.78 56.24,69.055 27.452,32.87 61.197,64.517 98.956,86.851 C -26.626,-9.05 -15.777,-1.849 0,0 Z"
             inkscape:connector-curvature="0" /></g><g
           transform="translate(558.5654,501.6865)"
           id="g3554"><path
             id="path3556"
             style="fill:#ffffff;fill-opacity:1;fill-rule:nonzero;stroke:none"
             d="m 0,0 c -3.155,9.334 -12.686,13.476 -21.292,9.231 -8.593,-4.242 -13,-15.257 -9.835,-24.596 3.153,-9.35 12.685,-13.48 21.293,-9.241 C -1.244,-20.359 3.158,-9.353 0,0"
             inkscape:connector-curvature="0" /></g><g
           transform="translate(558.5654,501.6865)"
           id="g3558"><path
             id="path3560"
             style="fill:none;stroke:#437448;stroke-width:1;stroke-linecap:butt;stroke-linejoin:miter;stroke-miterlimit:10;stroke-dasharray:none;stroke-opacity:1"
             d="m 0,0 c -3.155,9.334 -12.686,13.476 -21.292,9.231 -8.593,-4.242 -13,-15.257 -9.835,-24.596 3.153,-9.35 12.685,-13.48 21.293,-9.241 C -1.244,-20.359 3.158,-9.353 0,0 Z"
             inkscape:connector-curvature="0" /></g><g
           transform="translate(489.5654,298.6865)"
           id="g3562"><path
             id="path3564"
             style="fill:#0c7543;fill-opacity:1;fill-rule:nonzero;stroke:none"
             d="m 0,0 c -3.155,9.334 -12.686,13.476 -21.292,9.231 -8.593,-4.242 -13,-15.257 -9.835,-24.596 3.153,-9.35 12.685,-13.48 21.293,-9.241 C -1.244,-20.359 3.158,-9.353 0,0"
             inkscape:connector-curvature="0" /></g><g
           transform="translate(489.5654,298.6865)"
           id="g3566"><path
             id="path3568"
             style="fill:none;stroke:#437448;stroke-width:1;stroke-linecap:butt;stroke-linejoin:miter;stroke-miterlimit:10;stroke-dasharray:none;stroke-opacity:1"
             d="m 0,0 c -3.155,9.334 -12.686,13.476 -21.292,9.231 -8.593,-4.242 -13,-15.257 -9.835,-24.596 3.153,-9.35 12.685,-13.48 21.293,-9.241 C -1.244,-20.359 3.158,-9.353 0,0 Z"
             inkscape:connector-curvature="0" /></g></g></g></g></svg>