<?xml version="1.0" encoding="UTF-8"?>
<svg width="1024px" height="1024px" viewBox="0 0 1024 1024" version="1.1" xmlns="http://www.w3.org/2000/svg" xmlns:xlink="http://www.w3.org/1999/xlink">
    <!-- Generator: Sketch 46.2 (44496) - http://www.bohemiancoding.com/sketch -->
    <title>Anki</title>
    <desc>Created with Sketch.</desc>
    <defs></defs>
    <g id="Page-1" stroke="none" stroke-width="1" fill="none" fill-rule="evenodd">
        <g id="Anki">
            <rect id="Outer" fill="#686B6C" fill-rule="nonzero" x="92" y="92" width="840" height="840" rx="100"></rect>
            <path d="M504.930875,690.646704 L352.32673,770.875451 L352.32673,770.875451 C344.994061,774.730463 335.924654,771.911266 332.069642,764.578597 C330.534556,761.65869 330.004835,758.314169 330.562488,755.062804 L359.707286,585.135591 L359.707286,585.135591 C360.541856,580.26968 358.928628,575.304677 355.393337,571.858619 L231.93399,451.515499 L231.93399,451.515499 C226.001736,445.732981 225.880352,436.236282 231.66287,430.304028 C233.965499,427.941773 236.982635,426.404466 240.24719,425.930098 L410.863812,401.138052 L410.863812,401.138052 C415.749464,400.428125 419.972948,397.359584 422.157878,392.932432 L498.459951,238.327546 L498.459951,238.327546 C502.126286,230.898741 511.120673,227.848656 518.549478,231.514991 C521.507667,232.974944 523.90208,235.369357 525.362033,238.327546 L601.664106,392.932432 L601.664106,392.932432 C603.849036,397.359584 608.07252,400.428125 612.958173,401.138052 L783.574794,425.930098 L783.574794,425.930098 C791.772967,427.121362 797.453189,434.733005 796.261925,442.931178 C795.787557,446.195733 794.250249,449.21287 791.887995,451.515499 L668.428648,571.858619 L668.428648,571.858619 C664.893356,575.304677 663.280129,580.26968 664.114698,585.135591 L693.259497,755.062804 L693.259497,755.062804 C694.659912,763.227851 689.176094,770.98219 681.011048,772.382605 C677.759683,772.940257 674.415162,772.410537 671.495255,770.875451 L518.891109,690.646704 L518.891109,690.646704 C514.521249,688.349333 509.300736,688.349333 504.930875,690.646704 Z" id="Star" stroke="#FFFFFF" stroke-width="47" fill="#4FB4EB"></path>
        </g>
    </g>
</svg>