<?xml version="1.0" encoding="UTF-8" standalone="no"?>
<svg
   xmlns:dc="http://purl.org/dc/elements/1.1/"
   xmlns:cc="http://creativecommons.org/ns#"
   xmlns:rdf="http://www.w3.org/1999/02/22-rdf-syntax-ns#"
   xmlns:svg="http://www.w3.org/2000/svg"
   xmlns="http://www.w3.org/2000/svg"
   viewBox="0 0 1365.3333 1365.3333"
   height="1365.3333"
   width="1365.3333"
   xml:space="preserve"
   id="svg4919"
   version="1.1"><metadata
     id="metadata4925"><rdf:RDF><cc:Work
         rdf:about=""><dc:format>image/svg+xml</dc:format><dc:type
           rdf:resource="http://purl.org/dc/dcmitype/StillImage" /><dc:title></dc:title></cc:Work></rdf:RDF></metadata><defs
     id="defs4923"><clipPath
       id="clipPath4935"
       clipPathUnits="userSpaceOnUse"><path
         id="path4933"
         d="M 0,1024 H 1024 V 0 H 0 Z" /></clipPath><clipPath
       id="clipPath4951"
       clipPathUnits="userSpaceOnUse"><path
         id="path4949"
         d="M 587.435,453.711 485.08,532.345 430.168,469.026 615.825,306.904 823.897,709.971 745.45,757.786 Z" /></clipPath><linearGradient
       id="linearGradient4961"
       spreadMethod="pad"
       gradientTransform="matrix(393.72852,0,0,-393.72852,430.16797,532.3457)"
       gradientUnits="userSpaceOnUse"
       y2="0"
       x2="1"
       y1="0"
       x1="0"><stop
         id="stop4957"
         offset="0"
         style="stop-opacity:1;stop-color:#ffdf60" /><stop
         id="stop4959"
         offset="1"
         style="stop-opacity:1;stop-color:#f09900" /></linearGradient></defs><g
     transform="matrix(1.3333333,0,0,-1.3333333,0,1365.3333)"
     id="g4927"><g
       id="g4929"><g
         clip-path="url(#clipPath4935)"
         id="g4931"><g
           transform="translate(933,190)"
           id="g4937"><path
             id="path4939"
             style="fill:#686868;fill-opacity:1;fill-rule:nonzero;stroke:none"
             d="m 0,0 c 0,-55.229 -44.771,-100 -100,-100 h -643 c -55.229,0 -100,44.771 -100,100 v 643 c 0,55.229 44.771,100 100,100 h 643 C -44.771,743 0,698.229 0,643 Z" /></g><g
           transform="translate(776.5977,311.9531)"
           id="g4941"><path
             id="path4943"
             style="fill:#2b2b2b;fill-opacity:1;fill-rule:nonzero;stroke:none"
             d="m 0,0 c 2.284,-11.444 -5.143,-22.572 -16.586,-24.854 l -404.749,-80.763 c -11.443,-2.283 -22.572,5.141 -24.855,16.585 l -97.577,489.014 c -2.283,11.444 5.143,22.573 16.586,24.856 l 404.75,80.763 c 11.442,2.283 22.572,-5.143 24.856,-16.587 z" /></g></g></g><g
       id="g4945"><g
         clip-path="url(#clipPath4951)"
         id="g4947"><g
           id="g4953"><g
             id="g4955"><path
               id="path4963"
               style="fill:url(#linearGradient4961);stroke:none"
               d="M 587.435,453.711 485.08,532.345 430.168,469.026 615.825,306.904 823.897,709.971 745.45,757.786 Z" /></g></g></g></g></g></svg>