<?xml version="1.0" encoding="UTF-8" standalone="no"?>
<svg
   xmlns:dc="http://purl.org/dc/elements/1.1/"
   xmlns:cc="http://creativecommons.org/ns#"
   xmlns:rdf="http://www.w3.org/1999/02/22-rdf-syntax-ns#"
   xmlns:svg="http://www.w3.org/2000/svg"
   xmlns="http://www.w3.org/2000/svg"
   viewBox="0 0 1365.3333 1365.3333"
   height="1365.3333"
   width="1365.3333"
   xml:space="preserve"
   id="svg4991"
   version="1.1"><metadata
     id="metadata4997"><rdf:RDF><cc:Work
         rdf:about=""><dc:format>image/svg+xml</dc:format><dc:type
           rdf:resource="http://purl.org/dc/dcmitype/StillImage" /><dc:title></dc:title></cc:Work></rdf:RDF></metadata><defs
     id="defs4995"><clipPath
       id="clipPath5007"
       clipPathUnits="userSpaceOnUse"><path
         id="path5005"
         d="M 0,1024 H 1024 V 0 H 0 Z" /></clipPath></defs><g
     transform="matrix(1.3333333,0,0,-1.3333333,0,1365.3333)"
     id="g4999"><g
       id="g5001"><g
         clip-path="url(#clipPath5007)"
         id="g5003"><g
           transform="translate(934,193)"
           id="g5009"><path
             id="path5011"
             style="fill:#505050;fill-opacity:1;fill-rule:nonzero;stroke:none"
             d="m 0,0 c 0,-55.228 -44.772,-100 -100,-100 h -643 c -55.228,0 -100,44.772 -100,100 v 643 c 0,55.228 44.772,100 100,100 h 643 C -44.772,743 0,698.228 0,643 Z" /></g><g
           transform="translate(512.5243,808.1531)"
           id="g5013"><path
             id="path5015"
             style="fill:#393939;fill-opacity:1;fill-rule:nonzero;stroke:none"
             d="m 0,0 c -163.833,0 -296.76,-133.164 -296.76,-296.742 0,-163.821 132.921,-296.73 296.76,-296.73 163.554,0 296.712,132.909 296.712,296.73 C 296.712,-133.164 163.554,0 0,0" /></g><g
           transform="translate(741.1294,511.397)"
           id="g5017"><path
             id="path5019"
             style="fill:#f39c12;fill-opacity:1;fill-rule:nonzero;stroke:none"
             d="m 0,0 c 0,-33.611 -7.142,-65.357 -20.152,-93.93 h -133.25 L -30.245,113.491 C -10.918,80.067 0,41.189 0,0" /></g><g
           transform="translate(512.5068,740.0516)"
           id="g5021"><path
             id="path5023"
             style="fill:#f1c40f;fill-opacity:1;fill-rule:nonzero;stroke:none"
             d="M 0,0 C 77.947,0 146.878,-39.096 188.067,-98.776 L 120.612,-211.836 -5.049,0 Z" /></g><g
           transform="translate(487.4652,738.571)"
           id="g5025"><path
             id="path5027"
             style="fill:#2ecc71;fill-opacity:1;fill-rule:nonzero;stroke:none"
             d="M 0,0 67.898,-113.688 H -173.571 C -138.053,-51.697 -74.374,-7.983 0,0" /></g><g
           transform="translate(283.6339,511.397)"
           id="g5029"><path
             id="path5031"
             style="fill:#3498db;fill-opacity:1;fill-rule:nonzero;stroke:none"
             d="M 0,0 C 0,34.468 7.562,67.035 21.218,96.252 H 151.719 L 29.638,-112.841 C 10.715,-79.651 0,-40.976 0,0" /></g><g
           transform="translate(512.5068,282.5401)"
           id="g5033"><path
             id="path5035"
             style="fill:#9b59b6;fill-opacity:1;fill-rule:nonzero;stroke:none"
             d="M 0,0 C -78.192,0 -147.331,39.288 -188.728,99.192 L -121.49,214.35 4.388,0 Z" /></g><g
           transform="translate(536.6589,284.01)"
           id="g5037"><path
             id="path5039"
             style="fill:#e74c3c;fill-opacity:1;fill-rule:nonzero;stroke:none"
             d="M 0,0 -68.521,116.207 H 175.696 C 140.375,52.746 75.668,7.781 0,0" /></g></g></g></g></svg>