<?xml version="1.0" encoding="UTF-8" standalone="no"?>
<svg
   xmlns:dc="http://purl.org/dc/elements/1.1/"
   xmlns:cc="http://creativecommons.org/ns#"
   xmlns:rdf="http://www.w3.org/1999/02/22-rdf-syntax-ns#"
   xmlns:svg="http://www.w3.org/2000/svg"
   xmlns="http://www.w3.org/2000/svg"
   viewBox="0 0 1365.3333 1365.3333"
   height="1365.3333"
   width="1365.3333"
   xml:space="preserve"
   id="svg5041"
   version="1.1"><metadata
     id="metadata5047"><rdf:RDF><cc:Work
         rdf:about=""><dc:format>image/svg+xml</dc:format><dc:type
           rdf:resource="http://purl.org/dc/dcmitype/StillImage" /><dc:title></dc:title></cc:Work></rdf:RDF></metadata><defs
     id="defs5045"><clipPath
       id="clipPath5057"
       clipPathUnits="userSpaceOnUse"><path
         id="path5055"
         d="M 0,1024 H 1024 V 0 H 0 Z" /></clipPath></defs><g
     transform="matrix(1.3333333,0,0,-1.3333333,0,1365.3333)"
     id="g5049"><g
       id="g5051"><g
         clip-path="url(#clipPath5057)"
         id="g5053"><g
           transform="translate(933,190)"
           id="g5059"><path
             id="path5061"
             style="fill:#e2bb7b;fill-opacity:1;fill-rule:nonzero;stroke:none"
             d="m 0,0 c 0,-55.229 -44.771,-100 -100,-100 h -643 c -55.229,0 -100,44.771 -100,100 v 643 c 0,55.229 44.771,100 100,100 h 643 C -44.771,743 0,698.229 0,643 Z" /></g><g
           transform="translate(789.3438,507.1504)"
           id="g5063"><path
             id="path5065"
             style="fill:#a7763a;fill-opacity:1;fill-rule:nonzero;stroke:none"
             d="m 0,0 c 5.472,-9.705 8.518,-20.005 8.518,-30.928 0,-21.837 -13.965,-44.884 -33.351,-55.777 -9.11,-4.881 -21.862,-7.923 -34.563,-7.923 h -40.06 l -71.531,123.744 115.824,66.106 z m -58.183,-109.165 c 18.173,0 33.35,4.852 46.077,14.538 l -75.217,-130.974 c -6.067,-10.299 -16.959,-16.369 -29.689,-16.369 h -70.985 v -46.694 l -67.912,113.393 67.912,113.425 v -47.318 H -58.183 Z M -288.046,234.09 c -9.087,15.747 -21.219,26.69 -35.777,32.76 h 149.172 c 13.344,0 23.644,-5.475 29.735,-15.796 l 36.99,-63.064 40.013,23.67 -64.303,-115.248 -131.567,1.853 40.629,23.027 z m -115.253,-476.061 c -34.563,0 -63.061,28.502 -63.061,63.064 0,9.706 4.258,26.095 10.325,36.395 l 19.385,34.564 h 143.75 v -134.024 h -110.399 z m -8.467,472.397 c 11.513,20.033 30.329,30.949 53.355,30.949 24.882,0 44.294,-11.538 58.233,-35.158 l 20.624,-34.563 -71.578,-123.744 -115.822,67.322 z m -58.233,-367.49 c -6.065,-10.894 -10.894,-27.285 -10.894,-37.613 0,-2.398 0,-5.446 0.594,-9.677 l -75.81,130.38 c -2.427,4.23 -4.234,10.299 -4.234,15.768 0,5.475 1.807,12.132 4.234,16.368 l 36.395,63.68 -40.629,23.026 132.212,2.447 64.273,-115.821 -41.223,23.649 z" /></g></g></g></g></svg>