<?xml version="1.0" encoding="UTF-8" standalone="no"?>
<svg
   xmlns:dc="http://purl.org/dc/elements/1.1/"
   xmlns:cc="http://creativecommons.org/ns#"
   xmlns:rdf="http://www.w3.org/1999/02/22-rdf-syntax-ns#"
   xmlns:svg="http://www.w3.org/2000/svg"
   xmlns="http://www.w3.org/2000/svg"
   viewBox="0 0 1365.3333 1365.3333"
   height="1365.3333"
   width="1365.3333"
   xml:space="preserve"
   id="svg2"
   version="1.1"><metadata
     id="metadata8"><rdf:RDF><cc:Work
         rdf:about=""><dc:format>image/svg+xml</dc:format><dc:type
           rdf:resource="http://purl.org/dc/dcmitype/StillImage" /><dc:title></dc:title></cc:Work></rdf:RDF></metadata><defs
     id="defs6"><clipPath
       id="clipPath18"
       clipPathUnits="userSpaceOnUse"><path
         id="path16"
         d="M 0,1024 H 1024 V 0 H 0 Z" /></clipPath></defs><g
     transform="matrix(1.3333333,0,0,-1.3333333,0,1365.3333)"
     id="g10"><g
       id="g12"><g
         clip-path="url(#clipPath18)"
         id="g14"><g
           transform="translate(933,190)"
           id="g20"><path
             id="path22"
             style="fill:#009999;fill-opacity:1;fill-rule:nonzero;stroke:none"
             d="m 0,0 c 0,-55.229 -44.772,-100 -100,-100 h -643 c -55.229,0 -100,44.771 -100,100 v 643 c 0,55.229 44.771,100 100,100 h 643 C -44.772,743 0,698.229 0,643 Z" /></g><g
           transform="translate(675.8654,598.7807)"
           id="g24"><path
             id="path26"
             style="fill:#ffffff;fill-opacity:1;fill-rule:nonzero;stroke:none"
             d="m 0,0 c 26.73,-4.54 50.391,-20.399 63.82,-42.653 25.962,-43.101 9.784,-97.392 -36.131,-121.372 -12.597,-6.587 -24.492,-9.592 -41.118,-10.552 -21.678,-1.151 -36.45,1.407 -51.797,9.081 -17.842,8.952 -34.98,26.09 -53.397,53.332 -8.249,12.214 -17.265,26.474 -17.265,27.37 0,0.319 2.046,3.772 4.604,7.673 30.311,46.618 54.035,67.081 87.48,75.522 C -31.846,1.471 -12.534,2.174 0,0 m -289.171,-0.576 c 20.975,-4.22 38.113,-13.365 54.867,-29.288 11.127,-10.615 20.911,-22.829 34.276,-42.908 l 7.866,-11.831 -1.727,-2.941 c -3.133,-5.372 -15.411,-24.236 -20.015,-30.759 -12.022,-17.01 -25.899,-31.846 -37.09,-39.775 -18.609,-13.173 -36.642,-17.842 -63.755,-16.499 -11.575,0.576 -17.522,1.599 -27.05,4.605 -22.51,7.162 -42.334,23.596 -53.013,43.931 -17.01,32.55 -11.382,71.558 14.197,98.288 14.516,15.219 31.782,24.236 53.524,28.137 7.545,1.343 29.16,0.767 37.92,-0.96 m -33.508,49.112 c -39.328,-2.686 -75.97,-21.87 -100.27,-52.373 -13.493,-16.946 -22.253,-35.747 -26.602,-57.169 -1.471,-7.29 -1.598,-9.208 -1.598,-25.643 0,-16.434 0.127,-18.353 1.598,-25.643 5.564,-27.433 18.161,-50.327 38.752,-70.342 24.109,-23.405 54.42,-36.77 89.143,-39.264 30.759,-2.174 55.123,1.855 78.016,13.045 15.411,7.546 27.05,16.115 41.246,30.375 12.15,12.214 20.144,22.126 32.613,40.415 l 5.628,8.25 5.244,-7.802 c 34.979,-51.861 68.487,-76.417 113.826,-83.452 10.296,-1.598 37.281,-1.534 48.28,0.064 41.119,6.139 75.458,27.37 97.776,60.367 10.807,15.923 17.905,33.828 21.295,53.524 1.534,8.953 1.534,31.974 0,40.926 -8.761,50.775 -43.804,91.381 -92.98,107.752 -15.923,5.307 -28.201,7.226 -46.234,7.226 -12.917,0 -19.888,-0.64 -31.334,-2.814 -41.055,-7.801 -74.371,-30.567 -105.578,-72.197 -3.325,-4.412 -6.906,-9.336 -7.929,-10.999 -1.087,-1.726 -2.11,-3.005 -2.366,-2.877 -0.192,0.064 -3.006,3.709 -6.203,8.121 -10.487,14.452 -16.818,21.934 -27.881,32.997 -22.446,22.446 -44.508,35.555 -72.005,42.717 -15.859,4.157 -35.811,6.011 -52.437,4.796" /></g><g
           transform="translate(319.9977,515.9686)"
           id="g28"><path
             id="path30"
             style="fill:#ffffff;fill-opacity:1;fill-rule:nonzero;stroke:none"
             d="M 0,0 V -10.551 H 47.641 95.282 V 0 10.551 H 47.641 0 Z" /></g><g
           transform="translate(638.9677,542.3789)"
           id="g32"><path
             id="path34"
             style="fill:#ffffff;fill-opacity:1;fill-rule:nonzero;stroke:none"
             d="m 0,0 -0.192,-12.981 -12.917,-0.192 -12.982,-0.128 V -26.41 -39.52 h 13.11 13.109 v -13.109 -13.109 h 13.429 13.429 v 13.109 13.109 h 12.789 12.79 v 13.11 13.109 H 39.775 26.986 V -0.192 12.917 H 13.557 0.128 Z" /></g></g></g></g></svg>