<?xml version="1.0" encoding="UTF-8" standalone="no"?>
<svg
   xmlns:dc="http://purl.org/dc/elements/1.1/"
   xmlns:cc="http://creativecommons.org/ns#"
   xmlns:rdf="http://www.w3.org/1999/02/22-rdf-syntax-ns#"
   xmlns:svg="http://www.w3.org/2000/svg"
   xmlns="http://www.w3.org/2000/svg"
   viewBox="0 0 1280 1280"
   height="1280"
   width="1280"
   xml:space="preserve"
   version="1.1"
   id="svg2"><metadata
     id="metadata8"><rdf:RDF><cc:Work
         rdf:about=""><dc:format>image/svg+xml</dc:format><dc:type
           rdf:resource="http://purl.org/dc/dcmitype/StillImage" /><dc:title></dc:title></cc:Work></rdf:RDF></metadata><defs
     id="defs6"><clipPath
       id="clipPath16"
       clipPathUnits="userSpaceOnUse"><path
         id="path18"
         d="m 0,1024 1024,0 L 1024,0 0,0 0,1024 Z" /></clipPath></defs><g
     transform="matrix(1.25,0,0,-1.25,0,1280)"
     id="g10"><g
       id="g12"><g
         clip-path="url(#clipPath16)"
         id="g14"><g
           transform="translate(933,190)"
           id="g20"><path
             id="path22"
             style="fill:#66595c;fill-opacity:1;fill-rule:nonzero;stroke:none"
             d="m 0,0 c 0,-55.229 -44.771,-100 -100,-100 l -643,0 c -55.229,0 -100,44.771 -100,100 l 0,643 c 0,55.229 44.771,100 100,100 l 643,0 C -44.771,743 0,698.229 0,643 L 0,0 Z" /></g><g
           transform="translate(545.1152,512)"
           id="g24"><path
             id="path26"
             style="fill:#ffffff;fill-opacity:1;fill-rule:nonzero;stroke:none"
             d="m 0,0 c 0,-18.301 -14.836,-33.137 -33.137,-33.137 -18.301,0 -33.137,14.836 -33.137,33.137 0,18.301 14.836,33.137 33.137,33.137 C -14.836,33.137 0,18.301 0,0" /></g><g
           transform="translate(666.9033,638.8506)"
           id="g28"><path
             id="path30"
             style="fill:none;stroke:#ffffff;stroke-width:25;stroke-linecap:round;stroke-linejoin:miter;stroke-miterlimit:10;stroke-dasharray:none;stroke-opacity:1"
             d="m 0,0 c 8.129,49.305 1.302,86.77 -22.506,101.278 -49.201,29.982 -152.296,-49.438 -230.267,-177.39 -77.971,-127.952 -101.293,-255.985 -52.091,-285.967 26.114,-15.913 67.409,-1.008 112.071,35.615" /></g><g
           transform="translate(485.9312,723.6572)"
           id="g32"><path
             id="path34"
             style="fill:none;stroke:#ffffff;stroke-width:25;stroke-linecap:round;stroke-linejoin:miter;stroke-miterlimit:10;stroke-dasharray:none;stroke-opacity:1"
             d="m 0,0 c -36.16,28.055 -69.45,38.882 -92.604,26.29 -50.617,-27.526 -33.62,-156.55 37.965,-288.182 71.585,-131.631 170.648,-216.025 221.265,-188.5 48.845,26.564 34.727,147.641 -30.65,274.373" /></g><g
           transform="translate(717.1777,430.9453)"
           id="g36"><path
             id="path38"
             style="fill:none;stroke:#ffffff;stroke-width:25;stroke-linecap:round;stroke-linejoin:miter;stroke-miterlimit:10;stroke-dasharray:none;stroke-opacity:1"
             d="m 0,0 c 39.751,15.955 64.294,37.842 65.639,63.064 3.066,57.538 -115.742,110.644 -265.368,118.618 -149.625,7.976 -273.406,-32.201 -276.473,-89.737 -1.421,-26.655 23.317,-52.36 65.159,-73.067" /></g></g></g></g></svg>