<?xml version="1.0" encoding="UTF-8" standalone="no"?>
<svg
   xmlns:dc="http://purl.org/dc/elements/1.1/"
   xmlns:cc="http://creativecommons.org/ns#"
   xmlns:rdf="http://www.w3.org/1999/02/22-rdf-syntax-ns#"
   xmlns:svg="http://www.w3.org/2000/svg"
   xmlns="http://www.w3.org/2000/svg"
   viewBox="0 0 1365.3333 1365.3333"
   height="1365.3333"
   width="1365.3333"
   xml:space="preserve"
   id="svg4511"
   version="1.1"><metadata
     id="metadata4517"><rdf:RDF><cc:Work
         rdf:about=""><dc:format>image/svg+xml</dc:format><dc:type
           rdf:resource="http://purl.org/dc/dcmitype/StillImage" /><dc:title></dc:title></cc:Work></rdf:RDF></metadata><defs
     id="defs4515"><clipPath
       id="clipPath4527"
       clipPathUnits="userSpaceOnUse"><path
         id="path4525"
         d="M 0,1024 H 1024 V 0 H 0 Z" /></clipPath></defs><g
     transform="matrix(1.3333333,0,0,-1.3333333,0,1365.3333)"
     id="g4519"><g
       id="g4521"><g
         clip-path="url(#clipPath4527)"
         id="g4523"><g
           transform="translate(933,190)"
           id="g4529"><path
             id="path4531"
             style="fill:#66cc99;fill-opacity:1;fill-rule:nonzero;stroke:none"
             d="m 0,0 c 0,-55.229 -44.772,-100 -100,-100 h -643 c -55.229,0 -100,44.771 -100,100 v 643 c 0,55.229 44.771,100 100,100 h 643 C -44.772,743 0,698.229 0,643 Z" /></g><g
           transform="translate(545.1152,512)"
           id="g4533"><path
             id="path4535"
             style="fill:#ffffff;fill-opacity:1;fill-rule:nonzero;stroke:none"
             d="m 0,0 c 0,-18.301 -14.836,-33.137 -33.137,-33.137 -18.301,0 -33.137,14.836 -33.137,33.137 0,18.301 14.836,33.137 33.137,33.137 C -14.836,33.137 0,18.301 0,0" /></g><g
           transform="translate(666.9033,638.8506)"
           id="g4537"><path
             id="path4539"
             style="fill:none;stroke:#ffffff;stroke-width:25;stroke-linecap:round;stroke-linejoin:miter;stroke-miterlimit:10;stroke-dasharray:none;stroke-opacity:1"
             d="m 0,0 c 8.129,49.305 1.302,86.77 -22.506,101.278 -49.201,29.982 -152.296,-49.438 -230.267,-177.39 -77.971,-127.952 -101.293,-255.985 -52.091,-285.967 26.114,-15.913 67.409,-1.008 112.071,35.615" /></g><g
           transform="translate(485.9312,723.6572)"
           id="g4541"><path
             id="path4543"
             style="fill:none;stroke:#ffffff;stroke-width:25;stroke-linecap:round;stroke-linejoin:miter;stroke-miterlimit:10;stroke-dasharray:none;stroke-opacity:1"
             d="m 0,0 c -36.16,28.055 -69.45,38.882 -92.604,26.29 -50.617,-27.526 -33.62,-156.55 37.965,-288.182 71.585,-131.631 170.648,-216.025 221.265,-188.5 48.845,26.564 34.727,147.641 -30.65,274.373" /></g><g
           transform="translate(717.1777,430.9453)"
           id="g4545"><path
             id="path4547"
             style="fill:none;stroke:#ffffff;stroke-width:25;stroke-linecap:round;stroke-linejoin:miter;stroke-miterlimit:10;stroke-dasharray:none;stroke-opacity:1"
             d="m 0,0 c 39.751,15.955 64.294,37.842 65.639,63.064 3.066,57.538 -115.741,110.644 -265.368,118.618 -149.625,7.976 -273.406,-32.2 -276.473,-89.737 -1.421,-26.655 23.317,-52.36 65.159,-73.067" /></g></g></g></g></svg>