<?xml version="1.0" encoding="UTF-8" standalone="no"?>
<svg
   xmlns:dc="http://purl.org/dc/elements/1.1/"
   xmlns:cc="http://creativecommons.org/ns#"
   xmlns:rdf="http://www.w3.org/1999/02/22-rdf-syntax-ns#"
   xmlns:svg="http://www.w3.org/2000/svg"
   xmlns="http://www.w3.org/2000/svg"
   xmlns:sodipodi="http://sodipodi.sourceforge.net/DTD/sodipodi-0.dtd"
   xmlns:inkscape="http://www.inkscape.org/namespaces/inkscape"
   viewBox="0 0 1365.3333 1365.3333"
   height="1365.3333"
   width="1365.3333"
   xml:space="preserve"
   id="svg4549"
   version="1.1"
   sodipodi:docname="audacity.svg"
   inkscape:version="0.92.1 r15371"><sodipodi:namedview
     pagecolor="#ffffff"
     bordercolor="#666666"
     borderopacity="1"
     objecttolerance="10"
     gridtolerance="10"
     guidetolerance="10"
     inkscape:pageopacity="0"
     inkscape:pageshadow="2"
     inkscape:window-width="3200"
     inkscape:window-height="1690"
     id="namedview20"
     showgrid="false"
     inkscape:zoom="0.17285157"
     inkscape:cx="682.66663"
     inkscape:cy="682.66663"
     inkscape:window-x="0"
     inkscape:window-y="54"
     inkscape:window-maximized="1"
     inkscape:current-layer="svg4549" /><metadata
     id="metadata4555"><rdf:RDF><cc:Work
         rdf:about=""><dc:format>image/svg+xml</dc:format><dc:type
           rdf:resource="http://purl.org/dc/dcmitype/StillImage" /><dc:title /></cc:Work></rdf:RDF></metadata><defs
     id="defs4553"><clipPath
       id="clipPath4565"
       clipPathUnits="userSpaceOnUse"><path
         id="path4563"
         d="M 0,1024 H 1024 V 0 H 0 Z" /></clipPath></defs><g
     transform="matrix(1.3333333,0,0,-1.3333333,0,1365.3333)"
     id="g4557"><g
       id="g4559"><g
         clip-path="url(#clipPath4565)"
         id="g4561"><g
           transform="translate(933,190)"
           id="g4567"><path
             id="path4569"
             style="fill:#ffee93;fill-opacity:1;fill-rule:nonzero;stroke:none"
             d="m 0,0 c 0,-55.229 -44.771,-100 -100,-100 h -643 c -55.229,0 -100,44.771 -100,100 v 643 c 0,55.229 44.771,100 100,100 h 643 C -44.771,743 0,698.229 0,643 Z" /></g><g
           transform="translate(541.4873,556.4922)"
           id="g4571"><path
             id="path4573"
             style="fill:#e83636;fill-opacity:1;fill-rule:nonzero;stroke:none"
             d="m 0,0 c 0,0 12.699,-107.729 15.107,-114.402 2.409,-6.673 12.481,-24.845 16.421,15.22 3.942,40.068 11.166,76.587 13.794,127.623 0,0 5.911,-132.659 7.225,-138.789 2.406,-10.727 10.509,-18.389 21.893,6.788 4.598,13.793 8.321,20.143 12.918,65.464 0,0 -3.284,-54.872 1.971,-76.37 0,0 7.882,-27.409 10.509,4.777 1.314,13.793 6.568,37.822 7.225,49.125 -0.254,-3.056 2.956,-61.114 2.956,-61.114 0,0 2.189,-39.245 6.13,-3.776 3.942,35.469 5.364,47.292 5.364,47.292 v -112.099 l -5.856,19.487 c 0,0 -7.582,19.047 -10.21,-34.156 0,0 -4.515,32.676 -6.417,38.753 -1.903,6.075 -12.404,19.705 -14.375,-6.568 -1.969,-26.274 -11.785,-54.31 -11.785,-84.627 0,0 1.99,75.432 0.021,87.911 -1.972,12.48 -12.471,13.793 -20.353,-3.284 -7.883,-17.077 -9.191,-39.745 -7.221,-81.914 0,0 -13.133,65.493 -13.79,86.512 -0.658,21.018 -9.195,18.39 -11.822,-5.255 -2.628,-23.645 -4.27,-61.085 -17.734,-93.271 8.375,32.678 -0.657,86.866 -2.628,92.613 -1.97,5.747 -9.852,22.99 -15.107,-8.538 -5.255,-31.528 -16.421,-48.606 -18.391,-87.358 0.185,3.147 0.328,75.371 -5.911,98.524 0,0 -7.225,22.989 -11.823,-13.135 0,0 -1.97,-64.371 -1.97,-80.134 0,0 -21.019,82.761 -23.646,102.465 0,0 -4.598,49.919 -13.137,-2.627 -0.656,-22.332 -4.598,-57.422 -4.598,-89.796 0,0 -2.627,53.013 -16.42,83.885 0,0 -8.539,24.302 -8.539,-15.765 0,0 1.97,-49.263 0,-60.428 0,0 -1.97,42.694 -13.794,66.996 0,0 -17.734,34.813 -12.479,0.658 0,0 4.597,-45.323 0,-69.625 0,0 0.821,27.422 -4.598,42.695 -3.145,8.862 -11.166,28.244 -11.823,1.97 -0.657,-26.274 -0.657,-36.783 -0.657,-36.783 0,0 -20.388,83.635 -20.799,49.482 -0.411,-34.154 0.657,78.599 0.657,78.599 0,0 13.492,-56.486 14.806,-51.888 1.313,4.597 0.041,68.967 0.041,68.967 l 13.157,-18.506 c 0,0 6.579,-3.17 6.579,18.506 0,21.674 5.259,67.652 5.259,67.652 0,0 3.287,-91.955 5.258,-103.121 1.969,-11.166 9.853,-13.793 12.481,9.852 2.627,23.645 9.852,92.613 9.195,116.915 0,0 3.285,-96.123 7.883,-109.804 4.597,-13.679 8.539,-37.023 12.48,-0.064 3.941,36.96 11.166,105.927 11.823,137.455 0,0 13.136,-133.993 20.361,-165.52 0,0 9.196,-45.978 11.166,0.656 1.971,46.635 21.018,152.384 19.705,185.882 0,0 4.763,-157.31 6.568,-162.893 1.807,-5.583 7.225,-16.776 9.196,4.42" /></g><g
           transform="translate(321.6699,296.6074)"
           id="g4575"><path
             id="path4577"
             style="fill:#3b3be2;fill-opacity:1;fill-rule:nonzero;stroke:none"
             d="m 0,0 c 0,0 -103.313,14.838 -103.313,139.958 0,123.211 72.622,145.808 72.622,145.808 0,0 -12.808,73.89 51.23,129.06 64.037,55.171 112.311,65.696 176.349,65.696 64.039,0 138.913,-34.17 173.393,-78.503 34.482,-44.333 39.407,-100.49 39.407,-115.268 0,0 73.156,-19.641 73.156,-145.808 C 482.844,40.453 417.571,0.925 384.074,0 l -1.97,299.559 c 0,0 -1.144,48.997 -38.422,83.741 -32.111,29.927 -73.89,66.008 -144.824,66.008 -70.933,0 -120.193,-22.66 -151.719,-50.245 C 15.613,371.478 0.875,342.864 -1.135,296.603 -2.419,267.075 0,0 0,0" /></g><g
           transform="translate(336.9951,304.0508)"
           id="g4579"><path
             id="path4581"
             style="fill:#3b3be2;fill-opacity:1;fill-rule:nonzero;stroke:none"
             d="m 0,0 0.438,264.92 -0.439,15.704 c 0,0 11.234,1.625 17.955,-2.074 5.071,-2.791 4.488,-7.17 4.817,-13.192 C 23.342,254.855 22.831,23.153 22.773,14.561 22.716,5.968 23.318,3.503 13.247,-2.627 5.693,-7.225 0,-7.443 0,-7.443 0,-7.443 -0.003,-1.75 0,0" /></g><g
           transform="translate(663,317.624)"
           id="g4583"><path
             id="path4585"
             style="fill:#3b3be2;fill-opacity:1;fill-rule:nonzero;stroke:none"
             d="m 0,0 v 248.063 c 0,0 -0.656,12.042 8.977,15.107 6.019,1.916 13.293,0.753 13.293,0.753 0,0 -0.27,-6.609 -0.27,-11.699 V -8.756 -21.017 c 0,0 -6.961,2.024 -12.23,5.119 C 4.404,-12.834 0,-10.233 0,0" /></g></g></g></g></svg>