<?xml version="1.0" encoding="UTF-8" standalone="no"?>
<svg
   xmlns:dc="http://purl.org/dc/elements/1.1/"
   xmlns:cc="http://creativecommons.org/ns#"
   xmlns:rdf="http://www.w3.org/1999/02/22-rdf-syntax-ns#"
   xmlns:svg="http://www.w3.org/2000/svg"
   xmlns="http://www.w3.org/2000/svg"
   viewBox="0 0 1365.3333 1365.3333"
   height="1365.3333"
   width="1365.3333"
   xml:space="preserve"
   id="svg4587"
   version="1.1"><metadata
     id="metadata4593"><rdf:RDF><cc:Work
         rdf:about=""><dc:format>image/svg+xml</dc:format><dc:type
           rdf:resource="http://purl.org/dc/dcmitype/StillImage" /><dc:title></dc:title></cc:Work></rdf:RDF></metadata><defs
     id="defs4591"><clipPath
       id="clipPath4603"
       clipPathUnits="userSpaceOnUse"><path
         id="path4601"
         d="M 0,1024 H 1024 V 0 H 0 Z" /></clipPath><clipPath
       id="clipPath4623"
       clipPathUnits="userSpaceOnUse"><path
         id="path4621"
         d="M 0,1024 H 1024 V 0 H 0 Z" /></clipPath><clipPath
       id="clipPath4631"
       clipPathUnits="userSpaceOnUse"><path
         id="path4629"
         d="m 245.947,540.171 h 531.11 v -226.87 h -531.11 z" /></clipPath><clipPath
       id="clipPath4651"
       clipPathUnits="userSpaceOnUse"><path
         id="path4649"
         d="M 0,1024 H 1024 V 0 H 0 Z" /></clipPath><clipPath
       id="clipPath4659"
       clipPathUnits="userSpaceOnUse"><path
         id="path4657"
         d="m 245.947,402.332 h 71.582 V 229.629 h -71.582 z" /></clipPath><clipPath
       id="clipPath4675"
       clipPathUnits="userSpaceOnUse"><path
         id="path4673"
         d="m 654.527,540.171 h 122.53 V 229.629 h -122.53 z" /></clipPath></defs><g
     transform="matrix(1.3333333,0,0,-1.3333333,0,1365.3333)"
     id="g4595"><g
       id="g4597"><g
         clip-path="url(#clipPath4603)"
         id="g4599"><g
           transform="translate(933,190)"
           id="g4605"><path
             id="path4607"
             style="fill:#ff6369;fill-opacity:1;fill-rule:nonzero;stroke:none"
             d="m 0,0 c 0,-55.229 -44.771,-100 -100,-100 h -643 c -55.229,0 -100,44.771 -100,100 v 643 c 0,55.229 44.771,100 100,100 h 643 C -44.771,743 0,698.229 0,643 Z" /></g></g></g><g
       transform="translate(511.5,805)"
       id="g4609"><path
         id="path4611"
         style="fill:#c11b16;fill-opacity:1;fill-rule:nonzero;stroke:none"
         d="m 0,0 265.557,-491.705 -71.582,-83.666 -85.441,-11.463 z" /></g><g
       transform="translate(511.5,805)"
       id="g4613"><path
         id="path4615"
         style="fill:#c11b16;fill-opacity:1;fill-rule:nonzero;stroke:none"
         d="m 0,0 -265.553,-491.699 71.582,-83.672 85.438,-11.457 z" /></g><g
       id="g4617"><g
         clip-path="url(#clipPath4623)"
         id="g4619"><g
           id="g4625"><g
             id="g4627" /><g
             id="g4639"><g
               id="g4637"
               clip-path="url(#clipPath4631)"><g
                 id="g4635"
                 transform="translate(654.5273,540.1714)"><path
                   id="path4633"
                   style="fill:#87080a;fill-opacity:1;fill-rule:nonzero;stroke:none"
                   d="m 0,0 -360.497,-137.839 -48.083,-89.032 h 531.109 z" /></g></g></g></g></g></g><g
       transform="translate(511.5,805)"
       id="g4641"><path
         id="path4643"
         style="fill:#df3c31;fill-opacity:1;fill-rule:nonzero;stroke:none"
         d="m 0,0 -63.593,-343.832 118.784,45.418 z" /></g><g
       id="g4645"><g
         clip-path="url(#clipPath4651)"
         id="g4647"><g
           id="g4653"><g
             id="g4655" /><g
             id="g4667"><g
               style="opacity:0.30000299"
               id="g4665"
               clip-path="url(#clipPath4659)"><g
                 id="g4663"
                 transform="translate(294.0308,402.332)"><path
                   id="path4661"
                   style="fill:#050505;fill-opacity:1;fill-rule:nonzero;stroke:none"
                   d="m 0,0 23.499,-172.703 -71.582,83.672 z" /></g></g></g></g><g
           id="g4669"><g
             id="g4671" /><g
             id="g4683"><g
               style="opacity:0.30000299"
               id="g4681"
               clip-path="url(#clipPath4675)"><g
                 id="g4679"
                 transform="translate(654.5273,540.1714)"><path
                   id="path4677"
                   style="fill:#050505;fill-opacity:1;fill-rule:nonzero;stroke:none"
                   d="m 0,0 50.947,-310.542 71.582,83.671 z" /></g></g></g></g></g></g></g></svg>