<?xml version="1.0" encoding="UTF-8"?>
<svg width="1024px" height="1024px" viewBox="0 0 1024 1024" version="1.1" xmlns="http://www.w3.org/2000/svg" xmlns:xlink="http://www.w3.org/1999/xlink">
    <!-- Generator: Sketch 46.2 (44496) - http://www.bohemiancoding.com/sketch -->
    <title>Automator</title>
    <desc>Created with Sketch.</desc>
    <defs></defs>
    <g id="Page-1" stroke="none" stroke-width="1" fill="none" fill-rule="evenodd">
        <g id="Automator">
            <rect id="Outer" fill="#ACB9D0" fill-rule="nonzero" x="92" y="92" width="840" height="840" rx="100"></rect>
            <g id="Icon" transform="translate(183.000000, 209.000000)">
                <path d="M427,264 C461.575412,300.680445 456.971858,351.507517 467.906696,377.248438 C484.57434,416.484553 503.959136,421.305531 506.066942,405.75536 C511.302898,367.127528 492.899891,361.875347 490.556281,318.575667" id="Path-6" stroke="#222227" stroke-width="48"></path>
                <path d="M373.803373,212.780447 C381.984046,210.309636 402.101551,214.136211 409.215689,218.242093 C429.13117,230.41372 445.945956,242.887352 459.660047,255.662987 L459.660047,255.662987 C461.27647,257.168799 461.366139,259.699871 459.860327,261.316295 C459.412642,261.796865 458.853509,262.159804 458.232306,262.373059 C442.190808,267.879991 432.33453,273.752814 428.663472,279.991527 C422.470497,290.516063 365.6227,215.251258 373.803373,212.780447 Z" id="Path-5" fill="#D8D8D8"></path>
                <path d="M370.585524,580.264763 C395.18279,573.477447 422.921351,556.299911 423.863511,536.239887 C425.877424,521.429096 405.43432,497 373.819923,497 C342.205525,497 313.593204,519.206531 314.004378,539.028848 C317.6145,579.893654 338.224342,590.729065 370.585524,580.264763 Z" id="Foot" fill="#222227" transform="translate(369.000000, 540.500000) rotate(25.000000) translate(-369.000000, -540.500000) "></path>
                <path d="M370.585524,572.264763 C395.18279,565.477447 422.921351,548.299911 423.863511,528.239887 C425.877424,513.429096 405.43432,489 373.819923,489 C342.205525,489 313.593204,511.206531 314.004378,531.028848 C317.6145,571.893654 338.224342,582.729065 370.585524,572.264763 Z" id="Foot" fill="#C1C5CC" transform="translate(369.000000, 532.500000) rotate(25.000000) translate(-369.000000, -532.500000) "></path>
                <path d="M334,476.461005 C334,485.441206 334,491.12829 334,493.522256 C334,497.113205 335.668763,509.416605 359.507614,507.865501 C383.346465,506.314397 385.79831,498.600288 385.899155,493.16517 C385.966385,489.541757 386,478.820034 386,461 L334,476.461005 Z" id="Leg" fill="#222227"></path>
                <path d="M251.394938,598.854044 C286.752576,593.227049 308.506245,585.820822 309,552.151481 C309,526.358367 277.648106,517 245.833709,517 C214.019312,517 194.592705,533.805778 195.006481,553.758959 C196.595361,584.26341 215.311241,600.740637 251.394938,598.854044 Z" id="Foot" fill="#222227" transform="translate(252.000000, 558.000000) rotate(10.000000) translate(-252.000000, -558.000000) "></path>
                <path d="M251.394938,590.854044 C286.752576,585.227049 308.506245,577.820822 309,544.151481 C309,518.358367 277.648106,509 245.833709,509 C214.019312,509 194.592705,525.805778 195.006481,545.758959 C196.595361,576.26341 215.311241,592.740637 251.394938,590.854044 Z" id="Foot" fill="#CDCFD3" transform="translate(252.000000, 550.000000) rotate(10.000000) translate(-252.000000, -550.000000) "></path>
                <path d="M228,497.461005 C228,506.441206 228,512.12829 228,514.522256 C228,518.113205 229.668763,530.416605 253.507614,528.865501 C277.346465,527.314397 279.79831,519.600288 279.899155,514.16517 C279.966385,510.541757 280,499.820034 280,482 L228,497.461005 Z" id="Leg" fill="#222227"></path>
                <path d="M311.648473,483.99125 C396.305111,482.531341 450,429.791962 450,345.544153 C450,261.296343 401.667921,193 311.648473,193 C167.083955,207.766064 177.01205,265.942225 173.296947,345.544153 C168.476198,443.991442 222.684602,484.686517 311.648473,483.99125 Z" id="Body" fill="#EBEBEB"></path>
                <path d="M264.127034,198.417863 C263.255336,213.307892 262.889295,221.971778 263.028912,224.409521 C263.238338,228.066134 270.602703,245.380369 306.644143,242.72421 C342.685583,240.068052 347.209383,224.266808 346.992875,220.752907 C346.662126,217.238752 346.122424,208.654449 345.373769,195 L264.127034,198.417863 Z" id="Path-3" fill-opacity="0.5" fill="#353548"></path>
                <ellipse id="Head" fill="#FFFFFF" transform="translate(299.500000, 108.000000) rotate(-2.000000) translate(-299.500000, -108.000000) " cx="299.5" cy="108" rx="143.5" ry="96"></ellipse>
                <ellipse id="Eyes" fill="#46CEFF" transform="translate(319.500000, 124.500000) rotate(-5.000000) translate(-319.500000, -124.500000) " cx="319.5" cy="124.5" rx="75.5" ry="30.5"></ellipse>
                <path d="M186.571738,274 C130.145726,321.101623 104.905125,364.308721 110.849935,403.621295 C119.767151,462.590157 184.465232,486.285452 205,499" id="Path-2" stroke="#222227" stroke-width="48"></path>
                <path d="M124.901694,269.492206 C126.864409,266.757888 148.801766,249.697194 158.930116,243.497146 C165.048235,239.751952 175.888951,234.036911 191.452264,226.352023 L191.452262,226.352019 C194.641327,224.777316 198.336312,224.577979 201.676279,225.800455 C210.608691,229.069846 215.709743,231.076967 216.979435,231.821818 C219.22905,233.14153 230.639827,242.86457 231.412673,245.294392 C232.185519,247.724214 233.708613,267.546605 224.213002,283.281542 C217.882595,293.7715 211.392874,301.344319 204.743837,306 C195.313007,302.121771 188.011647,299.996008 182.839755,299.622711 C175.081919,299.062765 161.098917,300.418765 154.08853,299.062765 C146.865798,295.666047 144.591598,290.500098 138.571535,287.599893 C132.551472,284.699689 124.367856,279.902674 123.465073,276.764266 C122.562289,273.625858 122.93898,272.226525 124.901694,269.492206 Z" id="Path-4" fill="#FFFFFF"></path>
                <rect id="Rectangle" fill="#34343D" transform="translate(365.000000, 397.500000) rotate(-36.500000) translate(-365.000000, -397.500000) " x="35.9999999" y="354" width="658" height="87" rx="43.5"></rect>
                <path d="M474,383.593699 C491.409358,421.305694 504.89918,422.007914 507.020664,406.429228 C512.290594,367.730561 507.020664,338.064005 491.409358,301" id="Path-6" stroke="#222227" stroke-width="53"></path>
                <ellipse id="Oval" fill="#222227" transform="translate(489.000000, 296.500000) rotate(-21.000000) translate(-489.000000, -296.500000) " cx="489" cy="296.5" rx="26" ry="14.5"></ellipse>
            </g>
        </g>
    </g>
</svg>