<?xml version="1.0" encoding="UTF-8" standalone="no"?>
<svg
   xmlns:dc="http://purl.org/dc/elements/1.1/"
   xmlns:cc="http://creativecommons.org/ns#"
   xmlns:rdf="http://www.w3.org/1999/02/22-rdf-syntax-ns#"
   xmlns:svg="http://www.w3.org/2000/svg"
   xmlns="http://www.w3.org/2000/svg"
   viewBox="0 0 1365.3333 1365.3333"
   height="1365.3333"
   width="1365.3333"
   xml:space="preserve"
   id="svg4685"
   version="1.1"><metadata
     id="metadata4691"><rdf:RDF><cc:Work
         rdf:about=""><dc:format>image/svg+xml</dc:format><dc:type
           rdf:resource="http://purl.org/dc/dcmitype/StillImage" /><dc:title></dc:title></cc:Work></rdf:RDF></metadata><defs
     id="defs4689"><clipPath
       id="clipPath4701"
       clipPathUnits="userSpaceOnUse"><path
         id="path4699"
         d="M 0,1024 H 1024 V 0 H 0 Z" /></clipPath></defs><g
     transform="matrix(1.3333333,0,0,-1.3333333,0,1365.3333)"
     id="g4693"><g
       id="g4695"><g
         clip-path="url(#clipPath4701)"
         id="g4697"><g
           transform="translate(933,190)"
           id="g4703"><path
             id="path4705"
             style="fill:#18212f;fill-opacity:1;fill-rule:nonzero;stroke:none"
             d="m 0,0 c 0,-55.229 -44.772,-100 -100,-100 h -643 c -55.229,0 -100,44.771 -100,100 v 643 c 0,55.229 44.771,100 100,100 h 643 C -44.772,743 0,698.229 0,643 Z" /></g><g
           transform="translate(371.0653,632.277)"
           id="g4707"><path
             id="path4709"
             style="fill:#1aa3df;fill-opacity:1;fill-rule:nonzero;stroke:none"
             d="M 0,0 H 49.1 C 47.97,12.309 48.675,24.419 45.262,35.229 42.756,43.165 35.959,51.378 28.792,55.382 26.05,56.914 14.049,48.343 11.374,42.164 5.915,29.559 3.92,15.453 0,0 m 126.722,-250.352 c -10.848,-7.516 -22.372,-13.342 -30.781,-22.144 -4.984,-5.218 -8.412,-16.263 -6.281,-22.577 1.735,-5.142 13.006,-10.328 19.625,-9.833 11.357,0.849 22.553,5.683 33.402,9.908 2.072,0.807 4.103,7.428 2.952,9.838 -5.533,11.583 -12.164,22.641 -18.917,34.808 M 304.63,-58.416 c 12.312,-5.825 23.113,-12.937 34.937,-15.76 6.87,-1.641 17.474,1.517 22.425,6.479 3.309,3.316 1.698,14.677 -1.346,20.554 -6.76,13.048 -18.301,21.948 -32.026,28.728 -8.121,-13.541 -15.716,-26.204 -23.99,-40.001 M 15.766,-149.71 c -1.509,-0.037 -3.018,-0.074 -4.527,-0.111 -6.305,-19.452 -14.54,-38.526 -18.434,-58.448 -5.075,-25.962 6.843,-38.34 32.981,-38.261 4.825,0.014 9.688,0.953 14.46,1.851 16.203,3.047 31.459,8.434 47.078,18.518 -33.557,18.189 -54.582,45.44 -71.558,76.451 M 193.901,46.313 c -15.21,21.138 -27.371,40.771 -46.937,54.03 -13.653,9.252 -25.426,7.963 -35.622,-4.459 C 94.457,75.312 90.733,50.766 90.083,22.21 c 32.355,19.263 66.556,22.074 103.818,24.103 m 110.135,-150.099 c 0.42,-39.641 -13.948,-71.817 -32.047,-103.232 4.659,0.336 8.317,0.22 11.815,0.915 18.574,3.691 37.744,5.749 55.483,11.904 19.237,6.675 23.5,20.511 15.388,39.139 -9.835,22.582 -28.262,36.772 -50.639,51.274 M 165.252,-282.614 c 34.636,23.626 62.045,51.016 85.583,82.391 20.013,26.675 34.836,55.541 39.078,89.299 1.517,12.069 -2.552,18.177 -13.333,23.513 -53.527,26.489 -109.987,43.959 -168.208,56.073 -8.001,1.664 -10.551,4.403 -8.818,12.007 0.962,4.223 1.395,8.567 2.138,13.306 59.92,-6.475 116.628,-21.776 172.623,-40.309 0.955,1.227 1.91,2.453 2.865,3.68 -11.266,14.005 -22.533,28.011 -33.799,42.016 0.786,0.755 1.573,1.511 2.359,2.266 14.358,-14.429 28.717,-28.858 43.683,-43.897 7.391,10.525 15.368,21.882 23.631,33.649 -36.561,18.92 -73.792,28.524 -112.163,33.475 -33.82,4.363 -67.283,2.95 -99.229,-11.441 C 93.274,9.635 88.323,5.32 89.739,-4.7 c 4.822,-34.126 7.891,-68.565 14.277,-102.384 5.378,-28.481 14.444,-56.266 22.122,-85.284 -4.323,-2.214 -8.989,-4.554 -13.609,-6.982 -5.738,-3.015 -8.962,-0.984 -11.032,4.83 -7.195,20.203 -15.641,40.027 -21.667,60.566 -9.941,33.881 -18.367,68.207 -28.452,106.186 -7.69,-19.365 -14.276,-35.95 -20.862,-52.535 -1.054,0.286 -2.107,0.571 -3.161,0.856 5.284,19.154 10.568,38.307 16.069,58.245 -12.661,1.392 -26.188,2.88 -40.372,4.441 -0.217,-3.554 -1.06,-6.491 -0.455,-9.09 7.171,-30.782 12.575,-62.163 22.392,-92.091 12.179,-37.13 32.256,-70.072 64.624,-94.039 7.17,-5.308 12.586,-7.396 21.519,-1.644 49.697,31.994 92.32,71.936 132.013,115.242 11.241,12.264 10.744,12.768 24.122,2.966 2.24,-1.641 4.207,-3.655 6.624,-5.782 -35.574,-48.294 -77.673,-89.903 -122.104,-129.368 0.616,-1.331 1.231,-2.661 1.846,-3.992 18.53,3.005 37.06,6.009 54.523,8.841 -16.933,-11.791 -38.101,-14.355 -61.183,-16.571 6.325,-13.954 11.937,-26.334 18.279,-40.325 m 14.558,-32.027 c 20.085,-30.353 42.141,-63.687 64.297,-97.171 -19.04,8.869 -29.983,26.656 -42.456,42.506 -12.514,15.903 -23.845,32.736 -36.403,50.144 -7.142,-3.681 -14.327,-8.076 -22.026,-11.213 -19.023,-7.751 -37.94,-16.676 -59.518,-11.411 -17.36,4.236 -24.323,15.221 -20.056,32.429 1.652,6.662 4.135,13.119 7.005,22.054 -8.525,-3.586 -15.539,-6.812 -22.747,-9.519 -22.859,-8.582 -45.72,-16.714 -70.917,-10.581 -19.494,4.744 -30.768,17.56 -31.988,37.646 -1.525,25.104 5.467,48.477 16.063,70.604 11.213,23.417 24.255,45.953 36.081,69.087 2.012,3.936 3.714,9.495 2.525,13.375 -10.162,33.155 -21.023,66.096 -32.972,103.12 -35.784,-2.077 -75.468,-4.381 -116.801,-6.78 38.795,16.395 79.449,15.918 116.8,20.475 4.561,22.647 6.448,44.761 13.66,64.975 12.155,34.066 36.185,36.81 58.618,8.693 1.428,-1.789 2.808,-3.616 4.978,-6.417 2.945,16.728 5.162,32.15 8.531,47.317 1.822,8.207 5.371,16.074 8.553,23.927 15.653,38.641 55.71,38.972 79.786,16.67 17.134,-15.871 32.321,-34.194 46.388,-52.917 11.649,-15.505 20.092,-33.385 30.62,-49.787 2.767,-4.311 7.52,-9.07 12.177,-10.168 32.98,-7.778 66.174,-14.657 103.589,-22.75 15.983,31.638 33.91,67.125 51.838,102.611 C 381.423,81.953 361.52,47.215 344.933,10.67 c 12.723,-9.226 26.628,-17.676 38.449,-28.42 8.777,-7.977 16.308,-18.174 21.782,-28.737 8.125,-15.673 1.198,-29.911 -15.794,-35.567 -7.626,-2.539 -15.704,-3.719 -24.995,-5.839 10.516,-7.899 20.456,-14.964 29.949,-22.584 16.484,-13.231 29.143,-29.538 35.668,-49.768 6.284,-19.48 -2.677,-37.564 -22.781,-48.456 -26.762,-14.501 -56.103,-18.363 -85.78,-20.064 -18.678,-1.07 -37.454,-0.368 -56.157,-1.161 -4.339,-0.184 -9.782,-2.077 -12.639,-5.129 -23.481,-25.092 -46.471,-50.644 -72.825,-79.586" /></g></g></g></g></svg>