<?xml version="1.0" encoding="UTF-8" standalone="no"?>
<svg
   xmlns:dc="http://purl.org/dc/elements/1.1/"
   xmlns:cc="http://creativecommons.org/ns#"
   xmlns:rdf="http://www.w3.org/1999/02/22-rdf-syntax-ns#"
   xmlns:svg="http://www.w3.org/2000/svg"
   xmlns="http://www.w3.org/2000/svg"
   viewBox="0 0 1365.3333 1365.3333"
   height="1365.3333"
   width="1365.3333"
   xml:space="preserve"
   id="svg4795"
   version="1.1"><metadata
     id="metadata4801"><rdf:RDF><cc:Work
         rdf:about=""><dc:format>image/svg+xml</dc:format><dc:type
           rdf:resource="http://purl.org/dc/dcmitype/StillImage" /><dc:title></dc:title></cc:Work></rdf:RDF></metadata><defs
     id="defs4799"><clipPath
       id="clipPath4811"
       clipPathUnits="userSpaceOnUse"><path
         id="path4809"
         d="M 0,1024 H 1024 V 0 H 0 Z" /></clipPath></defs><g
     transform="matrix(1.3333333,0,0,-1.3333333,0,1365.3333)"
     id="g4803"><g
       id="g4805"><g
         clip-path="url(#clipPath4811)"
         id="g4807"><g
           transform="translate(933,190)"
           id="g4813"><path
             id="path4815"
             style="fill:#2f2f2f;fill-opacity:1;fill-rule:nonzero;stroke:none"
             d="m 0,0 c 0,-55.229 -44.771,-100 -100,-100 h -643 c -55.229,0 -100,44.771 -100,100 v 643 c 0,55.229 44.771,100 100,100 h 643 C -44.771,743 0,698.229 0,643 Z" /></g><g
           transform="translate(263.9941,325.293)"
           id="g4817"><path
             id="path4819"
             style="fill:#e2e2e2;fill-opacity:1;fill-rule:nonzero;stroke:none"
             d="m 0,0 c 9.453,-7.52 33.085,-8.293 33.085,-8.293 h 93.886 c 13.321,0 21.269,9.044 21.055,25.371 -0.215,16.328 -1.505,109.74 -1.505,155.502 0,45.761 15.04,76.297 69.824,76.297 54.786,0 64.669,-50.049 64.669,-67.451 0,-17.403 0.215,-51.996 0.215,-51.996 9.452,2.148 17.187,2.34 28.358,2.34 22.988,0.213 50.918,-9.075 69.179,-31.848 18.261,-22.774 12.461,-87.322 13.106,-96.775 0.644,-9.453 12.46,-9.44 12.46,-9.44 h 65.742 c 28.145,0 30.138,13.201 31.856,17.283 1.719,4.082 6.076,10.623 6.076,60.037 v 252.44 c 0,30.292 -12.951,51.776 -55.275,51.776 -42.325,0 -358.064,-0.214 -408.551,-0.644 -50.489,-0.43 -56.573,-30.508 -56.573,-55.859 0,-25.351 0.866,-239.829 1.039,-271.409 C -11.254,29.497 -9.453,7.519 0,0 m -42.091,47.608 c 1.372,40.797 0.098,224.977 -0.117,274.247 -0.214,49.27 24.649,83.126 82.8,83.126 58.151,0 347.32,-1.119 411.486,0.027 64.166,1.145 84.928,-41.223 84.928,-71.587 V 43.526 c 0,0 5.492,-79.063 -59.82,-79.635 -65.311,-0.571 -85.411,0 -85.411,0 0,0 -6.039,-0.285 -11.947,1.543 -5.909,1.825 -13.046,9.988 -16.16,20.194 -1.719,5.907 -3.085,11.708 -2.978,17.401 0.108,5.694 0.122,27.608 0.336,43.614 0.214,16.005 -0.53,20.732 -5.364,30.077 -4.833,9.346 -19.222,24.062 -48.226,24.062 -12.891,-0.107 -24.384,-2.63 -26.747,-2.952 l -0.106,-137.123 h -30.937 c 0,0 0.107,185.462 0.107,211.028 0,25.566 -4.296,45.627 -34.052,45.519 -29.756,-0.108 -36.523,-16.342 -36.523,-26.976 0,-10.634 -0.752,-126.334 -0.752,-152.975 0,-26.64 -4.082,-37.762 -9.023,-46.356 -4.942,-8.593 -17.617,-27.259 -50.166,-28.01 -32.549,-0.752 -58.115,-0.633 -99.794,-0.633 -41.679,0 -63.45,28.371 -61.534,85.304" /></g></g></g></g></svg>