<?xml version="1.0" encoding="UTF-8" standalone="no"?>
<svg
   xmlns:dc="http://purl.org/dc/elements/1.1/"
   xmlns:cc="http://creativecommons.org/ns#"
   xmlns:rdf="http://www.w3.org/1999/02/22-rdf-syntax-ns#"
   xmlns:svg="http://www.w3.org/2000/svg"
   xmlns="http://www.w3.org/2000/svg"
   viewBox="0 0 1365.3333 1365.3333"
   height="1365.3333"
   width="1365.3333"
   xml:space="preserve"
   id="svg4711"
   version="1.1"><metadata
     id="metadata4717"><rdf:RDF><cc:Work
         rdf:about=""><dc:format>image/svg+xml</dc:format><dc:type
           rdf:resource="http://purl.org/dc/dcmitype/StillImage" /><dc:title></dc:title></cc:Work></rdf:RDF></metadata><defs
     id="defs4715"><clipPath
       id="clipPath4727"
       clipPathUnits="userSpaceOnUse"><path
         id="path4725"
         d="M 0,1024 H 1024 V 0 H 0 Z" /></clipPath></defs><g
     transform="matrix(1.3333333,0,0,-1.3333333,0,1365.3333)"
     id="g4719"><g
       id="g4721"><g
         clip-path="url(#clipPath4727)"
         id="g4723"><path
           id="path4729"
           style="fill:none;stroke:#666666;stroke-width:259;stroke-linecap:butt;stroke-linejoin:miter;stroke-miterlimit:10;stroke-dasharray:none;stroke-opacity:1"
           d="M 748.408,273.393 H 275.932 v 472.476 h 472.476 z" /><g
           transform="translate(933,541)"
           id="g4731"><path
             id="path4733"
             style="fill:#e2e2e2;fill-opacity:1;fill-rule:nonzero;stroke:none"
             d="m 0,0 h -392 v 392 h 292 C -44.772,392 0,347.228 0,292 Z" /></g><g
           transform="translate(482,541)"
           id="g4735"><path
             id="path4737"
             style="fill:#e2e2e2;fill-opacity:1;fill-rule:nonzero;stroke:none"
             d="m 0,0 h -392 v 292 c 0,55.228 44.772,100 100,100 H 0 Z" /></g><g
           transform="translate(482,89.6667)"
           id="g4739"><path
             id="path4741"
             style="fill:#e2e2e2;fill-opacity:1;fill-rule:nonzero;stroke:none"
             d="m 0,0 h -292 c -55.228,0 -100,44.772 -100,100 V 392 H 0 Z" /></g><g
           transform="translate(833,89.3333)"
           id="g4743"><path
             id="path4745"
             style="fill:#e2e2e2;fill-opacity:1;fill-rule:nonzero;stroke:none"
             d="M 0,0 H -292 V 392 H 100 V 100 C 100,44.772 55.228,0 0,0" /></g><g
           transform="translate(170.1068,874.3911)"
           id="g4747"><path
             id="path4749"
             style="fill:#c8c8c8;fill-opacity:1;fill-rule:nonzero;stroke:none"
             d="m 0,0 c 0,-10.769 -8.73,-19.499 -19.499,-19.499 -10.769,0 -19.499,8.73 -19.499,19.499 0,10.769 8.73,19.499 19.499,19.499 C -8.73,19.499 0,10.769 0,0" /></g><g
           transform="translate(220.6068,874.3911)"
           id="g4751"><path
             id="path4753"
             style="fill:#c8c8c8;fill-opacity:1;fill-rule:nonzero;stroke:none"
             d="m 0,0 c 0,-10.769 -8.73,-19.499 -19.499,-19.499 -10.769,0 -19.499,8.73 -19.499,19.499 0,10.769 8.73,19.499 19.499,19.499 C -8.73,19.499 0,10.769 0,0" /></g><g
           transform="translate(271.1068,874.3911)"
           id="g4755"><path
             id="path4757"
             style="fill:#c8c8c8;fill-opacity:1;fill-rule:nonzero;stroke:none"
             d="m 0,0 c 0,-10.769 -8.73,-19.499 -19.499,-19.499 -10.769,0 -19.499,8.73 -19.499,19.499 0,10.769 8.73,19.499 19.499,19.499 C -8.73,19.499 0,10.769 0,0" /></g><g
           transform="translate(625.1068,874.3911)"
           id="g4759"><path
             id="path4761"
             style="fill:#c8c8c8;fill-opacity:1;fill-rule:nonzero;stroke:none"
             d="m 0,0 c 0,-10.769 -8.73,-19.499 -19.499,-19.499 -10.769,0 -19.499,8.73 -19.499,19.499 0,10.769 8.73,19.499 19.499,19.499 C -8.73,19.499 0,10.769 0,0" /></g><g
           transform="translate(675.6068,874.3911)"
           id="g4763"><path
             id="path4765"
             style="fill:#c8c8c8;fill-opacity:1;fill-rule:nonzero;stroke:none"
             d="m 0,0 c 0,-10.769 -8.73,-19.499 -19.499,-19.499 -10.769,0 -19.499,8.73 -19.499,19.499 0,10.769 8.73,19.499 19.499,19.499 C -8.73,19.499 0,10.769 0,0" /></g><g
           transform="translate(726.1068,874.3911)"
           id="g4767"><path
             id="path4769"
             style="fill:#c8c8c8;fill-opacity:1;fill-rule:nonzero;stroke:none"
             d="m 0,0 c 0,-10.769 -8.73,-19.499 -19.499,-19.499 -10.769,0 -19.499,8.73 -19.499,19.499 0,10.769 8.73,19.499 19.499,19.499 C -8.73,19.499 0,10.769 0,0" /></g><g
           transform="translate(175.1068,424.391)"
           id="g4771"><path
             id="path4773"
             style="fill:#c8c8c8;fill-opacity:1;fill-rule:nonzero;stroke:none"
             d="m 0,0 c 0,-10.769 -8.73,-19.499 -19.499,-19.499 -10.769,0 -19.499,8.73 -19.499,19.499 0,10.769 8.73,19.499 19.499,19.499 C -8.73,19.499 0,10.769 0,0" /></g><g
           transform="translate(225.6068,424.391)"
           id="g4775"><path
             id="path4777"
             style="fill:#c8c8c8;fill-opacity:1;fill-rule:nonzero;stroke:none"
             d="m 0,0 c 0,-10.769 -8.73,-19.499 -19.499,-19.499 -10.769,0 -19.499,8.73 -19.499,19.499 0,10.769 8.73,19.499 19.499,19.499 C -8.73,19.499 0,10.769 0,0" /></g><g
           transform="translate(276.1068,424.391)"
           id="g4779"><path
             id="path4781"
             style="fill:#c8c8c8;fill-opacity:1;fill-rule:nonzero;stroke:none"
             d="m 0,0 c 0,-10.769 -8.73,-19.499 -19.499,-19.499 -10.769,0 -19.499,8.73 -19.499,19.499 0,10.769 8.73,19.499 19.499,19.499 C -8.73,19.499 0,10.769 0,0" /></g><g
           transform="translate(625.1068,424.391)"
           id="g4783"><path
             id="path4785"
             style="fill:#c8c8c8;fill-opacity:1;fill-rule:nonzero;stroke:none"
             d="m 0,0 c 0,-10.769 -8.73,-19.499 -19.499,-19.499 -10.769,0 -19.499,8.73 -19.499,19.499 0,10.769 8.73,19.499 19.499,19.499 C -8.73,19.499 0,10.769 0,0" /></g><g
           transform="translate(675.6068,424.391)"
           id="g4787"><path
             id="path4789"
             style="fill:#c8c8c8;fill-opacity:1;fill-rule:nonzero;stroke:none"
             d="m 0,0 c 0,-10.769 -8.73,-19.499 -19.499,-19.499 -10.769,0 -19.499,8.73 -19.499,19.499 0,10.769 8.73,19.499 19.499,19.499 C -8.73,19.499 0,10.769 0,0" /></g><g
           transform="translate(726.1068,424.391)"
           id="g4791"><path
             id="path4793"
             style="fill:#c8c8c8;fill-opacity:1;fill-rule:nonzero;stroke:none"
             d="m 0,0 c 0,-10.769 -8.73,-19.499 -19.499,-19.499 -10.769,0 -19.499,8.73 -19.499,19.499 0,10.769 8.73,19.499 19.499,19.499 C -8.73,19.499 0,10.769 0,0" /></g></g></g></g></svg>