<?xml version="1.0" encoding="UTF-8" standalone="no"?>
<svg
   xmlns:dc="http://purl.org/dc/elements/1.1/"
   xmlns:cc="http://creativecommons.org/ns#"
   xmlns:rdf="http://www.w3.org/1999/02/22-rdf-syntax-ns#"
   xmlns:svg="http://www.w3.org/2000/svg"
   xmlns="http://www.w3.org/2000/svg"
   viewBox="0 0 1365.3333 1365.3333"
   height="1365.3333"
   width="1365.3333"
   xml:space="preserve"
   id="svg4821"
   version="1.1"><metadata
     id="metadata4827"><rdf:RDF><cc:Work
         rdf:about=""><dc:format>image/svg+xml</dc:format><dc:type
           rdf:resource="http://purl.org/dc/dcmitype/StillImage" /><dc:title></dc:title></cc:Work></rdf:RDF></metadata><defs
     id="defs4825"><clipPath
       id="clipPath4837"
       clipPathUnits="userSpaceOnUse"><path
         id="path4835"
         d="M 0,1024 H 1024 V 0 H 0 Z" /></clipPath></defs><g
     transform="matrix(1.3333333,0,0,-1.3333333,0,1365.3333)"
     id="g4829"><g
       id="g4831"><g
         clip-path="url(#clipPath4837)"
         id="g4833"><g
           transform="translate(934,190)"
           id="g4839"><path
             id="path4841"
             style="fill:#f4f060;fill-opacity:1;fill-rule:nonzero;stroke:none"
             d="m 0,0 c 0,-55.229 -44.771,-100 -100,-100 h -643 c -55.229,0 -100,44.771 -100,100 v 643 c 0,55.229 44.771,100 100,100 h 643 C -44.771,743 0,698.229 0,643 Z" /></g><g
           transform="translate(862,596)"
           id="g4843"><path
             id="path4845"
             style="fill:#69483d;fill-opacity:1;fill-rule:nonzero;stroke:none"
             d="m 0,0 c 0,-6.627 -5.373,-12 -12,-12 h -676 c -6.627,0 -12,5.373 -12,12 v 76 c 0,6.627 5.373,12 12,12 H -12 C -5.373,88 0,82.627 0,76 Z" /></g><g
           transform="translate(310.5,422.5)"
           id="g4847"><path
             id="path4849"
             style="fill:#8c7169;fill-opacity:1;fill-rule:nonzero;stroke:none"
             d="m 0,0 c 0,-6.627 -5.373,-12 -12,-12 h -26 c -6.627,0 -12,5.373 -12,12 v 176 c 0,6.627 5.373,12 12,12 h 26 c 6.627,0 12,-5.373 12,-12 z" /></g><g
           transform="translate(310.5,422.5)"
           id="g4851"><path
             id="path4853"
             style="fill:none;stroke:#f4f060;stroke-width:15;stroke-linecap:butt;stroke-linejoin:miter;stroke-miterlimit:10;stroke-dasharray:none;stroke-opacity:1"
             d="m 0,0 c 0,-6.627 -5.373,-12 -12,-12 h -26 c -6.627,0 -12,5.373 -12,12 v 176 c 0,6.627 5.373,12 12,12 h 26 c 6.627,0 12,-5.373 12,-12 z" /></g><g
           transform="translate(280.5,352.5)"
           id="g4855"><path
             id="path4857"
             style="fill:#69483d;fill-opacity:1;fill-rule:nonzero;stroke:none"
             d="m 0,0 c 0,-6.627 -5.373,-12 -12,-12 h -51 c -6.627,0 -12,5.373 -12,12 v 276 c 0,6.627 5.373,12 12,12 h 51 c 6.627,0 12,-5.373 12,-12 z" /></g><g
           transform="translate(280.5,352.5)"
           id="g4859"><path
             id="path4861"
             style="fill:none;stroke:#f4f060;stroke-width:15;stroke-linecap:butt;stroke-linejoin:miter;stroke-miterlimit:10;stroke-dasharray:none;stroke-opacity:1"
             d="m 0,0 c 0,-6.627 -5.373,-12 -12,-12 h -51 c -6.627,0 -12,5.373 -12,12 v 276 c 0,6.627 5.373,12 12,12 h 51 c 6.627,0 12,-5.373 12,-12 z" /></g><g
           transform="translate(763.5,422.5)"
           id="g4863"><path
             id="path4865"
             style="fill:#8c7169;fill-opacity:1;fill-rule:nonzero;stroke:none"
             d="m 0,0 c 0,-6.627 -5.373,-12 -12,-12 h -26 c -6.627,0 -12,5.373 -12,12 v 176 c 0,6.627 5.373,12 12,12 h 26 c 6.627,0 12,-5.373 12,-12 z" /></g><g
           transform="translate(763.5,422.5)"
           id="g4867"><path
             id="path4869"
             style="fill:none;stroke:#f4f060;stroke-width:15;stroke-linecap:butt;stroke-linejoin:miter;stroke-miterlimit:10;stroke-dasharray:none;stroke-opacity:1"
             d="m 0,0 c 0,-6.627 -5.373,-12 -12,-12 h -26 c -6.627,0 -12,5.373 -12,12 v 176 c 0,6.627 5.373,12 12,12 h 26 c 6.627,0 12,-5.373 12,-12 z" /></g><g
           transform="translate(818.5,352.5)"
           id="g4871"><path
             id="path4873"
             style="fill:#69483d;fill-opacity:1;fill-rule:nonzero;stroke:none"
             d="m 0,0 c 0,-6.627 -5.373,-12 -12,-12 h -51 c -6.627,0 -12,5.373 -12,12 v 276 c 0,6.627 5.373,12 12,12 h 51 c 6.627,0 12,-5.373 12,-12 z" /></g><g
           transform="translate(818.5,352.5)"
           id="g4875"><path
             id="path4877"
             style="fill:none;stroke:#f4f060;stroke-width:15;stroke-linecap:butt;stroke-linejoin:miter;stroke-miterlimit:10;stroke-dasharray:none;stroke-opacity:1"
             d="m 0,0 c 0,-6.627 -5.373,-12 -12,-12 h -51 c -6.627,0 -12,5.373 -12,12 v 276 c 0,6.627 5.373,12 12,12 h 51 c 6.627,0 12,-5.373 12,-12 z" /></g></g></g></g></svg>