<?xml version="1.0" encoding="UTF-8" standalone="no"?>
<svg
   xmlns:dc="http://purl.org/dc/elements/1.1/"
   xmlns:cc="http://creativecommons.org/ns#"
   xmlns:rdf="http://www.w3.org/1999/02/22-rdf-syntax-ns#"
   xmlns:svg="http://www.w3.org/2000/svg"
   xmlns="http://www.w3.org/2000/svg"
   viewBox="0 0 1365.3333 1365.3333"
   height="1365.3333"
   width="1365.3333"
   xml:space="preserve"
   id="svg2"
   version="1.1"><metadata
     id="metadata8"><rdf:RDF><cc:Work
         rdf:about=""><dc:format>image/svg+xml</dc:format><dc:type
           rdf:resource="http://purl.org/dc/dcmitype/StillImage" /><dc:title></dc:title></cc:Work></rdf:RDF></metadata><defs
     id="defs6"><clipPath
       id="clipPath18"
       clipPathUnits="userSpaceOnUse"><path
         id="path16"
         d="M 0,1024 H 1024 V 0 H 0 Z" /></clipPath></defs><g
     transform="matrix(1.3333333,0,0,-1.3333333,0,1365.3333)"
     id="g10"><g
       id="g12"><g
         clip-path="url(#clipPath18)"
         id="g14"><g
           transform="translate(933,190)"
           id="g20"><path
             id="path22"
             style="fill:#f78f26;fill-opacity:1;fill-rule:nonzero;stroke:none"
             d="m 0,0 c 0,-55.229 -44.771,-100 -100,-100 h -643 c -55.229,0 -100,44.771 -100,100 v 643 c 0,55.229 44.771,100 100,100 h 643 C -44.771,743 0,698.229 0,643 Z" /></g><g
           transform="translate(578.3789,384.0352)"
           id="g24"><path
             id="path26"
             style="fill:#ffffff;fill-opacity:1;fill-rule:nonzero;stroke:none"
             d="m 0,0 c -29.066,-7.129 -101.379,-6.587 -101.379,-6.587 v 116.81 c 0,0 105.686,9.876 136.944,-30.707 C 62.012,45.182 29.066,7.13 0,0 m -102.078,161.229 0.548,115.165 c 0,0 73.983,0.965 97.067,-7.409 55.938,-20.291 37.84,-80.334 7.131,-94.045 -30.71,-13.711 -104.746,-13.711 -104.746,-13.711 M 81.088,143.812 c 0,0 60.639,30.916 40.898,113.177 -19.743,82.26 -126.365,76.982 -126.365,76.982 v 86.994 h -55 v -87 h -42 v 87 h -55 v -87 h -114 v -57 h 37.233 c 0,0 35.767,-2.799 35.767,-49.213 V 25.906 c 0,0 -5.576,-31.394 -36.5,-31.943 -30.924,-0.55 -36.5,-0.961 -36.5,-0.961 v -68.037 h 114 v -90 h 55 v 90 h 42 v -90 h 55 v 90 H 16.71 c 0,0 133.469,1.59 133.477,120.049 0.005,92.673 -69.099,98.798 -69.099,98.798" /></g></g></g></g></svg>