<?xml version="1.0" encoding="UTF-8" standalone="no"?>
<svg
   xmlns:dc="http://purl.org/dc/elements/1.1/"
   xmlns:cc="http://creativecommons.org/ns#"
   xmlns:rdf="http://www.w3.org/1999/02/22-rdf-syntax-ns#"
   xmlns:svg="http://www.w3.org/2000/svg"
   xmlns="http://www.w3.org/2000/svg"
   viewBox="0 0 1365.3333 1365.3333"
   height="1365.3333"
   width="1365.3333"
   xml:space="preserve"
   id="svg4503"
   version="1.1"><metadata
     id="metadata4509"><rdf:RDF><cc:Work
         rdf:about=""><dc:format>image/svg+xml</dc:format><dc:type
           rdf:resource="http://purl.org/dc/dcmitype/StillImage" /><dc:title></dc:title></cc:Work></rdf:RDF></metadata><defs
     id="defs4507"><clipPath
       id="clipPath4519"
       clipPathUnits="userSpaceOnUse"><path
         id="path4517"
         d="M 0,1024 H 1024 V 0 H 0 Z" /></clipPath><clipPath
       id="clipPath4535"
       clipPathUnits="userSpaceOnUse"><path
         id="path4533"
         d="M 0,1024 H 1024 V 0 H 0 Z" /></clipPath></defs><g
     transform="matrix(1.3333333,0,0,-1.3333333,0,1365.3333)"
     id="g4511"><g
       id="g4513"><g
         clip-path="url(#clipPath4519)"
         id="g4515"><g
           transform="translate(933,190)"
           id="g4521"><path
             id="path4523"
             style="fill:#fff200;fill-opacity:1;fill-rule:nonzero;stroke:none"
             d="m 0,0 c 0,-55.229 -44.772,-100 -100,-100 h -643 c -55.229,0 -100,44.771 -100,100 v 643 c 0,55.229 44.771,100 100,100 h 643 C -44.772,743 0,698.229 0,643 Z" /></g><g
           transform="translate(805,288)"
           id="g4525"><path
             id="path4527"
             style="fill:#ed1c24;fill-opacity:1;fill-rule:nonzero;stroke:none"
             d="m 0,0 c 0,-38.66 -31.34,-70 -70,-70 h -447 c -38.66,0 -70,31.34 -70,70 v 447 c 0,38.66 31.34,70 70,70 h 447 c 38.66,0 70,-31.34 70,-70 z" /></g></g></g><g
       id="g4529"><g
         clip-path="url(#clipPath4535)"
         id="g4531"><g
           transform="translate(933,190)"
           id="g4537"><path
             id="path4539"
             style="fill:#ededed;fill-opacity:1;fill-rule:nonzero;stroke:none"
             d="m 0,0 c 0,-55.229 -44.772,-100 -100,-100 h -643 c -55.229,0 -100,44.771 -100,100 v 643 c 0,55.229 44.771,100 100,100 h 643 C -44.772,743 0,698.229 0,643 Z" /></g><g
           transform="translate(578.9369,665.7411)"
           id="g4541"><path
             id="path4543"
             style="fill:#e3a460;fill-opacity:1;fill-rule:nonzero;stroke:none"
             d="m 0,0 c 0,0 -46.338,37.861 -73.239,62.117 -32.79,29.566 9.156,74.092 47.747,41.655 38.301,-32.194 92.944,-68.837 197.28,-155.76 110.977,-92.456 89.908,-240.165 -7.911,-308.541 -84.575,-59.117 -213.605,-56.132 -289.327,7.912 -75.723,64.043 -66.681,152.574 -66.681,152.574 0,0 -86.13,-64.412 -134.115,-103.6 -45.208,-36.919 -89.662,22.604 -45.961,57.263 30.84,24.459 238.845,185.35 238.845,185.35 0,0 -70.071,-1.011 -129.971,-1.08 -44.077,-0.05 -41.817,61.733 -1.13,61.733 C -214.735,-0.377 0,0 0,0" /></g><g
           transform="translate(743.1902,480.7676)"
           id="g4545"><path
             id="path4547"
             style="fill:#ffffff;fill-opacity:1;fill-rule:nonzero;stroke:none"
             d="m 0,0 c 0,-66.58 -61.563,-123.943 -137.506,-123.943 -75.942,0 -137.505,57.363 -137.505,123.943 0,66.58 61.563,123.943 137.505,123.943 C -61.563,123.943 0,66.58 0,0" /></g><g
           transform="translate(695.876,484.0818)"
           id="g4549"><path
             id="path4551"
             style="fill:#507ba6;fill-opacity:1;fill-rule:nonzero;stroke:none"
             d="m 0,0 c 0,-42.539 -39.334,-79.189 -87.854,-79.189 -48.521,0 -87.855,36.65 -87.855,79.189 0,42.539 39.334,79.189 87.855,79.189 C -39.334,79.189 0,42.539 0,0" /></g></g></g></g></svg>