<?xml version="1.0" encoding="UTF-8" standalone="no"?>
<svg
   xmlns:dc="http://purl.org/dc/elements/1.1/"
   xmlns:cc="http://creativecommons.org/ns#"
   xmlns:rdf="http://www.w3.org/1999/02/22-rdf-syntax-ns#"
   xmlns:svg="http://www.w3.org/2000/svg"
   xmlns="http://www.w3.org/2000/svg"
   viewBox="0 0 1365.3333 1365.3333"
   height="1365.3333"
   width="1365.3333"
   xml:space="preserve"
   id="svg4553"
   version="1.1"><metadata
     id="metadata4559"><rdf:RDF><cc:Work
         rdf:about=""><dc:format>image/svg+xml</dc:format><dc:type
           rdf:resource="http://purl.org/dc/dcmitype/StillImage" /><dc:title></dc:title></cc:Work></rdf:RDF></metadata><defs
     id="defs4557"><clipPath
       id="clipPath4569"
       clipPathUnits="userSpaceOnUse"><path
         id="path4567"
         d="M 0,1024 H 1024 V 0 H 0 Z" /></clipPath><clipPath
       id="clipPath4585"
       clipPathUnits="userSpaceOnUse"><path
         id="path4583"
         d="M 0,1024 H 1024 V 0 H 0 Z" /></clipPath><clipPath
       id="clipPath4593"
       clipPathUnits="userSpaceOnUse"><path
         id="path4591"
         d="M 91,933 H 934 V 90 H 91 Z" /></clipPath><clipPath
       id="clipPath4609"
       clipPathUnits="userSpaceOnUse"><path
         id="path4607"
         d="M 0,1024 H 1024 V 0 H 0 Z" /></clipPath><clipPath
       id="clipPath4617"
       clipPathUnits="userSpaceOnUse"><path
         id="path4615"
         d="M 218.979,806.077 H 805.997 V 218.028 H 218.979 Z" /></clipPath></defs><g
     transform="matrix(1.3333333,0,0,-1.3333333,0,1365.3333)"
     id="g4561"><g
       id="g4563"><g
         clip-path="url(#clipPath4569)"
         id="g4565"><g
           transform="translate(834,933)"
           id="g4571"><path
             id="path4573"
             style="fill:#fff100;fill-opacity:1;fill-rule:nonzero;stroke:none"
             d="m 0,0 h -643 c -55.229,0 -100,-44.771 -100,-100 v -643 c 0,-55.229 44.771,-100 100,-100 H 0 c 55.229,0 100,44.771 100,100 v 643 C 100,-44.771 55.229,0 0,0" /></g><g
           transform="translate(736,805)"
           id="g4575"><path
             id="path4577"
             style="fill:#ec1c23;fill-opacity:1;fill-rule:nonzero;stroke:none"
             d="m 0,0 h -447 c -38.66,0 -70,-31.34 -70,-70 v -447 c 0,-38.66 31.34,-70 70,-70 H 0 c 38.66,0 70,31.34 70,70 V -70 C 70,-31.34 38.66,0 0,0" /></g></g></g><g
       id="g4579"><g
         clip-path="url(#clipPath4585)"
         id="g4581"><g
           id="g4587"><g
             id="g4589" /><g
             id="g4601"><g
               id="g4599"
               clip-path="url(#clipPath4593)"><g
                 id="g4597"
                 transform="translate(834,933)"><path
                   id="path4595"
                   style="fill:#bed6ff;fill-opacity:1;fill-rule:nonzero;stroke:none"
                   d="m 0,0 h -643 c -55.229,0 -100,-44.771 -100,-100 v -643 c 0,-55.229 44.771,-100 100,-100 H 0 c 55.229,0 100,44.771 100,100 v 643 C 100,-44.771 55.229,0 0,0" /></g></g></g></g></g></g><g
       id="g4603"><g
         clip-path="url(#clipPath4609)"
         id="g4605"><g
           id="g4611"><g
             id="g4613" /><g
             id="g4625"><g
               id="g4623"
               clip-path="url(#clipPath4617)"><g
                 id="g4621"
                 transform="translate(282.8301,348.8242)"><path
                   id="path4619"
                   style="fill:#7b73a0;fill-opacity:1;fill-rule:evenodd;stroke:none"
                   d="m 0,0 c -35.808,-0.391 -63.979,-29.414 -63.85,-65.784 0.128,-35.914 29.176,-65.04 64.837,-65.012 35.839,0.031 64.524,29.013 64.482,65.148 C 65.426,-29.109 36.005,0.393 0,0 m 22.631,150.396 c 10.59,5.404 21.085,1.307 30.967,-1.554 43.363,-12.552 77.336,-39.666 107.47,-71.923 25.089,-26.86 46.173,-56.483 55.117,-92.939 2.045,-8.339 1.923,-17.209 2.94,-27.214 C 156.98,-33.871 43.463,66.839 22.631,150.396 m 91.743,48.576 C 98.797,207.275 80.813,211.794 63.416,215.785 44.272,220.175 24.343,212.337 19.098,197.396 10.137,171.861 3.348,145.52 -3.253,119.242 -4.901,112.681 -3.772,104.573 -1.51,98.01 26.477,16.815 81.895,-37.899 162.187,-67.029 c 10.75,-3.903 24.585,-1.959 36.4,0.329 17.193,3.331 33.811,9.568 50.743,14.327 24.546,6.899 33.113,17.957 35.242,43.65 -4.551,15.176 -7.321,31.179 -13.951,45.382 -33.485,71.741 -86.74,125.262 -156.247,162.313 M 432.657,90.554 C 330.23,112.42 178.195,264.529 156.682,369.345 c 17.31,-2.781 33.569,-2.552 47.532,-8.092 107.229,-42.54 182.806,-117.3 224.278,-225.271 5.456,-14.206 8.942,-29.674 4.165,-45.428 m 71.864,118.283 C 459.11,300.986 390.047,371.241 302.46,423.843 c -27.634,16.596 -57.201,28.519 -89.611,32.688 -33.65,4.327 -57.762,-10.908 -66.567,-42.775 -5.321,-19.254 -9.603,-38.909 -16.514,-57.585 -12.424,-33.581 -7.33,-65.222 7.153,-96.45 22.442,-48.395 55.468,-88.837 94.592,-124.556 33.682,-30.754 70.411,-56.811 114.045,-71.953 21.8,-7.567 43.569,-9.202 65.952,-2.324 22.549,6.93 45.301,13.215 68.026,19.554 31.493,8.782 43.617,24.515 43.631,57.051 -0.019,25.389 -7.625,48.98 -18.646,71.344" /></g></g></g></g></g></g></g></svg>