<?xml version="1.0" encoding="UTF-8" standalone="no"?>
<svg
   xmlns:dc="http://purl.org/dc/elements/1.1/"
   xmlns:cc="http://creativecommons.org/ns#"
   xmlns:rdf="http://www.w3.org/1999/02/22-rdf-syntax-ns#"
   xmlns:svg="http://www.w3.org/2000/svg"
   xmlns="http://www.w3.org/2000/svg"
   viewBox="0 0 1365.3333 1365.3333"
   height="1365.3333"
   width="1365.3333"
   xml:space="preserve"
   id="svg4627"
   version="1.1"><metadata
     id="metadata4633"><rdf:RDF><cc:Work
         rdf:about=""><dc:format>image/svg+xml</dc:format><dc:type
           rdf:resource="http://purl.org/dc/dcmitype/StillImage" /><dc:title></dc:title></cc:Work></rdf:RDF></metadata><defs
     id="defs4631"><clipPath
       id="clipPath4643"
       clipPathUnits="userSpaceOnUse"><path
         id="path4641"
         d="M 0,1024 H 1024 V 0 H 0 Z" /></clipPath></defs><g
     transform="matrix(1.3333333,0,0,-1.3333333,0,1365.3333)"
     id="g4635"><g
       id="g4637"><g
         clip-path="url(#clipPath4643)"
         id="g4639"><g
           transform="translate(932.5,189.5)"
           id="g4645"><path
             id="path4647"
             style="fill:#00ace3;fill-opacity:1;fill-rule:nonzero;stroke:none"
             d="m 0,0 c 0,-55.229 -44.771,-100 -100,-100 h -643 c -55.229,0 -100,44.771 -100,100 v 643 c 0,55.229 44.771,100 100,100 h 643 C -44.771,743 0,698.229 0,643 Z" /></g><g
           transform="translate(932.5,189.5)"
           id="g4649"><path
             id="path4651"
             style="fill:none;stroke:#ffffff;stroke-width:1;stroke-linecap:butt;stroke-linejoin:miter;stroke-miterlimit:10;stroke-dasharray:none;stroke-opacity:1"
             d="m 0,0 c 0,-55.229 -44.771,-100 -100,-100 h -643 c -55.229,0 -100,44.771 -100,100 v 643 c 0,55.229 44.771,100 100,100 h 643 C -44.771,743 0,698.229 0,643 Z" /></g><g
           transform="translate(840,230)"
           id="g4653"><path
             id="path4655"
             style="fill:#ffffff;fill-opacity:1;fill-rule:nonzero;stroke:none"
             d="m 0,0 c 0,-27.614 -22.386,-50 -50,-50 h -560 c -27.614,0 -50,22.386 -50,50 v 560 c 0,27.614 22.386,50 50,50 h 560 c 27.614,0 50,-22.386 50,-50 z" /></g><g
           transform="translate(767.5,732.4175)"
           id="g4657"><path
             id="path4659"
             style="fill:#4d4d4d;fill-opacity:1;fill-rule:nonzero;stroke:none"
             d="m 0,0 h -226 v -100 h 125 V -329 H -226 V -432 H 0" /></g><g
           transform="translate(256.4995,732.4175)"
           id="g4661"><path
             id="path4663"
             style="fill:#4d4d4d;fill-opacity:1;fill-rule:nonzero;stroke:none"
             d="M 0,0 H 226 V -100 H 101 V -329 H 226 V -432 H 0" /></g></g></g></g></svg>