<?xml version="1.0" encoding="UTF-8"?>
<svg width="1024px" height="1024px" viewBox="0 0 1024 1024" version="1.1" xmlns="http://www.w3.org/2000/svg" xmlns:xlink="http://www.w3.org/1999/xlink">
    <!-- Generator: Sketch 49.3 (51167) - http://www.bohemiancoding.com/sketch -->
    <title>Brave</title>
    <desc>Created with Sketch.</desc>
    <defs>
        <rect id="path-1" x="0" y="0" width="840" height="840" rx="100"></rect>
        <path d="M497.389919,188.80956 L433.304116,433.749923 C427.246864,456.899176 413.267333,477.193627 393.799057,491.099539 C393.799057,491.099539 337.590544,530.968605 266.547696,577.537049 C261.001691,581.173036 255.177568,583.806979 248.940358,583.717 C242.694967,583.815159 236.883114,581.173036 231.32075,577.561589 C168.061122,536.49416 103.963049,491.283587 103.963049,491.283587 C84.4743231,477.402216 70.4702521,457.132304 64.3884607,433.991232 L0,189.194017 L17.9099962,140.339278 L4.84661919,111.198213 C3.55418741,108.318872 4.16359354,104.940553 6.38035945,102.695157 L41.0101693,67.6277202 C55.9835642,52.3516673 78.4497914,47.1246805 98.6297231,54.2248753 L107.881244,57.4804947 L159.815734,0.711655477 L248.57635,0 L249.148946,0 L337.336966,0.474436984 L389.340985,56.789289 L398.854265,53.49277 C418.850148,46.5602641 441.046437,51.7259012 455.925762,66.7770056 L489.950256,101.190047 C492.731438,104.008039 493.504443,108.237072 491.892994,111.852609 L479.385853,139.934371 L497.389919,188.80956 Z M263.222547,361.84409 C258.224599,359.774563 253.553848,358.081314 252.846283,358.081314 C252.134627,358.081314 250.727676,358.081314 249.717453,358.081314 C248.703139,358.085404 247.296188,358.085404 246.588623,358.085404 C245.881057,358.085404 241.210307,359.782743 236.212359,361.86045 L220.453689,368.408498 C215.455741,370.482115 207.439392,374.228531 202.641852,376.727506 L173.664386,391.82769 C168.862757,394.326664 168.551919,398.927884 172.973181,402.052625 L198.118341,419.819472 C202.535513,422.940122 209.504828,428.387967 213.598892,431.925795 L220.670457,438.032126 C224.764521,441.569953 231.431179,447.398166 235.488433,450.980984 L242.195991,456.911446 C246.249155,460.494263 252.899453,460.514713 256.973067,456.956436 L264.011912,450.809205 C268.089616,447.246837 274.760364,441.426804 278.838068,437.868527 L285.950533,431.655856 C290.028237,428.097579 296.964832,422.612924 301.365645,419.463644 L326.535345,401.459578 C330.940247,398.314388 330.592599,393.733617 325.766429,391.279633 L296.854403,376.596626 C292.028234,374.142642 283.991435,370.445305 278.993487,368.375779 L263.222547,361.84409 Z M441.594493,199.73797 C442.412488,197.120387 442.412488,197.120387 442.412488,197.120387 C442.490198,194.110166 442.187539,189.390336 441.745822,186.629604 C441.300015,183.868871 435.463622,173.533507 432.428861,169.054985 L416.167125,145.059108 C413.132364,140.576496 407.884927,133.455852 404.506609,129.226819 L382.580258,101.787183 C379.20194,97.5622399 376.269428,94.1348417 376.06084,94.1757414 C375.852251,94.2125512 375.655932,94.2125512 375.623213,94.1757414 C375.594583,94.1348417 371.222401,94.9405666 365.909524,95.96715 L332.392187,102.445669 C327.079311,103.472252 320.478093,104.740144 317.725541,105.263661 C314.972988,105.787178 308.506739,104.854664 303.357462,103.194134 L276.88306,94.6460884 C271.733783,92.981469 263.206187,90.625644 257.934211,89.4109217 C257.934211,89.4109217 255.615195,88.8751351 249.557944,88.9692045 C243.500692,88.8833151 241.185767,89.4191017 241.185767,89.4191017 C235.913791,90.6420039 227.390285,93.0100988 222.241007,94.6788082 L195.774786,103.259574 C190.629598,104.928283 184.163349,105.868977 181.410797,105.34955 C178.658244,104.826034 172.057026,103.566322 166.74006,102.547918 L133.218633,96.1143891 C127.905757,95.0918956 123.529485,94.2902607 123.500855,94.3311604 C123.468135,94.3679702 123.271816,94.3679702 123.063228,94.3311604 C122.854639,94.2902607 119.926218,97.7217489 116.551989,101.950782 L94.6624483,129.419047 C91.2882198,133.648081 86.0489631,140.780995 83.0182923,145.263607 L66.7892755,169.279934 C63.7586048,173.762546 60.2821268,179.553949 59.0551346,182.151082 C57.8322324,184.744126 56.7565693,194.347385 56.8383687,197.357606 C56.8383687,197.357606 56.8383687,197.357606 57.6604535,199.975189 C58.9774251,204.670479 59.1696539,204.911788 59.1696539,204.911788 C62.5561524,209.128551 68.3639155,215.803388 72.0735219,219.742033 L129.386328,280.604936 C133.095934,284.543581 134.408816,291.844185 132.302479,296.829863 L122.920079,319.034332 C120.813742,324.020011 120.617423,332.253128 122.482452,337.332876 L124.380199,342.498513 C127.45995,350.87478 132.736016,358.269453 139.656252,363.905437 L148.662375,371.23876 C152.858688,374.653889 160.286081,375.545503 165.1736,373.214218 L197.161287,357.966795 C202.044716,355.6396 209.32896,350.768441 213.345314,347.144724 L238.973091,324.020011 C243.271654,320.138625 243.508872,313.467878 239.492518,309.296104 L181.684825,270.339102 C177.198124,267.316611 175.607124,260.932162 178.146998,256.155072 L200.568235,214.00789 C203.112199,209.2308 203.602996,201.697068 201.660258,197.263536 C199.717521,192.830004 193.983377,187.639827 188.924079,185.72572 L118.654236,159.189968 C113.590848,157.27586 113.856696,155.296313 119.247282,154.785066 L160.50285,150.875051 C165.889346,150.363804 174.56009,151.132719 179.774807,152.58875 L215.709319,162.605096 C220.924036,164.057037 224.388244,169.603042 223.41483,174.924098 L209.30442,251.983298 C208.331006,257.308445 208.011988,263.161197 208.596854,264.993506 C209.18172,266.821724 213.99153,269.242989 219.283956,270.371822 L241.161227,275.038482 C246.453654,276.167315 255.099859,276.110055 260.375925,274.911693 L280.05688,270.445441 C285.332946,269.247079 290.130486,266.768554 290.711262,264.940336 C291.296129,263.108028 290.973021,257.259365 289.995517,251.934219 L275.803307,174.887288 C274.825803,169.566232 278.285921,164.016138 283.496548,162.556017 L319.4147,152.498771 C324.625327,151.03865 333.300162,150.257465 338.686657,150.764622 L379.946315,154.625557 C385.336901,155.132714 385.602749,157.112261 380.543451,159.030459 L310.310418,185.65619 C305.25112,187.574388 299.525156,192.772745 297.586509,197.210367 C295.651951,201.643898 296.146838,209.18172 298.694891,213.95472 L321.165209,256.085542 C323.713262,260.858542 322.126353,267.242991 317.643741,270.273662 L259.889218,309.283834 C255.876954,313.459698 256.118262,320.130445 260.425005,324.007741 L286.077322,347.099734 C290.101856,350.719361 297.39019,355.58234 302.277709,357.901355 L334.285845,373.111969 C339.173364,375.435074 346.600757,374.535279 350.79298,371.111971 L359.795013,363.762288 C366.707069,358.122214 371.970866,350.723451 375.038346,342.343094 L376.927914,337.177457 C378.788852,332.093619 378.580264,323.860502 376.469837,318.878913 L367.058807,296.682624 C364.94838,291.701036 366.253082,284.400432 369.958599,280.453607 L427.205965,219.521175 C430.911481,215.57844 436.711064,208.899512 440.093473,204.674569 C440.093473,204.674569 440.285702,204.433261 441.594493,199.73797 Z" id="path-3"></path>
    </defs>
    <g id="Brave" stroke="none" stroke-width="1" fill="none" fill-rule="evenodd">
        <g id="Path" transform="translate(92.000000, 92.000000)">
            <mask id="mask-2" fill="white">
                <use xlink:href="#path-1"></use>
            </mask>
            <use id="Mask" fill="#FFE3CD" fill-rule="nonzero" xlink:href="#path-1"></use>
            <polygon fill="#E0E8ED" mask="url(#mask-2)" points="404.753928 381.999923 393.979681 278.451618 287.172506 256.13874 1.66981874 -0.748804116 -36.1365328 87.7321553 -36.1365328 757.780243 1.66981874 852.534004 425.740742 852.534004 425.740742 381.999923"></polygon>
            <polygon id="Path-2" fill="#D7E3EA" mask="url(#mask-2)" points="420 391.401402 420 866.029021 869.762754 866.029021 862.242726 -31.8533863 562.340904 267.442965 447.754475 290.382082"></polygon>
            <polygon id="Path-3" fill="#D3DFE6" mask="url(#mask-2)" points="-92 -92 420 420 932 -92"></polygon>
        </g>
        <polygon id="Path-4" fill="#FFFFFF" points="438.400347 698.379589 300.183612 454.725497 306.600576 338.666957 423.003321 273.231134 644.148867 290.810173 726.155701 395.774249 673.572245 609.310407 513.169656 740.372595"></polygon>
        <g id="Path-5" transform="translate(263.000000, 220.000000)">
            <mask id="mask-4" fill="white">
                <use xlink:href="#path-3"></use>
            </mask>
            <use id="Mask" fill="#F3551B" xlink:href="#path-3"></use>
            <path d="M21.5284903,64.6870258 L98.6239067,150.634725 L150.122257,118.019247 L332.072835,124.996349 L375.738823,94.3117089 C382.756978,89.1561829 397.701035,84.4112437 420.570995,80.0768911 C443.440954,75.7425385 458.339503,74.2451704 465.266641,75.5847867 L498.058065,27.0730114 L420.570995,-75.2251594 L13.8042821,-31.544666 L21.5284903,64.6870258 Z" id="Path-6" fill="#F8653A" mask="url(#mask-4)"></path>
            <path d="M32.6180091,74.9482497 C50.3135583,66.3385409 63.5957061,62.0336865 72.4644526,62.0336865 C81.333199,62.0336865 98.4934322,74.9873221 123.945152,100.894593 L231.94069,158.485148 L249,258.631417 L249,603.863021 L1.57429599,484.256982 L-77.4412855,198.007534 L-39.550677,74.9482497 L32.6180091,74.9482497 Z" fill="#FF6721" mask="url(#mask-4)"></path>
        </g>
    </g>
</svg>