<?xml version="1.0" encoding="UTF-8" standalone="no"?>
<svg
   xmlns:dc="http://purl.org/dc/elements/1.1/"
   xmlns:cc="http://creativecommons.org/ns#"
   xmlns:rdf="http://www.w3.org/1999/02/22-rdf-syntax-ns#"
   xmlns:svg="http://www.w3.org/2000/svg"
   xmlns="http://www.w3.org/2000/svg"
   viewBox="0 0 1365.3333 1365.3333"
   height="1365.3333"
   width="1365.3333"
   xml:space="preserve"
   id="svg4665"
   version="1.1"><metadata
     id="metadata4671"><rdf:RDF><cc:Work
         rdf:about=""><dc:format>image/svg+xml</dc:format><dc:type
           rdf:resource="http://purl.org/dc/dcmitype/StillImage" /><dc:title></dc:title></cc:Work></rdf:RDF></metadata><defs
     id="defs4669"><clipPath
       id="clipPath4681"
       clipPathUnits="userSpaceOnUse"><path
         id="path4679"
         d="M 0,1024 H 1024 V 0 H 0 Z" /></clipPath></defs><g
     transform="matrix(1.3333333,0,0,-1.3333333,0,1365.3333)"
     id="g4673"><g
       id="g4675"><g
         clip-path="url(#clipPath4681)"
         id="g4677"><g
           transform="translate(90,190)"
           id="g4683"><path
             id="path4685"
             style="fill:#ffffff;fill-opacity:1;fill-rule:nonzero;stroke:none"
             d="m 0,0 c 0,-55.229 44.771,-100 100,-100 h 643 c 55.228,0 100,44.771 100,100 V 488 H 0 Z" /></g><g
           transform="translate(833,933)"
           id="g4687"><path
             id="path4689"
             style="fill:#207caf;fill-opacity:1;fill-rule:nonzero;stroke:none"
             d="m 0,0 h -643 c -55.229,0 -100,-44.771 -100,-100 v -155 h 843 v 155 C 100,-44.771 55.228,0 0,0" /></g></g></g><text
       id="text4693"
       style="font-variant:normal;font-weight:normal;font-stretch:normal;font-size:200px;font-family:HelveticaNeue;-inkscape-font-specification:HelveticaNeue;writing-mode:lr-tb;fill:#ffffff;fill-opacity:1;fill-rule:nonzero;stroke:none"
       transform="matrix(1,0,0,-1,274.3516,728.2021)"><tspan
         id="tspan4691"
         y="0"
         x="0 103.8 248.2 337.20001">JULY</tspan></text>
<text
       id="text4697"
       style="font-variant:normal;font-weight:bold;font-stretch:normal;font-size:450px;font-family:'Helvetica 55 Roman';-inkscape-font-specification:HelveticaNeue-Bold;writing-mode:lr-tb;fill:#000000;fill-opacity:1;fill-rule:nonzero;stroke:none"
       transform="matrix(1,0,0,-1,261.8003,233.6953)"><tspan
         id="tspan4695"
         y="0"
         x="0 250.2">17</tspan></text>
</g></svg>