<?xml version="1.0" encoding="UTF-8" standalone="no"?>
<svg
   xmlns:dc="http://purl.org/dc/elements/1.1/"
   xmlns:cc="http://creativecommons.org/ns#"
   xmlns:rdf="http://www.w3.org/1999/02/22-rdf-syntax-ns#"
   xmlns:svg="http://www.w3.org/2000/svg"
   xmlns="http://www.w3.org/2000/svg"
   viewBox="0 0 1365.3333 1365.3333"
   height="1365.3333"
   width="1365.3333"
   xml:space="preserve"
   id="svg4699"
   version="1.1"><metadata
     id="metadata4705"><rdf:RDF><cc:Work
         rdf:about=""><dc:format>image/svg+xml</dc:format><dc:type
           rdf:resource="http://purl.org/dc/dcmitype/StillImage" /><dc:title></dc:title></cc:Work></rdf:RDF></metadata><defs
     id="defs4703"><clipPath
       id="clipPath4715"
       clipPathUnits="userSpaceOnUse"><path
         id="path4713"
         d="M 0,1024 H 1024 V 0 H 0 Z" /></clipPath><clipPath
       id="clipPath4729"
       clipPathUnits="userSpaceOnUse"><path
         id="path4727"
         d="M 191,934 C 135.771,934 91,889.229 91,834 v 0 -643 C 91,135.771 135.771,91 191,91 v 0 h 643 c 55.229,0 100,44.771 100,100 v 0 643 c 0,55.229 -44.771,100 -100,100 v 0 z" /></clipPath><clipPath
       id="clipPath4745"
       clipPathUnits="userSpaceOnUse"><path
         id="path4743"
         d="M 0,1024 H 1024 V 0 H 0 Z" /></clipPath></defs><g
     transform="matrix(1.3333333,0,0,-1.3333333,0,1365.3333)"
     id="g4707"><g
       id="g4709"><g
         clip-path="url(#clipPath4715)"
         id="g4711"><g
           transform="translate(90,190)"
           id="g4717"><path
             id="path4719"
             style="fill:#ffffff;fill-opacity:1;fill-rule:nonzero;stroke:none"
             d="m 0,0 c 0,-55.229 44.771,-100 100,-100 h 643 c 55.228,0 100,44.771 100,100 V 488 H 0 Z" /></g><path
           id="path4721"
           style="fill:#ffffff;fill-opacity:1;fill-rule:nonzero;stroke:none"
           d="M 934,782 H 90 V 678 h 844 z" /></g></g><g
       id="g4723"><g
         clip-path="url(#clipPath4729)"
         id="g4725"><g
           transform="translate(1069.5547,764.3716)"
           id="g4731"><path
             id="path4733"
             style="fill:#207caf;fill-opacity:1;fill-rule:nonzero;stroke:none"
             d="m 0,0 -1012.372,-178.508 -71.726,406.776 1012.372,178.508 z" /></g></g></g><text
       id="text4737"
       style="font-variant:normal;font-weight:normal;font-stretch:normal;font-size:50.00012589px;font-family:HelveticaNeue;-inkscape-font-specification:HelveticaNeue;writing-mode:lr-tb;fill:#ffffff;fill-opacity:1;fill-rule:nonzero;stroke:none"
       transform="matrix(0.98480751,0.17364956,0.17364956,-0.98480751,113.8359,609.9105)"><tspan
         id="tspan4735"
         y="0"
         x="0 25.950066 62.050156">JUL</tspan></text>
<g
       id="g4739"><g
         clip-path="url(#clipPath4745)"
         id="g4741"><text
           id="text4749"
           style="font-variant:normal;font-weight:bold;font-stretch:normal;font-size:450.00112915px;font-family:'Helvetica 55 Roman';-inkscape-font-specification:HelveticaNeue-Bold;writing-mode:lr-tb;fill:#000000;fill-opacity:1;fill-rule:nonzero;stroke:none"
           transform="matrix(0.98480751,0.17364956,0.17364956,-0.98480751,294.5863,234.6699)"><tspan
             id="tspan4747"
             y="0"
             x="0 250.20064">17</tspan></text>
</g></g></g></svg>