<?xml version="1.0" encoding="UTF-8" standalone="no"?>
<svg
   xmlns:dc="http://purl.org/dc/elements/1.1/"
   xmlns:cc="http://creativecommons.org/ns#"
   xmlns:rdf="http://www.w3.org/1999/02/22-rdf-syntax-ns#"
   xmlns:svg="http://www.w3.org/2000/svg"
   xmlns="http://www.w3.org/2000/svg"
   xmlns:sodipodi="http://sodipodi.sourceforge.net/DTD/sodipodi-0.dtd"
   xmlns:inkscape="http://www.inkscape.org/namespaces/inkscape"
   viewBox="0 0 1365.3333 1365.3333"
   height="1365.3333"
   width="1365.3333"
   xml:space="preserve"
   id="svg4699"
   version="1.1"
   inkscape:version="0.91 r13725"
   sodipodi:docname="busycal2.svg"><sodipodi:namedview
     pagecolor="#ffffff"
     bordercolor="#666666"
     borderopacity="1"
     objecttolerance="10"
     gridtolerance="10"
     guidetolerance="10"
     inkscape:pageopacity="0"
     inkscape:pageshadow="2"
     inkscape:window-width="718"
     inkscape:window-height="480"
     id="namedview27"
     showgrid="false"
     inkscape:zoom="0.17285157"
     inkscape:cx="682.66663"
     inkscape:cy="682.66663"
     inkscape:window-x="0"
     inkscape:window-y="0"
     inkscape:window-maximized="0"
     inkscape:current-layer="svg4699" /><metadata
     id="metadata4705"><rdf:RDF><cc:Work
         rdf:about=""><dc:format>image/svg+xml</dc:format><dc:type
           rdf:resource="http://purl.org/dc/dcmitype/StillImage" /><dc:title /></cc:Work></rdf:RDF></metadata><defs
     id="defs4703"><clipPath
       id="clipPath4715"
       clipPathUnits="userSpaceOnUse"><path
         id="path4713"
         d="M 0,1024 H 1024 V 0 H 0 Z" /></clipPath><clipPath
       id="clipPath4729"
       clipPathUnits="userSpaceOnUse"><path
         id="path4727"
         d="M 191,934 C 135.771,934 91,889.229 91,834 v 0 -643 C 91,135.771 135.771,91 191,91 v 0 h 643 c 55.229,0 100,44.771 100,100 v 0 643 c 0,55.229 -44.771,100 -100,100 v 0 z" /></clipPath><clipPath
       id="clipPath4745"
       clipPathUnits="userSpaceOnUse"><path
         id="path4743"
         d="M 0,1024 H 1024 V 0 H 0 Z" /></clipPath></defs><g
     transform="matrix(1.3333333,0,0,-1.3333333,0,1365.3333)"
     id="g4707"><g
       id="g4709"><g
         clip-path="url(#clipPath4715)"
         id="g4711"><g
           transform="translate(90,190)"
           id="g4717"><path
             id="path4719"
             style="fill:#ffffff;fill-opacity:1;fill-rule:nonzero;stroke:none"
             d="m 0,0 c 0,-55.229 44.771,-100 100,-100 h 643 c 55.228,0 100,44.771 100,100 V 488 H 0 Z" /></g><path
           id="path4721"
           style="fill:#ffffff;fill-opacity:1;fill-rule:nonzero;stroke:none"
           d="M 934,782 H 90 V 678 h 844 z" /></g></g><g
       id="g4723"><g
         clip-path="url(#clipPath4729)"
         id="g4725"><g
           transform="translate(1069.5547,764.3716)"
           id="g4731"><path
             id="path4733"
             style="fill:#207caf;fill-opacity:1;fill-rule:nonzero;stroke:none"
             d="m 0,0 -1012.372,-178.508 -71.726,406.776 1012.372,178.508 z" /></g></g></g><g
       transform="matrix(0.98480751,0.17364956,0.17364956,-0.98480751,113.8359,609.9105)"
       style="font-variant:normal;font-weight:normal;font-stretch:normal;font-size:50.00012589px;font-family:HelveticaNeue;-inkscape-font-specification:HelveticaNeue;writing-mode:lr-tb;fill:#ffffff;fill-opacity:1;fill-rule:nonzero;stroke:none"
       id="text4737"><path
         d="m 22.050056,-8.9000224 0,-26.8000676 -4.750012,0 0,26.1000658 q 0,2.9500075 -1.250004,4.7000119 -1.200003,1.7500044 -4.450011,1.7500044 -1.7500042,0 -2.9000071,-0.5000013 Q 7.6000191,-4.2000106 6.9500175,-5.150013 6.350016,-6.1000154 6.1000154,-7.4000186 5.8500147,-8.7000219 5.8500147,-10.250026 l 0,-1.500004 -4.7500119,0 0,2.200006 q 0,5.1000128 2.7000068,7.7500195 2.7000068,2.60000651 7.7000194,2.60000651 3.000008,0 5.000013,-0.80000201 2.050005,-0.85000214 3.250008,-2.2000055 1.250003,-1.4000036 1.750004,-3.150008 0.550002,-1.7500044 0.550002,-3.5500089 z"
         style=""
         id="path3356" /><path
         d="m 58.350147,-12.900032 0,-22.800058 -4.750012,0 0,22.800058 q 0,4.8000116 -2.400006,7.3000179 -2.350006,2.4500062 -6.900017,2.4500062 -4.800012,0 -7.350019,-2.4500062 -2.550006,-2.5000063 -2.550006,-7.3000179 l 0,-22.800058 -4.750012,0 0,22.800058 q 0,7.1500175 3.85001,10.4500258 3.900009,3.25000821 10.800027,3.25000821 6.750017,0 10.400026,-3.40000851 3.650009,-3.4500087 3.650009,-10.3000255 z"
         style=""
         id="path3358" /><path
         d="m 65.950165,-35.70009 0,35.70009 23.65006,0 0,-4.0000101 -18.900048,0 0,-31.7000799 -4.750012,0 z"
         style=""
         id="path3360" /></g><g
       id="g4739"><g
         clip-path="url(#clipPath4745)"
         id="g4741"><g
           transform="matrix(0.98480751,0.17364956,0.17364956,-0.98480751,294.5863,234.6699)"
           style="font-variant:normal;font-weight:bold;font-stretch:normal;font-size:450.00112915px;font-family:'Helvetica 55 Roman';-inkscape-font-specification:HelveticaNeue-Bold;writing-mode:lr-tb;fill:#000000;fill-opacity:1;fill-rule:nonzero;stroke:none"
           id="text4749"><path
             d="m 52.734507,-58.447412 74.707223,0 0,-212.036668 -76.684767,15.82036 0,-57.56851 76.245307,-15.82035 80.42013,0 0,269.605168 74.70721,0 0,58.447412 -229.395103,0 0,-58.447412 z"
             style=""
             id="path3363" /><path
             d="m 280.30325,-328.05258 247.19301,0 0,47.68078 L 399.61508,0 l -82.39767,0 121.06964,-265.86981 -157.9838,0 0,-62.18277 z"
             style=""
             id="path3365" /></g></g></g></g></svg>