<?xml version="1.0" encoding="UTF-8" standalone="no"?>
<svg
   xmlns:dc="http://purl.org/dc/elements/1.1/"
   xmlns:cc="http://creativecommons.org/ns#"
   xmlns:rdf="http://www.w3.org/1999/02/22-rdf-syntax-ns#"
   xmlns:svg="http://www.w3.org/2000/svg"
   xmlns="http://www.w3.org/2000/svg"
   xmlns:sodipodi="http://sodipodi.sourceforge.net/DTD/sodipodi-0.dtd"
   xmlns:inkscape="http://www.inkscape.org/namespaces/inkscape"
   viewBox="0 0 1365.3333 1365.3333"
   height="1365.3333"
   width="1365.3333"
   xml:space="preserve"
   id="svg4665"
   version="1.1"
   inkscape:version="0.91 r13725"
   sodipodi:docname="Busycal.svg"><sodipodi:namedview
     pagecolor="#ffffff"
     bordercolor="#666666"
     borderopacity="1"
     objecttolerance="10"
     gridtolerance="10"
     guidetolerance="10"
     inkscape:pageopacity="0"
     inkscape:pageshadow="2"
     inkscape:window-width="718"
     inkscape:window-height="480"
     id="namedview18"
     showgrid="false"
     inkscape:zoom="0.17285157"
     inkscape:cx="682.66663"
     inkscape:cy="682.66663"
     inkscape:window-x="0"
     inkscape:window-y="0"
     inkscape:window-maximized="0"
     inkscape:current-layer="svg4665" /><metadata
     id="metadata4671"><rdf:RDF><cc:Work
         rdf:about=""><dc:format>image/svg+xml</dc:format><dc:type
           rdf:resource="http://purl.org/dc/dcmitype/StillImage" /><dc:title /></cc:Work></rdf:RDF></metadata><defs
     id="defs4669"><clipPath
       id="clipPath4681"
       clipPathUnits="userSpaceOnUse"><path
         id="path4679"
         d="M 0,1024 H 1024 V 0 H 0 Z" /></clipPath></defs><g
     transform="matrix(1.3333333,0,0,-1.3333333,0,1365.3333)"
     id="g4673"><g
       id="g4675"><g
         clip-path="url(#clipPath4681)"
         id="g4677"><g
           transform="translate(90,190)"
           id="g4683"><path
             id="path4685"
             style="fill:#ffffff;fill-opacity:1;fill-rule:nonzero;stroke:none"
             d="m 0,0 c 0,-55.229 44.771,-100 100,-100 h 643 c 55.228,0 100,44.771 100,100 V 488 H 0 Z" /></g><g
           transform="translate(833,933)"
           id="g4687"><path
             id="path4689"
             style="fill:#207caf;fill-opacity:1;fill-rule:nonzero;stroke:none"
             d="m 0,0 h -643 c -55.229,0 -100,-44.771 -100,-100 v -155 h 843 v 155 C 100,-44.771 55.228,0 0,0" /></g></g></g><g
       transform="matrix(1,0,0,-1,274.3516,728.2021)"
       style="font-variant:normal;font-weight:normal;font-stretch:normal;font-size:200px;font-family:HelveticaNeue;-inkscape-font-specification:HelveticaNeue;writing-mode:lr-tb;fill:#ffffff;fill-opacity:1;fill-rule:nonzero;stroke:none"
       id="text4693"><path
         d="m 88.2,-35.6 0,-107.2 -19,0 0,104.4 q 0,11.8 -5,18.8 -4.8,7 -17.8,7 -7,0 -11.6,-2 -4.4,-2.2 -7,-6 -2.4,-3.8 -3.4,-9 -1,-5.2 -1,-11.4 l 0,-6 -19,0 0,8.8 q 0,20.4 10.8,31 Q 26,3.2 46,3.2 58,3.2 66,0 q 8.2,-3.4 13,-8.8 5,-5.6 7,-12.6 2.2,-7 2.2,-14.2 z"
         style=""
         id="path3347" /><path
         d="m 233.4,-51.6 0,-91.2 -19,0 0,91.2 q 0,19.2 -9.6,29.2 -9.4,9.8 -27.6,9.8 -19.2,0 -29.4,-9.8 -10.2,-10 -10.2,-29.2 l 0,-91.2 -19,0 0,91.2 q 0,28.6 15.4,41.8 15.6,13 43.2,13 27,0 41.6,-13.6 14.6,-13.8 14.6,-41.2 z"
         style=""
         id="path3349" /><path
         d="m 263.8,-142.8 0,142.8 94.6,0 0,-16 -75.6,0 0,-126.8 -19,0 z"
         style=""
         id="path3351" /><path
         d="m 411.80001,-58.4 54.6,-84.4 -21.6,0 -41.8,68 -42.8,-68 -22.6,0 55.2,84.4 0,58.4 19,0 0,-58.4 z"
         style=""
         id="path3353" /></g><g
       transform="matrix(1,0,0,-1,261.8003,233.6953)"
       style="font-variant:normal;font-weight:bold;font-stretch:normal;font-size:450px;font-family:'Helvetica 55 Roman';-inkscape-font-specification:HelveticaNeue-Bold;writing-mode:lr-tb;fill:#000000;fill-opacity:1;fill-rule:nonzero;stroke:none"
       id="text4697"><path
         d="m 52.734375,-58.447266 74.707035,0 0,-212.036134 -76.684574,15.82031 0,-57.56836 76.245114,-15.82031 80.41992,0 0,269.604494 74.70704,0 0,58.447266 -229.394535,0 0,-58.447266 z"
         style=""
         id="path3356" /><path
         d="m 280.30254,-328.05176 247.19238,0 0,47.68067 L 399.61406,0 317.2166,0 l 121.06933,-265.86914 -157.98339,0 0,-62.18262 z"
         style=""
         id="path3358" /></g></g></svg>