<?xml version="1.0" encoding="UTF-8" standalone="no"?>
<svg
   xmlns:dc="http://purl.org/dc/elements/1.1/"
   xmlns:cc="http://creativecommons.org/ns#"
   xmlns:rdf="http://www.w3.org/1999/02/22-rdf-syntax-ns#"
   xmlns:svg="http://www.w3.org/2000/svg"
   xmlns="http://www.w3.org/2000/svg"
   viewBox="0 0 1365.3333 1365.3333"
   height="1365.3333"
   width="1365.3333"
   xml:space="preserve"
   id="svg4751"
   version="1.1"><metadata
     id="metadata4757"><rdf:RDF><cc:Work
         rdf:about=""><dc:format>image/svg+xml</dc:format><dc:type
           rdf:resource="http://purl.org/dc/dcmitype/StillImage" /><dc:title></dc:title></cc:Work></rdf:RDF></metadata><defs
     id="defs4755"><clipPath
       id="clipPath4767"
       clipPathUnits="userSpaceOnUse"><path
         id="path4765"
         d="M 0,1024 H 1024 V 0 H 0 Z" /></clipPath><clipPath
       id="clipPath4779"
       clipPathUnits="userSpaceOnUse"><path
         id="path4777"
         d="M 191,934 C 135.771,934 91,889.229 91,834 v 0 -643 C 91,135.771 135.771,91 191,91 v 0 h 643 c 55.229,0 100,44.771 100,100 v 0 643 c 0,55.229 -44.771,100 -100,100 v 0 z" /></clipPath></defs><g
     transform="matrix(1.3333333,0,0,-1.3333333,0,1365.3333)"
     id="g4759"><g
       id="g4761"><g
         clip-path="url(#clipPath4767)"
         id="g4763"><g
           transform="translate(90,201.0371)"
           id="g4769"><path
             id="path4771"
             style="fill:#ffffff;fill-opacity:1;fill-rule:nonzero;stroke:none"
             d="m 0,0 c 0,-61.324 44.771,-111.037 100,-111.037 h 643 c 55.228,0 100,49.713 100,111.037 V 541.963 H 0 Z" /></g></g></g><g
       id="g4773"><g
         clip-path="url(#clipPath4779)"
         id="g4775"><g
           transform="translate(1069.5547,764.3716)"
           id="g4781"><path
             id="path4783"
             style="fill:#207caf;fill-opacity:1;fill-rule:nonzero;stroke:none"
             d="m 0,0 -1012.372,-178.508 -71.726,406.776 1012.372,178.508 z" /></g></g></g></g></svg>