<?xml version="1.0" encoding="UTF-8"?>
<svg width="1024px" height="1024px" viewBox="0 0 1024 1024" version="1.1" xmlns="http://www.w3.org/2000/svg" xmlns:xlink="http://www.w3.org/1999/xlink">
    <!-- Generator: Sketch 46.2 (44496) - http://www.bohemiancoding.com/sketch -->
    <title>Calculator</title>
    <desc>Created with Sketch.</desc>
    <defs></defs>
    <g id="Page-1" stroke="none" stroke-width="1" fill="none" fill-rule="evenodd">
        <g id="Calculator">
            <g id="Group" transform="translate(92.000000, 92.000000)">
                <path d="M100,0 L420,0 L420,420 L0,420 L0,100 C1.42108547e-14,44.771525 44.771525,2.84217094e-14 100,0 Z" id="Combined-Shape" fill="#AAAAAA"></path>
                <path d="M100,840 L420,840 L420,420 L0,420 L1.42108547e-14,740 C1.42108547e-14,795.228475 44.771525,840 100,840 Z" id="Combined-Shape" fill="#9E9E9E"></path>
                <path d="M840,740 L840,420 L420,420 L420,840 L740,840 C795.228475,840 840,795.228475 840,740 Z" id="Combined-Shape" fill="#F59B1D"></path>
                <path d="M740,0 L420,0 L420,420 L840,420 L840,100 C840,44.771525 795.228475,0 740,0 Z" id="Combined-Shape" fill="#BCBCBC"></path>
            </g>
            <polygon id="+" fill="#FFFFFF" points="223 321.291016 223 283.058594 283.058594 283.058594 283.058594 223 321.583984 223 321.583984 283.058594 381.642578 283.058594 381.642578 321.291016 321.583984 321.291016 321.583984 381.642578 283.058594 381.642578 283.058594 321.291016"></polygon>
            <polygon id="+" fill="#FFFFFF" transform="translate(302.321289, 722.321289) rotate(-45.000000) translate(-302.321289, -722.321289) " points="223 741.291016 223 703.058594 283.058594 703.058594 283.058594 643 321.583984 643 321.583984 703.058594 381.642578 703.058594 381.642578 741.291016 321.583984 741.291016 321.583984 801.642578 283.058594 801.642578 283.058594 741.291016"></polygon>
            <path d="M699.982422,381.642578 L699.982422,337.990234 L744.806641,337.990234 L744.806641,381.642578 L699.982422,381.642578 Z M801.642578,283.058594 L801.642578,321.291016 L643,321.291016 L643,283.058594 L801.642578,283.058594 Z M744.806641,223 L744.806641,266.505859 L699.982422,266.505859 L699.982422,223 L744.806641,223 Z" id="รท" fill="#FFFFFF"></path>
            <path d="M801.642578,669 L801.642578,707.525391 L643,707.525391 L643,669 L801.642578,669 Z M801.642578,737.408203 L801.642578,775.933594 L643,775.933594 L643,737.408203 L801.642578,737.408203 Z" id="=" fill="#FFFFFF"></path>
        </g>
    </g>
</svg>