<?xml version="1.0" encoding="UTF-8" standalone="no"?>
<svg
   xmlns:dc="http://purl.org/dc/elements/1.1/"
   xmlns:cc="http://creativecommons.org/ns#"
   xmlns:rdf="http://www.w3.org/1999/02/22-rdf-syntax-ns#"
   xmlns:svg="http://www.w3.org/2000/svg"
   xmlns="http://www.w3.org/2000/svg"
   viewBox="0 0 1365.3333 1365.3333"
   height="1365.3333"
   width="1365.3333"
   xml:space="preserve"
   id="svg4863"
   version="1.1"><metadata
     id="metadata4869"><rdf:RDF><cc:Work
         rdf:about=""><dc:format>image/svg+xml</dc:format><dc:type
           rdf:resource="http://purl.org/dc/dcmitype/StillImage" /><dc:title></dc:title></cc:Work></rdf:RDF></metadata><defs
     id="defs4867"><clipPath
       id="clipPath4879"
       clipPathUnits="userSpaceOnUse"><path
         id="path4877"
         d="M 0,1024 H 1024 V 0 H 0 Z" /></clipPath><clipPath
       id="clipPath4893"
       clipPathUnits="userSpaceOnUse"><path
         id="path4891"
         d="M 191,934 C 135.771,934 91,889.229 91,834 v 0 -643 C 91,135.771 135.771,91 191,91 v 0 h 643 c 55.229,0 100,44.771 100,100 v 0 643 c 0,55.229 -44.771,100 -100,100 v 0 z" /></clipPath></defs><g
     transform="matrix(1.3333333,0,0,-1.3333333,0,1365.3333)"
     id="g4871"><g
       id="g4873"><g
         clip-path="url(#clipPath4879)"
         id="g4875"><g
           transform="translate(90,190)"
           id="g4881"><path
             id="path4883"
             style="fill:#ffffff;fill-opacity:1;fill-rule:nonzero;stroke:none"
             d="m 0,0 c 0,-55.229 44.771,-100 100,-100 h 643 c 55.229,0 100,44.771 100,100 V 488 H 0 Z" /></g><path
           id="path4885"
           style="fill:#ffffff;fill-opacity:1;fill-rule:nonzero;stroke:none"
           d="M 934,782 H 90 V 678 h 844 z" /></g></g><g
       id="g4887"><g
         clip-path="url(#clipPath4893)"
         id="g4889"><g
           transform="translate(1069.5547,764.3716)"
           id="g4895"><path
             id="path4897"
             style="fill:#bf5452;fill-opacity:1;fill-rule:nonzero;stroke:none"
             d="m 0,0 -1012.372,-178.508 -71.726,406.776 1012.372,178.508 z" /></g></g></g><text
       id="text4901"
       style="font-variant:normal;font-weight:normal;font-stretch:normal;font-size:50.00001144px;font-family:'Helvetica Neue';-inkscape-font-specification:HelveticaNeue;writing-mode:lr-tb;fill:#ffffff;fill-opacity:1;fill-rule:nonzero;stroke:none"
       transform="matrix(0.98480779,0.17364796,0.17364796,-0.98480779,113.8024,609.916)"><tspan
         id="tspan4899"
         y="0"
         x="0 25.950005 62.050014">JUL</tspan></text>
<text
       id="text4905"
       style="font-variant:normal;font-weight:bold;font-stretch:normal;font-size:450px;font-family:'Helvetica 55 Roman';-inkscape-font-specification:HelveticaNeue-Bold;writing-mode:lr-tb;fill:#000000;fill-opacity:1;fill-rule:nonzero;stroke:none"
       transform="matrix(0.98480775,0.17364822,0.17364822,-0.98480775,294.5524,234.6756)"><tspan
         id="tspan4903"
         y="0"
         x="0 250.20001">17</tspan></text>
</g></svg>