<?xml version="1.0" encoding="UTF-8" standalone="no"?>
<svg
   xmlns:dc="http://purl.org/dc/elements/1.1/"
   xmlns:cc="http://creativecommons.org/ns#"
   xmlns:rdf="http://www.w3.org/1999/02/22-rdf-syntax-ns#"
   xmlns:svg="http://www.w3.org/2000/svg"
   xmlns="http://www.w3.org/2000/svg"
   xmlns:sodipodi="http://sodipodi.sourceforge.net/DTD/sodipodi-0.dtd"
   xmlns:inkscape="http://www.inkscape.org/namespaces/inkscape"
   viewBox="0 0 1365.3333 1365.3333"
   height="1365.3333"
   width="1365.3333"
   xml:space="preserve"
   id="svg4863"
   version="1.1"
   inkscape:version="0.91 r13725"
   sodipodi:docname="Calendar2.svg"><sodipodi:namedview
     pagecolor="#ffffff"
     bordercolor="#666666"
     borderopacity="1"
     objecttolerance="10"
     gridtolerance="10"
     guidetolerance="10"
     inkscape:pageopacity="0"
     inkscape:pageshadow="2"
     inkscape:window-width="718"
     inkscape:window-height="480"
     id="namedview23"
     showgrid="false"
     inkscape:zoom="0.17285157"
     inkscape:cx="682.66663"
     inkscape:cy="682.66663"
     inkscape:window-x="0"
     inkscape:window-y="0"
     inkscape:window-maximized="0"
     inkscape:current-layer="svg4863" /><metadata
     id="metadata4869"><rdf:RDF><cc:Work
         rdf:about=""><dc:format>image/svg+xml</dc:format><dc:type
           rdf:resource="http://purl.org/dc/dcmitype/StillImage" /><dc:title /></cc:Work></rdf:RDF></metadata><defs
     id="defs4867"><clipPath
       id="clipPath4879"
       clipPathUnits="userSpaceOnUse"><path
         id="path4877"
         d="M 0,1024 H 1024 V 0 H 0 Z" /></clipPath><clipPath
       id="clipPath4893"
       clipPathUnits="userSpaceOnUse"><path
         id="path4891"
         d="M 191,934 C 135.771,934 91,889.229 91,834 v 0 -643 C 91,135.771 135.771,91 191,91 v 0 h 643 c 55.229,0 100,44.771 100,100 v 0 643 c 0,55.229 -44.771,100 -100,100 v 0 z" /></clipPath></defs><g
     transform="matrix(1.3333333,0,0,-1.3333333,0,1365.3333)"
     id="g4871"><g
       id="g4873"><g
         clip-path="url(#clipPath4879)"
         id="g4875"><g
           transform="translate(90,190)"
           id="g4881"><path
             id="path4883"
             style="fill:#ffffff;fill-opacity:1;fill-rule:nonzero;stroke:none"
             d="m 0,0 c 0,-55.229 44.771,-100 100,-100 h 643 c 55.229,0 100,44.771 100,100 V 488 H 0 Z" /></g><path
           id="path4885"
           style="fill:#ffffff;fill-opacity:1;fill-rule:nonzero;stroke:none"
           d="M 934,782 H 90 V 678 h 844 z" /></g></g><g
       id="g4887"><g
         clip-path="url(#clipPath4893)"
         id="g4889"><g
           transform="translate(1069.5547,764.3716)"
           id="g4895"><path
             id="path4897"
             style="fill:#bf5452;fill-opacity:1;fill-rule:nonzero;stroke:none"
             d="m 0,0 -1012.372,-178.508 -71.726,406.776 1012.372,178.508 z" /></g></g></g><g
       transform="matrix(0.98480779,0.17364796,0.17364796,-0.98480779,113.8024,609.916)"
       style="font-variant:normal;font-weight:normal;font-stretch:normal;font-size:50.00001144px;font-family:'Helvetica Neue';-inkscape-font-specification:HelveticaNeue;writing-mode:lr-tb;fill:#ffffff;fill-opacity:1;fill-rule:nonzero;stroke:none"
       id="text4901"><path
         d="m 22.050005,-8.900002 0,-26.800006 -4.750001,0 0,26.1000058 q 0,2.9500007 -1.25,4.7000011 -1.200001,1.7500004 -4.450001,1.7500004 -1.7500007,0 -2.900001,-0.5000001 Q 7.6000017,-4.200001 6.9500016,-5.1500012 6.3500015,-6.1000014 6.1000014,-7.4000017 5.8500013,-8.700002 5.8500013,-10.250002 l 0,-1.500001 -4.750001,0 0,2.2000008 q 0,5.1000012 2.7000006,7.7500018 2.7000006,2.60000058 7.7000021,2.60000058 3,0 5.000001,-0.80000018 2.05,-0.85000019 3.250001,-2.2000005 1.25,-1.4000003 1.75,-3.1500007 0.55,-1.7500004 0.55,-3.5500008 z"
         style=""
         id="path3352" /><path
         d="m 58.350012,-12.900003 0,-22.800005 -4.750001,0 0,22.800005 q 0,4.8000011 -2.400001,7.3000017 -2.35,2.4500006 -6.900001,2.4500006 -4.800001,0 -7.350002,-2.4500006 -2.55,-2.5000006 -2.55,-7.3000017 l 0,-22.800005 -4.750002,0 0,22.800005 q 0,7.1500017 3.850001,10.4500024 3.900001,3.25000078 10.800003,3.25000078 6.750001,0 10.400002,-3.40000078 3.650001,-3.4500008 3.650001,-10.3000024 z"
         style=""
         id="path3354" /><path
         d="m 65.950015,-35.700008 0,35.700008 23.650006,0 0,-4.0000009 -18.900005,0 0,-31.7000071 -4.750001,0 z"
         style=""
         id="path3356" /></g><g
       transform="matrix(0.98480775,0.17364822,0.17364822,-0.98480775,294.5524,234.6756)"
       style="font-variant:normal;font-weight:bold;font-stretch:normal;font-size:450px;font-family:'Helvetica 55 Roman';-inkscape-font-specification:HelveticaNeue-Bold;writing-mode:lr-tb;fill:#000000;fill-opacity:1;fill-rule:nonzero;stroke:none"
       id="text4905"><path
         d="m 52.734375,-58.447266 74.707035,0 0,-212.036134 -76.684574,15.82031 0,-57.56836 76.245114,-15.82031 80.41992,0 0,269.604494 74.70704,0 0,58.447266 -229.394535,0 0,-58.447266 z"
         style=""
         id="path3359" /><path
         d="m 280.30255,-328.05176 247.19238,0 0,47.68067 L 399.61407,0 l -82.39746,0 121.06934,-265.86914 -157.9834,0 0,-62.18262 z"
         style=""
         id="path3361" /></g></g></svg>