<?xml version="1.0" encoding="UTF-8" standalone="no"?>
<svg
   xmlns:dc="http://purl.org/dc/elements/1.1/"
   xmlns:cc="http://creativecommons.org/ns#"
   xmlns:rdf="http://www.w3.org/1999/02/22-rdf-syntax-ns#"
   xmlns:svg="http://www.w3.org/2000/svg"
   xmlns="http://www.w3.org/2000/svg"
   viewBox="0 0 1365.3333 1365.3333"
   height="1365.3333"
   width="1365.3333"
   xml:space="preserve"
   id="svg4907"
   version="1.1"><metadata
     id="metadata4913"><rdf:RDF><cc:Work
         rdf:about=""><dc:format>image/svg+xml</dc:format><dc:type
           rdf:resource="http://purl.org/dc/dcmitype/StillImage" /><dc:title></dc:title></cc:Work></rdf:RDF></metadata><defs
     id="defs4911"><clipPath
       id="clipPath4923"
       clipPathUnits="userSpaceOnUse"><path
         id="path4921"
         d="M 0,1024 H 1024 V 0 H 0 Z" /></clipPath></defs><g
     transform="matrix(1.3333333,0,0,-1.3333333,0,1365.3333)"
     id="g4915"><g
       id="g4917"><g
         clip-path="url(#clipPath4923)"
         id="g4919"><g
           transform="translate(511,90)"
           id="g4925"><path
             id="path4927"
             style="fill:#b2b2b2;fill-opacity:1;fill-rule:nonzero;stroke:none"
             d="m 0,0 h 322 c 55.229,0 100,44.771 100,100 V 421 H 0 Z" /></g><g
           transform="translate(833,933)"
           id="g4929"><path
             id="path4931"
             style="fill:#f1f1f1;fill-opacity:1;fill-rule:nonzero;stroke:none"
             d="m 0,0 h -322 v -422 h 422 v 322 C 100,-44.771 55.229,0 0,0" /></g><g
           transform="translate(90,190)"
           id="g4933"><path
             id="path4935"
             style="fill:#f1f1f1;fill-opacity:1;fill-rule:nonzero;stroke:none"
             d="M 0,0 C 0,-55.229 44.771,-100 100,-100 H 421 V 321 H 0 Z" /></g><g
           transform="translate(190,933)"
           id="g4937"><path
             id="path4939"
             style="fill:#b2b2b2;fill-opacity:1;fill-rule:nonzero;stroke:none"
             d="M 0,0 C -55.229,0 -100,-44.771 -100,-100 V -422 H 321 V 0 Z" /></g><g
           transform="translate(507.6592,789.7158)"
           id="g4941"><path
             id="path4943"
             style="fill:#5c452b;fill-opacity:1;fill-rule:nonzero;stroke:none"
             d="m 0,0 c 0,0 97.112,0.388 128.686,-81.926 19.732,-51.305 5.708,-143.291 -3.313,-182.756 -0.657,-3.194 -2.125,-8.971 -2.313,-13.011 -0.189,-4.04 -1.515,-31.595 -2.642,-39.206 0,0 11.923,-9.888 11.923,-25.674 v -54.688 c 0,0 48.983,-21.988 48.702,-67.373 -0.282,-32.137 0.249,-41.157 0.249,-41.157 0,0 0.688,-5.638 -1.849,-12.686 -2.537,-7.046 -24.555,-77.24 -153.101,-77.24 -128.545,0 -161.047,61.643 -167.061,71.04 -1.552,2.818 -3.94,8.455 -3.94,17.617 v 41.016 3.383 c 0,0 1.855,17.76 7.916,27.485 6.061,9.725 24.819,30.445 41.873,37.774 l -0.102,53.186 c 0,0 -1.287,16.674 12.432,29.078 0,0 2.182,29.321 19.095,62.396 4.886,9.96 32.711,57.32 34.778,73.481 0.75,3.196 0.943,10.337 -7.326,6.39 -8.269,-3.946 -28.94,-5.449 -39.088,5.075 -3.007,3.194 -11.463,10.525 -22.739,3.383 -1.879,-1.691 -14.847,-8.457 -34.391,-8.833 -2.819,0 -7.893,-0.376 -9.585,-4.51 -1.691,-4.134 -15.222,-22.928 -29.88,-23.116 -14.659,-0.187 -20.109,1.881 -20.485,13.344 0,0 11.088,4.698 13.531,11.088 l -24.995,0.564 c 0,0 -7.519,1.878 -11.652,5.637 -1.692,1.692 -2.068,3.759 -2.068,6.202 0,2.443 -0.752,4.886 -1.879,5.638 -1.128,0.752 -1.503,2.818 -2.819,6.39 -1.316,3.571 -6.014,15.974 6.014,25.559 12.027,9.584 52.248,44.728 75.551,57.884 23.303,13.154 28.566,19.734 41.345,30.07 12.779,10.336 27.064,24.618 43.602,29.692 1.127,0 0.939,2.067 -0.376,2.819 -1.316,0.753 -9.96,8.833 -13.156,14.095 -0.939,1.879 -3.945,8.269 4.323,8.457 8.269,0.188 19.169,-2.443 22.927,-3.571 0,0 -8.832,11.087 -14.846,17.289 -2.255,2.444 -5.637,10.525 5.826,10.337 11.464,-0.188 15.223,-4.51 31.009,-18.605 C -15.125,16.943 -3.667,8.804 0,0" /></g></g></g></g></svg>