<?xml version="1.0" encoding="UTF-8" standalone="no"?>
<svg
   xmlns:dc="http://purl.org/dc/elements/1.1/"
   xmlns:cc="http://creativecommons.org/ns#"
   xmlns:rdf="http://www.w3.org/1999/02/22-rdf-syntax-ns#"
   xmlns:svg="http://www.w3.org/2000/svg"
   xmlns="http://www.w3.org/2000/svg"
   viewBox="0 0 1365.3333 1365.3333"
   height="1365.3333"
   width="1365.3333"
   xml:space="preserve"
   id="svg4945"
   version="1.1"><metadata
     id="metadata4951"><rdf:RDF><cc:Work
         rdf:about=""><dc:format>image/svg+xml</dc:format><dc:type
           rdf:resource="http://purl.org/dc/dcmitype/StillImage" /><dc:title></dc:title></cc:Work></rdf:RDF></metadata><defs
     id="defs4949"><clipPath
       id="clipPath4961"
       clipPathUnits="userSpaceOnUse"><path
         id="path4959"
         d="M 0,1024 H 1024 V 0 H 0 Z" /></clipPath></defs><g
     transform="matrix(1.3333333,0,0,-1.3333333,0,1365.3333)"
     id="g4953"><g
       id="g4955"><g
         clip-path="url(#clipPath4961)"
         id="g4957"><g
           transform="translate(933,190)"
           id="g4963"><path
             id="path4965"
             style="fill:#5d6060;fill-opacity:1;fill-rule:nonzero;stroke:none"
             d="m 0,0 c 0,-55.229 -44.772,-100 -100,-100 h -643 c -55.229,0 -100,44.771 -100,100 v 643 c 0,55.229 44.771,100 100,100 h 643 C -44.772,743 0,698.229 0,643 Z" /></g><g
           transform="translate(779.2621,547.381)"
           id="g4967"><path
             id="path4969"
             style="fill:#207caf;fill-opacity:1;fill-rule:nonzero;stroke:none"
             d="m 0,0 c 0,-124.569 -100.983,-225.552 -225.552,-225.552 -124.569,0 -225.552,100.983 -225.552,225.552 0,124.569 100.983,225.552 225.552,225.552 C -100.983,225.552 0,124.569 0,0" /></g><g
           transform="translate(779.2621,547.381)"
           id="g4971"><path
             id="path4973"
             style="fill:none;stroke:#5d6060;stroke-width:15;stroke-linecap:butt;stroke-linejoin:miter;stroke-miterlimit:10;stroke-dasharray:none;stroke-opacity:1"
             d="m 0,0 c 0,-124.569 -100.983,-225.552 -225.552,-225.552 -124.569,0 -225.552,100.983 -225.552,225.552 0,124.569 100.983,225.552 225.552,225.552 C -100.983,225.552 0,124.569 0,0 Z" /></g><g
           transform="translate(741.9615,318.4863)"
           id="g4975"><path
             id="path4977"
             style="fill:#ffffff;fill-opacity:1;fill-rule:nonzero;stroke:none"
             d="m 0,0 c -64.879,-66.064 -135.376,-96.48 -230.462,-100.486 -162.095,0 -293.5,131.404 -293.5,293.5 0,96.5 29.277,160.224 95.5,226.448 126.834,114.385 286.863,96.701 286.863,26.827 0,-69.875 -322.994,-28.705 -297.863,-369.606 -1.235,44.137 6.962,83.701 28.422,116.831 14.98,-86.999 73.034,-144.639 161.175,-181.652 C -272.263,-1.883 -305.696,-8.314 -344.779,-11 -3.878,-36.131 -39.959,286.863 24.827,286.863 89.613,286.863 104.068,115.594 0,0" /></g><g
           transform="translate(741.9615,318.4863)"
           id="g4979"><path
             id="path4981"
             style="fill:none;stroke:#5d6060;stroke-width:15;stroke-linecap:round;stroke-linejoin:round;stroke-miterlimit:10;stroke-dasharray:none;stroke-opacity:1"
             d="m 0,0 c -64.879,-66.064 -135.376,-96.48 -230.462,-100.486 -162.095,0 -293.5,131.404 -293.5,293.5 0,96.5 29.277,160.224 95.5,226.448 126.834,114.385 286.863,96.701 286.863,26.827 0,-69.875 -322.994,-28.705 -297.863,-369.606 -1.235,44.137 6.962,83.701 28.422,116.831 14.98,-86.999 73.034,-144.639 161.175,-181.652 C -272.263,-1.883 -305.696,-8.314 -344.779,-11 -3.878,-36.131 -39.959,286.863 24.827,286.863 89.613,286.863 104.068,115.594 0,0 Z" /></g></g></g></g></svg>