<?xml version="1.0" encoding="UTF-8" standalone="no"?>
<svg
   xmlns:dc="http://purl.org/dc/elements/1.1/"
   xmlns:cc="http://creativecommons.org/ns#"
   xmlns:rdf="http://www.w3.org/1999/02/22-rdf-syntax-ns#"
   xmlns:svg="http://www.w3.org/2000/svg"
   xmlns="http://www.w3.org/2000/svg"
   viewBox="0 0 1365.3333 1365.3333"
   height="1365.3333"
   width="1365.3333"
   xml:space="preserve"
   id="svg4983"
   version="1.1"><metadata
     id="metadata4989"><rdf:RDF><cc:Work
         rdf:about=""><dc:format>image/svg+xml</dc:format><dc:type
           rdf:resource="http://purl.org/dc/dcmitype/StillImage" /><dc:title></dc:title></cc:Work></rdf:RDF></metadata><defs
     id="defs4987"><clipPath
       id="clipPath4999"
       clipPathUnits="userSpaceOnUse"><path
         id="path4997"
         d="M 0,1024 H 1024 V 0 H 0 Z" /></clipPath><clipPath
       id="clipPath5015"
       clipPathUnits="userSpaceOnUse"><path
         id="path5013"
         d="M 0,1024 H 1024 V 0 H 0 Z" /></clipPath><clipPath
       id="clipPath5023"
       clipPathUnits="userSpaceOnUse"><path
         id="path5021"
         d="M 91,933 H 934 V 90 H 91 Z" /></clipPath><clipPath
       id="clipPath5039"
       clipPathUnits="userSpaceOnUse"><path
         id="path5037"
         d="M 0,1024 H 1024 V 0 H 0 Z" /></clipPath><clipPath
       id="clipPath5047"
       clipPathUnits="userSpaceOnUse"><path
         id="path5045"
         d="M 240.037,804.98 H 785.986 V 217.986 H 240.037 Z" /></clipPath></defs><g
     transform="matrix(1.3333333,0,0,-1.3333333,0,1365.3333)"
     id="g4991"><g
       id="g4993"><g
         clip-path="url(#clipPath4999)"
         id="g4995"><g
           transform="translate(834,933)"
           id="g5001"><path
             id="path5003"
             style="fill:#fff100;fill-opacity:1;fill-rule:nonzero;stroke:none"
             d="m 0,0 h -643 c -55.229,0 -100,-44.771 -100,-100 v -643 c 0,-55.229 44.771,-100 100,-100 H 0 c 55.229,0 100,44.771 100,100 v 643 C 100,-44.771 55.229,0 0,0" /></g><g
           transform="translate(736,805)"
           id="g5005"><path
             id="path5007"
             style="fill:#ec1c23;fill-opacity:1;fill-rule:nonzero;stroke:none"
             d="m 0,0 h -447 c -38.66,0 -70,-31.34 -70,-70 v -447 c 0,-38.66 31.34,-70 70,-70 H 0 c 38.66,0 70,31.34 70,70 V -70 C 70,-31.34 38.66,0 0,0" /></g></g></g><g
       id="g5009"><g
         clip-path="url(#clipPath5015)"
         id="g5011"><g
           id="g5017"><g
             id="g5019" /><g
             id="g5031"><g
               id="g5029"
               clip-path="url(#clipPath5023)"><g
                 id="g5027"
                 transform="translate(834,933)"><path
                   id="path5025"
                   style="fill:#45b3eb;fill-opacity:1;fill-rule:nonzero;stroke:none"
                   d="m 0,0 h -643 c -55.229,0 -100,-44.771 -100,-100 v -643 c 0,-55.229 44.771,-100 100,-100 H 0 c 55.229,0 100,44.771 100,100 v 643 C 100,-44.771 55.229,0 0,0" /></g></g></g></g></g></g><g
       id="g5033"><g
         clip-path="url(#clipPath5039)"
         id="g5035"><g
           id="g5041"><g
             id="g5043" /><g
             id="g5055"><g
               id="g5053"
               clip-path="url(#clipPath5047)"><g
                 id="g5051"
                 transform="translate(483.4248,453.7744)"><path
                   id="path5049"
                   style="fill:#ffffff;fill-opacity:1;fill-rule:evenodd;stroke:none"
                   d="m 0,0 c 12.537,2.911 25.059,5.839 37.177,10.314 18.614,6.875 35.742,16.405 51.695,28.124 1.452,1.066 2.676,2.147 2.441,4.208 -0.563,4.932 -0.749,9.926 -1.624,14.797 -6.669,37.137 -24.586,68.497 -50.308,95.562 -17.554,18.47 -38.214,32.776 -61.905,42.403 -33.195,13.488 -67.533,18.939 -103.239,13.785 -18.091,-2.61 -34.929,-8.841 -50.61,-18.378 0.474,0.186 0.966,0.335 1.418,0.562 17.317,8.68 35.724,12.925 55.038,13.197 16.867,0.238 32.856,-3.805 47.927,-11.142 25.533,-12.43 43.583,-32.271 55.56,-57.724 C -3.672,108.596 1.95,79.795 2.907,50.009 3.418,34.121 0.509,18.609 -2.934,3.188 -3.734,-0.397 -3.424,-0.794 0,0 m -193.888,208.51 c 3.903,1.344 7.574,3.213 11.075,5.373 11.132,6.869 21.664,14.675 33.075,21.12 14.112,7.972 29.141,13.746 44.581,18.464 32.498,9.93 65.715,14.06 99.647,11.358 22.433,-1.786 44.26,-6.545 65.409,-14.311 23.167,-8.507 44.925,-19.698 65.262,-33.686 18.457,-12.696 35.143,-27.312 49.372,-44.655 0.465,-0.569 0.893,-1.406 1.767,-1.167 0.925,0.252 0.757,1.209 0.809,1.93 0.423,5.811 1.076,11.619 1.185,17.436 0.457,24.539 -6.328,47.598 -16.682,69.353 -15.983,33.586 -42.948,56.138 -76.703,70.808 -24.874,10.811 -51.122,15.046 -78.145,14.93 -6.059,0.006 -12.101,-0.317 -18.151,-0.577 -14.3,-0.615 -28.443,-2.348 -42.429,-5.282 -21.655,-4.542 -42.1,-12.28 -61.301,-23.325 -22.259,-12.803 -41.951,-28.58 -57.714,-48.989 -12.352,-15.99 -21.693,-33.542 -27.376,-52.973 -0.548,-1.874 -1.191,-3.921 0.488,-5.493 1.745,-1.634 3.874,-0.988 5.831,-0.314 M 301.911,100.867 c -1.45,22.147 -5.885,43.687 -13.033,64.615 -14.995,43.901 -39.974,81.27 -75.029,111.742 -25.502,22.169 -54.076,39.553 -85.232,52.585 -26.419,11.049 -53.938,17.81 -82.532,20.318 -17.846,1.565 -35.629,1.407 -53.415,-0.349 -3.555,-0.35 -7.203,-0.434 -10.634,-1.926 3.948,0.237 7.877,0.078 11.806,0.157 28.04,0.572 55.77,-1.474 82.762,-9.773 23.957,-7.365 45.354,-18.999 63.23,-36.869 14.638,-14.634 25.022,-31.849 32.81,-50.854 10.939,-26.701 15.314,-54.173 10.128,-82.795 -3.547,-19.598 -11.385,-37.604 -21.32,-54.703 C 145.568,85.671 125.418,61.806 101.35,41.294 84.686,27.095 66.241,15.771 45.837,7.642 27.548,0.354 8.396,-3.768 -10.721,-7.957 c -16.729,-3.667 -33.701,-5.677 -50.878,-5.126 -11.471,0.369 -22.852,1.72 -34.133,3.836 -26.087,4.895 -51.539,11.647 -74.088,26.38 -19.114,12.485 -35.727,27.317 -44.75,49.039 -11.131,26.797 -13.839,53.832 -2.371,81.266 1.197,2.867 2.195,5.891 4.524,8.153 -0.208,-0.613 -0.362,-1.249 -0.629,-1.834 -7.568,-16.55 -10.331,-33.783 -7.286,-51.804 3.211,-19.002 9.269,-36.856 21.66,-52.049 4.29,-5.258 4.355,-5.207 7.715,0.521 0.109,0.186 0.223,0.37 0.335,0.554 14.116,23.258 34.915,37.966 60.345,46.472 21.12,7.065 42.902,9.006 65.011,6.749 21.102,-2.155 41.383,-6.963 58.97,-19.718 0.725,-0.525 1.58,-1.59 2.534,-0.796 0.831,0.692 0.237,1.833 0.049,2.76 -3.938,19.509 -10.22,38.182 -20.244,55.457 -13.206,22.762 -31.609,39.851 -56.039,50.043 -17.037,7.109 -34.801,9.861 -53.29,8.367 -14.291,-1.155 -27.919,-4.614 -40.983,-10.354 -4.04,-1.774 -7.842,-4.092 -11.751,-6.159 0.243,0.458 0.487,0.918 0.754,1.421 -0.338,0.05 -0.581,0.168 -0.715,0.092 -0.66,-0.369 -1.31,-0.761 -1.928,-1.195 -10.275,-7.195 -19.148,-15.954 -26.699,-25.844 -11.768,-15.415 -19.086,-33.058 -23.914,-51.749 -6.773,-26.218 -5.458,-52.747 -2.176,-79.19 3.018,-24.331 10.728,-47.3 22.2,-69.055 15.493,-29.378 36.895,-53.691 62.84,-74.149 19.637,-15.488 41.148,-27.889 64.194,-37.615 2.102,-0.887 2.658,-1.529 0.975,-3.576 -13.597,-16.52 -27.152,-33.069 -42.157,-48.372 -7.5,-7.649 -15.425,-14.823 -23.578,-21.767 -1.743,-1.486 -4.146,-3.111 -3.298,-5.817 0.98,-3.131 3.929,-2.792 6.567,-2.732 9.966,0.22 19.865,1.289 29.672,2.906 45.426,7.492 87.347,23.718 124.665,50.946 4.18,3.051 8.175,3.659 12.934,3.214 16.84,-1.571 33.705,-1.474 50.513,0.299 27.075,2.855 53.143,9.628 78.15,20.503 32.157,13.984 60.426,33.593 84.968,58.509 14.766,14.991 27.493,31.614 38.299,49.716 14.879,24.926 25.317,51.563 31.231,79.94 4.854,23.295 5.988,46.84 4.434,70.582" /></g></g></g></g></g></g></g></svg>