<?xml version="1.0" encoding="UTF-8" standalone="no"?>
<svg
   xmlns:dc="http://purl.org/dc/elements/1.1/"
   xmlns:cc="http://creativecommons.org/ns#"
   xmlns:rdf="http://www.w3.org/1999/02/22-rdf-syntax-ns#"
   xmlns:svg="http://www.w3.org/2000/svg"
   xmlns="http://www.w3.org/2000/svg"
   viewBox="0 0 1365.3333 1365.3333"
   height="1365.3333"
   width="1365.3333"
   xml:space="preserve"
   id="svg5057"
   version="1.1"><metadata
     id="metadata5063"><rdf:RDF><cc:Work
         rdf:about=""><dc:format>image/svg+xml</dc:format><dc:type
           rdf:resource="http://purl.org/dc/dcmitype/StillImage" /><dc:title></dc:title></cc:Work></rdf:RDF></metadata><defs
     id="defs5061"><clipPath
       id="clipPath5073"
       clipPathUnits="userSpaceOnUse"><path
         id="path5071"
         d="M 190,933 C 134.771,933 90,888.229 90,833 v 0 -643 C 90,134.771 134.771,90 190,90 v 0 h 643 c 55.228,0 100,44.771 100,100 v 0 643 c 0,55.229 -44.772,100 -100,100 v 0 z" /></clipPath><clipPath
       id="clipPath5101"
       clipPathUnits="userSpaceOnUse"><path
         id="path5099"
         d="M 425.279,222.2 425,90 h 408 c 42.035,0 78.011,25.933 92.802,62.674 v 0 L 800,708 Z" /></clipPath><clipPath
       id="clipPath5129"
       clipPathUnits="userSpaceOnUse"><path
         id="path5127"
         d="m 309,90 h 117 l 0.36,132.2 -207.521,260.818 z" /></clipPath></defs><g
     transform="matrix(1.3333333,0,0,-1.3333333,0,1365.3333)"
     id="g5065"><g
       id="g5067"><g
         clip-path="url(#clipPath5073)"
         id="g5069"><g
           transform="translate(1206.1915,934.9294)"
           id="g5075"><path
             id="path5077"
             style="fill:#e10a02;fill-opacity:1;fill-rule:nonzero;stroke:none"
             d="m 0,0 -1367.43,0.223 -0.027,-169.084 1367.43,-0.222 z" /></g><g
           transform="translate(1206.1641,765.8459)"
           id="g5079"><path
             id="path5081"
             style="fill:#e73701;fill-opacity:1;fill-rule:nonzero;stroke:none"
             d="m 0,0 -1367.43,0.223 -0.027,-169.084 1367.429,-0.222 z" /></g><g
           transform="translate(1206.1365,596.7624)"
           id="g5083"><path
             id="path5085"
             style="fill:#ed6000;fill-opacity:1;fill-rule:nonzero;stroke:none"
             d="m 0,0 -1367.43,0.223 -0.027,-169.084 1367.429,-0.222 z" /></g><g
           transform="translate(1206.1089,427.6789)"
           id="g5087"><path
             id="path5089"
             style="fill:#f18300;fill-opacity:1;fill-rule:nonzero;stroke:none"
             d="m 0,0 -1367.43,0.223 -0.027,-169.084 1367.429,-0.222 z" /></g><g
           transform="translate(1206.0813,258.5954)"
           id="g5091"><path
             id="path5093"
             style="fill:#f59b00;fill-opacity:1;fill-rule:nonzero;stroke:none"
             d="m 0,0 -1367.43,0.223 -0.027,-169.084 1367.429,-0.223 z" /></g></g></g><g
       id="g5095"><g
         clip-path="url(#clipPath5101)"
         id="g5097"><g
           transform="translate(934.7783,880.4989)"
           id="g5103"><path
             id="path5105"
             style="fill:#e10a02;fill-opacity:1;fill-rule:nonzero;stroke:none"
             d="m 0,0 -660.302,-855.929 93.32,-71.991 660.302,855.929 z" /></g><g
           transform="translate(1028.0983,808.5077)"
           id="g5107"><path
             id="path5109"
             style="fill:#e73701;fill-opacity:1;fill-rule:nonzero;stroke:none"
             d="m 0,0 -660.302,-855.929 93.32,-71.991 660.302,855.929 z" /></g><g
           transform="translate(1121.4181,736.5164)"
           id="g5111"><path
             id="path5113"
             style="fill:#ed6000;fill-opacity:1;fill-rule:nonzero;stroke:none"
             d="m 0,0 -660.302,-855.929 93.32,-71.991 660.302,855.929 z" /></g><g
           transform="translate(1214.738,664.5252)"
           id="g5115"><path
             id="path5117"
             style="fill:#f18300;fill-opacity:1;fill-rule:nonzero;stroke:none"
             d="m 0,0 -660.302,-855.929 93.32,-71.991 660.302,855.929 z" /></g><g
           transform="translate(1308.058,592.5339)"
           id="g5119"><path
             id="path5121"
             style="fill:#f59b00;fill-opacity:1;fill-rule:nonzero;stroke:none"
             d="m 0,0 -660.302,-855.929 93.32,-71.991 660.302,855.929 z" /></g></g></g><g
       id="g5123"><g
         clip-path="url(#clipPath5129)"
         id="g5125"><g
           transform="translate(695.2288,-113.7544)"
           id="g5131"><path
             id="path5133"
             style="fill:#e10a02;fill-opacity:1;fill-rule:nonzero;stroke:none"
             d="M 0,0 -567.327,710.327 -644.772,648.473 -77.445,-61.854 Z" /></g><g
           transform="translate(617.7834,-175.6087)"
           id="g5135"><path
             id="path5137"
             style="fill:#e73701;fill-opacity:1;fill-rule:nonzero;stroke:none"
             d="M 0,0 -567.327,710.327 -644.772,648.473 -77.445,-61.854 Z" /></g><g
           transform="translate(540.338,-237.463)"
           id="g5139"><path
             id="path5141"
             style="fill:#ed6000;fill-opacity:1;fill-rule:nonzero;stroke:none"
             d="M 0,0 -567.327,710.327 -644.772,648.473 -77.445,-61.854 Z" /></g><g
           transform="translate(462.8927,-299.3173)"
           id="g5143"><path
             id="path5145"
             style="fill:#f18300;fill-opacity:1;fill-rule:nonzero;stroke:none"
             d="M 0,0 -567.327,710.327 -644.772,648.473 -77.445,-61.854 Z" /></g><g
           transform="translate(385.4473,-361.1716)"
           id="g5147"><path
             id="path5149"
             style="fill:#f59b00;fill-opacity:1;fill-rule:nonzero;stroke:none"
             d="M 0,0 -567.327,710.327 -644.772,648.473 -77.445,-61.854 Z" /></g></g></g><g
       transform="translate(708.3254,790.5645)"
       id="g5151"><path
         id="path5153"
         style="fill:#ffffff;fill-opacity:1;fill-rule:nonzero;stroke:none"
         d="m 0,0 92.746,-82.682 -374.792,-485.682 -207.601,260.818 88.448,70.895 117.064,-129.496 z" /></g></g></svg>