<?xml version="1.0" encoding="UTF-8"?>
<svg width="1024px" height="1024px" viewBox="0 0 1024 1024" version="1.1" xmlns="http://www.w3.org/2000/svg" xmlns:xlink="http://www.w3.org/1999/xlink">
    <!-- Generator: Sketch 46.2 (44496) - http://www.bohemiancoding.com/sketch -->
    <title>CLion</title>
    <desc>Created with Sketch.</desc>
    <defs></defs>
    <g id="Page-1" stroke="none" stroke-width="1" fill="none" fill-rule="evenodd">
        <g id="CLion" fill-rule="nonzero">
            <rect id="Outer" fill="#D1E2EF" x="92" y="92" width="840" height="840" rx="100"></rect>
            <rect id="Inner" x="220" y="220" width="585" height="585" rx="64"></rect>
            <g id="clion" transform="translate(247.000000, 221.000000)">
                <path d="M511.818525,458.168997 C503.094233,463.294127 494.516933,467.979901 488.767678,470.53314 C479.225612,476.491388 472.820069,468.670021 478.995808,464.964509 C492.001504,457.228112 500.533258,451.394209 507.367356,446.194471 L483.873461,383.09921 C460.315388,408.658542 423.221618,436.120368 373.650081,441.405076 C363.722938,442.470307 359.28212,441.744955 351.257593,441.226847 C347.682165,440.998879 349.048571,441.083849 345.442088,440.855881 C319.163625,439.187571 285.966182,430.833589 265.434903,417.281941 C257.515962,412.046972 243.535149,403.500253 228.635118,390.016996 C216.983405,379.443436 213.69161,374.034383 208.472355,365.342593 C205.91138,361.172856 205.155716,356.824888 208.818097,356.580341 C214.304422,356.225955 218.254576,362.540662 226.626916,369.423216 C245.617882,384.978908 273.415954,391.861462 287.721806,387.196413 C269.452364,370.111329 256.370417,348.211978 249.980029,324.016181 C248.586709,318.619563 244.593078,304.68037 236.593395,295.441458 C230.595703,288.560976 225.883674,280.206993 222.674691,270.516291 C216.269148,250.996032 221.974926,233.374124 223.800941,229.14843 C247.479092,174.400934 299.754456,144.323696 362.412431,147.763937 L362.412431,147.730778 C363.246766,147.763937 363.86579,147.803313 363.909266,147.803313 L371.395512,148.282045 C374.117972,148.458202 411.290413,149.533795 464.356636,160.74981 C485.66014,165.255282 508.915948,156.698201 521.339887,138.491866 C524.962932,133.207158 527.111916,129.766917 528.049767,124.212793 C516.035749,115.558308 503.185326,109.550321 497.55822,93.7210681 C494.506581,85.1702043 497.999196,72.9407696 484.577367,51.5138717 C478.47616,41.8376761 461.427145,31.214378 447.761019,24.3857071 C432.186067,16.5974991 369.631607,4.51935219 339.947482,2.91321563 L339.912286,2.58369859 C339.912286,2.58369859 330.535846,2.00134456 308.333826,0.581727081 C168.660266,-8.23648074 45.6299395,84.1277698 10.4822625,214.502537 C10.4242938,214.707708 10.3828875,214.929459 10.3249188,215.14292 C9.52784892,218.147949 8.70179466,221.163341 7.98753722,224.224326 C4.09660616,240.088023 1.63207212,256.268531 0.623439489,272.572146 L0.623439489,272.883011 C0.595874008,273.053006 0.580651855,273.224777 0.577892637,273.396974 C-9.40721935,431.838719 111.202913,568.849421 269.360214,578.815758 C270.405721,578.853062 271.434666,578.853062 272.455329,578.940104 C273.066071,578.977408 273.639547,579.081029 274.250289,579.120406 C274.415914,579.120406 274.564977,579.029218 274.747164,578.996059 C274.871383,579.029218 274.995601,579.029218 275.109469,579.029218 C281.417707,579.420909 270.834275,578.904872 277.914741,579.350446 C303.609376,580.964872 338.891623,580.115174 375.958479,570.447268 C403.733777,563.206183 424.710172,547.687795 461.410583,529.491822 C470.669015,524.897235 499.15236,519.169027 530,507.109532 L511.818525,458.168997 L511.818525,458.168997 Z M455.891132,72.9780734 C463.302847,73.4215744 468.950657,79.8606277 468.482766,87.2757975 C468.029368,94.7158365 461.623825,100.34664 454.189336,99.9052119 C446.758989,99.4078277 441.133952,93.0122955 441.608054,85.5991982 C442.08043,78.1697484 448.470173,72.5243234 455.893203,72.9780734 L455.891132,72.9780734 Z" id="Shape" fill="#556780"></path>
                <path d="M283.190743,284.025913 C286.462678,231.766686 331.696143,191.910691 383.937348,195.18854 C436.251032,198.485025 476.085804,243.710232 472.811798,295.977742 C469.498446,348.257675 424.267052,388.109529 372.003068,384.808903 C319.72873,381.514488 279.893958,336.338977 283.190743,284.025913" id="Shape" fill="#FA930D"></path>
            </g>
        </g>
    </g>
</svg>