<?xml version="1.0" encoding="UTF-8" standalone="no"?>
<svg
   xmlns:dc="http://purl.org/dc/elements/1.1/"
   xmlns:cc="http://creativecommons.org/ns#"
   xmlns:rdf="http://www.w3.org/1999/02/22-rdf-syntax-ns#"
   xmlns:svg="http://www.w3.org/2000/svg"
   xmlns="http://www.w3.org/2000/svg"
   viewBox="0 0 1365.3333 1365.3333"
   height="1365.3333"
   width="1365.3333"
   xml:space="preserve"
   id="svg5155"
   version="1.1"><metadata
     id="metadata5161"><rdf:RDF><cc:Work
         rdf:about=""><dc:format>image/svg+xml</dc:format><dc:type
           rdf:resource="http://purl.org/dc/dcmitype/StillImage" /><dc:title></dc:title></cc:Work></rdf:RDF></metadata><defs
     id="defs5159"><clipPath
       id="clipPath5171"
       clipPathUnits="userSpaceOnUse"><path
         id="path5169"
         d="M 0,1024 H 1024 V 0 H 0 Z" /></clipPath></defs><g
     transform="matrix(1.3333333,0,0,-1.3333333,0,1365.3333)"
     id="g5163"><g
       id="g5165"><g
         clip-path="url(#clipPath5171)"
         id="g5167"><g
           transform="translate(933,190)"
           id="g5173"><path
             id="path5175"
             style="fill:#293150;fill-opacity:1;fill-rule:nonzero;stroke:none"
             d="m 0,0 c 0,-55.229 -44.771,-100 -100,-100 h -643 c -55.229,0 -100,44.771 -100,100 v 643 c 0,55.229 44.771,100 100,100 h 643 C -44.771,743 0,698.229 0,643 Z" /></g><g
           transform="translate(712.8438,697.9692)"
           id="g5177"><path
             id="path5179"
             style="fill:#4ead18;fill-opacity:1;fill-rule:nonzero;stroke:none"
             d="m 0,0 c 0,0 -81.468,35.871 -155.033,34.655 -73.565,-1.217 -139.833,-35.263 -168.408,-54.718 -28.575,-19.456 -148.346,-112.475 -157.465,-242.581 -5.472,-62.621 14.592,-138.617 29.791,-172.664 4.864,-10.335 8.815,-16.719 14.591,-17.024 5.776,-0.303 8.512,5.473 19.455,24.927 27.423,39.169 57.757,59.278 116.426,65.966 58.67,6.687 81.975,7.802 122.101,19.961 40.127,12.158 104.369,30.196 159.695,103.762 55.326,73.563 51.07,136.792 43.774,168.407 C 17.631,-37.694 7.296,-23.407 0,0" /></g><g
           transform="translate(741.9951,769.71)"
           id="g5181"><path
             id="path5183"
             style="fill:#8ed042;fill-opacity:1;fill-rule:nonzero;stroke:none"
             d="m 0,0 c 0,0 -60.256,-100.991 -143.248,-153.006 -48.731,-29.022 -74.983,-39.537 -146.724,-75.794 -107.068,-55.628 -119.228,-114.051 -147.737,-160.303 0,0 52.488,99.912 159.695,143.632 58.871,28.121 118.914,52.438 141.657,65.308 44.585,27.157 132.741,106.294 165.571,160.708 2.735,3.648 5.32,8.359 -0.304,14.287 -5.624,5.928 -6.841,7.144 -6.841,7.144 0,0 -13.831,12.312 -19.149,2.593 z" /></g></g></g></g></svg>