<?xml version="1.0" encoding="UTF-8" standalone="no"?>
<svg
   xmlns:dc="http://purl.org/dc/elements/1.1/"
   xmlns:cc="http://creativecommons.org/ns#"
   xmlns:rdf="http://www.w3.org/1999/02/22-rdf-syntax-ns#"
   xmlns:svg="http://www.w3.org/2000/svg"
   xmlns="http://www.w3.org/2000/svg"
   viewBox="0 0 1365.3333 1365.3333"
   height="1365.3333"
   width="1365.3333"
   xml:space="preserve"
   id="svg2"
   version="1.1"><metadata
     id="metadata8"><rdf:RDF><cc:Work
         rdf:about=""><dc:format>image/svg+xml</dc:format><dc:type
           rdf:resource="http://purl.org/dc/dcmitype/StillImage" /><dc:title></dc:title></cc:Work></rdf:RDF></metadata><defs
     id="defs6"><clipPath
       id="clipPath18"
       clipPathUnits="userSpaceOnUse"><path
         id="path16"
         d="M 0,1024 H 1024 V 0 H 0 Z" /></clipPath></defs><g
     transform="matrix(1.3333333,0,0,-1.3333333,0,1365.3333)"
     id="g10"><g
       id="g12"><g
         clip-path="url(#clipPath18)"
         id="g14"><g
           transform="translate(932,190)"
           id="g20"><path
             id="path22"
             style="fill:#f4f4f4;fill-opacity:1;fill-rule:nonzero;stroke:none"
             d="m 0,0 c 0,-55.228 -44.772,-100 -100,-100 h -643 c -55.228,0 -100,44.772 -100,100 v 643 c 0,55.228 44.772,100 100,100 h 643 C -44.772,743 0,698.228 0,643 Z" /></g><g
           transform="translate(840,232)"
           id="g24"><path
             id="path26"
             style="fill:#ffffff;fill-opacity:1;fill-rule:nonzero;stroke:none"
             d="m 0,0 c 0,-27.614 -22.386,-50 -50,-50 h -560 c -27.614,0 -50,22.386 -50,50 v 560 c 0,27.614 22.386,50 50,50 h 560 c 27.614,0 50,-22.386 50,-50 z" /></g><g
           transform="translate(765.1767,511.75)"
           id="g28"><path
             id="path30"
             style="fill:#fbaf27;fill-opacity:1;fill-rule:nonzero;stroke:none"
             d="M 0,0 -254.802,-254.802 -509.603,0 -254.802,254.802 Z" /></g><g
           transform="translate(510.25,370.1706)"
           id="g32"><path
             id="path34"
             style="fill:#ffffff;fill-opacity:1;fill-rule:nonzero;stroke:none"
             d="M 0,0 -141.704,141.704 0,283.409 141.704,141.704 Z" /></g><g
           transform="translate(510,842)"
           id="g36"><path
             id="path38"
             style="fill:none;stroke:#ffffff;stroke-width:106;stroke-linecap:butt;stroke-linejoin:miter;stroke-miterlimit:10;stroke-dasharray:none;stroke-opacity:1"
             d="M 0,0 V -660" /></g></g></g></g></svg>