<?xml version="1.0" encoding="UTF-8" standalone="no"?>
<svg
   xmlns:dc="http://purl.org/dc/elements/1.1/"
   xmlns:cc="http://creativecommons.org/ns#"
   xmlns:rdf="http://www.w3.org/1999/02/22-rdf-syntax-ns#"
   xmlns:svg="http://www.w3.org/2000/svg"
   xmlns="http://www.w3.org/2000/svg"
   viewBox="0 0 1365.3333 1365.3333"
   height="1365.3333"
   width="1365.3333"
   xml:space="preserve"
   id="svg4515"
   version="1.1"><metadata
     id="metadata4521"><rdf:RDF><cc:Work
         rdf:about=""><dc:format>image/svg+xml</dc:format><dc:type
           rdf:resource="http://purl.org/dc/dcmitype/StillImage" /><dc:title></dc:title></cc:Work></rdf:RDF></metadata><defs
     id="defs4519"><clipPath
       id="clipPath4531"
       clipPathUnits="userSpaceOnUse"><path
         id="path4529"
         d="M 0,1024 H 1024 V 0 H 0 Z" /></clipPath><clipPath
       id="clipPath4543"
       clipPathUnits="userSpaceOnUse"><path
         id="path4541"
         d="M 218,760.199 H 804.366 V 263.801 H 218 Z" /></clipPath><clipPath
       id="clipPath4559"
       clipPathUnits="userSpaceOnUse"><path
         id="path4557"
         d="M 190,933 C 134.771,933 90,888.229 90,833 v 0 -643 C 90,134.771 134.771,90 190,90 v 0 h 643 c 55.228,0 100,44.771 100,100 v 0 643 c 0,55.229 -44.772,100 -100,100 v 0 z" /></clipPath><clipPath
       id="clipPath4567"
       clipPathUnits="userSpaceOnUse"><path
         id="path4565"
         d="M 237.709,810.599 H 1088.36 V -40.048 H 237.709 Z" /></clipPath></defs><g
     transform="matrix(1.3333333,0,0,-1.3333333,0,1365.3333)"
     id="g4523"><g
       id="g4525"><g
         clip-path="url(#clipPath4531)"
         id="g4527"><g
           transform="translate(933,190)"
           id="g4533"><path
             id="path4535"
             style="fill:#773c73;fill-opacity:1;fill-rule:nonzero;stroke:none"
             d="m 0,0 c 0,-55.229 -44.772,-100 -100,-100 h -643 c -55.229,0 -100,44.771 -100,100 v 643 c 0,55.229 44.771,100 100,100 h 643 C -44.772,743 0,698.229 0,643 Z" /></g><g
           id="g4537"><g
             id="g4539" /><g
             id="g4551"><g
               style="opacity:0.89999402"
               id="g4549"
               clip-path="url(#clipPath4543)"><g
                 id="g4547"
                 transform="translate(804.366,760.1985)"><path
                   id="path4545"
                   style="fill:#ffffff;fill-opacity:1;fill-rule:nonzero;stroke:none"
                   d="m 0,0 -462.075,-106.593 v -183.762 l 77.411,-206.042 83.663,31.4 -57.364,152.663 L 0,-395.01 Z m -586.366,-259.736 90.495,-20.867 v 166.202 l -90.495,-20.87 z" /></g></g></g></g></g></g><g
       id="g4553"><g
         clip-path="url(#clipPath4559)"
         id="g4555"><g
           id="g4561"><g
             id="g4563" /><g
             id="g4575"><g
               style="opacity:0.119995"
               id="g4573"
               clip-path="url(#clipPath4567)"><g
                 id="g4571"
                 transform="translate(1008.408,300.1051)"><path
                   id="path4569"
                   style="fill:#ffffff;fill-opacity:1;fill-rule:nonzero;stroke:none"
                   d="m 0,0 c -7.305,6.351 -15.925,14.858 -21.119,23.08 -5.548,8.765 -2.129,17.784 -1.726,27.822 0.339,8.445 -3.785,20.461 -0.194,28.062 1.646,3.469 5.423,4.619 6.975,7.465 3.304,6.021 2.57,10.089 6.626,15.266 4.35,5.562 10.198,6.928 15.041,11.287 5.074,4.574 4.934,8.178 8.148,14.038 2.35,4.28 7.876,11.423 13.107,15.156 2.836,-18.594 4.316,-37.633 4.316,-57.006 0,-33.516 -4.459,-66.001 -12.718,-96.956 C 11.414,-9.966 5.622,-4.893 0,0 m -4.866,195.014 c 0.699,1.494 2.334,1.987 3.012,3.222 1.418,2.593 1.102,4.352 2.853,6.579 1.874,2.402 4.399,2.992 6.489,4.87 0.842,0.758 1.313,1.457 1.701,2.172 6.273,-17.511 11.273,-35.61 14.91,-54.198 -0.111,-0.133 -0.173,-0.333 -0.31,-0.446 -0.913,-0.721 -6.874,-1.609 -8.098,-1.65 -4.318,-0.168 -7.525,2.698 -10.622,5.394 -3.154,2.739 -6.867,6.405 -9.107,9.95 -2.394,3.787 -0.916,7.676 -0.744,12.004 0.142,3.641 -1.627,8.825 -0.084,12.103 m -68.836,149.327 c -14.653,-0.438 -24.857,-0.469 -36.633,-8.594 -4.742,-3.277 -7.962,-7.623 -13.981,-9.314 -5.4,-1.516 -11.227,-0.187 -16.582,-2.003 -19.326,-6.557 -16.262,-47.947 -41.727,-41.697 -11.963,2.935 -20.39,17.07 -26.411,26.298 -5.301,8.122 -14.959,14.838 -8.435,24.999 -2.975,-0.763 -6.15,0.107 -9.078,-0.452 4.081,8.963 17.758,8.176 20.033,12.754 5.669,11.474 -15.601,12.674 -21.627,14.262 7.259,7.741 10.937,-2.601 18.103,-0.844 6.889,1.693 -3.637,10.765 -7.766,11.782 -1.483,0.368 -25.738,-6.701 -11.698,5.862 -17.33,11.045 -34.654,22.09 -51.986,33.144 -2.918,-12.291 23.065,-19.274 31.551,-23.609 -1.317,-5.072 -9.211,-12.465 -15.257,-10.299 -5.693,2.04 -3.38,11.476 -11.977,10.529 -6.14,-14.273 12.978,-10.1 14.753,-18.847 2.02,-9.962 -7.226,-5.743 -10.781,-5.567 -0.847,0.04 -7.473,6.901 -7.833,1.708 -0.428,-6.164 10.572,-3.762 11.347,-9.988 -12.812,-0.518 -19.355,4.109 -29.783,11.036 -12.173,8.078 -18.421,7.348 -33.333,7.348 4.461,1.833 10.605,3.193 14.419,6.142 2.083,1.611 10.257,9.557 10.796,11.334 2.311,7.65 -0.124,7.073 -7.449,12.087 -6.508,4.454 -14.402,12.448 -22.291,14.024 -28.58,5.708 -8.815,-25.805 -30.511,-30.15 0.371,-0.017 0.774,-0.036 1.093,-0.036 h -1.241 c 0.053,0.005 0.098,0.025 0.148,0.036 -5.018,0.182 -14.423,1.403 -17.659,-1.246 -2.283,-1.866 -2.474,-9.355 -5.025,-12.064 -4.541,-4.839 -11.311,-5.809 -16.73,-9.3 -5.289,-3.408 -16.952,-12.158 -20.057,-18.094 -11.451,-21.876 25.796,-28.665 39.915,-35.057 6.38,-2.891 25.023,-6.845 28.498,-11.672 4.656,-6.485 -4.015,-12.563 5.71,-17.12 3.105,-1.451 9.512,-1.745 12.187,1.263 4.348,4.895 -1.767,6.003 -2.808,11.661 -2.016,10.895 1.306,6.566 6.784,10.612 11.168,8.245 8.653,8.747 4.636,21.887 -1.868,6.117 -8.903,23.181 -2.716,27.695 8.075,5.895 25.29,-3.189 31.481,-3.949 7.203,-0.884 11.292,-10.864 15.218,-14.947 2.608,-2.708 7.272,-8.462 11.826,-7.837 7.231,0.988 4.206,7.309 8.398,10.223 11.25,7.806 14.213,-2.793 18.698,-13.396 4.217,-9.955 8.209,-13.65 15.714,-20.036 3.487,-2.975 18.768,-13.587 17.326,-20.125 -0.978,-4.407 -18.432,-11.086 -23.1,-12.569 -17.063,-5.4 -49.065,8.848 -52.503,-18.208 6.617,2.468 25.447,17.848 31.094,10.558 2.576,-3.31 -2.041,-8.127 -0.954,-11.411 3.22,-9.85 10.815,-6.419 18.779,-4.826 -0.54,-0.339 -1.099,-0.635 -1.685,-0.896 10.882,5.593 9.752,4.424 14.743,13.498 1.63,2.961 4.057,10.134 6.354,12.255 7.913,7.278 9.131,2.268 14.028,-3.348 1.286,-1.479 13.401,-18.926 9.088,-18.057 -14.092,2.829 -27.624,2.449 -39.312,-5.256 -6.734,-4.447 -13.104,-10.449 -21.148,-13.406 -1.926,-0.703 -16.202,-2.057 -14.515,0.38 2.463,3.547 10.943,5.9 14.287,9.726 -9.27,3.819 -17.004,-4.609 -24.292,-9.541 -7.73,-3.657 -9.528,-10.473 -16.11,-16.449 -2.875,-2.607 -8.308,-3.047 -11.129,-6.479 -2.739,-3.326 -3.08,-8.558 -5.673,-11.72 -1.819,-2.209 -6.483,-0.871 -8.382,-4.206 -2.474,-4.358 2.263,-8.398 1.225,-11.54 -1.901,-5.7 -12.746,-10.535 -16.917,-14.639 0.559,0.535 1.113,1.085 1.656,1.642 -4.178,-4.381 -9.467,-7.607 -12.73,-12.682 1.498,-7.165 6.22,-24.247 4.903,-28.178 -4.344,-12.935 -12.787,7.032 -16.212,12.19 -11.764,17.728 -35.275,5.862 -51.336,4.395 -20.54,-1.88 -40.66,-28.539 -27.992,-50.179 6.084,-10.379 16.315,-14.392 28.052,-11.99 10.443,2.136 13.582,16.751 23.415,17.014 18.078,0.483 0.4,-17.712 -1.162,-24.388 -1.446,-6.185 2.253,-6.76 8.62,-8.289 4.702,-1.126 11.361,2.009 15.434,-0.676 2.569,-1.695 2.445,-10.975 5.978,-8.047 -6.954,-5.762 -5.331,-19.424 1.798,-24.366 7.904,-5.48 17.211,-0.403 25.485,-2.509 15.619,-3.986 8.162,1.188 21.88,9.471 9.259,5.581 10.779,-1.052 17.106,-1.075 4.307,-0.018 7.046,6.193 14.246,4.381 5.869,-1.477 8.189,-6.008 15.198,-7.05 2.872,-0.423 5.841,1.079 8.58,0.777 12.962,-1.437 22.885,-9.722 33.101,-17.211 8.417,-6.163 13.994,-4.915 23.826,-7.726 7.185,-2.047 20.439,-12.442 19.759,-21.57 -0.121,-1.631 -6.399,-9.842 -7.472,-13.537 1.838,-1.276 14.623,1.584 18.364,1.854 -1.23,-1.431 -9.937,-7.55 -9.937,-4.303 0,-1.66 6.161,-5.08 7.661,-6.146 4.541,14.745 12,5.258 20.977,1.605 7.63,-3.105 17.026,-3.272 25.165,-5.213 6.911,-1.646 22.151,-6.311 27.27,-11.957 6.166,-6.796 1.901,-17.838 -2.659,-24.603 -5.965,-8.866 -14.959,-12.273 -18.682,-22.701 -2.939,-8.269 -0.732,-16.621 -2.413,-25.786 -2.272,-12.403 -4.091,-8.055 -12.08,-15.625 -6.723,-6.372 -0.113,-5.264 -9.265,-9.326 -9.195,-4.089 -17.287,-2.871 -23.651,-12.956 0.253,0.633 0.462,1.272 0.639,1.932 -2.684,-3.755 -4.031,-11.454 -5.301,-13.977 -3.21,-6.444 -7.634,-10.509 -12.709,-15.878 -1.946,-2.054 -19.827,-26.48 -20.859,-24.518 -1.329,2.552 -15.425,-2.564 -16.099,1.077 0.561,-3.058 -0.134,-2.034 3.368,-3.799 -3.243,-20.074 -11.733,-23.066 -31.447,-23.271 1.695,-9.651 -7.143,-7.722 -11.252,-12.912 -2.4,-3.031 -3.547,-11.546 -5.211,-15.471 -1.04,-2.46 -8.737,-12.333 -8.737,-14.295 -0.008,-1.798 2.587,-4.437 5.02,-6.97 -13.895,-2.746 -28.069,-4.665 -42.461,-5.834 2.692,3.393 3.341,6.378 -5.24,6.787 2.296,6.239 7.687,9.799 9.974,15.841 1.085,2.852 0.187,3.98 1.104,6.805 3.14,9.754 1.779,6.078 0.006,13.654 -4.143,17.754 1.477,22.612 6.317,38.867 4.968,16.714 4.506,38.372 7.689,56.368 1.51,8.615 3.988,26.529 0.996,34.674 -3.37,9.167 -18.195,16.386 -24.986,22.554 -9.611,8.754 -14.721,18.22 -21.857,29.045 -3.625,5.496 -7.755,10.89 -10.579,16.87 -6.045,12.781 0.003,5.172 1.02,12.717 0.974,7.29 -0.869,13.802 2.028,21.452 3.199,8.46 11.19,13.73 13.814,22.26 2.363,7.592 0.565,17.133 -7.233,19.668 -4.348,1.414 -9.142,-1.849 -13.51,-1.134 -6.092,0.987 -12.984,5.532 -17.762,9.169 -6.672,5.081 -9.174,13.342 -16.28,18.16 -5.945,4.021 -10.177,1.613 -16.539,3.493 -6.635,1.955 -10.732,10.141 -16.085,12.705 -8.034,3.841 -12.559,-1.674 -21.039,-0.561 -7.211,0.946 -18.208,8.939 -24.946,11.957 -13.701,6.132 -22.046,12.9 -27.522,26.805 -4.693,11.926 -11.533,17.487 -19.588,27.42 -8.158,10.064 -10.716,18.635 -23.294,21.32 -1.477,0.319 3.078,-10.568 3.547,-11.437 4.496,-8.324 11.244,-15.927 16.673,-23.675 7.989,-11.413 4.586,-13.556 -3.539,-2.518 -9.292,12.625 -20.075,25.182 -28.136,38.551 -3.047,5.055 -2.46,8.324 -7.484,13.124 -4.861,4.634 -11.213,6.89 -16.103,11.299 -17.592,15.824 -20.793,36.944 -18.787,59.503 0.653,7.348 3.31,13.231 2.137,20.296 -0.966,5.87 -4.431,10.72 -8.758,15.047 -1.397,2.217 -4.897,7.689 -5.1,8.039 -3.993,6.632 -7.101,13.159 -13.447,18.604 -3.639,3.131 -13.058,10.461 -21.925,16.603 39.845,49.691 91.98,89.074 151.791,113.528 0.477,-3.004 1.767,-6.007 3.703,-8.879 4.919,-7.295 9.606,-6.719 19.202,-8.741 -1.027,-11.137 -14.051,-11.224 -22.866,-10.015 -10.522,1.438 -21.592,4.937 -30.709,-4.287 5.036,-3.028 18.853,-14.815 17.02,-2.498 10.077,0.505 19.821,0.807 29.684,-0.397 3.953,-0.487 17.19,-4.929 20.78,-2.903 1.504,0.85 3.111,8.278 4.702,10.565 -2.811,-0.016 -5.826,1.402 -8.625,1.133 6.531,8.361 13.038,1.804 21.348,-2.041 -9.15,-5.562 -3.725,-18.885 5.223,-8.059 7.346,8.9 -1.8,15.358 -11.129,20.546 9.407,11.766 15.21,12.83 24.062,-0.454 1.461,8.193 8.069,4.913 14.98,4.311 v 2.045 c -3.043,-0.07 -6.29,1.679 -9.3,1.362 7.039,11.23 2.544,13.798 12.608,17.46 8.016,2.92 30.876,0.205 33.691,7.736 -15.999,-3.111 -35.327,-3.853 -49.762,-11.129 -6.222,-3.138 -13.637,-13.038 -19.853,-6.598 -6.37,6.598 4.557,17.215 10.148,20.454 h -1.339 c 25.315,5.383 51.532,8.272 78.43,8.272 17.383,0 34.461,-1.284 51.228,-3.575 -5.803,-3.047 -1.51,-5.106 -5.737,-8.219 -8.071,-5.936 -22.397,-10.887 -32.001,-14.639 12.207,0.033 41.759,-11.447 47.445,5.678 -3.941,0.6 -7.872,1.21 -11.809,1.816 7.356,4.878 15.561,8.826 24.177,11.721 77.737,-15.403 146.882,-54.831 199.481,-110.164 -0.374,0.006 -0.746,0.02 -1.11,0.006 m -271.674,166.153 c -234.902,0 -425.323,-190.423 -425.323,-425.324 0,-234.898 190.421,-425.323 425.323,-425.323 234.899,0 425.327,190.425 425.327,425.323 0,234.901 -190.428,425.324 -425.327,425.324 m 159.12,-531.981 c -1.013,0.162 -3.284,-0.136 -4.184,0.522 -0.554,-1.913 0.284,-2.636 4.184,-0.522 m -4.184,0.522 c 0.008,0 0.008,0.008 0.008,0.012 -0.024,0.012 -0.098,0.012 -0.112,0.037 0.022,-0.025 0.082,-0.025 0.104,-0.049 m -163.355,178.37 c 0.045,0.073 0.109,0.135 0.156,0.205 -0.176,0.836 -0.318,1.572 -0.382,2.094 0.08,-0.763 0.162,-1.529 0.226,-2.299" /></g></g></g></g></g></g></g></svg>