<?xml version="1.0" encoding="UTF-8" standalone="no"?>
<svg
   xmlns:dc="http://purl.org/dc/elements/1.1/"
   xmlns:cc="http://creativecommons.org/ns#"
   xmlns:rdf="http://www.w3.org/1999/02/22-rdf-syntax-ns#"
   xmlns:svg="http://www.w3.org/2000/svg"
   xmlns="http://www.w3.org/2000/svg"
   viewBox="0 0 1365.3333 1365.3333"
   height="1365.3333"
   width="1365.3333"
   xml:space="preserve"
   id="svg4577"
   version="1.1"><metadata
     id="metadata4583"><rdf:RDF><cc:Work
         rdf:about=""><dc:format>image/svg+xml</dc:format><dc:type
           rdf:resource="http://purl.org/dc/dcmitype/StillImage" /><dc:title></dc:title></cc:Work></rdf:RDF></metadata><defs
     id="defs4581"><clipPath
       id="clipPath4593"
       clipPathUnits="userSpaceOnUse"><path
         id="path4591"
         d="M 190,933 C 134.771,933 90,888.229 90,833 v 0 -643 C 90,134.771 134.771,90 190,90 v 0 h 643 c 55.228,0 100,44.771 100,100 v 0 643 c 0,55.229 -44.772,100 -100,100 v 0 z" /></clipPath></defs><g
     transform="matrix(1.3333333,0,0,-1.3333333,0,1365.3333)"
     id="g4585"><g
       id="g4587"><g
         clip-path="url(#clipPath4593)"
         id="g4589"><g
           transform="translate(805,288)"
           id="g4595"><path
             id="path4597"
             style="fill:#ed1c24;fill-opacity:1;fill-rule:nonzero;stroke:none"
             d="m 0,0 c 0,-38.66 -31.34,-70 -70,-70 h -447 c -38.66,0 -70,31.34 -70,70 v 447 c 0,38.66 31.34,70 70,70 h 447 c 38.66,0 70,-31.34 70,-70 z" /></g><g
           transform="translate(511.4375,511.125)"
           id="g4599"><path
             id="path4601"
             style="fill:#5ecef9;fill-opacity:1;fill-rule:nonzero;stroke:none"
             d="M 0,0 -421.875,421.875 H 0 Z" /></g><g
           transform="translate(512.6268,510.3731)"
           id="g4603"><path
             id="path4605"
             style="fill:#bbdb93;fill-opacity:1;fill-rule:nonzero;stroke:none"
             d="M 0,0 -421.875,421.875 V 0 Z" /></g><g
           transform="translate(511.2215,510.0625)"
           id="g4607"><path
             id="path4609"
             style="fill:#ef3a76;fill-opacity:1;fill-rule:nonzero;stroke:none"
             d="M 0,0 421.875,-421.875 H 0 Z" /></g><g
           transform="translate(510.0322,510.8144)"
           id="g4611"><path
             id="path4613"
             style="fill:#c880d1;fill-opacity:1;fill-rule:nonzero;stroke:none"
             d="M 0,0 421.875,-421.875 V 0 Z" /></g><g
           transform="translate(932.7206,932.4053)"
           id="g4615"><path
             id="path4617"
             style="fill:#a2b3bb;fill-opacity:1;fill-rule:nonzero;stroke:none"
             d="M 0,0 -421.875,-421.875 V 0 Z" /></g><g
           transform="translate(933.4724,933.5947)"
           id="g4619"><path
             id="path4621"
             style="fill:#8d99d5;fill-opacity:1;fill-rule:nonzero;stroke:none"
             d="M 0,0 -421.875,-421.875 H 0 Z" /></g><g
           transform="translate(512.2509,510.2197)"
           id="g4623"><path
             id="path4625"
             style="fill:#fef187;fill-opacity:1;fill-rule:nonzero;stroke:none"
             d="M 0,0 -421.875,-421.875 V 0 Z" /></g><g
           transform="translate(513.0027,511.409)"
           id="g4627"><path
             id="path4629"
             style="fill:#fe6d2c;fill-opacity:1;fill-rule:nonzero;stroke:none"
             d="M 0,0 -421.875,-421.875 H 0 Z" /></g><g
           transform="translate(595.8476,470.9223)"
           id="g4631"><path
             id="path4633"
             style="fill:#ffffff;fill-opacity:1;fill-rule:nonzero;stroke:none"
             d="m 0,0 124.705,-108.09 c 11.321,-9.815 12.556,-27.106 2.742,-38.427 l -4.454,-5.139 c -9.814,-11.321 -27.105,-12.556 -38.426,-2.742 L -39.203,-47.12" /></g><g
           transform="translate(457.4335,432.223)"
           id="g4635"><path
             id="path4637"
             style="fill:#ffffff;fill-opacity:1;fill-rule:nonzero;stroke:none"
             d="m 0,0 c 65.496,0 118.59,53.094 118.59,118.599 0,65.496 -53.094,118.59 -118.59,118.59 -65.505,0 -118.599,-53.094 -118.599,-118.59 C -118.595,53.094 -65.501,0 0,0 m -164.353,118.595 c 0,89.628 72.655,162.283 162.292,162.283 89.628,0 162.283,-72.655 162.283,-162.283 0,-89.637 -72.655,-162.292 -162.283,-162.292 -89.637,0.004 -162.292,72.659 -162.292,162.292" /></g></g></g></g></svg>