<?xml version="1.0" encoding="UTF-8" standalone="no"?>
<svg
   xmlns:dc="http://purl.org/dc/elements/1.1/"
   xmlns:cc="http://creativecommons.org/ns#"
   xmlns:rdf="http://www.w3.org/1999/02/22-rdf-syntax-ns#"
   xmlns:svg="http://www.w3.org/2000/svg"
   xmlns="http://www.w3.org/2000/svg"
   viewBox="0 0 1365.3333 1365.3333"
   height="1365.3333"
   width="1365.3333"
   xml:space="preserve"
   id="svg4639"
   version="1.1"><metadata
     id="metadata4645"><rdf:RDF><cc:Work
         rdf:about=""><dc:format>image/svg+xml</dc:format><dc:type
           rdf:resource="http://purl.org/dc/dcmitype/StillImage" /><dc:title></dc:title></cc:Work></rdf:RDF></metadata><defs
     id="defs4643"><clipPath
       id="clipPath4655"
       clipPathUnits="userSpaceOnUse"><path
         id="path4653"
         d="M 0,1024 H 1024 V 0 H 0 Z" /></clipPath></defs><g
     transform="matrix(1.3333333,0,0,-1.3333333,0,1365.3333)"
     id="g4647"><g
       id="g4649"><g
         clip-path="url(#clipPath4655)"
         id="g4651"><g
           transform="translate(833,933)"
           id="g4657"><path
             id="path4659"
             style="fill:#e5bf7f;fill-opacity:1;fill-rule:nonzero;stroke:none"
             d="M 0,0 H -554 V -843 H 0 c 10.452,0 20.529,1.606 30,4.581 V -4.581 C 20.529,-1.606 10.452,0 0,0" /></g><g
           transform="translate(863,928.4189)"
           id="g4661"><path
             id="path4663"
             style="fill:#e5bf7f;fill-opacity:1;fill-rule:nonzero;stroke:none"
             d="M 0,0 V -0.419 H 1.246 C 0.829,-0.282 0.419,-0.132 0,0" /></g><g
           transform="translate(863,94.5811)"
           id="g4665"><path
             id="path4667"
             style="fill:#d3d3d3;fill-opacity:1;fill-rule:nonzero;stroke:none"
             d="m 0,0 c 40.57,12.743 70,50.643 70,95.419 v 113 H 0 Z" /></g><path
           id="path4669"
           style="fill:#c4c4c4;fill-opacity:1;fill-rule:nonzero;stroke:none"
           d="m 863,303 h 70 v 208 h -70 z" /><g
           transform="translate(933,833)"
           id="g4671"><path
             id="path4673"
             style="fill:#a3a3a3;fill-opacity:1;fill-rule:nonzero;stroke:none"
             d="M 0,0 C 0,44.313 -28.832,81.876 -68.754,95 H -70 V -114 H 0 Z" /></g><path
           id="path4675"
           style="fill:#b5b5b5;fill-opacity:1;fill-rule:nonzero;stroke:none"
           d="m 863,511 h 70 v 208 h -70 z" /><g
           transform="translate(190,933)"
           id="g4677"><path
             id="path4679"
             style="fill:#634847;fill-opacity:1;fill-rule:nonzero;stroke:none"
             d="m 0,0 c -55.229,0 -100,-44.771 -100,-100 v -643 c 0,-55.229 44.771,-100 100,-100 H 89 V 0 Z" /></g></g></g></g></svg>