<?xml version="1.0" encoding="UTF-8" standalone="no"?>
<svg
   xmlns:dc="http://purl.org/dc/elements/1.1/"
   xmlns:cc="http://creativecommons.org/ns#"
   xmlns:rdf="http://www.w3.org/1999/02/22-rdf-syntax-ns#"
   xmlns:svg="http://www.w3.org/2000/svg"
   xmlns="http://www.w3.org/2000/svg"
   viewBox="0 0 1365.3333 1365.3333"
   height="1365.3333"
   width="1365.3333"
   xml:space="preserve"
   id="svg4681"
   version="1.1"><metadata
     id="metadata4687"><rdf:RDF><cc:Work
         rdf:about=""><dc:format>image/svg+xml</dc:format><dc:type
           rdf:resource="http://purl.org/dc/dcmitype/StillImage" /><dc:title></dc:title></cc:Work></rdf:RDF></metadata><defs
     id="defs4685"><clipPath
       id="clipPath4697"
       clipPathUnits="userSpaceOnUse"><path
         id="path4695"
         d="M 0,1024 H 1024 V 0 H 0 Z" /></clipPath></defs><g
     transform="matrix(1.3333333,0,0,-1.3333333,0,1365.3333)"
     id="g4689"><g
       id="g4691"><g
         clip-path="url(#clipPath4697)"
         id="g4693"><g
           transform="translate(933,190)"
           id="g4699"><path
             id="path4701"
             style="fill:#272727;fill-opacity:1;fill-rule:nonzero;stroke:none"
             d="m 0,0 c 0,-55.229 -44.772,-100 -100,-100 h -643 c -55.229,0 -100,44.771 -100,100 v 643 c 0,55.229 44.771,100 100,100 h 643 C -44.772,743 0,698.229 0,643 Z" /></g><g
           transform="translate(541.4179,555.1457)"
           id="g4703"><path
             id="path4705"
             style="fill:#fcd931;fill-opacity:1;fill-rule:nonzero;stroke:none"
             d="m 0,0 c -0.027,-4.318 2.938,-7.345 7.19,-7.341 3.166,0.004 6.93,3.699 7.116,6.987 0.17,3.01 -4.202,7.365 -7.436,7.405 C 3.422,7.094 0.022,3.605 0,0 m -31.13,86.798 c 0.014,-4.694 3.819,-8.556 8.411,-8.537 4.413,0.018 8.42,4.373 8.38,9.106 -0.037,4.428 -3.854,8.247 -8.281,8.287 -4.847,0.044 -8.525,-3.784 -8.51,-8.856 m -203.526,-221.837 c 1.336,6.2 2.314,12.505 4.088,18.576 2.959,10.122 8.074,19.153 14.948,27.221 13.869,16.276 31.05,25.913 49.032,32.545 -0.954,-3.453 -1.854,-6.46 -2.613,-9.502 -3.4,-13.618 -4.988,-27.496 -3.893,-41.453 1.371,-17.474 6.308,-33.942 18.569,-47.088 7.334,-7.863 16.726,-12.996 27.322,-15.224 16.807,-3.533 32.604,-0.868 47.207,8.489 6.734,4.314 11.345,10.337 15.187,17.148 7.014,12.438 12.211,25.569 14.933,39.601 3.705,19.111 2.958,37.561 -9.152,53.969 -2.369,3.21 -5.253,6.085 -8.157,8.844 -14.582,13.853 -28.152,28.351 -33.517,48.578 -4.08,15.379 -1.97,29.335 9.441,42.288 1,-4.382 1.808,-8.032 2.668,-11.669 2.512,-10.633 6.259,-20.853 13.785,-28.906 5.201,-5.564 11.73,-9.012 20.15,-7.911 5.826,0.762 11.203,1.789 15.944,5.533 4.344,3.432 6.74,10.484 5.798,16.093 -1.361,8.103 -5.886,14.67 -9.754,21.526 -7.163,12.698 -12.644,25.895 -14.857,40.436 -2.404,15.805 -0.954,30.985 6.556,45.203 6.312,11.95 15.57,21.468 26.569,29.171 15.017,10.517 32.32,16.073 49.489,21.719 13.875,4.563 28.024,8.174 42.74,8.901 1.284,0.063 2.54,0.587 3.827,0.735 1.121,0.128 2.269,0.026 3.532,-0.301 -31.297,-9.032 -58.867,-23.097 -74.94,-53.783 -2.77,0.204 -5.88,0.407 -8.986,0.667 -13.836,1.156 -21.704,-15.965 -17.162,-26.538 2.874,-6.69 7.977,-10.094 14.611,-11.763 1.927,-0.484 3.076,-0.892 3.407,-3.33 C -5.839,79.66 -1.287,65.291 5.64,51.77 12.275,38.819 20.415,26.836 30.379,16.156 33.621,12.681 36.962,9.282 39.965,5.609 40.82,4.563 41.24,2.494 40.849,1.198 c -3.698,-12.279 2.844,-19.171 14.139,-21.167 1.554,-0.274 3.294,0.502 5.547,0.896 1.5,-6.421 2.956,-12.651 4.601,-19.692 -18.059,6.833 -32.632,3.721 -41.926,-12.975 -5.705,-10.25 -3.72,-19.66 3.13,-27.582 10.666,-12.334 22.157,-13.976 40.581,-7.074 -1.313,-11.637 -4.254,-22.546 -10.946,-32.115 -8.459,-12.094 -16.821,-24.253 -22.617,-37.891 -2.272,-5.345 -4.259,-10.981 -5.151,-16.676 -0.484,-3.095 0.875,-7.058 2.652,-9.828 8.046,-12.538 16.972,-12.167 27.646,-4.805 13.261,9.146 22.046,21.874 25.006,37.84 3.286,17.721 0.683,34.656 -9.064,50.162 -0.656,1.043 -1.262,2.116 -1.573,3.393 10.189,-7.868 18.931,-17.041 25.826,-27.829 9.44,-14.772 17.499,-30.244 21.32,-47.521 2.076,-9.389 2.364,-18.851 1.511,-28.557 -1.319,-15.027 -5.939,-28.861 -13.09,-41.843 -9.006,-16.349 -21.294,-29.545 -38.194,-38.332 -15.755,-8.193 -32.764,-12.484 -49.585,-17.467 -13.559,-4.017 -26.683,-9.003 -35.832,-20.512 -4.434,-5.578 -7.997,-11.85 -11.954,-17.808 h -1.597 c -4.03,7.099 -7.687,14.444 -12.182,21.236 -6.084,9.192 -14.589,15.87 -24.176,21.29 -11.965,6.764 -25.229,8.902 -38.459,10.866 -19.113,2.837 -37.243,8.308 -54.128,17.796 -19.611,11.019 -37.001,24.756 -51.59,41.93 -10.902,12.834 -18.169,27.545 -22.196,43.86 -1.196,4.847 -2.143,9.755 -3.204,14.634 z" /></g><g
           transform="translate(517.4865,804.0394)"
           id="g4707"><path
             id="path4709"
             style="fill:#ea5d1e;fill-opacity:1;fill-rule:nonzero;stroke:none"
             d="m 0,0 c 6.849,-4.854 6.023,-9.058 3.972,-13.023 -1.735,-3.356 -5.067,-4.938 -8.77,-4.428 -3.82,0.526 -6.4,2.669 -7.503,6.819 -1.021,3.844 0.536,6.413 2.75,9.009 0.487,0.572 1.044,1.084 1.569,1.623 z" /></g><g
           transform="translate(621.306,572.5768)"
           id="g4711"><path
             id="path4713"
             style="fill:#fcd931;fill-opacity:1;fill-rule:nonzero;stroke:none"
             d="m 0,0 c -6.754,-1.184 -13.89,5.313 -13.538,12.923 0.373,8.041 5.295,12.301 13.315,13.184 7.208,0.794 12.941,-5.596 12.926,-13.54 C 12.687,4.7 7.937,0.001 0,0" /></g><g
           transform="translate(485.7648,673.5995)"
           id="g4715"><path
             id="path4717"
             style="fill:#ea5d1e;fill-opacity:1;fill-rule:nonzero;stroke:none"
             d="m 0,0 c 10.025,-1.269 19.144,-2.423 27.427,-3.471 1.449,4.534 2.096,8.945 4.163,12.538 4.537,7.885 12.039,10.575 20.989,8.243 2.453,-0.639 3.496,0.009 4.853,2.24 3.449,5.669 6.945,11.459 11.348,16.37 13.341,14.882 30.282,24.292 49.053,30.613 4.334,1.459 8.72,2.762 13.082,4.137 -0.075,0.332 -0.15,0.665 -0.225,0.997 C 123.965,70.75 117.221,69.955 110.519,68.892 87.063,65.172 64.948,57.12 43.549,47.178 27.323,39.64 14.802,27.566 5.502,12.317 3.199,8.54 1.839,4.189 0,0" /></g><g
           transform="translate(306.6838,419.9002)"
           id="g4719"><path
             id="path4721"
             style="fill:#ea5d1e;fill-opacity:1;fill-rule:nonzero;stroke:none"
             d="m 0,0 c 1.068,5.016 2.121,10.035 3.216,15.045 0.245,1.12 0.638,2.208 0.762,2.631 0,-5.721 -0.231,-12.053 0.047,-18.363 0.621,-14.078 5.033,-26.774 14.05,-37.827 10.046,-12.316 23.012,-20.554 37.491,-26.258 22.49,-8.859 45.289,-16.929 67.887,-25.518 16.871,-6.412 32.992,-14.322 47.495,-25.226 1.038,-0.78 1.911,-1.779 3.287,-3.079 -0.857,10.078 -1.906,19.596 -2.383,29.142 -0.269,5.376 -0.012,10.859 0.751,16.188 1.217,8.496 2.88,16.94 4.665,25.34 3.265,15.362 10.893,28.733 20.144,41.113 5.963,7.98 12.501,15.631 19.512,22.706 11.37,11.476 24.466,20.862 38.393,29.059 0.675,0.398 1.42,0.707 2.022,1.194 4.608,3.725 8.633,4.895 14.717,1.381 8.408,-4.856 17.883,-3.965 26.819,0.125 0.814,0.373 1.654,0.689 2.812,1.168 -1.312,-12.809 -5.017,-24.408 -12.466,-34.625 -8.173,-11.21 -15.625,-22.863 -21.128,-35.611 -2.301,-5.331 -4.201,-10.989 -5.146,-16.687 -0.496,-2.988 0.719,-6.871 2.443,-9.514 7.936,-12.163 15.945,-12.886 27.289,-5.519 11.671,7.579 20.183,18.443 23.978,31.927 5.679,20.173 3.673,39.632 -8.244,57.48 -0.421,0.631 -0.608,1.418 -1.279,3.035 1.994,-1.446 3.438,-2.303 4.658,-3.406 19.945,-18.042 33.072,-40.399 41.197,-65.812 3.671,-11.481 4.397,-23.2 3.308,-35.32 -1.924,-21.414 -10.278,-40.009 -22.972,-56.855 -10.304,-13.674 -24.235,-22.836 -40.07,-28.691 -13.994,-5.175 -28.346,-9.444 -42.688,-13.603 -20.004,-5.802 -33.938,-18.383 -42.956,-36.843 h -1.597 c -4.032,7.101 -7.69,14.45 -12.187,21.244 -6.086,9.196 -14.595,15.876 -24.186,21.298 -11.969,6.767 -25.238,8.906 -38.473,10.87 -19.12,2.838 -37.257,8.312 -54.149,17.803 -19.618,11.024 -37.015,24.766 -51.61,41.947 C 14.503,-75.222 7.234,-60.506 3.205,-44.184 2.008,-39.336 1.061,-34.426 0,-29.545 Z" /></g><g
           transform="translate(716.3162,467.0119)"
           id="g4723"><path
             id="path4725"
             style="fill:#ea5d1e;fill-opacity:1;fill-rule:nonzero;stroke:none"
             d="m 0,0 c -2.057,-4.047 -3.403,-8.73 -6.325,-12.006 -5.562,-6.235 -13.024,-6.406 -20.486,-3.694 -6.13,2.228 -10.476,9.563 -10.759,16.457 -0.337,8.226 3.435,14.091 10.437,17.469 7.48,3.609 15.056,2.396 21.072,-3.3 2.544,-2.408 3.555,-6.44 5.241,-9.745 C -0.495,4.545 -0.271,3.858 0,3.194 Z" /></g><g
           transform="translate(485.7648,673.5995)"
           id="g4727"><path
             id="path4729"
             style="fill:#ea5d1e;fill-opacity:1;fill-rule:nonzero;stroke:none"
             d="m 0,0 c 1.839,4.189 3.199,8.54 5.502,12.317 9.3,15.249 21.821,27.323 38.047,34.861 21.399,9.942 43.514,17.994 66.97,21.714 6.702,1.063 13.446,1.858 20.171,2.775 0.075,-0.332 0.15,-0.665 0.225,-0.997 -4.362,-1.375 -8.748,-2.678 -13.082,-4.137 C 99.062,60.212 82.121,50.802 68.78,35.92 64.377,31.009 60.881,25.219 57.432,19.55 56.075,17.319 55.032,16.671 52.579,17.31 43.629,19.642 36.127,16.952 31.59,9.067 29.523,5.474 28.876,1.063 27.427,-3.471 19.144,-2.423 10.025,-1.269 0,0" /></g><g
           transform="translate(621.0795,572.4291)"
           id="g4731"><path
             id="path4733"
             style="fill:#ea5d1e;fill-opacity:1;fill-rule:nonzero;stroke:none"
             d="m 0,0 c -7.759,0.002 -13.591,5.401 -13.287,12.8 0.352,8.568 5.985,13.202 13.588,13.166 C 7.629,25.932 13.065,21.713 12.989,12.701 12.921,4.576 8.293,-0.003 0,0" /></g></g></g></g></svg>