<?xml version="1.0" encoding="UTF-8" standalone="no"?>
<svg
   xmlns:dc="http://purl.org/dc/elements/1.1/"
   xmlns:cc="http://creativecommons.org/ns#"
   xmlns:rdf="http://www.w3.org/1999/02/22-rdf-syntax-ns#"
   xmlns:svg="http://www.w3.org/2000/svg"
   xmlns="http://www.w3.org/2000/svg"
   viewBox="0 0 1365.3333 1365.3333"
   height="1365.3333"
   width="1365.3333"
   xml:space="preserve"
   id="svg4735"
   version="1.1"><metadata
     id="metadata4741"><rdf:RDF><cc:Work
         rdf:about=""><dc:format>image/svg+xml</dc:format><dc:type
           rdf:resource="http://purl.org/dc/dcmitype/StillImage" /><dc:title></dc:title></cc:Work></rdf:RDF></metadata><defs
     id="defs4739"><clipPath
       id="clipPath4751"
       clipPathUnits="userSpaceOnUse"><path
         id="path4749"
         d="M 0,1024 H 1024 V 0 H 0 Z" /></clipPath></defs><g
     transform="matrix(1.3333333,0,0,-1.3333333,0,1365.3333)"
     id="g4743"><g
       id="g4745"><g
         clip-path="url(#clipPath4751)"
         id="g4747"><g
           transform="translate(933,190)"
           id="g4753"><path
             id="path4755"
             style="fill:#5da6d8;fill-opacity:1;fill-rule:nonzero;stroke:none"
             d="m 0,0 c 0,-55.229 -44.771,-100 -100,-100 h -643 c -55.229,0 -100,44.771 -100,100 v 643 c 0,55.229 44.771,100 100,100 h 643 C -44.771,743 0,698.229 0,643 Z" /></g><g
           transform="translate(418.3218,759.0532)"
           id="g4757"><path
             id="path4759"
             style="fill:#f9d613;fill-opacity:1;fill-rule:nonzero;stroke:none"
             d="m 0,0 c 0,0 36.438,44.239 98.086,44.07 61.649,-0.169 124.713,-44.561 124.37,-104.3 -0.118,-6.24 1.006,-13.883 -4.613,-28.157 -5.62,-14.275 -23.764,-97.609 -23.764,-97.609 0,0 -14.607,-55.13 42.624,-81.208 57.231,-26.078 81.507,-60.471 84.88,-102.957 3.373,-42.485 -33.019,-140.439 -160.791,-163.305 -66.92,-12.704 -124.029,-10.487 -168.082,7.51 -44.053,17.998 -115.065,67.617 -125.379,164.782 -3.644,62.497 17.7,123.024 35.014,157.162 6.74,12.706 28.666,48.136 62.272,49.398 10.341,0.251 15.46,-2.506 22.51,-18.492 7.051,-15.987 23.526,-28.565 38.071,-35.206 9.666,-4.721 24.166,-9.105 32.471,-15.368 1.087,-0.976 6.66,-4.734 2.521,2.071 -4.139,6.806 -15.869,20.332 -33.137,33.865 -4.82,3.585 -70.246,45.072 -61.17,118.127 C -31.336,-44.891 -16.095,-18.726 0,0" /></g><g
           transform="translate(474.6538,607.6128)"
           id="g4761"><path
             id="path4763"
             style="fill:#f57d27;fill-opacity:1;fill-rule:nonzero;stroke:none"
             d="m 0,0 c 0,0 -1.125,13.038 18.882,26.525 4.047,2.248 20.007,14.162 30.122,23.828 5.62,4.945 13.938,15.96 17.534,28.099 1.797,5.843 5.62,22.927 16.409,22.927 4.945,0 9.441,-1.348 14.162,-4.72 4.72,-3.372 13.712,-9.441 13.712,-9.441 0,0 5.62,-4.72 26.076,-4.271 11.688,0 23.152,-1.124 34.393,-8.317 11.239,-7.193 13.262,-10.566 13.262,-20.456 0,-9.891 -4.945,-22.029 -11.915,-31.021 -1.123,-1.798 -3.146,-3.147 -3.146,-5.844 0,-2.698 0.224,-4.721 5.844,-8.092 2.248,-1.125 6.294,-2.474 6.294,-6.52 0,-4.046 1.012,-4.608 -5.394,-11.689 -6.406,-7.081 -27.65,-30.683 -88.343,-36.753 C 69.01,-47.768 66.312,-47.262 57.377,-47.262 48.442,-47.262 -0.056,-34.843 0,0" /></g><g
           transform="translate(499.3804,689.4365)"
           id="g4765"><path
             id="path4767"
             style="fill:#ffffff;fill-opacity:1;fill-rule:nonzero;stroke:none"
             d="m 0,0 c 0,-12.917 -10.472,-23.39 -23.39,-23.39 -12.918,0 -23.389,10.473 -23.389,23.39 0,12.918 10.471,23.39 23.389,23.39 C -10.472,23.39 0,12.918 0,0" /></g><g
           transform="translate(492.4126,688.9868)"
           id="g4769"><path
             id="path4771"
             style="fill:#020200;fill-opacity:1;fill-rule:nonzero;stroke:none"
             d="m 0,0 c 0,-4.345 -3.523,-7.868 -7.868,-7.868 -4.345,0 -7.868,3.523 -7.868,7.868 0,4.345 3.523,7.868 7.868,7.868 C -3.523,7.868 0,4.345 0,0" /></g><g
           transform="translate(620.9512,732.2222)"
           id="g4773"><path
             id="path4775"
             style="fill:#ffffff;fill-opacity:1;fill-rule:nonzero;stroke:none"
             d="m 0,0 c 5.992,-10.464 7.099,-21.093 2.475,-23.743 -4.626,-2.649 -13.233,3.686 -19.226,14.15 -5.992,10.464 -7.1,21.093 -2.475,23.742 C -14.599,16.798 -5.992,10.464 0,0" /></g><g
           transform="translate(616.0469,727.7358)"
           id="g4777"><path
             id="path4779"
             style="fill:#020200;fill-opacity:1;fill-rule:nonzero;stroke:none"
             d="m 0,0 c 2.188,-3.82 2.628,-7.68 0.983,-8.622 -1.644,-0.942 -4.752,1.391 -6.939,5.21 C -8.143,0.409 -8.583,4.269 -6.938,5.211 -5.294,6.152 -2.186,3.82 0,0" /></g></g></g></g></svg>