<?xml version="1.0" encoding="UTF-8" standalone="no"?>
<svg
   xmlns:dc="http://purl.org/dc/elements/1.1/"
   xmlns:cc="http://creativecommons.org/ns#"
   xmlns:rdf="http://www.w3.org/1999/02/22-rdf-syntax-ns#"
   xmlns:svg="http://www.w3.org/2000/svg"
   xmlns="http://www.w3.org/2000/svg"
   viewBox="0 0 1365.3333 1365.3333"
   height="1365.3333"
   width="1365.3333"
   xml:space="preserve"
   id="svg4823"
   version="1.1"><metadata
     id="metadata4829"><rdf:RDF><cc:Work
         rdf:about=""><dc:format>image/svg+xml</dc:format><dc:type
           rdf:resource="http://purl.org/dc/dcmitype/StillImage" /><dc:title></dc:title></cc:Work></rdf:RDF></metadata><defs
     id="defs4827"><clipPath
       id="clipPath4839"
       clipPathUnits="userSpaceOnUse"><path
         id="path4837"
         d="M 0,1024 H 1024 V 0 H 0 Z" /></clipPath></defs><g
     transform="matrix(1.3333333,0,0,-1.3333333,0,1365.3333)"
     id="g4831"><g
       id="g4833"><g
         clip-path="url(#clipPath4839)"
         id="g4835"><g
           transform="translate(933,190)"
           id="g4841"><path
             id="path4843"
             style="fill:#242424;fill-opacity:1;fill-rule:nonzero;stroke:none"
             d="m 0,0 c 0,-55.229 -44.771,-100 -100,-100 h -643 c -55.229,0 -100,44.771 -100,100 v 643 c 0,55.229 44.771,100 100,100 h 643 C -44.771,743 0,698.229 0,643 Z" /></g><g
           transform="translate(438.3281,610.1406)"
           id="g4845"><path
             id="path4847"
             style="fill:#c10000;fill-opacity:1;fill-rule:nonzero;stroke:none"
             d="m 0,0 73.672,-183.379 -27.949,-8.135 z" /></g><g
           transform="translate(564.0508,374.7109)"
           id="g4849"><path
             id="path4851"
             style="fill:#ffffff;fill-opacity:1;fill-rule:nonzero;stroke:none"
             d="m 0,0 c 0,-28.747 -23.304,-52.051 -52.051,-52.051 -28.746,0 -52.051,23.304 -52.051,52.051 0,28.746 23.305,52.051 52.051,52.051 C -23.304,52.051 0,28.746 0,0" /></g><g
           transform="translate(220.2827,451.8984)"
           id="g4853"><path
             id="path4855"
             style="fill:#ffffff;fill-opacity:1;fill-rule:nonzero;stroke:none"
             d="m 0,0 c 0,0 -1.97,9.753 14.647,10.152 13.876,0.336 27.227,0.057 27.227,0.057 L 30.129,47.102 h 6.939 L 66.564,10.248 94.191,10.173 c 0,0 19.219,0.929 19.219,-8.668 0,-9.903 -18.285,-8.403 -18.285,-8.403 H 67.498 l -29.897,-40 h -6.939 l 11.477,38 H 14.646 C 14.646,-8.898 0,-9.711 0,0" /></g><g
           transform="translate(345.0366,580.6455)"
           id="g4857"><path
             id="path4859"
             style="fill:#ffffff;fill-opacity:1;fill-rule:nonzero;stroke:none"
             d="M 0,0 C 12.813,-0.268 15.482,15.748 15.883,20.153 16.283,24.557 14.147,31.497 5.605,32.031 -8.675,31.897 -11.21,12.279 -11.21,12.279 -12.412,1.735 -5.071,0.133 0,0 m 5.005,45.043 c 12.212,-0.067 15.882,-9.409 15.882,-9.409 0,0 1.068,4.805 1.335,6.54 0.266,1.735 1.535,1.535 1.535,1.535 0,0 3.136,-0.066 7.207,-0.133 3.603,0.067 3.203,-1.935 3.203,-1.935 0,0 -8.692,-32.716 -9.593,-38.121 -0.901,-5.405 1.702,-4.755 2.653,-4.654 10.009,1.401 16.416,15.815 15.615,25.625 -1.001,19.418 -14.214,33.031 -36.035,33.031 -21.822,0 -40.24,-14.414 -40.24,-41.241 0,-26.825 22.223,-39.038 41.842,-39.038 19.618,0 28.227,11.009 28.227,11.009 l 11.812,-0.404 C 44.444,-18.958 28.628,-34.18 6.406,-34.18 c -22.221,0 -53.052,16.204 -53.052,50.638 0,34.433 27.827,52.092 53.453,52.092 25.625,0 47.246,-16.333 46.645,-44.36 -0.6,-28.027 -23.823,-37.422 -31.498,-37.489 -10.41,0.067 -10.342,7.653 -10.342,7.653 h -1.201 c -2.603,-5 -9.16,-8.304 -14.565,-8.104 -22.005,0.383 -21.371,23.549 -21.371,23.549 0.634,26.727 18.318,35.31 30.53,35.244" /></g><g
           transform="translate(493.2314,724.9033)"
           id="g4861"><path
             id="path4863"
             style="fill:#ffffff;fill-opacity:1;fill-rule:nonzero;stroke:none"
             d="m 0,0 53.127,11.986 c 0,0 1.821,0.421 1.821,-1.247 0,-1.668 0.188,-66.845 0.188,-66.845 0,0 0.022,-6.556 -5.334,-10.807 -5.975,-4.743 -14.115,-7.809 -20.822,-3.204 -6.707,4.604 -3.804,13.012 3.403,18.717 7.207,5.706 13.512,4.805 16.915,3.203 l 0.301,40.439 c 0,0 -0.201,1.201 -1.402,0.901 -1.201,-0.3 -41.884,-10.61 -41.884,-10.61 0,0 -1.544,-0.301 -1.544,-1.402 v -43.843 c 0,0 0.693,-6.806 -3.911,-10.71 -4.605,-3.904 -16.82,-10.61 -23.627,-4.204 -6.807,6.406 0.099,14.914 4.303,18.018 4.204,3.102 13.162,5.305 16.866,3.003 l 0.224,54.753 c 0,0 -0.335,1.466 1.376,1.852" /></g><g
           transform="translate(669.9541,649.1792)"
           id="g4865"><path
             id="path4867"
             style="fill:#ffffff;fill-opacity:1;fill-rule:nonzero;stroke:none"
             d="m 0,0 c -28.305,0 -51.249,-22.946 -51.249,-51.25 0,-28.305 22.944,-51.25 51.249,-51.25 28.305,0 51.25,22.945 51.25,51.25 C 51.25,-22.946 28.305,0 0,0 m 0,-15 c 19.988,0 36.25,-16.262 36.25,-36.25 0,-19.989 -16.262,-36.25 -36.25,-36.25 -19.987,0 -36.249,16.261 -36.249,36.25 0,19.988 16.262,36.25 36.249,36.25" /></g><g
           transform="translate(663,608.5396)"
           id="g4869"><path
             id="path4871"
             style="fill:#ffffff;fill-opacity:1;fill-rule:nonzero;stroke:none"
             d="m 0,0 v 14.414 c 0,0 0.694,5.472 6.9,5.472 6.206,0 6.1,-5.072 6.1,-5.072 V -3.54 h 12.973 c 0,0 4.539,0.04 4.539,-5.833 0,-5.872 -5.205,-7.167 -5.205,-7.167 H 8.356 c 0,0 -8.356,0.524 -8.356,7.331 z" /></g><g
           transform="translate(709.3926,469.3027)"
           id="g4873"><path
             id="path4875"
             style="fill:#ffffff;fill-opacity:1;fill-rule:nonzero;stroke:none"
             d="m 0,0 c 0,-3.903 -0.9,-6.506 -4.504,-6.506 -5.506,0.101 -5.005,4.904 -5.005,4.904 -5.405,0 -21.321,-5.104 -21.321,-21.72 0,-16.616 13.313,-21.12 20.621,-21.12 7.907,0 10.91,3.202 10.91,3.202 0,4.104 1.201,7.808 5.405,7.808 4.205,0 4.706,-5.506 4.706,-6.907 0,-1.401 2.601,-7.807 11.411,-7.807 8.807,0 10.609,8.408 10.609,8.408 0.301,1.702 1.002,6.406 5.706,6.406 4.705,0 4.504,-8.008 4.504,-8.008 5.605,-3.003 9.409,-2.602 12.812,-2.602 13.014,0 19.02,11.611 19.02,20.219 0,19.82 -21.02,21.822 -21.02,21.822 0,-1.602 0.399,-4.605 -4.605,-4.605 -5.006,0 -5.206,4.404 -5.206,7.207 C 44.026,3.504 41.642,22.923 22.223,23.523 2.803,24.124 0,3.904 0,0 m 22.021,34.334 c 12.614,0 27.427,-10.41 30.631,-25.625 0,0 32.831,-0.801 32.831,-33.232 0,-21.221 -16.816,-31.231 -30.429,-31.231 -7.408,0 -13.613,2.603 -16.216,4.805 0,0 -5.606,-7.608 -16.817,-7.608 -7.607,0 -13.412,3.804 -16.815,7.608 0,0 -5.406,-4.204 -15.216,-4.204 -9.809,0 -31.23,5.205 -31.23,30.429 0,25.225 19.619,33.033 32.431,33.233 0,0 5.407,25.825 30.83,25.825" /></g></g></g></g></svg>