<?xml version="1.0" encoding="UTF-8" standalone="no"?>
<svg
   xmlns:dc="http://purl.org/dc/elements/1.1/"
   xmlns:cc="http://creativecommons.org/ns#"
   xmlns:rdf="http://www.w3.org/1999/02/22-rdf-syntax-ns#"
   xmlns:svg="http://www.w3.org/2000/svg"
   xmlns="http://www.w3.org/2000/svg"
   viewBox="0 0 1365.3333 1365.3333"
   height="1365.3333"
   width="1365.3333"
   xml:space="preserve"
   id="svg4781"
   version="1.1"><metadata
     id="metadata4787"><rdf:RDF><cc:Work
         rdf:about=""><dc:format>image/svg+xml</dc:format><dc:type
           rdf:resource="http://purl.org/dc/dcmitype/StillImage" /><dc:title></dc:title></cc:Work></rdf:RDF></metadata><defs
     id="defs4785"><clipPath
       id="clipPath4797"
       clipPathUnits="userSpaceOnUse"><path
         id="path4795"
         d="M 190,933 C 134.771,933 90,888.229 90,833 v 0 -643 C 90,134.771 134.771,90 190,90 v 0 h 643 c 55.228,0 100,44.771 100,100 v 0 643 c 0,55.229 -44.772,100 -100,100 v 0 z" /></clipPath><clipPath
       id="clipPath4817"
       clipPathUnits="userSpaceOnUse"><path
         id="path4815"
         d="M 0,1024 H 1024 V 0 H 0 Z" /></clipPath></defs><g
     transform="matrix(1.3333333,0,0,-1.3333333,0,1365.3333)"
     id="g4789"><g
       id="g4791"><g
         clip-path="url(#clipPath4797)"
         id="g4793"><g
           transform="translate(931,191)"
           id="g4799"><path
             id="path4801"
             style="fill:#a0d468;fill-opacity:1;fill-rule:nonzero;stroke:none"
             d="m 0,0 c 0,-55.229 -44.772,-100 -100,-100 h -643 c -55.229,0 -100,44.771 -100,100 v 643 c 0,55.229 44.771,100 100,100 h 643 C -44.772,743 0,698.229 0,643 Z" /></g><g
           transform="translate(976,191)"
           id="g4803"><path
             id="path4805"
             style="fill:#e67e22;fill-opacity:1;fill-rule:nonzero;stroke:none"
             d="M 0,0 C 0,-55.229 -43.709,-100 -97.628,-100 H -725.372 C -779.291,-100 -823,-55.229 -823,0 v 643 c 0,55.229 43.709,100 97.628,100 H -97.628 C -43.709,743 0,698.229 0,643 Z" /></g><g
           transform="translate(933,190)"
           id="g4807"><path
             id="path4809"
             style="fill:#9b59b6;fill-opacity:1;fill-rule:nonzero;stroke:none"
             d="M 0,0 C 0,-55.229 -37.889,-100 -84.732,-100 H -630.1 c -46.842,0 -84.9,44.771 -84.9,100 v 643 c 0,55.229 38.058,100 84.9,100 H -84.732 C -37.889,743 0,698.229 0,643 Z" /></g></g></g><g
       id="g4811"><g
         clip-path="url(#clipPath4817)"
         id="g4813"><g
           transform="translate(329.3351,727)"
           id="g4819"><path
             id="path4821"
             style="fill:#ffffff;fill-opacity:1;fill-rule:nonzero;stroke:none"
             d="m 0,0 86.367,-119.286 178.911,-0.125 c 110.078,0 148.387,-189.013 -27.613,-189.013 v 159.091 l -135.606,0.263 0.158,-281.519 140.539,-0.043 C 562.51,-430.632 575.999,0 278.766,0 Z" /></g></g></g></g></svg>