<?xml version="1.0" encoding="UTF-8" standalone="no"?>
<svg
   xmlns:dc="http://purl.org/dc/elements/1.1/"
   xmlns:cc="http://creativecommons.org/ns#"
   xmlns:rdf="http://www.w3.org/1999/02/22-rdf-syntax-ns#"
   xmlns:svg="http://www.w3.org/2000/svg"
   xmlns="http://www.w3.org/2000/svg"
   xmlns:sodipodi="http://sodipodi.sourceforge.net/DTD/sodipodi-0.dtd"
   xmlns:inkscape="http://www.inkscape.org/namespaces/inkscape"
   viewBox="0 0 1365.3333 1365.3333"
   height="1365.3333"
   width="1365.3333"
   xml:space="preserve"
   id="svg4903"
   version="1.1"
   inkscape:version="0.91 r13725"
   sodipodi:docname="Dictionary.svg"><sodipodi:namedview
     pagecolor="#ffffff"
     bordercolor="#666666"
     borderopacity="1"
     objecttolerance="10"
     gridtolerance="10"
     guidetolerance="10"
     inkscape:pageopacity="0"
     inkscape:pageshadow="2"
     inkscape:window-width="718"
     inkscape:window-height="480"
     id="namedview14"
     showgrid="false"
     inkscape:zoom="0.17285157"
     inkscape:cx="-86.779656"
     inkscape:cy="682.66663"
     inkscape:window-x="0"
     inkscape:window-y="0"
     inkscape:window-maximized="0"
     inkscape:current-layer="svg4903" /><metadata
     id="metadata4909"><rdf:RDF><cc:Work
         rdf:about=""><dc:format>image/svg+xml</dc:format><dc:type
           rdf:resource="http://purl.org/dc/dcmitype/StillImage" /><dc:title /></cc:Work></rdf:RDF></metadata><defs
     id="defs4907"><clipPath
       id="clipPath4919"
       clipPathUnits="userSpaceOnUse"><path
         id="path4917"
         d="M 0,1024 H 1024 V 0 H 0 Z" /></clipPath></defs><g
     transform="matrix(1.3333333,0,0,-1.3333333,0,1365.3333)"
     id="g4911"><g
       id="g4913"><g
         clip-path="url(#clipPath4919)"
         id="g4915"><g
           transform="translate(933,190)"
           id="g4921"><path
             id="path4923"
             style="fill:#b55655;fill-opacity:1;fill-rule:nonzero;stroke:none"
             d="m 0,0 c 0,-55.229 -44.771,-100 -100,-100 h -643 c -55.229,0 -100,44.771 -100,100 v 643 c 0,55.229 44.771,100 100,100 h 643 C -44.771,743 0,698.229 0,643 Z" /></g></g></g><g
       transform="matrix(1,0,0,-1,218,366.2051)"
       style="font-variant:normal;font-weight:normal;font-stretch:normal;font-size:500px;font-family:Times;-inkscape-font-specification:Times-Roman;writing-mode:lr-tb;fill:#ffffff;fill-opacity:1;fill-rule:nonzero;stroke:none"
       id="text4927"><path
         d="m 223.14453,-128.41797 -57.86133,-137.69531 -57.1289,137.69531 114.99023,0 z M 7.3242187,0 l 0,-9.0332031 Q 26.611328,-11.230469 36.132812,-23.681641 45.898437,-36.132812 69.335937,-91.308594 l 104.248043,-245.361326 9.76563,0 124.51172,283.447264 q 12.45117,28.320312 19.77539,35.15625 7.56836,6.591797 25.14648,9.0332029 l 0,9.0332031 -127.19726,0 0,-9.0332031 q 21.97265,-1.9531249 28.32031,-4.6386719 6.34766,-2.929687 6.34766,-13.916016 0,-3.662109 -2.44141,-12.939453 -2.44141,-9.277343 -6.83594,-19.53125 l -20.75195,-48.095706 -130.859376,0 q -19.53125,49.072269 -23.4375,60.058597 -3.662109,10.742187 -3.662109,17.089844 0,12.695312 10.253906,17.578125 6.347656,2.929687 23.925779,4.3945309 L 106.44531,0 7.3242187,0 Z M 178.4668,-336.66992 l 0,0 z"
         style=""
         id="path3343" /><path
         d="m 504.31055,-135.25391 q -28.07618,9.27735 -46.38672,20.50782 -35.15625,21.728512 -35.15625,49.316403 0,22.216796 14.64844,32.714843 9.52148,6.835938 21.24023,6.835938 16.11328,0 30.76172,-9.033203 14.89258,-9.033203 14.89258,-22.949219 l 0,-77.392582 z m -125,86.669926 q 0,-35.400391 35.40039,-59.082036 22.46093,-14.64843 89.59961,-39.79492 l 0,-20.75195 q 0,-24.90234 -4.88282,-34.66797 -8.30078,-16.35742 -34.42382,-16.35742 -12.45118,0 -23.68164,6.34766 -11.23047,6.59179 -11.23047,18.0664 0,2.92969 1.2207,10.00977 1.2207,6.83593 1.2207,8.78906 0,13.67187 -9.0332,19.04297 -5.12695,3.17383 -12.20703,3.17383 -10.98633,0 -16.8457,-7.08008 -5.85938,-7.32422 -5.85938,-16.11328 0,-17.08985 20.99609,-35.64453 21.24024,-18.79883 62.01172,-18.79883 47.36328,0 64.20899,30.76172 9.0332,16.8457 9.0332,49.07226 l 0,97.900393 q 0,14.160156 1.95313,19.53125 3.17382,9.521484 13.18359,9.521484 5.61523,0 9.27734,-1.708984 3.66211,-1.708985 12.69532,-8.300782 l 0,12.695313 q -7.8125,9.521484 -16.84571,15.6249998 -13.67187,9.2773437 -27.83203,9.2773437 -16.60156,0 -24.16992,-10.7421875 -7.32422,-10.742187 -8.05664,-25.634766 -18.55469,16.113282 -31.73828,23.9257816 -22.2168,13.1835938 -42.23633,13.1835938 -20.99609,0 -36.37695,-14.6484374 -15.38086,-14.892578 -15.38086,-37.597656 z m 93.01757,-182.861326 0,0 z"
         style=""
         id="path3345" /></g></g></svg>