<?xml version="1.0" encoding="UTF-8" standalone="no"?>
<!DOCTYPE svg PUBLIC "-//W3C//DTD SVG 1.1//EN" "http://www.w3.org/Graphics/SVG/1.1/DTD/svg11.dtd">
<svg width="100%" height="100%" viewBox="0 0 1024 1024" version="1.1" xmlns="http://www.w3.org/2000/svg" xmlns:xlink="http://www.w3.org/1999/xlink" xml:space="preserve" xmlns:serif="http://www.serif.com/" style="fill-rule:evenodd;clip-rule:evenodd;stroke-linejoin:round;stroke-miterlimit:1.41421;">
    <g id="Icon-Template">
        <path id="Outer" d="M932,192C932,136.808 887.192,92 832,92L192,92C136.808,92 92,136.808 92,192L92,832C92,887.192 136.808,932 192,932L832,932C887.192,932 932,887.192 932,832L932,192Z" style="fill:rgb(115,131,143);"/>
        <clipPath id="_clip1">
            <path id="Outer1" serif:id="Outer" d="M932,192C932,136.808 887.192,92 832,92L192,92C136.808,92 92,136.808 92,192L92,832C92,887.192 136.808,932 192,932L832,932C887.192,932 932,887.192 932,832L932,192Z"/>
        </clipPath>
        <g clip-path="url(#_clip1)">
            <g transform="matrix(0.949544,0,0,0.814634,22.6443,158.404)">
                <rect x="73.041" y="793.725" width="884.635" height="155.898" style="fill:rgb(177,188,191);"/>
            </g>
            <g>
                <g transform="matrix(0.934394,0,0,0.934394,55.2639,-67.8916)">
                    <circle cx="850.45" cy="868.5" r="15.07" style="fill:rgb(83,102,108);"/>
                </g>
                <g transform="matrix(0.934394,0,0,0.934394,-620.648,-67.8916)">
                    <circle cx="850.45" cy="868.5" r="15.07" style="fill:rgb(83,102,108);"/>
                </g>
                <g transform="matrix(0.934394,0,0,0.934394,55.2639,-631.151)">
                    <circle cx="850.45" cy="868.5" r="15.07" style="fill:rgb(83,102,108);"/>
                </g>
                <g transform="matrix(0.934394,0,0,0.934394,-620.648,-631.151)">
                    <circle cx="850.45" cy="868.5" r="15.07" style="fill:rgb(83,102,108);"/>
                </g>
            </g>
        </g>
        <circle cx="850.45" cy="868.5" r="15.07" style="fill:rgb(154,255,45);"/>
        <g transform="matrix(1.13405,0,0,1.13405,-68.6358,-27.7831)">
            <path d="M502.379,252.414C501.903,241.057 499.921,238.711 504.375,229.368C505.913,226.141 518.253,224.901 520.303,229.714C523.712,237.72 522.209,242.286 521.772,252.43C528.657,252.814 535.51,253.592 542.297,254.747C544.28,243.463 542.815,240.757 549.178,232.553C551.368,229.728 563.689,231.146 564.666,236.286C566.301,244.89 563.817,249.029 561.209,258.985C567.048,260.613 572.81,262.522 578.47,264.702C582.745,253.912 581.803,250.972 589.719,244.174C592.43,241.845 604.218,245.702 604.145,250.933C604.024,259.718 600.742,263.27 596.171,272.565C601.577,275.301 606.855,278.295 611.982,281.534C618.329,271.822 617.996,268.753 627.111,263.679C630.234,261.94 641.011,268.079 639.892,273.19C638.02,281.743 634.114,284.576 627.812,292.703C632.579,296.446 637.17,300.422 641.56,304.621C649.608,296.466 649.941,293.407 659.841,290.276C663.248,289.198 672.577,297.371 670.458,302.154C666.931,310.115 662.565,312.13 654.844,318.742C657.025,321.323 659.137,323.968 661.176,326.677C662.793,328.826 664.361,331.01 665.877,333.229C675.321,326.888 676.284,323.972 686.581,322.889C690.135,322.516 697.638,332.391 694.604,336.653C689.546,343.757 684.858,344.85 675.941,349.802C678.81,355.149 681.413,360.638 683.746,366.242C694.401,361.885 695.895,359.191 706.248,360.197C709.805,360.542 715.179,371.72 711.352,375.288C704.938,381.27 700.107,381.368 690.266,384.487C692.013,390.29 693.484,396.178 694.674,402.125C706.087,399.984 708.07,397.617 718.045,400.687C721.462,401.738 724.488,413.766 720.025,416.495C712.54,421.072 707.787,420.2 697.516,421.286C698.102,427.32 698.402,433.384 698.411,439.449C709.935,439.625 712.364,437.729 721.496,442.719C724.632,444.433 725.188,456.823 720.269,458.604C712.069,461.571 707.591,459.804 697.44,458.808C696.823,464.843 695.909,470.852 694.692,476.807C705.784,479.229 708.558,477.913 716.459,484.591C719.188,486.899 717.252,499.149 712.076,499.908C703.482,501.169 699.447,498.566 689.786,495.573C687.929,501.361 685.777,507.047 683.349,512.611C693.749,517.216 696.73,516.475 703.139,524.607C705.351,527.414 701.001,539.028 695.777,538.736C687.06,538.247 683.637,534.857 674.669,529.948C671.674,535.223 668.423,540.354 664.935,545.319C674.322,552.025 677.399,551.842 682.075,561.144C683.68,564.337 677.092,574.845 672.033,573.512C663.554,571.278 660.893,567.246 653.009,560.589C649.041,565.173 644.856,569.57 640.472,573.759C648.345,582.235 651.4,582.663 654.121,592.723C655.055,596.173 646.496,605.149 641.806,602.83C633.966,598.952 632.155,594.482 625.805,586.421C621.015,590.147 616.047,593.644 610.919,596.89C616.878,606.642 619.761,607.712 620.41,618.064C620.633,621.631 610.45,628.711 606.32,625.5C599.456,620.163 598.547,615.446 594.011,606.383C590.585,608.073 587.104,609.655 583.572,611.125C581.492,611.99 579.397,612.815 577.286,613.599C581.151,624.253 583.74,625.902 582.306,636.141C581.811,639.681 570.416,644.578 567.013,640.605C561.347,633.99 561.411,629.181 558.768,619.358C552.885,620.847 546.928,622.042 540.923,622.946C542.579,634.32 544.828,636.423 541.355,646.221C540.161,649.59 528.016,652.106 525.477,647.532C521.22,639.861 522.292,635.15 521.64,624.844C515.589,625.129 509.52,625.126 503.463,624.838C502.779,636.457 504.606,638.949 499.214,647.896C497.37,650.958 484.967,650.991 483.396,646.001C480.756,637.618 482.762,633.216 484.188,622.947C478.195,622.053 472.242,620.876 466.356,619.417C463.38,630.615 464.653,633.426 457.592,641.099C455.171,643.729 443.014,641.278 442.473,636.074C441.571,627.378 444.382,623.462 447.811,613.801C442.105,611.746 436.496,609.412 431.011,606.8C425.952,617.027 426.579,620.036 418.174,626.103C415.276,628.195 403.855,623.359 404.368,618.153C405.22,609.497 408.728,606.213 413.977,597.534C412.49,596.617 411.016,595.678 409.555,594.716C405.941,592.336 402.416,589.826 398.987,587.193C391.995,596.187 392.001,599.26 382.557,603.518C379.299,604.987 369.078,597.962 370.623,592.964C373.203,584.617 377.322,582.116 384.258,574.587C379.866,570.408 375.677,566.012 371.706,561.421C362.907,568.929 362.35,571.963 352.185,574.258C348.698,575.045 340.091,566.115 342.606,561.528C346.83,553.821 351.396,552.222 359.795,546.145C356.319,541.188 353.075,536.062 350.078,530.789C339.866,536.417 338.738,539.295 328.287,539.508C324.714,539.581 318.069,529.109 321.452,525.117C327.133,518.414 331.926,517.761 341.369,513.491C338.922,507.952 336.736,502.291 334.825,496.53C323.786,499.983 322.083,502.555 311.833,500.677C308.317,500.032 303.904,488.441 308.018,485.209C314.885,479.811 319.695,480.095 329.68,477.847C328.377,471.933 327.361,465.943 326.647,459.899C315.312,461.075 313.099,463.207 303.488,459.336C300.173,458.001 298.17,445.761 302.848,443.418C310.622,439.522 315.27,440.735 325.406,440.546C325.399,439.95 325.396,439.354 325.396,438.758C325.396,433.276 325.654,427.801 326.159,422.35C314.826,421.235 312.23,422.878 303.591,417.163C300.61,415.191 301.099,402.798 306.151,401.438C314.59,399.167 318.902,401.319 328.977,403.169C330.173,397.226 331.661,391.34 333.43,385.534C322.368,382.089 319.506,383.242 312.137,375.864C309.612,373.335 312.573,361.291 317.795,360.971C326.577,360.432 330.364,363.448 340.009,367.317C342.35,361.734 344.957,356.259 347.819,350.914C337.58,345.256 334.544,345.85 328.781,337.113C326.813,334.129 332.126,322.923 337.306,323.654C346.02,324.885 349.125,328.6 357.802,334.323C361.181,329.297 364.801,324.428 368.649,319.739C359.817,312.22 356.731,312.162 352.848,302.48C351.517,299.163 358.967,289.247 363.895,291.001C372.131,293.933 374.454,298.158 381.696,305.414C386.003,301.152 390.525,297.094 395.249,293.267C388.201,284.298 385.216,283.566 383.362,273.368C382.723,269.852 392.007,261.629 396.485,264.335C403.929,268.833 405.382,273.414 410.953,281.89C416.056,278.598 421.326,275.566 426.733,272.799C421.635,262.631 418.863,261.308 419.089,250.957C419.166,247.384 429.91,241.187 433.755,244.734C440.157,250.642 440.655,255.426 444.432,264.876C450.093,262.686 455.861,260.769 461.708,259.133C458.743,248.107 456.282,246.265 458.579,236.154C459.371,232.669 471.138,228.749 474.194,232.995C479.284,240.065 478.814,244.852 480.622,254.868C487.821,253.627 495.09,252.805 502.379,252.414ZM447.451,492.724L383.324,529.748C406.561,562.225 442.166,585.823 481.675,593.529C486.926,594.553 492.225,595.293 497.544,595.755L497.544,521.41C486.513,519.632 475.787,515.685 466.166,509.432C459.12,504.853 452.815,499.181 447.451,492.724ZM576.612,492.756C574.706,495.061 572.663,497.273 570.483,499.377C558.479,510.96 542.907,518.398 526.464,521.226L526.464,595.577C561.485,592.146 595.448,577.173 621.115,552.555C628.364,545.602 634.91,537.948 640.678,529.745L576.612,492.756ZM368.776,372.762C349.862,413.906 349.604,463.202 368.77,504.757L432.948,467.704C430.883,462.151 429.403,456.384 428.58,450.512C426.669,436.873 428.334,422.817 433.06,409.876L368.776,372.762ZM654.93,372.936L591.085,409.797C597.701,428.243 597.494,448.969 590.849,467.582L655.099,504.677C664.477,484.322 669.619,461.957 669.691,439.268C669.764,416.406 664.547,393.688 654.93,372.936ZM511.709,393.448C491.231,393.643 472.092,409.052 467.731,429.066C464.473,444.018 469.408,460.476 480.361,471.172C492.854,483.37 512.701,487.435 529.113,480.726C543.543,474.826 554.439,461.053 556.792,445.673C559.727,426.491 548.84,405.948 531.127,397.672C525.069,394.842 518.374,393.427 511.709,393.448ZM526.464,281.759L526.464,355.869C545.697,359.416 563.716,369.759 576.539,384.802L640.489,347.88C629.165,331.741 614.864,317.625 598.152,306.692C576.773,292.707 551.929,284.15 526.464,281.759ZM497.544,281.793C452.715,286.214 410.016,310.612 383.327,347.77L447.397,384.76C449.313,382.443 451.357,380.231 453.525,378.139C465.531,366.555 481.117,358.775 497.544,355.831L497.544,281.793Z" style="fill:rgb(212,215,218);fill-rule:nonzero;"/>
        </g>
    </g>
</svg>
