<?xml version="1.0" encoding="UTF-8" standalone="no"?>
<svg
   xmlns:dc="http://purl.org/dc/elements/1.1/"
   xmlns:cc="http://creativecommons.org/ns#"
   xmlns:rdf="http://www.w3.org/1999/02/22-rdf-syntax-ns#"
   xmlns:svg="http://www.w3.org/2000/svg"
   xmlns="http://www.w3.org/2000/svg"
   viewBox="0 0 1365.3333 1365.3333"
   height="1365.3333"
   width="1365.3333"
   xml:space="preserve"
   id="svg5015"
   version="1.1"><metadata
     id="metadata5021"><rdf:RDF><cc:Work
         rdf:about=""><dc:format>image/svg+xml</dc:format><dc:type
           rdf:resource="http://purl.org/dc/dcmitype/StillImage" /><dc:title></dc:title></cc:Work></rdf:RDF></metadata><defs
     id="defs5019"><clipPath
       id="clipPath5031"
       clipPathUnits="userSpaceOnUse"><path
         id="path5029"
         d="M 0,1024 H 1024 V 0 H 0 Z" /></clipPath><clipPath
       id="clipPath5047"
       clipPathUnits="userSpaceOnUse"><path
         id="path5045"
         d="M 0,1024 H 1024 V 0 H 0 Z" /></clipPath><clipPath
       id="clipPath5055"
       clipPathUnits="userSpaceOnUse"><path
         id="path5053"
         d="M 91,933 H 934 V 90 H 91 Z" /></clipPath><clipPath
       id="clipPath5071"
       clipPathUnits="userSpaceOnUse"><path
         id="path5069"
         d="M 0,1024 H 1024 V 0 H 0 Z" /></clipPath><clipPath
       id="clipPath5079"
       clipPathUnits="userSpaceOnUse"><path
         id="path5077"
         d="M 217.997,656.059 H 807.016 V 367 H 217.997 Z" /></clipPath></defs><g
     transform="matrix(1.3333333,0,0,-1.3333333,0,1365.3333)"
     id="g5023"><g
       id="g5025"><g
         clip-path="url(#clipPath5031)"
         id="g5027"><g
           transform="translate(834,933)"
           id="g5033"><path
             id="path5035"
             style="fill:#fff100;fill-opacity:1;fill-rule:nonzero;stroke:none"
             d="m 0,0 h -643 c -55.229,0 -100,-44.771 -100,-100 v -643 c 0,-55.229 44.771,-100 100,-100 H 0 c 55.229,0 100,44.771 100,100 v 643 C 100,-44.771 55.229,0 0,0" /></g><g
           transform="translate(736,805)"
           id="g5037"><path
             id="path5039"
             style="fill:#ec1c23;fill-opacity:1;fill-rule:nonzero;stroke:none"
             d="m 0,0 h -447 c -38.66,0 -70,-31.34 -70,-70 v -447 c 0,-38.66 31.34,-70 70,-70 H 0 c 38.66,0 70,31.34 70,70 V -70 C 70,-31.34 38.66,0 0,0" /></g></g></g><g
       id="g5041"><g
         clip-path="url(#clipPath5047)"
         id="g5043"><g
           id="g5049"><g
             id="g5051" /><g
             id="g5063"><g
               id="g5061"
               clip-path="url(#clipPath5055)"><g
                 id="g5059"
                 transform="translate(834,933)"><path
                   id="path5057"
                   style="fill:#33b9ff;fill-opacity:1;fill-rule:nonzero;stroke:none"
                   d="m 0,0 h -643 c -55.229,0 -100,-44.771 -100,-100 v -643 c 0,-55.229 44.771,-100 100,-100 H 0 c 55.229,0 100,44.771 100,100 v 643 C 100,-44.771 55.229,0 0,0" /></g></g></g></g></g></g><g
       id="g5065"><g
         clip-path="url(#clipPath5071)"
         id="g5067"><g
           id="g5073"><g
             id="g5075" /><g
             id="g5087"><g
               id="g5085"
               clip-path="url(#clipPath5079)"><g
                 id="g5083"
                 transform="translate(805.1738,375.6504)"><path
                   id="path5081"
                   style="fill:#ffffff;fill-opacity:1;fill-rule:nonzero;stroke:none"
                   d="m 0,0 c -13.158,35.725 -32.433,68.295 -52.681,100.303 -26.565,41.994 -61.077,76.563 -99.917,107.438 -25.164,20.001 -26.8,42.491 5.295,58.971 6.802,3.493 14.211,5.806 22.465,9.113 -2.399,0.988 -3.378,1.626 -4.432,1.797 -34.859,5.639 -68.785,3.549 -100.225,-14.013 -12.478,-6.971 -24.554,-8.195 -38.252,-4.465 -20.739,5.65 -41.829,9.838 -63.307,12.054 -56.845,5.863 -111.887,0.178 -162.955,-27.027 -31.952,-17.022 -58.566,-39.662 -64.844,-78.109 -3.165,-19.381 -15.83,-32.351 -28.324,-45.694 v -9.366 c 8.791,-5.489 17.528,-2.933 25.791,0.891 42.947,19.872 88.199,28.829 135.363,29.644 9.183,0.159 14.941,-2.244 19.669,-10.853 12.784,-23.278 31.357,-40.708 56.701,-50.222 21.423,-8.039 43.591,-11.888 67.757,-13.433 -3.858,5.368 -8.384,6.095 -11.942,8.331 -15.955,10.034 -31.843,19.814 -37.247,39.956 -4.856,18.1 -3.281,20.415 14.548,16.39 53.677,-12.122 105.788,-28.439 153.225,-57.207 1.644,-0.998 3.632,-3.344 6.315,-0.201 -2.062,2.282 -3.986,4.674 -6.187,6.777 -2.532,2.422 -5.325,4.57 -7.977,6.866 -28.715,24.883 -62.072,41.876 -96.876,56.311 -49.314,20.451 -101.355,25.757 -153.975,24.814 -20.12,-0.361 -40.622,-0.982 -60.613,-5.245 -6.111,-1.303 -7.88,1.639 -6.072,7.333 1.188,3.748 2.437,7.432 5.212,10.354 19.249,20.268 41.787,34.956 69.314,41.742 31.97,7.885 64.161,8.839 96.707,4.835 57.812,-7.112 113.442,-21.689 161.585,-55.385 C -99.762,133.422 -55.824,82.259 -19.868,24.229 -13.186,13.445 -6.567,2.625 0.371,-8.65 3.46,-4.572 0.857,-2.327 0,0" /></g></g></g></g></g></g></g></svg>