<?xml version="1.0" encoding="UTF-8" standalone="no"?>
<svg
   xmlns:dc="http://purl.org/dc/elements/1.1/"
   xmlns:cc="http://creativecommons.org/ns#"
   xmlns:rdf="http://www.w3.org/1999/02/22-rdf-syntax-ns#"
   xmlns:svg="http://www.w3.org/2000/svg"
   xmlns="http://www.w3.org/2000/svg"
   viewBox="0 0 1365.3333 1365.3333"
   height="1365.3333"
   width="1365.3333"
   xml:space="preserve"
   id="svg5089"
   version="1.1"><metadata
     id="metadata5095"><rdf:RDF><cc:Work
         rdf:about=""><dc:format>image/svg+xml</dc:format><dc:type
           rdf:resource="http://purl.org/dc/dcmitype/StillImage" /><dc:title></dc:title></cc:Work></rdf:RDF></metadata><defs
     id="defs5093"><clipPath
       id="clipPath5105"
       clipPathUnits="userSpaceOnUse"><path
         id="path5103"
         d="M 0,1024 H 1024 V 0 H 0 Z" /></clipPath></defs><g
     transform="matrix(1.3333333,0,0,-1.3333333,0,1365.3333)"
     id="g5097"><g
       id="g5099"><g
         clip-path="url(#clipPath5105)"
         id="g5101"><g
           transform="translate(933,190)"
           id="g5107"><path
             id="path5109"
             style="fill:#4ba5e2;fill-opacity:1;fill-rule:nonzero;stroke:none"
             d="m 0,0 c 0,-55.229 -44.771,-100 -100,-100 h -643 c -55.229,0 -100,44.771 -100,100 v 643 c 0,55.229 44.771,100 100,100 h 643 C -44.771,743 0,698.229 0,643 Z" /></g><g
           transform="translate(221.6177,650.4492)"
           id="g5111"><path
             id="path5113"
             style="fill:#ffffff;fill-opacity:1;fill-rule:nonzero;stroke:none"
             d="M 0,0 170.233,109.796 289.901,11.557 117.983,-92.942 Z" /></g><g
           transform="translate(221.6177,463.6025)"
           id="g5115"><path
             id="path5117"
             style="fill:#ffffff;fill-opacity:1;fill-rule:nonzero;stroke:none"
             d="M 0,0 117.983,93.905 289.901,-11.558 170.474,-109.074 Z" /></g><g
           transform="translate(683.4375,556.7847)"
           id="g5119"><path
             id="path5121"
             style="fill:#ffffff;fill-opacity:1;fill-rule:nonzero;stroke:none"
             d="M 0,0 -171.918,-104.74 -52.49,-202.498 117.501,-92.701 Z" /></g><g
           transform="translate(630.9473,760.2456)"
           id="g5123"><path
             id="path5125"
             style="fill:#ffffff;fill-opacity:1;fill-rule:nonzero;stroke:none"
             d="M 0,0 170.714,-110.038 52.49,-203.461 -119.428,-98.239 Z" /></g><g
           transform="translate(339,329.0049)"
           id="g5127"><path
             id="path5129"
             style="fill:#ffffff;fill-opacity:1;fill-rule:nonzero;stroke:none"
             d="M 0,0 V 36.599 L 53.032,4.094 172.609,101.851 292.255,4.575 344,37.321 V 0 L 172.963,-100.888 Z" /></g></g></g></g></svg>