<?xml version="1.0" encoding="UTF-8" standalone="no"?>
<svg
   xmlns:dc="http://purl.org/dc/elements/1.1/"
   xmlns:cc="http://creativecommons.org/ns#"
   xmlns:rdf="http://www.w3.org/1999/02/22-rdf-syntax-ns#"
   xmlns:svg="http://www.w3.org/2000/svg"
   xmlns="http://www.w3.org/2000/svg"
   viewBox="0 0 1365.3333 1365.3333"
   height="1365.3333"
   width="1365.3333"
   xml:space="preserve"
   id="svg5131"
   version="1.1"><metadata
     id="metadata5137"><rdf:RDF><cc:Work
         rdf:about=""><dc:format>image/svg+xml</dc:format><dc:type
           rdf:resource="http://purl.org/dc/dcmitype/StillImage" /><dc:title></dc:title></cc:Work></rdf:RDF></metadata><defs
     id="defs5135"><clipPath
       id="clipPath5147"
       clipPathUnits="userSpaceOnUse"><path
         id="path5145"
         d="M 0,1024 H 1024 V 0 H 0 Z" /></clipPath></defs><g
     transform="matrix(1.3333333,0,0,-1.3333333,0,1365.3333)"
     id="g5139"><g
       id="g5141"><g
         clip-path="url(#clipPath5147)"
         id="g5143"><g
           transform="translate(933,190)"
           id="g5149"><path
             id="path5151"
             style="fill:#8e8e8e;fill-opacity:1;fill-rule:nonzero;stroke:none"
             d="m 0,0 c 0,-55.229 -44.771,-100 -100,-100 h -643 c -55.229,0 -100,44.771 -100,100 v 643 c 0,55.229 44.771,100 100,100 h 643 C -44.771,743 0,698.229 0,643 Z" /></g><g
           transform="translate(512.1133,609.2178)"
           id="g5153"><path
             id="path5155"
             style="fill:#2b2726;fill-opacity:1;fill-rule:nonzero;stroke:none"
             d="m 0,0 c -53.693,0 -97.219,-43.526 -97.219,-97.219 0,-53.692 43.526,-97.219 97.219,-97.219 53.691,0 97.219,43.527 97.219,97.219 C 97.219,-43.526 53.691,0 0,0 m 290.887,-97.218 c 0,-160.651 -130.236,-290.886 -290.887,-290.886 -160.652,0 -290.887,130.235 -290.887,290.886 0,160.653 130.235,290.887 290.887,290.887 160.651,0 290.887,-130.234 290.887,-290.887" /></g><g
           transform="translate(512.1133,540.1685)"
           id="g5157"><path
             id="path5159"
             style="fill:#2b2726;fill-opacity:1;fill-rule:nonzero;stroke:none"
             d="m 0,0 c -15.557,0 -28.169,-12.612 -28.169,-28.169 0,-15.557 12.612,-28.169 28.169,-28.169 15.558,0 28.169,12.612 28.169,28.169 C 28.169,-12.612 15.558,0 0,0 m 78.887,-28.169 c 0,-43.568 -35.319,-78.887 -78.887,-78.887 -43.568,0 -78.887,35.319 -78.887,78.887 0,43.568 35.319,78.886 78.887,78.886 43.568,0 78.887,-35.318 78.887,-78.886" /></g></g></g></g></svg>