<?xml version="1.0" encoding="UTF-8" standalone="no"?>
<!DOCTYPE svg PUBLIC "-//W3C//DTD SVG 1.1//EN" "http://www.w3.org/Graphics/SVG/1.1/DTD/svg11.dtd">
<svg width="100%" height="100%" viewBox="0 0 1024 1024" version="1.1" xmlns="http://www.w3.org/2000/svg" xmlns:xlink="http://www.w3.org/1999/xlink" xml:space="preserve" xmlns:serif="http://www.serif.com/" style="fill-rule:evenodd;clip-rule:evenodd;stroke-linejoin:round;stroke-miterlimit:1.41421;">
    <g id="Icon-Template">
        <path id="Outer" d="M932,192C932,136.808 887.192,92 832,92L192,92C136.808,92 92,136.808 92,192L92,832C92,887.192 136.808,932 192,932L832,932C887.192,932 932,887.192 932,832L932,192Z" style="fill:rgb(255,172,83);"/>
        <g transform="matrix(1.44607,0,0,1.44607,1794.3,-16.6874)">
            <path d="M-1015.08,375.829C-1018.54,346.231 -1006.17,313.605 -1006.04,294.31C-1005.92,275.016 -1024.02,268.976 -1021.62,244.146C-1018.78,214.617 -985.128,167.29 -901.629,163.838C-825.138,160.675 -748.719,213.949 -751.735,350.189C-753.663,437.336 -842.722,547.037 -906.339,564.398C-952.45,576.982 -1007.64,550.871 -1008.33,493.288C-1008.77,455.946 -989.181,447.574 -990.639,424.859C-992.067,402.617 -1011.62,405.428 -1015.08,375.829ZM-812.683,262.473C-842.722,209.726 -899.431,203.733 -923.659,207.664C-992.75,218.873 -978.539,304.091 -978.539,304.091C-978.539,304.091 -1005.75,210.521 -924.328,198.214C-870.253,190.041 -824.214,220.557 -800.858,264.741C-783.053,265.955 -775.678,258.438 -775.678,258.438C-775.678,258.438 -775.768,287.6 -790.003,291.575C-785.588,306.778 -783.677,322.85 -784.722,339.022C-791.779,448.27 -865.884,490.797 -865.884,490.797C-865.884,490.797 -781.476,409.795 -795.562,314.672C-796.749,306.653 -798.362,299.202 -800.34,292.281C-815.516,291.353 -834.868,284.22 -834.868,284.22C-834.868,284.22 -835.419,404.323 -835.376,409.299C-835.319,415.838 -841.249,435.48 -863.888,444.796C-891.602,456.2 -912.373,451.874 -915.838,436.401C-919.302,420.928 -902.188,407.205 -892.73,402.677C-883.272,398.149 -850.423,393.905 -850.423,393.905C-850.423,393.905 -850.4,275.972 -850.423,268.394C-850.442,261.941 -849.977,252.739 -843.75,251.317C-837.073,249.793 -826.314,258.222 -812.683,262.473Z" style="fill:white;"/>
        </g>
    </g>
</svg>
