<?xml version="1.0" encoding="UTF-8" standalone="no"?>
<svg
   xmlns:dc="http://purl.org/dc/elements/1.1/"
   xmlns:cc="http://creativecommons.org/ns#"
   xmlns:rdf="http://www.w3.org/1999/02/22-rdf-syntax-ns#"
   xmlns:svg="http://www.w3.org/2000/svg"
   xmlns="http://www.w3.org/2000/svg"
   viewBox="0 0 1365.3333 1365.3333"
   height="1365.3333"
   width="1365.3333"
   xml:space="preserve"
   id="svg5161"
   version="1.1"><metadata
     id="metadata5167"><rdf:RDF><cc:Work
         rdf:about=""><dc:format>image/svg+xml</dc:format><dc:type
           rdf:resource="http://purl.org/dc/dcmitype/StillImage" /><dc:title></dc:title></cc:Work></rdf:RDF></metadata><defs
     id="defs5165"><clipPath
       id="clipPath5177"
       clipPathUnits="userSpaceOnUse"><path
         id="path5175"
         d="M 0,1024 H 1024 V 0 H 0 Z" /></clipPath></defs><g
     transform="matrix(1.3333333,0,0,-1.3333333,0,1365.3333)"
     id="g5169"><g
       id="g5171"><g
         clip-path="url(#clipPath5177)"
         id="g5173"><g
           transform="translate(833,933)"
           id="g5179"><path
             id="path5181"
             style="fill:#70568d;fill-opacity:1;fill-rule:nonzero;stroke:none"
             d="m 0,0 h -643 c -55.229,0 -100,-44.771 -100,-100 v -643 c 0,-55.229 44.771,-100 100,-100 H 0 c 55.229,0 100,44.771 100,100 v 643 C 100,-44.771 55.229,0 0,0" /></g><path
           id="path5183"
           style="fill:#ffffff;fill-opacity:1;fill-rule:nonzero;stroke:none"
           d="M 89,418 H 933 V 363 H 89 Z" /><g
           transform="translate(934,419)"
           id="g5185"><path
             id="path5187"
             style="fill:#eeeaf4;fill-opacity:1;fill-rule:nonzero;stroke:none"
             d="m 0,0 h -1 -843 -1 v -1 -54 -1 h 1 843 1 v 1 54 z M -1,-55 H -844 V -1 H -1 Z" /></g><path
           id="path5189"
           style="fill:#ffffff;fill-opacity:1;fill-rule:nonzero;stroke:none"
           d="M 89,538 H 933 V 483 H 89 Z" /><g
           transform="translate(934,539)"
           id="g5191"><path
             id="path5193"
             style="fill:#eeeaf4;fill-opacity:1;fill-rule:nonzero;stroke:none"
             d="m 0,0 h -1 -843 -1 v -1 -54 -1 h 1 843 1 v 1 54 z M -1,-55 H -844 V -1 H -1 Z" /></g><path
           id="path5195"
           style="fill:#ffffff;fill-opacity:1;fill-rule:nonzero;stroke:none"
           d="M 89,656 H 933 V 601 H 89 Z" /><g
           transform="translate(934,657)"
           id="g5197"><path
             id="path5199"
             style="fill:#eeeaf4;fill-opacity:1;fill-rule:nonzero;stroke:none"
             d="m 0,0 h -1 -843 -1 v -1 -54 -1 h 1 843 1 v 1 54 z M -1,-55 H -844 V -1 H -1 Z" /></g></g></g></g></svg>