<?xml version="1.0" encoding="UTF-8" standalone="no"?>
<svg
   xmlns:dc="http://purl.org/dc/elements/1.1/"
   xmlns:cc="http://creativecommons.org/ns#"
   xmlns:rdf="http://www.w3.org/1999/02/22-rdf-syntax-ns#"
   xmlns:svg="http://www.w3.org/2000/svg"
   xmlns="http://www.w3.org/2000/svg"
   viewBox="0 0 1365.3333 1365.3333"
   height="1365.3333"
   width="1365.3333"
   xml:space="preserve"
   id="svg4515"
   version="1.1"><metadata
     id="metadata4521"><rdf:RDF><cc:Work
         rdf:about=""><dc:format>image/svg+xml</dc:format><dc:type
           rdf:resource="http://purl.org/dc/dcmitype/StillImage" /><dc:title></dc:title></cc:Work></rdf:RDF></metadata><defs
     id="defs4519"><clipPath
       id="clipPath4531"
       clipPathUnits="userSpaceOnUse"><path
         id="path4529"
         d="M 0,1024 H 1024 V 0 H 0 Z" /></clipPath></defs><g
     transform="matrix(1.3333333,0,0,-1.3333333,0,1365.3333)"
     id="g4523"><g
       id="g4525"><g
         clip-path="url(#clipPath4531)"
         id="g4527"><g
           transform="translate(933,190)"
           id="g4533"><path
             id="path4535"
             style="fill:#494a4c;fill-opacity:1;fill-rule:nonzero;stroke:none"
             d="m 0,0 c 0,-55.229 -44.772,-100 -100,-100 h -643 c -55.229,0 -100,44.771 -100,100 v 643 c 0,55.229 44.771,100 100,100 h 643 C -44.772,743 0,698.229 0,643 Z" /></g><g
           transform="translate(354.1634,346.9481)"
           id="g4537"><path
             id="path4539"
             style="fill:#ffdc48;fill-opacity:1;fill-rule:nonzero;stroke:none"
             d="m 0,0 c -1.29,0.814 -2.58,1.627 -3.871,2.441 -9.877,-11.84 -19.755,-23.68 -29.632,-35.52 0.763,-0.623 1.526,-1.246 2.289,-1.869 C -22.249,-22.103 -2.801,-17.964 0,0 m -66.487,-16.047 c 0.691,-0.198 1.381,-0.397 2.072,-0.595 6.699,16.329 13.003,32.836 20.257,48.914 3.914,8.676 3.306,14.597 -7.13,18.582 z M 0.364,-18.61 c -12.675,-10.941 -25.069,-21.639 -39.291,-33.915 22.45,-12.241 41.47,1.226 62.06,-0.696 -8.334,12.67 -15.134,23.006 -22.769,34.611 m -50.241,-22.323 c 16.176,21.322 32.03,42.22 48.341,63.722 -10.624,4.756 -20.055,8.977 -30.732,13.757 -8.049,-18.905 -15.275,-38.228 -24.48,-56.557 -4.983,-9.923 -3.689,-15.599 6.871,-20.922 m 252.816,287.426 c -0.726,45.584 -59.343,83.862 -98.945,62.191 17.336,-5.227 32.955,-8.795 47.649,-14.675 15.824,-6.333 25.551,-18.857 29.074,-35.995 -32.487,-7.095 -58.58,-0.239 -70.889,18.67 16.944,-9.642 34.167,-15.479 57.891,-11.16 -6.563,7.496 -10.285,14.617 -16.144,17.776 -9.11,4.912 -19.523,9.332 -29.653,10.022 -19.683,1.34 -34.504,10.483 -47.972,23.444 -4.109,3.954 -8.286,7.837 -12.417,11.767 -12.374,11.77 -26.793,22.432 -43.631,22.127 -19.637,-0.357 -32.014,11.299 -46.733,19.83 -8.759,5.077 -17.756,9.769 -26.831,14.261 -2.592,1.283 -5.831,1.26 -8.702,1.821 -4.138,-17.18 -6.141,-19.246 -19.472,-20.052 1.136,3.307 2.692,6.188 3.005,9.198 0.339,3.252 -0.483,6.625 -0.799,9.946 -3.318,-0.999 -7.343,-1.122 -9.838,-3.139 -16.314,-13.188 -20.084,-37.158 -8.589,-54.752 17.341,-26.543 34.982,-52.89 52.531,-79.296 3.241,-4.878 22.596,-7.081 26.399,-2.993 28.25,30.376 64.204,41.289 104.396,40.565 3.723,-0.067 9.381,-4.561 10.669,-8.222 5.099,-14.486 14.67,-24.206 28.278,-30.252 26.835,-11.923 53.792,-7.928 80.723,-1.082 M 119.345,90.143 c 1.06,0.418 2.12,0.836 3.181,1.254 -1.206,5.328 -0.908,11.998 -4.09,15.563 -2.576,2.886 -9.723,3.609 -14.163,2.519 -9.346,-2.293 -14.94,-9.091 -16.507,-18.981 -1.657,-10.455 0.206,-19.535 9.403,-25.858 18.317,-12.593 55.389,-10.335 72.866,3.425 3.586,2.823 10.03,4.169 14.579,3.271 32.321,-6.378 63.597,17.18 65.052,49.313 0.544,12.008 -3.63,21.548 -12.999,28.678 -18.957,14.426 -40.588,14.562 -62.835,11.363 -3.774,-0.543 -8.305,-1.31 -11.464,0.186 -39.981,18.938 -81.052,13.297 -113.781,-15.688 -2.262,-2.002 -6.502,-2.793 -9.699,-2.546 C 21.005,144.019 6.196,137.035 -6.747,125.81 -24.278,110.605 -27.604,85.593 -12.38,67.853 -1.257,54.891 13.349,44.919 27.933,32.29 25.916,23.318 31.361,13.442 41.525,8.25 c 21.197,-10.828 42.556,-22.295 65.166,-29.159 27.455,-8.335 54.813,-5.521 77.967,14.964 2.792,2.471 8.154,3.36 12.111,2.944 11.691,-1.23 23.221,-3.967 34.908,-5.249 46.577,-5.105 82.312,14.498 109.297,50.793 5.463,7.348 5.171,18.948 7.637,28.561 1.26,4.913 2.057,10.122 4.328,14.548 2.373,4.625 6.556,8.28 9.45,12.687 29.62,45.113 18.62,109.391 -49.553,124.926 -3.805,0.867 -8.052,5.95 -9.499,9.999 -8.608,24.085 -19.819,46.324 -45.733,55.159 -11.157,3.804 -23.821,3.186 -36.432,4.65 -13.369,30.916 -47.347,45.73 -74.899,30.761 31.918,0.72 49.083,-18.131 60.704,-43.664 4.507,-9.903 6.829,-20.793 10.262,-31.194 3.093,-9.371 -0.548,-13.999 -9.891,-16.118 -42.051,-9.54 -81.954,-5.869 -117.227,20.738 -12.548,9.465 -25.059,9.648 -39.085,7.001 -20.929,-3.95 -35.226,-16.249 -43.887,-35.038 -4.073,-8.835 -9.812,-13.216 -19.241,-15.987 -22.458,-6.599 -31.237,-26.901 -21.469,-48.345 16.856,16.521 36.151,24.551 59.871,18.095 2.389,-0.65 6.63,2.083 8.756,4.399 27.855,30.342 80.02,42.481 114.117,19.844 19.308,-12.819 34.802,-12.651 53.751,-6.836 1.547,0.475 3.182,0.702 4.793,0.926 60.103,8.368 96.077,-20.287 96.784,-77.668 0.323,-26.174 -4.84,-51.316 -28.589,-66.428 -23.31,-14.833 -51.146,-22.259 -77.071,-14.578 -19.638,5.818 -35.439,2.176 -52.828,-2.433 -0.784,-0.207 -1.517,-0.653 -2.307,-0.786 -32.744,-5.489 -62.497,-0.414 -85.967,25.27 -15.21,16.646 -13.85,38.409 3.822,52.222 9.2,7.192 19.378,13.621 30.012,18.395 26.363,11.833 53.263,5.982 68.694,-13.661 9.021,-11.485 5.318,-22.985 -8.45,-27.26 -4.525,-1.405 -8.634,-4.106 -13.017,-6.025 -5.914,-2.589 -11.808,-6.585 -17.902,-6.974 -4.807,-0.307 -10.716,3.042 -14.51,6.533 -1.748,1.609 0.391,7.441 0.9,12.74 5.473,-3.116 8.76,-4.987 12.047,-6.859 m -193.02,139.229 c -16.776,29.725 -32.229,59.3 -49.753,87.592 -20.959,33.838 -4.628,70.196 19.494,85.537 9.651,6.137 19.66,9.537 29.972,5.342 24.727,-10.06 48.952,-21.353 73.395,-32.114 3.206,-1.412 6.5,-3.743 9.756,-3.749 29.955,-0.05 55.431,-11.431 77.693,-30.572 5.713,-4.913 10.196,-5.646 17.247,-2.551 43.201,18.965 84.916,20.039 123.91,-11.161 3.806,-3.045 10.451,-3.503 15.784,-3.524 36.396,-0.141 67.382,-10.444 86.393,-44.301 0.992,-1.768 2.499,-3.573 2.636,-5.444 1.522,-20.73 17.17,-25.514 33.132,-32.422 34.081,-14.749 62.051,-37.57 77.789,-72.264 15.122,-33.337 10.161,-65.934 -7.196,-97.068 -2.871,-5.149 -7.337,-11.016 -12.442,-12.985 -11.463,-4.42 -11.986,-13.281 -13.628,-23.062 -6.926,-41.28 -32.362,-69.069 -67.085,-89.691 -36.759,-21.832 -75.523,-18.434 -114.725,-8.816 -2.358,0.578 -4.773,1.193 -6.934,2.254 -12.299,6.039 -23.187,4.215 -36.424,-0.411 -18.45,-6.447 -38.855,-9.589 -58.495,-9.925 -67.177,-1.15 -134.385,-0.505 -201.581,-0.423 -13.977,0.018 -13.186,1.126 -9.897,14.759 9.222,38.237 17.763,76.687 24.692,115.389 1.418,7.918 -4.279,17.878 -8.562,25.902 -12.048,22.567 -25.084,44.158 -27.604,70.898 -2.634,27.948 6.807,50.893 22.433,72.81" /></g><g
           transform="translate(318.1434,692.7697)"
           id="g4541"><path
             id="path4543"
             style="fill:#ffdc48;fill-opacity:1;fill-rule:nonzero;stroke:none"
             d="M 0,0 C 5.1,-1.957 10.412,-2.547 13.555,-5.469 23.424,-14.644 35.613,-15.864 47.91,-18.08 61.816,-20.587 75.741,-24.077 80.699,-40.331 51.778,-56.258 39.793,-52.965 22.724,-26.729 16.799,-17.623 8.607,-9.99 0,0" /></g></g></g></g></svg>