<?xml version="1.0" encoding="UTF-8" standalone="no"?>
<svg
   xmlns:dc="http://purl.org/dc/elements/1.1/"
   xmlns:cc="http://creativecommons.org/ns#"
   xmlns:rdf="http://www.w3.org/1999/02/22-rdf-syntax-ns#"
   xmlns:svg="http://www.w3.org/2000/svg"
   xmlns="http://www.w3.org/2000/svg"
   viewBox="0 0 1365.3333 1365.3333"
   height="1365.3333"
   width="1365.3333"
   xml:space="preserve"
   id="svg4545"
   version="1.1"><metadata
     id="metadata4551"><rdf:RDF><cc:Work
         rdf:about=""><dc:format>image/svg+xml</dc:format><dc:type
           rdf:resource="http://purl.org/dc/dcmitype/StillImage" /><dc:title></dc:title></cc:Work></rdf:RDF></metadata><defs
     id="defs4549"><clipPath
       id="clipPath4561"
       clipPathUnits="userSpaceOnUse"><path
         id="path4559"
         d="M 0,1024 H 1024 V 0 H 0 Z" /></clipPath></defs><g
     transform="matrix(1.3333333,0,0,-1.3333333,0,1365.3333)"
     id="g4553"><g
       id="g4555"><g
         clip-path="url(#clipPath4561)"
         id="g4557"><g
           transform="translate(933,190)"
           id="g4563"><path
             id="path4565"
             style="fill:#5956a6;fill-opacity:1;fill-rule:nonzero;stroke:none"
             d="m 0,0 c 0,-55.229 -44.772,-100 -100,-100 h -643 c -55.229,0 -100,44.771 -100,100 v 643 c 0,55.229 44.771,100 100,100 h 643 C -44.772,743 0,698.229 0,643 Z" /></g><g
           transform="translate(309.0197,246.114)"
           id="g4567"><path
             id="path4569"
             style="fill:#ffffff;fill-opacity:1;fill-rule:nonzero;stroke:none"
             d="m 0,0 c 0,0 34.818,-10.11 81.166,-15.89 18.769,-2.34 90.184,-10.521 144.939,-10.306 0,0 66.686,-0.076 103.497,5.153 38.516,5.471 60.338,12.454 72.482,26.389 0.316,3.322 5.862,14.152 -9.11,24.597 -38.277,26.701 -87.76,34.01 -183.874,56.836 -106.285,26.722 -138.048,52.31 -153.916,70.829 -15.044,18.559 2.824,57.104 88.467,76.012 43.361,10.552 204.86,12.491 204.86,12.491 -46.333,36.786 -133.318,102.644 -151.098,116.65 -15.594,12.284 -40.723,31.134 -43.425,47.979 -3.643,16.398 22.168,24.294 35.833,25.205 44.032,3.036 104.158,-2.126 157.603,-12.754 26.865,-5.343 31.581,-4.555 31.581,-4.555 38.262,-1.822 68.022,18.22 66.503,60.429 -0.304,42.817 -43.113,77.15 -90.492,78.65 -44.618,1.412 -154.567,-6.377 -154.567,-6.377 128.148,-26.419 149.097,-33.161 155.781,-48.587 3.948,-9.11 -6.594,-18.168 -41.906,-16.398 -38.443,1.927 -117.215,11.236 -117.215,11.236 -75.005,11.539 -127.236,22.471 -150.011,-7.288 -14.879,-19.442 2.126,-43.121 8.806,-57.089 29.76,-51.927 81.219,-87.553 113.875,-112.661 12.287,-9.447 49.801,-30.366 49.801,-30.366 C 102.973,322.07 10.051,304.153 -48.861,273.179 -116.578,233.095 -104.994,165.453 2.459,102.215 65.925,64.864 97.525,46.921 201.439,34.163 262.179,24.479 271.229,20.516 270.768,15.46 270.118,8.342 198.877,5.645 179.295,4.294 129.479,0.859 0.644,0 0,0" /></g></g></g></g></svg>