<?xml version="1.0" encoding="UTF-8" standalone="no"?><!DOCTYPE svg PUBLIC "-//W3C//DTD SVG 1.1//EN" "http://www.w3.org/Graphics/SVG/1.1/DTD/svg11.dtd"><svg width="100%" height="100%" viewBox="0 0 1024 1024" version="1.1" xmlns="http://www.w3.org/2000/svg" xmlns:xlink="http://www.w3.org/1999/xlink" xml:space="preserve" xmlns:serif="http://www.serif.com/" style="fill-rule:evenodd;clip-rule:evenodd;stroke-linejoin:round;stroke-miterlimit:1.41421;"><g id="Icon-Template"><path id="Outer" d="M932,192c0,-55.192 -44.808,-100 -100,-100l-640,0c-55.192,0 -100,44.808 -100,100l0,640c0,55.192 44.808,100 100,100l640,0c55.192,0 100,-44.808 100,-100l0,-640Z" style="fill:#3bafe1;"/><g><path d="M512.79,267.246l0.789,0.004l0.789,0.006l0.789,0.009l0.788,0.011l0.787,0.014l0.787,0.016l0.786,0.019l0.786,0.021l0.785,0.024l0.784,0.026l0.784,0.028l0.783,0.031l0.783,0.034l0.782,0.036l0.782,0.038l0.78,0.041l0.78,0.043l0.78,0.046l0.779,0.048l0.779,0.051l0.777,0.053l0.777,0.056l0.777,0.058l0.775,0.06l0.776,0.063l0.774,0.065l0.774,0.067l0.773,0.07l0.773,0.073l0.771,0.075l0.772,0.077l0.771,0.079l0.769,0.082l0.769,0.085l0.769,0.086l0.767,0.089l0.768,0.092l0.766,0.094l0.765,0.096l0.765,0.099l0.765,0.101l0.763,0.103l0.763,0.105l0.762,0.108l0.761,0.111l0.76,0.112l0.761,0.116l0.759,0.117l0.758,0.12l0.757,0.121l0.757,0.125l0.756,0.126l0.756,0.129l0.754,0.132l0.754,0.133l0.753,0.136l0.752,0.138l0.751,0.141l0.75,0.142l0.75,0.146l0.749,0.147l0.748,0.149l0.748,0.152l0.746,0.154l0.746,0.157l0.745,0.159l0.744,0.16l0.743,0.164l0.743,0.165l0.741,0.168l0.741,0.17l0.74,0.172l0.738,0.174l0.739,0.177l0.737,0.179l0.736,0.181l0.736,0.183l0.735,0.186l0.734,0.188l0.733,0.19l0.732,0.192l0.731,0.194l0.73,0.197l0.729,0.199l0.729,0.201l0.728,0.203l0.726,0.205l0.726,0.208l0.725,0.209l0.723,0.212l0.724,0.214l0.722,0.217l0.721,0.218l0.72,0.221l0.719,0.222l0.718,0.225l0.718,0.227l0.716,0.229l0.716,0.231l0.715,0.234l0.713,0.235l0.712,0.238l0.712,0.24l0.711,0.242l0.709,0.244l0.708,0.246l0.708,0.248l0.707,0.25l0.706,0.253l0.704,0.254l0.704,0.257l0.703,0.259l0.701,0.26l0.701,0.263l0.7,0.265l0.698,0.267l0.697,0.269l0.697,0.272l0.696,0.273l0.694,0.275l0.694,0.277l0.692,0.28l0.691,0.281l0.69,0.284l0.689,0.285l0.689,0.288l0.687,0.289l0.686,0.292l0.685,0.293l0.683,0.296l0.683,0.298l0.682,0.299l0.68,0.302l0.679,0.303l0.68,0.306l0.677,0.308l0.676,0.31l0.675,0.311l0.674,0.314l0.672,0.315l0.673,0.318l0.67,0.32l0.669,0.321l0.669,0.324l0.667,0.325l0.666,0.328l0.665,0.329l0.663,0.331l0.663,0.334l0.662,0.335l0.66,0.337l0.659,0.339l0.658,0.341l0.657,0.343l0.655,0.345l0.655,0.347l0.653,0.348l0.652,0.351l0.652,0.352l0.649,0.355l0.649,0.356l0.647,0.358l0.646,0.36l0.645,0.362l0.644,0.364l0.642,0.366l0.641,0.368l0.64,0.369l0.639,0.371l0.638,0.374l0.636,0.375l0.636,0.377l0.634,0.379l0.632,0.38l0.631,0.383l0.63,0.384l0.629,0.386l0.628,0.388l0.626,0.39l0.625,0.392l0.624,0.393l0.623,0.396l0.621,0.397l0.62,0.399l0.619,0.401l0.617,0.402l0.616,0.405l0.615,0.406l0.614,0.408l0.612,0.41l0.611,0.411l0.609,0.413l0.609,0.415l0.607,0.417l0.605,0.419l0.605,0.421l0.603,0.422l0.601,0.423l0.601,0.426l0.599,0.428l0.597,0.429l0.597,0.431l0.595,0.433l0.593,0.434l0.593,0.436l0.59,0.438l0.59,0.439l0.588,0.442l0.587,0.443l0.585,0.445l0.584,0.446l0.583,0.448l0.581,0.45l0.58,0.452l0.579,0.453l0.577,0.455l0.575,0.457l0.574,0.458l0.573,0.46l0.572,0.462l0.57,0.463l0.568,0.465l0.567,0.467l0.566,0.469l0.564,0.47l0.564,0.471l0.561,0.474l0.559,0.474l0.559,0.477l0.557,0.479l0.556,0.48l0.554,0.481l0.553,0.483l0.551,0.485l0.55,0.487l0.549,0.488l0.546,0.489l0.545,0.491l0.544,0.493l0.543,0.495l0.541,0.496l0.539,0.498l0.538,0.499l0.537,0.501l0.534,0.502l0.534,0.504l0.531,0.506l0.531,0.507l0.529,0.509l0.527,0.51l0.526,0.512l0.524,0.513l0.523,0.516l0.521,0.516l0.52,0.518l0.518,0.52l0.516,0.521l0.516,0.523l0.513,0.524l0.511,0.526l0.511,0.527l0.509,0.529l0.507,0.53l0.505,0.532l0.505,0.534l0.502,0.535l0.501,0.536l0.499,0.538l0.498,0.54l0.496,0.54l0.494,0.543l0.493,0.543l0.492,0.546l0.49,0.547l0.488,0.548l0.486,0.55l0.485,0.551l0.483,0.553l0.481,0.554l0.48,0.556l0.479,0.557l0.476,0.558l0.476,0.561l0.473,0.561l0.471,0.562l0.471,0.565l0.468,0.566l0.467,0.567l0.464,0.568l0.464,0.57l0.462,0.572l0.46,0.573l0.458,0.574l0.457,0.576l0.455,0.576l0.453,0.579l0.452,0.58l0.45,0.581l0.447,0.582l0.447,0.584l0.445,0.587l0.443,0.586l0.441,0.588l0.44,0.59l0.438,0.591l0.436,0.592l0.434,0.593l0.434,0.596l0.43,0.596l0.429,0.597l0.428,0.599l0.425,0.6l0.425,0.603l0.422,0.603l0.42,0.603l0.419,0.606l0.417,0.608l0.415,0.607l0.413,0.61l0.412,0.611l0.409,0.612l0.408,0.614l0.407,0.615l0.403,0.615l0.404,0.618l0.4,0.619l0.399,0.62l0.397,0.621l0.395,0.622l0.394,0.625l0.392,0.625l0.39,0.626l0.388,0.627l0.386,0.63l0.384,0.63l0.383,0.631l0.38,0.633l0.379,0.634l0.377,0.635l0.375,0.636l0.373,0.637l0.372,0.639l0.37,0.641l0.367,0.641l0.366,0.643l0.364,0.643l0.361,0.644l0.361,0.647l0.358,0.648l0.356,0.648l0.355,0.65l0.352,0.65l0.351,0.652l0.349,0.654l0.346,0.654l0.345,0.656l0.343,0.657l0.341,0.658l0.339,0.659l0.337,0.66l0.335,0.661l0.334,0.663l0.331,0.664l0.329,0.665l0.328,0.666l0.325,0.667l0.323,0.668l0.323,0.671l0.319,0.67l0.317,0.671l0.316,0.673l0.314,0.674l0.311,0.675l0.31,0.677l0.308,0.677l0.305,0.678l0.304,0.68l0.302,0.68l0.299,0.681l0.298,0.683l0.296,0.685l0.293,0.685l0.292,0.685l0.289,0.687l0.288,0.689l0.286,0.689l0.283,0.69l0.281,0.691l0.28,0.692l0.277,0.694l0.275,0.695l0.274,0.695l0.271,0.696l0.269,0.698l0.267,0.699l0.265,0.699l0.263,0.7l0.26,0.702l0.259,0.703l0.257,0.704l0.254,0.704l0.253,0.706l0.25,0.706l0.248,0.708l0.247,0.709l0.244,0.71l0.241,0.71l0.24,0.711l0.237,0.712l0.236,0.715l0.234,0.714l0.231,0.715l0.229,0.717l0.227,0.717l0.225,0.719l0.223,0.719l0.22,0.721l0.219,0.721l0.215,0.721l0.215,0.723l0.212,0.725l0.209,0.724l0.208,0.725l0.205,0.728l0.203,0.727l0.201,0.728l0.199,0.73l0.197,0.73l0.194,0.731l0.192,0.732l0.19,0.734l0.188,0.733l0.186,0.735l0.183,0.735l0.181,0.737l0.179,0.738l0.176,0.737l0.175,0.739l0.172,0.74l0.17,0.741l0.168,0.742l0.165,0.741l0.164,0.744l0.161,0.745l0.158,0.744l0.157,0.746l0.154,0.747l0.152,0.746l0.149,0.749l0.148,0.749l0.145,0.749l0.142,0.751l0.141,0.752l0.138,0.752l0.136,0.752l0.133,0.754l0.132,0.755l0.129,0.755l0.126,0.756l0.125,0.757l0.121,0.757l0.12,0.758l0.118,0.76l0.114,0.759l0.113,0.76l0.111,0.762l0.108,0.763l0.105,0.762l0.104,0.764l0.1,0.764l0.099,0.764l0.096,0.766l0.094,0.766l0.092,0.768l0.089,0.768l0.086,0.767l0.085,0.769l0.082,0.771l0.079,0.77l0.077,0.771l0.075,0.772l0.073,0.773l0.07,0.773l0.067,0.774l0.065,0.774l0.063,0.776l0.06,0.775l0.058,0.777l0.056,0.777l0.053,0.777l0.051,0.778l0.048,0.78l0.046,0.78l0.043,0.78l0.041,0.78l0.038,0.782l0.036,0.782l0.034,0.783l0.031,0.783l0.028,0.784l0.026,0.784l0.024,0.785l0.021,0.786l0.019,0.787l0.016,0.786l0.014,0.787l0.011,0.788l0.009,0.789l0.006,0.788l0.004,0.79l0.001,0.79l-0.001,0.79l-0.004,0.79l-0.006,0.788l-0.009,0.789l-0.011,0.788l-0.014,0.787l-0.016,0.786l-0.019,0.787l-0.021,0.786l-0.024,0.785l-0.026,0.784l-0.028,0.784l-0.031,0.783l-0.034,0.783l-0.036,0.782l-0.038,0.782l-0.041,0.781l-0.043,0.779l-0.046,0.78l-0.048,0.78l-0.051,0.778l-0.053,0.777l-0.056,0.777l-0.058,0.777l-0.06,0.775l-0.063,0.776l-0.065,0.774l-0.067,0.774l-0.07,0.773l-0.073,0.773l-0.075,0.772l-0.077,0.771l-0.079,0.77l-0.082,0.771l-0.085,0.769l-0.086,0.767l-0.089,0.768l-0.092,0.768l-0.094,0.766l-0.096,0.765l-0.099,0.765l-0.1,0.764l-0.104,0.765l-0.105,0.761l-0.108,0.762l-0.111,0.763l-0.113,0.76l-0.114,0.759l-0.118,0.76l-0.12,0.758l-0.121,0.757l-0.125,0.757l-0.126,0.756l-0.129,0.755l-0.132,0.755l-0.133,0.754l-0.136,0.753l-0.138,0.751l-0.141,0.752l-0.142,0.751l-0.146,0.749l-0.147,0.749l-0.149,0.749l-0.152,0.746l-0.154,0.747l-0.157,0.746l-0.158,0.744l-0.161,0.745l-0.164,0.744l-0.165,0.741l-0.168,0.742l-0.17,0.741l-0.172,0.74l-0.175,0.739l-0.176,0.737l-0.179,0.738l-0.181,0.737l-0.183,0.735l-0.186,0.735l-0.188,0.733l-0.19,0.734l-0.192,0.732l-0.194,0.731l-0.197,0.73l-0.199,0.73l-0.201,0.728l-0.203,0.727l-0.205,0.728l-0.208,0.725l-0.209,0.724l-0.212,0.725l-0.215,0.723l-0.215,0.721l-0.219,0.721l-0.22,0.721l-0.223,0.719l-0.225,0.718l-0.227,0.718l-0.229,0.717l-0.231,0.715l-0.234,0.714l-0.235,0.714l-0.238,0.713l-0.24,0.711l-0.242,0.71l-0.244,0.71l-0.246,0.709l-0.248,0.707l-0.25,0.707l-0.253,0.706l-0.254,0.704l-0.257,0.704l-0.259,0.703l-0.26,0.701l-0.263,0.701l-0.265,0.699l-0.267,0.699l-0.269,0.698l-0.272,0.696l-0.273,0.695l-0.275,0.695l-0.277,0.694l-0.28,0.692l-0.281,0.691l-0.283,0.69l-0.286,0.689l-0.288,0.689l-0.289,0.687l-0.292,0.685l-0.293,0.685l-0.296,0.685l-0.298,0.682l-0.299,0.682l-0.302,0.68l-0.304,0.68l-0.305,0.678l-0.308,0.677l-0.31,0.677l-0.311,0.675l-0.314,0.674l-0.316,0.673l-0.317,0.671l-0.32,0.671l-0.321,0.67l-0.324,0.668l-0.325,0.667l-0.328,0.666l-0.329,0.665l-0.331,0.664l-0.334,0.663l-0.335,0.661l-0.337,0.66l-0.339,0.659l-0.341,0.658l-0.343,0.658l-0.345,0.655l-0.346,0.654l-0.349,0.654l-0.351,0.652l-0.352,0.65l-0.355,0.65l-0.356,0.648l-0.358,0.648l-0.361,0.647l-0.361,0.644l-0.364,0.643l-0.366,0.643l-0.367,0.641l-0.37,0.641l-0.372,0.639l-0.373,0.637l-0.375,0.636l-0.377,0.636l-0.379,0.633l-0.38,0.633l-0.383,0.631l-0.384,0.63l-0.387,0.63l-0.387,0.627l-0.39,0.626l-0.392,0.625l-0.394,0.625l-0.395,0.622l-0.397,0.621l-0.399,0.62l-0.4,0.619l-0.404,0.618l-0.403,0.615l-0.407,0.615l-0.408,0.614l-0.409,0.612l-0.412,0.611l-0.413,0.609l-0.415,0.608l-0.417,0.608l-0.419,0.606l-0.42,0.603l-0.422,0.604l-0.425,0.602l-0.425,0.6l-0.428,0.599l-0.428,0.597l-0.432,0.597l-0.433,0.595l-0.434,0.593l-0.436,0.592l-0.438,0.591l-0.44,0.59l-0.441,0.588l-0.443,0.587l-0.445,0.586l-0.446,0.583l-0.448,0.583l-0.45,0.581l-0.452,0.58l-0.454,0.579l-0.454,0.577l-0.457,0.575l-0.458,0.574l-0.46,0.573l-0.462,0.572l-0.463,0.57l-0.465,0.568l-0.467,0.567l-0.468,0.566l-0.471,0.565l-0.471,0.562l-0.474,0.562l-0.475,0.56l-0.476,0.558l-0.479,0.558l-0.48,0.556l-0.481,0.553l-0.483,0.553l-0.485,0.551l-0.486,0.55l-0.489,0.548l-0.49,0.547l-0.491,0.546l-0.492,0.543l-0.495,0.542l-0.495,0.541l-0.499,0.54l-0.5,0.539l-0.5,0.535l-0.502,0.535l-0.505,0.534l-0.505,0.531l-0.507,0.53l-0.509,0.53l-0.511,0.527l-0.511,0.526l-0.513,0.524l-0.516,0.523l-0.516,0.521l-0.518,0.52l-0.52,0.518l-0.521,0.516l-0.523,0.516l-0.524,0.513l-0.526,0.511l-0.527,0.511l-0.53,0.509l-0.53,0.507l-0.531,0.505l-0.534,0.505l-0.535,0.502l-0.535,0.5l-0.539,0.5l-0.54,0.499l-0.541,0.495l-0.542,0.495l-0.543,0.492l-0.546,0.491l-0.547,0.49l-0.548,0.489l-0.55,0.486l-0.551,0.485l-0.553,0.483l-0.553,0.481l-0.556,0.48l-0.558,0.479l-0.558,0.476l-0.56,0.475l-0.562,0.474l-0.562,0.471l-0.565,0.471l-0.566,0.468l-0.567,0.467l-0.568,0.465l-0.57,0.463l-0.572,0.462l-0.573,0.46l-0.574,0.458l-0.575,0.457l-0.577,0.454l-0.579,0.454l-0.58,0.452l-0.581,0.45l-0.583,0.448l-0.583,0.446l-0.586,0.445l-0.587,0.443l-0.588,0.441l-0.59,0.44l-0.591,0.438l-0.592,0.436l-0.593,0.434l-0.595,0.433l-0.597,0.432l-0.597,0.428l-0.599,0.428l-0.6,0.425l-0.602,0.425l-0.604,0.422l-0.603,0.42l-0.606,0.419l-0.608,0.417l-0.608,0.415l-0.609,0.413l-0.611,0.412l-0.612,0.409l-0.614,0.408l-0.615,0.407l-0.615,0.403l-0.618,0.404l-0.619,0.4l-0.62,0.399l-0.621,0.397l-0.622,0.395l-0.625,0.394l-0.625,0.392l-0.626,0.39l-0.627,0.387l-0.63,0.387l-0.63,0.384l-0.631,0.383l-0.633,0.38l-0.633,0.379l-0.636,0.377l-0.636,0.375l-0.637,0.373l-0.639,0.372l-0.641,0.37l-0.641,0.367l-0.643,0.366l-0.643,0.364l-0.644,0.361l-0.647,0.361l-0.648,0.358l-0.648,0.356l-0.65,0.355l-0.65,0.352l-0.652,0.351l-0.654,0.349l-0.654,0.346l-0.655,0.345l-0.658,0.343l-0.658,0.341l-0.659,0.339l-0.66,0.337l-0.661,0.335l-0.663,0.334l-0.664,0.331l-0.665,0.329l-0.666,0.328l-0.667,0.325l-0.668,0.324l-0.67,0.321l-0.671,0.32l-0.671,0.317l-0.673,0.316l-0.674,0.314l-0.675,0.311l-0.677,0.31l-0.677,0.308l-0.678,0.305l-0.68,0.304l-0.68,0.302l-0.682,0.299l-0.682,0.298l-0.685,0.296l-0.685,0.293l-0.685,0.292l-0.687,0.289l-0.689,0.288l-0.689,0.286l-0.69,0.283l-0.691,0.281l-0.692,0.28l-0.694,0.277l-0.695,0.275l-0.695,0.273l-0.696,0.272l-0.698,0.269l-0.699,0.267l-0.699,0.265l-0.701,0.263l-0.701,0.26l-0.703,0.259l-0.704,0.257l-0.704,0.254l-0.706,0.253l-0.707,0.25l-0.707,0.248l-0.709,0.246l-0.71,0.244l-0.71,0.242l-0.711,0.24l-0.713,0.238l-0.714,0.235l-0.714,0.234l-0.715,0.231l-0.717,0.229l-0.718,0.227l-0.718,0.225l-0.719,0.223l-0.721,0.22l-0.721,0.219l-0.721,0.215l-0.723,0.215l-0.725,0.212l-0.724,0.209l-0.725,0.208l-0.728,0.205l-0.727,0.203l-0.728,0.201l-0.73,0.199l-0.73,0.197l-0.731,0.194l-0.732,0.192l-0.734,0.19l-0.733,0.188l-0.735,0.186l-0.735,0.183l-0.737,0.181l-0.738,0.179l-0.737,0.176l-0.739,0.175l-0.74,0.172l-0.741,0.17l-0.742,0.168l-0.741,0.165l-0.744,0.164l-0.745,0.161l-0.744,0.158l-0.746,0.157l-0.747,0.154l-0.746,0.152l-0.749,0.149l-0.749,0.147l-0.749,0.146l-0.751,0.142l-0.752,0.141l-0.751,0.138l-0.753,0.136l-0.754,0.133l-0.755,0.132l-0.755,0.129l-0.756,0.126l-0.757,0.125l-0.757,0.121l-0.758,0.12l-0.76,0.118l-0.759,0.114l-0.76,0.113l-0.763,0.111l-0.762,0.108l-0.761,0.105l-0.765,0.104l-0.764,0.1l-0.765,0.099l-0.765,0.096l-0.766,0.094l-0.768,0.092l-0.768,0.089l-0.767,0.086l-0.769,0.085l-0.771,0.082l-0.77,0.079l-0.771,0.077l-0.772,0.075l-0.773,0.073l-0.773,0.07l-0.774,0.067l-0.774,0.065l-0.776,0.063l-0.775,0.06l-0.777,0.058l-0.777,0.056l-0.777,0.053l-0.778,0.051l-0.78,0.048l-0.78,0.046l-0.779,0.043l-0.781,0.041l-0.782,0.038l-0.782,0.036l-0.783,0.034l-0.783,0.031l-0.784,0.028l-0.784,0.026l-0.785,0.024l-0.786,0.021l-0.787,0.019l-0.786,0.016l-0.787,0.014l-0.788,0.011l-0.789,0.009l-0.788,0.006l-0.79,0.004l-0.79,0.001l-0.79,-0.001l-0.79,-0.004l-0.788,-0.006l-0.789,-0.009l-0.788,-0.011l-0.787,-0.014l-0.786,-0.016l-0.787,-0.019l-0.786,-0.021l-0.785,-0.024l-0.784,-0.026l-0.784,-0.028l-0.783,-0.031l-0.783,-0.034l-0.782,-0.036l-0.782,-0.038l-0.78,-0.041l-0.78,-0.043l-0.78,-0.046l-0.78,-0.048l-0.778,-0.051l-0.777,-0.053l-0.777,-0.056l-0.777,-0.058l-0.775,-0.06l-0.776,-0.063l-0.774,-0.065l-0.774,-0.067l-0.773,-0.07l-0.773,-0.073l-0.772,-0.075l-0.771,-0.077l-0.77,-0.079l-0.771,-0.082l-0.769,-0.085l-0.767,-0.086l-0.768,-0.089l-0.768,-0.092l-0.766,-0.094l-0.766,-0.096l-0.764,-0.099l-0.764,-0.1l-0.764,-0.104l-0.762,-0.105l-0.763,-0.108l-0.762,-0.111l-0.76,-0.113l-0.759,-0.114l-0.76,-0.118l-0.758,-0.12l-0.757,-0.121l-0.757,-0.125l-0.756,-0.126l-0.755,-0.129l-0.755,-0.132l-0.754,-0.133l-0.752,-0.136l-0.752,-0.138l-0.752,-0.141l-0.751,-0.142l-0.749,-0.145l-0.749,-0.148l-0.749,-0.149l-0.746,-0.152l-0.747,-0.154l-0.746,-0.157l-0.744,-0.158l-0.745,-0.161l-0.744,-0.164l-0.741,-0.165l-0.742,-0.168l-0.741,-0.17l-0.74,-0.172l-0.739,-0.175l-0.737,-0.176l-0.738,-0.179l-0.737,-0.181l-0.735,-0.183l-0.735,-0.186l-0.733,-0.188l-0.734,-0.19l-0.732,-0.192l-0.731,-0.194l-0.73,-0.197l-0.73,-0.199l-0.728,-0.201l-0.727,-0.203l-0.728,-0.205l-0.725,-0.208l-0.724,-0.209l-0.725,-0.212l-0.723,-0.215l-0.721,-0.215l-0.721,-0.219l-0.721,-0.22l-0.719,-0.223l-0.719,-0.225l-0.717,-0.227l-0.717,-0.229l-0.715,-0.231l-0.714,-0.234l-0.715,-0.236l-0.712,-0.237l-0.711,-0.24l-0.71,-0.241l-0.71,-0.244l-0.709,-0.247l-0.708,-0.248l-0.706,-0.25l-0.706,-0.253l-0.704,-0.254l-0.704,-0.257l-0.703,-0.259l-0.702,-0.26l-0.7,-0.263l-0.699,-0.265l-0.699,-0.267l-0.698,-0.269l-0.696,-0.271l-0.695,-0.274l-0.695,-0.275l-0.694,-0.277l-0.692,-0.28l-0.691,-0.281l-0.69,-0.283l-0.689,-0.286l-0.689,-0.288l-0.687,-0.289l-0.685,-0.292l-0.685,-0.293l-0.685,-0.296l-0.683,-0.298l-0.681,-0.299l-0.68,-0.302l-0.68,-0.304l-0.678,-0.305l-0.677,-0.308l-0.677,-0.31l-0.675,-0.311l-0.674,-0.314l-0.673,-0.316l-0.671,-0.317l-0.67,-0.319l-0.671,-0.323l-0.668,-0.323l-0.667,-0.325l-0.666,-0.328l-0.665,-0.329l-0.664,-0.331l-0.663,-0.334l-0.661,-0.335l-0.66,-0.337l-0.659,-0.339l-0.658,-0.341l-0.657,-0.343l-0.656,-0.345l-0.654,-0.346l-0.654,-0.349l-0.652,-0.351l-0.65,-0.352l-0.65,-0.355l-0.648,-0.356l-0.648,-0.358l-0.647,-0.361l-0.644,-0.361l-0.643,-0.364l-0.643,-0.366l-0.641,-0.367l-0.641,-0.37l-0.639,-0.372l-0.637,-0.373l-0.636,-0.375l-0.635,-0.377l-0.634,-0.379l-0.633,-0.38l-0.631,-0.383l-0.63,-0.384l-0.63,-0.386l-0.627,-0.388l-0.626,-0.39l-0.625,-0.392l-0.625,-0.394l-0.622,-0.395l-0.621,-0.397l-0.62,-0.399l-0.619,-0.4l-0.618,-0.404l-0.615,-0.403l-0.615,-0.407l-0.614,-0.408l-0.612,-0.409l-0.611,-0.412l-0.61,-0.413l-0.607,-0.415l-0.608,-0.417l-0.606,-0.419l-0.603,-0.42l-0.603,-0.422l-0.603,-0.425l-0.6,-0.425l-0.599,-0.428l-0.597,-0.429l-0.596,-0.43l-0.596,-0.434l-0.593,-0.434l-0.592,-0.436l-0.591,-0.438l-0.59,-0.44l-0.588,-0.441l-0.586,-0.443l-0.587,-0.445l-0.584,-0.447l-0.582,-0.447l-0.581,-0.45l-0.58,-0.452l-0.579,-0.453l-0.576,-0.455l-0.576,-0.457l-0.574,-0.458l-0.573,-0.46l-0.572,-0.462l-0.57,-0.464l-0.568,-0.464l-0.567,-0.467l-0.566,-0.468l-0.565,-0.471l-0.562,-0.471l-0.561,-0.473l-0.561,-0.476l-0.558,-0.476l-0.557,-0.479l-0.556,-0.48l-0.554,-0.481l-0.553,-0.483l-0.551,-0.485l-0.55,-0.486l-0.548,-0.488l-0.547,-0.49l-0.546,-0.492l-0.543,-0.493l-0.543,-0.494l-0.54,-0.496l-0.54,-0.498l-0.538,-0.499l-0.536,-0.501l-0.535,-0.502l-0.534,-0.505l-0.532,-0.505l-0.53,-0.507l-0.529,-0.509l-0.527,-0.511l-0.526,-0.511l-0.524,-0.513l-0.523,-0.516l-0.521,-0.516l-0.52,-0.518l-0.518,-0.52l-0.516,-0.521l-0.516,-0.523l-0.513,-0.524l-0.512,-0.526l-0.51,-0.527l-0.509,-0.529l-0.507,-0.531l-0.506,-0.531l-0.504,-0.534l-0.502,-0.534l-0.501,-0.537l-0.499,-0.538l-0.498,-0.539l-0.496,-0.541l-0.495,-0.543l-0.493,-0.544l-0.491,-0.545l-0.489,-0.546l-0.488,-0.549l-0.487,-0.55l-0.485,-0.551l-0.483,-0.553l-0.481,-0.554l-0.48,-0.556l-0.479,-0.557l-0.477,-0.559l-0.474,-0.559l-0.474,-0.561l-0.471,-0.564l-0.47,-0.564l-0.469,-0.566l-0.467,-0.567l-0.465,-0.568l-0.463,-0.57l-0.462,-0.572l-0.46,-0.573l-0.458,-0.574l-0.457,-0.575l-0.455,-0.577l-0.453,-0.579l-0.452,-0.58l-0.45,-0.581l-0.448,-0.583l-0.446,-0.584l-0.445,-0.585l-0.443,-0.587l-0.442,-0.588l-0.439,-0.59l-0.438,-0.59l-0.436,-0.593l-0.434,-0.593l-0.433,-0.595l-0.431,-0.597l-0.429,-0.597l-0.428,-0.599l-0.426,-0.601l-0.423,-0.601l-0.422,-0.603l-0.421,-0.605l-0.419,-0.605l-0.417,-0.607l-0.415,-0.609l-0.413,-0.609l-0.411,-0.611l-0.41,-0.612l-0.408,-0.614l-0.406,-0.615l-0.405,-0.616l-0.402,-0.617l-0.401,-0.619l-0.399,-0.62l-0.397,-0.621l-0.396,-0.623l-0.393,-0.624l-0.392,-0.625l-0.39,-0.626l-0.388,-0.628l-0.386,-0.629l-0.384,-0.63l-0.383,-0.631l-0.38,-0.632l-0.379,-0.634l-0.377,-0.636l-0.375,-0.636l-0.374,-0.638l-0.371,-0.639l-0.369,-0.64l-0.368,-0.641l-0.366,-0.642l-0.364,-0.644l-0.362,-0.645l-0.36,-0.646l-0.358,-0.647l-0.356,-0.649l-0.355,-0.649l-0.352,-0.652l-0.351,-0.652l-0.348,-0.653l-0.347,-0.655l-0.345,-0.655l-0.343,-0.657l-0.341,-0.658l-0.339,-0.659l-0.337,-0.66l-0.335,-0.662l-0.334,-0.663l-0.331,-0.663l-0.329,-0.665l-0.328,-0.666l-0.325,-0.667l-0.324,-0.669l-0.321,-0.669l-0.32,-0.67l-0.318,-0.673l-0.315,-0.672l-0.314,-0.674l-0.311,-0.675l-0.31,-0.676l-0.308,-0.677l-0.306,-0.68l-0.303,-0.679l-0.302,-0.68l-0.299,-0.682l-0.298,-0.683l-0.296,-0.683l-0.293,-0.685l-0.292,-0.686l-0.289,-0.687l-0.288,-0.689l-0.285,-0.689l-0.284,-0.69l-0.281,-0.691l-0.28,-0.692l-0.277,-0.694l-0.275,-0.694l-0.273,-0.696l-0.272,-0.697l-0.269,-0.697l-0.267,-0.698l-0.265,-0.7l-0.263,-0.701l-0.26,-0.701l-0.259,-0.703l-0.257,-0.704l-0.254,-0.704l-0.253,-0.706l-0.25,-0.707l-0.248,-0.708l-0.246,-0.708l-0.244,-0.709l-0.242,-0.711l-0.24,-0.712l-0.238,-0.712l-0.235,-0.713l-0.234,-0.715l-0.231,-0.716l-0.229,-0.716l-0.227,-0.718l-0.225,-0.718l-0.222,-0.719l-0.221,-0.72l-0.218,-0.721l-0.217,-0.722l-0.214,-0.724l-0.212,-0.723l-0.209,-0.725l-0.208,-0.726l-0.205,-0.726l-0.203,-0.728l-0.201,-0.729l-0.199,-0.729l-0.197,-0.73l-0.194,-0.731l-0.192,-0.732l-0.19,-0.733l-0.188,-0.734l-0.186,-0.735l-0.183,-0.736l-0.181,-0.736l-0.179,-0.737l-0.177,-0.739l-0.174,-0.738l-0.172,-0.74l-0.17,-0.741l-0.168,-0.741l-0.165,-0.743l-0.164,-0.743l-0.16,-0.744l-0.159,-0.745l-0.157,-0.746l-0.154,-0.746l-0.152,-0.748l-0.149,-0.748l-0.147,-0.749l-0.146,-0.75l-0.142,-0.75l-0.141,-0.751l-0.138,-0.752l-0.136,-0.753l-0.133,-0.754l-0.132,-0.754l-0.129,-0.756l-0.126,-0.756l-0.125,-0.757l-0.121,-0.757l-0.12,-0.758l-0.117,-0.759l-0.116,-0.761l-0.112,-0.76l-0.111,-0.761l-0.108,-0.762l-0.105,-0.763l-0.103,-0.763l-0.101,-0.765l-0.099,-0.765l-0.096,-0.765l-0.094,-0.766l-0.092,-0.768l-0.089,-0.767l-0.086,-0.769l-0.085,-0.769l-0.082,-0.769l-0.079,-0.771l-0.077,-0.772l-0.075,-0.771l-0.073,-0.773l-0.07,-0.773l-0.067,-0.774l-0.065,-0.774l-0.063,-0.776l-0.06,-0.775l-0.058,-0.777l-0.056,-0.777l-0.053,-0.777l-0.051,-0.779l-0.048,-0.779l-0.046,-0.78l-0.043,-0.78l-0.041,-0.78l-0.038,-0.782l-0.036,-0.782l-0.034,-0.783l-0.031,-0.783l-0.028,-0.784l-0.026,-0.784l-0.024,-0.785l-0.021,-0.786l-0.019,-0.786l-0.016,-0.787l-0.014,-0.787l-0.011,-0.788l-0.009,-0.789l-0.006,-0.789l-0.004,-0.789l-0.001,-0.79l0.001,-0.79l0.004,-0.789l0.006,-0.789l0.009,-0.789l0.011,-0.788l0.014,-0.787l0.016,-0.787l0.019,-0.786l0.021,-0.786l0.024,-0.785l0.026,-0.784l0.028,-0.784l0.031,-0.783l0.034,-0.783l0.036,-0.782l0.038,-0.782l0.041,-0.78l0.043,-0.78l0.046,-0.78l0.048,-0.779l0.051,-0.779l0.053,-0.777l0.056,-0.777l0.058,-0.777l0.06,-0.775l0.063,-0.776l0.065,-0.774l0.067,-0.774l0.07,-0.773l0.073,-0.773l0.075,-0.771l0.077,-0.772l0.079,-0.77l0.082,-0.77l0.085,-0.769l0.086,-0.769l0.089,-0.767l0.092,-0.768l0.094,-0.766l0.096,-0.765l0.099,-0.765l0.101,-0.765l0.103,-0.763l0.105,-0.763l0.109,-0.762l0.11,-0.761l0.112,-0.76l0.116,-0.761l0.117,-0.759l0.12,-0.758l0.121,-0.757l0.125,-0.757l0.126,-0.756l0.129,-0.756l0.132,-0.754l0.133,-0.754l0.136,-0.753l0.138,-0.752l0.141,-0.751l0.142,-0.75l0.145,-0.75l0.148,-0.749l0.149,-0.748l0.152,-0.748l0.154,-0.746l0.157,-0.746l0.159,-0.745l0.16,-0.744l0.164,-0.743l0.165,-0.743l0.168,-0.741l0.17,-0.741l0.172,-0.74l0.174,-0.739l0.177,-0.738l0.179,-0.737l0.181,-0.736l0.183,-0.736l0.186,-0.735l0.188,-0.734l0.19,-0.733l0.192,-0.731l0.194,-0.732l0.197,-0.73l0.199,-0.729l0.201,-0.729l0.203,-0.728l0.205,-0.726l0.208,-0.726l0.209,-0.725l0.212,-0.724l0.214,-0.723l0.217,-0.722l0.218,-0.721l0.22,-0.72l0.223,-0.719l0.225,-0.719l0.227,-0.717l0.229,-0.716l0.231,-0.716l0.234,-0.714l0.235,-0.714l0.238,-0.712l0.24,-0.712l0.242,-0.71l0.244,-0.71l0.246,-0.709l0.248,-0.708l0.25,-0.706l0.253,-0.706l0.254,-0.704l0.257,-0.704l0.259,-0.702l0.26,-0.703l0.263,-0.7l0.265,-0.7l0.267,-0.698l0.269,-0.698l0.271,-0.696l0.274,-0.696l0.275,-0.694l0.277,-0.694l0.28,-0.692l0.281,-0.691l0.284,-0.69l0.285,-0.689l0.288,-0.689l0.289,-0.687l0.292,-0.686l0.293,-0.685l0.296,-0.683l0.298,-0.683l0.299,-0.682l0.302,-0.68l0.304,-0.68l0.305,-0.679l0.308,-0.677l0.31,-0.676l0.311,-0.675l0.314,-0.674l0.316,-0.672l0.317,-0.672l0.32,-0.671l0.321,-0.669l0.324,-0.669l0.325,-0.667l0.328,-0.666l0.329,-0.665l0.331,-0.664l0.333,-0.662l0.336,-0.662l0.337,-0.66l0.339,-0.659l0.341,-0.658l0.343,-0.657l0.345,-0.656l0.347,-0.654l0.348,-0.653l0.351,-0.653l0.352,-0.651l0.355,-0.649l0.356,-0.649l0.358,-0.647l0.36,-0.646l0.362,-0.645l0.364,-0.644l0.366,-0.642l0.368,-0.642l0.369,-0.639l0.371,-0.639l0.374,-0.638l0.375,-0.636l0.377,-0.635l0.379,-0.635l0.38,-0.632l0.383,-0.631l0.384,-0.63l0.386,-0.629l0.388,-0.628l0.39,-0.626l0.392,-0.626l0.393,-0.623l0.396,-0.623l0.397,-0.621l0.399,-0.62l0.401,-0.619l0.402,-0.617l0.405,-0.616l0.406,-0.615l0.408,-0.614l0.41,-0.612l0.411,-0.611l0.413,-0.609l0.416,-0.609l0.416,-0.607l0.419,-0.605l0.42,-0.605l0.423,-0.603l0.424,-0.602l0.425,-0.6l0.428,-0.599l0.429,-0.598l0.431,-0.596l0.433,-0.595l0.434,-0.593l0.436,-0.592l0.438,-0.591l0.44,-0.59l0.441,-0.588l0.443,-0.587l0.445,-0.585l0.446,-0.584l0.448,-0.583l0.45,-0.581l0.452,-0.58l0.453,-0.578l0.455,-0.577l0.457,-0.576l0.458,-0.574l0.46,-0.573l0.462,-0.572l0.464,-0.57l0.464,-0.568l0.467,-0.567l0.469,-0.566l0.47,-0.565l0.471,-0.562l0.473,-0.561l0.476,-0.561l0.476,-0.558l0.478,-0.557l0.48,-0.556l0.482,-0.554l0.483,-0.553l0.485,-0.551l0.486,-0.55l0.489,-0.548l0.489,-0.547l0.491,-0.545l0.493,-0.544l0.495,-0.543l0.496,-0.541l0.498,-0.539l0.499,-0.538l0.501,-0.536l0.502,-0.535l0.504,-0.534l0.506,-0.532l0.507,-0.53l0.509,-0.529l0.51,-0.527l0.512,-0.526l0.513,-0.524l0.516,-0.523l0.516,-0.521l0.518,-0.52l0.52,-0.518l0.521,-0.516l0.523,-0.516l0.524,-0.513l0.526,-0.512l0.527,-0.51l0.529,-0.509l0.53,-0.507l0.532,-0.506l0.534,-0.504l0.535,-0.502l0.536,-0.501l0.538,-0.499l0.539,-0.498l0.541,-0.496l0.543,-0.495l0.544,-0.493l0.545,-0.491l0.547,-0.489l0.548,-0.489l0.55,-0.486l0.551,-0.485l0.553,-0.483l0.554,-0.482l0.556,-0.48l0.557,-0.478l0.558,-0.476l0.561,-0.476l0.561,-0.473l0.562,-0.471l0.565,-0.47l0.566,-0.469l0.567,-0.467l0.568,-0.464l0.57,-0.464l0.572,-0.462l0.573,-0.46l0.574,-0.458l0.576,-0.457l0.577,-0.455l0.578,-0.453l0.58,-0.452l0.581,-0.45l0.583,-0.448l0.584,-0.446l0.585,-0.445l0.587,-0.443l0.588,-0.441l0.59,-0.44l0.591,-0.438l0.592,-0.436l0.593,-0.434l0.595,-0.433l0.596,-0.431l0.598,-0.429l0.599,-0.428l0.6,-0.425l0.602,-0.424l0.603,-0.423l0.605,-0.42l0.605,-0.419l0.607,-0.416l0.609,-0.416l0.609,-0.413l0.611,-0.411l0.612,-0.41l0.614,-0.408l0.615,-0.406l0.616,-0.405l0.617,-0.402l0.619,-0.401l0.62,-0.399l0.621,-0.397l0.623,-0.396l0.623,-0.393l0.626,-0.392l0.626,-0.39l0.628,-0.388l0.629,-0.386l0.63,-0.384l0.631,-0.383l0.632,-0.38l0.635,-0.379l0.635,-0.377l0.636,-0.375l0.638,-0.374l0.639,-0.371l0.639,-0.369l0.642,-0.368l0.642,-0.366l0.644,-0.364l0.645,-0.362l0.646,-0.36l0.647,-0.358l0.649,-0.356l0.649,-0.355l0.651,-0.352l0.653,-0.351l0.653,-0.348l0.654,-0.347l0.656,-0.345l0.657,-0.343l0.658,-0.341l0.659,-0.339l0.66,-0.337l0.662,-0.336l0.662,-0.333l0.664,-0.331l0.665,-0.329l0.666,-0.328l0.667,-0.325l0.669,-0.324l0.669,-0.321l0.671,-0.32l0.672,-0.317l0.672,-0.316l0.674,-0.314l0.675,-0.311l0.676,-0.31l0.677,-0.308l0.679,-0.305l0.68,-0.304l0.68,-0.302l0.682,-0.299l0.683,-0.298l0.683,-0.296l0.685,-0.293l0.686,-0.292l0.687,-0.289l0.689,-0.288l0.689,-0.285l0.69,-0.284l0.691,-0.281l0.692,-0.28l0.694,-0.277l0.694,-0.275l0.696,-0.274l0.696,-0.271l0.698,-0.269l0.698,-0.267l0.7,-0.265l0.7,-0.263l0.703,-0.26l0.702,-0.259l0.704,-0.257l0.704,-0.254l0.706,-0.253l0.706,-0.25l0.708,-0.248l0.709,-0.246l0.71,-0.244l0.71,-0.242l0.712,-0.24l0.712,-0.238l0.714,-0.235l0.714,-0.234l0.716,-0.231l0.716,-0.229l0.717,-0.227l0.719,-0.225l0.719,-0.223l0.72,-0.22l0.721,-0.218l0.722,-0.217l0.723,-0.214l0.724,-0.212l0.725,-0.209l0.726,-0.208l0.726,-0.205l0.728,-0.203l0.729,-0.201l0.729,-0.199l0.73,-0.197l0.732,-0.194l0.731,-0.192l0.733,-0.19l0.734,-0.188l0.735,-0.186l0.736,-0.183l0.736,-0.181l0.737,-0.179l0.738,-0.177l0.739,-0.174l0.74,-0.172l0.741,-0.17l0.741,-0.168l0.743,-0.165l0.743,-0.164l0.744,-0.16l0.745,-0.159l0.746,-0.157l0.746,-0.154l0.748,-0.152l0.748,-0.149l0.749,-0.148l0.75,-0.145l0.75,-0.142l0.751,-0.141l0.752,-0.138l0.753,-0.136l0.754,-0.133l0.754,-0.132l0.756,-0.129l0.756,-0.126l0.757,-0.125l0.757,-0.121l0.758,-0.12l0.759,-0.117l0.761,-0.116l0.76,-0.112l0.761,-0.11l0.762,-0.109l0.763,-0.105l0.763,-0.103l0.765,-0.101l0.765,-0.099l0.765,-0.096l0.766,-0.094l0.768,-0.092l0.767,-0.089l0.769,-0.086l0.769,-0.085l0.77,-0.082l0.77,-0.079l0.772,-0.077l0.771,-0.075l0.773,-0.073l0.773,-0.07l0.774,-0.067l0.774,-0.065l0.776,-0.063l0.775,-0.06l0.777,-0.058l0.777,-0.056l0.777,-0.053l0.779,-0.051l0.779,-0.048l0.78,-0.046l0.78,-0.043l0.78,-0.041l0.782,-0.038l0.782,-0.036l0.783,-0.034l0.783,-0.031l0.784,-0.028l0.784,-0.026l0.785,-0.024l0.786,-0.021l0.786,-0.019l0.787,-0.016l0.787,-0.014l0.788,-0.011l0.789,-0.009l0.789,-0.006l0.789,-0.004l0.79,-0.001l0.79,0.001Zm-1.521,18.755l-0.73,0.004l-0.729,0.005l-0.729,0.009l-0.728,0.01l-0.728,0.013l-0.728,0.015l-0.726,0.017l-0.727,0.019l-0.725,0.022l-0.725,0.024l-0.725,0.027l-0.723,0.029l-0.724,0.031l-0.722,0.033l-0.723,0.035l-0.721,0.038l-0.721,0.04l-0.72,0.042l-0.72,0.045l-0.719,0.047l-0.719,0.049l-0.718,0.051l-0.717,0.054l-0.717,0.055l-0.716,0.058l-0.715,0.06l-0.715,0.063l-0.714,0.065l-0.713,0.066l-0.713,0.069l-0.712,0.072l-0.712,0.073l-0.711,0.076l-0.71,0.078l-0.71,0.08l-0.709,0.082l-0.708,0.085l-0.708,0.086l-0.706,0.089l-0.707,0.091l-0.705,0.093l-0.705,0.096l-0.704,0.097l-0.704,0.1l-0.703,0.102l-0.702,0.104l-0.701,0.106l-0.701,0.108l-0.7,0.111l-0.699,0.112l-0.699,0.115l-0.698,0.117l-0.697,0.119l-0.696,0.121l-0.696,0.124l-0.695,0.125l-0.694,0.127l-0.694,0.13l-0.692,0.132l-0.692,0.134l-0.692,0.136l-0.69,0.138l-0.69,0.14l-0.689,0.142l-0.688,0.145l-0.688,0.146l-0.686,0.149l-0.686,0.15l-0.685,0.153l-0.685,0.155l-0.683,0.156l-0.683,0.159l-0.682,0.161l-0.681,0.163l-0.681,0.165l-0.679,0.168l-0.679,0.169l-0.678,0.171l-0.677,0.173l-0.676,0.176l-0.676,0.177l-0.675,0.179l-0.674,0.182l-0.673,0.183l-0.672,0.186l-0.671,0.187l-0.671,0.19l-0.669,0.191l-0.669,0.194l-0.668,0.195l-0.667,0.198l-0.667,0.199l-0.665,0.202l-0.665,0.203l-0.663,0.206l-0.663,0.207l-0.662,0.21l-0.661,0.211l-0.661,0.213l-0.659,0.216l-0.658,0.217l-0.658,0.219l-0.656,0.222l-0.656,0.223l-0.655,0.225l-0.654,0.227l-0.653,0.229l-0.652,0.231l-0.651,0.233l-0.651,0.235l-0.649,0.237l-0.648,0.239l-0.648,0.24l-0.646,0.243l-0.646,0.245l-0.645,0.246l-0.643,0.248l-0.643,0.251l-0.642,0.252l-0.641,0.254l-0.64,0.256l-0.639,0.257l-0.638,0.26l-0.637,0.262l-0.636,0.263l-0.635,0.266l-0.634,0.267l-0.633,0.269l-0.632,0.271l-0.632,0.273l-0.63,0.275l-0.629,0.276l-0.628,0.279l-0.627,0.28l-0.626,0.282l-0.626,0.284l-0.624,0.286l-0.623,0.288l-0.622,0.289l-0.621,0.291l-0.62,0.294l-0.619,0.295l-0.618,0.296l-0.617,0.299l-0.616,0.3l-0.615,0.303l-0.613,0.304l-0.613,0.305l-0.612,0.308l-0.61,0.31l-0.61,0.311l-0.609,0.313l-0.607,0.315l-0.606,0.316l-0.606,0.319l-0.604,0.32l-0.603,0.322l-0.602,0.323l-0.601,0.326l-0.6,0.327l-0.599,0.329l-0.597,0.331l-0.597,0.332l-0.595,0.334l-0.595,0.336l-0.593,0.338l-0.592,0.34l-0.591,0.341l-0.59,0.343l-0.589,0.344l-0.587,0.347l-0.587,0.348l-0.585,0.349l-0.584,0.352l-0.583,0.353l-0.582,0.355l-0.581,0.357l-0.579,0.358l-0.579,0.36l-0.577,0.362l-0.576,0.363l-0.575,0.365l-0.574,0.367l-0.572,0.368l-0.572,0.371l-0.57,0.371l-0.569,0.374l-0.568,0.375l-0.566,0.377l-0.566,0.378l-0.564,0.38l-0.563,0.382l-0.562,0.383l-0.56,0.385l-0.56,0.387l-0.558,0.388l-0.557,0.39l-0.556,0.392l-0.554,0.393l-0.553,0.395l-0.553,0.396l-0.55,0.398l-0.55,0.4l-0.548,0.401l-0.547,0.403l-0.546,0.405l-0.545,0.406l-0.543,0.407l-0.542,0.41l-0.541,0.411l-0.539,0.412l-0.538,0.414l-0.537,0.416l-0.536,0.417l-0.534,0.418l-0.533,0.421l-0.532,0.422l-0.53,0.423l-0.53,0.425l-0.528,0.427l-0.526,0.428l-0.525,0.429l-0.524,0.431l-0.523,0.433l-0.521,0.434l-0.52,0.436l-0.519,0.437l-0.517,0.439l-0.516,0.441l-0.515,0.441l-0.513,0.444l-0.512,0.445l-0.511,0.446l-0.509,0.448l-0.508,0.449l-0.507,0.451l-0.505,0.453l-0.504,0.454l-0.502,0.455l-0.501,0.457l-0.5,0.458l-0.498,0.46l-0.497,0.461l-0.496,0.463l-0.494,0.464l-0.493,0.466l-0.491,0.467l-0.49,0.469l-0.489,0.47l-0.487,0.471l-0.486,0.473l-0.484,0.474l-0.483,0.476l-0.482,0.478l-0.48,0.478l-0.478,0.48l-0.478,0.482l-0.476,0.483l-0.474,0.484l-0.473,0.486l-0.471,0.487l-0.47,0.489l-0.469,0.49l-0.467,0.491l-0.466,0.493l-0.464,0.494l-0.463,0.496l-0.461,0.497l-0.46,0.498l-0.458,0.5l-0.457,0.501l-0.455,0.502l-0.454,0.504l-0.453,0.505l-0.451,0.507l-0.449,0.508l-0.448,0.509l-0.446,0.511l-0.445,0.512l-0.444,0.513l-0.441,0.515l-0.441,0.516l-0.439,0.517l-0.437,0.519l-0.436,0.52l-0.434,0.521l-0.433,0.523l-0.431,0.524l-0.429,0.525l-0.428,0.526l-0.427,0.528l-0.425,0.53l-0.423,0.53l-0.422,0.532l-0.421,0.533l-0.418,0.534l-0.417,0.536l-0.416,0.537l-0.414,0.538l-0.412,0.539l-0.411,0.541l-0.41,0.542l-0.407,0.543l-0.406,0.545l-0.405,0.546l-0.403,0.547l-0.401,0.548l-0.4,0.55l-0.398,0.55l-0.396,0.553l-0.395,0.553l-0.393,0.554l-0.392,0.556l-0.39,0.557l-0.388,0.558l-0.387,0.56l-0.385,0.56l-0.383,0.562l-0.382,0.563l-0.38,0.564l-0.378,0.566l-0.377,0.566l-0.375,0.568l-0.374,0.569l-0.371,0.57l-0.371,0.572l-0.368,0.572l-0.367,0.574l-0.365,0.575l-0.363,0.576l-0.362,0.577l-0.36,0.579l-0.358,0.579l-0.357,0.581l-0.355,0.582l-0.353,0.583l-0.352,0.584l-0.349,0.585l-0.348,0.587l-0.347,0.587l-0.344,0.589l-0.343,0.59l-0.341,0.591l-0.34,0.592l-0.338,0.593l-0.336,0.595l-0.334,0.595l-0.332,0.597l-0.331,0.597l-0.329,0.599l-0.327,0.6l-0.326,0.601l-0.323,0.602l-0.322,0.603l-0.32,0.604l-0.319,0.606l-0.316,0.606l-0.315,0.607l-0.313,0.609l-0.311,0.61l-0.31,0.61l-0.308,0.612l-0.305,0.613l-0.304,0.613l-0.303,0.615l-0.3,0.616l-0.299,0.617l-0.296,0.618l-0.295,0.619l-0.294,0.62l-0.291,0.621l-0.289,0.622l-0.288,0.623l-0.286,0.624l-0.284,0.626l-0.282,0.626l-0.28,0.627l-0.279,0.628l-0.276,0.629l-0.275,0.63l-0.273,0.632l-0.271,0.632l-0.269,0.633l-0.267,0.634l-0.266,0.635l-0.263,0.636l-0.262,0.637l-0.26,0.638l-0.257,0.639l-0.256,0.64l-0.254,0.641l-0.252,0.642l-0.251,0.643l-0.248,0.643l-0.246,0.645l-0.245,0.646l-0.243,0.646l-0.24,0.648l-0.239,0.648l-0.237,0.649l-0.235,0.651l-0.233,0.651l-0.231,0.652l-0.229,0.653l-0.227,0.654l-0.225,0.655l-0.223,0.656l-0.222,0.656l-0.219,0.658l-0.217,0.658l-0.216,0.659l-0.213,0.661l-0.211,0.661l-0.21,0.662l-0.207,0.663l-0.206,0.663l-0.203,0.665l-0.202,0.665l-0.199,0.667l-0.198,0.667l-0.195,0.668l-0.194,0.669l-0.191,0.669l-0.19,0.671l-0.187,0.671l-0.186,0.672l-0.183,0.673l-0.182,0.674l-0.179,0.675l-0.177,0.676l-0.176,0.676l-0.173,0.677l-0.171,0.678l-0.169,0.679l-0.168,0.679l-0.165,0.681l-0.163,0.681l-0.161,0.682l-0.159,0.683l-0.156,0.683l-0.155,0.685l-0.153,0.685l-0.15,0.686l-0.149,0.686l-0.146,0.688l-0.145,0.688l-0.142,0.689l-0.14,0.69l-0.138,0.69l-0.136,0.692l-0.134,0.692l-0.132,0.692l-0.13,0.694l-0.127,0.694l-0.125,0.695l-0.124,0.696l-0.121,0.696l-0.119,0.697l-0.117,0.698l-0.115,0.699l-0.112,0.699l-0.111,0.7l-0.108,0.701l-0.106,0.701l-0.104,0.702l-0.102,0.703l-0.1,0.704l-0.097,0.704l-0.096,0.705l-0.093,0.705l-0.091,0.707l-0.089,0.706l-0.086,0.708l-0.085,0.708l-0.082,0.709l-0.08,0.71l-0.078,0.71l-0.076,0.711l-0.073,0.712l-0.072,0.712l-0.069,0.713l-0.066,0.713l-0.065,0.714l-0.063,0.715l-0.06,0.715l-0.058,0.716l-0.055,0.717l-0.054,0.717l-0.051,0.718l-0.049,0.719l-0.047,0.719l-0.045,0.72l-0.042,0.72l-0.04,0.721l-0.038,0.721l-0.035,0.723l-0.033,0.722l-0.031,0.724l-0.029,0.723l-0.027,0.725l-0.024,0.725l-0.022,0.725l-0.019,0.727l-0.017,0.726l-0.015,0.728l-0.013,0.728l-0.01,0.728l-0.009,0.729l-0.005,0.729l-0.004,0.73l-0.001,0.731l0.001,0.731l0.004,0.73l0.005,0.729l0.009,0.729l0.01,0.728l0.013,0.728l0.015,0.728l0.017,0.726l0.019,0.727l0.022,0.725l0.024,0.725l0.027,0.725l0.029,0.723l0.031,0.724l0.033,0.722l0.035,0.723l0.038,0.721l0.04,0.721l0.042,0.72l0.045,0.72l0.047,0.719l0.049,0.719l0.051,0.718l0.054,0.717l0.055,0.717l0.058,0.716l0.06,0.715l0.063,0.715l0.065,0.714l0.066,0.713l0.069,0.713l0.072,0.712l0.073,0.712l0.076,0.711l0.078,0.71l0.08,0.71l0.082,0.709l0.085,0.708l0.086,0.708l0.089,0.706l0.091,0.707l0.093,0.705l0.096,0.705l0.097,0.704l0.1,0.704l0.102,0.703l0.104,0.702l0.106,0.701l0.108,0.701l0.111,0.7l0.112,0.699l0.115,0.699l0.117,0.698l0.119,0.697l0.121,0.696l0.124,0.696l0.125,0.695l0.127,0.694l0.13,0.694l0.132,0.692l0.134,0.692l0.136,0.692l0.138,0.69l0.14,0.69l0.142,0.689l0.145,0.688l0.146,0.688l0.149,0.686l0.15,0.686l0.153,0.685l0.155,0.685l0.156,0.683l0.159,0.683l0.161,0.682l0.163,0.681l0.165,0.681l0.168,0.679l0.169,0.679l0.171,0.678l0.173,0.677l0.176,0.676l0.177,0.676l0.179,0.675l0.182,0.674l0.183,0.673l0.186,0.672l0.187,0.671l0.19,0.671l0.191,0.669l0.194,0.669l0.195,0.668l0.198,0.667l0.199,0.667l0.202,0.665l0.203,0.665l0.206,0.663l0.207,0.663l0.21,0.662l0.211,0.661l0.213,0.661l0.216,0.659l0.217,0.658l0.219,0.658l0.222,0.656l0.223,0.656l0.225,0.655l0.227,0.654l0.229,0.653l0.231,0.652l0.233,0.651l0.235,0.651l0.237,0.649l0.239,0.648l0.24,0.648l0.243,0.646l0.245,0.646l0.246,0.645l0.248,0.643l0.251,0.643l0.252,0.642l0.254,0.641l0.256,0.64l0.257,0.639l0.26,0.638l0.262,0.637l0.263,0.636l0.266,0.635l0.267,0.634l0.269,0.633l0.271,0.632l0.273,0.632l0.275,0.63l0.276,0.629l0.279,0.628l0.28,0.627l0.282,0.626l0.284,0.626l0.286,0.624l0.288,0.623l0.289,0.622l0.291,0.621l0.294,0.62l0.295,0.619l0.296,0.618l0.299,0.617l0.3,0.616l0.303,0.615l0.304,0.613l0.305,0.613l0.308,0.612l0.31,0.61l0.311,0.61l0.313,0.609l0.315,0.607l0.316,0.606l0.319,0.606l0.32,0.604l0.322,0.603l0.323,0.602l0.326,0.601l0.327,0.6l0.329,0.599l0.331,0.597l0.332,0.597l0.334,0.595l0.336,0.595l0.338,0.593l0.34,0.592l0.341,0.591l0.343,0.59l0.344,0.589l0.347,0.587l0.348,0.587l0.349,0.585l0.352,0.584l0.353,0.583l0.355,0.582l0.357,0.581l0.358,0.579l0.36,0.579l0.362,0.577l0.363,0.576l0.365,0.575l0.367,0.574l0.368,0.572l0.371,0.572l0.371,0.57l0.374,0.569l0.375,0.568l0.377,0.566l0.378,0.566l0.38,0.564l0.382,0.563l0.383,0.562l0.385,0.56l0.387,0.56l0.388,0.558l0.39,0.557l0.392,0.556l0.393,0.554l0.395,0.553l0.396,0.553l0.398,0.55l0.4,0.55l0.401,0.548l0.403,0.547l0.405,0.546l0.406,0.545l0.407,0.543l0.41,0.542l0.411,0.541l0.412,0.539l0.414,0.538l0.416,0.537l0.417,0.536l0.418,0.534l0.421,0.533l0.422,0.532l0.423,0.53l0.425,0.53l0.427,0.528l0.428,0.526l0.429,0.525l0.431,0.524l0.433,0.523l0.434,0.521l0.436,0.52l0.437,0.519l0.439,0.517l0.441,0.516l0.441,0.515l0.444,0.513l0.445,0.512l0.446,0.511l0.448,0.509l0.449,0.508l0.451,0.507l0.453,0.505l0.454,0.504l0.455,0.502l0.457,0.501l0.458,0.5l0.46,0.498l0.461,0.497l0.463,0.496l0.464,0.494l0.466,0.493l0.467,0.491l0.469,0.49l0.47,0.489l0.471,0.487l0.473,0.486l0.474,0.484l0.476,0.483l0.478,0.482l0.478,0.48l0.48,0.478l0.482,0.478l0.483,0.476l0.484,0.474l0.486,0.473l0.487,0.471l0.489,0.47l0.49,0.469l0.491,0.467l0.493,0.466l0.494,0.464l0.496,0.463l0.497,0.461l0.498,0.46l0.5,0.458l0.501,0.457l0.502,0.455l0.504,0.454l0.505,0.453l0.507,0.451l0.508,0.449l0.509,0.448l0.511,0.446l0.512,0.445l0.513,0.444l0.515,0.441l0.516,0.441l0.517,0.439l0.519,0.437l0.52,0.436l0.521,0.434l0.523,0.433l0.524,0.431l0.525,0.429l0.526,0.428l0.528,0.427l0.53,0.425l0.53,0.423l0.532,0.422l0.533,0.421l0.534,0.418l0.536,0.417l0.537,0.416l0.538,0.414l0.539,0.412l0.541,0.411l0.542,0.41l0.543,0.407l0.545,0.406l0.546,0.405l0.547,0.403l0.548,0.401l0.55,0.4l0.55,0.398l0.553,0.396l0.553,0.395l0.554,0.393l0.556,0.392l0.557,0.39l0.558,0.388l0.56,0.387l0.56,0.385l0.562,0.383l0.563,0.382l0.564,0.38l0.566,0.378l0.566,0.377l0.568,0.375l0.569,0.374l0.57,0.371l0.572,0.371l0.572,0.368l0.574,0.367l0.575,0.365l0.576,0.363l0.577,0.362l0.579,0.36l0.579,0.358l0.581,0.357l0.582,0.355l0.583,0.353l0.584,0.352l0.585,0.349l0.587,0.348l0.587,0.347l0.589,0.344l0.59,0.343l0.591,0.341l0.592,0.34l0.593,0.338l0.595,0.336l0.595,0.334l0.597,0.332l0.597,0.331l0.599,0.329l0.6,0.327l0.601,0.326l0.602,0.323l0.603,0.322l0.604,0.32l0.606,0.319l0.606,0.316l0.607,0.315l0.609,0.313l0.61,0.311l0.61,0.31l0.612,0.308l0.613,0.305l0.613,0.304l0.615,0.303l0.616,0.3l0.617,0.299l0.618,0.296l0.619,0.295l0.62,0.294l0.621,0.291l0.622,0.289l0.623,0.288l0.624,0.286l0.626,0.284l0.626,0.282l0.627,0.28l0.628,0.279l0.629,0.276l0.63,0.275l0.632,0.273l0.632,0.271l0.633,0.269l0.634,0.267l0.635,0.266l0.636,0.263l0.637,0.262l0.638,0.26l0.639,0.257l0.64,0.256l0.641,0.254l0.642,0.252l0.643,0.251l0.643,0.248l0.645,0.246l0.646,0.245l0.646,0.243l0.648,0.24l0.648,0.239l0.649,0.237l0.651,0.235l0.651,0.233l0.652,0.231l0.653,0.229l0.654,0.227l0.655,0.225l0.656,0.223l0.656,0.222l0.658,0.219l0.658,0.217l0.659,0.216l0.661,0.213l0.661,0.211l0.662,0.21l0.663,0.207l0.663,0.206l0.665,0.203l0.665,0.202l0.667,0.199l0.667,0.198l0.668,0.195l0.669,0.194l0.669,0.191l0.671,0.19l0.671,0.187l0.672,0.186l0.673,0.183l0.674,0.182l0.675,0.179l0.676,0.177l0.676,0.176l0.677,0.173l0.678,0.171l0.679,0.169l0.679,0.168l0.681,0.165l0.681,0.163l0.682,0.161l0.683,0.159l0.683,0.156l0.685,0.155l0.685,0.153l0.686,0.15l0.686,0.149l0.688,0.146l0.688,0.145l0.689,0.142l0.69,0.14l0.69,0.138l0.692,0.136l0.692,0.134l0.692,0.132l0.694,0.13l0.694,0.127l0.695,0.125l0.696,0.124l0.696,0.121l0.697,0.119l0.698,0.117l0.699,0.115l0.699,0.112l0.7,0.111l0.701,0.108l0.701,0.106l0.702,0.104l0.703,0.102l0.704,0.1l0.704,0.097l0.705,0.096l0.705,0.093l0.707,0.091l0.706,0.089l0.708,0.086l0.708,0.085l0.709,0.082l0.71,0.08l0.71,0.078l0.711,0.076l0.712,0.073l0.712,0.072l0.713,0.069l0.713,0.066l0.714,0.065l0.715,0.063l0.715,0.06l0.716,0.058l0.717,0.055l0.717,0.054l0.718,0.051l0.719,0.049l0.719,0.047l0.72,0.045l0.72,0.042l0.721,0.04l0.721,0.038l0.723,0.035l0.722,0.033l0.724,0.031l0.723,0.029l0.725,0.027l0.725,0.024l0.725,0.022l0.727,0.019l0.726,0.017l0.728,0.015l0.728,0.013l0.728,0.01l0.729,0.009l0.729,0.005l0.73,0.004l0.731,0.001l0.731,-0.001l0.73,-0.004l0.729,-0.005l0.729,-0.009l0.728,-0.01l0.728,-0.013l0.728,-0.015l0.726,-0.017l0.727,-0.019l0.725,-0.022l0.725,-0.024l0.725,-0.027l0.723,-0.029l0.724,-0.031l0.722,-0.033l0.723,-0.035l0.721,-0.038l0.721,-0.04l0.72,-0.042l0.72,-0.045l0.719,-0.047l0.719,-0.049l0.718,-0.051l0.717,-0.054l0.717,-0.055l0.716,-0.058l0.715,-0.06l0.715,-0.063l0.714,-0.065l0.713,-0.066l0.713,-0.069l0.712,-0.072l0.712,-0.073l0.711,-0.076l0.71,-0.078l0.71,-0.08l0.709,-0.082l0.708,-0.085l0.708,-0.086l0.706,-0.089l0.707,-0.091l0.705,-0.093l0.705,-0.096l0.704,-0.097l0.704,-0.1l0.703,-0.102l0.702,-0.104l0.701,-0.106l0.701,-0.108l0.7,-0.111l0.699,-0.112l0.699,-0.115l0.698,-0.117l0.697,-0.119l0.696,-0.121l0.696,-0.124l0.695,-0.125l0.694,-0.127l0.694,-0.13l0.692,-0.132l0.692,-0.134l0.692,-0.136l0.69,-0.138l0.69,-0.14l0.689,-0.142l0.688,-0.145l0.688,-0.146l0.686,-0.149l0.686,-0.15l0.685,-0.153l0.685,-0.155l0.683,-0.156l0.683,-0.159l0.682,-0.161l0.681,-0.163l0.681,-0.165l0.679,-0.168l0.679,-0.169l0.678,-0.171l0.677,-0.173l0.676,-0.176l0.676,-0.177l0.675,-0.179l0.674,-0.182l0.673,-0.183l0.672,-0.186l0.671,-0.187l0.671,-0.19l0.669,-0.191l0.669,-0.194l0.668,-0.195l0.667,-0.198l0.667,-0.199l0.665,-0.202l0.665,-0.203l0.663,-0.206l0.663,-0.207l0.662,-0.21l0.661,-0.211l0.661,-0.213l0.659,-0.216l0.658,-0.217l0.658,-0.219l0.656,-0.222l0.656,-0.223l0.655,-0.225l0.654,-0.227l0.653,-0.229l0.652,-0.231l0.651,-0.233l0.651,-0.235l0.649,-0.237l0.648,-0.239l0.648,-0.24l0.646,-0.243l0.646,-0.245l0.645,-0.246l0.643,-0.248l0.643,-0.251l0.642,-0.252l0.641,-0.254l0.64,-0.256l0.639,-0.257l0.638,-0.26l0.637,-0.262l0.636,-0.263l0.635,-0.266l0.634,-0.267l0.633,-0.269l0.632,-0.271l0.632,-0.273l0.63,-0.275l0.629,-0.276l0.628,-0.279l0.627,-0.28l0.626,-0.282l0.626,-0.284l0.624,-0.286l0.623,-0.288l0.622,-0.289l0.621,-0.291l0.62,-0.294l0.619,-0.295l0.618,-0.296l0.617,-0.299l0.616,-0.3l0.615,-0.303l0.613,-0.304l0.613,-0.305l0.612,-0.308l0.61,-0.31l0.61,-0.311l0.609,-0.313l0.607,-0.315l0.606,-0.316l0.606,-0.319l0.604,-0.32l0.603,-0.322l0.602,-0.323l0.601,-0.326l0.6,-0.327l0.599,-0.329l0.597,-0.331l0.597,-0.332l0.595,-0.334l0.595,-0.336l0.593,-0.338l0.592,-0.34l0.591,-0.341l0.59,-0.343l0.589,-0.344l0.587,-0.347l0.587,-0.348l0.585,-0.349l0.584,-0.352l0.583,-0.353l0.582,-0.355l0.581,-0.357l0.579,-0.358l0.579,-0.36l0.577,-0.362l0.576,-0.363l0.575,-0.365l0.574,-0.367l0.572,-0.368l0.572,-0.371l0.57,-0.371l0.569,-0.374l0.568,-0.375l0.566,-0.377l0.566,-0.378l0.564,-0.38l0.563,-0.382l0.562,-0.383l0.56,-0.385l0.56,-0.387l0.558,-0.388l0.557,-0.39l0.556,-0.392l0.554,-0.393l0.553,-0.395l0.553,-0.396l0.55,-0.398l0.55,-0.4l0.548,-0.401l0.547,-0.403l0.546,-0.405l0.545,-0.406l0.543,-0.407l0.542,-0.41l0.541,-0.411l0.539,-0.412l0.538,-0.414l0.537,-0.416l0.536,-0.417l0.534,-0.418l0.533,-0.421l0.532,-0.422l0.53,-0.423l0.53,-0.425l0.528,-0.427l0.526,-0.428l0.525,-0.429l0.524,-0.431l0.523,-0.433l0.521,-0.434l0.52,-0.436l0.519,-0.437l0.517,-0.439l0.516,-0.441l0.515,-0.441l0.513,-0.444l0.512,-0.445l0.511,-0.446l0.509,-0.448l0.508,-0.449l0.507,-0.451l0.505,-0.453l0.504,-0.454l0.502,-0.455l0.501,-0.457l0.5,-0.458l0.498,-0.46l0.497,-0.461l0.496,-0.463l0.494,-0.464l0.493,-0.466l0.491,-0.467l0.49,-0.469l0.489,-0.47l0.487,-0.471l0.486,-0.473l0.484,-0.474l0.483,-0.476l0.482,-0.478l0.48,-0.478l0.478,-0.48l0.478,-0.482l0.476,-0.483l0.474,-0.484l0.473,-0.486l0.471,-0.487l0.47,-0.489l0.469,-0.49l0.467,-0.491l0.466,-0.493l0.464,-0.494l0.463,-0.496l0.461,-0.497l0.46,-0.498l0.458,-0.5l0.457,-0.501l0.455,-0.502l0.454,-0.504l0.453,-0.505l0.451,-0.507l0.449,-0.508l0.448,-0.509l0.446,-0.511l0.445,-0.512l0.444,-0.513l0.441,-0.515l0.441,-0.516l0.439,-0.517l0.437,-0.519l0.436,-0.52l0.434,-0.521l0.433,-0.523l0.431,-0.524l0.429,-0.525l0.428,-0.526l0.427,-0.528l0.425,-0.53l0.423,-0.53l0.422,-0.532l0.421,-0.533l0.418,-0.534l0.417,-0.536l0.416,-0.537l0.414,-0.538l0.412,-0.539l0.411,-0.541l0.41,-0.542l0.407,-0.543l0.406,-0.545l0.405,-0.546l0.403,-0.547l0.401,-0.548l0.4,-0.55l0.398,-0.55l0.396,-0.553l0.395,-0.553l0.393,-0.554l0.392,-0.556l0.39,-0.557l0.388,-0.558l0.387,-0.56l0.385,-0.56l0.383,-0.562l0.382,-0.563l0.38,-0.564l0.378,-0.566l0.377,-0.566l0.375,-0.568l0.374,-0.569l0.371,-0.57l0.371,-0.572l0.368,-0.572l0.367,-0.574l0.365,-0.575l0.363,-0.576l0.362,-0.577l0.36,-0.579l0.358,-0.579l0.357,-0.581l0.355,-0.582l0.353,-0.583l0.352,-0.584l0.349,-0.585l0.348,-0.587l0.347,-0.587l0.344,-0.589l0.343,-0.59l0.341,-0.591l0.34,-0.592l0.338,-0.593l0.336,-0.595l0.334,-0.595l0.332,-0.597l0.331,-0.597l0.329,-0.599l0.327,-0.6l0.326,-0.601l0.323,-0.602l0.322,-0.603l0.32,-0.604l0.319,-0.606l0.316,-0.606l0.315,-0.607l0.313,-0.609l0.311,-0.61l0.31,-0.61l0.308,-0.612l0.305,-0.613l0.304,-0.613l0.303,-0.615l0.3,-0.616l0.299,-0.617l0.296,-0.618l0.295,-0.619l0.294,-0.62l0.291,-0.621l0.289,-0.622l0.288,-0.623l0.286,-0.624l0.284,-0.626l0.282,-0.626l0.28,-0.627l0.279,-0.628l0.276,-0.629l0.275,-0.63l0.273,-0.632l0.271,-0.632l0.269,-0.633l0.267,-0.634l0.266,-0.635l0.263,-0.636l0.262,-0.637l0.26,-0.638l0.257,-0.639l0.256,-0.64l0.254,-0.641l0.252,-0.642l0.251,-0.643l0.248,-0.643l0.246,-0.645l0.245,-0.646l0.243,-0.646l0.24,-0.648l0.239,-0.648l0.237,-0.649l0.235,-0.651l0.233,-0.651l0.231,-0.652l0.229,-0.653l0.227,-0.654l0.225,-0.655l0.223,-0.656l0.222,-0.656l0.219,-0.658l0.217,-0.658l0.216,-0.659l0.213,-0.661l0.211,-0.661l0.21,-0.662l0.207,-0.663l0.206,-0.663l0.203,-0.665l0.202,-0.665l0.199,-0.667l0.198,-0.667l0.195,-0.668l0.194,-0.669l0.191,-0.669l0.19,-0.671l0.187,-0.671l0.186,-0.672l0.183,-0.673l0.182,-0.674l0.179,-0.675l0.177,-0.676l0.176,-0.676l0.173,-0.677l0.171,-0.678l0.169,-0.679l0.168,-0.679l0.165,-0.681l0.163,-0.681l0.161,-0.682l0.159,-0.683l0.156,-0.683l0.155,-0.685l0.153,-0.685l0.15,-0.686l0.149,-0.686l0.146,-0.688l0.145,-0.688l0.142,-0.689l0.14,-0.69l0.138,-0.69l0.136,-0.692l0.134,-0.692l0.132,-0.692l0.13,-0.694l0.127,-0.694l0.125,-0.695l0.124,-0.696l0.121,-0.696l0.119,-0.697l0.117,-0.698l0.115,-0.699l0.112,-0.699l0.111,-0.7l0.108,-0.701l0.106,-0.701l0.104,-0.702l0.102,-0.703l0.1,-0.704l0.097,-0.704l0.096,-0.705l0.093,-0.705l0.091,-0.707l0.089,-0.706l0.086,-0.708l0.085,-0.708l0.082,-0.709l0.08,-0.71l0.078,-0.71l0.076,-0.711l0.073,-0.712l0.072,-0.712l0.069,-0.713l0.066,-0.713l0.065,-0.714l0.063,-0.715l0.06,-0.715l0.058,-0.716l0.055,-0.717l0.054,-0.717l0.051,-0.718l0.049,-0.719l0.047,-0.719l0.045,-0.72l0.042,-0.72l0.04,-0.721l0.038,-0.721l0.035,-0.723l0.033,-0.722l0.031,-0.724l0.029,-0.723l0.027,-0.725l0.024,-0.725l0.022,-0.725l0.019,-0.727l0.017,-0.726l0.015,-0.728l0.013,-0.728l0.01,-0.728l0.009,-0.729l0.005,-0.729l0.004,-0.73l0.001,-0.731l-0.001,-0.731l-0.004,-0.73l-0.005,-0.729l-0.009,-0.729l-0.01,-0.728l-0.013,-0.728l-0.015,-0.728l-0.017,-0.726l-0.019,-0.727l-0.022,-0.725l-0.024,-0.725l-0.027,-0.725l-0.029,-0.723l-0.031,-0.724l-0.033,-0.722l-0.035,-0.723l-0.038,-0.721l-0.04,-0.721l-0.042,-0.72l-0.045,-0.72l-0.047,-0.719l-0.049,-0.719l-0.051,-0.718l-0.054,-0.717l-0.055,-0.717l-0.058,-0.716l-0.06,-0.715l-0.063,-0.715l-0.065,-0.714l-0.066,-0.713l-0.069,-0.713l-0.072,-0.712l-0.073,-0.712l-0.076,-0.711l-0.078,-0.71l-0.08,-0.71l-0.082,-0.709l-0.085,-0.708l-0.086,-0.708l-0.089,-0.706l-0.091,-0.707l-0.093,-0.705l-0.096,-0.705l-0.097,-0.704l-0.1,-0.704l-0.102,-0.703l-0.104,-0.702l-0.106,-0.701l-0.108,-0.701l-0.111,-0.7l-0.112,-0.699l-0.115,-0.699l-0.117,-0.698l-0.119,-0.697l-0.121,-0.696l-0.124,-0.696l-0.125,-0.695l-0.127,-0.694l-0.13,-0.694l-0.132,-0.692l-0.134,-0.692l-0.136,-0.692l-0.138,-0.69l-0.14,-0.69l-0.142,-0.689l-0.145,-0.688l-0.146,-0.688l-0.149,-0.686l-0.15,-0.686l-0.153,-0.685l-0.155,-0.685l-0.156,-0.683l-0.159,-0.683l-0.161,-0.682l-0.163,-0.681l-0.165,-0.681l-0.168,-0.679l-0.169,-0.679l-0.171,-0.678l-0.173,-0.677l-0.176,-0.676l-0.177,-0.676l-0.179,-0.675l-0.182,-0.674l-0.183,-0.673l-0.186,-0.672l-0.187,-0.671l-0.19,-0.671l-0.191,-0.669l-0.194,-0.669l-0.195,-0.668l-0.198,-0.667l-0.199,-0.667l-0.202,-0.665l-0.203,-0.665l-0.206,-0.663l-0.207,-0.663l-0.21,-0.662l-0.211,-0.661l-0.213,-0.661l-0.216,-0.659l-0.217,-0.658l-0.219,-0.658l-0.222,-0.656l-0.223,-0.656l-0.225,-0.655l-0.227,-0.654l-0.229,-0.653l-0.231,-0.652l-0.233,-0.651l-0.235,-0.651l-0.237,-0.649l-0.239,-0.648l-0.24,-0.648l-0.243,-0.646l-0.245,-0.646l-0.246,-0.645l-0.248,-0.643l-0.251,-0.643l-0.252,-0.642l-0.254,-0.641l-0.256,-0.64l-0.257,-0.639l-0.26,-0.638l-0.262,-0.637l-0.263,-0.636l-0.266,-0.635l-0.267,-0.634l-0.269,-0.633l-0.271,-0.632l-0.273,-0.632l-0.275,-0.63l-0.276,-0.629l-0.279,-0.628l-0.28,-0.627l-0.282,-0.626l-0.284,-0.626l-0.286,-0.624l-0.288,-0.623l-0.289,-0.622l-0.291,-0.621l-0.294,-0.62l-0.295,-0.619l-0.296,-0.618l-0.299,-0.617l-0.3,-0.616l-0.303,-0.615l-0.304,-0.613l-0.305,-0.613l-0.308,-0.612l-0.31,-0.61l-0.311,-0.61l-0.313,-0.609l-0.315,-0.607l-0.316,-0.606l-0.319,-0.606l-0.32,-0.604l-0.322,-0.603l-0.323,-0.602l-0.326,-0.601l-0.327,-0.6l-0.329,-0.599l-0.331,-0.597l-0.332,-0.597l-0.334,-0.595l-0.336,-0.595l-0.338,-0.593l-0.34,-0.592l-0.341,-0.591l-0.343,-0.59l-0.344,-0.589l-0.347,-0.587l-0.348,-0.587l-0.349,-0.585l-0.352,-0.584l-0.353,-0.583l-0.355,-0.582l-0.357,-0.581l-0.358,-0.579l-0.36,-0.579l-0.362,-0.577l-0.363,-0.576l-0.365,-0.575l-0.367,-0.574l-0.368,-0.572l-0.371,-0.572l-0.371,-0.57l-0.374,-0.569l-0.375,-0.568l-0.377,-0.566l-0.378,-0.566l-0.38,-0.564l-0.382,-0.563l-0.383,-0.562l-0.385,-0.56l-0.387,-0.56l-0.388,-0.558l-0.39,-0.557l-0.392,-0.556l-0.393,-0.554l-0.395,-0.553l-0.396,-0.553l-0.398,-0.55l-0.4,-0.55l-0.401,-0.548l-0.403,-0.547l-0.405,-0.546l-0.406,-0.545l-0.407,-0.543l-0.41,-0.542l-0.411,-0.541l-0.412,-0.539l-0.414,-0.538l-0.416,-0.537l-0.417,-0.536l-0.418,-0.534l-0.421,-0.533l-0.422,-0.532l-0.423,-0.53l-0.425,-0.53l-0.427,-0.528l-0.428,-0.526l-0.429,-0.525l-0.431,-0.524l-0.433,-0.523l-0.434,-0.521l-0.436,-0.52l-0.437,-0.519l-0.439,-0.517l-0.441,-0.516l-0.441,-0.515l-0.444,-0.513l-0.445,-0.512l-0.446,-0.511l-0.448,-0.509l-0.449,-0.508l-0.451,-0.507l-0.453,-0.505l-0.454,-0.504l-0.455,-0.502l-0.457,-0.501l-0.458,-0.5l-0.46,-0.498l-0.461,-0.497l-0.463,-0.496l-0.464,-0.494l-0.466,-0.493l-0.467,-0.491l-0.469,-0.49l-0.47,-0.489l-0.471,-0.487l-0.473,-0.486l-0.474,-0.484l-0.476,-0.483l-0.478,-0.482l-0.478,-0.48l-0.48,-0.478l-0.482,-0.478l-0.483,-0.476l-0.484,-0.474l-0.486,-0.473l-0.487,-0.471l-0.489,-0.47l-0.49,-0.469l-0.491,-0.467l-0.493,-0.466l-0.494,-0.464l-0.496,-0.463l-0.497,-0.461l-0.498,-0.46l-0.5,-0.458l-0.501,-0.457l-0.502,-0.455l-0.504,-0.454l-0.505,-0.453l-0.507,-0.451l-0.508,-0.449l-0.509,-0.448l-0.511,-0.446l-0.512,-0.445l-0.513,-0.444l-0.515,-0.441l-0.516,-0.441l-0.517,-0.439l-0.519,-0.437l-0.52,-0.436l-0.521,-0.434l-0.523,-0.433l-0.524,-0.431l-0.525,-0.429l-0.526,-0.428l-0.528,-0.427l-0.53,-0.425l-0.53,-0.423l-0.532,-0.422l-0.533,-0.421l-0.534,-0.418l-0.536,-0.417l-0.537,-0.416l-0.538,-0.414l-0.539,-0.412l-0.541,-0.411l-0.542,-0.41l-0.543,-0.407l-0.545,-0.406l-0.546,-0.405l-0.547,-0.403l-0.548,-0.401l-0.55,-0.4l-0.55,-0.398l-0.553,-0.396l-0.553,-0.395l-0.554,-0.393l-0.556,-0.392l-0.557,-0.39l-0.558,-0.388l-0.56,-0.387l-0.56,-0.385l-0.562,-0.383l-0.563,-0.382l-0.564,-0.38l-0.566,-0.378l-0.566,-0.377l-0.568,-0.375l-0.569,-0.374l-0.57,-0.371l-0.572,-0.371l-0.572,-0.368l-0.574,-0.367l-0.575,-0.365l-0.576,-0.363l-0.577,-0.362l-0.579,-0.36l-0.579,-0.358l-0.581,-0.357l-0.582,-0.355l-0.583,-0.353l-0.584,-0.352l-0.585,-0.349l-0.587,-0.348l-0.587,-0.347l-0.589,-0.344l-0.59,-0.343l-0.591,-0.341l-0.592,-0.34l-0.593,-0.338l-0.595,-0.336l-0.595,-0.334l-0.597,-0.332l-0.597,-0.331l-0.599,-0.329l-0.6,-0.327l-0.601,-0.326l-0.602,-0.323l-0.603,-0.322l-0.604,-0.32l-0.606,-0.319l-0.606,-0.316l-0.607,-0.315l-0.609,-0.313l-0.61,-0.311l-0.61,-0.31l-0.612,-0.308l-0.613,-0.305l-0.613,-0.304l-0.615,-0.303l-0.616,-0.3l-0.617,-0.299l-0.618,-0.296l-0.619,-0.295l-0.62,-0.294l-0.621,-0.291l-0.622,-0.289l-0.623,-0.288l-0.624,-0.286l-0.626,-0.284l-0.626,-0.282l-0.627,-0.28l-0.628,-0.279l-0.629,-0.276l-0.63,-0.275l-0.632,-0.273l-0.632,-0.271l-0.633,-0.269l-0.634,-0.267l-0.635,-0.266l-0.636,-0.263l-0.637,-0.262l-0.638,-0.26l-0.639,-0.257l-0.64,-0.256l-0.641,-0.254l-0.642,-0.252l-0.643,-0.251l-0.643,-0.248l-0.645,-0.246l-0.646,-0.245l-0.646,-0.243l-0.648,-0.24l-0.648,-0.239l-0.649,-0.237l-0.651,-0.235l-0.651,-0.233l-0.652,-0.231l-0.653,-0.229l-0.654,-0.227l-0.655,-0.225l-0.656,-0.223l-0.656,-0.222l-0.658,-0.219l-0.658,-0.217l-0.659,-0.216l-0.661,-0.213l-0.661,-0.211l-0.662,-0.21l-0.663,-0.207l-0.663,-0.206l-0.665,-0.203l-0.665,-0.202l-0.667,-0.199l-0.667,-0.198l-0.668,-0.195l-0.669,-0.194l-0.669,-0.191l-0.671,-0.19l-0.671,-0.187l-0.672,-0.186l-0.673,-0.183l-0.674,-0.182l-0.675,-0.179l-0.676,-0.177l-0.676,-0.176l-0.677,-0.173l-0.678,-0.171l-0.679,-0.169l-0.679,-0.168l-0.681,-0.165l-0.681,-0.163l-0.682,-0.161l-0.683,-0.159l-0.683,-0.156l-0.685,-0.155l-0.685,-0.153l-0.686,-0.15l-0.686,-0.149l-0.688,-0.146l-0.688,-0.145l-0.689,-0.142l-0.69,-0.14l-0.69,-0.138l-0.692,-0.136l-0.692,-0.134l-0.692,-0.132l-0.694,-0.13l-0.694,-0.127l-0.695,-0.125l-0.696,-0.124l-0.696,-0.121l-0.697,-0.119l-0.698,-0.117l-0.699,-0.115l-0.699,-0.112l-0.7,-0.111l-0.701,-0.108l-0.701,-0.106l-0.702,-0.104l-0.703,-0.102l-0.704,-0.1l-0.704,-0.097l-0.705,-0.096l-0.705,-0.093l-0.707,-0.091l-0.706,-0.089l-0.708,-0.086l-0.708,-0.085l-0.709,-0.082l-0.71,-0.08l-0.71,-0.078l-0.711,-0.076l-0.712,-0.073l-0.712,-0.072l-0.713,-0.069l-0.713,-0.066l-0.714,-0.065l-0.715,-0.063l-0.715,-0.06l-0.716,-0.058l-0.717,-0.055l-0.717,-0.054l-0.718,-0.051l-0.719,-0.049l-0.719,-0.047l-0.72,-0.045l-0.72,-0.042l-0.721,-0.04l-0.721,-0.038l-0.723,-0.035l-0.722,-0.033l-0.724,-0.031l-0.723,-0.029l-0.725,-0.027l-0.725,-0.024l-0.725,-0.022l-0.727,-0.019l-0.726,-0.017l-0.728,-0.015l-0.728,-0.013l-0.728,-0.01l-0.729,-0.009l-0.729,-0.005l-0.73,-0.004l-0.731,-0.001l-0.731,0.001Z" style="fill:#d1e4ec;"/><circle cx="512" cy="512" r="205.106" style="fill:#d1e4ec;"/><path d="M487.43,535.342c-22.818,-9.608 -38.855,-32.187 -38.855,-58.483c0,-35.005 28.42,-63.424 63.425,-63.424c35.005,0 63.425,28.419 63.425,63.424c0,26.296 -16.037,48.875 -38.855,58.483l0,62.72c0,6.905 -5.598,12.503 -12.503,12.503c-7.397,0 -16.737,0 -24.134,0c-6.905,0 -12.503,-5.598 -12.503,-12.503l0,-62.72Z" style="fill:#3bafe1;"/></g></g></svg>