<?xml version="1.0" encoding="UTF-8" standalone="no"?>
<svg
   xmlns:dc="http://purl.org/dc/elements/1.1/"
   xmlns:cc="http://creativecommons.org/ns#"
   xmlns:rdf="http://www.w3.org/1999/02/22-rdf-syntax-ns#"
   xmlns:svg="http://www.w3.org/2000/svg"
   xmlns="http://www.w3.org/2000/svg"
   viewBox="0 0 1365.3333 1365.3333"
   height="1365.3333"
   width="1365.3333"
   xml:space="preserve"
   id="svg4571"
   version="1.1"><metadata
     id="metadata4577"><rdf:RDF><cc:Work
         rdf:about=""><dc:format>image/svg+xml</dc:format><dc:type
           rdf:resource="http://purl.org/dc/dcmitype/StillImage" /><dc:title></dc:title></cc:Work></rdf:RDF></metadata><defs
     id="defs4575"><clipPath
       id="clipPath4587"
       clipPathUnits="userSpaceOnUse"><path
         id="path4585"
         d="M 0,1024 H 1024 V 0 H 0 Z" /></clipPath></defs><g
     transform="matrix(1.3333333,0,0,-1.3333333,0,1365.3333)"
     id="g4579"><g
       id="g4581"><g
         clip-path="url(#clipPath4587)"
         id="g4583"><g
           transform="translate(933,190)"
           id="g4589"><path
             id="path4591"
             style="fill:#7fce55;fill-opacity:1;fill-rule:nonzero;stroke:none"
             d="m 0,0 c 0,-55.229 -44.771,-100 -100,-100 h -643 c -55.229,0 -100,44.771 -100,100 v 643 c 0,55.229 44.771,100 100,100 h 643 C -44.771,743 0,698.229 0,643 Z" /></g><g
           transform="translate(660.5762,514.3877)"
           id="g4593"><path
             id="path4595"
             style="fill:#3f3f3f;fill-opacity:1;fill-rule:nonzero;stroke:none"
             d="M 0,0 C 0.82,10.261 0.41,41.864 -28.73,41.864 -57.871,41.864 -60.744,7.388 -60.744,7.388 -27.909,12.313 0,0 0,0 m -270.576,199.469 v 34.477 c 0,0 -3.028,45.968 68.388,45.968 53.355,-0.411 84.061,-8.824 90.422,-45.558 0,0 34.643,0.821 54.959,-0.205 20.317,-1.026 39.998,-1.847 74.475,-8.824 34.477,-6.978 49.652,-18.059 54.988,-52.946 5.335,-34.887 14.907,-174.843 11.076,-225.191 -3.83,-50.346 -17.513,-157.603 -42.687,-201.383 -10.945,-19.701 -20.797,-40.496 -85.918,-40.496 -65.122,0 -112.185,2.19 -112.185,71.689 0,69.499 28.775,74.973 63.912,75.52 11.06,0 24.74,0.545 24.74,0.545 0,0 4.994,0 3.763,-6.156 -1.231,-6.156 -4.483,-11.629 -4.515,-16.554 -0.051,-7.849 1.467,-8.474 2.258,-11.355 0.958,-3.488 0,-6.772 -3.489,-7.183 -3.489,-0.41 -12.723,0 -12.723,0 0,0 -25.653,2.049 -25.653,-23.397 0,-25.446 22.575,-23.808 29.346,-23.808 h 26.063 c 0,0 26.267,-1.536 36.323,9.545 5.541,5.951 7.387,20.677 7.387,30.117 0,9.44 -1.026,31.989 -1.026,31.989 0,0 -1.847,22.561 -10.466,33.643 -8.619,11.082 -15.801,14.359 -35.297,16.821 -19.495,2.462 -60.306,4.306 -75.493,17.03 -15.185,12.723 -18.648,37.347 -18.648,45.349 v 16.417 c 0,0 -0.162,2.053 -1.462,2.053 -1.3,0 -1.826,-0.959 -1.826,-2.121 0,-1.162 -0.674,-12.381 -0.674,-12.381 0,0 -1.602,-29.414 -6.527,-47.062 -2.873,-11.082 -6.376,-24.831 -14.175,-31.604 -3.488,-3.283 -9.241,-5.951 -15.808,-5.951 -6.567,0 -98.303,13.339 -137.293,26.883 -11.082,3.694 -23.807,9.85 -32.836,28.73 -9.03,18.88 -34.478,141.599 -34.888,173.613 -0.411,32.013 11.902,54.176 45.147,55.818 33.245,1.642 43.916,-2.873 58.691,-1.231 14.776,1.642 22.318,11.492 22.318,25.036 0,13.545 -0.667,22.163 -0.667,22.163" /></g><g
           transform="translate(278.8755,678.5601)"
           id="g4597"><path
             id="path4599"
             style="fill:#3f3f3f;fill-opacity:1;fill-rule:nonzero;stroke:none"
             d="m 0,0 99.016,98.708 c 0,0 1.488,1.643 2.001,1.232 0,0 -8.183,-12.005 -8.183,-24.934 0,-12.928 0.116,-58.921 0.116,-58.921 0,0 1.449,-12.645 -13.532,-12.645 h -53.15 c 0,0 -13.442,0.332 -22.78,-5.209 C 1.128,-3.308 0.103,-3.655 -0.616,-3.142 -1.334,-2.629 -1.505,-1.574 0,0" /></g></g></g></g></svg>