<?xml version="1.0" encoding="UTF-8" standalone="no"?>
<svg
   xmlns:dc="http://purl.org/dc/elements/1.1/"
   xmlns:cc="http://creativecommons.org/ns#"
   xmlns:rdf="http://www.w3.org/1999/02/22-rdf-syntax-ns#"
   xmlns:svg="http://www.w3.org/2000/svg"
   xmlns="http://www.w3.org/2000/svg"
   viewBox="0 0 1365.3333 1365.3333"
   height="1365.3333"
   width="1365.3333"
   xml:space="preserve"
   id="svg5067"
   version="1.1"><metadata
     id="metadata5073"><rdf:RDF><cc:Work
         rdf:about=""><dc:format>image/svg+xml</dc:format><dc:type
           rdf:resource="http://purl.org/dc/dcmitype/StillImage" /><dc:title></dc:title></cc:Work></rdf:RDF></metadata><defs
     id="defs5071"><clipPath
       id="clipPath5083"
       clipPathUnits="userSpaceOnUse"><path
         id="path5081"
         d="M 0,1024 H 1024 V 0 H 0 Z" /></clipPath></defs><g
     transform="matrix(1.3333333,0,0,-1.3333333,0,1365.3333)"
     id="g5075"><g
       id="g5077"><g
         clip-path="url(#clipPath5083)"
         id="g5079"><g
           transform="translate(340,617)"
           id="g5085"><path
             id="path5087"
             style="fill:#ffd68d;fill-opacity:1;fill-rule:nonzero;stroke:none"
             d="m 0,0 c 137,15 269,-80 392,-182 72,-60 149,-140 161,-154 0.385,-0.449 0.763,-1.108 1.134,-1.956 15.532,25.425 28.598,52.52 38.866,80.954 V 46.959 C 547.903,171.856 448.812,270.93 323.901,316 H 20.131 C -105.736,270.584 -205.394,170.337 -250,44.085 V -152.787 C -207.067,-107.654 -104.414,-11.432 0,0" /></g><g
           transform="translate(706,337.25)"
           id="g5089"><path
             id="path5091"
             style="fill:#ffae3d;fill-opacity:1;fill-rule:nonzero;stroke:none"
             d="m 0,0 c -73.75,0 -133.75,60 -133.75,133.75 0,73.75 60,133.75 133.75,133.75 73.75,0 133.75,-60 133.75,-133.75 C 133.75,60 73.75,0 0,0" /></g><g
           transform="translate(706,610.25)"
           id="g5093"><path
             id="path5095"
             style="fill:#ffffff;fill-opacity:1;fill-rule:nonzero;stroke:none"
             d="m 0,0 c -76.906,0 -139.25,-62.344 -139.25,-139.25 0,-76.906 62.344,-139.25 139.25,-139.25 76.906,0 139.25,62.344 139.25,139.25 C 139.25,-62.344 76.906,0 0,0 m 0,-11 c 34.257,0 66.464,-13.34 90.687,-37.563 24.223,-24.224 37.563,-56.43 37.563,-90.687 0,-34.257 -13.34,-66.464 -37.563,-90.687 C 66.464,-254.16 34.257,-267.5 0,-267.5 c -34.257,0 -66.464,13.34 -90.687,37.563 -24.223,24.223 -37.563,56.43 -37.563,90.687 0,34.257 13.34,66.463 37.563,90.687 C -66.464,-24.34 -34.257,-11 0,-11" /></g><path
           id="path5097"
           style="fill:#ffd68d;fill-opacity:1;fill-rule:nonzero;stroke:none"
           d="m 860,209 h 73 v 186 h -73 z" /><g
           transform="translate(190,90)"
           id="g5099"><path
             id="path5101"
             style="fill:#97b0d5;fill-opacity:1;fill-rule:nonzero;stroke:none"
             d="m 0,0 h 643 c 55.229,0 100,44.771 100,100 v 43.26 C 668.802,232.468 537.771,367.542 384,460 226,555 142,535 78.334,507 4.41,476.077 -66.537,408.655 -100,373.876 V 100 C -100,44.771 -55.229,0 0,0" /></g><g
           transform="translate(400,933)"
           id="g5103"><path
             id="path5105"
             style="fill:#ffd68d;fill-opacity:1;fill-rule:nonzero;stroke:none"
             d="m 0,0 h -210 c -55.229,0 -100,-44.771 -100,-100 V -286 H 0 Z" /></g><g
           transform="translate(833,933)"
           id="g5107"><path
             id="path5109"
             style="fill:#ffd68d;fill-opacity:1;fill-rule:nonzero;stroke:none"
             d="m 0,0 h -174 v -295 h 274 v 195 C 100,-44.771 55.229,0 0,0" /></g></g></g></g></svg>