<?xml version="1.0" encoding="UTF-8" standalone="no"?>
<svg
   xmlns:dc="http://purl.org/dc/elements/1.1/"
   xmlns:cc="http://creativecommons.org/ns#"
   xmlns:rdf="http://www.w3.org/1999/02/22-rdf-syntax-ns#"
   xmlns:svg="http://www.w3.org/2000/svg"
   xmlns="http://www.w3.org/2000/svg"
   viewBox="0 0 1365.3333 1365.3333"
   height="1365.3333"
   width="1365.3333"
   xml:space="preserve"
   id="svg4601"
   version="1.1"><metadata
     id="metadata4607"><rdf:RDF><cc:Work
         rdf:about=""><dc:format>image/svg+xml</dc:format><dc:type
           rdf:resource="http://purl.org/dc/dcmitype/StillImage" /><dc:title></dc:title></cc:Work></rdf:RDF></metadata><defs
     id="defs4605"><clipPath
       id="clipPath4617"
       clipPathUnits="userSpaceOnUse"><path
         id="path4615"
         d="M 0,1024 H 1024 V 0 H 0 Z" /></clipPath></defs><g
     transform="matrix(1.3333333,0,0,-1.3333333,0,1365.3333)"
     id="g4609"><g
       id="g4611"><g
         clip-path="url(#clipPath4617)"
         id="g4613"><g
           transform="translate(933,190)"
           id="g4619"><path
             id="path4621"
             style="fill:#ed7475;fill-opacity:1;fill-rule:nonzero;stroke:none"
             d="m 0,0 c 0,-55.229 -44.771,-100 -100,-100 h -643 c -55.229,0 -100,44.771 -100,100 v 643 c 0,55.229 44.771,100 100,100 h 643 C -44.771,743 0,698.229 0,643 Z" /></g><g
           transform="translate(669,376.877)"
           id="g4623"><path
             id="path4625"
             style="fill:#ebecec;fill-opacity:1;fill-rule:nonzero;stroke:none"
             d="M 0,0 C 0,-38.592 -35.937,-69.877 -80.266,-69.877 H -382.734 C -427.064,-69.877 -463,-38.592 -463,0 v 257.246 c 0,38.592 35.936,69.877 80.266,69.877 H -80.266 C -35.937,327.123 0,295.838 0,257.246 Z" /></g><g
           transform="translate(687,534.832)"
           id="g4627"><path
             id="path4629"
             style="fill:#ebecec;fill-opacity:1;fill-rule:nonzero;stroke:none"
             d="M 0,0 V -60.793 L 103,-162.319 V 101.526 Z" /></g><path
           id="path4631"
           style="fill:#ebecec;fill-opacity:1;fill-rule:nonzero;stroke:none"
           d="M 821,636 H 802 V 373 h 19 z" /></g></g></g></svg>