<?xml version="1.0" encoding="UTF-8" standalone="no"?>
<svg
   xmlns:dc="http://purl.org/dc/elements/1.1/"
   xmlns:cc="http://creativecommons.org/ns#"
   xmlns:rdf="http://www.w3.org/1999/02/22-rdf-syntax-ns#"
   xmlns:svg="http://www.w3.org/2000/svg"
   xmlns="http://www.w3.org/2000/svg"
   viewBox="0 0 1280 1280"
   height="1280"
   width="1280"
   xml:space="preserve"
   version="1.1"
   id="svg2"><metadata
     id="metadata8"><rdf:RDF><cc:Work
         rdf:about=""><dc:format>image/svg+xml</dc:format><dc:type
           rdf:resource="http://purl.org/dc/dcmitype/StillImage" /><dc:title></dc:title></cc:Work></rdf:RDF></metadata><defs
     id="defs6"><clipPath
       id="clipPath16"
       clipPathUnits="userSpaceOnUse"><path
         id="path18"
         d="M 191,933 C 135.771,933 91,888.229 91,833 l 0,0 0,-643 C 91,134.771 135.771,90 191,90 l 0,0 643,0 c 55.229,0 100,44.771 100,100 l 0,0 0,643 c 0,55.229 -44.771,100 -100,100 l 0,0 -643,0 z" /></clipPath></defs><g
     transform="matrix(1.25,0,0,-1.25,0,1280)"
     id="g10"><g
       id="g12"><g
         clip-path="url(#clipPath16)"
         id="g14"><g
           transform="translate(933,190)"
           id="g20"><path
             id="path22"
             style="fill:#fff200;fill-opacity:1;fill-rule:nonzero;stroke:none"
             d="m 0,0 c 0,-55.229 -44.772,-100 -100,-100 l -643,0 c -55.229,0 -100,44.771 -100,100 l 0,643 c 0,55.229 44.771,100 100,100 l 643,0 C -44.772,743 0,698.229 0,643 L 0,0 Z" /></g><g
           transform="translate(90,482)"
           id="g24"><path
             id="path26"
             style="fill:#2ecc71;fill-opacity:1;fill-rule:nonzero;stroke:none"
             d="M 0,0 0,163.451 211.061,81.725 421.875,0 210.937,-81.725 0,-163.451 0,0 Z" /></g><g
           transform="translate(512,89)"
           id="g28"><path
             id="path30"
             style="fill:#3498db;fill-opacity:1;fill-rule:nonzero;stroke:none"
             d="M 0,0 -163.451,0 -81.725,195.043 0,393.344 81.725,194.957 163.451,0 0,0 Z" /></g><g
           transform="translate(512,894)"
           id="g32"><path
             id="path34"
             style="fill:#f1c40f;fill-opacity:1;fill-rule:nonzero;stroke:none"
             d="M 0,0 163.451,0 81.725,-205.774 0,-411.656 -81.725,-205.828 -163.451,0 0,0 Z" /></g><g
           transform="translate(934,478.3333)"
           id="g36"><path
             id="path38"
             style="fill:#e74c3c;fill-opacity:1;fill-rule:nonzero;stroke:none"
             d="M 0,0 -1.5,-161.299 -209.876,-80.3 -421.812,3.667 -206.586,85.887 -1.5,165.602 0,0 Z" /></g><g
           transform="translate(932.5,888.3907)"
           id="g40"><path
             id="path42"
             style="fill:#e67e22;fill-opacity:1;fill-rule:nonzero;stroke:none"
             d="M 0,0 0,-244.456 -214.513,-327.834 -420.5,-406.37 -338.775,-199.915 -256.076,6.109 0,0 Z" /></g><g
           transform="translate(90,894)"
           id="g44"><path
             id="path46"
             style="fill:#72f274;fill-opacity:1;fill-rule:nonzero;stroke:none"
             d="M 0,0 258.549,0 326.264,-170.447 422,-411.979 158.148,-309.825 0,-248.549 0,0 Z" /></g><g
           transform="translate(90,90)"
           id="g48"><path
             id="path50"
             style="fill:#1abc9c;fill-opacity:1;fill-rule:nonzero;stroke:none"
             d="M 0,0 0,228.549 149.237,286.324 421.875,392 312.225,128.044 258.268,-0.5 0,0 Z" /></g><g
           transform="translate(934,90)"
           id="g52"><path
             id="path54"
             style="fill:#9b59b6;fill-opacity:1;fill-rule:nonzero;stroke:none"
             d="M 0,0 -258.105,-0.944 -316.866,140.079 -422.125,392 -1.107,226.641 0,0 Z" /></g><path
           id="path56"
           style="fill:#231f20;fill-opacity:1;fill-rule:nonzero;stroke:none"
           d="m 954.568,763.885 -899.955,0 0,189.002 899.955,0 0,-189.002 z" /><g
           transform="translate(305.0546,763)"
           id="g58"><path
             id="path60"
             style="fill:#ffffff;fill-opacity:1;fill-rule:nonzero;stroke:none"
             d="M 0,0 128.436,0 209.931,180 81.496,180 0,0 Z" /></g><g
           transform="translate(787.3942,943)"
           id="g62"><path
             id="path64"
             style="fill:#ffffff;fill-opacity:1;fill-rule:nonzero;stroke:none"
             d="m 0,0 -147.258,0 -81.496,-180 147.258,0 L 0,0 Z" /></g><g
           transform="translate(915.8331,952)"
           id="g66"><path
             id="path68"
             style="fill:#ffffff;fill-opacity:1;fill-rule:nonzero;stroke:none"
             d="m 0,0 -84.784,-189 114.951,0 0,189 L 0,0 Z" /></g><g
           transform="translate(261.4001,960)"
           id="g70"><path
             id="path72"
             style="fill:#ffffff;fill-opacity:1;fill-rule:nonzero;stroke:none"
             d="m 0,0 -204.4,0 0,-197 122.904,0 L 0,0 Z" /></g></g></g></g></svg>