<?xml version="1.0" encoding="UTF-8" standalone="no"?>
<svg
   xmlns:dc="http://purl.org/dc/elements/1.1/"
   xmlns:cc="http://creativecommons.org/ns#"
   xmlns:rdf="http://www.w3.org/1999/02/22-rdf-syntax-ns#"
   xmlns:svg="http://www.w3.org/2000/svg"
   xmlns="http://www.w3.org/2000/svg"
   viewBox="0 0 1365.3333 1365.3333"
   height="1365.3333"
   width="1365.3333"
   xml:space="preserve"
   id="svg4721"
   version="1.1"><metadata
     id="metadata4727"><rdf:RDF><cc:Work
         rdf:about=""><dc:format>image/svg+xml</dc:format><dc:type
           rdf:resource="http://purl.org/dc/dcmitype/StillImage" /><dc:title></dc:title></cc:Work></rdf:RDF></metadata><defs
     id="defs4725"><clipPath
       id="clipPath4737"
       clipPathUnits="userSpaceOnUse"><path
         id="path4735"
         d="M 0,1024 H 1024 V 0 H 0 Z" /></clipPath></defs><g
     transform="matrix(1.3333333,0,0,-1.3333333,0,1365.3333)"
     id="g4729"><g
       id="g4731"><g
         clip-path="url(#clipPath4737)"
         id="g4733"><g
           transform="translate(568,418)"
           id="g4739"><path
             id="path4741"
             style="fill:#6289d5;fill-opacity:1;fill-rule:nonzero;stroke:none"
             d="m 0,0 -157.667,0.334 c 0,0 2.654,256.279 203.827,514.666 H -328 c -82.843,0 -150,-67.157 -150,-150 v -543 c 0,-82.843 67.157,-150 150,-150 H 16.285 C -7.934,-256.138 -31.711,-138.812 0,0" /></g><g
           transform="translate(783,933)"
           id="g4743"><path
             id="path4745"
             style="fill:#c4cdef;fill-opacity:1;fill-rule:nonzero;stroke:none"
             d="m 0,0 h -115 c 0,0 -191,-215 -213,-475 l 168.5,0.5 c 0,0 -72.091,-177.111 2.86,-368.5 H 0 c 82.843,0 150,67.157 150,150 v 543 C 150,-67.157 82.843,0 0,0" /></g><g
           transform="translate(623.5,458.5)"
           id="g4747"><path
             id="path4749"
             style="fill:#fff200;fill-opacity:1;fill-rule:nonzero;stroke:none"
             d="m 0,0 -168.5,-0.5 c 22,260 213,475 213,475 H -9.34 C -210.513,216.113 -213.167,-40.166 -213.167,-40.166 L -55.5,-40.5 c -31.711,-138.812 -7.934,-256.138 16.285,-328 H 2.86 C -72.091,-177.111 0,0 0,0" /></g><path
           id="path4751"
           style="fill:#231f20;fill-opacity:1;fill-rule:nonzero;stroke:none"
           d="m 663,620 h 43 v 105 h -43 z" /><path
           id="path4753"
           style="fill:#231f20;fill-opacity:1;fill-rule:nonzero;stroke:none"
           d="m 292,620 h 44 v 105 h -44 z" /><g
           transform="translate(787,364)"
           id="g4755"><path
             id="path4757"
             style="fill:#232323;fill-opacity:1;fill-rule:nonzero;stroke:none"
             d="m 0,0 c -64.882,-40.797 -131.211,-61.471 -194.36,-69.464 -0.464,-13.046 -0.488,-26.626 0.052,-40.642 C -57.959,-94.138 22,-33 22,-33 22,-33 -1,0 0,0" /></g><g
           transform="translate(552.7891,291.0811)"
           id="g4759"><path
             id="path4761"
             style="fill:#232323;fill-opacity:1;fill-rule:nonzero;stroke:none"
             d="m 0,0 c -175.892,-8.356 -317.789,73.919 -317.789,73.919 l -19,-34 C -206.5,-26.877 -91.971,-44.643 0.816,-40.371 0.115,-27.311 -0.184,-13.843 0,0" /></g><g
           transform="translate(592.6396,294.5361)"
           id="g4763"><path
             id="path4765"
             style="fill:#232323;fill-opacity:1;fill-rule:nonzero;stroke:none"
             d="m 0,0 c -13.442,-1.701 -26.741,-2.832 -39.851,-3.455 -0.183,-13.843 0.116,-27.311 0.817,-40.371 13.497,0.622 26.529,1.712 39.087,3.183 C -0.487,-26.626 -0.464,-13.046 0,0" /></g><g
           transform="translate(623.5,458.5)"
           id="g4767"><path
             id="path4769"
             style="fill:#232323;fill-opacity:1;fill-rule:nonzero;stroke:none"
             d="m 0,0 -168.5,-0.5 c 22,260 213,475 213,475 H -9.34 C -210.513,216.113 -213.167,-40.166 -213.167,-40.166 L -55.5,-40.5 c -31.711,-138.812 -7.934,-256.138 16.285,-328 H 2.86 C -72.091,-177.111 0,0 0,0" /></g></g></g></g></svg>