<?xml version="1.0" encoding="UTF-8" standalone="no"?>
<svg
   xmlns:dc="http://purl.org/dc/elements/1.1/"
   xmlns:cc="http://creativecommons.org/ns#"
   xmlns:rdf="http://www.w3.org/1999/02/22-rdf-syntax-ns#"
   xmlns:svg="http://www.w3.org/2000/svg"
   xmlns="http://www.w3.org/2000/svg"
   viewBox="0 0 1365.3333 1365.3333"
   height="1365.3333"
   width="1365.3333"
   xml:space="preserve"
   id="svg4771"
   version="1.1"><metadata
     id="metadata4777"><rdf:RDF><cc:Work
         rdf:about=""><dc:format>image/svg+xml</dc:format><dc:type
           rdf:resource="http://purl.org/dc/dcmitype/StillImage" /><dc:title></dc:title></cc:Work></rdf:RDF></metadata><defs
     id="defs4775"><clipPath
       id="clipPath4787"
       clipPathUnits="userSpaceOnUse"><path
         id="path4785"
         d="M 0,1024 H 1024 V 0 H 0 Z" /></clipPath></defs><g
     transform="matrix(1.3333333,0,0,-1.3333333,0,1365.3333)"
     id="g4779"><g
       id="g4781"><g
         clip-path="url(#clipPath4787)"
         id="g4783"><g
           transform="translate(90,223.5361)"
           id="g4789"><path
             id="path4791"
             style="fill:#f38e22;fill-opacity:1;fill-rule:nonzero;stroke:none"
             d="m 0,0 v -33.536 c 0,-55.229 44.771,-100 100,-100 h 10.051 C 65.334,-96.651 27.838,-51.326 0,0" /></g><g
           transform="translate(774.2754,90)"
           id="g4793"><path
             id="path4795"
             style="fill:#f38e22;fill-opacity:1;fill-rule:nonzero;stroke:none"
             d="m 0,0 h 58.725 c 55.228,0 100,44.771 100,100 V 276.661 C 140.996,165.79 82.912,68.387 0,0" /></g><g
           transform="translate(155.9063,745.2798)"
           id="g4797"><path
             id="path4799"
             style="fill:#8ed1ef;fill-opacity:1;fill-rule:nonzero;stroke:none"
             d="m 0,0 c 6.912,-8.567 15.607,-17.629 26.627,-26.834 0,0 52.951,15.925 107.493,2.389 0,0 38.617,51.358 121.029,51.756 0,0 -59.718,-64.098 -59.32,-85.596 0.398,-21.499 20.303,-40.608 47.376,-41.803 21.015,-0.927 44.907,-2.094 63.3,-1.267 13.637,0.77 16.147,-7.481 16.662,-12.172 0.206,-14.696 -6.244,-39.077 -43.733,-61.009 -58.523,-34.239 -118.64,-81.216 -118.64,-114.26 0,-33.046 16.722,-48.173 40.21,-63.303 23.49,-15.128 56.932,-35.433 110.28,-9.555 26.276,11.546 61.31,27.073 97.54,-0.397 19.506,-15.129 26.673,-25.878 21.498,-35.035 -5.176,-9.157 -11.147,-10.351 -16.721,-9.955 -5.574,0.4 -16.722,5.575 -51.358,-19.109 -48.969,-37.422 -116.251,-45.386 -147.304,-35.034 -3.584,2.389 -11.147,5.574 -7.167,-0.795 3.981,-6.371 74.051,-74.848 164.822,-74.848 90.771,0 192.691,19.11 207.819,184.728 0,0 9.031,-5.845 13.808,-29.46 0,0 27.868,99.26 6.626,189.505 0,0 23.359,-19.11 39.81,-58.922 0,0 6.912,157.131 -91.821,237.806 0,0 11.147,13.807 80.674,-40.338 0,0 -11.724,82.22 -135.141,165.316 146.758,-57.352 257.05,-187.676 282.725,-347.172 V 87.72 c 0,55.229 -44.772,100 -100,100 h -643 c -55.229,0 -100,-44.771 -100,-100 V -33.339 c 4.378,28.197 15.093,62.055 39.583,92.086 C -26.323,57.903 -26.1,32.407 0,0" /></g><g
           transform="translate(933,366.6611)"
           id="g4801"><path
             id="path4803"
             style="fill:#f38e22;fill-opacity:1;fill-rule:nonzero;stroke:none"
             d="m 0,0 v 143.255 c -25.675,159.495 -135.967,289.819 -282.725,347.171 123.417,-83.095 135.141,-165.315 135.141,-165.315 -69.526,54.144 -80.674,40.338 -80.674,40.338 98.734,-80.676 91.821,-237.806 91.821,-237.806 -16.451,39.812 -39.81,58.922 -39.81,58.922 21.242,-90.246 -6.626,-189.505 -6.626,-189.505 -4.776,23.615 -13.808,29.46 -13.808,29.46 -15.128,-165.619 -117.048,-184.728 -207.819,-184.728 -90.771,0 -160.84,68.477 -164.822,74.848 -3.98,6.369 3.584,3.183 7.167,0.795 31.053,-10.352 98.336,-2.388 147.304,35.034 34.636,24.683 45.785,19.509 51.358,19.109 5.574,-0.396 11.546,0.798 16.722,9.954 5.174,9.157 -1.993,19.906 -21.499,35.035 -36.23,27.471 -71.264,11.944 -97.54,0.398 -53.348,-25.878 -86.79,-5.573 -110.279,9.555 -23.489,15.129 -40.21,30.256 -40.21,63.302 0,33.044 60.116,80.022 118.639,114.261 37.489,21.931 43.939,46.313 43.733,61.008 -0.514,4.692 -3.025,12.942 -16.661,12.173 -18.394,-0.827 -42.286,0.34 -63.301,1.267 -27.072,1.195 -46.978,20.304 -47.376,41.802 -0.398,21.499 59.32,85.596 59.32,85.596 -82.411,-0.398 -121.029,-51.755 -121.029,-51.755 -54.542,13.536 -107.492,-2.389 -107.492,-2.389 -11.02,9.204 -19.716,18.266 -26.628,26.834 -26.1,32.407 -26.323,57.902 -26.323,58.747 -24.489,-30.032 -35.205,-63.889 -39.583,-92.087 v -58.332 c 4.733,10.613 6.05,25.347 12.112,34.78 2.629,4.061 43.244,-3.965 45.984,0 -2.771,-3.965 -29.055,-45.604 -31.651,-49.665 -6.14,-9.532 -20.029,19.24 -26.445,14.018 v -429.205 c 27.838,-51.326 65.334,-96.651 110.051,-133.536 h 574.224 C -75.813,-208.274 -17.729,-110.871 0,0" /></g><g
           transform="translate(116.4453,638.7227)"
           id="g4805"><path
             id="path4807"
             style="fill:#f38e22;fill-opacity:1;fill-rule:nonzero;stroke:none"
             d="m 0,0 c 2.595,4.062 28.879,45.7 31.65,49.665 -2.739,-3.965 -43.355,4.062 -45.983,0 -6.063,-9.433 -7.379,-24.166 -12.112,-34.78 V 14.018 C -20.029,19.241 -6.141,-9.532 0,0" /></g><g
           transform="translate(136.749,723.208)"
           id="g4809"><path
             id="path4811"
             style="fill:#f38e22;fill-opacity:1;fill-rule:nonzero;stroke:none"
             d="M 0,0 C -2.978,-3.646 -5.893,-7.325 -8.727,-11.068 -5.875,-7.342 -2.978,-3.646 0,0" /></g></g></g></g></svg>