<?xml version="1.0" encoding="UTF-8" standalone="no"?>
<svg
   xmlns:dc="http://purl.org/dc/elements/1.1/"
   xmlns:cc="http://creativecommons.org/ns#"
   xmlns:rdf="http://www.w3.org/1999/02/22-rdf-syntax-ns#"
   xmlns:svg="http://www.w3.org/2000/svg"
   xmlns="http://www.w3.org/2000/svg"
   viewBox="0 0 1365.3333 1365.3333"
   height="1365.3333"
   width="1365.3333"
   xml:space="preserve"
   id="svg4855"
   version="1.1"><metadata
     id="metadata4861"><rdf:RDF><cc:Work
         rdf:about=""><dc:format>image/svg+xml</dc:format><dc:type
           rdf:resource="http://purl.org/dc/dcmitype/StillImage" /><dc:title></dc:title></cc:Work></rdf:RDF></metadata><defs
     id="defs4859"><clipPath
       id="clipPath4871"
       clipPathUnits="userSpaceOnUse"><path
         id="path4869"
         d="M 0,1024 H 1024 V 0 H 0 Z" /></clipPath></defs><g
     transform="matrix(1.3333333,0,0,-1.3333333,0,1365.3333)"
     id="g4863"><g
       id="g4865"><g
         clip-path="url(#clipPath4871)"
         id="g4867"><g
           transform="translate(933,190)"
           id="g4873"><path
             id="path4875"
             style="fill:#ffffff;fill-opacity:1;fill-rule:nonzero;stroke:none"
             d="m 0,0 c 0,-55.229 -44.772,-100 -100,-100 h -643 c -55.229,0 -100,44.771 -100,100 v 643 c 0,55.229 44.771,100 100,100 h 643 C -44.772,743 0,698.229 0,643 Z" /></g><g
           transform="translate(800.2493,534.4125)"
           id="g4877"><path
             id="path4879"
             style="fill:#f73b5d;fill-opacity:1;fill-rule:nonzero;stroke:none"
             d="m 0,0 c 0,136.95 -128.036,247.969 -289.182,247.969 -161.146,0 -289.317,-110.757 -289.317,-247.707 0,-68.125 30.926,-128.882 82.189,-174.913 4.088,-3.671 7.112,-36.574 -1.944,-60.053 -14.16,-36.713 -25.437,-48.514 -18.619,-51.05 20.503,-7.628 78.607,19.672 107.781,35.316 23.67,12.693 25.643,14.622 27.596,13.985 30.262,-9.867 59.945,-12.674 92.247,-12.674 C -128.103,-249.127 0,-136.95 0,0" /></g></g></g></g></svg>