<?xml version="1.0" encoding="UTF-8" standalone="no"?>
<svg
   xmlns:dc="http://purl.org/dc/elements/1.1/"
   xmlns:cc="http://creativecommons.org/ns#"
   xmlns:rdf="http://www.w3.org/1999/02/22-rdf-syntax-ns#"
   xmlns:svg="http://www.w3.org/2000/svg"
   xmlns="http://www.w3.org/2000/svg"
   version="1.1"
   id="svg5197"
   xml:space="preserve"
   width="1365.3333"
   height="1365.3333"
   viewBox="0 0 1365.3333 1365.3333"><metadata
     id="metadata5203"><rdf:RDF><cc:Work
         rdf:about=""><dc:format>image/svg+xml</dc:format><dc:type
           rdf:resource="http://purl.org/dc/dcmitype/StillImage" /><dc:title></dc:title></cc:Work></rdf:RDF></metadata><defs
     id="defs5201"><clipPath
       clipPathUnits="userSpaceOnUse"
       id="clipPath5213"><path
         d="M 0,1024 H 1024 V 0 H 0 Z"
         id="path5211" /></clipPath></defs><g
     id="g5205"
     transform="matrix(1.3333333,0,0,-1.3333333,0,1365.3333)"><g
       id="g5207"><g
         id="g5209"
         clip-path="url(#clipPath5213)"><g
           id="g5215"
           transform="translate(933,190)"><path
             d="m 0,0 c 0,-55.229 -44.772,-100 -100,-100 h -643 c -55.229,0 -100,44.771 -100,100 v 643 c 0,55.229 44.771,100 100,100 h 643 C -44.772,743 0,698.229 0,643 Z"
             style="fill:#749ddd;fill-opacity:1;fill-rule:nonzero;stroke:none"
             id="path5217" /></g><g
           id="g5219"
           transform="translate(511,242.463)"><path
             id="path5221"
             transform="matrix(0.75000002,0,0,-0.75000002,-511,781.537)"
             d="M 213.33398 172 C 161.78732 172 120 213.78732 120 265.33398 L 120 1112 C 120 1192.7227 186.50065 1245.334 253.33398 1245.334 L 1110.666 1245.334 C 1193.166 1245.334 1244 1178.3333 1244 1112 L 1244 385.33398 C 1244 333.78732 1202.2127 292 1150.666 292 L 682.66602 292 L 681.33398 265.33398 C 676.57532 203.44599 640.032 178.67733 588 172 L 213.33398 172 z M 682 471.74609 C 685.49019 471.74609 688.97965 473.04008 691.64258 475.625 L 980.95117 756.45703 C 986.27704 761.62687 986.27704 770.00985 980.95117 775.17969 L 691.64258 1056.0117 C 686.31672 1061.1816 677.68328 1061.1816 672.35742 1056.0117 L 383.04883 775.17969 C 377.72296 770.00985 377.72296 761.62687 383.04883 756.45703 L 672.35742 475.625 C 675.02035 473.04008 678.50981 471.74609 682 471.74609 z M 646.73633 581.46289 C 626.94541 581.46289 610.90039 597.03691 610.90039 616.24805 C 610.90039 635.45918 626.94541 651.0332 646.73633 651.0332 C 666.52725 651.0332 682.57031 635.45918 682.57031 616.24805 C 682.57031 597.03691 666.52725 581.46289 646.73633 581.46289 z M 677.23242 657.84961 C 669.40049 657.93666 662.76804 659.18727 657.33594 661.60156 C 642.83049 668.04852 635.98796 683.65188 630.40625 693.17383 C 626.72394 699.45555 620.00833 710.02057 610.26172 724.86914 C 610.06945 725.16206 609.73661 725.3392 609.37891 725.33984 C 609.37891 725.33984 609.37695 725.33984 609.37695 725.33984 L 560.08008 725.33984 C 552.71937 725.33984 546.75195 731.13228 546.75195 738.27734 C 546.75195 745.28565 552.60442 750.9668 559.82422 750.9668 L 623.22266 750.9668 C 623.49612 750.9668 623.7592 750.86289 623.95508 750.67773 L 647.96289 727.97656 C 648.3779 727.58412 649.04298 727.59135 649.44727 727.99414 C 649.55756 728.10401 649.6394 728.23728 649.68945 728.38281 L 661.86914 763.79297 C 662.16769 764.66106 662.04916 765.61417 661.54688 766.38867 L 628.10156 817.95703 C 627.9237 818.23128 627.79363 818.53124 627.71289 818.8457 L 606.49023 901.49805 C 604.03804 911.05316 610.02958 920.7299 619.87305 923.11133 L 619.87695 923.11328 C 629.79594 925.51089 639.85986 919.72859 642.46875 910.13477 L 662.13867 837.80078 C 662.27097 837.31427 662.52373 836.86827 662.87695 836.5 L 689.99023 808.23047 C 690.38504 807.81886 691.05057 807.79653 691.47461 808.17969 C 691.56682 808.26302 691.64113 808.36113 691.69727 808.4707 L 716.25195 856.39258 C 716.32843 856.54186 716.41706 856.68316 716.51758 856.81836 L 759.81445 915.05078 C 765.88154 923.21062 777.61344 925.05145 786.01953 919.16211 C 786.64412 918.72453 787.24212 918.24894 787.80664 917.74023 C 794.91332 911.33627 795.98493 900.79475 790.30469 893.16602 L 741.28711 827.33594 C 741.16844 827.17658 741.10008 826.9874 741.08984 826.79102 L 737.16016 751.39453 C 737.14537 751.11109 737.09048 750.83111 736.99609 750.5625 L 719.43945 700.61719 C 719.25237 700.08491 719.54541 699.50583 720.09375 699.32422 C 720.27103 699.26542 720.46109 699.25422 720.64453 699.29102 L 748.29492 704.83398 C 748.78222 704.93172 749.13281 705.34902 749.13281 705.83203 L 749.13281 754.02344 C 750.61084 762.145 754.82758 766.20703 761.7832 766.20703 C 769.34992 766.20703 775.48437 760.25324 775.48438 752.9082 L 775.48438 687.55469 C 775.48438 685.79578 774.32076 684.23548 772.59961 683.68555 L 697.82422 659.79297 C 697.77869 659.77844 697.73267 659.76817 697.68555 659.75977 C 690.14229 658.41963 683.32392 657.7819 677.23242 657.84961 z "
             style="fill:#cfd7f2;fill-opacity:1;fill-rule:nonzero;stroke:none" /></g></g></g></g><g
     transform="translate(381.39831,497.10452)"
     style="fill:none;fill-rule:evenodd;stroke:none;stroke-width:1"
     id="Page-1" /></svg>