<?xml version="1.0" encoding="UTF-8" standalone="no"?>
<svg
   xmlns:dc="http://purl.org/dc/elements/1.1/"
   xmlns:cc="http://creativecommons.org/ns#"
   xmlns:rdf="http://www.w3.org/1999/02/22-rdf-syntax-ns#"
   xmlns:svg="http://www.w3.org/2000/svg"
   xmlns="http://www.w3.org/2000/svg"
   viewBox="0 0 1365.3333 1365.3333"
   height="1365.3333"
   width="1365.3333"
   xml:space="preserve"
   id="svg5163"
   version="1.1"><metadata
     id="metadata5169"><rdf:RDF><cc:Work
         rdf:about=""><dc:format>image/svg+xml</dc:format><dc:type
           rdf:resource="http://purl.org/dc/dcmitype/StillImage" /><dc:title></dc:title></cc:Work></rdf:RDF></metadata><defs
     id="defs5167"><clipPath
       id="clipPath5179"
       clipPathUnits="userSpaceOnUse"><path
         id="path5177"
         d="M 0,1024 H 1024 V 0 H 0 Z" /></clipPath></defs><g
     transform="matrix(1.3333333,0,0,-1.3333333,0,1365.3333)"
     id="g5171"><g
       id="g5173"><g
         clip-path="url(#clipPath5179)"
         id="g5175"><g
           transform="translate(933,190)"
           id="g5181"><path
             id="path5183"
             style="fill:#749ddd;fill-opacity:1;fill-rule:nonzero;stroke:none"
             d="m 0,0 c 0,-55.229 -44.772,-100 -100,-100 h -643 c -55.229,0 -100,44.771 -100,100 v 643 c 0,55.229 44.771,100 100,100 h 643 C -44.772,743 0,698.229 0,643 Z" /></g><g
           transform="translate(528,597)"
           id="g5185"><path
             id="path5187"
             style="fill:#cfd7f2;fill-opacity:1;fill-rule:nonzero;stroke:none"
             d="m 0,0 h -149 v -328 h 268 v 209 H 0 Z" /></g><g
           transform="translate(558,507)"
           id="g5189"><path
             id="path5191"
             style="fill:#cfd7f2;fill-opacity:1;fill-rule:nonzero;stroke:none"
             d="M 0,0 H 81.384 L 0,82.173 Z" /></g><g
           transform="translate(677,240)"
           id="g5193"><path
             id="path5195"
             style="fill:#cfd7f2;fill-opacity:1;fill-rule:nonzero;stroke:none"
             d="m 0,0 h -328 v 386 h 216.016 L 0,274.805 Z m 186,565 h -351 l -1,20 c -3.569,46.416 -30.976,64.992 -70,70 h -281 c -38.66,0 -70,-31.34 -70,-70 V -50 c 0,-60.542 49.875,-100 100,-100 h 643 c 61.875,0 100,50.25 100,100 v 545 c 0,38.66 -31.34,70 -70,70" /></g></g></g></g></svg>