<?xml version="1.0" encoding="UTF-8" standalone="no"?>
<svg
   xmlns:dc="http://purl.org/dc/elements/1.1/"
   xmlns:cc="http://creativecommons.org/ns#"
   xmlns:rdf="http://www.w3.org/1999/02/22-rdf-syntax-ns#"
   xmlns:svg="http://www.w3.org/2000/svg"
   xmlns="http://www.w3.org/2000/svg"
   viewBox="0 0 1280 1280"
   height="1280"
   width="1280"
   xml:space="preserve"
   version="1.1"
   id="svg3422"><metadata
     id="metadata3428"><rdf:RDF><cc:Work
         rdf:about=""><dc:format>image/svg+xml</dc:format><dc:type
           rdf:resource="http://purl.org/dc/dcmitype/StillImage" /><dc:title></dc:title></cc:Work></rdf:RDF></metadata><defs
     id="defs3426"><clipPath
       id="clipPath3436"
       clipPathUnits="userSpaceOnUse"><path
         id="path3438"
         d="m 0,1024 1024,0 L 1024,0 0,0 0,1024 Z" /></clipPath></defs><g
     transform="matrix(1.25,0,0,-1.25,0,1280)"
     id="g3430"><g
       id="g3432"><g
         clip-path="url(#clipPath3436)"
         id="g3434"><g
           transform="translate(933,190)"
           id="g3440"><path
             id="path3442"
             style="fill:#749ddd;fill-opacity:1;fill-rule:nonzero;stroke:none"
             d="m 0,0 c 0,-55.229 -44.772,-100 -100,-100 l -643,0 c -55.229,0 -100,44.771 -100,100 l 0,643 c 0,55.229 44.771,100 100,100 l 643,0 C -44.772,743 0,698.229 0,643 L 0,0 Z" /></g><g
           transform="translate(863,805)"
           id="g3444"><path
             id="path3446"
             style="fill:#cfd7f2;fill-opacity:1;fill-rule:nonzero;stroke:none"
             d="m 0,0 -351,0 -1,20 c -3.569,46.416 -30.976,64.992 -70,70 l -281,0 c -38.66,0 -70,-31.34 -70,-70 l 0,-635 c 0,-60.542 49.875,-100 100,-100 l 643,0 c 61.875,0 100,50.25 100,100 l 0,545 C 70,-31.34 38.66,0 0,0" /></g><g
           transform="translate(587.5361,401)"
           id="g3448"><path
             id="path3450"
             style="fill:#749ddd;fill-opacity:1;fill-rule:nonzero;stroke:none"
             d="M 0,0 -134.883,232 0.066,232 133.441,0 0,0 Z" /></g><g
           transform="translate(304.8999,392.4161)"
           id="g3452"><path
             id="path3454"
             style="fill:#749ddd;fill-opacity:1;fill-rule:nonzero;stroke:none"
             d="M 0,0 134.106,232.581 201.312,116.727 66.707,-115.477 0,0 Z" /></g><g
           transform="translate(385.2293,269)"
           id="g3456"><path
             id="path3458"
             style="fill:#749ddd;fill-opacity:1;fill-rule:nonzero;stroke:none"
             d="M 0,0 66.889,116 335.771,116 269.543,0 0,0 Z" /></g></g></g></g></svg>