<?xml version="1.0" encoding="UTF-8" standalone="no"?>
<svg
   xmlns:dc="http://purl.org/dc/elements/1.1/"
   xmlns:cc="http://creativecommons.org/ns#"
   xmlns:rdf="http://www.w3.org/1999/02/22-rdf-syntax-ns#"
   xmlns:svg="http://www.w3.org/2000/svg"
   xmlns="http://www.w3.org/2000/svg"
   viewBox="0 0 1365.3333 1365.3333"
   height="1365.3333"
   width="1365.3333"
   xml:space="preserve"
   id="svg5197"
   version="1.1"><metadata
     id="metadata5203"><rdf:RDF><cc:Work
         rdf:about=""><dc:format>image/svg+xml</dc:format><dc:type
           rdf:resource="http://purl.org/dc/dcmitype/StillImage" /><dc:title></dc:title></cc:Work></rdf:RDF></metadata><defs
     id="defs5201"><clipPath
       id="clipPath5213"
       clipPathUnits="userSpaceOnUse"><path
         id="path5211"
         d="M 0,1024 H 1024 V 0 H 0 Z" /></clipPath></defs><g
     transform="matrix(1.3333333,0,0,-1.3333333,0,1365.3333)"
     id="g5205"><g
       id="g5207"><g
         clip-path="url(#clipPath5213)"
         id="g5209"><g
           transform="translate(933,190)"
           id="g5215"><path
             id="path5217"
             style="fill:#749ddd;fill-opacity:1;fill-rule:nonzero;stroke:none"
             d="m 0,0 c 0,-55.229 -44.772,-100 -100,-100 h -643 c -55.229,0 -100,44.771 -100,100 v 643 c 0,55.229 44.771,100 100,100 h 643 C -44.772,743 0,698.229 0,643 Z" /></g><g
           transform="translate(511,242.463)"
           id="g5219"><path
             id="path5221"
             style="fill:#cfd7f2;fill-opacity:1;fill-rule:nonzero;stroke:none"
             d="m 0,0 c -110.2,0 -199.537,89.337 -199.537,199.537 0,110.2 89.337,199.537 199.537,199.537 110.2,0 199.537,-89.337 199.537,-199.537 C 199.537,89.337 110.2,0 0,0 M 352,562.537 H 1 l -1,20 c -3.569,46.416 -30.976,64.992 -70,70 h -281 c -38.66,0 -70,-31.34 -70,-70 v -635 c 0,-60.542 49.875,-100 100,-100 h 643 c 61.875,0 100,50.25 100,100 v 545 c 0,38.66 -31.34,70 -70,70" /></g><g
           transform="translate(587.9056,410.2348)"
           id="g5223"><path
             id="path5225"
             style="fill:#cfd7f2;fill-opacity:1;fill-rule:nonzero;stroke:none"
             d="m 0,0 c -23.709,-28.486 -47.422,-56.883 -71.131,-85.368 -1.74,-2.096 -3.795,-2.809 -5.775,-2.674 -1.979,-0.135 -4.026,0.649 -5.774,2.74 -23.709,28.486 -47.422,56.805 -71.131,85.291 -4.39,5.264 -1.84,13.776 5.77,13.776 h 30.135 v 129.601 c 0,4.454 3.428,8.399 7.881,8.399 h 66.239 c 4.453,0 7.88,-3.945 7.88,-8.399 V 13.765 H -5.771 C 1.84,13.765 4.39,5.264 0,0 m -76.906,199.376 c -92.565,0 -167.611,-75.042 -167.611,-167.611 0,-92.565 75.046,-167.611 167.611,-167.611 92.57,0 167.612,75.046 167.612,167.611 0,92.569 -75.042,167.611 -167.612,167.611" /></g></g></g></g></svg>