<?xml version="1.0" encoding="UTF-8" standalone="no"?>
<svg
   xmlns:dc="http://purl.org/dc/elements/1.1/"
   xmlns:cc="http://creativecommons.org/ns#"
   xmlns:rdf="http://www.w3.org/1999/02/22-rdf-syntax-ns#"
   xmlns:svg="http://www.w3.org/2000/svg"
   xmlns="http://www.w3.org/2000/svg"
   viewBox="0 0 1365.3333 1365.3333"
   height="1365.3333"
   width="1365.3333"
   xml:space="preserve"
   id="svg5111"
   version="1.1"><metadata
     id="metadata5117"><rdf:RDF><cc:Work
         rdf:about=""><dc:format>image/svg+xml</dc:format><dc:type
           rdf:resource="http://purl.org/dc/dcmitype/StillImage" /><dc:title></dc:title></cc:Work></rdf:RDF></metadata><defs
     id="defs5115"><clipPath
       id="clipPath5127"
       clipPathUnits="userSpaceOnUse"><path
         id="path5125"
         d="M 0,1024 H 1024 V 0 H 0 Z" /></clipPath></defs><g
     transform="matrix(1.3333333,0,0,-1.3333333,0,1365.3333)"
     id="g5119"><g
       id="g5121"><g
         clip-path="url(#clipPath5127)"
         id="g5123"><g
           transform="translate(933,190)"
           id="g5129"><path
             id="path5131"
             style="fill:#749ddd;fill-opacity:1;fill-rule:nonzero;stroke:none"
             d="m 0,0 c 0,-55.229 -44.772,-100 -100,-100 h -643 c -55.229,0 -100,44.771 -100,100 v 643 c 0,55.229 44.771,100 100,100 h 643 C -44.772,743 0,698.229 0,643 Z" /></g><g
           transform="translate(746.8322,365)"
           id="g5133"><path
             id="path5135"
             style="fill:#cfd7f2;fill-opacity:1;fill-rule:nonzero;stroke:none"
             d="m 0,0 h -55.408 c 0,0 -0.951,0.016 -1.847,1.751 -0.895,1.735 -27.255,57.206 -27.255,57.206 0,0 -0.598,1.244 -1.418,1.32 -0.82,0.075 -1.493,0.287 -1.567,2.226 -0.075,1.94 -12.687,27.486 -12.687,27.486 0,0 -1.193,4.011 0.896,3.011 H 0.112 Z m -14.513,-128.544 c -10.746,-7.909 -17.163,-11.342 -30.894,-6.118 -7.014,2.983 -10.596,9.7 -13.73,16.565 -3.134,6.865 -28.508,66.191 -32.761,78.056 -0.598,1.641 -3.427,7.125 -1.456,7.947 0,0 20.335,8.246 27.648,14.664 0,0 2.537,1.641 4.104,-0.821 0.821,-1.12 49.774,-74.622 53.505,-82.681 3.732,-8.06 4.33,-19.702 -6.416,-27.612 m -90.744,106.565 c -2.463,3.73 -5.746,9.627 -5.746,9.627 0,0 -0.598,0.673 -0.523,3.508 0.074,2.836 -1.045,2.985 -1.941,3.209 -0.895,0.224 -1.195,-0.297 -2.986,2.613 -1.791,2.91 -7.164,11.567 -7.164,11.567 0,0 -1.566,1.493 -0.97,3.955 0.597,2.463 -0.224,3.134 -1.493,3.358 -1.268,0.224 -2.387,0.822 -3.208,2.538 -0.821,1.716 -5.299,8.208 -5.299,8.208 0,0 -2.26,3.744 0.524,4.844 0,0 28.656,10.895 38.655,20.745 0,0 2.054,1.903 4.405,-2.35 2.351,-4.254 4.329,-8.545 4.329,-8.545 0,0 1.493,-1.865 0.895,-6.343 0,0 -0.149,-1.119 1.567,-0.671 0,0 0.522,0.97 2.09,-2.537 1.567,-3.508 5.148,-10.671 6.043,-12.984 0.299,-0.97 0.672,-1.94 0,-3.805 0,0 -0.372,-3.208 2.315,-3.506 0.895,-0.15 1.119,0.298 2.239,-2.389 1.119,-2.686 4.476,-9.402 4.476,-9.402 0,0 2.314,-3.806 -1.343,-6.492 -3.657,-2.687 -4.553,-4.18 -11.866,-8.358 -7.313,-4.178 -15.969,-7.462 -15.969,-7.462 0,0 -6.568,-3.059 -9.03,0.672 m -27.087,22.055 c -2.836,0.074 -207.976,-0.471 -207.976,-0.471 0,0 -2.57,-0.432 -1.27,1.809 L -289.015,91 h 105.554 c 0,0 1.119,0.969 1.679,0.297 0.56,-0.671 36.043,-61.303 36.043,-61.303 0,0 0.672,-0.729 0,-1.811 -0.672,-1.081 -0.671,-1.594 -0.074,-2.527 0.596,-0.933 14.588,-23.334 14.588,-23.334 0,0 1.717,-2.321 -1.119,-2.246 m -313.94,-31.162 112.831,197.005 55.071,-31.79 -112.83,-196.109 c 0,0 -35.371,10.298 -55.072,30.894 m 44.103,-39.513 c 0,0 -35.484,-33.469 -39.625,-36.939 -4.142,-3.47 -9.067,-9.738 -9.067,-9.738 0,0 -7.499,-8.433 -10.708,-11.867 -3.209,-3.433 -4.703,-2.236 -6.642,-1.192 -1.94,1.045 0,6.567 0,6.567 0,0 3.134,10.148 4.776,14.028 1.642,3.881 2.686,8.359 2.686,8.359 0,0 11.679,56.415 12.239,60.221 0.559,3.806 2.238,0.895 2.238,0.895 14.552,-15.783 44.418,-25.662 44.418,-25.662 4.051,-1.202 -0.315,-4.672 -0.315,-4.672 M -480.832,93 h 94.098 c 0,0 1.938,0.268 1.043,-1.747 -0.896,-2.015 -51.526,-89.542 -51.526,-89.542 0,0 -0.448,-1.711 -3.134,-1.711 h -40.481 z m 152.005,79.934 3.06,4.701 c 0,0 0.895,1.194 0,1.94 -0.896,0.746 -1.119,2.313 -0.448,3.955 0.672,1.642 3.433,1.343 3.88,1.045 l 2.015,2.388 c 0,0 -3.284,2.386 -0.597,6.043 1.268,1.417 2.387,1.642 4.328,0.895 l 4.551,7.313 c 0,0 -2.91,0.97 -1.567,4.477 0.523,1.269 2.239,2.09 5.224,1.866 l 1.269,2.089 c 0,0 -1.941,0.448 -1.717,3.508 0.299,1.716 1.866,3.731 5.075,3.059 l 1.79,3.283 c 0,0 0.523,1.493 3.209,0.448 2.687,-1.045 51.64,-30.296 51.64,-30.296 0,0 1.044,-0.746 -0.672,-2.686 -0.97,-1.194 -1.642,-2.463 -1.642,-2.463 0,0 2.612,-1.791 0.97,-4.552 -1.044,-1.567 -4.029,-1.641 -4.402,-1.045 l -1.418,-2.388 c 0,0 2.313,-2.91 0.895,-5.223 -1.418,-2.314 -3.507,-1.045 -4.179,-0.597 l -4.925,-7.164 c 0,0 2.463,-3.507 0.672,-6.492 -0.746,-1.269 -4.627,-0.448 -4.403,-0.448 0.224,0 -1.567,-2.388 -1.567,-2.388 0,0 2.761,-3.209 1.418,-5.522 -0.671,-1.343 -2.537,-1.791 -4.701,-1.045 l -2.91,-5.372 c 0,0 -0.821,-1.791 -3.135,-0.373 -2.313,1.418 -50.445,29.028 -50.445,29.028 0,0 -1.529,0.822 -1.268,2.016 m 35.558,53.43 c 1.679,2.91 4.478,7.051 4.478,7.051 0,0 5.783,9.515 19.028,9.515 9.853,0 19.029,-6.38 19.029,-6.38 0,0 12.089,-7.164 12.089,-20.149 0.056,-5.26 -1.939,-11.678 -3.433,-14.383 -1.455,-2.855 -2.947,-4.03 -2.947,-4.03 0,0 -1.794,-1.817 -2.91,-1.175 l -45.334,26.081 c 0,0 -1.679,0.559 0,3.47 m 33.021,95.592 c 5.373,0.224 15.001,-11.024 16.491,-13.355 l 25.372,-39.702 c 0,0 107.906,-170.589 119.547,-203.274 0.895,-1.902 2.015,-6.38 -0.896,-8.171 -2.91,-1.791 -34.476,-18.805 -34.476,-18.805 0,0 -4.477,-2.239 -6.716,0.784 -2.238,3.022 -21.043,33.953 -27.909,47.087 -6.866,13.133 -41.49,92.556 -50.445,110.156 -8.955,17.599 -39.849,85.655 -43.878,95.953 -4.03,10.298 -4.702,10.074 -5.149,18.581 0.223,4.925 2.686,10.522 8.059,10.746 M 116.168,440 h -351 l -1,20 c -3.569,46.416 -30.976,64.992 -70,70 h -281 c -38.66,0 -70,-31.34 -70,-70 v -635 c 0,-60.542 49.874,-100 100,-100 h 643 c 61.875,0 100,50.25 100,100 v 545 c 0,38.66 -31.34,70 -70,70" /></g></g></g></g></svg>