<?xml version="1.0" encoding="UTF-8" standalone="no"?>
<svg
   xmlns:dc="http://purl.org/dc/elements/1.1/"
   xmlns:cc="http://creativecommons.org/ns#"
   xmlns:rdf="http://www.w3.org/1999/02/22-rdf-syntax-ns#"
   xmlns:svg="http://www.w3.org/2000/svg"
   xmlns="http://www.w3.org/2000/svg"
   viewBox="0 0 1365.3333 1365.3333"
   height="1365.3333"
   width="1365.3333"
   xml:space="preserve"
   id="svg5253"
   version="1.1"><metadata
     id="metadata5259"><rdf:RDF><cc:Work
         rdf:about=""><dc:format>image/svg+xml</dc:format><dc:type
           rdf:resource="http://purl.org/dc/dcmitype/StillImage" /><dc:title></dc:title></cc:Work></rdf:RDF></metadata><defs
     id="defs5257"><clipPath
       id="clipPath5269"
       clipPathUnits="userSpaceOnUse"><path
         id="path5267"
         d="M 0,1024 H 1024 V 0 H 0 Z" /></clipPath></defs><g
     transform="matrix(1.3333333,0,0,-1.3333333,0,1365.3333)"
     id="g5261"><g
       id="g5263"><g
         clip-path="url(#clipPath5269)"
         id="g5265"><g
           transform="translate(933,190)"
           id="g5271"><path
             id="path5273"
             style="fill:#749ddd;fill-opacity:1;fill-rule:nonzero;stroke:none"
             d="m 0,0 c 0,-55.229 -44.772,-100 -100,-100 h -643 c -55.229,0 -100,44.771 -100,100 v 643 c 0,55.229 44.771,100 100,100 h 643 C -44.772,743 0,698.229 0,643 Z" /></g><path
           id="path5275"
           style="fill:#cfd7f2;fill-opacity:1;fill-rule:nonzero;stroke:none"
           d="m 351,486 h 27 v 27 h -27 z" /><path
           id="path5277"
           style="fill:#cfd7f2;fill-opacity:1;fill-rule:nonzero;stroke:none"
           d="m 351,540 h 27 v 26 h -27 z" /><path
           id="path5279"
           style="fill:#cfd7f2;fill-opacity:1;fill-rule:nonzero;stroke:none"
           d="M 404,326 H 618 V 566 H 404 Z" /><path
           id="path5281"
           style="fill:#cfd7f2;fill-opacity:1;fill-rule:nonzero;stroke:none"
           d="m 351,326 h 27 v 27 h -27 z" /><path
           id="path5283"
           style="fill:#cfd7f2;fill-opacity:1;fill-rule:nonzero;stroke:none"
           d="m 351,380 h 27 v 26 h -27 z" /><path
           id="path5285"
           style="fill:#cfd7f2;fill-opacity:1;fill-rule:nonzero;stroke:none"
           d="m 644,326 h 27 v 27 h -27 z" /><path
           id="path5287"
           style="fill:#cfd7f2;fill-opacity:1;fill-rule:nonzero;stroke:none"
           d="m 351,433 h 27 v 27 h -27 z" /><g
           transform="translate(698,312.8196)"
           id="g5289"><path
             id="path5291"
             style="fill:#cfd7f2;fill-opacity:1;fill-rule:nonzero;stroke:none"
             d="M 0,0 C 0,-13.339 -0.234,-13.82 -13.573,-13.82 H -360.427 C -373.766,-13.82 -374,-13.339 -374,0 v 266.813 c 0,13.343 0.234,13.367 13.573,13.367 H -13.569 C -0.23,280.18 0,280.156 0,266.813 Z m 165,492.18 h -351 l -1,20 c -3.569,46.416 -30.976,64.992 -70,70 h -281 c -38.66,0 -70,-31.339 -70,-70 v -635 c 0,-60.542 49.875,-100 100,-100 h 643 c 61.875,0 100,50.25 100,100 v 545 c 0,38.661 -31.34,70 -70,70" /></g><path
           id="path5293"
           style="fill:#cfd7f2;fill-opacity:1;fill-rule:nonzero;stroke:none"
           d="m 644,540 h 27 v 26 h -27 z" /><path
           id="path5295"
           style="fill:#cfd7f2;fill-opacity:1;fill-rule:nonzero;stroke:none"
           d="m 644,380 h 27 v 26 h -27 z" /><path
           id="path5297"
           style="fill:#cfd7f2;fill-opacity:1;fill-rule:nonzero;stroke:none"
           d="m 644,433 h 27 v 27 h -27 z" /><path
           id="path5299"
           style="fill:#cfd7f2;fill-opacity:1;fill-rule:nonzero;stroke:none"
           d="m 644,486 h 27 v 27 h -27 z" /></g></g></g></svg>