<?xml version="1.0" encoding="UTF-8" standalone="no"?>
<svg
   xmlns:dc="http://purl.org/dc/elements/1.1/"
   xmlns:cc="http://creativecommons.org/ns#"
   xmlns:rdf="http://www.w3.org/1999/02/22-rdf-syntax-ns#"
   xmlns:svg="http://www.w3.org/2000/svg"
   xmlns="http://www.w3.org/2000/svg"
   viewBox="0 0 1280 1280"
   height="1280"
   width="1280"
   xml:space="preserve"
   version="1.1"
   id="svg2"><metadata
     id="metadata8"><rdf:RDF><cc:Work
         rdf:about=""><dc:format>image/svg+xml</dc:format><dc:type
           rdf:resource="http://purl.org/dc/dcmitype/StillImage" /><dc:title></dc:title></cc:Work></rdf:RDF></metadata><defs
     id="defs6"><clipPath
       id="clipPath16"
       clipPathUnits="userSpaceOnUse"><path
         id="path18"
         d="m 0,1024 1024,0 L 1024,0 0,0 0,1024 Z" /></clipPath></defs><g
     transform="matrix(1.25,0,0,-1.25,0,1280)"
     id="g10"><g
       id="g12"><g
         clip-path="url(#clipPath16)"
         id="g14"><g
           transform="translate(90,799)"
           id="g20"><path
             id="path22"
             style="fill:#66cbfc;fill-opacity:1;fill-rule:nonzero;stroke:none"
             d="M 0,0 0,-621.05 C 0,-669.35 45.27,-709 100.5,-709 l 643,0 c 55.23,0 99.5,39.65 99.5,87.95 L 843,0 0,0 Z" /></g><g
           transform="translate(369.6515,915.3827)"
           id="g24"><path
             id="path26"
             style="fill:#93dfff;fill-opacity:1;fill-rule:nonzero;stroke:none"
             d="m 0,0 c -11.671,11.3 -27.279,17.617 -43.524,17.617 l -136.127,0 -72.223,0 c -15.341,0 -27.777,-12.436 -27.777,-27.777 l 0,-106.223 843,0 0,28 c 0,0 1.709,59 -66.329,59 l -443.248,0 c -15.024,0 -29.458,5.843 -40.252,16.293 L 0,0 Z" /></g></g></g></g></svg>