<?xml version="1.0" encoding="UTF-8" standalone="no"?>
<svg
   xmlns:dc="http://purl.org/dc/elements/1.1/"
   xmlns:cc="http://creativecommons.org/ns#"
   xmlns:rdf="http://www.w3.org/1999/02/22-rdf-syntax-ns#"
   xmlns:svg="http://www.w3.org/2000/svg"
   xmlns="http://www.w3.org/2000/svg"
   viewBox="0 0 1280 1280"
   height="1280"
   width="1280"
   xml:space="preserve"
   version="1.1"
   id="svg2"><metadata
     id="metadata8"><rdf:RDF><cc:Work
         rdf:about=""><dc:format>image/svg+xml</dc:format><dc:type
           rdf:resource="http://purl.org/dc/dcmitype/StillImage" /><dc:title></dc:title></cc:Work></rdf:RDF></metadata><defs
     id="defs6"><clipPath
       id="clipPath16"
       clipPathUnits="userSpaceOnUse"><path
         id="path18"
         d="m 0,1024 1024,0 L 1024,0 0,0 0,1024 Z" /></clipPath></defs><g
     transform="matrix(1.25,0,0,-1.25,0,1280)"
     id="g10"><g
       id="g12"><g
         clip-path="url(#clipPath16)"
         id="g14"><g
           transform="translate(933,190)"
           id="g20"><path
             id="path22"
             style="fill:#749ddd;fill-opacity:1;fill-rule:nonzero;stroke:none"
             d="m 0,0 c 0,-55.229 -44.772,-100 -100,-100 l -643,0 c -55.229,0 -100,44.771 -100,100 l 0,643 c 0,55.229 44.771,100 100,100 l 643,0 C -44.772,743 0,698.229 0,643 L 0,0 Z" /></g><g
           transform="translate(863,805)"
           id="g24"><path
             id="path26"
             style="fill:#cfd7f2;fill-opacity:1;fill-rule:nonzero;stroke:none"
             d="m 0,0 -351,0 -1,20 c -3.569,46.416 -30.976,64.992 -70,70 l -281,0 c -38.66,0 -70,-31.34 -70,-70 l 0,-635 c 0,-60.542 49.875,-100 100,-100 l 643,0 c 61.875,0 100,50.25 100,100 l 0,545 C 70,-31.34 38.66,0 0,0" /></g><g
           transform="translate(608.168,213.4687)"
           id="g28"><path
             id="path30"
             style="fill:#749ddd;fill-opacity:1;fill-rule:nonzero;stroke:none"
             d="m 0,0 -52.792,91.465 c -21.485,34.99 -34.989,57.703 -47.881,81.643 l -1.228,0 c -11.663,-23.94 -23.327,-46.039 -44.811,-82.256 L -196.436,0 l -61.385,0 126.455,209.326 -121.545,204.416 62,0 54.634,-96.99 c 15.346,-27.01 27.01,-47.881 38.059,-69.98 l 1.842,0 c 11.663,24.555 22.099,43.584 37.445,69.98 l 56.476,96.99 61.386,0 L -66.91,212.396 62,0 0,0 Z" /></g></g></g></g></svg>