<?xml version="1.0" encoding="UTF-8" standalone="no"?>
<!-- Created with Inkscape (http://www.inkscape.org/) -->

<svg
   xmlns:dc="http://purl.org/dc/elements/1.1/"
   xmlns:cc="http://creativecommons.org/ns#"
   xmlns:rdf="http://www.w3.org/1999/02/22-rdf-syntax-ns#"
   xmlns:svg="http://www.w3.org/2000/svg"
   xmlns="http://www.w3.org/2000/svg"
   xmlns:sodipodi="http://sodipodi.sourceforge.net/DTD/sodipodi-0.dtd"
   xmlns:inkscape="http://www.inkscape.org/namespaces/inkscape"
   id="svg2"
   version="1.1"
   inkscape:version="0.91 r13725"
   xml:space="preserve"
   width="1280"
   height="1280"
   viewBox="0 0 1280 1280"
   sodipodi:docname="folder-library.svg"><metadata
     id="metadata8"><rdf:RDF><cc:Work
         rdf:about=""><dc:format>image/svg+xml</dc:format><dc:type
           rdf:resource="http://purl.org/dc/dcmitype/StillImage" /><dc:title></dc:title></cc:Work></rdf:RDF></metadata><defs
     id="defs6"><clipPath
       clipPathUnits="userSpaceOnUse"
       id="clipPath16"><path
         d="m 0,1024 1024,0 L 1024,0 0,0 0,1024 Z"
         id="path18"
         inkscape:connector-curvature="0" /></clipPath></defs><sodipodi:namedview
     pagecolor="#ffffff"
     bordercolor="#666666"
     borderopacity="1"
     objecttolerance="10"
     gridtolerance="10"
     guidetolerance="10"
     inkscape:pageopacity="0"
     inkscape:pageshadow="2"
     inkscape:window-width="718"
     inkscape:window-height="480"
     id="namedview4"
     showgrid="false"
     inkscape:zoom="0.184375"
     inkscape:cx="640"
     inkscape:cy="640"
     inkscape:window-x="0"
     inkscape:window-y="0"
     inkscape:window-maximized="0"
     inkscape:current-layer="g10" /><g
     id="g10"
     inkscape:groupmode="layer"
     inkscape:label="folder-library"
     transform="matrix(1.25,0,0,-1.25,0,1280)"><g
       id="g12"><g
         id="g14"
         clip-path="url(#clipPath16)"><g
           id="g20"
           transform="translate(933,190)"><path
             d="m 0,0 c 0,-55.229 -44.772,-100 -100,-100 l -643,0 c -55.229,0 -100,44.771 -100,100 l 0,643 c 0,55.229 44.771,100 100,100 l 643,0 C -44.772,743 0,698.229 0,643 L 0,0 Z"
             style="fill:#749ddd;fill-opacity:1;fill-rule:nonzero;stroke:none"
             id="path22"
             inkscape:connector-curvature="0" /></g><g
           id="g24"
           transform="translate(863,805)"><path
             d="m 0,0 -351,0 -1,20 c -3.569,46.416 -30.976,64.992 -70,70 l -281,0 c -38.66,0 -70,-31.34 -70,-70 l 0,-635 c 0,-60.542 49.875,-100 100,-100 l 643,0 c 61.875,0 100,50.25 100,100 l 0,545 C 70,-31.34 38.66,0 0,0"
             style="fill:#cfd7f2;fill-opacity:1;fill-rule:nonzero;stroke:none"
             id="path26"
             inkscape:connector-curvature="0" /></g><g
           id="g28"
           transform="translate(711.8749,255)"><path
             d="m 0,0 -401.802,0 6.599,21 L -6.599,21 0,0 Z m -311.875,256 0,-200 56,0 0,200 30,0 0,-200 55,0 0,200 29,0 0,-200 56,0 0,200 30,0 0,-200 25.048,0 6.599,-22 -31.608,0 -29.845,0 -55.601,0 -29.845,0 -55.601,0 -29.845,0 -54.707,0 -29.845,0 -34.146,0 6.599,22 27.797,0 0,200 29,0 z m 112.125,43.733 c -13.186,0 -23.876,10.689 -23.876,23.876 0,13.186 10.69,23.876 23.876,23.876 13.187,0 23.876,-10.69 23.876,-23.876 0,-13.187 -10.689,-23.876 -23.876,-23.876 M -14.875,279.349 -199.77,385 -386.875,278.752 l 0,-9.752 372,0 0,10.349 z"
             style="fill:#749ddd;fill-opacity:1;fill-rule:nonzero;stroke:none"
             id="path30"
             inkscape:connector-curvature="0" /></g></g></g></g></svg>