<?xml version="1.0" encoding="UTF-8" standalone="no"?>
<svg
   xmlns:dc="http://purl.org/dc/elements/1.1/"
   xmlns:cc="http://creativecommons.org/ns#"
   xmlns:rdf="http://www.w3.org/1999/02/22-rdf-syntax-ns#"
   xmlns:svg="http://www.w3.org/2000/svg"
   xmlns="http://www.w3.org/2000/svg"
   viewBox="0 0 1280 1280"
   height="1280"
   width="1280"
   xml:space="preserve"
   version="1.1"
   id="svg2"><metadata
     id="metadata8"><rdf:RDF><cc:Work
         rdf:about=""><dc:format>image/svg+xml</dc:format><dc:type
           rdf:resource="http://purl.org/dc/dcmitype/StillImage" /><dc:title></dc:title></cc:Work></rdf:RDF></metadata><defs
     id="defs6"><clipPath
       id="clipPath16"
       clipPathUnits="userSpaceOnUse"><path
         id="path18"
         d="m 0,1024 1024,0 L 1024,0 0,0 0,1024 Z" /></clipPath></defs><g
     transform="matrix(1.25,0,0,-1.25,0,1280)"
     id="g10"><g
       id="g12"><g
         clip-path="url(#clipPath16)"
         id="g14"><g
           transform="translate(933,190)"
           id="g20"><path
             id="path22"
             style="fill:#749ddd;fill-opacity:1;fill-rule:nonzero;stroke:none"
             d="m 0,0 c 0,-55.229 -44.772,-100 -100,-100 l -643,0 c -55.229,0 -100,44.771 -100,100 l 0,643 c 0,55.229 44.771,100 100,100 l 643,0 C -44.772,743 0,698.229 0,643 L 0,0 Z" /></g><g
           transform="translate(863,805)"
           id="g24"><path
             id="path26"
             style="fill:#cfd7f2;fill-opacity:1;fill-rule:nonzero;stroke:none"
             d="m 0,0 -351,0 -1,20 c -3.569,46.416 -30.976,64.992 -70,70 l -281,0 c -38.66,0 -70,-31.34 -70,-70 l 0,-635 c 0,-60.542 49.875,-100 100,-100 l 643,0 c 61.875,0 100,50.25 100,100 l 0,545 C 70,-31.34 38.66,0 0,0" /></g><g
           transform="translate(279.5562,557.6923)"
           id="g28"><path
             id="path30"
             style="fill:#749ddd;fill-opacity:1;fill-rule:nonzero;stroke:none"
             d="M 0,0 135.638,87.483 230.987,9.208 94.006,-74.054 0,0 Z" /></g><g
           transform="translate(279.5562,408.8168)"
           id="g32"><path
             id="path34"
             style="fill:#749ddd;fill-opacity:1;fill-rule:nonzero;stroke:none"
             d="M 0,0 94.006,74.821 230.987,-9.209 135.83,-86.908 0,0 Z" /></g><g
           transform="translate(647.5245,483.0624)"
           id="g36"><path
             id="path38"
             style="fill:#749ddd;fill-opacity:1;fill-rule:nonzero;stroke:none"
             d="M 0,0 -136.981,-83.454 -41.823,-161.346 93.622,-73.862 0,0 Z" /></g><g
           transform="translate(605.7014,645.1758)"
           id="g40"><path
             id="path42"
             style="fill:#749ddd;fill-opacity:1;fill-rule:nonzero;stroke:none"
             d="M 0,0 136.021,-87.676 41.823,-162.113 -95.158,-78.275 0,0 Z" /></g><g
           transform="translate(373,301.5722)"
           id="g44"><path
             id="path46"
             style="fill:#749ddd;fill-opacity:1;fill-rule:nonzero;stroke:none"
             d="M 0,0 0,29.161 42.297,3.262 137.595,81.152 232.848,3.645 274,29.737 274,0 137.767,-80.385 0,0 Z" /></g></g></g></g></svg>