<?xml version="1.0" encoding="UTF-8" standalone="no"?>
<svg
   xmlns:dc="http://purl.org/dc/elements/1.1/"
   xmlns:cc="http://creativecommons.org/ns#"
   xmlns:rdf="http://www.w3.org/1999/02/22-rdf-syntax-ns#"
   xmlns:svg="http://www.w3.org/2000/svg"
   xmlns="http://www.w3.org/2000/svg"
   viewBox="0 0 1365.3333 1365.3333"
   height="1365.3333"
   width="1365.3333"
   xml:space="preserve"
   id="svg5301"
   version="1.1"><metadata
     id="metadata5307"><rdf:RDF><cc:Work
         rdf:about=""><dc:format>image/svg+xml</dc:format><dc:type
           rdf:resource="http://purl.org/dc/dcmitype/StillImage" /><dc:title></dc:title></cc:Work></rdf:RDF></metadata><defs
     id="defs5305"><clipPath
       id="clipPath5317"
       clipPathUnits="userSpaceOnUse"><path
         id="path5315"
         d="M 0,1024 H 1024 V 0 H 0 Z" /></clipPath></defs><g
     transform="matrix(1.3333333,0,0,-1.3333333,0,1365.3333)"
     id="g5309"><g
       id="g5311"><g
         clip-path="url(#clipPath5317)"
         id="g5313"><g
           transform="translate(933,190)"
           id="g5319"><path
             id="path5321"
             style="fill:#749ddd;fill-opacity:1;fill-rule:nonzero;stroke:none"
             d="m 0,0 c 0,-55.229 -44.772,-100 -100,-100 h -643 c -55.229,0 -100,44.771 -100,100 v 643 c 0,55.229 44.771,100 100,100 h 643 C -44.772,743 0,698.229 0,643 Z" /></g><g
           transform="translate(674,632.8121)"
           id="g5323"><path
             id="path5325"
             style="fill:#cfd7f2;fill-opacity:1;fill-rule:nonzero;stroke:none"
             d="m 0,0 v -93.218 -194.594 h -0.49 c 0.649,-28 -25.728,-52.609 -61.481,-57.667 -37.854,-5.348 -71.862,13.801 -75.968,42.862 -4.107,29.062 23.135,56.91 60.988,62.257 16.461,2.324 31.951,-0.051 44.951,-5.812 v 150.807 c -39,-3.412 -108,-11.931 -177,-32.324 v -201.123 h -0.081 c 0.645,-27 -25.728,-52.534 -61.486,-57.583 -37.853,-5.348 -71.865,13.831 -75.968,42.892 -4.107,29.07 23.433,56.928 61.287,62.276 16.464,2.324 32.248,-0.033 45.248,-5.785 v 246.2 11.536 c 0,0 84,51.952 240,43.962 z m 189,172.188 h -351 l -1,20 c -3.569,46.416 -30.976,64.992 -70,70 h -281 c -38.66,0 -70,-31.34 -70,-70 v -635 c 0,-60.542 49.875,-100 100,-100 h 643 c 61.875,0 100,50.249 100,100 v 545 c 0,38.66 -31.34,70 -70,70" /></g></g></g></g></svg>