<?xml version="1.0" encoding="UTF-8" standalone="no"?>
<svg
   xmlns:dc="http://purl.org/dc/elements/1.1/"
   xmlns:cc="http://creativecommons.org/ns#"
   xmlns:rdf="http://www.w3.org/1999/02/22-rdf-syntax-ns#"
   xmlns:svg="http://www.w3.org/2000/svg"
   xmlns="http://www.w3.org/2000/svg"
   viewBox="0 0 1365.3333 1365.3333"
   height="1365.3333"
   width="1365.3333"
   xml:space="preserve"
   id="svg5227"
   version="1.1"><metadata
     id="metadata5233"><rdf:RDF><cc:Work
         rdf:about=""><dc:format>image/svg+xml</dc:format><dc:type
           rdf:resource="http://purl.org/dc/dcmitype/StillImage" /><dc:title></dc:title></cc:Work></rdf:RDF></metadata><defs
     id="defs5231"><clipPath
       id="clipPath5243"
       clipPathUnits="userSpaceOnUse"><path
         id="path5241"
         d="M 0,1024 H 1024 V 0 H 0 Z" /></clipPath></defs><g
     transform="matrix(1.3333333,0,0,-1.3333333,0,1365.3333)"
     id="g5235"><g
       id="g5237"><g
         clip-path="url(#clipPath5243)"
         id="g5239"><g
           transform="translate(933,190)"
           id="g5245"><path
             id="path5247"
             style="fill:#749ddd;fill-opacity:1;fill-rule:nonzero;stroke:none"
             d="m 0,0 c 0,-55.229 -44.772,-100 -100,-100 h -643 c -55.229,0 -100,44.771 -100,100 v 643 c 0,55.229 44.771,100 100,100 h 643 C -44.772,743 0,698.229 0,643 Z" /></g><g
           transform="translate(933,735)"
           id="g5249"><path
             id="path5251"
             style="fill:#cfd7f2;fill-opacity:1;fill-rule:nonzero;stroke:none"
             d="m 0,0 c 0,38.66 -31.34,70 -70,70 h -351 l -1,20 c -3.569,46.416 -30.976,64.992 -70,70 h -281 c -38.66,0 -70,-31.34 -70,-70 v -635 c 0,-60.542 49.875,-100 100,-100 h 643 c 61.875,0 100,50.25 100,100 z" /></g></g></g></g></svg>