<?xml version="1.0" encoding="UTF-8" standalone="no"?>
<svg
   xmlns:dc="http://purl.org/dc/elements/1.1/"
   xmlns:cc="http://creativecommons.org/ns#"
   xmlns:rdf="http://www.w3.org/1999/02/22-rdf-syntax-ns#"
   xmlns:svg="http://www.w3.org/2000/svg"
   xmlns="http://www.w3.org/2000/svg"
   xmlns:sodipodi="http://sodipodi.sourceforge.net/DTD/sodipodi-0.dtd"
   xmlns:inkscape="http://www.inkscape.org/namespaces/inkscape"
   viewBox="0 0 1365.3333 1365.3333"
   height="1365.3333"
   width="1365.3333"
   xml:space="preserve"
   id="svg5253"
   version="1.1"
   inkscape:version="0.91 r13725"
   sodipodi:docname="folder-pictures.svg"><sodipodi:namedview
     pagecolor="#ffffff"
     bordercolor="#666666"
     borderopacity="1"
     objecttolerance="10"
     gridtolerance="10"
     guidetolerance="10"
     inkscape:pageopacity="0"
     inkscape:pageshadow="2"
     inkscape:window-width="1440"
     inkscape:window-height="851"
     id="namedview25"
     showgrid="false"
     inkscape:zoom="0.69140629"
     inkscape:cx="587.58843"
     inkscape:cy="662.51832"
     inkscape:window-x="0"
     inkscape:window-y="1"
     inkscape:window-maximized="1"
     inkscape:current-layer="svg5253" /><metadata
     id="metadata5259"><rdf:RDF><cc:Work
         rdf:about=""><dc:format>image/svg+xml</dc:format><dc:type
           rdf:resource="http://purl.org/dc/dcmitype/StillImage" /><dc:title></dc:title></cc:Work></rdf:RDF></metadata><defs
     id="defs5257"><clipPath
       id="clipPath5269"
       clipPathUnits="userSpaceOnUse"><path
         id="path5267"
         d="M 0,1024 H 1024 V 0 H 0 Z" /></clipPath><clipPath
       clipPathUnits="userSpaceOnUse"
       id="clipPath4619"><path
         d="M 0,1024 H 1024 V 0 H 0 Z"
         id="path4617" /></clipPath></defs><g
     id="g5271"
     transform="matrix(1.3333333,0,0,-1.3333333,1244,1112)"><path
       inkscape:connector-curvature="0"
       d="m 0,0 c 0,-55.229 -44.772,-100 -100,-100 l -643,0 c -55.229,0 -100,44.771 -100,100 l 0,643 c 0,55.229 44.771,100 100,100 l 643,0 C -44.772,743 0,698.229 0,643 Z"
       style="fill:#749ddd;fill-opacity:1;fill-rule:nonzero;stroke:none"
       id="path5273" /></g><path
     id="path5291"
     style="fill:#cfd7f2;fill-opacity:1;fill-rule:nonzero;stroke:none"
     d="m 1150.6666,292.00053 -467.99995,0 -1.33334,-26.66667 c -4.75866,-61.888 -41.30133,-86.656 -93.33333,-93.33333 l -374.66666,0 c -51.54666,0 -93.33333,41.78533 -93.33333,93.33333 l 0,846.66664 c 0,80.7227 66.5,133.3333 133.33333,133.3333 l 857.33328,0 c 82.5,0 133.3334,-67 133.3334,-133.3333 l 0,-726.66664 c 0,-51.548 -41.7867,-93.33333 -93.3334,-93.33333"
     inkscape:connector-curvature="0"
     sodipodi:nodetypes="ccccsssssssc" /><g
     id="g3626"
     transform="matrix(0.64579731,0,0,0.64579731,31.481888,79.454961)"><g
       id="g4625"
       transform="matrix(1.3333333,0,0,-1.3333333,1324.114,962.80465)"><path
         d="m -237.603,-233.222 c -71.945,0 -130.603,58.8 -130.603,130.887 0,72.229 58.658,130.887 130.603,130.887 72.087,0 130.605,-58.658 130.605,-130.887 0,-72.087 -58.518,-130.887 -130.605,-130.887 M 8.905,75.62 l -95.408,0 -57.104,57.669 c 0,0 -0.284,0.283 -0.424,0.283 l -0.283,0.283 c -8.481,8.481 -19.929,13.852 -32.933,13.852 l -118.731,0 c -13.853,0 -26.149,-5.937 -34.772,-15.407 l 0,-0.141 -55.831,-56.539 -97.529,0 c -26.29,0 -47.493,-20.637 -47.493,-46.927 l 0,-285.66 c 0,-26.292 21.203,-47.635 47.493,-47.635 l 493.015,0 c 26.15,0 47.492,21.343 47.492,47.635 l 0,285.66 c 0,26.29 -21.342,46.927 -47.492,46.927"
         style="fill:#749ddd;fill-opacity:1;fill-rule:nonzero;stroke:none"
         id="path4627"
         inkscape:connector-curvature="0"
         sodipodi:nodetypes="cssscccccssscccsssssssc" /></g><g
       id="g4629"
       transform="matrix(1.3333333,0,0,-1.3333333,1007.3107,967.32812)"><path
         d="m 0,0 c -54.56,0 -98.659,-44.242 -98.659,-98.942 0,-54.56 44.099,-98.943 98.659,-98.943 54.418,0 98.659,44.242 98.659,98.943 C 98.659,-44.242 54.418,0 0,0"
         style="fill:#749ddd;fill-opacity:1;fill-rule:nonzero;stroke:none"
         id="path4631"
         inkscape:connector-curvature="0" /></g></g></svg>