<?xml version="1.0" encoding="UTF-8" standalone="no"?>
<svg
   xmlns:dc="http://purl.org/dc/elements/1.1/"
   xmlns:cc="http://creativecommons.org/ns#"
   xmlns:rdf="http://www.w3.org/1999/02/22-rdf-syntax-ns#"
   xmlns:svg="http://www.w3.org/2000/svg"
   xmlns="http://www.w3.org/2000/svg"
   xmlns:sodipodi="http://sodipodi.sourceforge.net/DTD/sodipodi-0.dtd"
   xmlns:inkscape="http://www.inkscape.org/namespaces/inkscape"
   viewBox="0 0 1365.3333 1365.3333"
   height="1365.3333"
   width="1365.3333"
   xml:space="preserve"
   id="svg5253"
   version="1.1"
   inkscape:version="0.91 r13725"
   sodipodi:docname="folder-desktop.svg"><sodipodi:namedview
     pagecolor="#ffffff"
     bordercolor="#666666"
     borderopacity="1"
     objecttolerance="10"
     gridtolerance="10"
     guidetolerance="10"
     inkscape:pageopacity="0"
     inkscape:pageshadow="2"
     inkscape:window-width="1440"
     inkscape:window-height="851"
     id="namedview25"
     showgrid="false"
     inkscape:zoom="0.24444904"
     inkscape:cx="426.35587"
     inkscape:cy="822.12139"
     inkscape:window-x="0"
     inkscape:window-y="1"
     inkscape:window-maximized="1"
     inkscape:current-layer="g5265" /><metadata
     id="metadata5259"><rdf:RDF><cc:Work
         rdf:about=""><dc:format>image/svg+xml</dc:format><dc:type
           rdf:resource="http://purl.org/dc/dcmitype/StillImage" /><dc:title></dc:title></cc:Work></rdf:RDF></metadata><defs
     id="defs5257"><clipPath
       id="clipPath5269"
       clipPathUnits="userSpaceOnUse"><path
         id="path5267"
         d="M 0,1024 H 1024 V 0 H 0 Z" /></clipPath></defs><g
     transform="matrix(1.3333333,0,0,-1.3333333,0,1365.3333)"
     id="g5261"><g
       id="g5263"><g
         clip-path="url(#clipPath5269)"
         id="g5265"><g
           transform="translate(933,190)"
           id="g5271"><path
             id="path5273"
             style="fill:#749ddd;fill-opacity:1;fill-rule:nonzero;stroke:none"
             d="m 0,0 c 0,-55.229 -44.772,-100 -100,-100 h -643 c -55.229,0 -100,44.771 -100,100 v 643 c 0,55.229 44.771,100 100,100 h 643 C -44.772,743 0,698.229 0,643 Z" /></g><g
           transform="translate(698,312.8196)"
           id="g5289"><path
             id="path5291"
             style="fill:#cfd7f2;fill-opacity:1;fill-rule:nonzero;stroke:none"
             d="m 165,492.18 -351,0 -1,20 c -3.569,46.416 -30.976,64.992 -70,70 l -281,0 c -38.66,0 -70,-31.339 -70,-70 l 0,-635 c 0,-60.542 49.875,-100 100,-100 l 643,0 c 61.875,0 100,50.25 100,100 l 0,545 c 0,38.661 -31.34,70 -70,70"
             inkscape:connector-curvature="0"
             sodipodi:nodetypes="ccccsssssssc" /></g><g
           id="g4150"
           transform="matrix(1.1066496,0,0,1.1066496,-54.500158,-47.532826)"><rect
             ry="12.674174"
             transform="scale(1,-1)"
             y="-617.44507"
             x="291.83249"
             height="343.50687"
             width="438.37665"
             id="rect3343"
             style="fill:#749ddd;fill-opacity:1;fill-rule:evenodd;stroke:none;stroke-width:0.75px;stroke-linecap:butt;stroke-linejoin:miter;stroke-opacity:1" /><rect
             ry="3.5444133"
             transform="scale(1,-1)"
             y="-560.35083"
             x="322.61075"
             height="254.52065"
             width="375.5076"
             id="rect4147"
             style="fill:#cfd7f2;fill-opacity:1;stroke:none" /><circle
             r="8.7630043"
             transform="scale(1,-1)"
             cy="-589.24487"
             cx="330.92413"
             id="path3353"
             style="fill:#cfd7f2;fill-opacity:1;fill-rule:evenodd;stroke:none;stroke-width:0.75px;stroke-linecap:butt;stroke-linejoin:miter;stroke-opacity:1" /></g></g></g></g></svg>