<?xml version="1.0" encoding="UTF-8" standalone="no"?>
<svg
   xmlns:dc="http://purl.org/dc/elements/1.1/"
   xmlns:cc="http://creativecommons.org/ns#"
   xmlns:rdf="http://www.w3.org/1999/02/22-rdf-syntax-ns#"
   xmlns:svg="http://www.w3.org/2000/svg"
   xmlns="http://www.w3.org/2000/svg"
   viewBox="0 0 1365.3333 1365.3333"
   height="1365.3333"
   width="1365.3333"
   xml:space="preserve"
   id="svg5353"
   version="1.1"><metadata
     id="metadata5359"><rdf:RDF><cc:Work
         rdf:about=""><dc:format>image/svg+xml</dc:format><dc:type
           rdf:resource="http://purl.org/dc/dcmitype/StillImage" /><dc:title></dc:title></cc:Work></rdf:RDF></metadata><defs
     id="defs5357"><clipPath
       id="clipPath5369"
       clipPathUnits="userSpaceOnUse"><path
         id="path5367"
         d="M 0,1024 H 1024 V 0 H 0 Z" /></clipPath></defs><g
     transform="matrix(1.3333333,0,0,-1.3333333,0,1365.3333)"
     id="g5361"><g
       id="g5363"><g
         clip-path="url(#clipPath5369)"
         id="g5365"><g
           transform="translate(933,190)"
           id="g5371"><path
             id="path5373"
             style="fill:#749ddd;fill-opacity:1;fill-rule:nonzero;stroke:none"
             d="m 0,0 c 0,-55.229 -44.772,-100 -100,-100 h -643 c -55.229,0 -100,44.771 -100,100 v 643 c 0,55.229 44.771,100 100,100 h 643 C -44.772,743 0,698.229 0,643 Z" /></g><g
           transform="translate(620.7985,279.6759)"
           id="g5375"><path
             id="path5377"
             style="fill:#cfd7f2;fill-opacity:1;fill-rule:nonzero;stroke:none"
             d="m 0,0 c -11.718,0 -20.969,-9.251 -20.969,-20.969 0,-11.718 9.246,-20.969 20.969,-20.969 11.718,0 20.969,9.251 20.969,20.969 C 20.969,-9.251 11.718,0 0,0" /></g><g
           transform="translate(744.1457,443.111)"
           id="g5379"><path
             id="path5381"
             style="fill:#cfd7f2;fill-opacity:1;fill-rule:nonzero;stroke:none"
             d="m 0,0 -37.004,-37.004 c -7.401,-7.401 -18.502,-8.018 -25.903,-0.617 l -6.784,6.784 c -7.406,7.401 -7.406,19.119 0,26.52 1.233,4.317 -2.472,12.335 -9.868,19.74 -15.418,15.419 -33.304,16.035 -41.938,8.018 l -12.335,-12.952 -45.022,46.256 12.952,12.334 c 14.19,14.802 -1.85,30.22 -1.85,30.22 -39.471,39.471 -94.982,38.238 -94.982,38.238 l -0.617,14.802 c 112.867,29.603 155.422,-19.736 170.841,-34.538 l 32.687,-32.687 c 8.017,-8.634 -0.617,-32.07 11.101,-44.405 4.934,-5.55 11.101,-7.405 16.03,-8.022 7.406,7.401 19.741,6.167 26.525,-0.617 L 0.617,25.286 C 8.018,17.885 6.784,6.784 0,0 m -95.599,-212.774 c -15.418,-15.418 -40.704,-15.418 -56.735,0 l -98.682,105.467 -92.511,-111.634 c -8.634,-9.251 -24.669,-9.863 -33.304,0 l -23.435,24.052 c -9.868,9.256 -9.868,24.67 -0.617,33.926 l 106.695,99.294 -51.189,48.718 c -17.269,16.035 -27.136,20.969 -40.705,16.651 -13.568,-4.933 -32.687,-4.933 -50.572,6.784 -37.621,24.053 -35.771,70.925 -35.771,70.925 l 3.084,4.934 38.854,-25.286 c 0,0 24.053,-14.802 42.555,13.568 20.969,33.304 -2.467,46.872 -2.467,46.872 l -38.854,24.67 3.7,4.938 c 0,0 35.771,22.819 77.709,-1.233 25.903,-15.419 38.854,-45.639 32.07,-75.242 -3.7,-17.885 0,-24.053 14.185,-39.471 l 51.806,-51.189 60.445,62.29 45.638,-45.638 -60.444,-59.824 109.167,-97.449 c 15.418,-15.418 15.418,-40.088 -0.622,-56.123 m 214.453,574.663 h -350.999 l -1.001,20 c -3.569,46.416 -30.975,64.992 -70,70 h -281 c -38.66,0 -70,-31.34 -70,-70 v -635 c 0,-60.542 49.875,-100 100,-100 h 643 c 61.875,0 100,50.25 100,100 v 545 c 0,38.66 -31.34,70 -70,70" /></g></g></g></g></svg>