<?xml version="1.0" encoding="UTF-8" standalone="no"?>
<svg
   xmlns:dc="http://purl.org/dc/elements/1.1/"
   xmlns:cc="http://creativecommons.org/ns#"
   xmlns:rdf="http://www.w3.org/1999/02/22-rdf-syntax-ns#"
   xmlns:svg="http://www.w3.org/2000/svg"
   xmlns="http://www.w3.org/2000/svg"
   xmlns:sodipodi="http://sodipodi.sourceforge.net/DTD/sodipodi-0.dtd"
   xmlns:inkscape="http://www.inkscape.org/namespaces/inkscape"
   viewBox="0 0 1365.3333 1365.3333"
   height="1365.3333"
   width="1365.3333"
   xml:space="preserve"
   id="svg5383"
   version="1.1"
   inkscape:version="0.91 r13725"
   sodipodi:docname="Font Book.svg"><sodipodi:namedview
     pagecolor="#ffffff"
     bordercolor="#666666"
     borderopacity="1"
     objecttolerance="10"
     gridtolerance="10"
     guidetolerance="10"
     inkscape:pageopacity="0"
     inkscape:pageshadow="2"
     inkscape:window-width="718"
     inkscape:window-height="480"
     id="namedview14"
     showgrid="false"
     inkscape:zoom="0.17285157"
     inkscape:cx="682.66663"
     inkscape:cy="682.66663"
     inkscape:window-x="0"
     inkscape:window-y="0"
     inkscape:window-maximized="0"
     inkscape:current-layer="svg5383" /><metadata
     id="metadata5389"><rdf:RDF><cc:Work
         rdf:about=""><dc:format>image/svg+xml</dc:format><dc:type
           rdf:resource="http://purl.org/dc/dcmitype/StillImage" /><dc:title /></cc:Work></rdf:RDF></metadata><defs
     id="defs5387"><clipPath
       id="clipPath5399"
       clipPathUnits="userSpaceOnUse"><path
         id="path5397"
         d="M 0,1024 H 1024 V 0 H 0 Z" /></clipPath></defs><g
     transform="matrix(1.3333333,0,0,-1.3333333,0,1365.3333)"
     id="g5391"><g
       id="g5393"><g
         clip-path="url(#clipPath5399)"
         id="g5395"><g
           transform="translate(933,190)"
           id="g5401"><path
             id="path5403"
             style="fill:#767b88;fill-opacity:1;fill-rule:nonzero;stroke:none"
             d="m 0,0 c 0,-55.229 -44.771,-100 -100,-100 h -643 c -55.229,0 -100,44.771 -100,100 v 643 c 0,55.229 44.771,100 100,100 h 643 C -44.771,743 0,698.229 0,643 Z" /></g></g></g><g
       transform="matrix(1,0,0,-1,294.3794,255.1221)"
       style="font-variant:normal;font-weight:normal;font-stretch:normal;font-size:700px;font-family:Didot;-inkscape-font-specification:Didot;writing-mode:lr-tb;fill:#dadde0;fill-opacity:1;fill-rule:nonzero;stroke:none"
       id="text5407"><path
         d="m 21,-9.8 77.7,0 0,-478.8 -77.7,0 0,-9.8 400.4,0 0,121.1 -7.7,0 q -9.1,-27.3 -19.6,-47.6 -10.5,-21 -25.2,-35 -14.7,-14.7 -35,-21.7 -20.3,-7 -49,-7 l -116.2,0 0,226.8 45.5,0 q 23.1,0 39.2,-4.2 16.1,-4.2 27.3,-15.4 11.9,-11.9 19.6,-31.5 8.4,-20.3 16.1,-51.8 l 7.7,0 0,217.7 -7.7,0 q -4.9,-20.3 -10.5,-39.2 -4.9,-18.9 -14.7,-33.6 -9.1,-14.7 -25.2,-23.1 -15.4,-9.1 -40.6,-9.1 l -56.7,0 0,242.2 77.7,0 0,9.8 L 21,0 21,-9.8 Z"
         style=""
         id="path3343" /></g></g></svg>