<?xml version="1.0" encoding="UTF-8"?>
<svg width="1024px" height="1024px" viewBox="0 0 1024 1024" version="1.1" xmlns="http://www.w3.org/2000/svg" xmlns:xlink="http://www.w3.org/1999/xlink">
    <!-- Generator: Sketch 48.2 (47327) - http://www.bohemiancoding.com/sketch -->
    <title>Forklift 3-alt</title>
    <desc>Created with Sketch.</desc>
    <defs></defs>
    <g id="Page-1" stroke="none" stroke-width="1" fill="none" fill-rule="evenodd">
        <g id="Forklift-3-alt">
            <rect id="Outer" fill="#C4CDEF" fill-rule="nonzero" x="92" y="92" width="840" height="840" rx="100"></rect>
            <g id="Forklift" transform="translate(221.000000, 240.000000)" fill="#232323">
                <path d="M66.5,544 C29.7730641,544 0,514.226936 0,477.5 C0,440.773064 29.7730641,411 66.5,411 C103.226936,411 133,440.773064 133,477.5 C133,514.226936 103.226936,544 66.5,544 Z M66.5,507.055556 C82.8230826,507.055556 96.0555556,493.823083 96.0555556,477.5 C96.0555556,461.176917 82.8230826,447.944444 66.5,447.944444 C50.1769174,447.944444 36.9444444,461.176917 36.9444444,477.5 C36.9444444,493.823083 50.1769174,507.055556 66.5,507.055556 Z" id="Back-wheel"></path>
                <path d="M389.5,544 C352.773064,544 323,514.226936 323,477.5 C323,440.773064 352.773064,411 389.5,411 C426.226936,411 456,440.773064 456,477.5 C456,514.226936 426.226936,544 389.5,544 Z M389.5,507.055556 C405.823083,507.055556 419.055556,493.823083 419.055556,477.5 C419.055556,461.176917 405.823083,447.944444 389.5,447.944444 C373.176917,447.944444 359.944444,461.176917 359.944444,477.5 C359.944444,493.823083 373.176917,507.055556 389.5,507.055556 Z" id="Front-wheel"></path>
                <path d="M434,409.612066 C421.177319,401.195103 405.823856,396.297198 389.322814,396.297198 C344.398446,396.297198 307.98005,432.600958 307.98005,477.383916 C307.98005,490.559417 311.132365,503.000973 316.726173,514 L138.397101,514 C143.990908,503.000973 147.143223,490.559417 147.143223,477.383916 C147.143223,432.600958 110.724827,396.297198 65.8004595,396.297198 C39.9405002,396.297198 16.8990256,408.32658 2,427.078139 C2.00651727,426.710595 2.01545506,426.341909 2.02681337,425.972081 C4.39414531,348.891419 23.1757376,313.360771 33.5843307,281.686306 C40.5233927,260.569996 46.1578264,231.674561 50.4876317,195 C64.5330255,249.905128 74.2820143,282.641572 123.843773,322.438308 C173.405531,362.235044 254.897126,366.426079 288.229952,366.426079 C310.451836,366.426079 356.581017,366.426079 426.617495,366.426079 L434,409.612066 Z" id="Body"></path>
                <path d="M116.424546,57.265976 C114.303933,174.198692 120.983526,246.740374 190.71787,278.686609 C226.097257,294.894379 279.391205,294.733908 354.474126,294.733998 C332.934745,176.867839 301.217317,113.390762 252.859816,82.403302 C217.782804,59.9259714 174.823392,57.265976 116.424546,57.265976 Z M116.424546,0 C153.926463,0 178.509379,1.15453851 202.109453,4.81138525 C233.097551,9.61301096 259.620035,18.7745276 283.612794,34.1490744 C349.137606,76.137338 386.839942,154.127744 410.648703,284.412195 L423,352 L354.474081,351.999945 C353.382259,351.999951 353.382259,351.999951 352.293759,351.999973 C297.934753,352.001064 277.18586,351.67376 252.663004,349.83655 C217.907128,347.2327 190.777637,341.67338 166.985809,330.774026 C117.321501,308.022142 86.4441908,269.066363 71.5769221,215.092554 C60.6294225,175.34899 57.971166,130.825423 59.3240734,56.2247727 L60.3437283,0 L116.424546,0 Z" id="Cockpit" fill-rule="nonzero"></path>
                <path d="M396,63 L472.854228,519 C552.625812,506.451548 589.067279,484.139897 582.178628,452.065047 L509.660748,466.353059 L448.517159,108.240158 C441.254772,78.0800528 423.749053,63 396,63 Z" id="Lift"></path>
            </g>
        </g>
    </g>
</svg>