<?xml version="1.0" encoding="UTF-8" standalone="no"?>
<svg
   xmlns:dc="http://purl.org/dc/elements/1.1/"
   xmlns:cc="http://creativecommons.org/ns#"
   xmlns:rdf="http://www.w3.org/1999/02/22-rdf-syntax-ns#"
   xmlns:svg="http://www.w3.org/2000/svg"
   xmlns="http://www.w3.org/2000/svg"
   viewBox="0 0 1365.3333 1365.3333"
   height="1365.3333"
   width="1365.3333"
   xml:space="preserve"
   id="svg2"
   version="1.1"><metadata
     id="metadata8"><rdf:RDF><cc:Work
         rdf:about=""><dc:format>image/svg+xml</dc:format><dc:type
           rdf:resource="http://purl.org/dc/dcmitype/StillImage" /><dc:title></dc:title></cc:Work></rdf:RDF></metadata><defs
     id="defs6"><clipPath
       id="clipPath18"
       clipPathUnits="userSpaceOnUse"><path
         id="path16"
         d="M 190,933 C 134.771,933 90,888.229 90,833 v 0 -643 C 90,134.771 134.771,90 190,90 v 0 h 643 c 55.228,0 100,44.771 100,100 v 0 643 c 0,55.229 -44.772,100 -100,100 v 0 z" /></clipPath><clipPath
       id="clipPath30"
       clipPathUnits="userSpaceOnUse"><path
         id="path28"
         d="M 153,934 H 976 V 91 H 153 Z" /></clipPath><clipPath
       id="clipPath46"
       clipPathUnits="userSpaceOnUse"><path
         id="path44"
         d="m 218.084,933 h 715 V 90 h -715 z" /></clipPath><clipPath
       id="clipPath62"
       clipPathUnits="userSpaceOnUse"><path
         id="path60"
         d="m 288,805 c -38.66,0 -70,-31.34 -70,-70 v 0 -447 c 0,-38.66 31.34,-70 70,-70 v 0 h 447 c 38.66,0 70,31.34 70,70 v 0 447 c 0,38.66 -31.34,70 -70,70 v 0 z" /></clipPath></defs><g
     transform="matrix(1.3333333,0,0,-1.3333333,0,1365.3333)"
     id="g10"><g
       id="g12"><g
         clip-path="url(#clipPath18)"
         id="g14"><g
           transform="translate(931,191)"
           id="g20"><path
             id="path22"
             style="fill:#201d57;fill-opacity:1;fill-rule:nonzero;stroke:none"
             d="m 0,0 c 0,-55.229 -44.772,-100 -100,-100 h -643 c -55.229,0 -100,44.771 -100,100 v 643 c 0,55.229 44.771,100 100,100 h 643 C -44.772,743 0,698.229 0,643 Z" /></g><g
           id="g24"><g
             id="g26" /><g
             id="g38"><g
               style="opacity:0.80000299"
               id="g36"
               clip-path="url(#clipPath30)"><g
                 id="g34"
                 transform="translate(976,191)"><path
                   id="path32"
                   style="fill:#03a9f4;fill-opacity:1;fill-rule:nonzero;stroke:none"
                   d="M 0,0 C 0,-55.229 -43.709,-100 -97.628,-100 H -725.372 C -779.291,-100 -823,-55.229 -823,0 v 643 c 0,55.229 43.709,100 97.628,100 H -97.628 C -43.709,743 0,698.229 0,643 Z" /></g></g></g></g><g
           id="g40"><g
             id="g42" /><g
             id="g54"><g
               style="opacity:0.5"
               id="g52"
               clip-path="url(#clipPath46)"><g
                 id="g50"
                 transform="translate(776.9915,478.4954)"><path
                   id="path48"
                   style="fill:#ffffff;fill-opacity:1;fill-rule:nonzero;stroke:none"
                   d="M 0,0 C -14.551,0 -26.533,10.977 -28.131,25.102 H -207.11 v 8.126 H -27.885 C -25.559,46.526 -13.964,56.636 0,56.636 15.64,56.636 28.318,43.958 28.318,28.318 28.318,12.679 15.64,0 0,0 M -280.59,25.102 H -454.852 C -456.45,10.977 -468.432,0 -482.983,0 c -15.64,0 -28.318,12.679 -28.318,28.318 0,15.64 12.678,28.318 28.318,28.318 13.964,0 25.559,-10.11 27.885,-23.408 H -280.59 Z M 71.277,454.505 h -545.368 c -46.843,0 -84.816,-44.772 -84.816,-100 v -643 c 0,-55.229 37.973,-100 84.816,-100 H 71.277 c 46.842,0 84.816,44.771 84.816,100 v 643 c 0,55.228 -37.974,100 -84.816,100" /></g></g></g></g></g></g><g
       id="g56"><g
         clip-path="url(#clipPath62)"
         id="g58"><g
           transform="translate(538.1745,555.5301)"
           id="g64"><path
             id="path66"
             style="fill:#ffffff;fill-opacity:1;fill-rule:nonzero;stroke:none"
             d="m 0,0 h -0.001 c -12.786,-0.001 -24.835,-4.955 -33.928,-13.951 -9.1,-9.003 -14.183,-21.011 -14.313,-33.812 -0.27,-26.604 21.155,-48.468 47.76,-48.737 0.165,-0.002 0.329,-0.003 0.495,-0.003 12.786,0 24.836,4.955 33.929,13.951 9.101,9.003 14.184,21.011 14.314,33.812 C 48.525,-22.136 27.1,-0.272 0.496,-0.003 0.331,-0.001 0.167,0 0,0 m 0,-16 c 0.112,0 0.222,-0.001 0.333,-0.002 17.811,-0.18 32.104,-14.765 31.923,-32.576 -0.179,-17.699 -14.584,-31.925 -32.243,-31.925 -0.111,0 -0.221,0.001 -0.333,0.002 -17.811,0.18 -32.103,14.765 -31.923,32.576 C -32.064,-30.226 -17.658,-16.001 0,-16" /></g><g
           transform="translate(784.8868,710.0967)"
           id="g68"><path
             id="path70"
             style="fill:#ffffff;fill-opacity:1;fill-rule:nonzero;stroke:none"
             d="m 0,0 c -0.211,-20.852 -17.286,-37.584 -38.138,-37.373 -20.852,0.211 -37.585,17.286 -37.373,38.138 0.211,20.852 17.286,37.584 38.138,37.373 C -16.521,37.927 0.211,20.852 0,0" /></g><g
           transform="translate(381.1773,306.6985)"
           id="g72"><path
             id="path74"
             style="fill:#ffffff;fill-opacity:1;fill-rule:nonzero;stroke:none"
             d="M 0,0 C -0.211,-20.852 -17.286,-37.584 -38.138,-37.373 -58.99,-37.162 -75.723,-20.087 -75.511,0.765 -75.3,21.617 -58.225,38.35 -37.373,38.138 -16.521,37.927 0.211,20.852 0,0" /></g><g
           transform="translate(505.8837,502.886)"
           id="g76"><path
             id="path78"
             style="fill:none;stroke:#ffffff;stroke-width:13;stroke-linecap:butt;stroke-linejoin:miter;stroke-miterlimit:10;stroke-dasharray:none;stroke-opacity:1"
             d="M 0,0 C -58.191,2.163 -160.82,-33.77 -162.462,-195.805" /></g><g
           transform="translate(583.0405,509.2316)"
           id="g80"><path
             id="path82"
             style="fill:none;stroke:#ffffff;stroke-width:13;stroke-linecap:butt;stroke-linejoin:miter;stroke-miterlimit:10;stroke-dasharray:none;stroke-opacity:1"
             d="M 0,0 C 58.191,-2.163 160.82,33.77 162.462,195.805" /></g></g></g></g></svg>