<?xml version="1.0" encoding="UTF-8" standalone="no"?>
<svg
   xmlns:dc="http://purl.org/dc/elements/1.1/"
   xmlns:cc="http://creativecommons.org/ns#"
   xmlns:rdf="http://www.w3.org/1999/02/22-rdf-syntax-ns#"
   xmlns:svg="http://www.w3.org/2000/svg"
   xmlns="http://www.w3.org/2000/svg"
   viewBox="0 0 1280 1280"
   height="1280"
   width="1280"
   xml:space="preserve"
   version="1.1"
   id="svg2"><metadata
     id="metadata8"><rdf:RDF><cc:Work
         rdf:about=""><dc:format>image/svg+xml</dc:format><dc:type
           rdf:resource="http://purl.org/dc/dcmitype/StillImage" /><dc:title></dc:title></cc:Work></rdf:RDF></metadata><defs
     id="defs6"><clipPath
       id="clipPath16"
       clipPathUnits="userSpaceOnUse"><path
         id="path18"
         d="m 0,1024 1024,0 L 1024,0 0,0 0,1024 Z" /></clipPath></defs><g
     transform="matrix(1.25,0,0,-1.25,0,1280)"
     id="g10"><g
       id="g12"><g
         clip-path="url(#clipPath16)"
         id="g14"><g
           transform="translate(933,190)"
           id="g20"><path
             id="path22"
             style="fill:#d63222;fill-opacity:1;fill-rule:nonzero;stroke:none"
             d="m 0,0 c 0,-55.229 -44.772,-100 -100,-100 l -643,0 c -55.229,0 -100,44.771 -100,100 l 0,643 c 0,55.229 44.771,100 100,100 l 643,0 C -44.772,743 0,698.229 0,643 L 0,0 Z" /></g><g
           transform="translate(676.2966,821)"
           id="g24"><path
             id="path26"
             style="fill:#ffffff;fill-opacity:1;fill-rule:nonzero;stroke:none"
             d="m 0,0 -30.297,0 -21.858,0 -50.784,0 c -61.223,0 -111.358,-50 -111.358,-111 l 0,-55 -62.441,0 c -22,0 -39.559,-18.146 -39.559,-40.146 l 0,0.073 c 0,-22 17.559,-39.927 39.559,-39.927 l 62.441,0 0,-148.84 c -46.583,-16.486 -79.957,-60.916 -79.957,-113.147 0,-66.274 53.726,-120 120,-120 66.274,0 120,53.726 120,120 0,52.263 -33.415,96.715 -80.043,113.177 l 0,148.81 81.267,0 c 22,0 39.733,17.854 39.733,39.854 l 0,0.073 c 0,22 -17.733,40.073 -39.733,40.073 l -81.267,0 0,55 0.04,0 c 0.81,17 15.188,31 32.606,31 l 49.496,0 21.858,0 L 0,-80 c 22,0 40,18 40,40 l 0,0 C 40,-18 22,0 0,0" /></g><g
           transform="translate(542.2303,312.8255)"
           id="g28"><path
             id="path30"
             style="fill:#231f20;fill-opacity:1;fill-rule:nonzero;stroke:none"
             d="m 0,0 c 0,-22.091 -17.909,-40 -40,-40 -22.091,0 -40,17.909 -40,40 0,22.091 17.909,40 40,40 C -17.909,40 0,22.091 0,0" /></g></g></g></g></svg>