<?xml version="1.0" encoding="UTF-8" standalone="no"?>
<svg
   xmlns:dc="http://purl.org/dc/elements/1.1/"
   xmlns:cc="http://creativecommons.org/ns#"
   xmlns:rdf="http://www.w3.org/1999/02/22-rdf-syntax-ns#"
   xmlns:svg="http://www.w3.org/2000/svg"
   xmlns="http://www.w3.org/2000/svg"
   viewBox="0 0 1365.3333 1365.3333"
   height="1365.3333"
   width="1365.3333"
   xml:space="preserve"
   id="svg4559"
   version="1.1"><metadata
     id="metadata4565"><rdf:RDF><cc:Work
         rdf:about=""><dc:format>image/svg+xml</dc:format><dc:type
           rdf:resource="http://purl.org/dc/dcmitype/StillImage" /><dc:title></dc:title></cc:Work></rdf:RDF></metadata><defs
     id="defs4563"><clipPath
       id="clipPath4575"
       clipPathUnits="userSpaceOnUse"><path
         id="path4573"
         d="M 0,1024 H 1024 V 0 H 0 Z" /></clipPath></defs><g
     transform="matrix(1.3333333,0,0,-1.3333333,0,1365.3333)"
     id="g4567"><g
       id="g4569"><g
         clip-path="url(#clipPath4575)"
         id="g4571"><g
           transform="translate(90,190)"
           id="g4577"><path
             id="path4579"
             style="fill:#3284dc;fill-opacity:1;fill-rule:nonzero;stroke:none"
             d="M 0,0 C 0,-55.229 44.771,-100 100,-100 H 422 V 321 H 0 Z" /></g><g
           transform="translate(512,933)"
           id="g4581"><path
             id="path4583"
             style="fill:#9e0b0b;fill-opacity:1;fill-rule:nonzero;stroke:none"
             d="m 0,0 v -422 h -422 v 322 c 0,55.23 44.77,100 100,100 z" /></g><g
           transform="translate(512,90)"
           id="g4585"><path
             id="path4587"
             style="fill:#d3711a;fill-opacity:1;fill-rule:nonzero;stroke:none"
             d="m 0,0 h 321 c 55.229,0 100,44.771 100,100 V 421 H 0 Z" /></g><g
           transform="translate(833,933)"
           id="g4589"><path
             id="path4591"
             style="fill:#9bdb0e;fill-opacity:1;fill-rule:nonzero;stroke:none"
             d="m 0,0 h -321 v -422 h 421 v 322 C 100,-44.771 55.229,0 0,0" /></g><g
           transform="translate(279.4482,841.6558)"
           id="g4593"><path
             id="path4595"
             style="fill:#f5f5f5;fill-opacity:1;fill-rule:nonzero;stroke:none"
             d="m 0,0 3.706,24.903 c 0,0 15.697,-0.796 27.033,-12.704 0.834,-0.893 4.978,-4.789 11.44,-6.717 2.743,-0.987 38.77,-12.524 56.289,-60.64 2.849,-11.268 9.135,-31.054 4.22,-64.067 -2.613,-17.543 -6.576,-36.623 -15.357,-52.862 0,0 12.225,-2.209 10.791,-11.826 -0.646,-4.339 -4.806,-9.025 -15.328,-9.772 0,0 -6.754,-14.322 9.116,-39.824 l 7.358,-1.098 c 0,0 11.841,0.554 9.604,-13.193 -0.723,-3.554 -1.888,-8.78 -14.263,-8.382 -12.379,0.392 -142.801,0.585 -142.801,0.585 0,0 -14.996,0.282 -14.016,8.813 0.98,8.532 3.798,11.91 10.999,11.701 2.83,-0.418 14.048,1.109 16.692,37.306 -0.172,1.761 0.123,3.748 -4.142,4.24 -4.266,0.489 -16.983,1.52 -15.903,9.749 1.082,8.227 5.407,11.056 12.049,11.947 0,0 0.689,17.255 7.847,30.36 7.159,13.104 16.879,22.071 31.512,32.909 14.63,10.837 29.952,22.436 32.282,26.431 1.222,1.407 4.341,5.858 -1.949,2.458 -6.29,-3.401 -10.707,-7.806 -24.323,-7.944 -7.037,0.323 -17.675,0.75 -43.32,-15.1 -2.559,-1.645 -9.494,-4.516 -17.18,-0.769 -7.684,3.749 -13.426,7.931 -15.025,10.772 -1.601,2.84 -3.112,11.165 2.862,19.244 5.978,8.072 32.429,26.407 38.314,43.606 C -27.896,-20.286 -23.544,-2.711 0,0" /></g><g
           transform="translate(824.7207,845.54)"
           id="g4597"><path
             id="path4599"
             style="fill:#f5f5f5;fill-opacity:1;fill-rule:nonzero;stroke:none"
             d="m 0,0 c 9.555,-1.009 47.574,-16.604 43.245,-51.045 -4.336,-34.437 -21.168,-44.918 -69.938,-78.349 -48.766,-33.431 -96.25,-63.273 -116.57,-89.038 -2.542,-3.635 -13.519,-16.414 -7.506,-26.542 6.012,-10.129 -7.355,-25.311 -20.233,-15.154 -12.881,10.158 -29.527,23.496 -41.485,37.705 -11.956,14.205 6.019,24.648 18.873,17.614 4.075,-2.384 11.428,-1.852 17.506,5.086 6.084,6.941 42.995,45.406 75.539,105.444 C -68.031,-34.234 -46.031,4.856 0,0" /></g><g
           transform="translate(594.5898,794.0107)"
           id="g4601"><path
             id="path4603"
             style="fill:#f5f5f5;fill-opacity:1;fill-rule:nonzero;stroke:none"
             d="m 0,0 c 0,0 14.927,12.698 42.52,1.936 0,0 -10.037,-9.564 -11.598,-26.443 -1.563,-16.881 8.267,-28.114 15.057,-33.757 0,0 -10.549,-19.287 -44.696,-6.037 0,0 14.024,12.187 14.963,29.563 C 17.182,-17.367 7.889,-5.16 0,0" /></g><g
           transform="translate(648.0918,787.2788)"
           id="g4605"><path
             id="path4607"
             style="fill:#f5f5f5;fill-opacity:1;fill-rule:nonzero;stroke:none"
             d="m 0,0 c 0,0 -9.925,-7.708 -11.673,-21.646 -1.085,-8.609 7.619,-20.536 14.714,-23.718 0,0 5.077,5.612 6.038,18.192 C 10.033,-14.591 2.331,-3.001 0,0" /></g><g
           transform="translate(587.334,785.9702)"
           id="g4609"><path
             id="path4611"
             style="fill:#f5f5f5;fill-opacity:1;fill-rule:nonzero;stroke:none"
             d="M 0,0 C 0,0 13.467,-13.774 12.019,-25.256 10.575,-36.735 0.603,-44.847 0.603,-44.847 c 0,0 -11.22,8.489 -10.755,23.739 C -9.673,-8.989 0,0 0,0" /></g><g
           transform="translate(358.2646,383.5283)"
           id="g4613"><path
             id="path4615"
             style="fill:#f5f5f5;fill-opacity:1;fill-rule:nonzero;stroke:none"
             d="m 0,0 c -13.388,1.682 -25.605,-7.801 -27.288,-21.191 -1.685,-13.387 7.803,-25.605 21.188,-27.288 13.388,-1.685 25.605,7.801 27.289,21.188 C 22.873,-13.901 13.386,-1.687 0,0 m -100.446,-42.403 c 0,0 15.499,61.779 151.46,87.161 6.358,1.934 13.13,-0.529 11.576,-10.31 -1.551,-9.785 -9.604,-122.395 -78.361,-159.77 -1.333,-1.032 -4.561,-2.391 -3.721,-4.67 0.84,-2.279 2.245,-3.262 1.182,-8.52 -1.066,-5.252 -25.55,-51.506 -66.999,-71.398 -4.081,-1.738 -13.831,-5.023 -11.622,6.13 2.208,11.148 8.591,42.694 8.591,42.694 0,0 0.795,5.047 -3.011,1.666 -1.487,-1.581 -9.036,-5.301 -15.15,-0.189 -6.115,5.116 -21.313,18.616 -24.777,21.788 -3.463,3.172 -4.689,6.223 -0.045,17.548 1.249,2.26 -0.134,5.333 -4.436,1.848 -4.3,-3.482 -30.764,-10.452 -37.837,-11.657 -7.069,-1.205 -17.308,1.858 -10.228,13.356 7.081,11.504 24.213,40.519 60.261,68.38 4.558,2.97 8.913,1.776 16.558,1.134 3.209,-0.041 5.608,2.055 6.559,4.809" /></g><g
           transform="translate(187.9106,207.8223)"
           id="g4617"><path
             id="path4619"
             style="fill:#f5f5f5;fill-opacity:1;fill-rule:nonzero;stroke:none"
             d="m 0,0 c 0,0 2.022,16.926 12.801,23.701 7.668,4.667 11.393,4.843 15.828,4.285 4.434,-0.557 11.859,-5.513 4.884,-9.79 C 26.539,13.925 22,8.545 20.862,0.803 c -0.994,-6.64 0.032,-11.273 9.917,-8.166 9.885,3.098 15.95,6.518 17.615,10.815 1.667,4.296 3.572,9.208 7.252,3.918 3.681,-5.296 2.251,-8.974 2.07,-11.689 C 57.537,-7.03 54.157,-19.803 47.818,-24.155 41.476,-28.508 28.402,-32.658 18.242,-32.826 8.083,-32.998 -5.971,-35.943 0,0" /></g><g
           transform="translate(756.7734,411.2539)"
           id="g4621"><path
             id="path4623"
             style="fill:#f5f5f5;fill-opacity:1;fill-rule:nonzero;stroke:none"
             d="m 0,0 c -32.158,4.044 -63.035,-3.987 -88.132,-20.519 l 28.989,-28.58 c 16.053,8.551 34.801,12.424 54.221,9.982 50.016,-6.296 85.46,-51.941 79.167,-101.952 -6.293,-50.016 -51.942,-85.458 -101.954,-79.167 -50.014,6.291 -85.456,51.941 -79.163,101.951 1.076,8.559 3.329,16.675 6.536,24.247 l -29.253,29.619 c -8.436,-14.626 -14.16,-31.139 -16.402,-48.942 -9.011,-71.618 41.741,-136.981 113.362,-145.989 71.613,-9.014 136.979,41.74 145.991,113.357 C 122.373,-74.374 71.618,-9.013 0,0" /></g><g
           transform="translate(580.5205,403.4902)"
           id="g4625"><path
             id="path4627"
             style="fill:#f5f5f5;fill-opacity:1;fill-rule:nonzero;stroke:none"
             d="m 0,0 8.574,-1.08 c 0,0 4.504,0.114 6.3,2.473 1.793,2.362 9.339,10.396 9.339,10.396 0,0 2.26,1.755 0.538,4.282 -1.724,2.533 -4.519,6.285 -4.519,6.285 0,0 -2.281,2.395 1.184,5.091 3.472,2.696 7.413,7.01 21.752,5.208 14.333,-1.803 20.749,-18.933 26.071,-42.602 1,-7.2 2.184,-14.015 6.819,-17.183 4.639,-3.167 64.136,-47.261 72.673,-55.135 6.918,-5.723 6.085,-12.723 5.249,-16.224 -0.287,-2.28 -1.243,-4.03 2.374,-7.751 3.613,-3.721 6.859,-6.969 8.614,-9.231 1.758,-2.258 3.274,-7.489 0.578,-10.55 -2.698,-3.065 -6.651,-3.112 -12.358,0.196 -5.711,3.302 -9.255,6.469 -10.11,7.258 -0.856,0.789 -3.071,2.553 -6.318,1.6 -3.251,-0.949 -10.406,-3.148 -19.293,4.34 -6.479,5.849 -51.246,53.806 -54.863,57.526 -3.609,3.722 -8.915,8.066 -13.876,8.688 -4.955,0.625 -27.677,3.889 -32.699,5.065 -5.022,1.18 -8.238,2.673 -13.126,7.095 C -1.98,-29.826 -9.075,-18.046 -7.286,-4.935 -6.766,-1.873 -4.955,0.622 0,0" /></g><g
           transform="translate(697.2803,278.0283)"
           id="g4629"><path
             id="path4631"
             style="fill:#f5f5f5;fill-opacity:1;fill-rule:nonzero;stroke:none"
             d="m 0,0 c 0,0 3.563,-3.033 13.013,-3.68 5.088,-0.64 10.541,-0.515 15.216,-4.502 5.062,-3.604 20.872,-13.644 30.276,-3.805 9.403,9.836 -0.627,24.858 -6.764,33.383 -2.493,3.181 -3.667,6.678 -4.153,10.717 -0.435,4.25 -1.582,9.046 -5.564,13.084 -4.145,4.18 -8.807,11.84 3.159,10.336 C 57.146,54.028 74.581,51.292 86.159,33.688 97.739,16.08 96.903,6.565 95.802,-2.186 94.699,-10.935 94.021,-22.101 81.621,-32.693 69.221,-43.29 55.936,-47.97 39.499,-45.902 23.065,-43.835 7.713,-33.195 -4.036,-9.764 -11.03,1.472 -4.53,4.673 0,0" /></g></g></g></g></svg>