<?xml version="1.0" encoding="UTF-8" standalone="no"?>
<svg
   xmlns:dc="http://purl.org/dc/elements/1.1/"
   xmlns:cc="http://creativecommons.org/ns#"
   xmlns:rdf="http://www.w3.org/1999/02/22-rdf-syntax-ns#"
   xmlns:svg="http://www.w3.org/2000/svg"
   xmlns="http://www.w3.org/2000/svg"
   viewBox="0 0 1365.3333 1365.3333"
   height="1365.3333"
   width="1365.3333"
   xml:space="preserve"
   id="svg4633"
   version="1.1"><metadata
     id="metadata4639"><rdf:RDF><cc:Work
         rdf:about=""><dc:format>image/svg+xml</dc:format><dc:type
           rdf:resource="http://purl.org/dc/dcmitype/StillImage" /><dc:title></dc:title></cc:Work></rdf:RDF></metadata><defs
     id="defs4637"><clipPath
       id="clipPath4649"
       clipPathUnits="userSpaceOnUse"><path
         id="path4647"
         d="M 0,1024 H 1024 V 0 H 0 Z" /></clipPath></defs><g
     transform="matrix(1.3333333,0,0,-1.3333333,0,1365.3333)"
     id="g4641"><g
       id="g4643"><g
         clip-path="url(#clipPath4649)"
         id="g4645"><g
           transform="translate(933,190)"
           id="g4651"><path
             id="path4653"
             style="fill:#353535;fill-opacity:1;fill-rule:nonzero;stroke:none"
             d="m 0,0 c 0,-55.229 -44.771,-100 -100,-100 h -643 c -55.229,0 -100,44.771 -100,100 v 643 c 0,55.229 44.771,100 100,100 h 643 C -44.771,743 0,698.229 0,643 Z" /></g><g
           transform="translate(449.335,489.998)"
           id="g4655"><path
             id="path4657"
             style="fill:#f8c670;fill-opacity:1;fill-rule:nonzero;stroke:none"
             d="m 0,0 243.667,266 c 0,0 3.373,3.377 2.498,8.752 -0.875,5.375 -1,7 -1,7 0,0 -1.75,5.625 6.125,10.25 7.875,4.625 103.875,62.625 103.875,62.625 0,0 10.375,7.125 18.75,-1.375 8.375,-8.5 7.5,-18.375 0.75,-25.375 -4.5,-4.625 -8.375,-5.375 -11,-5.625 -2.625,-0.25 -8.625,-1 -11.875,-4.625 -8.875,-8.875 -4.125,-19.375 -14.75,-28.75 -10.625,-9.375 -14.25,-11.125 -22.375,-14.625 -8.125,-3.5 -17.75,-7 -30.875,-21.25 C 270.665,238.752 14.332,-58.331 14.332,-58.331 c 0,0 -12.917,-18.542 1.458,-30.792 14.375,-12.25 35.875,-5.125 50.875,3.875 15,9 22.875,10.75 30,4.375 7.125,-6.375 10.334,-24.959 -6.333,-42.625 -16.667,-17.666 -33.834,-26.83 -44.501,-31.663 -10.667,-4.833 -36.501,-14.664 -48.167,-49.664 -11.667,-35 -20.999,-79.423 -43.749,-105.923 -22.75,-26.5 -77,-52.5 -135,-2.25 -58,50.25 -70.25,63 -70.25,63 0,0 -76.332,66.336 -9.666,137.336 19.999,22.002 59.999,37.003 82.666,47.336 22.667,10.333 40.666,15.333 57.999,63.666 12.333,31.333 24.999,55.999 53.999,58.333 29,2.333 48.334,-39.999 50.667,-50.333 C -14.67,3.006 -11.748,-4.336 0,0" /></g><g
           transform="translate(452.667,415.708)"
           id="g4659"><path
             id="path4661"
             style="fill:#353535;fill-opacity:1;fill-rule:nonzero;stroke:none"
             d="m 0,0 c 0.185,-3.067 -1.167,-11.583 8.458,-19.458 9.625,-7.875 30.625,-17.125 60,4.375 5.375,4.375 15.25,10.125 21.25,4 8.458,-8.125 -1.042,-40.458 -39.042,-59.625 -10.708,-5.625 -34.833,-14.625 -45.458,-27.5 -4.75,-5.625 -13.5,-15.625 -19.625,-38.75 -0.5,-2.125 -1.875,-6.375 -5.625,-3.5 -3.75,2.875 -125.458,111.751 -127.958,114.084 -2.5,2.333 -7.333,3 11.667,28 19,25 84.916,75.916 116.416,59.416 0,0 16.584,-5.834 19.917,-61.042" /></g></g></g></g></svg>