<?xml version="1.0" encoding="UTF-8"?>
<svg width="1024px" height="1024px" viewBox="0 0 1024 1024" version="1.1" xmlns="http://www.w3.org/2000/svg" xmlns:xlink="http://www.w3.org/1999/xlink">
    <!-- Generator: Sketch 46.2 (44496) - http://www.bohemiancoding.com/sketch -->
    <title>Geogebra</title>
    <desc>Created with Sketch.</desc>
    <defs></defs>
    <g id="Page-1" stroke="none" stroke-width="1" fill="none" fill-rule="evenodd">
        <g id="Geogebra">
            <rect id="Outer" fill="#F7FAFA" fill-rule="nonzero" x="92" y="92" width="840" height="840" rx="100"></rect>
            <g id="Logo" transform="translate(196.000000, 222.000000)">
                <path d="M57.5526402,423.871499 C112.483814,538.50703 272.725154,576.202181 415.461687,508.066004 C558.198219,439.929807 629.378531,291.764042 574.447363,177.128511 C519.516196,62.4929692 359.27485,24.7978103 216.538317,92.9340081 C73.8017759,161.070206 2.62146621,309.235968 57.5526402,423.871499 Z" id="path22" stroke="#666666" stroke-width="31" stroke-linecap="round" stroke-linejoin="round"></path>
                <path d="M367,64.5 C367,100.122365 338.122361,129 302.5,129 C266.877639,129 238,100.122365 238,64.5 C238,28.8776347 266.877639,0 302.5,0 C338.122361,0 367,28.8776347 367,64.5 Z" id="path28" fill="#9999FF" fill-rule="nonzero"></path>
                <path d="M129,236.5 C129,272.122361 100.122365,301 64.5,301 C28.8776347,301 0,272.122361 0,236.5 C0,200.877639 28.8776347,172 64.5,172 C100.122365,172 129,200.877639 129,236.5 Z" id="path40" fill="#9999FF" fill-rule="nonzero"></path>
                <path d="M216,516.5 C216,552.122361 187.122361,581 151.5,581 C115.877635,581 87,552.122361 87,516.5 C87,480.877639 115.877635,452 151.5,452 C187.122361,452 216,480.877639 216,516.5 Z" id="path52" fill="#9999FF" fill-rule="nonzero"></path>
                <path d="M538,472.5 C538,508.122361 509.122361,537 473.5,537 C437.877639,537 409,508.122361 409,472.5 C409,436.877639 437.877639,408 473.5,408 C509.122361,408 538,436.877639 538,472.5 Z" id="path64" fill="#9999FF" fill-rule="nonzero"></path>
                <path d="M646,192.5 C646,228.122361 617.122361,257 581.5,257 C545.877639,257 517,228.122361 517,192.5 C517,156.877635 545.877639,128 581.5,128 C617.122361,128 646,156.877635 646,192.5 Z" id="path76" fill="#9999FF" fill-rule="nonzero"></path>
            </g>
        </g>
    </g>
</svg>