<?xml version="1.0" encoding="UTF-8" standalone="no"?>
<svg
   xmlns:dc="http://purl.org/dc/elements/1.1/"
   xmlns:cc="http://creativecommons.org/ns#"
   xmlns:rdf="http://www.w3.org/1999/02/22-rdf-syntax-ns#"
   xmlns:svg="http://www.w3.org/2000/svg"
   xmlns="http://www.w3.org/2000/svg"
   viewBox="0 0 1365.3333 1365.3333"
   height="1365.3333"
   width="1365.3333"
   xml:space="preserve"
   id="svg4663"
   version="1.1"><metadata
     id="metadata4669"><rdf:RDF><cc:Work
         rdf:about=""><dc:format>image/svg+xml</dc:format><dc:type
           rdf:resource="http://purl.org/dc/dcmitype/StillImage" /><dc:title></dc:title></cc:Work></rdf:RDF></metadata><defs
     id="defs4667"><clipPath
       id="clipPath4679"
       clipPathUnits="userSpaceOnUse"><path
         id="path4677"
         d="M 0,1024 H 1024 V 0 H 0 Z" /></clipPath></defs><g
     transform="matrix(1.3333333,0,0,-1.3333333,0,1365.3333)"
     id="g4671"><g
       id="g4673"><g
         clip-path="url(#clipPath4679)"
         id="g4675"><g
           transform="translate(933,190)"
           id="g4681"><path
             id="path4683"
             style="fill:#686868;fill-opacity:1;fill-rule:nonzero;stroke:none"
             d="m 0,0 c 0,-55.229 -44.772,-100 -100,-100 h -643 c -55.229,0 -100,44.771 -100,100 v 643 c 0,55.229 44.771,100 100,100 h 643 C -44.772,743 0,698.229 0,643 Z" /></g><g
           transform="translate(364.5378,685.1356)"
           id="g4685"><path
             id="path4687"
             style="fill:#a77539;fill-opacity:1;fill-rule:nonzero;stroke:none"
             d="m 0,0 c 0,0 45.385,-93.59 151.561,-90.95 222.504,5.582 261.521,121.652 267.104,138.399 5.582,16.746 14.123,14.21 16.098,-1.268 72.568,-658.698 -503.615,-376.077 -524.078,-263.887 114.435,33.494 86.524,97.689 86.524,97.689 z" /></g><g
           transform="translate(449.1186,407.351)"
           id="g4689"><path
             id="path4691"
             style="fill:#333333;fill-opacity:1;fill-rule:nonzero;stroke:none"
             d="m 0,0 c 106.337,-21.268 160.49,-1.548 192.183,22.924 -8.369,10.809 -22.665,22.665 -22.665,22.665 0,0 37.135,-10.319 50.211,-27.198 13.039,-16.83 4.841,-27.199 1.429,-48.733 -7.597,18.914 -21.776,26.006 -23.695,33.521 C 168.96,-36.221 97.949,-34.585 0,0" /></g><g
           transform="translate(480.2495,544.1751)"
           id="g4693"><path
             id="path4695"
             style="fill:#ffffff;fill-opacity:1;fill-rule:nonzero;stroke:none"
             d="m 0,0 c 0,-35.433 -28.724,-64.158 -64.158,-64.158 -35.433,0 -64.158,28.725 -64.158,64.158 0,35.433 28.725,64.158 64.158,64.158 C -28.724,64.158 0,35.433 0,0" /></g><g
           transform="translate(352.4433,520.0021)"
           id="g4697"><path
             id="path4699"
             style="fill:#333333;fill-opacity:1;fill-rule:nonzero;stroke:none"
             d="m 0,0 c 31.103,-43.099 31.508,-95.947 0.904,-118.039 -30.603,-22.092 -80.626,-5.063 -111.729,38.036 -0.008,0.011 -0.016,0.022 -0.024,0.033 -31.103,43.1 -31.507,95.948 -0.904,118.04 C -81.15,60.162 -31.127,43.132 -0.024,0.033 -0.016,0.022 -0.008,0.011 0,0" /></g><g
           transform="translate(461.9847,534.6703)"
           id="g4701"><path
             id="path4703"
             style="fill:#333333;fill-opacity:1;fill-rule:nonzero;stroke:none"
             d="m 0,0 c 0,-17.061 -13.83,-30.891 -30.891,-30.891 -17.06,0 -30.891,13.83 -30.891,30.891 0,17.061 13.831,30.891 30.891,30.891 C -13.83,30.891 0,17.061 0,0" /></g><g
           transform="translate(292.8346,514.8858)"
           id="g4705"><path
             id="path4707"
             style="fill:#ffffff;fill-opacity:1;fill-rule:nonzero;stroke:none"
             d="M 0,0 C 0,-18.487 -12.488,-33.474 -27.894,-33.474 -43.3,-33.475 -55.789,-18.488 -55.789,-10e-4 V 0 C -55.79,18.487 -43.301,33.474 -27.895,33.474 -12.49,33.475 0,18.489 0,0.002 Z" /></g><g
           transform="translate(440.5984,548.9279)"
           id="g4709"><path
             id="path4711"
             style="fill:#ffffff;fill-opacity:1;fill-rule:nonzero;stroke:none"
             d="m 0,0 c 0,-11.811 -9.574,-21.386 -21.385,-21.386 -11.812,-0.001 -21.387,9.574 -21.387,21.385 V 0 c 0,11.811 9.574,21.386 21.386,21.386 C -9.575,21.387 0,11.812 0,0.001 Z" /></g><g
           transform="translate(623.907,537.2015)"
           id="g4713"><path
             id="path4715"
             style="fill:#ffffff;fill-opacity:1;fill-rule:nonzero;stroke:none"
             d="m 0,0 c 0,-41.596 -33.72,-75.316 -75.316,-75.316 -41.596,0 -75.316,33.72 -75.316,75.316 0,41.596 33.72,75.316 75.316,75.316 C -33.72,75.316 0,41.596 0,0" /></g><g
           transform="translate(602.4659,526.0437)"
           id="g4717"><path
             id="path4719"
             style="fill:#333333;fill-opacity:1;fill-rule:nonzero;stroke:none"
             d="m 0,0 c 0,-20.028 -16.236,-36.263 -36.263,-36.263 -20.028,0 -36.263,16.235 -36.263,36.263 0,20.028 16.235,36.263 36.263,36.263 C -16.236,36.263 0,20.028 0,0" /></g><g
           transform="translate(577.3607,542.7805)"
           id="g4721"><path
             id="path4723"
             style="fill:#ffffff;fill-opacity:1;fill-rule:nonzero;stroke:none"
             d="m 0,0 c 0,-13.865 -11.239,-25.105 -25.105,-25.106 -13.865,0 -25.105,11.24 -25.105,25.105 V 0 c -10e-4,13.865 11.239,25.105 25.104,25.106 C -11.241,25.106 0,13.866 0,0.001 Z" /></g></g></g></g></svg>