<?xml version="1.0" encoding="UTF-8" standalone="no"?>
<svg
   xmlns:dc="http://purl.org/dc/elements/1.1/"
   xmlns:cc="http://creativecommons.org/ns#"
   xmlns:rdf="http://www.w3.org/1999/02/22-rdf-syntax-ns#"
   xmlns:svg="http://www.w3.org/2000/svg"
   xmlns="http://www.w3.org/2000/svg"
   viewBox="0 0 1365.3333 1365.3333"
   height="1365.3333"
   width="1365.3333"
   xml:space="preserve"
   id="svg4823"
   version="1.1"><metadata
     id="metadata4829"><rdf:RDF><cc:Work
         rdf:about=""><dc:format>image/svg+xml</dc:format><dc:type
           rdf:resource="http://purl.org/dc/dcmitype/StillImage" /><dc:title></dc:title></cc:Work></rdf:RDF></metadata><defs
     id="defs4827"><clipPath
       id="clipPath4839"
       clipPathUnits="userSpaceOnUse"><path
         id="path4837"
         d="M 0,1024 H 1024 V 0 H 0 Z" /></clipPath><clipPath
       id="clipPath4855"
       clipPathUnits="userSpaceOnUse"><path
         id="path4853"
         d="M 190,933 C 134.771,933 90,888.229 90,833 v 0 -643 C 90,134.771 134.771,90 190,90 v 0 h 643 c 55.228,0 100,44.771 100,100 v 0 643 c 0,55.229 -44.772,100 -100,100 v 0 z" /></clipPath></defs><g
     transform="matrix(1.3333333,0,0,-1.3333333,0,1365.3333)"
     id="g4831"><g
       id="g4833"><g
         clip-path="url(#clipPath4839)"
         id="g4835"><g
           transform="translate(934,190)"
           id="g4841"><path
             id="path4843"
             style="fill:#ffffff;fill-opacity:1;fill-rule:nonzero;stroke:none"
             d="m 0,0 c 0,-55.229 -44.772,-100 -100,-100 h -643 c -55.229,0 -100,44.771 -100,100 v 643 c 0,55.229 44.771,100 100,100 h 643 C -44.772,743 0,698.229 0,643 Z" /></g><g
           transform="translate(934,190)"
           id="g4845"><path
             id="path4847"
             style="fill:#ffffff;fill-opacity:1;fill-rule:nonzero;stroke:none"
             d="m 0,0 c 0,-55.229 -44.772,-100 -100,-100 h -643 c -55.229,0 -100,44.771 -100,100 v 643 c 0,55.229 44.771,100 100,100 h 643 C -44.772,743 0,698.229 0,643 Z" /></g></g></g><g
       id="g4849"><g
         clip-path="url(#clipPath4855)"
         id="g4851"><g
           transform="translate(91.1105,672.6776)"
           id="g4857"><path
             id="path4859"
             style="fill:#5ecef9;fill-opacity:1;fill-rule:nonzero;stroke:none"
             d="m 0,0 v -277.031 c 0,0 130.999,156.851 400.91,158.864 169.274,1.43 375.205,115.311 375.205,115.311 29.823,15.097 64.172,36.177 66.775,41.569 0,27.603 320.242,522.609 47,522.609 -251.967,0 -890,-312.385 -890,-343" /></g><g
           transform="translate(931.8895,596.0623)"
           id="g4861"><path
             id="path4863"
             style="fill:#5ecef9;fill-opacity:1;fill-rule:nonzero;stroke:none"
             d="m 0,0 v -505.918 h -720.117 c 94.39,54.382 197.042,40.8 301.918,40.8 0,0 130.158,-1.018 314.159,148.919 0,0 -182.356,-82.14 -448.798,-28.56 0,0 384.243,-15.359 544.678,245.892 0,0 -151.448,-104.113 -427.378,-104.113 0,0 178.098,-22.623 435.538,202.98" /></g></g></g></g></svg>