<?xml version="1.0" encoding="UTF-8" standalone="no"?>
<svg
   xmlns:dc="http://purl.org/dc/elements/1.1/"
   xmlns:cc="http://creativecommons.org/ns#"
   xmlns:rdf="http://www.w3.org/1999/02/22-rdf-syntax-ns#"
   xmlns:svg="http://www.w3.org/2000/svg"
   xmlns="http://www.w3.org/2000/svg"
   viewBox="0 0 1365.3333 1365.3333"
   height="1365.3333"
   width="1365.3333"
   xml:space="preserve"
   id="svg4865"
   version="1.1"><metadata
     id="metadata4871"><rdf:RDF><cc:Work
         rdf:about=""><dc:format>image/svg+xml</dc:format><dc:type
           rdf:resource="http://purl.org/dc/dcmitype/StillImage" /><dc:title></dc:title></cc:Work></rdf:RDF></metadata><defs
     id="defs4869"><clipPath
       id="clipPath4881"
       clipPathUnits="userSpaceOnUse"><path
         id="path4879"
         d="M 0,1024 H 1024 V 0 H 0 Z" /></clipPath></defs><g
     transform="matrix(1.3333333,0,0,-1.3333333,0,1365.3333)"
     id="g4873"><g
       id="g4875"><g
         clip-path="url(#clipPath4881)"
         id="g4877"><g
           transform="translate(933,190)"
           id="g4883"><path
             id="path4885"
             style="fill:#0284ff;fill-opacity:1;fill-rule:nonzero;stroke:none"
             d="m 0,0 c 0,-55.229 -44.772,-100 -100,-100 h -643 c -55.229,0 -100,44.771 -100,100 v 643 c 0,55.229 44.771,100 100,100 h 643 C -44.772,743 0,698.229 0,643 Z" /></g><g
           transform="translate(218,385.4023)"
           id="g4887"><path
             id="path4889"
             style="fill:#ffffff;fill-opacity:1;fill-rule:nonzero;stroke:none"
             d="m 0,0 c 7.694,8.417 15.285,16.932 23.105,25.231 14.019,14.878 28.234,29.573 42.262,44.443 21.631,22.931 43.181,45.938 64.752,68.925 15.408,16.418 30.818,32.834 46.186,49.289 22.222,23.795 44.379,47.651 66.718,71.337 0.885,0.938 3.413,0.713 5.059,0.405 0.989,-0.185 1.77,-1.564 2.615,-2.435 22.811,-23.507 45.666,-46.973 68.41,-70.545 13.713,-14.212 27.317,-28.531 40.821,-42.941 2.887,-3.081 5.279,-3.374 8.997,-1.304 29.982,16.691 60.085,33.164 90.129,49.744 35.658,19.679 71.286,39.412 106.945,59.089 6.749,3.725 13.581,7.301 21,10.16 -7.056,-7.768 -14.016,-15.626 -21.19,-23.283 -12.674,-13.525 -25.58,-26.834 -38.207,-40.403 -20.761,-22.311 -41.33,-44.802 -62.073,-67.13 C 453.621,117.765 441.458,105.185 429.536,92.381 407.94,69.189 386.456,45.894 364.888,22.676 358.285,15.569 351.49,8.639 344.927,1.497 c -2.632,-2.865 -4.678,-2.74 -7.261,0.057 -13.275,14.377 -26.64,28.671 -39.991,42.977 -6.265,6.712 -12.53,13.423 -18.865,20.068 -15.303,16.052 -30.638,32.073 -45.978,48.088 -9.318,9.729 -9.317,9.682 -21.185,3.131 C 177.354,96.892 143.026,78.029 108.749,59.074 73.259,39.448 37.813,19.744 2.345,0.078 1.768,-0.242 1.165,-0.513 0.574,-0.807 0.382,-0.538 0.191,-0.269 0,0" /></g></g></g></g></svg>