<?xml version="1.0" encoding="UTF-8" standalone="no"?>
<svg
   xmlns:dc="http://purl.org/dc/elements/1.1/"
   xmlns:cc="http://creativecommons.org/ns#"
   xmlns:rdf="http://www.w3.org/1999/02/22-rdf-syntax-ns#"
   xmlns:svg="http://www.w3.org/2000/svg"
   xmlns="http://www.w3.org/2000/svg"
   viewBox="0 0 1365.3333 1365.3333"
   height="1365.3333"
   width="1365.3333"
   xml:space="preserve"
   id="svg5007"
   version="1.1"><metadata
     id="metadata5013"><rdf:RDF><cc:Work
         rdf:about=""><dc:format>image/svg+xml</dc:format><dc:type
           rdf:resource="http://purl.org/dc/dcmitype/StillImage" /><dc:title></dc:title></cc:Work></rdf:RDF></metadata><defs
     id="defs5011"><clipPath
       id="clipPath5023"
       clipPathUnits="userSpaceOnUse"><path
         id="path5021"
         d="M 0,1024 H 1024 V 0 H 0 Z" /></clipPath></defs><g
     transform="matrix(1.3333333,0,0,-1.3333333,0,1365.3333)"
     id="g5015"><g
       id="g5017"><g
         clip-path="url(#clipPath5023)"
         id="g5019"><g
           transform="translate(735,805)"
           id="g5025"><path
             id="path5027"
             style="fill:#ed1c24;fill-opacity:1;fill-rule:nonzero;stroke:none"
             d="m 0,0 h -447 c -38.66,0 -70,-31.34 -70,-70 v -447 c 0,-38.66 31.34,-70 70,-70 H 0 c 38.66,0 70,31.34 70,70 V -70 C 70,-31.34 38.66,0 0,0" /></g><g
           transform="translate(933,209.3203)"
           id="g5029"><path
             id="path5031"
             style="fill:#a4c9e5;fill-opacity:1;fill-rule:nonzero;stroke:none"
             d="m 0,0 v 605.327 c -32.804,45.547 -72.815,85.554 -118.365,118.353 H -723.603 C -769.631,690.537 -810.005,650.036 -843,603.894 V 1.434 c 33.315,-46.592 74.153,-87.434 120.741,-120.754 h 602.55 C -73.601,-86.343 -33.126,-45.995 0,0" /></g><g
           transform="translate(594.8428,518.6934)"
           id="g5033"><path
             id="path5035"
             style="fill:#207caf;fill-opacity:1;fill-rule:nonzero;stroke:none"
             d="m 0,0 -82.827,225.307 h 420.984 v 70.972 C 305.406,341.692 265.506,381.583 220.1,414.307 h -605.636 c -45.992,-33.146 -86.336,-73.64 -119.307,-119.765 v -602.387 c 33.334,-46.631 74.2,-87.508 120.825,-120.848 h 219.474 l -12.044,126.459 z" /></g><g
           transform="translate(622.0703,326.2295)"
           id="g5037"><path
             id="path5039"
             style="fill:#6eb6e0;fill-opacity:1;fill-rule:nonzero;stroke:none"
             d="M 0,0 -98.873,-29.353 -218.603,4.634 -245.638,101.19 -311.7,72.214 -532.07,462.112 v -577.58 c 33.318,-46.594 74.16,-87.44 120.753,-120.761 H -91.201 L 90.378,74.154 Z" /></g><g
           transform="translate(512.0161,743.3716)"
           id="g5041"><path
             id="path5043"
             style="fill:#ffffff;fill-opacity:1;fill-rule:nonzero;stroke:none"
             d="m 0,0 c -127.792,0 -231.388,-103.596 -231.388,-231.388 0,-127.791 103.596,-231.388 231.388,-231.388 127.791,0 231.388,103.597 231.388,231.388 C 231.388,-103.596 127.791,0 0,0" /></g><g
           transform="translate(511.9976,705.3628)"
           id="g5045"><path
             id="path5047"
             style="fill:#01608a;fill-opacity:1;fill-rule:nonzero;stroke:none"
             d="m 0,0 c -106.791,0 -193.36,-86.57 -193.36,-193.36 0,-106.791 86.569,-193.36 193.36,-193.36 106.79,0 193.36,86.569 193.36,193.36 C 193.36,-86.57 106.79,0 0,0" /></g><g
           transform="translate(833,933)"
           id="g5049"><path
             id="path5051"
             style="fill:#207caf;fill-opacity:1;fill-rule:nonzero;stroke:none"
             d="m 0,0 h -28 v -131 h 128 v 31 C 100,-44.771 55.228,0 0,0" /></g><g
           transform="translate(231,933)"
           id="g5053"><path
             id="path5055"
             style="fill:#207caf;fill-opacity:1;fill-rule:nonzero;stroke:none"
             d="m 0,0 h -41 c -55.229,0 -100,-44.771 -100,-100 v -31 H 0 Z" /></g><g
           transform="translate(933,190)"
           id="g5057"><path
             id="path5059"
             style="fill:#a4c9e5;fill-opacity:1;fill-rule:nonzero;stroke:none"
             d="m 0,0 v 57 h -176 v -157 h 76 C -44.772,-100 0,-55.229 0,0" /></g><g
           transform="translate(90,233)"
           id="g5061"><path
             id="path5063"
             style="fill:#6eb6e0;fill-opacity:1;fill-rule:nonzero;stroke:none"
             d="m 0,0 v -43 c 0,-55.229 44.771,-100 100,-100 h 52 V 0 Z" /></g></g></g></g></svg>