<?xml version="1.0" encoding="UTF-8" standalone="no"?>
<svg
   xmlns:dc="http://purl.org/dc/elements/1.1/"
   xmlns:cc="http://creativecommons.org/ns#"
   xmlns:rdf="http://www.w3.org/1999/02/22-rdf-syntax-ns#"
   xmlns:svg="http://www.w3.org/2000/svg"
   xmlns="http://www.w3.org/2000/svg"
   xmlns:sodipodi="http://sodipodi.sourceforge.net/DTD/sodipodi-0.dtd"
   xmlns:inkscape="http://www.inkscape.org/namespaces/inkscape"
   viewBox="0 0 1365.3333 1365.3333"
   height="1365.3333"
   width="1365.3333"
   xml:space="preserve"
   id="svg4949"
   version="1.1"
   sodipodi:docname="google chrome canary.svg"
   inkscape:version="0.92.1 r15371"><sodipodi:namedview
     pagecolor="#ffffff"
     bordercolor="#666666"
     borderopacity="1"
     objecttolerance="10"
     gridtolerance="10"
     guidetolerance="10"
     inkscape:pageopacity="0"
     inkscape:pageshadow="2"
     inkscape:window-width="3200"
     inkscape:window-height="1690"
     id="namedview30"
     showgrid="false"
     inkscape:zoom="0.17285157"
     inkscape:cx="-682.66663"
     inkscape:cy="682.66663"
     inkscape:window-x="0"
     inkscape:window-y="54"
     inkscape:window-maximized="1"
     inkscape:current-layer="svg4949" /><metadata
     id="metadata4955"><rdf:RDF><cc:Work
         rdf:about=""><dc:format>image/svg+xml</dc:format><dc:type
           rdf:resource="http://purl.org/dc/dcmitype/StillImage" /><dc:title /></cc:Work></rdf:RDF></metadata><defs
     id="defs4953"><clipPath
       id="clipPath4965"
       clipPathUnits="userSpaceOnUse"><path
         id="path4963"
         d="M 0,1024 H 1024 V 0 H 0 Z" /></clipPath></defs><g
     transform="matrix(1.3333333,0,0,-1.3333333,0,1365.3333)"
     id="g4957"><g
       id="g4959"><g
         clip-path="url(#clipPath4965)"
         id="g4961"><g
           transform="translate(735,805)"
           id="g4967"><path
             id="path4969"
             style="fill:#ed1c24;fill-opacity:1;fill-rule:nonzero;stroke:none"
             d="m 0,0 h -447 c -38.66,0 -70,-31.34 -70,-70 v -447 c 0,-38.66 31.34,-70 70,-70 H 0 c 38.66,0 70,31.34 70,70 V -70 C 70,-31.34 38.66,0 0,0" /></g><g
           transform="translate(933,209.3203)"
           id="g4971"><path
             id="path4973"
             style="fill:#f8ca00;fill-opacity:1;fill-rule:nonzero;stroke:none"
             d="m 0,0 v 605.327 c -32.804,45.547 -72.814,85.554 -118.365,118.353 H -723.603 C -769.631,690.537 -810.005,650.036 -843,603.894 V 1.434 c 33.315,-46.592 74.153,-87.434 120.741,-120.754 h 602.55 C -73.601,-86.343 -33.126,-45.995 0,0" /></g><g
           transform="translate(594.8428,518.6934)"
           id="g4975"><path
             id="path4977"
             style="fill:#c68d02;fill-opacity:1;fill-rule:nonzero;stroke:none"
             d="m 0,0 -82.827,225.307 h 420.984 v 70.972 C 305.406,341.692 265.506,381.583 220.1,414.307 h -605.636 c -45.992,-33.146 -86.336,-73.64 -119.307,-119.765 v -602.387 c 33.334,-46.631 74.2,-87.508 120.825,-120.848 h 219.474 l -12.044,126.459 z" /></g><g
           transform="translate(622.0703,326.2295)"
           id="g4979"><path
             id="path4981"
             style="fill:#e0a700;fill-opacity:1;fill-rule:nonzero;stroke:none"
             d="M 0,0 -98.873,-29.354 -218.603,4.634 -245.638,101.19 -311.7,72.214 -532.07,462.112 v -577.58 c 33.319,-46.594 74.16,-87.44 120.753,-120.761 H -91.201 L 90.378,74.154 Z" /></g><g
           transform="translate(512.0161,743.3716)"
           id="g4983"><path
             id="path4985"
             style="fill:#ffffff;fill-opacity:1;fill-rule:nonzero;stroke:none"
             d="m 0,0 c -127.792,0 -231.388,-103.596 -231.388,-231.388 0,-127.791 103.596,-231.388 231.388,-231.388 127.792,0 231.388,103.597 231.388,231.388 C 231.388,-103.596 127.792,0 0,0" /></g><g
           transform="translate(511.9976,705.3628)"
           id="g4987"><path
             id="path4989"
             style="fill:#97670d;fill-opacity:1;fill-rule:nonzero;stroke:none"
             d="m 0,0 c -106.791,0 -193.36,-86.57 -193.36,-193.36 0,-106.791 86.569,-193.36 193.36,-193.36 106.791,0 193.36,86.569 193.36,193.36 C 193.36,-86.57 106.791,0 0,0" /></g><g
           transform="translate(833,933)"
           id="g4991"><path
             id="path4993"
             style="fill:#c68d02;fill-opacity:1;fill-rule:nonzero;stroke:none"
             d="m 0,0 h -28 v -131 h 128 v 31 C 100,-44.771 55.229,0 0,0" /></g><g
           transform="translate(231,933)"
           id="g4995"><path
             id="path4997"
             style="fill:#c68d02;fill-opacity:1;fill-rule:nonzero;stroke:none"
             d="m 0,0 h -41 c -55.229,0 -100,-44.771 -100,-100 v -31 H 0 Z" /></g><g
           transform="translate(933,190)"
           id="g4999"><path
             id="path5001"
             style="fill:#f8ca00;fill-opacity:1;fill-rule:nonzero;stroke:none"
             d="m 0,0 v 57 h -176 v -157 h 76 C -44.771,-100 0,-55.229 0,0" /></g><g
           transform="translate(90,233)"
           id="g5003"><path
             id="path5005"
             style="fill:#e0a700;fill-opacity:1;fill-rule:nonzero;stroke:none"
             d="m 0,0 v -43 c 0,-55.229 44.771,-100 100,-100 h 52 V 0 Z" /></g></g></g></g></svg>