<?xml version="1.0" encoding="UTF-8" standalone="no"?>
<svg
   xmlns:dc="http://purl.org/dc/elements/1.1/"
   xmlns:cc="http://creativecommons.org/ns#"
   xmlns:rdf="http://www.w3.org/1999/02/22-rdf-syntax-ns#"
   xmlns:svg="http://www.w3.org/2000/svg"
   xmlns="http://www.w3.org/2000/svg"
   viewBox="0 0 1365.3333 1365.3333"
   height="1365.3333"
   width="1365.3333"
   xml:space="preserve"
   id="svg5141"
   version="1.1"><metadata
     id="metadata5147"><rdf:RDF><cc:Work
         rdf:about=""><dc:format>image/svg+xml</dc:format><dc:type
           rdf:resource="http://purl.org/dc/dcmitype/StillImage" /><dc:title></dc:title></cc:Work></rdf:RDF></metadata><defs
     id="defs5145"><clipPath
       id="clipPath5157"
       clipPathUnits="userSpaceOnUse"><path
         id="path5155"
         d="M 0,1024 H 1024 V 0 H 0 Z" /></clipPath></defs><g
     transform="matrix(1.3333333,0,0,-1.3333333,0,1365.3333)"
     id="g5149"><g
       id="g5151"><g
         clip-path="url(#clipPath5157)"
         id="g5153"><g
           transform="translate(933,190)"
           id="g5159"><path
             id="path5161"
             style="fill:#f89600;fill-opacity:1;fill-rule:nonzero;stroke:none"
             d="m 0,0 c 0,-55.229 -44.772,-100 -100,-100 h -643 c -55.229,0 -100,44.771 -100,100 v 643 c 0,55.229 44.771,100 100,100 h 643 C -44.772,743 0,698.229 0,643 Z" /></g><g
           transform="translate(805.9212,537.1213)"
           id="g5163"><path
             id="path5165"
             style="fill:#ffffff;fill-opacity:1;fill-rule:nonzero;stroke:none"
             d="m 0,0 c 0,1.868 0.403,3.986 0.132,5.778 -2.931,153.025 -137.393,261.154 -291.912,261.154 -154.372,0 -289.349,-108.129 -292.272,-261.154 -0.271,-1.792 -0.056,-3.91 -0.056,-5.778 0,-15.41 9.271,-28.334 22.619,-33.64 l -0.334,-38.196 c -13.056,-2.451 -22.986,-13.861 -23.021,-27.639 l -1.07,-98.594 c -0.048,-15.597 12.563,-28.271 28.168,-28.327 l 16.063,-0.375 c 15.611,-0.041 28.292,12.563 28.355,28.154 l 0.153,13.41 16.146,-0.174 -0.333,-61.293 c -0.049,-15.598 12.563,-28.272 28.167,-28.327 l 16.063,-0.375 c 15.612,-0.042 28.293,12.562 28.355,28.153 l 1.063,195.833 c 0.048,15.59 -12.57,28.285 -28.175,28.334 0,0 -7.215,0.055 -7.215,0.097 l -1.646,0.312 c 0,-0.027 -7.223,-0.048 -7.223,-0.048 -15.583,0.048 -28.278,-12.57 -28.327,-28.168 l -0.333,-61.925 -15.758,0.167 0.139,12.611 c 0.042,14.306 -10.604,26.042 -24.403,27.938 l 0.333,37.502 c 14.667,4.298 25.466,16.583 24.869,32.709 -0.118,3.097 -0.118,3.097 -0.153,3.785 1.111,114.809 108.712,193.61 219.826,192.506 112.851,1.104 218.368,-77.697 219.486,-192.499 -0.042,-0.688 -0.382,-0.688 -0.493,-3.785 -0.576,-15.459 9.355,-27.376 23.105,-32.126 l 0.34,-38.085 c -13.792,-1.896 -24.445,-13.639 -24.403,-27.938 l 0.139,-12.611 -15.765,-0.167 -0.333,61.925 c -0.049,15.598 -12.744,28.21 -28.327,28.168 0,0 -7.223,0.021 -7.223,0.048 l -1.646,-0.312 c 0,-0.042 -7.215,-0.097 -7.215,-0.097 -15.605,-0.049 -28.216,-12.744 -28.175,-28.334 l 1.07,-195.847 c 0.062,-15.59 12.743,-28.195 28.355,-28.153 l 16.063,0.375 c 15.605,0.055 28.209,12.729 28.167,28.327 l -0.333,61.293 16.146,0.174 0.146,-13.41 c 0.063,-15.591 12.744,-28.195 28.355,-28.154 l 16.063,0.375 c 15.605,0.056 28.209,12.73 28.168,28.328 l -1.063,98.586 c -0.041,13.778 -9.972,25.195 -23.021,27.64 l -0.334,37.64 C -10.188,-29.376 0,-16.084 0,0" /></g></g></g></g></svg>