<?xml version="1.0" encoding="UTF-8" standalone="no"?>
<svg
   xmlns:dc="http://purl.org/dc/elements/1.1/"
   xmlns:cc="http://creativecommons.org/ns#"
   xmlns:rdf="http://www.w3.org/1999/02/22-rdf-syntax-ns#"
   xmlns:svg="http://www.w3.org/2000/svg"
   xmlns="http://www.w3.org/2000/svg"
   viewBox="0 0 1280 1280"
   height="1280"
   width="1280"
   xml:space="preserve"
   version="1.1"
   id="svg2"><metadata
     id="metadata8"><rdf:RDF><cc:Work
         rdf:about=""><dc:format>image/svg+xml</dc:format><dc:type
           rdf:resource="http://purl.org/dc/dcmitype/StillImage" /><dc:title></dc:title></cc:Work></rdf:RDF></metadata><defs
     id="defs6"><clipPath
       id="clipPath16"
       clipPathUnits="userSpaceOnUse"><path
         id="path18"
         d="m 0,1024 1024,0 L 1024,0 0,0 0,1024 Z" /></clipPath><clipPath
       id="clipPath24"
       clipPathUnits="userSpaceOnUse"><path
         id="path26"
         d="m 90,941 843,0 0,-843 -843,0 0,843 z" /></clipPath><clipPath
       id="clipPath40"
       clipPathUnits="userSpaceOnUse"><path
         id="path42"
         d="M 190,941 C 134.771,941 90,896.228 90,841 l 0,0 0,-643 C 90,142.771 134.771,98 190,98 l 0,0 643,0 c 55.228,0 100,44.771 100,100 l 0,0 0,643 c 0,55.228 -44.772,100 -100,100 l 0,0 -643,0 z" /></clipPath></defs><g
     transform="matrix(1.25,0,0,-1.25,0,1280)"
     id="g10"><g
       id="g12"><g
         clip-path="url(#clipPath16)"
         id="g14"><g
           id="g20"><g
             id="g22" /><g
             id="g28"><g
               style="opacity:0.80000299"
               id="g30"
               clip-path="url(#clipPath24)"><g
                 id="g32"
                 transform="translate(933,198)"><path
                   id="path34"
                   style="fill:#ffffff;fill-opacity:1;fill-rule:nonzero;stroke:none"
                   d="m 0,0 c 0,-55.229 -44.772,-100 -100,-100 l -643,0 c -55.229,0 -100,44.771 -100,100 l 0,643 c 0,55.229 44.771,100 100,100 l 643,0 C -44.772,743 0,698.229 0,643 L 0,0 Z" /></g></g></g></g></g></g><g
       id="g36"><g
         clip-path="url(#clipPath40)"
         id="g38"><g
           transform="translate(106.8677,1369)"
           id="g44"><path
             id="path46"
             style="fill:#fdcf4d;fill-opacity:1;fill-rule:nonzero;stroke:none"
             d="M 0,0 600.313,0 1158.5,-970 564.505,-970 0,0 Z" /></g><g
           transform="translate(184.4036,1238.2974)"
           id="g48"><path
             id="path50"
             style="fill:#0fa861;fill-opacity:1;fill-rule:nonzero;stroke:none"
             d="M 0,0 325.535,-561.181 -287.47,-1618.668 -610.696,-1059.131 0,0 Z" /></g><g
           transform="translate(1416.8457,399)"
           id="g52"><path
             id="path54"
             style="fill:#4386fb;fill-opacity:1;fill-rule:nonzero;stroke:none"
             d="m 0,0 -1068.715,0 -282.983,-489 1071.511,0 L 0,0 Z" /></g></g></g></g></svg>