<?xml version="1.0" encoding="UTF-8" standalone="no"?>
<svg
   xmlns:dc="http://purl.org/dc/elements/1.1/"
   xmlns:cc="http://creativecommons.org/ns#"
   xmlns:rdf="http://www.w3.org/1999/02/22-rdf-syntax-ns#"
   xmlns:svg="http://www.w3.org/2000/svg"
   xmlns="http://www.w3.org/2000/svg"
   viewBox="0 0 1365.3333 1365.3333"
   height="1365.3333"
   width="1365.3333"
   xml:space="preserve"
   id="svg5065"
   version="1.1"><metadata
     id="metadata5071"><rdf:RDF><cc:Work
         rdf:about=""><dc:format>image/svg+xml</dc:format><dc:type
           rdf:resource="http://purl.org/dc/dcmitype/StillImage" /><dc:title></dc:title></cc:Work></rdf:RDF></metadata><defs
     id="defs5069"><clipPath
       id="clipPath5081"
       clipPathUnits="userSpaceOnUse"><path
         id="path5079"
         d="M 0,1024 H 1024 V 0 H 0 Z" /></clipPath></defs><g
     transform="matrix(1.3333333,0,0,-1.3333333,0,1365.3333)"
     id="g5073"><g
       id="g5075"><g
         clip-path="url(#clipPath5081)"
         id="g5077"><g
           transform="translate(933,190)"
           id="g5083"><path
             id="path5085"
             style="fill:#b5b5b5;fill-opacity:1;fill-rule:nonzero;stroke:none"
             d="m 0,0 c 0,-55.229 -44.771,-100 -100,-100 h -643 c -55.229,0 -100,44.771 -100,100 v 643 c 0,55.229 44.771,100 100,100 h 643 C -44.771,743 0,698.229 0,643 Z" /></g><g
           transform="translate(422.8677,755)"
           id="g5087"><path
             id="path5089"
             style="fill:#fdcf4d;fill-opacity:1;fill-rule:nonzero;stroke:none"
             d="M 0,0 H 194.825 L 375.978,-315 H 183.204 Z" /></g><g
           transform="translate(422.8677,755.2974)"
           id="g5091"><path
             id="path5093"
             style="fill:#0fa861;fill-opacity:1;fill-rule:nonzero;stroke:none"
             d="m 0,0 97.071,-167.338 -182.791,-315.33 -96.383,166.847 z" /></g><g
           transform="translate(798.8457,440)"
           id="g5095"><path
             id="path5097"
             style="fill:#4386fb;fill-opacity:1;fill-rule:nonzero;stroke:none"
             d="m 0,0 h -365.04 l -96.658,-167 h 365.995 z" /></g></g></g></g></svg>