<?xml version="1.0" encoding="UTF-8" standalone="no"?>
<svg
   xmlns:dc="http://purl.org/dc/elements/1.1/"
   xmlns:cc="http://creativecommons.org/ns#"
   xmlns:rdf="http://www.w3.org/1999/02/22-rdf-syntax-ns#"
   xmlns:svg="http://www.w3.org/2000/svg"
   xmlns="http://www.w3.org/2000/svg"
   viewBox="0 0 1365.3333 1365.3333"
   height="1365.3333"
   width="1365.3333"
   xml:space="preserve"
   id="svg5099"
   version="1.1"><metadata
     id="metadata5105"><rdf:RDF><cc:Work
         rdf:about=""><dc:format>image/svg+xml</dc:format><dc:type
           rdf:resource="http://purl.org/dc/dcmitype/StillImage" /><dc:title></dc:title></cc:Work></rdf:RDF></metadata><defs
     id="defs5103"><clipPath
       id="clipPath5115"
       clipPathUnits="userSpaceOnUse"><path
         id="path5113"
         d="M 0,1024 H 1024 V 0 H 0 Z" /></clipPath><clipPath
       id="clipPath5127"
       clipPathUnits="userSpaceOnUse"><path
         id="path5125"
         d="M 190,941 C 134.771,941 90,896.228 90,841 v 0 -643 C 90,142.771 134.771,98 190,98 v 0 h 643 c 55.228,0 100,44.771 100,100 v 0 643 c 0,55.228 -44.772,100 -100,100 v 0 z" /></clipPath></defs><g
     transform="matrix(1.3333333,0,0,-1.3333333,0,1365.3333)"
     id="g5107"><g
       id="g5109"><g
         clip-path="url(#clipPath5115)"
         id="g5111"><g
           transform="translate(933,198)"
           id="g5117"><path
             id="path5119"
             style="fill:#ffffff;fill-opacity:1;fill-rule:nonzero;stroke:none"
             d="m 0,0 c 0,-55.229 -44.772,-100 -100,-100 h -643 c -55.229,0 -100,44.771 -100,100 v 643 c 0,55.229 44.771,100 100,100 h 643 C -44.772,743 0,698.229 0,643 Z" /></g></g></g><g
       id="g5121"><g
         clip-path="url(#clipPath5127)"
         id="g5123"><g
           transform="translate(42.8677,1410)"
           id="g5129"><path
             id="path5131"
             style="fill:#fdcf4d;fill-opacity:1;fill-rule:nonzero;stroke:none"
             d="M 0,0 H 600.313 L 1158.5,-970 H 564.505 Z" /></g><g
           transform="translate(194.4036,1149.2974)"
           id="g5133"><path
             id="path5135"
             style="fill:#0fa861;fill-opacity:1;fill-rule:nonzero;stroke:none"
             d="m 0,0 325.535,-561.181 -613.005,-1057.487 -323.226,559.537 z" /></g><g
           transform="translate(1498.8457,439)"
           id="g5137"><path
             id="path5139"
             style="fill:#4386fb;fill-opacity:1;fill-rule:nonzero;stroke:none"
             d="m 0,0 h -1068.715 l -282.983,-489 h 1071.511 z" /></g></g></g></g></svg>