<?xml version="1.0" encoding="UTF-8" standalone="no"?>
<svg
   xmlns:dc="http://purl.org/dc/elements/1.1/"
   xmlns:cc="http://creativecommons.org/ns#"
   xmlns:rdf="http://www.w3.org/1999/02/22-rdf-syntax-ns#"
   xmlns:svg="http://www.w3.org/2000/svg"
   xmlns="http://www.w3.org/2000/svg"
   viewBox="0 0 1365.3333 1365.3333"
   height="1365.3333"
   width="1365.3333"
   xml:space="preserve"
   id="svg5167"
   version="1.1"><metadata
     id="metadata5173"><rdf:RDF><cc:Work
         rdf:about=""><dc:format>image/svg+xml</dc:format><dc:type
           rdf:resource="http://purl.org/dc/dcmitype/StillImage" /><dc:title></dc:title></cc:Work></rdf:RDF></metadata><defs
     id="defs5171"><clipPath
       id="clipPath5183"
       clipPathUnits="userSpaceOnUse"><path
         id="path5181"
         d="M 0,1024 H 1024 V 0 H 0 Z" /></clipPath><clipPath
       id="clipPath5195"
       clipPathUnits="userSpaceOnUse"><path
         id="path5193"
         d="M 256.386,802.439 H 761.93 V 218.71 H 256.386 Z" /></clipPath><clipPath
       id="clipPath5211"
       clipPathUnits="userSpaceOnUse"><path
         id="path5209"
         d="M 256.387,656.49 C 402.146,572.22 373.954,296.77 509.178,218.71 v 0 L 761.93,364.659 C 618.35,447.007 635.706,729.376 509.139,802.439 v 0 z" /></clipPath></defs><g
     transform="matrix(1.3333333,0,0,-1.3333333,0,1365.3333)"
     id="g5175"><g
       id="g5177"><g
         clip-path="url(#clipPath5183)"
         id="g5179"><g
           transform="translate(965.98,166.5286)"
           id="g5185"><path
             id="path5187"
             style="fill:#5b5b5b;fill-opacity:1;fill-rule:nonzero;stroke:none"
             d="m 0,0 c 0.341,-59.6 -47.698,-108.192 -107.298,-108.534 l -694.153,-3.975 c -59.601,-0.341 -108.193,47.698 -108.534,107.298 l -3.975,694.154 c -0.341,59.6 47.698,108.192 107.298,108.534 l 694.153,3.974 c 59.601,0.342 108.193,-47.697 108.534,-107.297 z" /></g><g
           id="g5189"><g
             id="g5191" /><g
             id="g5203"><g
               style="opacity:0.75"
               id="g5201"
               clip-path="url(#clipPath5195)"><g
                 id="g5199"
                 transform="translate(509.1779,218.7096)"><path
                   id="path5197"
                   style="fill:#5ecef9;fill-opacity:1;fill-rule:nonzero;stroke:none"
                   d="m 0,0 -252.772,145.915 -0.02,291.865 252.753,145.949 252.772,-145.915 0.019,-291.865 z" /></g></g></g></g></g></g><g
       id="g5205"><g
         clip-path="url(#clipPath5211)"
         id="g5207"><g
           transform="translate(671.5493,812.9157)"
           id="g5213"><path
             id="path5215"
             style="fill:#bbdb93;fill-opacity:1;fill-rule:nonzero;stroke:none"
             d="m 0,0 -505.704,-292.189 36.129,-62.53 505.704,292.188 z" /></g><g
           transform="translate(635.42,875.4463)"
           id="g5217"><path
             id="path5219"
             style="fill:#52d73d;fill-opacity:1;fill-rule:nonzero;stroke:none"
             d="m 0,0 -505.704,-292.189 36.129,-62.53 505.704,292.188 z" /></g><g
           transform="translate(743.808,687.8545)"
           id="g5221"><path
             id="path5223"
             style="fill:#fd6c2c;fill-opacity:1;fill-rule:nonzero;stroke:none"
             d="m 0,0 -505.704,-292.189 36.129,-62.53 505.704,292.188 z" /></g><g
           transform="translate(707.6786,750.3851)"
           id="g5225"><path
             id="path5227"
             style="fill:#fef186;fill-opacity:1;fill-rule:nonzero;stroke:none"
             d="m 0,0 -505.704,-292.189 36.129,-62.53 505.704,292.188 z" /></g><g
           transform="translate(816.0667,562.7933)"
           id="g5229"><path
             id="path5231"
             style="fill:#c87fd1;fill-opacity:1;fill-rule:nonzero;stroke:none"
             d="m 0,0 -505.704,-292.189 36.129,-62.53 505.704,292.188 z" /></g><g
           transform="translate(779.9373,625.3239)"
           id="g5233"><path
             id="path5235"
             style="fill:#ee3a76;fill-opacity:1;fill-rule:nonzero;stroke:none"
             d="m 0,0 -505.704,-292.189 36.129,-62.53 505.704,292.188 z" /></g><g
           transform="translate(852.1959,500.2627)"
           id="g5237"><path
             id="path5239"
             style="fill:#8e99d5;fill-opacity:1;fill-rule:nonzero;stroke:none"
             d="m 0,0 -505.704,-292.189 36.129,-62.53 505.704,292.188 z" /></g></g></g></g></svg>