<?xml version="1.0" encoding="UTF-8" standalone="no"?>
<svg
   xmlns:dc="http://purl.org/dc/elements/1.1/"
   xmlns:cc="http://creativecommons.org/ns#"
   xmlns:rdf="http://www.w3.org/1999/02/22-rdf-syntax-ns#"
   xmlns:svg="http://www.w3.org/2000/svg"
   xmlns="http://www.w3.org/2000/svg"
   viewBox="0 0 1365.3333 1365.3333"
   height="1365.3333"
   width="1365.3333"
   xml:space="preserve"
   id="svg5241"
   version="1.1"><metadata
     id="metadata5247"><rdf:RDF><cc:Work
         rdf:about=""><dc:format>image/svg+xml</dc:format><dc:type
           rdf:resource="http://purl.org/dc/dcmitype/StillImage" /><dc:title></dc:title></cc:Work></rdf:RDF></metadata><defs
     id="defs5245"><clipPath
       id="clipPath5257"
       clipPathUnits="userSpaceOnUse"><path
         id="path5255"
         d="M 0,1024 H 1024 V 0 H 0 Z" /></clipPath></defs><g
     transform="matrix(1.3333333,0,0,-1.3333333,0,1365.3333)"
     id="g5249"><g
       id="g5251"><g
         clip-path="url(#clipPath5257)"
         id="g5253"><g
           transform="translate(933,190)"
           id="g5259"><path
             id="path5261"
             style="fill:#ffffff;fill-opacity:1;fill-rule:nonzero;stroke:none"
             d="m 0,0 c 0,-55.229 -44.772,-100 -100,-100 h -643 c -55.229,0 -100,44.771 -100,100 v 643 c 0,55.229 44.771,100 100,100 h 643 C -44.772,743 0,698.229 0,643 Z" /></g><g
           transform="translate(800.2493,532.7319)"
           id="g5263"><path
             id="path5265"
             style="fill:#01608a;fill-opacity:1;fill-rule:nonzero;stroke:none"
             d="m 0,0 c 0,136.95 -128.036,247.969 -289.182,247.969 -161.146,0 -289.317,-110.757 -289.317,-247.707 0,-68.125 30.926,-128.882 82.189,-174.913 4.088,-3.671 7.112,-36.574 -1.944,-60.053 -14.16,-36.713 -25.437,-48.514 -18.619,-51.05 20.503,-7.628 78.607,19.672 107.781,35.316 23.67,12.693 25.643,14.622 27.596,13.985 30.262,-9.867 59.945,-12.674 92.247,-12.674 C -128.103,-249.127 0,-136.95 0,0" /></g><g
           transform="translate(665.2082,416.3882)"
           id="g5267"><path
             id="path5269"
             style="fill:#ffffff;fill-opacity:1;fill-rule:nonzero;stroke:none"
             d="m 0,0 c 0.344,4.195 -2.273,11.065 -4.293,13.215 -9.857,10.491 -29.242,16.135 -49.354,29.651 -20.134,13.521 -22.296,9.956 -26.167,8.404 -3.896,-1.55 -22.013,-25.315 -30.392,-32.698 -5.325,-4.705 -12.319,-3.373 -14.954,-2.336 -59.023,24.714 -101.257,105.163 -101.257,105.163 -5.146,6.035 0.963,11.728 0.963,11.728 11.638,10.09 16.807,14.693 23.669,22.433 12.401,14.005 -15.328,71.808 -18.682,83.952 -3.39,12.144 -27.32,9.724 -27.32,9.724 -46.667,-3.244 -62.824,-63.349 -54.669,-87.929 C -252.62,10.694 -114.09,-97.39 -27.263,-44.951 v -0.003 C -27.267,-44.954 -2.811,-34.261 0,0" /></g></g></g></g></svg>