<?xml version="1.0" encoding="UTF-8" standalone="no"?>
<svg
   xmlns:dc="http://purl.org/dc/elements/1.1/"
   xmlns:cc="http://creativecommons.org/ns#"
   xmlns:rdf="http://www.w3.org/1999/02/22-rdf-syntax-ns#"
   xmlns:svg="http://www.w3.org/2000/svg"
   xmlns="http://www.w3.org/2000/svg"
   viewBox="0 0 1365.3333 1365.3333"
   height="1365.3333"
   width="1365.3333"
   xml:space="preserve"
   id="svg5271"
   version="1.1"><metadata
     id="metadata5277"><rdf:RDF><cc:Work
         rdf:about=""><dc:format>image/svg+xml</dc:format><dc:type
           rdf:resource="http://purl.org/dc/dcmitype/StillImage" /><dc:title></dc:title></cc:Work></rdf:RDF></metadata><defs
     id="defs5275"><clipPath
       id="clipPath5287"
       clipPathUnits="userSpaceOnUse"><path
         id="path5285"
         d="M 191,933 C 135.771,933 91,888.229 91,833 v 0 -643 C 91,134.771 135.771,90 191,90 v 0 h 643 c 55.229,0 100,44.771 100,100 v 0 643 c 0,55.229 -44.771,100 -100,100 v 0 z" /></clipPath><clipPath
       id="clipPath5307"
       clipPathUnits="userSpaceOnUse"><path
         id="path5305"
         d="m 288,805 c -7.157,0 -14.061,-1.074 -20.563,-3.069 v 0 C 236.33,755.294 218.198,699.265 218.198,639 v 0 c 0,-162.372 131.628,-294 294,-294 v 0 c 153.363,0 279.3,117.433 292.802,267.28 v 0 53.44 c -4.491,49.839 -21.423,96.1 -47.661,135.639 v 0 C 750.324,803.72 742.811,805 735,805 v 0 z" /></clipPath><clipPath
       id="clipPath5325"
       clipPathUnits="userSpaceOnUse"><path
         id="path5323"
         d="M 0,1024 H 1024 V 0 H 0 Z" /></clipPath></defs><g
     transform="matrix(1.3333333,0,0,-1.3333333,0,1365.3333)"
     id="g5279"><g
       id="g5281"><g
         clip-path="url(#clipPath5287)"
         id="g5283"><g
           transform="translate(932.6,190)"
           id="g5289"><path
             id="path5291"
             style="fill:#6bb9f0;fill-opacity:1;fill-rule:nonzero;stroke:none"
             d="m 0,0 c 0,-55.229 -44.771,-100 -100,-100 h -643 c -55.229,0 -100,44.771 -100,100 v 643 c 0,55.229 44.771,100 100,100 h 643 C -44.771,743 0,698.229 0,643 Z" /></g><g
           transform="translate(313.1623,920.215)"
           id="g5293"><path
             id="path5295"
             style="fill:none;stroke:#2c3e50;stroke-width:17;stroke-linecap:round;stroke-linejoin:miter;stroke-miterlimit:10;stroke-dasharray:none;stroke-opacity:1"
             d="M 0,0 82.675,-238.43" /></g><g
           transform="translate(693.6094,407.8608)"
           id="g5297"><path
             id="path5299"
             style="fill:#ebfffe;fill-opacity:1;fill-rule:nonzero;stroke:none"
             d="m 0,0 h -363.019 c 210.614,-120.012 210.612,-318.032 87,-317.861 H -90 c -113.412,0 -122.407,191.608 90,317.861" /></g></g></g><g
       id="g5301"><g
         clip-path="url(#clipPath5307)"
         id="g5303"><path
           id="path5309"
           style="fill:#c0392b;fill-opacity:1;fill-rule:nonzero;stroke:none"
           d="M 882.575,654.468 H 142.426 v 191.617 h 740.149 z" /><path
           id="path5311"
           style="fill:#d35400;fill-opacity:1;fill-rule:nonzero;stroke:none"
           d="M 882.575,463.477 H 142.426 v 191.617 h 740.149 z" /><path
           id="path5313"
           style="fill:#f1c40f;fill-opacity:1;fill-rule:nonzero;stroke:none"
           d="M 882.575,275.815 H 142.426 v 191.617 h 740.149 z" /></g></g><g
       transform="translate(752.2253,903)"
       id="g5315"><path
         id="path5317"
         style="fill:#87d37c;fill-opacity:1;fill-rule:nonzero;stroke:none"
         d="M 0,0 H -213.021 L 60.006,-174.104 Z" /></g><g
       id="g5319"><g
         clip-path="url(#clipPath5325)"
         id="g5321"><g
           transform="translate(649.267,824.0294)"
           id="g5327"><path
             id="path5329"
             style="fill:none;stroke:#f7ca18;stroke-width:38;stroke-linecap:square;stroke-linejoin:miter;stroke-miterlimit:10;stroke-dasharray:none;stroke-opacity:1"
             d="M 0,0 C -0.356,92.314 51.972,-31.388 53.951,-48.132 57.775,-80.479 4.518,-99.535 -0.054,-147.142 -2.959,-177.39 16.21,-204.181 32.949,-222.15" /></g><g
           transform="translate(389.186,846.9082)"
           id="g5331"><path
             id="path5333"
             style="fill:#d91e18;fill-opacity:1;fill-rule:nonzero;stroke:none"
             d="m 0,0 c 0,-26.512 -21.492,-48.005 -48.005,-48.005 -26.512,0 -48.005,21.493 -48.005,48.005 0,26.512 21.493,48.005 48.005,48.005 C -21.492,48.005 0,26.512 0,0" /></g></g></g></g></svg>