<?xml version="1.0" encoding="UTF-8" standalone="no"?>
<svg
   xmlns:dc="http://purl.org/dc/elements/1.1/"
   xmlns:cc="http://creativecommons.org/ns#"
   xmlns:rdf="http://www.w3.org/1999/02/22-rdf-syntax-ns#"
   xmlns:svg="http://www.w3.org/2000/svg"
   xmlns="http://www.w3.org/2000/svg"
   viewBox="0 0 1365.3333 1365.3333"
   height="1365.3333"
   width="1365.3333"
   xml:space="preserve"
   id="svg5335"
   version="1.1"><metadata
     id="metadata5341"><rdf:RDF><cc:Work
         rdf:about=""><dc:format>image/svg+xml</dc:format><dc:type
           rdf:resource="http://purl.org/dc/dcmitype/StillImage" /><dc:title></dc:title></cc:Work></rdf:RDF></metadata><defs
     id="defs5339"><clipPath
       id="clipPath5351"
       clipPathUnits="userSpaceOnUse"><path
         id="path5349"
         d="M 191,933 C 135.771,933 91,888.229 91,833 v 0 -643 C 91,134.771 135.771,90 191,90 v 0 h 643 c 55.229,0 100,44.771 100,100 v 0 643 c 0,55.229 -44.771,100 -100,100 v 0 z" /></clipPath><clipPath
       id="clipPath5363"
       clipPathUnits="userSpaceOnUse"><path
         id="path5361"
         d="m 288,805 c -38.66,0 -70,-31.34 -70,-70 v 0 -447 c 0,-38.66 31.34,-70 70,-70 v 0 h 447 c 38.66,0 70,31.34 70,70 v 0 447 c 0,38.66 -31.34,70 -70,70 v 0 z" /></clipPath></defs><g
     transform="matrix(1.3333333,0,0,-1.3333333,0,1365.3333)"
     id="g5343"><g
       id="g5345"><g
         clip-path="url(#clipPath5351)"
         id="g5347"><g
           transform="translate(933,190)"
           id="g5353"><path
             id="path5355"
             style="fill:#8bc34a;fill-opacity:1;fill-rule:nonzero;stroke:none"
             d="m 0,0 c 0,-55.229 -44.772,-100 -100,-100 h -643 c -55.229,0 -100,44.771 -100,100 v 643 c 0,55.229 44.771,100 100,100 h 643 C -44.772,743 0,698.229 0,643 Z" /></g></g></g><g
       id="g5357"><g
         clip-path="url(#clipPath5363)"
         id="g5359"><g
           transform="translate(315.9591,393.5755)"
           id="g5365"><path
             id="path5367"
             style="fill:#ffffff;fill-opacity:1;fill-rule:nonzero;stroke:none"
             d="M 0,0 C 32.564,0 58.962,26.398 58.962,58.962 H -78.616 c -10.855,0 -19.654,8.8 -19.654,19.654 v 216.195 c 0,10.855 8.799,19.654 19.654,19.654 h 216.195 c 10.854,0 19.654,-8.799 19.654,-19.654 V 78.616 C 157.233,-8.221 86.837,-78.616 0,-78.616 c -7.553,0 -15.045,0.534 -22.437,1.591 -9.681,1.385 -16.871,9.676 -16.871,19.456 v 40.392 c 0,12.842 12.116,22.235 24.553,19.033 C -9.984,0.628 -5.042,0 0,0 m 334.12,0 c 32.563,0 58.962,26.398 58.962,58.962 H 255.503 c -10.855,0 -19.654,8.8 -19.654,19.654 v 216.195 c 0,10.855 8.799,19.654 19.654,19.654 h 216.195 c 10.855,0 19.654,-8.799 19.654,-19.654 V 78.616 c 0,-86.837 -70.395,-157.232 -157.232,-157.232 -7.553,0 -15.046,0.534 -22.438,1.591 -9.681,1.385 -16.871,9.676 -16.871,19.456 v 40.392 c 0,12.842 12.116,22.235 24.553,19.033 C 324.135,0.628 329.077,0 334.12,0" /></g></g></g></g></svg>