<?xml version="1.0" encoding="UTF-8" standalone="no"?>
<svg
   xmlns:dc="http://purl.org/dc/elements/1.1/"
   xmlns:cc="http://creativecommons.org/ns#"
   xmlns:rdf="http://www.w3.org/1999/02/22-rdf-syntax-ns#"
   xmlns:svg="http://www.w3.org/2000/svg"
   xmlns="http://www.w3.org/2000/svg"
   viewBox="0 0 1365.3333 1365.3333"
   height="1365.3333"
   width="1365.3333"
   xml:space="preserve"
   id="svg5369"
   version="1.1"><metadata
     id="metadata5375"><rdf:RDF><cc:Work
         rdf:about=""><dc:format>image/svg+xml</dc:format><dc:type
           rdf:resource="http://purl.org/dc/dcmitype/StillImage" /><dc:title></dc:title></cc:Work></rdf:RDF></metadata><defs
     id="defs5373"><clipPath
       id="clipPath5385"
       clipPathUnits="userSpaceOnUse"><path
         id="path5383"
         d="M 0,1024 H 1024 V 0 H 0 Z" /></clipPath></defs><g
     transform="matrix(1.3333333,0,0,-1.3333333,0,1365.3333)"
     id="g5377"><g
       id="g5379"><g
         clip-path="url(#clipPath5385)"
         id="g5381"><g
           transform="translate(933,190)"
           id="g5387"><path
             id="path5389"
             style="fill:#0067af;fill-opacity:1;fill-rule:nonzero;stroke:none"
             d="m 0,0 c 0,-55.229 -44.771,-100 -100,-100 h -643 c -55.229,0 -100,44.771 -100,100 v 643 c 0,55.229 44.771,100 100,100 h 643 C -44.771,743 0,698.229 0,643 Z" /></g><g
           transform="translate(512.4746,734.5918)"
           id="g5391"><path
             id="path5393"
             style="fill:#ffffff;fill-opacity:1;fill-rule:evenodd;stroke:none"
             d="m 0,0 c -78.25,-1.836 -144.764,-29.161 -192.352,-79.581 -68.12,-72.176 -68.422,-177.085 0.727,-248.081 65.782,-67.539 147.554,-87.709 238.799,-75.297 16.346,2.221 30.32,1.025 44.537,-8.172 21.33,-13.797 44.588,-24.146 68.828,-31.971 3.789,-1.222 8.852,-3.677 11.586,1.459 2.145,4.03 -1.738,6.981 -4.004,9.817 -7.779,9.726 -14.846,19.918 -20.416,31.062 -10.527,21.061 -8.961,26.953 9.945,40.237 6.178,4.34 12.297,8.8 18.127,13.591 95.623,78.575 95.555,208.778 -0.215,287.072 C 124.943,-18.481 65.986,-1.052 0,0 m 5.221,49.012 c 79.802,-2.056 153.847,-26.116 213.931,-84.168 103.832,-100.324 98.514,-252.457 -11.195,-346.389 -18.803,-16.096 -19.662,-20.789 -7.26,-42.293 8.776,-15.211 20.647,-27.637 35.178,-37.412 7.896,-5.312 16.008,-10.566 12.234,-21.789 -3.668,-10.904 -13.488,-11 -22.841,-11.131 -49.809,-0.691 -95.998,12.633 -139.09,36.928 -10.907,6.146 -21.207,7.926 -33.797,6.271 -99.234,-13.049 -189.594,7.971 -264.101,77.205 -112.574,104.608 -101.608,269.183 22.175,360.669 57.19,42.269 121.779,61.116 194.766,62.109" /></g><g
           transform="translate(513.334,383.0762)"
           id="g5395"><path
             id="path5397"
             style="fill:#ffffff;fill-opacity:1;fill-rule:evenodd;stroke:none"
             d="m 0,0 c -55.643,1.318 -104.767,18.57 -143.173,60.496 -7.18,7.838 -19.853,17.705 -10.472,28.824 10.155,12.034 19.263,-2.381 27.191,-7.74 81.215,-54.885 183.763,-53.211 262.011,4.719 5.761,4.267 12.039,12.176 19.507,4.471 6.998,-7.221 2.233,-15.491 -2.707,-21.991 C 124.467,32.074 85.93,13.098 41.891,3.885 28.176,1.016 14.225,-0.854 0,0" /></g></g></g></g></svg>