<?xml version="1.0" encoding="UTF-8" standalone="no"?>
<svg
   xmlns:dc="http://purl.org/dc/elements/1.1/"
   xmlns:cc="http://creativecommons.org/ns#"
   xmlns:rdf="http://www.w3.org/1999/02/22-rdf-syntax-ns#"
   xmlns:svg="http://www.w3.org/2000/svg"
   xmlns="http://www.w3.org/2000/svg"
   viewBox="0 0 1365.3333 1365.3333"
   height="1365.3333"
   width="1365.3333"
   xml:space="preserve"
   id="svg5399"
   version="1.1"><metadata
     id="metadata5405"><rdf:RDF><cc:Work
         rdf:about=""><dc:format>image/svg+xml</dc:format><dc:type
           rdf:resource="http://purl.org/dc/dcmitype/StillImage" /><dc:title></dc:title></cc:Work></rdf:RDF></metadata><defs
     id="defs5403"><clipPath
       id="clipPath5415"
       clipPathUnits="userSpaceOnUse"><path
         id="path5413"
         d="M 0,1024 H 1024 V 0 H 0 Z" /></clipPath></defs><g
     transform="matrix(1.3333333,0,0,-1.3333333,0,1365.3333)"
     id="g5407"><g
       id="g5409"><g
         clip-path="url(#clipPath5415)"
         id="g5411"><g
           transform="translate(933,190)"
           id="g5417"><path
             id="path5419"
             style="fill:#f89600;fill-opacity:1;fill-rule:nonzero;stroke:none"
             d="m 0,0 c 0,-55.229 -44.771,-100 -100,-100 h -643 c -55.229,0 -100,44.771 -100,100 v 643 c 0,55.229 44.771,100 100,100 h 643 C -44.771,743 0,698.229 0,643 Z" /></g><g
           transform="translate(295.0469,743.3325)"
           id="g5421"><path
             id="path5423"
             style="fill:#ffffff;fill-opacity:1;fill-rule:nonzero;stroke:none"
             d="m 0,0 c 0,0 122.852,5.583 210.519,-67.417 0.708,-0.625 0.915,-1.333 1.477,-2.77 0.188,-0.75 -0.043,-1.271 -0.043,-2.146 v -350 c 0,0 -67,77.001 -212,77.001 V -1.333" /></g><g
           transform="translate(514,321)"
           id="g5425"><path
             id="path5427"
             style="fill:#ffffff;fill-opacity:1;fill-rule:nonzero;stroke:none"
             d="m 0,0 v 344 c 0,0 0.25,6.375 1.75,9 0.625,0.875 0.042,0.875 3.167,3.75 C 8.042,359.625 78,422.528 213,422.431 V 77 C 213,77 85,82.667 0,0" /></g><g
           transform="translate(745,704)"
           id="g5429"><path
             id="path5431"
             style="fill:#ffffff;fill-opacity:1;fill-rule:nonzero;stroke:none"
             d="m 0,0 h 12 v -337 c 0,0 -148,3.75 -245.5,-63.25 0,0 -83.958,62.418 -247.292,62.418 L -480.458,1 H -467 l 0.167,-323.75 c 0,0 146.333,-0.374 232.75,-68.041 0,0 90.083,67.812 233.416,67.479 z" /></g><g
           transform="translate(233,665)"
           id="g5433"><path
             id="path5435"
             style="fill:#585858;fill-opacity:1;fill-rule:nonzero;stroke:none"
             d="m 0,0 h 15 v -318 c 0,0 137.75,0 220.75,-31 7,-2.501 12.625,-5.168 17.959,-9.668 5.333,-4.5 7.895,-9.001 25.229,-9.001 17.333,0 21.031,6.168 23.865,7.834 2.834,1.666 7.599,6.999 25.099,12.499 17.5,5.5 107.098,29.836 212.098,29.836 V 0 l 15,0.5 V -334 c 0,0 -141.916,0.833 -232.583,-27.25 -3.167,-0.875 -5.917,-1.75 -11.042,-7.125 -5.125,-5.375 -10.28,-9.25 -32.421,-9.25 -22.141,0 -25.485,2.5 -30.985,7.375 -2.398,2.215 -5.11,5.5 -14.235,9 -9.125,3.5 -90.734,26.917 -233.734,26.917 z" /></g></g></g></g></svg>