<?xml version="1.0" encoding="UTF-8" standalone="no"?>
<svg
   xmlns:dc="http://purl.org/dc/elements/1.1/"
   xmlns:cc="http://creativecommons.org/ns#"
   xmlns:rdf="http://www.w3.org/1999/02/22-rdf-syntax-ns#"
   xmlns:svg="http://www.w3.org/2000/svg"
   xmlns="http://www.w3.org/2000/svg"
   viewBox="0 0 1365.3333 1365.3333"
   height="1365.3333"
   width="1365.3333"
   xml:space="preserve"
   id="svg5437"
   version="1.1"><metadata
     id="metadata5443"><rdf:RDF><cc:Work
         rdf:about=""><dc:format>image/svg+xml</dc:format><dc:type
           rdf:resource="http://purl.org/dc/dcmitype/StillImage" /><dc:title></dc:title></cc:Work></rdf:RDF></metadata><defs
     id="defs5441"><clipPath
       id="clipPath5453"
       clipPathUnits="userSpaceOnUse"><path
         id="path5451"
         d="M 0,1024 H 1024 V 0 H 0 Z" /></clipPath><clipPath
       id="clipPath5465"
       clipPathUnits="userSpaceOnUse"><path
         id="path5463"
         d="M 256.386,802.439 H 761.93 V 218.71 H 256.386 Z" /></clipPath></defs><g
     transform="matrix(1.3333333,0,0,-1.3333333,0,1365.3333)"
     id="g5445"><g
       id="g5447"><g
         clip-path="url(#clipPath5453)"
         id="g5449"><g
           transform="translate(965.98,166.5286)"
           id="g5455"><path
             id="path5457"
             style="fill:#5b5b5b;fill-opacity:1;fill-rule:nonzero;stroke:none"
             d="m 0,0 c 0.341,-59.6 -47.698,-108.192 -107.298,-108.534 l -694.153,-3.975 c -59.601,-0.341 -108.193,47.698 -108.534,107.298 l -3.975,694.154 c -0.341,59.6 47.698,108.192 107.298,108.534 l 694.153,3.974 c 59.601,0.342 108.193,-47.697 108.534,-107.297 z" /></g><g
           id="g5459"><g
             id="g5461" /><g
             id="g5473"><g
               style="opacity:0.75"
               id="g5471"
               clip-path="url(#clipPath5465)"><g
                 id="g5469"
                 transform="translate(509.1779,218.7096)"><path
                   id="path5467"
                   style="fill:#5ecef9;fill-opacity:1;fill-rule:nonzero;stroke:none"
                   d="m 0,0 -252.772,145.915 -0.02,291.865 252.753,145.949 252.772,-145.915 0.019,-291.865 z" /></g></g></g></g><g
           transform="translate(592.7371,755.3387)"
           id="g5475"><path
             id="path5477"
             style="fill:none;stroke:#5b5b5b;stroke-width:14;stroke-linecap:square;stroke-linejoin:bevel;stroke-miterlimit:10;stroke-dasharray:none;stroke-opacity:1"
             d="M 0,0 -258.207,-143.361" /></g><g
           transform="translate(679.8763,704.7712)"
           id="g5479"><path
             id="path5481"
             style="fill:none;stroke:#5b5b5b;stroke-width:14;stroke-linecap:square;stroke-linejoin:bevel;stroke-miterlimit:10;stroke-dasharray:none;stroke-opacity:1"
             d="M 0,0 -257.35,-142.885" /></g><g
           transform="translate(426.6689,755.3387)"
           id="g5483"><path
             id="path5485"
             style="fill:none;stroke:#5b5b5b;stroke-width:14;stroke-linecap:square;stroke-linejoin:bevel;stroke-miterlimit:10;stroke-dasharray:none;stroke-opacity:1"
             d="M 0,0 258.207,-143.361" /></g><g
           transform="translate(339.5297,704.7712)"
           id="g5487"><path
             id="path5489"
             style="fill:none;stroke:#5b5b5b;stroke-width:14;stroke-linecap:square;stroke-linejoin:bevel;stroke-miterlimit:10;stroke-dasharray:none;stroke-opacity:1"
             d="M 0,0 257.35,-142.885" /></g><g
           transform="translate(511.8853,307.1322)"
           id="g5491"><path
             id="path5493"
             style="fill:none;stroke:#5b5b5b;stroke-width:17;stroke-linecap:square;stroke-linejoin:bevel;stroke-miterlimit:10;stroke-dasharray:none;stroke-opacity:1"
             d="M 0,0 253.759,148.321" /></g><g
           transform="translate(510.8853,408.1322)"
           id="g5495"><path
             id="path5497"
             style="fill:none;stroke:#5b5b5b;stroke-width:17;stroke-linecap:square;stroke-linejoin:bevel;stroke-miterlimit:10;stroke-dasharray:none;stroke-opacity:1"
             d="M 0,0 252.759,147.321" /></g><g
           transform="translate(256.4059,364.6249)"
           id="g5499"><path
             id="path5501"
             style="fill:#ffffff;fill-opacity:1;fill-rule:nonzero;stroke:none"
             d="M 0,0 252.772,-145.915 252.594,146.375 0,292 Z" /></g><g
           transform="translate(256.4059,462.6861)"
           id="g5503"><path
             id="path5505"
             style="fill:none;stroke:#5b5b5b;stroke-width:7;stroke-linecap:square;stroke-linejoin:miter;stroke-miterlimit:10;stroke-dasharray:none;stroke-opacity:1"
             d="M 0,0 253.594,-151.372" /></g><g
           transform="translate(256.4059,563.4349)"
           id="g5507"><path
             id="path5509"
             style="fill:none;stroke:#5b5b5b;stroke-width:7;stroke-linecap:square;stroke-linejoin:miter;stroke-miterlimit:10;stroke-dasharray:none;stroke-opacity:1"
             d="M 0,0 252.752,-150.87" /></g><g
           transform="translate(599,557)"
           id="g5511"><path
             id="path5513"
             style="fill:none;stroke:#5b5b5b;stroke-width:14;stroke-linecap:square;stroke-linejoin:bevel;stroke-miterlimit:10;stroke-dasharray:none;stroke-opacity:1"
             d="M 0,0 V -297" /></g><g
           transform="translate(687,607)"
           id="g5515"><path
             id="path5517"
             style="fill:none;stroke:#5b5b5b;stroke-width:14;stroke-linecap:square;stroke-linejoin:bevel;stroke-miterlimit:10;stroke-dasharray:none;stroke-opacity:1"
             d="M 0,0 V -299" /></g><g
           transform="translate(754.1601,549.0115)"
           id="g5519"><path
             id="path5521"
             style="fill:#a0d468;fill-opacity:1;fill-rule:nonzero;stroke:none"
             d="m 0,0 c 0,-2.04 -1.293,-3.694 -2.887,-3.694 -1.595,0 -2.887,1.654 -2.887,3.694 0,2.04 1.292,3.694 2.887,3.694 C -1.293,3.694 0,2.04 0,0" /></g><g
           transform="translate(754.1601,448.0116)"
           id="g5523"><path
             id="path5525"
             style="fill:#a0d468;fill-opacity:1;fill-rule:nonzero;stroke:none"
             d="m 0,0 c 0,-2.04 -1.293,-3.694 -2.887,-3.694 -1.595,0 -2.887,1.654 -2.887,3.694 0,2.04 1.292,3.694 2.887,3.694 C -1.293,3.694 0,2.04 0,0" /></g><g
           transform="translate(301,455)"
           id="g5527"><path
             id="path5529"
             style="fill:#ffce54;fill-opacity:1;fill-rule:nonzero;stroke:none"
             d="M 0,0 -35,20 V 84 L 0,64 Z" /></g><g
           transform="translate(301,353.6673)"
           id="g5531"><path
             id="path5533"
             style="fill:#ffce54;fill-opacity:1;fill-rule:nonzero;stroke:none"
             d="M 0,0 -35,20 V 84 L 0,64 Z" /></g><g
           transform="translate(301,555)"
           id="g5535"><path
             id="path5537"
             style="fill:#a0d468;fill-opacity:1;fill-rule:nonzero;stroke:none"
             d="M 0,0 -35,20 V 84 L 0,64 Z" /></g></g></g></g></svg>