<?xml version="1.0" encoding="UTF-8" standalone="no"?>
<svg
   xmlns:dc="http://purl.org/dc/elements/1.1/"
   xmlns:cc="http://creativecommons.org/ns#"
   xmlns:rdf="http://www.w3.org/1999/02/22-rdf-syntax-ns#"
   xmlns:svg="http://www.w3.org/2000/svg"
   xmlns="http://www.w3.org/2000/svg"
   viewBox="0 0 1365.3333 1365.3333"
   height="1365.3333"
   width="1365.3333"
   xml:space="preserve"
   id="svg5539"
   version="1.1"><metadata
     id="metadata5545"><rdf:RDF><cc:Work
         rdf:about=""><dc:format>image/svg+xml</dc:format><dc:type
           rdf:resource="http://purl.org/dc/dcmitype/StillImage" /><dc:title></dc:title></cc:Work></rdf:RDF></metadata><defs
     id="defs5543"><clipPath
       id="clipPath5555"
       clipPathUnits="userSpaceOnUse"><path
         id="path5553"
         d="M 191,933 C 135.771,933 91,888.229 91,833 v 0 -643 C 91,134.771 135.771,90 191,90 v 0 h 643 c 55.229,0 100,44.771 100,100 v 0 643 c 0,55.229 -44.771,100 -100,100 v 0 z" /></clipPath><linearGradient
       id="linearGradient5565"
       spreadMethod="pad"
       gradientTransform="matrix(-3.68e-5,842.99951,842.99951,3.68e-5,512.50049,90)"
       gradientUnits="userSpaceOnUse"
       y2="0"
       x2="1"
       y1="0"
       x1="0"><stop
         id="stop5561"
         offset="0"
         style="stop-opacity:1;stop-color:#dfe7ff" /><stop
         id="stop5563"
         offset="1"
         style="stop-opacity:1;stop-color:#bfe3ff" /></linearGradient><clipPath
       id="clipPath5575"
       clipPathUnits="userSpaceOnUse"><path
         id="path5573"
         d="M 190,933 C 134.771,933 90,888.229 90,833 v 0 -643 C 90,134.771 134.771,90 190,90 v 0 h 643 c 55.229,0 100,44.771 100,100 v 0 643 c 0,55.229 -44.771,100 -100,100 v 0 z" /></clipPath></defs><g
     transform="matrix(1.3333333,0,0,-1.3333333,0,1365.3333)"
     id="g5547"><g
       id="g5549"><g
         clip-path="url(#clipPath5555)"
         id="g5551"><g
           id="g5557"><g
             id="g5559"><path
               id="path5567"
               style="fill:url(#linearGradient5565);stroke:none"
               d="M 191,933 C 135.771,933 91,888.229 91,833 v 0 -643 C 91,134.771 135.771,90 191,90 v 0 h 643 c 55.229,0 100,44.771 100,100 v 0 643 c 0,55.229 -44.771,100 -100,100 v 0 z" /></g></g></g></g><g
       id="g5569"><g
         clip-path="url(#clipPath5575)"
         id="g5571"><g
           transform="translate(878.5469,965.2236)"
           id="g5577"><path
             id="path5579"
             style="fill:#103954;fill-opacity:1;fill-rule:nonzero;stroke:none"
             d="m 0,0 c 32.417,-32.523 64.835,-65.046 97.252,-97.569 25.851,-25.935 51.702,-51.87 77.553,-77.806 18.847,-18.909 50.441,-18.855 69.297,0 18.9,18.901 18.846,50.388 0,69.297 -32.418,32.523 -64.835,65.046 -97.252,97.569 C 120.999,17.426 95.147,43.361 69.297,69.297 50.449,88.206 18.855,88.152 0,69.297 -18.901,50.396 -18.847,18.909 0,0" /></g><g
           transform="translate(1053.3516,859.1455)"
           id="g5581"><path
             id="path5583"
             style="fill:#103954;fill-opacity:1;fill-rule:nonzero;stroke:none"
             d="m 0,0 c -32.522,-32.417 -65.046,-64.834 -97.568,-97.252 -25.936,-25.851 -51.871,-51.702 -77.807,-77.553 -18.909,-18.847 -18.854,-50.441 0,-69.297 18.901,-18.9 50.389,-18.846 69.297,0 32.522,32.418 65.046,64.835 97.568,97.252 25.936,25.851 51.871,51.703 77.807,77.553 18.909,18.848 18.854,50.442 0,69.297 C 50.396,18.901 18.908,18.847 0,0" /></g><g
           transform="translate(1040.8018,873.5737)"
           id="g5585"><path
             id="path5587"
             style="fill:#103954;fill-opacity:1;fill-rule:nonzero;stroke:none"
             d="m 0,0 c -31.166,0.051 -62.332,0.102 -93.497,0.152 -63.639,0.104 -127.276,0.208 -190.914,0.311 -51.321,0.084 -102.643,0.168 -153.963,0.251 l -21.428,0.036 c -26.711,0.043 -49,-22.323 -49,-49 0,-26.744 22.29,-48.957 49,-49 31.166,-0.051 62.332,-0.102 93.497,-0.153 63.639,-0.104 127.277,-0.207 190.914,-0.311 51.322,-0.084 102.643,-0.167 153.963,-0.251 L 0,-98 c 26.711,-0.043 49,22.322 49,49 0,26.744 -22.29,48.957 -49,49" /></g><g
           transform="translate(411.9775,865.1338)"
           id="g5589"><path
             id="path5591"
             style="fill:#56a3d8;fill-opacity:1;fill-rule:nonzero;stroke:none"
             d="M 0,0 C 28.077,-28.077 56.154,-56.154 84.23,-84.231 L 210.26,-210.26 c 6.58,-6.58 13.16,-13.16 19.74,-19.74 25.62,-25.621 68.425,-25.621 94.045,0 25.62,25.62 25.62,68.425 0,94.045 -28.077,28.077 -56.153,56.154 -84.231,84.231 L 113.785,74.305 c -6.58,6.58 -13.16,13.16 -19.74,19.74 C 68.425,119.666 25.62,119.666 0,94.045 -25.621,68.425 -25.621,25.62 0,0" /></g><g
           transform="translate(641.9775,729.1787)"
           id="g5593"><path
             id="path5595"
             style="fill:#56a3d8;fill-opacity:1;fill-rule:nonzero;stroke:none"
             d="m 0,0 c -28.077,-28.077 -56.154,-56.154 -84.23,-84.23 -42.01,-42.01 -84.02,-84.02 -126.03,-126.03 -6.58,-6.58 -13.16,-13.16 -19.74,-19.74 -25.621,-25.62 -25.621,-68.425 0,-94.045 25.62,-25.62 68.425,-25.62 94.045,0 28.077,28.077 56.154,56.153 84.23,84.231 l 126.03,126.029 19.74,19.74 c 25.62,25.62 25.62,68.425 0,94.045 C 68.425,25.621 25.62,25.621 0,0" /></g><g
           transform="translate(627,748.6562)"
           id="g5597"><path
             id="path5599"
             style="fill:#56a3d8;fill-opacity:1;fill-rule:nonzero;stroke:none"
             d="M 0,0 H -75.306 -249.242 -443.84 -581.131 -604 c -36.25,0 -66.5,-30.25 -66.5,-66.5 0,-36.25 30.25,-66.5 66.5,-66.5 h 75.305 173.937 H -160.16 -22.869 0 c 36.25,0 66.5,30.25 66.5,66.5 C 66.5,-30.25 36.25,0 0,0" /></g><g
           transform="translate(278.9175,522.1235)"
           id="g5601"><path
             id="path5603"
             style="fill:#abdaef;fill-opacity:1;fill-rule:nonzero;stroke:none"
             d="m 0,0 c 34.753,-34.867 69.507,-69.734 104.26,-104.6 l 7.648,-7.673 c 13.463,-13.506 36.029,-13.468 49.497,0 13.501,13.501 13.463,35.992 0,49.498 -34.753,34.866 -69.507,69.733 -104.26,104.6 -2.549,2.557 -5.099,5.115 -7.648,7.672 C 36.035,63.004 13.468,62.965 0,49.497 -13.501,35.997 -13.462,13.506 0,0" /></g><g
           transform="translate(390.8257,459.3486)"
           id="g5605"><path
             id="path5607"
             style="fill:#abdaef;fill-opacity:1;fill-rule:nonzero;stroke:none"
             d="m 0,0 c -34.867,-34.754 -69.733,-69.507 -104.6,-104.26 -2.558,-2.55 -5.115,-5.098 -7.672,-7.647 -13.507,-13.463 -13.469,-36.03 0,-49.498 13.5,-13.5 35.991,-13.462 49.497,0 34.866,34.754 69.733,69.507 104.6,104.259 2.557,2.55 5.115,5.099 7.672,7.648 13.507,13.463 13.468,36.03 0,49.498 C 35.997,13.501 13.506,13.462 0,0" /></g><g
           transform="translate(385.3584,469.6494)"
           id="g5609"><path
             id="path5611"
             style="fill:#abdaef;fill-opacity:1;fill-rule:nonzero;stroke:none"
             d="m 0,0 c -42.088,0.068 -84.176,0.137 -126.264,0.206 -53.542,0.087 -107.084,0.174 -160.626,0.262 -2.489,0.004 -4.979,0.008 -7.468,0.011 -19.08,0.032 -35,-15.944 -35,-35 0,-19.102 15.921,-34.968 35,-35 42.087,-0.068 84.176,-0.136 126.264,-0.206 53.542,-0.086 107.084,-0.173 160.626,-0.261 2.489,-0.004 4.979,-0.008 7.468,-0.012 19.08,-0.031 35,15.944 35,35 0,19.103 -15.921,34.969 -35,35" /></g><g
           transform="translate(607.665,504.7031)"
           id="g5613"><path
             id="path5615"
             style="fill:#1767aa;fill-opacity:1;fill-rule:nonzero;stroke:none"
             d="M 0,0 C 21.383,-21.383 42.766,-42.765 64.148,-64.147 L 197.977,-197.976 313.561,-313.56 c 8.011,-8.011 16.023,-16.023 24.034,-24.035 37.757,-37.756 100.837,-37.756 138.593,0 37.756,37.757 37.756,100.837 0,138.594 -21.382,21.382 -42.765,42.765 -64.148,64.147 L 278.212,-1.025 c -38.528,38.528 -77.057,77.056 -115.584,115.584 -8.012,8.011 -16.024,16.023 -24.034,24.034 C 100.837,176.35 37.757,176.35 0,138.593 -37.756,100.837 -37.756,37.757 0,0" /></g><g
           transform="translate(945.2598,305.7021)"
           id="g5617"><path
             id="path5619"
             style="fill:#1767aa;fill-opacity:1;fill-rule:nonzero;stroke:none"
             d="M 0,0 C -21.383,-21.383 -42.765,-42.766 -64.147,-64.148 L -197.976,-197.977 -313.56,-313.561 c -8.011,-8.011 -16.023,-16.023 -24.035,-24.034 -37.756,-37.757 -37.756,-100.837 0,-138.593 37.757,-37.756 100.837,-37.756 138.594,0 21.382,21.382 42.765,42.765 64.147,64.148 l 133.829,133.828 115.584,115.584 c 8.011,8.012 16.023,16.024 24.035,24.034 37.756,37.757 37.756,100.837 0,138.594 C 100.837,37.756 37.757,37.756 0,0" /></g><g
           transform="translate(923.5518,334.4053)"
           id="g5621"><path
             id="path5623"
             style="fill:#1767aa;fill-opacity:1;fill-rule:nonzero;stroke:none"
             d="m 0,0 h -54.113 -138.223 -186.155 -197.913 -173.494 -112.899 -23.755 c -53.422,0 -98,-44.578 -98,-98 0,-53.422 44.578,-98 98,-98 h 54.114 138.222 186.155 197.914 173.494 H -23.755 0 c 53.422,0 98,44.578 98,98 C 98,-44.578 53.422,0 0,0" /></g><g
           transform="translate(186.1855,931.2515)"
           id="g5625"><path
             id="path5627"
             style="fill:#a2cae0;fill-opacity:1;fill-rule:nonzero;stroke:none"
             d="m 0,0 c 26.188,-26.189 52.377,-52.378 78.566,-78.566 13.484,-13.485 36.013,-13.485 49.497,0 13.484,13.484 13.484,36.012 0,49.497 C 101.875,-2.88 75.686,23.309 49.497,49.497 36.013,62.981 13.484,62.981 0,49.497 -13.484,36.013 -13.484,13.484 0,0" /></g><g
           transform="translate(264.7515,902.1821)"
           id="g5629"><path
             id="path5631"
             style="fill:#a2cae0;fill-opacity:1;fill-rule:nonzero;stroke:none"
             d="m 0,0 c -26.189,-26.188 -52.377,-52.377 -78.566,-78.565 -13.484,-13.484 -13.484,-36.014 0,-49.497 13.484,-13.485 36.013,-13.485 49.497,0 26.189,26.188 52.378,52.376 78.566,78.565 13.484,13.484 13.484,36.013 0,49.497 C 36.013,13.484 13.484,13.484 0,0" /></g><g
           transform="translate(268.3213,912.4336)"
           id="g5633"><path
             id="path5635"
             style="fill:#a2cae0;fill-opacity:1;fill-rule:nonzero;stroke:none"
             d="m 0,0 h -146.823 -59.498 c -19.079,0 -35,-15.921 -35,-35 0,-19.079 15.921,-35 35,-35 H -59.498 0 c 19.079,0 35,15.921 35,35 C 35,-15.921 19.079,0 0,0" /></g></g></g></g></svg>