<?xml version="1.0" encoding="UTF-8"?>
<svg width="1024px" height="1024px" viewBox="0 0 1024 1024" version="1.1" xmlns="http://www.w3.org/2000/svg" xmlns:xlink="http://www.w3.org/1999/xlink">
    <!-- Generator: Sketch 45.2 (43514) - http://www.bohemiancoding.com/sketch -->
    <title>IINA</title>
    <desc>Created with Sketch.</desc>
    <defs></defs>
    <g id="Page-1" stroke="none" stroke-width="1" fill="none" fill-rule="evenodd">
        <g id="IINA">
            <rect id="Outer" fill="#191B1C" fill-rule="nonzero" x="92" y="92" width="840" height="840" rx="100"></rect>
            <g id="Icon" transform="translate(219.000000, 325.000000)">
                <path d="M566.403811,216.017585 L216.605982,370.375126 C200.334755,377.555235 181.254764,370.339802 173.989628,354.259005 C172.141433,350.168175 171.186208,345.73836 171.186208,341.258268 L171.186208,32.5431842 C171.186208,14.9322218 185.631777,0.655715952 203.451289,0.655715952 C207.984436,0.655715952 212.466708,1.59976128 216.605982,3.4263255 L566.403811,157.783867 C582.675038,164.963976 589.975917,183.820666 582.71078,199.901463 C579.469644,207.075459 573.662762,212.814381 566.403811,216.017585 Z" id="Triangle" fill="#3BC4FF"></path>
                <path d="M113.106131,1.18724932 L113.106131,1.18724932 L113.106131,1.18724932 C128.591223,1.18724932 141.144371,13.740397 141.144371,29.2254895 L141.144371,345.646957 L141.144371,345.646957 C141.144371,361.132049 128.591223,373.685197 113.106131,373.685197 L113.106131,373.685197 L113.106131,373.685197 C97.6210385,373.685197 85.0678908,361.132049 85.0678908,345.646957 L85.0678908,29.2254895 L85.0678908,29.2254895 C85.0678908,13.740397 97.6210385,1.18724932 113.106131,1.18724932 Z" id="Rectangle" fill="#3085DB"></path>
                <path d="M28.5604615,1.18724932 L28.5604615,1.18724932 L28.5604615,1.18724932 C44.0455539,1.18724932 56.5987016,13.740397 56.5987016,29.2254895 L56.5987016,345.646957 L56.5987016,345.646957 C56.5987016,361.132049 44.0455539,373.685197 28.5604615,373.685197 L28.5604615,373.685197 L28.5604615,373.685197 C13.075369,373.685197 0.522221326,361.132049 0.522221326,345.646957 L0.522221326,29.2254895 L0.522221326,29.2254895 C0.522221326,13.740397 13.075369,1.18724932 28.5604615,1.18724932 Z" id="Rectangle" fill="#3085DB"></path>
            </g>
        </g>
    </g>
</svg>