<?xml version="1.0" encoding="UTF-8" standalone="no"?>
<svg
   xmlns:dc="http://purl.org/dc/elements/1.1/"
   xmlns:cc="http://creativecommons.org/ns#"
   xmlns:rdf="http://www.w3.org/1999/02/22-rdf-syntax-ns#"
   xmlns:svg="http://www.w3.org/2000/svg"
   xmlns="http://www.w3.org/2000/svg"
   viewBox="0 0 1365.3333 1365.3333"
   height="1365.3333"
   width="1365.3333"
   xml:space="preserve"
   id="svg2"
   version="1.1"><metadata
     id="metadata8"><rdf:RDF><cc:Work
         rdf:about=""><dc:format>image/svg+xml</dc:format><dc:type
           rdf:resource="http://purl.org/dc/dcmitype/StillImage" /><dc:title></dc:title></cc:Work></rdf:RDF></metadata><defs
     id="defs6"><clipPath
       id="clipPath18"
       clipPathUnits="userSpaceOnUse"><path
         id="path16"
         d="M 0,1024 H 1024 V 0 H 0 Z" /></clipPath></defs><g
     transform="matrix(1.3333333,0,0,-1.3333333,0,1365.3333)"
     id="g10"><g
       id="g12"><g
         clip-path="url(#clipPath18)"
         id="g14"><g
           transform="translate(933,190)"
           id="g20"><path
             id="path22"
             style="fill:#3a3a3b;fill-opacity:1;fill-rule:nonzero;stroke:none"
             d="m 0,0 c 0,-55.229 -44.771,-100 -100,-100 h -643 c -55.229,0 -100,44.771 -100,100 v 643 c 0,55.229 44.771,100 100,100 h 643 C -44.771,743 0,698.229 0,643 Z" /></g><g
           transform="translate(201,581)"
           id="g24"><path
             id="path26"
             style="fill:#f2d06c;fill-opacity:1;fill-rule:nonzero;stroke:none"
             d="M 0,0 H 236 L 310.5,225 385,0 H 621 L 427.5,-139.75 502,-363.625 310.5,-225.563 117,-363.531 l 74,223.265 z" /></g><g
           transform="translate(254,565)"
           id="g28"><path
             id="path30"
             style="fill:#3a3a3b;fill-opacity:1;fill-rule:nonzero;stroke:none"
             d="M 0,0 H 196 L 258,188 319.5,0 H 515 l -159,-115.25 60.5,-185.375 -159,113.562 -160,-113.468 62,185.265 z" /></g><g
           transform="translate(598.5,479.5)"
           id="g32"><path
             id="path34"
             style="fill:#f2d06c;fill-opacity:1;fill-rule:nonzero;stroke:none"
             d="m 0,0 c 0,-48.325 -39.175,-87.5 -87.5,-87.5 -48.325,0 -87.5,39.175 -87.5,87.5 0,48.325 39.175,87.5 87.5,87.5 C -39.175,87.5 0,48.325 0,0" /></g><g
           transform="translate(450,498)"
           id="g36"><path
             id="path38"
             style="fill:#3a3a3b;fill-opacity:1;fill-rule:nonzero;stroke:none"
             d="m 0,0 v -41 l 16.917,11.5 13.458,-0.333 c 0,0 -0.271,-12.334 0.063,-16.834 0.333,-4.5 3.698,-6.166 7.364,-6.166 3.667,0 60.183,-0.333 65.349,0 5.166,0.333 7.007,2.249 7.174,5.916 0.167,3.667 0.008,38.917 0.008,38.917 H 115 l 8.667,-7 H 125 V 9 h -2 l -5,-5.917 c 0,0 -5.334,-0.374 -7.667,-0.374 0.167,3.166 -0.334,8.291 -8,8.291 H 38 c -7,0 -7.5,-3.917 -7.5,-5.917 0,-2 0.167,-15.708 0.167,-15.708 L 16.75,-10.729 Z" /></g></g></g></g></svg>