<?xml version="1.0" encoding="UTF-8" standalone="no"?>
<svg
   xmlns:dc="http://purl.org/dc/elements/1.1/"
   xmlns:cc="http://creativecommons.org/ns#"
   xmlns:rdf="http://www.w3.org/1999/02/22-rdf-syntax-ns#"
   xmlns:svg="http://www.w3.org/2000/svg"
   xmlns="http://www.w3.org/2000/svg"
   viewBox="0 0 1365.3333 1365.3333"
   height="1365.3333"
   width="1365.3333"
   xml:space="preserve"
   id="svg4515"
   version="1.1"><metadata
     id="metadata4521"><rdf:RDF><cc:Work
         rdf:about=""><dc:format>image/svg+xml</dc:format><dc:type
           rdf:resource="http://purl.org/dc/dcmitype/StillImage" /><dc:title></dc:title></cc:Work></rdf:RDF></metadata><defs
     id="defs4519"><clipPath
       id="clipPath4531"
       clipPathUnits="userSpaceOnUse"><path
         id="path4529"
         d="M 0,1024 H 1024 V 0 H 0 Z" /></clipPath><clipPath
       id="clipPath4543"
       clipPathUnits="userSpaceOnUse"><path
         id="path4541"
         d="M 219.4,804.932 H 806.577 V 226.901 H 219.4 Z" /></clipPath><clipPath
       id="clipPath4547"
       clipPathUnits="userSpaceOnUse"><path
         id="path4545"
         d="M 219.4,804.932 H 806.577 V 226.901 H 219.4 Z" /></clipPath></defs><g
     transform="matrix(1.3333333,0,0,-1.3333333,0,1365.3333)"
     id="g4523"><g
       id="g4525"><g
         clip-path="url(#clipPath4531)"
         id="g4527"><g
           transform="translate(933,190)"
           id="g4533"><path
             id="path4535"
             style="fill:#ffffff;fill-opacity:1;fill-rule:nonzero;stroke:none"
             d="m 0,0 c 0,-55.229 -44.772,-100 -100,-100 h -643 c -55.229,0 -100,44.771 -100,100 v 643 c 0,55.229 44.771,100 100,100 h 643 C -44.772,743 0,698.229 0,643 Z" /></g><g
           id="g4537"><g
             id="g4539" /><g
             id="g4567"><g
               id="g4565"
               clip-path="url(#clipPath4543)"><g
                 id="g4559"><g
                   id="g4549" /><g
                   id="g4557"><g
                     style="opacity:0.78324902"
                     id="g4555"
                     clip-path="url(#clipPath4547)"><g
                       id="g4553"
                       transform="translate(698.5428,336.0884)"><path
                         id="path4551"
                         style="fill:#000000;fill-opacity:1;fill-rule:nonzero;stroke:none"
                         d="M 0,0 C -24.11,-22.014 4.193,-45.076 27.779,-29.876 34.069,-25.683 27.255,-5.241 0,0 m -353.795,-35.117 c 19.393,-16.773 48.745,3.669 58.18,27.255 -18.869,24.634 -88.58,-1.573 -58.18,-27.255 M 10.483,23.062 C 10.483,12.055 95.918,5.766 91.2,25.683 84.387,59.228 19.917,56.607 10.483,23.062 M -237.436,449.188 -453.381,228.001 c -81.766,-81.766 52.938,-74.952 101.683,-105.876 22.538,-14.676 -72.332,-33.545 -52.938,-52.938 18.869,-19.394 113.738,-37.214 132.607,-56.083 18.869,-19.394 -38.262,-39.835 -19.393,-59.228 18.345,-19.393 62.373,-1.049 70.235,-45.076 5.765,-32.497 80.717,-16.249 114.262,11.531 20.966,17.82 -36.165,17.82 -17.296,37.214 47.172,47.696 89.103,21.489 106.4,65.517 9.435,23.587 -71.283,40.359 -49.793,55.559 51.366,36.166 240.056,54.511 153.049,141.518 l -223.808,229.049 c -27.78,26.207 -73.38,26.207 -99.063,0 z" /></g></g></g></g><g
                 id="g4563"
                 transform="translate(547.0662,774.6713)"><path
                   id="path4561"
                   style="fill:#ffffff;fill-opacity:1;fill-rule:nonzero;stroke:none"
                   d="m 0,0 85.435,-87.007 c 7.862,-7.862 7.862,-24.111 3.145,-28.828 l -42.456,34.593 -8.386,-50.841 -35.117,18.869 -57.132,-36.166 -18.869,76 -30.4,-66.041 -76,0.524 c -14.676,0 -12.579,15.2 2.621,30.4 29.876,33.021 88.055,89.104 106.4,108.497 C -51.89,19.393 -18.869,18.869 0,0" /></g></g></g></g></g></g></g></svg>