<?xml version="1.0" encoding="UTF-8" standalone="no"?>
<svg
   xmlns:dc="http://purl.org/dc/elements/1.1/"
   xmlns:cc="http://creativecommons.org/ns#"
   xmlns:rdf="http://www.w3.org/1999/02/22-rdf-syntax-ns#"
   xmlns:svg="http://www.w3.org/2000/svg"
   xmlns="http://www.w3.org/2000/svg"
   viewBox="0 0 1365.3333 1365.3333"
   height="1365.3333"
   width="1365.3333"
   xml:space="preserve"
   id="svg4569"
   version="1.1"><metadata
     id="metadata4575"><rdf:RDF><cc:Work
         rdf:about=""><dc:format>image/svg+xml</dc:format><dc:type
           rdf:resource="http://purl.org/dc/dcmitype/StillImage" /><dc:title></dc:title></cc:Work></rdf:RDF></metadata><defs
     id="defs4573"><clipPath
       id="clipPath4585"
       clipPathUnits="userSpaceOnUse"><path
         id="path4583"
         d="M 0,1024 H 1024 V 0 H 0 Z" /></clipPath></defs><g
     transform="matrix(1.3333333,0,0,-1.3333333,0,1365.3333)"
     id="g4577"><g
       id="g4579"><g
         clip-path="url(#clipPath4585)"
         id="g4581"><g
           transform="translate(933,190)"
           id="g4587"><path
             id="path4589"
             style="fill:#5c70b6;fill-opacity:1;fill-rule:nonzero;stroke:none"
             d="m 0,0 c 0,-55.229 -44.772,-100 -100,-100 h -643 c -55.229,0 -100,44.771 -100,100 v 643 c 0,55.229 44.771,100 100,100 h 643 C -44.772,743 0,698.229 0,643 Z" /></g><g
           transform="translate(449.024,647.8209)"
           id="g4591"><path
             id="path4593"
             style="fill:#ffffff;fill-opacity:1;fill-rule:nonzero;stroke:none"
             d="m 0,0 c 0,-1.46 0,-2.492 0,-3.525 0,-48.005 0.044,-96.011 -0.064,-144.016 -0.012,-5.175 -0.316,-10.49 -1.52,-15.492 -2.375,-9.871 -4.894,-19.783 -8.404,-29.29 -6.077,-16.461 -15.78,-30.854 -27.648,-43.733 -8.898,-9.655 -19.056,-17.845 -30.275,-24.673 -11.221,-6.83 -23.093,-12.277 -35.896,-15.326 -8.346,-1.987 -16.801,-3.648 -25.295,-4.83 -5.837,-0.813 -11.822,-0.612 -17.743,-0.754 -5.169,-0.123 -10.41,0.425 -15.498,-0.243 -9.15,-1.202 -17.718,-4.44 -25.828,-8.922 -13.131,-7.256 -22.965,-17.753 -29.485,-31.076 -6.098,-12.46 -8.884,-25.668 -7.282,-39.775 0.986,-8.687 3.189,-16.903 6.851,-24.702 4.778,-10.177 11.809,-18.643 20.632,-25.684 12.167,-9.709 26.09,-15.181 41.469,-15.619 13.934,-0.396 27.933,0.434 41.864,1.332 9.279,0.598 18.589,1.764 27.711,3.563 16.279,3.21 32.169,7.886 47.732,13.774 19.293,7.299 37.719,16.291 54.707,27.915 11.367,7.777 22.484,16.081 32.806,25.178 10.854,9.565 21.263,19.811 30.689,30.771 8.72,10.139 16.221,21.392 23.656,32.557 11.229,16.864 19.898,35.099 26.756,54.147 6.565,18.235 11.909,36.826 14.075,56.165 1.349,12.039 3.333,24.114 3.368,36.177 0.276,96.362 0.154,192.724 0.154,289.087 v 3.823 h -5.086 c -98.47,0 -196.94,0.066 -295.41,-0.14 -6.908,-0.014 -14.028,-1.3 -20.677,-3.258 -17.719,-5.219 -31.401,-16.055 -41.096,-31.832 -9.437,-15.357 -12.841,-32.133 -9.877,-49.738 2.986,-17.736 11.419,-32.733 25.496,-44.438 C -185.257,5.897 -169.183,0.25 -151.509,0.122 -102.569,-0.231 -53.625,0 -4.683,0 Z" /></g><g
           transform="translate(652.0559,512.35)"
           id="g4595"><path
             id="path4597"
             style="fill:#ffffff;fill-opacity:1;fill-rule:nonzero;stroke:none"
             d="m 0,0 c 0,-64.504 -0.083,-129.009 0.095,-193.513 0.025,-8.992 0.739,-18.077 2.185,-26.948 2.065,-12.66 5.746,-24.87 12.124,-36.245 8.439,-15.05 20.434,-25.692 36.817,-30.972 12.164,-3.921 24.648,-4.359 37.275,-1.928 19.685,3.791 34.12,14.796 44.022,31.878 10.968,18.923 14.839,39.879 14.883,61.305 0.265,127.721 0.179,255.442 0.04,383.163 -0.011,10.279 -0.962,20.595 -2.09,30.826 -1.638,14.853 -6.158,28.895 -14.049,41.66 -5.981,9.677 -13.796,17.644 -23.913,23.073 -14.743,7.911 -30.37,9.899 -46.812,7.076 C 39.679,285.786 24.592,274.117 14.338,256.072 4.036,237.942 0.281,217.846 0.153,197.376 -0.258,131.586 0,65.792 0,0" /></g><g
           transform="translate(391.4164,507.9092)"
           id="g4599"><path
             id="path4601"
             style="fill:#f58a1f;fill-opacity:1;fill-rule:nonzero;stroke:none"
             d="m 0,0 c 0.353,46.717 -37.428,81.829 -79.28,83.672 -51.592,2.272 -87.402,-38.139 -88.538,-80.721 -1.338,-50.177 37.719,-86.378 82.91,-87.005 C -37.916,-84.705 0.618,-46.6 0,0" /></g></g></g></g></svg>