<?xml version="1.0" encoding="UTF-8" standalone="no"?>
<svg
   xmlns:dc="http://purl.org/dc/elements/1.1/"
   xmlns:cc="http://creativecommons.org/ns#"
   xmlns:rdf="http://www.w3.org/1999/02/22-rdf-syntax-ns#"
   xmlns:svg="http://www.w3.org/2000/svg"
   xmlns="http://www.w3.org/2000/svg"
   viewBox="0 0 1365.3333 1365.3333"
   height="1365.3333"
   width="1365.3333"
   xml:space="preserve"
   id="svg4603"
   version="1.1"><metadata
     id="metadata4609"><rdf:RDF><cc:Work
         rdf:about=""><dc:format>image/svg+xml</dc:format><dc:type
           rdf:resource="http://purl.org/dc/dcmitype/StillImage" /><dc:title></dc:title></cc:Work></rdf:RDF></metadata><defs
     id="defs4607"><clipPath
       id="clipPath4619"
       clipPathUnits="userSpaceOnUse"><path
         id="path4617"
         d="M 0,1024 H 1024 V 0 H 0 Z" /></clipPath></defs><g
     transform="matrix(1.3333333,0,0,-1.3333333,0,1365.3333)"
     id="g4611"><g
       id="g4613"><g
         clip-path="url(#clipPath4619)"
         id="g4615"><g
           transform="translate(933,190)"
           id="g4621"><path
             id="path4623"
             style="fill:#b3d678;fill-opacity:1;fill-rule:nonzero;stroke:none"
             d="m 0,0 c 0,-55.229 -44.771,-100 -100,-100 h -643 c -55.229,0 -100,44.771 -100,100 v 643 c 0,55.229 44.771,100 100,100 h 643 C -44.771,743 0,698.229 0,643 Z" /></g><g
           transform="translate(749.6025,596.4473)"
           id="g4625"><path
             id="path4627"
             style="fill:#353535;fill-opacity:1;fill-rule:nonzero;stroke:none"
             d="m 0,0 c -10.883,0 -19.789,8.904 -19.789,19.93 0,11.025 8.906,19.93 19.789,19.93 10.884,0 19.788,-8.905 19.788,-19.93 C 19.788,8.904 10.884,0 0,0 m -237.603,-233.222 c -71.945,0 -130.603,58.8 -130.603,130.887 0,72.229 58.658,130.887 130.603,130.887 72.087,0 130.605,-58.658 130.605,-130.887 0,-72.087 -58.518,-130.887 -130.605,-130.887 M 8.905,75.62 h -95.408 l -57.104,57.669 c 0,0 -0.284,0.283 -0.424,0.283 l -0.283,0.283 c -8.481,8.481 -19.929,13.852 -32.933,13.852 h -118.731 c -13.853,0 -26.149,-5.937 -34.772,-15.407 v -0.141 L -386.581,75.62 h -97.529 c -26.29,0 -47.493,-20.637 -47.493,-46.927 v -285.66 c 0,-26.292 21.203,-47.635 47.493,-47.635 H 8.905 c 26.15,0 47.492,21.343 47.492,47.635 v 285.66 c 0,26.29 -21.342,46.927 -47.492,46.927" /></g><g
           transform="translate(512,593.0547)"
           id="g4629"><path
             id="path4631"
             style="fill:#353535;fill-opacity:1;fill-rule:nonzero;stroke:none"
             d="m 0,0 c -54.56,0 -98.659,-44.242 -98.659,-98.942 0,-54.56 44.099,-98.943 98.659,-98.943 54.418,0 98.659,44.242 98.659,98.943 C 98.659,-44.242 54.418,0 0,0" /></g></g></g></g></svg>