<?xml version="1.0" encoding="UTF-8"?>
<svg width="1024px" height="1024px" viewBox="0 0 1024 1024" version="1.1" xmlns="http://www.w3.org/2000/svg" xmlns:xlink="http://www.w3.org/1999/xlink">
    <!-- Generator: Sketch 46.2 (44496) - http://www.bohemiancoding.com/sketch -->
    <title>iTerm</title>
    <desc>Created with Sketch.</desc>
    <defs></defs>
    <g id="Page-1" stroke="none" stroke-width="1" fill="none" fill-rule="evenodd">
        <g id="iTerm">
            <path d="M192,92 L832,92 C887.228475,92 932,136.771525 932,192 L932,832 C932,887.228475 887.228475,932 832,932 L192,932 C136.771525,932 92,887.228475 92,832 L92,192 C92,136.771525 136.771525,92 192,92 Z" id="Outer" fill="#252529" fill-rule="nonzero"></path>
            <path d="M925.324091,156 C910.871741,118.559519 874.537524,92 832,92 L192,92 C149.462476,92 113.128259,118.559519 98.6759085,156 L925.324099,156 L925.324091,156 Z" id="Top" fill="#C8C8C8" fill-rule="nonzero"></path>
            <path d="M98.6759085,868 L925.324091,868 C910.871741,905.440481 874.537524,932 832,932 L192,932 C149.462476,932 113.128259,905.440481 98.6759085,868 Z" id="Bottom" fill="#9F9F9F"></path>
            <path d="M98.6759085,868 L294,868 L294,932 L192,932 C149.462476,932 113.128259,905.440481 98.6759085,868 Z" id="Bottom-corner" fill="#C8C8C8"></path>
            <g id="Text" transform="translate(359.000000, 350.500000) scale(1, -1) translate(-359.000000, -350.500000) translate(218.000000, 220.000000)" fill-rule="nonzero" fill="#52D73D">
                <path d="M89.8450078,30.2288535 L89.8450078,15.4079746 C89.8450078,6.97305273 83.0177812,0.144830078 74.5818633,0.144830078 C66.1598906,0.144830078 59.3197148,6.97305273 59.3197148,15.4079746 L59.3197148,30.2348301 C32.610457,34.0508652 11.7462773,48.306959 2.39096484,63.4167051 C0.992449219,65.6559238 0.152742188,68.4469785 0.152742188,71.2629355 C0.152742188,79.6729551 6.87537891,86.3965879 15.0035039,86.3965879 C21.1693242,86.3965879 24.5371172,83.040748 27.3470977,80.224791 C39.112957,68.4469785 53.9706914,58.932291 73.3128398,58.932291 C98.8198125,58.932291 111.156434,67.3303574 111.156434,84.7151816 C111.156434,125.644674 8.83867969,106.855357 8.83867969,174.426373 C8.83867969,199.068736 24.5799492,220.35526 59.3137383,224.821744 L59.3137383,238.514049 C59.3137383,246.948971 66.1469414,253.776197 74.5818633,253.776197 C83.004832,253.776197 89.8450078,246.942994 89.8450078,238.514049 L89.8450078,224.361549 C110.677312,221.159107 128.014324,212.092662 136.945301,199.36358 C138.626707,196.835494 139.755281,193.756568 139.755281,190.394752 C139.755281,182.272604 133.019695,175.542994 124.615652,175.542994 C120.689051,175.542994 116.763445,177.782213 112.554949,181.701842 C103.868016,190.112857 89.2871953,196.559576 73.3128398,196.559576 C50.0500664,196.559576 41.3581523,185.628443 41.3581523,174.420396 C41.3581523,137.693424 143.67491,154.790377 143.67491,84.7092051 C143.67491,54.8712168 125.290008,34.8357871 89.8450078,30.2288535" id="path4681"></path>
                <polygon id="path4683" points="281.050781 260.497539 180.445312 260.497539 180.445312 4.50144531 281.050781 4.50144531"></polygon>
            </g>
        </g>
    </g>
</svg>