<?xml version="1.0" encoding="UTF-8" standalone="no"?>
<svg
   xmlns:dc="http://purl.org/dc/elements/1.1/"
   xmlns:cc="http://creativecommons.org/ns#"
   xmlns:rdf="http://www.w3.org/1999/02/22-rdf-syntax-ns#"
   xmlns:svg="http://www.w3.org/2000/svg"
   xmlns="http://www.w3.org/2000/svg"
   viewBox="0 0 1365.3333 1365.3333"
   height="1365.3333"
   width="1365.3333"
   xml:space="preserve"
   id="svg4633"
   version="1.1"><metadata
     id="metadata4639"><rdf:RDF><cc:Work
         rdf:about=""><dc:format>image/svg+xml</dc:format><dc:type
           rdf:resource="http://purl.org/dc/dcmitype/StillImage" /><dc:title></dc:title></cc:Work></rdf:RDF></metadata><defs
     id="defs4637"><clipPath
       id="clipPath4649"
       clipPathUnits="userSpaceOnUse"><path
         id="path4647"
         d="M 0,1024 H 1024 V 0 H 0 Z" /></clipPath></defs><g
     transform="matrix(1.3333333,0,0,-1.3333333,0,1365.3333)"
     id="g4641"><g
       id="g4643"><g
         clip-path="url(#clipPath4649)"
         id="g4645"><g
           transform="translate(933,190)"
           id="g4651"><path
             id="path4653"
             style="fill:#252529;fill-opacity:1;fill-rule:nonzero;stroke:none"
             d="m 0,0 v 643 c 0,55.229 -44.772,100 -100,100 h -643 c -55.229,0 -100,-44.771 -100,-100 V 0 c 0,-12.314 2.231,-24.105 6.302,-35 H -6.303 C -2.231,-24.105 0,-12.314 0,0" /></g><path
           id="path4655"
           style="fill:#9f9f9f;fill-opacity:1;fill-rule:nonzero;stroke:none"
           d="m 301,90 h 169 v 65 H 301 Z" /><path
           id="path4657"
           style="fill:#9f9f9f;fill-opacity:1;fill-rule:nonzero;stroke:none"
           d="m 470,90 h 174 v 65 H 470 Z" /><g
           transform="translate(926.6973,155)"
           id="g4659"><path
             id="path4661"
             style="fill:#9f9f9f;fill-opacity:1;fill-rule:nonzero;stroke:none"
             d="m 0,0 h -282.697 v -65 h 189 C -50.783,-65 -14.188,-37.965 0,0" /></g><g
           transform="translate(96.3022,155)"
           id="g4663"><path
             id="path4665"
             style="fill:#c8c8c8;fill-opacity:1;fill-rule:nonzero;stroke:none"
             d="m 0,0 c 14.188,-37.965 50.784,-65 93.698,-65 h 111 V 0 Z" /></g><path
           id="path4667"
           style="fill:#cbcbcb;fill-opacity:1;fill-rule:nonzero;stroke:none"
           d="M 722,933 H 513 v -65 h 209 z" /><path
           id="path4669"
           style="fill:#cbcbcb;fill-opacity:1;fill-rule:nonzero;stroke:none"
           d="M 513,933 H 299 v -65 h 214 z" /><g
           transform="translate(96.3022,868)"
           id="g4671"><path
             id="path4673"
             style="fill:#cbcbcb;fill-opacity:1;fill-rule:nonzero;stroke:none"
             d="M 0,0 H 202.698 V 65 H 93.697 C 50.783,65 14.188,38 0,0" /></g><g
           transform="translate(926.6973,868)"
           id="g4675"><path
             id="path4677"
             style="fill:#cbcbcb;fill-opacity:1;fill-rule:nonzero;stroke:none"
             d="M 0,0 C -14.188,37.965 -50.784,65 -93.698,65 H -204.697 V 0 Z" /></g><g
           transform="translate(307.0444,580.5757)"
           id="g4679"><path
             id="path4681"
             style="fill:#52d73d;fill-opacity:1;fill-rule:nonzero;stroke:none"
             d="m 0,0 v -14.879 c 0,-8.468 -6.854,-15.323 -15.323,-15.323 -8.455,0 -15.322,6.855 -15.322,15.323 V 0.006 c -26.814,3.831 -47.76,18.143 -57.152,33.312 -1.404,2.248 -2.247,5.05 -2.247,7.877 0,8.443 6.749,15.193 14.909,15.193 6.19,0 9.571,-3.369 12.392,-6.196 11.812,-11.824 26.728,-21.376 46.146,-21.376 25.607,0 37.992,8.431 37.992,25.884 0,41.09 -102.719,22.227 -102.719,90.063 0,24.739 15.803,46.109 50.673,50.593 v 13.746 c 0,8.468 6.86,15.322 15.328,15.322 8.456,0 15.323,-6.86 15.323,-15.322 v -14.208 c 20.914,-3.215 38.319,-12.317 47.285,-25.096 1.688,-2.538 2.821,-5.629 2.821,-9.004 0,-8.154 -6.762,-14.91 -15.199,-14.91 -3.942,0 -7.883,2.248 -12.108,6.183 -8.721,8.444 -23.359,14.916 -39.396,14.916 -23.354,0 -32.08,-10.974 -32.08,-22.226 0,-36.871 102.718,-19.707 102.718,-90.063 C 54.041,24.739 35.584,4.625 0,0" /></g><path
           id="path4683"
           style="fill:#52d73d;fill-opacity:1;fill-rule:nonzero;stroke:none"
           d="M 499,803 H 398 V 546 h 101 z" /></g></g></g></svg>