<?xml version="1.0" encoding="UTF-8" standalone="no"?>
<svg
   xmlns:dc="http://purl.org/dc/elements/1.1/"
   xmlns:cc="http://creativecommons.org/ns#"
   xmlns:rdf="http://www.w3.org/1999/02/22-rdf-syntax-ns#"
   xmlns:svg="http://www.w3.org/2000/svg"
   xmlns="http://www.w3.org/2000/svg"
   viewBox="0 0 1365.3333 1365.3333"
   height="1365.3333"
   width="1365.3333"
   xml:space="preserve"
   id="svg4685"
   version="1.1"><metadata
     id="metadata4691"><rdf:RDF><cc:Work
         rdf:about=""><dc:format>image/svg+xml</dc:format><dc:type
           rdf:resource="http://purl.org/dc/dcmitype/StillImage" /><dc:title></dc:title></cc:Work></rdf:RDF></metadata><defs
     id="defs4689"><clipPath
       id="clipPath4701"
       clipPathUnits="userSpaceOnUse"><path
         id="path4699"
         d="M 0,1024 H 1024 V 0 H 0 Z" /></clipPath></defs><g
     transform="matrix(1.3333333,0,0,-1.3333333,0,1365.3333)"
     id="g4693"><g
       id="g4695"><g
         clip-path="url(#clipPath4701)"
         id="g4697"><g
           transform="translate(933,190)"
           id="g4703"><path
             id="path4705"
             style="fill:#cc5a5a;fill-opacity:1;fill-rule:nonzero;stroke:none"
             d="m 0,0 c 0,-55.229 -44.771,-100 -100,-100 h -643 c -55.229,0 -100,44.771 -100,100 v 643 c 0,55.229 44.771,100 100,100 h 643 C -44.771,743 0,698.229 0,643 Z" /></g><g
           transform="translate(394.2671,704.5244)"
           id="g4707"><path
             id="path4709"
             style="fill:#ffffff;fill-opacity:1;fill-rule:nonzero;stroke:none"
             d="m 0,0 c 0,0 137.02,53.075 299.045,54.476 0.625,0 1.688,0.078 1.688,-2.023 v -360.786 c 0,0 0.357,-28.95 -20.654,-48.328 -21.014,-19.379 -67.528,-43.659 -113.988,-17.043 -46.461,26.614 -33.998,87.083 7.792,111.83 33.387,19.845 68.918,13.542 75.923,10.974 l -0.211,166.229 c 0,0 -119.835,-9.806 -199.214,-36.266 L 49.763,-365.3 c 0,0 1.17,-33.62 -32.216,-56.499 -33.386,-22.88 -77.743,-22.413 -101.09,-7.237 -23.347,15.175 -58.367,63.736 0,108.328 27.083,21.713 66.306,21.246 82.415,15.409 L -1.594,-2.958 c 0,0 -0.334,2.234 1.594,2.958" /></g></g></g></g></svg>