<?xml version="1.0" encoding="UTF-8" standalone="no"?>
<svg
   xmlns:dc="http://purl.org/dc/elements/1.1/"
   xmlns:cc="http://creativecommons.org/ns#"
   xmlns:rdf="http://www.w3.org/1999/02/22-rdf-syntax-ns#"
   xmlns:svg="http://www.w3.org/2000/svg"
   xmlns="http://www.w3.org/2000/svg"
   viewBox="0 0 1365.3333 1365.3333"
   height="1365.3333"
   width="1365.3333"
   xml:space="preserve"
   id="svg4779"
   version="1.1"><metadata
     id="metadata4785"><rdf:RDF><cc:Work
         rdf:about=""><dc:format>image/svg+xml</dc:format><dc:type
           rdf:resource="http://purl.org/dc/dcmitype/StillImage" /><dc:title></dc:title></cc:Work></rdf:RDF></metadata><defs
     id="defs4783"><clipPath
       id="clipPath4795"
       clipPathUnits="userSpaceOnUse"><path
         id="path4793"
         d="M 0,1024 H 1024 V 0 H 0 Z" /></clipPath></defs><g
     transform="matrix(1.3333333,0,0,-1.3333333,0,1365.3333)"
     id="g4787"><g
       id="g4789"><g
         clip-path="url(#clipPath4795)"
         id="g4791"><g
           transform="translate(933,190)"
           id="g4797"><path
             id="path4799"
             style="fill:#f7931d;fill-opacity:1;fill-rule:nonzero;stroke:none"
             d="m 0,0 c 0,-55.229 -44.772,-100 -100,-100 h -643 c -55.229,0 -100,44.771 -100,100 v 643 c 0,55.229 44.771,100 100,100 h 643 C -44.772,743 0,698.229 0,643 Z" /></g><g
           transform="translate(508.7354,251.0552)"
           id="g4801"><path
             id="path4803"
             style="fill:#ffffff;fill-opacity:1;fill-rule:nonzero;stroke:none"
             d="m 0,0 c -117.343,0 -212.468,95.125 -212.468,212.468 0,117.343 95.125,212.468 212.468,212.468 117.343,0 212.468,-95.125 212.468,-212.468 C 212.468,95.125 117.343,0 0,0 M 108.834,430.509 C 108.72,498.718 80.797,553.945 46.363,553.945 h -92.726 c -34.434,0 -62.358,-55.227 -62.471,-123.436 -81.217,-40.157 -137.094,-123.807 -137.094,-220.543 0,-135.822 110.106,-245.928 245.928,-245.928 135.822,0 245.928,110.106 245.928,245.928 0,96.736 -55.877,180.386 -137.094,220.543" /></g><g
           transform="translate(443.8531,355.6489)"
           id="g4805"><path
             id="path4807"
             style="fill:#f8df6e;fill-opacity:1;fill-rule:nonzero;stroke:none"
             d="M 0,0 C -19.373,-19.291 -45.972,-23.988 -59.411,-10.492 -72.85,3.004 -68.039,29.583 -48.666,48.874 L 253.001,349.26 c 19.373,19.291 45.972,23.988 59.411,10.492 13.439,-13.496 8.628,-40.075 -10.744,-59.365 z" /></g><g
           transform="translate(382.7447,300.1164)"
           id="g4809"><path
             id="path4811"
             style="fill:#f8df6e;fill-opacity:1;fill-rule:nonzero;stroke:none"
             d="m 0,0 c 3.211,11.058 1.732,23.069 -5.156,32.801 -12.474,17.626 -37.885,21.088 -56.755,7.732 -5.147,-3.642 -9.236,-8.177 -12.266,-13.179 -26.771,-34.31 -49.45,-105.883 -49.45,-105.883 0,0 71.458,26.038 105.86,54.575 0.34,0.227 0.694,0.42 1.03,0.658 5.689,4.027 10.109,9.132 13.201,14.768 1.731,2.812 2.986,5.609 3.528,8.365 C 0.003,-0.111 -0.009,-0.052 0,0" /></g></g></g></g></svg>