<?xml version="1.0" encoding="UTF-8" standalone="no"?>
<svg
   xmlns:dc="http://purl.org/dc/elements/1.1/"
   xmlns:cc="http://creativecommons.org/ns#"
   xmlns:rdf="http://www.w3.org/1999/02/22-rdf-syntax-ns#"
   xmlns:svg="http://www.w3.org/2000/svg"
   xmlns="http://www.w3.org/2000/svg"
   viewBox="0 0 1365.3333 1365.3333"
   height="1365.3333"
   width="1365.3333"
   xml:space="preserve"
   id="svg4711"
   version="1.1"><metadata
     id="metadata4717"><rdf:RDF><cc:Work
         rdf:about=""><dc:format>image/svg+xml</dc:format><dc:type
           rdf:resource="http://purl.org/dc/dcmitype/StillImage" /><dc:title></dc:title></cc:Work></rdf:RDF></metadata><defs
     id="defs4715"><clipPath
       id="clipPath4727"
       clipPathUnits="userSpaceOnUse"><path
         id="path4725"
         d="M 0,1024 H 1024 V 0 H 0 Z" /></clipPath></defs><g
     transform="matrix(1.3333333,0,0,-1.3333333,0,1365.3333)"
     id="g4719"><g
       id="g4721"><g
         clip-path="url(#clipPath4727)"
         id="g4723"><g
           transform="translate(933,190)"
           id="g4729"><path
             id="path4731"
             style="fill:#2b56a6;fill-opacity:1;fill-rule:nonzero;stroke:none"
             d="m 0,0 c 0,-55.229 -44.772,-100 -100,-100 h -643 c -55.229,0 -100,44.771 -100,100 v 643 c 0,55.229 44.771,100 100,100 h 643 C -44.772,743 0,698.229 0,643 Z" /></g><g
           transform="translate(804.7028,503.8188)"
           id="g4733"><path
             id="path4735"
             style="fill:#52c8ec;fill-opacity:1;fill-rule:nonzero;stroke:none"
             d="m 0,0 c 0,-5.5 -4.497,-10.174 -9.992,-10.387 l -317.014,-12.277 c -5.496,-0.213 -9.993,4.113 -9.993,9.613 V 207.65 c 0,5.5 4.493,9.748 9.985,9.442 L -9.984,199.375 C -4.493,199.068 0,194.317 0,188.817 Z" /></g><g
           transform="translate(763.4132,413.0828)"
           id="g4737"><path
             id="path4739"
             style="fill:#b5e2f2;fill-opacity:1;fill-rule:nonzero;stroke:none"
             d="m 0,0 c 0,-5.5 -4.497,-10.174 -9.992,-10.387 l -411.777,-15.947 c -5.496,-0.213 -9.992,4.113 -9.992,9.613 v 288.385 c 0,5.5 4.493,9.749 9.984,9.442 L -9.984,258.094 C -4.493,257.787 0,253.036 0,247.536 Z" /></g><g
           transform="translate(719.1658,331.8903)"
           id="g4741"><path
             id="path4743"
             style="fill:#ffffff;fill-opacity:1;fill-rule:nonzero;stroke:none"
             d="m 0,0 c 0,-5.5 -4.497,-10.174 -9.992,-10.387 l -479.884,-18.585 c -5.496,-0.212 -9.993,4.113 -9.993,9.613 v 337.03 c 0,5.5 4.493,9.749 9.985,9.442 l 479.9,-26.818 C -4.493,299.988 0,295.237 0,289.737 Z" /></g></g></g></g></svg>