<?xml version="1.0" encoding="UTF-8" standalone="no"?>
<svg
   xmlns:dc="http://purl.org/dc/elements/1.1/"
   xmlns:cc="http://creativecommons.org/ns#"
   xmlns:rdf="http://www.w3.org/1999/02/22-rdf-syntax-ns#"
   xmlns:svg="http://www.w3.org/2000/svg"
   xmlns="http://www.w3.org/2000/svg"
   viewBox="0 0 1365.3333 1365.3333"
   height="1365.3333"
   width="1365.3333"
   xml:space="preserve"
   id="svg4745"
   version="1.1"><metadata
     id="metadata4751"><rdf:RDF><cc:Work
         rdf:about=""><dc:format>image/svg+xml</dc:format><dc:type
           rdf:resource="http://purl.org/dc/dcmitype/StillImage" /><dc:title></dc:title></cc:Work></rdf:RDF></metadata><defs
     id="defs4749"><clipPath
       id="clipPath4761"
       clipPathUnits="userSpaceOnUse"><path
         id="path4759"
         d="M 0,1024 H 1024 V 0 H 0 Z" /></clipPath></defs><g
     transform="matrix(1.3333333,0,0,-1.3333333,0,1365.3333)"
     id="g4753"><g
       id="g4755"><g
         clip-path="url(#clipPath4761)"
         id="g4757"><g
           transform="translate(933,190)"
           id="g4763"><path
             id="path4765"
             style="fill:#43b04e;fill-opacity:1;fill-rule:nonzero;stroke:none"
             d="m 0,0 c 0,-55.229 -44.772,-100 -100,-100 h -643 c -55.229,0 -100,44.771 -100,100 v 643 c 0,55.229 44.771,100 100,100 h 643 C -44.772,743 0,698.229 0,643 Z" /></g><g
           transform="translate(805,288)"
           id="g4767"><path
             id="path4769"
             style="fill:#e8e7e7;fill-opacity:1;fill-rule:nonzero;stroke:none"
             d="m 0,0 c 0,-38.66 -31.34,-70 -70,-70 h -447 c -38.66,0 -70,31.34 -70,70 v 447 c 0,38.66 31.34,70 70,70 h 447 c 38.66,0 70,-31.34 70,-70 z" /></g><path
           id="path4771"
           style="fill:#f37a20;fill-opacity:1;fill-rule:nonzero;stroke:none"
           d="m 400.254,334.027 h -70.682 v 113.266 h 70.682 z" /><path
           id="path4773"
           style="fill:#e64f36;fill-opacity:1;fill-rule:nonzero;stroke:none"
           d="M 503.62,334.027 H 432.938 V 560.56 h 70.682 z" /><path
           id="path4775"
           style="fill:#6653a2;fill-opacity:1;fill-rule:nonzero;stroke:none"
           d="M 599.962,334.027 H 529.28 v 354.747 h 70.682 z" /><path
           id="path4777"
           style="fill:#4887c7;fill-opacity:1;fill-rule:nonzero;stroke:none"
           d="M 693.627,334.027 H 622.945 V 602.67 h 70.682 z" /></g></g></g></svg>