<?xml version="1.0" encoding="UTF-8" standalone="no"?>
<svg
   xmlns:dc="http://purl.org/dc/elements/1.1/"
   xmlns:cc="http://creativecommons.org/ns#"
   xmlns:rdf="http://www.w3.org/1999/02/22-rdf-syntax-ns#"
   xmlns:svg="http://www.w3.org/2000/svg"
   xmlns="http://www.w3.org/2000/svg"
   viewBox="0 0 1365.3333 1365.3333"
   height="1365.3333"
   width="1365.3333"
   xml:space="preserve"
   id="svg4813"
   version="1.1"><metadata
     id="metadata4819"><rdf:RDF><cc:Work
         rdf:about=""><dc:format>image/svg+xml</dc:format><dc:type
           rdf:resource="http://purl.org/dc/dcmitype/StillImage" /><dc:title></dc:title></cc:Work></rdf:RDF></metadata><defs
     id="defs4817"><clipPath
       id="clipPath4829"
       clipPathUnits="userSpaceOnUse"><path
         id="path4827"
         d="M 0,1024 H 1024 V 0 H 0 Z" /></clipPath><clipPath
       id="clipPath4837"
       clipPathUnits="userSpaceOnUse"><path
         id="path4835"
         d="M 98.2307,927.039 H 941.231 V 84.0392 H 98.2307 Z" /></clipPath><clipPath
       id="clipPath4853"
       clipPathUnits="userSpaceOnUse"><path
         id="path4851"
         d="m 517.824,794.943 c -31.221,-17.164 -60.006,-38.552 -86.325,-62.512 v 0 C 383.234,688.366 342.813,636.151 309.824,579.889 v 0 C 278.935,526.823 254.533,469.796 239.679,410.176 v 0 c -9.663,-39.729 -15.304,-80.754 -13.295,-121.672 v 0 c 27.653,-17.427 57.583,-31.069 88.494,-41.593 v 0 c 37.764,-12.876 76.985,-21.316 116.551,-26.298 v 0 c 49.9,-6.202 100.456,-6.939 150.528,-2.452 v 0 c 40.47,3.692 80.664,10.842 119.693,22.209 v 0 c 38.924,11.367 76.792,26.93 111.444,48.112 v 0 c 1.795,37.688 -2.775,75.481 -11.073,112.24 v 0 c -16.269,70.803 -46.213,138.099 -84.744,199.584 v 0 C 683.088,654.421 641.768,704.381 592.76,745.789 v 0 c -22.434,18.83 -46.511,35.839 -72.321,49.785 v 0 c -0.217,0.153 -0.436,0.215 -0.653,0.215 v 0 c -0.685,0 -1.359,-0.609 -1.962,-0.846 M 486.22,374.92 c -15.223,1.916 -30.312,5.163 -44.842,10.118 v 0 c -11.892,4.049 -23.406,9.297 -34.045,16.001 v 0 c -0.773,15.743 1.397,31.526 5.115,46.811 v 0 c 5.715,22.938 15.102,44.878 26.986,65.294 v 0 c 12.692,21.645 28.244,41.734 46.812,58.687 v 0 c 10.126,9.218 21.2,17.447 33.211,24.05 v 0 c 0.306,0.12 0.659,0.488 1.007,0.243 v 0 c 9.929,-5.366 19.192,-11.91 27.823,-19.154 v 0 c 18.856,-15.931 34.753,-35.152 47.906,-55.972 v 0 c 14.824,-23.654 26.344,-49.545 32.604,-76.785 v 0 c 3.192,-14.142 4.95,-28.682 4.259,-43.182 v 0 c -13.331,-8.149 -27.901,-14.136 -42.876,-18.509 v 0 c -15.014,-4.374 -30.478,-7.125 -46.049,-8.545 v 0 c -8.193,-0.734 -16.419,-1.105 -24.646,-1.105 v 0 c -11.116,0 -22.232,0.677 -33.265,2.048" /></clipPath></defs><g
     transform="matrix(1.3333333,0,0,-1.3333333,0,1365.3333)"
     id="g4821"><g
       id="g4823"><g
         clip-path="url(#clipPath4829)"
         id="g4825"><g
           id="g4831"><g
             id="g4833" /><g
             id="g4845"><g
               id="g4843"
               clip-path="url(#clipPath4837)"><g
                 id="g4841"
                 transform="translate(841.2307,927.0391)"><path
                   id="path4839"
                   style="fill:#ffffff;fill-opacity:1;fill-rule:nonzero;stroke:none"
                   d="m 0,0 h -643 c -55.229,0 -100,-44.771 -100,-100 v -643 c 0,-55.228 44.771,-100 100,-100 H 0 c 55.228,0 100,44.772 100,100 v 643 C 100,-44.771 55.228,0 0,0" /></g></g></g></g></g></g><g
       id="g4847"><g
         clip-path="url(#clipPath4853)"
         id="g4849"><g
           transform="translate(519.6913,281.8826)"
           id="g4855"><path
             id="path4857"
             style="fill:#2ba4a4;fill-opacity:1;fill-rule:nonzero;stroke:none"
             d="m 0,0 -140.052,93.078 27.694,26.079 z" /></g><g
           transform="translate(633.0563,401.0313)"
           id="g4859"><path
             id="path4861"
             style="fill:#0e6ccd;fill-opacity:1;fill-rule:nonzero;stroke:none"
             d="m 0,0 30.593,-19.774 -143.958,-99.375 z" /></g><g
           transform="translate(669.6913,544.8826)"
           id="g4863"><path
             id="path4865"
             style="fill:#3754b7;fill-opacity:1;fill-rule:nonzero;stroke:none"
             d="m 0,0 -12,-167 78,-46 52.845,117 z" /></g><g
           transform="translate(521.0859,621.369)"
           id="g4867"><path
             id="path4869"
             style="fill:#e14461;fill-opacity:1;fill-rule:nonzero;stroke:none"
             d="m 0,0 -1.395,86.514 131.683,-19.47 18.317,-143.53 z" /></g><g
           transform="translate(393.8404,694.7359)"
           id="g4871"><path
             id="path4873"
             style="fill:#ff6a1a;fill-opacity:1;fill-rule:nonzero;stroke:none"
             d="m 0,0 125.851,13.147 1.395,-86.514 -155.395,-76.486 z" /></g><g
           transform="translate(309.8245,579.889)"
           id="g4875"><path
             id="path4877"
             style="fill:#cebb19;fill-opacity:1;fill-rule:nonzero;stroke:none"
             d="m 0,0 55.867,-35.006 -114.936,-96 C -45.388,-87.991 -25.523,-44.304 0,0" /></g><g
           transform="translate(303.2847,332.443)"
           id="g4879"><path
             id="path4881"
             style="fill:#8fc347;fill-opacity:1;fill-rule:nonzero;stroke:none"
             d="m 0,0 -52.529,116.44 114.936,96 13.948,-169.923 z" /></g><g
           transform="translate(370.1015,231.3388)"
           id="g4883"><path
             id="path4885"
             style="fill:#67bb6b;fill-opacity:1;fill-rule:nonzero;stroke:none"
             d="M 0,0 -68.265,104.315 -146.249,56.229 C -98.964,30.868 -50.551,10.605 0,0" /></g><g
           transform="translate(250.7554,448.8826)"
           id="g4887"><path
             id="path4889"
             style="fill:#81c153;fill-opacity:1;fill-rule:nonzero;stroke:none"
             d="m 0,0 c -20.349,-55.374 -28.895,-110.448 -26.903,-161.315 l 79.432,44.875 z" /></g><g
           transform="translate(370.1015,231.3388)"
           id="g4891"><path
             id="path4893"
             style="fill:#68b8ba;fill-opacity:1;fill-rule:nonzero;stroke:none"
             d="m 0,0 149.59,50.544 0.5,-66.588 C 102.143,-18.724 51.952,-12.755 0,0" /></g><g
           transform="translate(655.2956,228.9084)"
           id="g4895"><path
             id="path4897"
             style="fill:#0284d1;fill-opacity:1;fill-rule:nonzero;stroke:none"
             d="m 0,0 -135.604,52.974 0.5,-66.587 C -87.204,-14.361 -41.746,-10.603 0,0" /></g><g
           transform="translate(737.3213,335.4914)"
           id="g4899"><path
             id="path4901"
             style="fill:#1c62c4;fill-opacity:1;fill-rule:nonzero;stroke:none"
             d="M 0,0 75.773,-47.009 C 30.596,-76.575 -22.189,-96.19 -82.026,-106.583 Z" /></g><g
           transform="translate(788.536,448.8826)"
           id="g4903"><path
             id="path4905"
             style="fill:#3256b8;fill-opacity:1;fill-rule:nonzero;stroke:none"
             d="M 0,0 C 19.282,-62.423 27.68,-116.061 24.558,-160.4 L -52.845,-117 Z" /></g><g
           transform="translate(633.0563,401.0313)"
           id="g4907"><path
             id="path4909"
             style="fill:#3c52b6;fill-opacity:1;fill-rule:nonzero;stroke:none"
             d="m 0,0 24.635,-23.149 12,167 z" /></g><g
           transform="translate(669.6913,544.8826)"
           id="g4911"><path
             id="path4913"
             style="fill:#c1488e;fill-opacity:1;fill-rule:nonzero;stroke:none"
             d="m 0,0 -148.605,50.486 v 26 z" /></g><g
           transform="translate(521.0859,621.369)"
           id="g4915"><path
             id="path4917"
             style="fill:#ff8500;fill-opacity:1;fill-rule:nonzero;stroke:none"
             d="M 0,0 V -26 L -155.395,-76.486 Z" /></g><g
           transform="translate(365.6913,544.8826)"
           id="g4919"><path
             id="path4921"
             style="fill:#7fc154;fill-opacity:1;fill-rule:nonzero;stroke:none"
             d="M 0,0 13.948,-169.922 41.642,-143.843 14.648,-50.6 Z" /></g><g
           transform="translate(519.1761,796.8247)"
           id="g4923"><path
             id="path4925"
             style="fill:#f43131;fill-opacity:1;fill-rule:nonzero;stroke:none"
             d="M 0,0 C -50.485,-27.942 -92.125,-64.152 -125.336,-102.089 L 0.515,-88.942 Z" /></g><g
           transform="translate(651.3738,688.4127)"
           id="g4927"><path
             id="path4929"
             style="fill:#f23346;fill-opacity:1;fill-rule:nonzero;stroke:none"
             d="m 0,0 c -35.882,42.116 -80.307,77.991 -132.198,108.412 l 0.516,-88.942 z" /></g><g
           transform="translate(731.314,576.9813)"
           id="g4931"><path
             id="path4933"
             style="fill:#c14675;fill-opacity:1;fill-rule:nonzero;stroke:none"
             d="m 0,0 c -26.086,42.794 -52.531,81.968 -79.94,111.431 l 18.317,-143.53 z" /></g><g
           transform="translate(788.536,448.8826)"
           id="g4935"><path
             id="path4937"
             style="fill:#6c49b7;fill-opacity:1;fill-rule:nonzero;stroke:none"
             d="M 0,0 C -13.911,43.334 -32.826,86.053 -57.222,128.099 L -118.845,96 Z" /></g><g
           transform="translate(393.8404,694.7359)"
           id="g4939"><path
             id="path4941"
             style="fill:#faa602;fill-opacity:1;fill-rule:nonzero;stroke:none"
             d="m 0,0 c -35.8,-39.356 -64.943,-77.388 -84.016,-114.847 l 55.867,-35.006 z" /></g><g
           transform="translate(519.6913,281.8826)"
           id="g4943"><path
             id="path4945"
             style="fill:#0871d1;fill-opacity:1;fill-rule:nonzero;stroke:none"
             d="M 0,0 135.604,-52.974 216,50 138,96 Z" /></g><g
           transform="translate(379.6393,374.9605)"
           id="g4947"><path
             id="path4949"
             style="fill:#43ae8d;fill-opacity:1;fill-rule:nonzero;stroke:none"
             d="m 0,0 -76.355,-42.517 66.817,-101.105 149.59,50.544 z" /></g><g
           transform="translate(365.6913,544.8826)"
           id="g4951"><path
             id="path4953"
             style="fill:#c7bd1e;fill-opacity:1;fill-rule:nonzero;stroke:none"
             d="m 0,0 14.648,-50.6 29.18,65.11 z" /></g><g
           transform="translate(521.0859,596.369)"
           id="g4955"><path
             id="path4957"
             style="fill:#ff9c00;fill-opacity:1;fill-rule:nonzero;stroke:none"
             d="m 0,0 -85.231,-89.577 -26.336,52.601 z" /></g><g
           transform="translate(520.4641,596.1237)"
           id="g4959"><path
             id="path4961"
             style="fill:#b145b5;fill-opacity:1;fill-rule:nonzero;stroke:none"
             d="m 0,0 82.057,-85.741 13.068,52.88 z" /></g><g
           transform="translate(435.855,506.7924)"
           id="g4963"><path
             id="path4965"
             style="fill:#95c342;fill-opacity:1;fill-rule:nonzero;stroke:none"
             d="M 0,0 -28.522,-105.753 -55.515,-12.51 Z" /></g><g
           transform="translate(633.0563,401.0313)"
           id="g4967"><path
             id="path4969"
             style="fill:#514cb6;fill-opacity:1;fill-rule:nonzero;stroke:none"
             d="M 0,0 -30.535,109.351 23.086,90.65 Z" /></g><g
           transform="translate(669.6913,544.8826)"
           id="g4971"><path
             id="path4973"
             style="fill:#7349bc;fill-opacity:1;fill-rule:nonzero;stroke:none"
             d="m 0,0 -54.102,18.38 40.553,-71.581 z" /></g><g
           transform="translate(602.521,510.3826)"
           id="g4975"><path
             id="path4977"
             style="fill:#8b48bc;fill-opacity:1;fill-rule:nonzero;stroke:none"
             d="M 0,0 13.068,52.88 53.621,-18.701 Z" /></g><g
           transform="translate(519.6913,281.8826)"
           id="g4979"><path
             id="path4981"
             style="fill:#078eca;fill-opacity:1;fill-rule:nonzero;stroke:none"
             d="m 0,0 -35.189,37.379 70.844,0.095 z" /></g><g
           transform="translate(407.3328,401.0395)"
           id="g4983"><path
             id="path4985"
             style="fill:#3aadad;fill-opacity:1;fill-rule:nonzero;stroke:none"
             d="m 0,0 77.169,-81.778 33.148,53.622 z" /></g><g
           transform="translate(633.0563,401.0313)"
           id="g4987"><path
             id="path4989"
             style="fill:#027bd1;fill-opacity:1;fill-rule:nonzero;stroke:none"
             d="m 0,0 -77.71,-81.675 -37.697,53.527 z" /></g><g
           transform="translate(484.5022,319.2613)"
           id="g4991"><path
             id="path4993"
             style="fill:#28a2a7;fill-opacity:1;fill-rule:nonzero;stroke:none"
             d="M 0,0 33.147,53.622 70.844,0.095 Z" /></g><g
           transform="translate(435.855,506.7924)"
           id="g4995"><path
             id="path4997"
             style="fill:#e0b40e;fill-opacity:1;fill-rule:nonzero;stroke:none"
             d="M 0,0 -26.336,52.6 -55.515,-12.51 Z" /></g></g></g></g></svg>