<?xml version="1.0" encoding="UTF-8" standalone="no"?>
<svg
   xmlns:dc="http://purl.org/dc/elements/1.1/"
   xmlns:cc="http://creativecommons.org/ns#"
   xmlns:rdf="http://www.w3.org/1999/02/22-rdf-syntax-ns#"
   xmlns:svg="http://www.w3.org/2000/svg"
   xmlns="http://www.w3.org/2000/svg"
   viewBox="0 0 1280 1280"
   height="1280"
   width="1280"
   xml:space="preserve"
   version="1.1"
   id="svg2"><metadata
     id="metadata8"><rdf:RDF><cc:Work
         rdf:about=""><dc:format>image/svg+xml</dc:format><dc:type
           rdf:resource="http://purl.org/dc/dcmitype/StillImage" /><dc:title></dc:title></cc:Work></rdf:RDF></metadata><defs
     id="defs6"><clipPath
       id="clipPath16"
       clipPathUnits="userSpaceOnUse"><path
         id="path18"
         d="m 0,1024 1024,0 L 1024,0 0,0 0,1024 Z" /></clipPath></defs><g
     transform="matrix(1.25,0,0,-1.25,0,1280)"
     id="g10"><g
       id="g12"><g
         clip-path="url(#clipPath16)"
         id="g14"><g
           transform="translate(933,190)"
           id="g20"><path
             id="path22"
             style="fill:#2c2137;fill-opacity:1;fill-rule:nonzero;stroke:none"
             d="m 0,0 c 0,-55.229 -44.771,-100 -100,-100 l -643,0 c -55.229,0 -100,44.771 -100,100 l 0,643 c 0,55.229 44.771,100 100,100 l 643,0 C -44.771,743 0,698.229 0,643 L 0,0 Z" /></g><g
           transform="translate(674.6689,394.5)"
           id="g24"><path
             id="path26"
             style="fill:#ffffff;fill-opacity:1;fill-rule:nonzero;stroke:none"
             d="M 0,0 0,96.229 -74.509,235 l 60.866,0 24.136,-56.484 c 7.348,-17.085 12.244,-29.637 18.192,-44.978 l 0.7,0 c 5.247,14.645 10.844,28.242 17.839,44.978 L 71.013,235 130.831,235 53.171,97.976 53.171,0 0,0 Z m -101.103,99.368 -86.752,0 0,-55.786 96.896,0 0,-43.582 -150.418,0 0,235 145.523,0 0,-43.583 -92.001,0 0,-48.813 86.752,0 0,-43.236 z M -456.169,235 l 52.822,0 0,-103.902 1.05,0 c 5.246,9.066 10.844,17.433 16.09,25.801 L -332.685,235 -267.27,235 -345.278,134.933 -263.073,0 l -62.266,0 -57.719,101.462 -20.289,-24.755 0,-76.707 -52.822,0 0,235 z" /></g></g></g></g></svg>