<?xml version="1.0" encoding="UTF-8" standalone="no"?>
<svg
   xmlns:dc="http://purl.org/dc/elements/1.1/"
   xmlns:cc="http://creativecommons.org/ns#"
   xmlns:rdf="http://www.w3.org/1999/02/22-rdf-syntax-ns#"
   xmlns:svg="http://www.w3.org/2000/svg"
   xmlns="http://www.w3.org/2000/svg"
   viewBox="0 0 1365.3333 1365.3333"
   height="1365.3333"
   width="1365.3333"
   xml:space="preserve"
   id="svg5025"
   version="1.1"><metadata
     id="metadata5031"><rdf:RDF><cc:Work
         rdf:about=""><dc:format>image/svg+xml</dc:format><dc:type
           rdf:resource="http://purl.org/dc/dcmitype/StillImage" /><dc:title></dc:title></cc:Work></rdf:RDF></metadata><defs
     id="defs5029"><clipPath
       id="clipPath5041"
       clipPathUnits="userSpaceOnUse"><path
         id="path5039"
         d="M 0,1024 H 1024 V 0 H 0 Z" /></clipPath></defs><g
     transform="matrix(1.3333333,0,0,-1.3333333,0,1365.3333)"
     id="g5033"><g
       id="g5035"><g
         clip-path="url(#clipPath5041)"
         id="g5037"><g
           transform="translate(933,189)"
           id="g5043"><path
             id="path5045"
             style="fill:#5099e2;fill-opacity:1;fill-rule:nonzero;stroke:none"
             d="m 0,0 c 0,-55.229 -44.771,-100 -100,-100 h -643 c -55.229,0 -100,44.771 -100,100 v 643 c 0,55.229 44.771,100 100,100 h 643 C -44.771,743 0,698.229 0,643 Z" /></g><g
           transform="translate(295.0522,540.1479)"
           id="g5047"><path
             id="path5049"
             style="fill:#fafdfe;fill-opacity:1;fill-rule:evenodd;stroke:none"
             d="m 0,0 c 2.392,42.52 5.313,85.023 6.949,127.573 0.804,20.906 4.704,37.77 30.216,37.939 10.037,0.066 9.651,6.754 10.381,13.645 4.632,43.746 6.973,45.611 50.451,46.038 17.271,0.171 31.994,1.381 48.953,13.31 14.404,10.131 41.839,7.496 62.704,-1.153 10.063,-4.171 10.97,-13.663 9.348,-22.921 -1.706,-9.748 -7.824,-17.488 -17.967,-16.927 -22.176,1.227 -43.982,-5.425 -66.281,10.621 -16.676,11.998 -42.575,7.294 -63.129,1.47 -15.999,-4.535 -12.316,-22.042 -11.466,-35.144 0.848,-13.049 11.935,-8.855 19.171,-8.873 103.223,-0.261 206.446,-0.145 309.667,-0.213 31.986,-0.019 37.437,-5.951 38.859,-37.636 1.98,-44.045 4.795,-88.056 7.25,-132.078 3.996,-22.531 -5.225,-28.158 -27.729,-27.939 -124.084,1.21 -248.185,0.581 -372.279,0.581 C 1.64,-31.707 1.64,-31.705 0,0" /></g><g
           transform="translate(512.229,494.7891)"
           id="g5051"><path
             id="path5053"
             style="fill:#fafdfe;fill-opacity:1;fill-rule:evenodd;stroke:none"
             d="m 0,0 c 70.994,-0.03 141.988,0.11 212.978,-0.28 6.189,-0.035 17.244,5.07 17.527,-6.876 0.225,-9.458 -8.566,-13.156 -17.326,-14.13 -4.433,-0.493 -8.959,-0.212 -13.441,-0.212 -132.268,-0.009 -264.539,-0.148 -396.805,0.226 -12.28,0.035 -32.488,-4.99 -31.887,13.647 0.508,15.876 19.372,7.049 29.433,7.186 C -133.024,0.472 -66.509,0.031 0,0" /></g><g
           transform="translate(511.2075,238.043)"
           id="g5055"><path
             id="path5057"
             style="fill:#fafdfe;fill-opacity:1;fill-rule:evenodd;stroke:none"
             d="m 0,0 c -30.633,0 -61.266,-0.153 -91.894,0.127 -6.263,0.058 -14.82,-1.317 -15.153,8.691 -0.342,10.226 7.255,11.721 15.335,11.758 17.185,0.081 34.372,-0.072 51.553,0.219 26.455,0.452 30.692,4.684 30.789,31.892 0.177,49.312 -0.193,98.625 0.16,147.936 0.055,7.788 -4.544,19.82 10.478,19.835 15.019,0.014 10.429,-11.915 10.482,-19.782 0.326,-48.562 0.056,-97.129 0.169,-145.695 0.077,-30.937 3.44,-34.096 35.25,-34.204 15.69,-0.054 31.383,0.121 47.071,0.056 6.974,-0.029 14.703,-0.822 15.324,-9.431 C 110.308,1.107 102,-0.141 94.142,-0.169 62.761,-0.28 31.38,-0.215 0,-0.215 Z" /></g></g></g></g></svg>