<?xml version="1.0" encoding="UTF-8" standalone="no"?>
<svg
   xmlns:dc="http://purl.org/dc/elements/1.1/"
   xmlns:cc="http://creativecommons.org/ns#"
   xmlns:rdf="http://www.w3.org/1999/02/22-rdf-syntax-ns#"
   xmlns:svg="http://www.w3.org/2000/svg"
   xmlns="http://www.w3.org/2000/svg"
   viewBox="0 0 1365.3333 1365.3333"
   height="1365.3333"
   width="1365.3333"
   xml:space="preserve"
   id="svg5059"
   version="1.1"><metadata
     id="metadata5065"><rdf:RDF><cc:Work
         rdf:about=""><dc:format>image/svg+xml</dc:format><dc:type
           rdf:resource="http://purl.org/dc/dcmitype/StillImage" /><dc:title></dc:title></cc:Work></rdf:RDF></metadata><defs
     id="defs5063"><clipPath
       id="clipPath5075"
       clipPathUnits="userSpaceOnUse"><path
         id="path5073"
         d="M 0,1024 H 1024 V 0 H 0 Z" /></clipPath></defs><g
     transform="matrix(1.3333333,0,0,-1.3333333,0,1365.3333)"
     id="g5067"><g
       id="g5069"><g
         clip-path="url(#clipPath5075)"
         id="g5071"><g
           transform="translate(933,190)"
           id="g5077"><path
             id="path5079"
             style="fill:#efefef;fill-opacity:1;fill-rule:nonzero;stroke:none"
             d="m 0,0 c 0,-55.229 -44.772,-100 -100,-100 h -643 c -55.229,0 -100,44.771 -100,100 v 643 c 0,55.229 44.771,100 100,100 h 643 C -44.772,743 0,698.229 0,643 Z" /></g><g
           transform="translate(802.3092,508.6097)"
           id="g5081"><path
             id="path5083"
             style="fill:#31afe1;fill-opacity:1;fill-rule:nonzero;stroke:none"
             d="m 0,0 c -1.873,-6.08 -5.98,-10.53 -10.379,-14.913 -29.47,-29.37 -58.848,-58.836 -88.254,-88.268 -10.597,-10.601 -21.92,-10.57 -32.557,0.076 -30.351,30.374 -60.704,60.746 -91.043,91.126 -10.336,10.35 -10.332,21.648 0.031,32.022 30.512,30.554 61.028,61.101 91.552,91.639 9.931,9.939 21.6,9.944 31.529,0.01 C -69.53,82.096 -39.984,52.458 -10.344,22.922 -5.942,18.537 -1.854,14.065 0,7.983 Z" /></g><g
           transform="translate(509.7677,224.0536)"
           id="g5085"><path
             id="path5087"
             style="fill:#31afe1;fill-opacity:1;fill-rule:nonzero;stroke:none"
             d="m 0,0 c -6.051,1.922 -10.436,6.113 -14.799,10.502 -29.345,29.494 -58.779,58.895 -88.181,88.335 -10.521,10.535 -10.532,21.775 -0.035,32.287 30.434,30.457 60.865,60.912 91.305,91.365 10.119,10.118 21.712,10.156 31.776,0.087 30.436,-30.455 60.87,-60.912 91.296,-91.376 10.453,-10.467 10.484,-21.932 0.074,-32.349 C 81.779,69.16 52.072,39.508 22.484,9.756 18.248,5.5 13.892,1.671 7.988,0.002 H 0 Z" /></g><g
           transform="translate(402.9671,585.5803)"
           id="g5089"><path
             id="path5091"
             style="fill:#31afe1;fill-opacity:1;fill-rule:nonzero;stroke:none"
             d="m 0,0 c 0,33.862 0.305,67.728 -0.192,101.585 -0.144,9.801 2.197,17.458 9.681,23.921 6.02,5.203 11.356,11.205 16.996,16.851 22.308,22.332 44.614,44.667 66.93,66.99 10.495,10.492 21.811,10.485 32.299,-0.005 30.353,-30.363 60.704,-60.732 91.05,-91.104 10.424,-10.434 10.417,-21.909 -0.007,-32.347 -35.891,-35.935 -71.795,-71.866 -107.695,-107.797 -31.703,-31.736 -63.401,-63.469 -95.108,-95.2 -5.874,-5.876 -11.077,-4.51 -13.213,3.636 -0.658,2.524 -0.71,5.254 -0.713,7.889 C -0.014,-70.387 0,-35.192 0,0" /></g><g
           transform="translate(330.3834,512.2035)"
           id="g5093"><path
             id="path5095"
             style="fill:#31afe1;fill-opacity:1;fill-rule:nonzero;stroke:none"
             d="m 0,0 c 0,-31.078 0.045,-62.16 -0.062,-93.237 -0.011,-2.953 -0.48,-6.078 -1.538,-8.817 -2.074,-5.395 -5.966,-6.063 -10.041,-1.998 -14.292,14.269 -28.544,28.578 -42.81,42.868 -16.49,16.517 -32.984,33.033 -49.466,49.56 -6.823,6.839 -6.854,16.33 -0.057,23.203 30.351,30.699 60.709,61.395 91.081,92.082 2.008,2.029 3.901,4.783 7.313,3.492 3.262,-1.231 4.55,-4.174 5.014,-7.436 0.289,-2.022 0.516,-4.077 0.521,-6.115 C -0.014,62.401 -0.024,31.198 -0.024,0 Z" /></g></g></g></g></svg>