<?xml version="1.0" encoding="UTF-8" standalone="no"?>
<svg
   xmlns:dc="http://purl.org/dc/elements/1.1/"
   xmlns:cc="http://creativecommons.org/ns#"
   xmlns:rdf="http://www.w3.org/1999/02/22-rdf-syntax-ns#"
   xmlns:svg="http://www.w3.org/2000/svg"
   xmlns="http://www.w3.org/2000/svg"
   viewBox="0 0 1365.3333 1365.3333"
   height="1365.3333"
   width="1365.3333"
   xml:space="preserve"
   id="svg5135"
   version="1.1"><metadata
     id="metadata5141"><rdf:RDF><cc:Work
         rdf:about=""><dc:format>image/svg+xml</dc:format><dc:type
           rdf:resource="http://purl.org/dc/dcmitype/StillImage" /><dc:title></dc:title></cc:Work></rdf:RDF></metadata><defs
     id="defs5139"><clipPath
       id="clipPath5151"
       clipPathUnits="userSpaceOnUse"><path
         id="path5149"
         d="M 0,1024 H 1024 V 0 H 0 Z" /></clipPath><clipPath
       id="clipPath5163"
       clipPathUnits="userSpaceOnUse"><path
         id="path5161"
         d="m 288,805 c -38.66,0 -70,-31.34 -70,-70 v 0 -447 c 0,-38.66 31.34,-70 70,-70 v 0 h 447 c 38.66,0 70,31.34 70,70 v 0 447 c 0,38.66 -31.34,70 -70,70 v 0 z" /></clipPath></defs><g
     transform="matrix(1.3333333,0,0,-1.3333333,0,1365.3333)"
     id="g5143"><g
       id="g5145"><g
         clip-path="url(#clipPath5151)"
         id="g5147"><g
           transform="translate(933,190)"
           id="g5153"><path
             id="path5155"
             style="fill:#d33030;fill-opacity:1;fill-rule:nonzero;stroke:none"
             d="m 0,0 c 0,-55.229 -44.772,-100 -100,-100 h -643 c -55.229,0 -100,44.771 -100,100 v 643 c 0,55.229 44.771,100 100,100 h 643 C -44.772,743 0,698.229 0,643 Z" /></g></g></g><g
       id="g5157"><g
         clip-path="url(#clipPath5163)"
         id="g5159"><g
           transform="translate(380.2373,587)"
           id="g5165"><path
             id="path5167"
             style="fill:#ffffff;fill-opacity:1;fill-rule:nonzero;stroke:none"
             d="M 0,0 -76.479,136.705 53.414,211.122 132.442,74.575 209.875,209.945 340.355,136.282 265.681,2 H 417.763 V -151 H 264.116 L 340.863,-285.609 210.959,-360.367 131.912,-224.466 52.854,-360.191 -75.577,-286.042 0.763,-153 h -155 L -154,0 Z" /></g></g></g></g></svg>