<?xml version="1.0" encoding="UTF-8" standalone="no"?>
<svg
   xmlns:dc="http://purl.org/dc/elements/1.1/"
   xmlns:cc="http://creativecommons.org/ns#"
   xmlns:rdf="http://www.w3.org/1999/02/22-rdf-syntax-ns#"
   xmlns:svg="http://www.w3.org/2000/svg"
   xmlns="http://www.w3.org/2000/svg"
   viewBox="0 0 1365.3333 1365.3333"
   height="1365.3333"
   width="1365.3333"
   xml:space="preserve"
   id="svg5169"
   version="1.1"><metadata
     id="metadata5175"><rdf:RDF><cc:Work
         rdf:about=""><dc:format>image/svg+xml</dc:format><dc:type
           rdf:resource="http://purl.org/dc/dcmitype/StillImage" /><dc:title></dc:title></cc:Work></rdf:RDF></metadata><defs
     id="defs5173"><clipPath
       id="clipPath5185"
       clipPathUnits="userSpaceOnUse"><path
         id="path5183"
         d="M 0,1024 H 1024 V 0 H 0 Z" /></clipPath></defs><g
     transform="matrix(1.3333333,0,0,-1.3333333,0,1365.3333)"
     id="g5177"><g
       id="g5179"><g
         clip-path="url(#clipPath5185)"
         id="g5181"><g
           transform="translate(933,190)"
           id="g5187"><path
             id="path5189"
             style="fill:#b5b4b4;fill-opacity:1;fill-rule:nonzero;stroke:none"
             d="m 0,0 c 0,-55.229 -44.771,-100 -100,-100 h -643 c -55.229,0 -100,44.771 -100,100 v 643 c 0,55.229 44.771,100 100,100 h 643 C -44.771,743 0,698.229 0,643 Z" /></g><g
           transform="translate(263.8335,278.667)"
           id="g5191"><path
             id="path5193"
             style="fill:#3f3f3f;fill-opacity:1;fill-rule:nonzero;stroke:none"
             d="m 0,0 c 0,0 -8.667,56.334 11.333,79.667 3,3.666 15.833,18.667 37.167,19.667 2.167,0 9.042,0.749 13.667,-3.813 0,0 -2.875,0.687 -5.313,-1.25 -2.437,-1.938 -12.187,-10.063 -18.312,-19.313 -6.125,-9.25 -10,-26.625 -10.375,-47.125 0,-2 0.875,-4.875 2.5,-6.125 1.625,-1.25 3.875,-1.5 5.75,-1.5 1.875,0 23.875,-0.625 37.875,6.25 14,6.875 27.375,18 30.125,26.875 0,0 3.25,-1.75 3,-7 -0.25,-5.25 0.25,-20.25 -10.375,-33.375 C 86.417,-0.167 72.334,-11.999 13.167,-9.999 10.667,-10.166 1.196,-11.012 0,0" /></g><g
           transform="translate(612,661.5)"
           id="g5195"><path
             id="path5197"
             style="fill:#3f3f3f;fill-opacity:1;fill-rule:nonzero;stroke:none"
             d="m 0,0 c -24.301,0 -44,-19.699 -44,-44 0,-24.301 19.699,-44 44,-44 24.301,0 44,19.699 44,44 C 44,-19.699 24.301,0 0,0 m -207.584,-88.666 c 0,0 29.416,67.415 112.749,115.082 83.333,47.667 153.085,64.042 232.752,70.709 0.875,0.083 2.789,0.146 3.248,-0.646 0.459,-0.791 0.898,-1.489 0.731,-3.989 -0.166,-2.5 -3.407,-113.495 -56.407,-208.495 -53,-95 -94.368,-114.832 -129.035,-134.832 -2.459,-1.791 -5.454,-1.538 -5.454,-10.788 V -288.5 c 0,0 -0.063,-4.438 -1.831,-7.601 -1.25,-2.625 -46.877,-80.4 -144.544,-132.4 -1.25,-0.624 -8.188,-2.499 -6.938,4.626 1.25,7.125 24.469,103.625 24.469,103.625 0,0 0.547,9.75 -7.953,7 -8.5,-2.75 -15.476,-5.25 -15.476,-5.25 0,0 -11.739,-3.25 -16.739,0.5 -5,3.75 -52.115,52.625 -52.115,52.625 0,0 -4.374,4.875 -4.624,8.375 -0.25,3.5 0.376,9.75 3.376,16.625 3,6.875 5.25,10.75 3.875,13 -1.375,2.25 -2.5,4.5 -8.5,3 -6,-1.5 -96.75,-22.375 -101.25,-22.875 -4.5,-0.5 -9,1.375 -6.125,6.75 2.875,5.375 30.375,72.708 134.375,145.375 3,1.667 4.583,2.625 9.25,2.625 H -214 c 0,0 4.615,0.108 6.416,3.834" /></g></g></g></g></svg>