<?xml version="1.0" encoding="UTF-8" standalone="no"?>
<svg
   xmlns:dc="http://purl.org/dc/elements/1.1/"
   xmlns:cc="http://creativecommons.org/ns#"
   xmlns:rdf="http://www.w3.org/1999/02/22-rdf-syntax-ns#"
   xmlns:svg="http://www.w3.org/2000/svg"
   xmlns="http://www.w3.org/2000/svg"
   viewBox="0 0 1365.3333 1365.3333"
   height="1365.3333"
   width="1365.3333"
   xml:space="preserve"
   id="svg5259"
   version="1.1"><metadata
     id="metadata5265"><rdf:RDF><cc:Work
         rdf:about=""><dc:format>image/svg+xml</dc:format><dc:type
           rdf:resource="http://purl.org/dc/dcmitype/StillImage" /><dc:title></dc:title></cc:Work></rdf:RDF></metadata><defs
     id="defs5263"><clipPath
       id="clipPath5275"
       clipPathUnits="userSpaceOnUse"><path
         id="path5273"
         d="M 0,1024 H 1024 V 0 H 0 Z" /></clipPath></defs><g
     transform="matrix(1.3333333,0,0,-1.3333333,0,1365.3333)"
     id="g5267"><g
       id="g5269"><g
         clip-path="url(#clipPath5275)"
         id="g5271"><g
           transform="translate(933,190)"
           id="g5277"><path
             id="path5279"
             style="fill:#2c3e50;fill-opacity:1;fill-rule:nonzero;stroke:none"
             d="m 0,0 c 0,-55.229 -44.772,-100 -100,-100 h -643 c -55.229,0 -100,44.771 -100,100 v 643 c 0,55.229 44.771,100 100,100 h 643 C -44.772,743 0,698.229 0,643 Z" /></g><g
           transform="translate(455.9993,329)"
           id="g5281"><path
             id="path5283"
             style="fill:#faea98;fill-opacity:1;fill-rule:nonzero;stroke:none"
             d="m 0,0 c 0,0 167.001,-23.333 349.001,88.5 l -70.5,-200 -446.937,0.239 53.437,61.157 V 420 l -53,56 228.984,-0.5 -60.992,-58.739 z" /></g><g
           transform="translate(287.9859,804.6282)"
           id="g5285"><path
             id="path5287"
             style="fill:#ecc13e;fill-opacity:1;fill-rule:nonzero;stroke:none"
             d="m 0,0 115.014,-58.867 v -468.9 l -115.329,-59.361 53.329,61.396 v 470.104 z" /></g><g
           transform="translate(516.9838,804.5)"
           id="g5289"><path
             id="path5291"
             style="fill:#e38b26;fill-opacity:1;fill-rule:nonzero;stroke:none"
             d="m 0,0 -228.984,0.5 114.532,-59.239 z" /></g><g
           transform="translate(516.9838,804.5)"
           id="g5293"><path
             id="path5295"
             style="fill:#fdfaca;fill-opacity:1;fill-rule:nonzero;stroke:none"
             d="m 0,0 -113.984,-58.739 v -466.9 l 52.999,50.139 -0.007,416.761 z" /></g><g
           transform="translate(805,417.5)"
           id="g5297"><path
             id="path5299"
             style="fill:#fdfaca;fill-opacity:1;fill-rule:nonzero;stroke:none"
             d="M 0,0 C 0,0 -82.92,-135.079 -117,-143.5 L -70.5,-200 Z" /></g><g
           transform="translate(287.5629,217.7385)"
           id="g5301"><path
             id="path5303"
             style="fill:#f5d563;fill-opacity:1;fill-rule:nonzero;stroke:none"
             d="m 0,0 115.437,59.122 285,-2.861 46.5,-56.5 z" /></g></g></g></g></svg>