<?xml version="1.0" encoding="UTF-8" standalone="no"?>
<svg
   xmlns:dc="http://purl.org/dc/elements/1.1/"
   xmlns:cc="http://creativecommons.org/ns#"
   xmlns:rdf="http://www.w3.org/1999/02/22-rdf-syntax-ns#"
   xmlns:svg="http://www.w3.org/2000/svg"
   xmlns="http://www.w3.org/2000/svg"
   viewBox="0 0 1365.3333 1365.3333"
   height="1365.3333"
   width="1365.3333"
   xml:space="preserve"
   id="svg5347"
   version="1.1"><metadata
     id="metadata5353"><rdf:RDF><cc:Work
         rdf:about=""><dc:format>image/svg+xml</dc:format><dc:type
           rdf:resource="http://purl.org/dc/dcmitype/StillImage" /><dc:title></dc:title></cc:Work></rdf:RDF></metadata><defs
     id="defs5351"><clipPath
       id="clipPath5363"
       clipPathUnits="userSpaceOnUse"><path
         id="path5361"
         d="M 0,1024 H 1024 V 0 H 0 Z" /></clipPath><clipPath
       id="clipPath5375"
       clipPathUnits="userSpaceOnUse"><path
         id="path5373"
         d="M 0,1024 H 1024 V 0 H 0 Z" /></clipPath></defs><g
     transform="matrix(1.3333333,0,0,-1.3333333,0,1365.3333)"
     id="g5355"><g
       id="g5357"><g
         clip-path="url(#clipPath5363)"
         id="g5359"><g
           transform="translate(933,190)"
           id="g5365"><path
             id="path5367"
             style="fill:#ffffff;fill-opacity:1;fill-rule:nonzero;stroke:none"
             d="m 0,0 c 0,-55.229 -44.772,-100 -100,-100 h -643 c -55.229,0 -100,44.771 -100,100 v 643 c 0,55.229 44.771,100 100,100 h 643 C -44.772,743 0,698.229 0,643 Z" /></g></g></g><g
       id="g5369"><g
         clip-path="url(#clipPath5375)"
         id="g5371"><g
           transform="translate(783,511.5977)"
           id="g5377"><path
             id="path5379"
             style="fill:none;stroke:#3f3f3f;stroke-width:40;stroke-linecap:butt;stroke-linejoin:round;stroke-miterlimit:10;stroke-dasharray:none;stroke-opacity:1"
             d="m 0,0 v -218.304 c 0,-34.709 -19.687,-55.294 -54.397,-55.294 h -435.309 c -34.709,0 -55.294,20.585 -55.294,55.294 v 435.31 c 0,34.709 20.585,54.396 55.294,54.396 h 218.304 z" /></g><g
           transform="translate(783,617.4873)"
           id="g5381"><path
             id="path5383"
             style="fill:#3f3f3f;fill-opacity:1;fill-rule:nonzero;stroke:none"
             d="m 0,0 v 111.117 c 0,34.708 -19.687,54.396 -54.397,54.396 h -111.116 z" /></g><g
           transform="translate(783,617.4873)"
           id="g5385"><path
             id="path5387"
             style="fill:none;stroke:#3f3f3f;stroke-width:40;stroke-linecap:round;stroke-linejoin:round;stroke-miterlimit:10;stroke-dasharray:none;stroke-opacity:1"
             d="m 0,0 v 111.117 c 0,34.708 -19.687,54.396 -54.397,54.396 h -111.116 z" /></g></g></g></g></svg>