<?xml version="1.0" encoding="UTF-8" standalone="no"?>
<svg
   xmlns:dc="http://purl.org/dc/elements/1.1/"
   xmlns:cc="http://creativecommons.org/ns#"
   xmlns:rdf="http://www.w3.org/1999/02/22-rdf-syntax-ns#"
   xmlns:svg="http://www.w3.org/2000/svg"
   xmlns="http://www.w3.org/2000/svg"
   viewBox="0 0 1365.3333 1365.3333"
   height="1365.3333"
   width="1365.3333"
   xml:space="preserve"
   id="svg5389"
   version="1.1"><metadata
     id="metadata5395"><rdf:RDF><cc:Work
         rdf:about=""><dc:format>image/svg+xml</dc:format><dc:type
           rdf:resource="http://purl.org/dc/dcmitype/StillImage" /><dc:title></dc:title></cc:Work></rdf:RDF></metadata><defs
     id="defs5393"><clipPath
       id="clipPath5405"
       clipPathUnits="userSpaceOnUse"><path
         id="path5403"
         d="M 0,1024 H 1024 V 0 H 0 Z" /></clipPath></defs><g
     transform="matrix(1.3333333,0,0,-1.3333333,0,1365.3333)"
     id="g5397"><g
       id="g5399"><g
         clip-path="url(#clipPath5405)"
         id="g5401"><g
           transform="translate(548.9883,343.6533)"
           id="g5407"><path
             id="path5409"
             style="fill:#bababa;fill-opacity:1;fill-rule:nonzero;stroke:none"
             d="m 0,0 c -43.487,0.094 -19.46,-0.06 -66.474,-0.138 -43.514,-1.578 -54.137,-19.708 -54.181,-46.378 -0.042,-25.515 0.128,-192.713 0.143,-207.137 H 43.011 l -0.252,205.25 c 0,0 0.728,48.309 -42.759,48.403" /></g><g
           transform="translate(833,933)"
           id="g5411"><path
             id="path5413"
             style="fill:#7bb9fc;fill-opacity:1;fill-rule:nonzero;stroke:none"
             d="m 0,0 h -643 c -55.229,0 -100,-44.771 -100,-100 v -643 c 0,-55.229 44.771,-100 100,-100 h 194 v 113 c 0,0 1.937,50.115 -19.406,95.933 -21.344,45.817 -36.026,65.999 -47.873,79.368 -11.846,13.369 -140.877,207.699 61.67,355.699 l -1.112,-222 131.361,-75.333 L -193,-421 v 222 c 134,-84.333 136.75,-245.666 71.515,-343.846 -18.015,-25.904 -38.015,-49.654 -52.015,-82.93 -13.646,-32.434 -25.165,-59.219 -25.474,-108.225 -0.285,-45.341 -0.494,-100.936 -0.523,-108.999 L 0,-843 c 55.229,0 100,44.771 100,100 v 643 C 100,-44.771 55.229,0 0,0" /></g><g
           transform="translate(659.5,307.2236)"
           id="g5415"><path
             id="path5417"
             style="fill:#cccdce;fill-opacity:1;fill-rule:nonzero;stroke:none"
             d="M 0,0 C 14,33.276 34,57.026 52.015,82.931 117.25,181.11 114.5,342.443 -19.5,426.776 v -222 l -131.36,-75.333 -131.361,75.333 1.112,222 c -202.547,-148 -73.516,-342.33 -61.67,-355.699 11.847,-13.369 26.529,-33.551 47.873,-79.368 21.343,-45.817 19.406,-95.933 19.406,-95.933 v -113 h 44.477 c -0.016,14.425 -0.186,181.622 -0.144,207.138 0.044,26.67 10.667,44.8 54.181,46.378 47.014,0.078 22.987,0.231 66.474,0.138 43.488,-0.094 42.759,-48.404 42.759,-48.404 l 0.252,-205.25 h 41.504 c 0.029,8.064 0.238,63.659 0.523,108.999 C -25.165,-59.219 -13.646,-32.434 0,0" /></g><g
           transform="translate(449.5,590)"
           id="g5419"><path
             id="path5421"
             style="fill:#cccdce;fill-opacity:1;fill-rule:nonzero;stroke:none"
             d="M 0,0 C 0,33.137 26.863,60 60,60 93.137,60 120,33.137 120,0 120,-33.137 93.137,-60 60,-60 26.863,-60 0,-33.137 0,0 M 173.5,-66 V 66.5 L 59.96,131.5 -54.5,65 V -66 L 60,-131.5 Z" /></g></g></g></g></svg>