<?xml version="1.0" encoding="UTF-8" standalone="no"?>
<svg
   xmlns:dc="http://purl.org/dc/elements/1.1/"
   xmlns:cc="http://creativecommons.org/ns#"
   xmlns:rdf="http://www.w3.org/1999/02/22-rdf-syntax-ns#"
   xmlns:svg="http://www.w3.org/2000/svg"
   xmlns="http://www.w3.org/2000/svg"
   viewBox="0 0 1365.3333 1365.3333"
   height="1365.3333"
   width="1365.3333"
   xml:space="preserve"
   id="svg2"
   version="1.1"><metadata
     id="metadata8"><rdf:RDF><cc:Work
         rdf:about=""><dc:format>image/svg+xml</dc:format><dc:type
           rdf:resource="http://purl.org/dc/dcmitype/StillImage" /><dc:title></dc:title></cc:Work></rdf:RDF></metadata><defs
     id="defs6"><clipPath
       id="clipPath18"
       clipPathUnits="userSpaceOnUse"><path
         id="path16"
         d="M 0,1024 H 1024 V 0 H 0 Z" /></clipPath></defs><g
     transform="matrix(1.3333333,0,0,-1.3333333,0,1365.3333)"
     id="g10"><g
       id="g12"><g
         clip-path="url(#clipPath18)"
         id="g14"><g
           transform="translate(933,190)"
           id="g20"><path
             id="path22"
             style="fill:#393939;fill-opacity:1;fill-rule:nonzero;stroke:none"
             d="m 0,0 c 0,-55.229 -44.772,-100 -100,-100 h -643 c -55.229,0 -100,44.771 -100,100 v 643 c 0,55.229 44.771,100 100,100 h 643 C -44.772,743 0,698.229 0,643 Z" /></g><g
           transform="translate(510.4175,226.3926)"
           id="g24"><path
             id="path26"
             style="fill:#ccd1d9;fill-opacity:1;fill-rule:nonzero;stroke:none"
             d="m 0,0 c -156.096,0.616 -282.787,128.194 -282.417,284.394 0.18,75.679 29.818,146.995 83.457,200.808 53.608,53.785 124.526,83.405 199.688,83.405 l 1.023,-0.002 C 77.75,568.332 148.959,538.657 202.262,485.048 255.569,431.435 284.903,359.981 284.861,283.852 284.819,207.702 255.36,136.325 201.912,82.868 148.481,29.428 77.185,-0.002 1.157,-0.002 Z" /></g><g
           transform="translate(511.1459,805.0001)"
           id="g28"><path
             id="path30"
             style="fill:#f5f7fa;fill-opacity:1;fill-rule:nonzero;stroke:none"
             d="m 0,0 c -160.915,-0.003 -292.761,-132.192 -293.145,-294.19 -0.383,-161.61 130.871,-293.78 292.377,-294.417 0.409,-0.002 0.79,-0.002 1.198,-0.002 162.689,0 293.612,130.849 293.702,293.847 C 294.222,-131.848 163.714,-0.588 1.059,-0.002 0.704,-0.001 0.354,0 0,0 m 0,-20 v 0 l 0.987,-0.002 c 37.091,-0.133 72.979,-7.467 106.669,-21.798 32.555,-13.848 61.755,-33.635 86.786,-58.81 25.034,-25.178 44.67,-54.509 58.364,-87.18 14.171,-33.812 21.347,-69.799 21.326,-106.961 -0.02,-37.173 -7.248,-73.147 -21.481,-106.923 -13.75,-32.627 -33.445,-61.897 -58.539,-86.995 -25.088,-25.092 -54.337,-44.781 -86.936,-58.518 C 73.444,-561.402 37.53,-568.609 0.43,-568.609 l -1.119,0.002 c -36.775,0.145 -72.463,7.522 -106.073,21.928 -32.477,13.919 -61.651,33.772 -86.712,59.008 -25.062,25.237 -44.719,54.556 -58.425,87.143 -14.185,33.725 -21.333,69.487 -21.246,106.29 0.087,36.903 7.404,72.75 21.748,106.544 13.854,32.641 33.634,61.989 58.791,87.228 25.144,25.227 54.353,45.038 86.816,58.882 C -72.208,-27.263 -36.615,-20.001 0,-20" /></g><g
           transform="translate(700.515,510.2723)"
           id="g32"><path
             id="path34"
             style="fill:#e6e9ed;fill-opacity:1;fill-rule:nonzero;stroke:none"
             d="m 0,0 c 0,-104.297 -84.549,-188.846 -188.846,-188.846 -104.297,0 -188.846,84.549 -188.846,188.846 0,104.297 84.549,188.846 188.846,188.846 C -84.549,188.846 0,104.297 0,0" /></g><g
           transform="translate(512.4272,433.4355)"
           id="g36"><path
             id="path38"
             style="fill:#e9e9e9;fill-opacity:1;fill-rule:nonzero;stroke:none"
             d="m 0,0 c -0.88,0 -1.762,0.016 -2.649,0.046 -19.793,0.683 -38.525,9.174 -52.746,23.91 -14.223,14.737 -22.041,33.761 -22.014,53.565 0.028,20.629 8.132,39.878 22.819,54.202 14.513,14.154 33.896,21.95 54.577,21.95 0.554,0 1.105,-0.006 1.662,-0.017 C 44.22,152.792 76.138,119.814 75.891,76.947 75.772,56.348 67.921,37.054 53.785,22.622 39.495,8.034 20.394,0 0,0" /></g><g
           transform="translate(512.4139,612.1084)"
           id="g40"><path
             id="path42"
             style="fill:#aab2bd;fill-opacity:1;fill-rule:nonzero;stroke:none"
             d="m 0,0 h -0.001 v 0 c -27.241,-0.001 -52.822,-10.319 -72.031,-29.053 -19.543,-19.06 -30.327,-44.653 -30.364,-72.066 -0.035,-26.326 10.273,-51.527 29.025,-70.958 18.749,-19.429 43.564,-30.628 69.874,-31.535 1.161,-0.04 2.343,-0.06 3.51,-0.06 27.169,0 52.613,10.699 71.643,30.126 18.705,19.095 29.092,44.55 29.248,71.677 0.157,27.302 -9.768,52.716 -27.946,71.559 C 54.651,-11.334 29.511,-0.577 2.169,-0.022 1.445,-0.007 0.723,0 0,0 m 0,-50 c 0.384,0 0.768,-0.004 1.154,-0.012 29.016,-0.589 49.919,-22.257 49.75,-51.569 -0.167,-29.147 -22.778,-52.091 -50.891,-52.091 -0.594,0 -1.189,0.01 -1.788,0.031 -27.449,0.945 -50.657,24.995 -50.621,52.455 C -52.357,-72.53 -29.169,-50.001 0,-50" /></g><g
           transform="translate(526.9227,510)"
           id="g44"><path
             id="path46"
             style="fill:#393939;fill-opacity:1;fill-rule:nonzero;stroke:none"
             d="m 0,0 c 0,-8.518 -6.905,-15.423 -15.423,-15.423 -8.517,0 -15.422,6.905 -15.422,15.423 0,8.518 6.905,15.423 15.422,15.423 C -6.905,15.423 0,8.518 0,0" /></g></g></g></g></svg>