<?xml version="1.0" encoding="UTF-8" standalone="no"?>
<svg
   xmlns:dc="http://purl.org/dc/elements/1.1/"
   xmlns:cc="http://creativecommons.org/ns#"
   xmlns:rdf="http://www.w3.org/1999/02/22-rdf-syntax-ns#"
   xmlns:svg="http://www.w3.org/2000/svg"
   xmlns="http://www.w3.org/2000/svg"
   viewBox="0 0 1365.3333 1365.3333"
   height="1365.3333"
   width="1365.3333"
   xml:space="preserve"
   id="svg4523"
   version="1.1"><metadata
     id="metadata4529"><rdf:RDF><cc:Work
         rdf:about=""><dc:format>image/svg+xml</dc:format><dc:type
           rdf:resource="http://purl.org/dc/dcmitype/StillImage" /><dc:title></dc:title></cc:Work></rdf:RDF></metadata><defs
     id="defs4527"><clipPath
       id="clipPath4539"
       clipPathUnits="userSpaceOnUse"><path
         id="path4537"
         d="M 0,1024 H 1024 V 0 H 0 Z" /></clipPath><clipPath
       id="clipPath4555"
       clipPathUnits="userSpaceOnUse"><path
         id="path4553"
         d="M 0,1024 H 1024 V 0 H 0 Z" /></clipPath><clipPath
       id="clipPath4563"
       clipPathUnits="userSpaceOnUse"><path
         id="path4561"
         d="M 91,933 H 934 V 90 H 91 Z" /></clipPath><clipPath
       id="clipPath4579"
       clipPathUnits="userSpaceOnUse"><path
         id="path4577"
         d="M 0,1024 H 1024 V 0 H 0 Z" /></clipPath><clipPath
       id="clipPath4587"
       clipPathUnits="userSpaceOnUse"><path
         id="path4585"
         d="M 218.983,788.02 H 805.998 V 234.005 H 218.983 Z" /></clipPath></defs><g
     transform="matrix(1.3333333,0,0,-1.3333333,0,1365.3333)"
     id="g4531"><g
       id="g4533"><g
         clip-path="url(#clipPath4539)"
         id="g4535"><g
           transform="translate(834,933)"
           id="g4541"><path
             id="path4543"
             style="fill:#fff100;fill-opacity:1;fill-rule:nonzero;stroke:none"
             d="m 0,0 h -643 c -55.229,0 -100,-44.771 -100,-100 v -643 c 0,-55.229 44.771,-100 100,-100 H 0 c 55.229,0 100,44.771 100,100 v 643 C 100,-44.771 55.229,0 0,0" /></g><g
           transform="translate(736,805)"
           id="g4545"><path
             id="path4547"
             style="fill:#ec1c23;fill-opacity:1;fill-rule:nonzero;stroke:none"
             d="m 0,0 h -447 c -38.66,0 -70,-31.34 -70,-70 v -447 c 0,-38.66 31.34,-70 70,-70 H 0 c 38.66,0 70,31.34 70,70 V -70 C 70,-31.34 38.66,0 0,0" /></g></g></g><g
       id="g4549"><g
         clip-path="url(#clipPath4555)"
         id="g4551"><g
           id="g4557"><g
             id="g4559" /><g
             id="g4571"><g
               id="g4569"
               clip-path="url(#clipPath4563)"><g
                 id="g4567"
                 transform="translate(834,933)"><path
                   id="path4565"
                   style="fill:#5ab25d;fill-opacity:1;fill-rule:nonzero;stroke:none"
                   d="m 0,0 h -643 c -55.229,0 -100,-44.771 -100,-100 v -643 c 0,-55.229 44.771,-100 100,-100 H 0 c 55.229,0 100,44.771 100,100 v 643 C 100,-44.771 55.229,0 0,0" /></g></g></g></g></g></g><g
       id="g4573"><g
         clip-path="url(#clipPath4579)"
         id="g4575"><g
           id="g4581"><g
             id="g4583" /><g
             id="g4595"><g
               id="g4593"
               clip-path="url(#clipPath4587)"><g
                 id="g4591"
                 transform="translate(803.7715,762.5898)"><path
                   id="path4589"
                   style="fill:#ffffff;fill-opacity:1;fill-rule:nonzero;stroke:none"
                   d="m 0,0 c -5.19,10.339 -6.94,18.972 -20.217,19.231 -13.274,0.261 -181.741,1.567 -186.109,1.343 -4.367,-0.223 -6.495,-1.783 -9.071,-5.478 -2.576,-3.696 -7.441,-11.047 -9.085,-14.114 -1.765,-3.289 -0.166,-7.76 3.485,-11.061 7.056,-6.376 31.12,-25.225 33.934,-28.415 2.813,-3.19 8.063,-6.116 1.007,-11.952 -7.053,-5.834 -225.771,-219.841 -229.018,-223.086 -3.249,-3.244 -4.801,-3.023 -4.816,0 -0.016,3.02 2.687,222.063 2.687,222.063 0,0 -1.42,2.906 6.495,12.752 11.455,12.481 21.831,27.584 29.282,38.627 7.451,11.044 -0.837,20.552 -10.249,22.127 -15.098,2.262 -171.803,3.393 -171.803,3.393 0,0 -2.615,0.065 -7.211,-1.592 -5.361,-1.936 -13.605,-22.815 -14.051,-31.998 -0.413,-8.496 1.824,-11.511 6.831,-12.881 9.131,-2.5 18.099,-3.042 23.802,-6.521 5.702,-3.48 9.906,-15.738 9.841,-25.305 -0.065,-9.568 -3.115,-449.415 -1.388,-457.606 1.725,-8.188 2,-9.091 6.27,-11.186 4.272,-2.097 8.234,-4.55 15.342,-6.602 3.052,-0.879 8.375,-0.084 12.208,3.804 3.833,3.891 505.108,503.783 508.537,507.89 C 0.131,-12.461 5.19,-10.34 0,0" /></g></g></g></g></g></g></g></svg>