<?xml version="1.0" encoding="UTF-8" standalone="no"?>
<svg
   xmlns:dc="http://purl.org/dc/elements/1.1/"
   xmlns:cc="http://creativecommons.org/ns#"
   xmlns:rdf="http://www.w3.org/1999/02/22-rdf-syntax-ns#"
   xmlns:svg="http://www.w3.org/2000/svg"
   xmlns="http://www.w3.org/2000/svg"
   viewBox="0 0 1365.3333 1365.3333"
   height="1365.3333"
   width="1365.3333"
   xml:space="preserve"
   id="svg4597"
   version="1.1"><metadata
     id="metadata4603"><rdf:RDF><cc:Work
         rdf:about=""><dc:format>image/svg+xml</dc:format><dc:type
           rdf:resource="http://purl.org/dc/dcmitype/StillImage" /><dc:title></dc:title></cc:Work></rdf:RDF></metadata><defs
     id="defs4601"><clipPath
       id="clipPath4613"
       clipPathUnits="userSpaceOnUse"><path
         id="path4611"
         d="M 0,1024 H 1024 V 0 H 0 Z" /></clipPath></defs><g
     transform="matrix(1.3333333,0,0,-1.3333333,0,1365.3333)"
     id="g4605"><g
       id="g4607"><g
         clip-path="url(#clipPath4613)"
         id="g4609"><g
           transform="translate(933,190)"
           id="g4615"><path
             id="path4617"
             style="fill:#f5f5f5;fill-opacity:1;fill-rule:nonzero;stroke:none"
             d="m 0,0 c 0,-55.229 -44.771,-100 -100,-100 h -643 c -55.229,0 -100,44.771 -100,100 v 643 c 0,55.229 44.771,100 100,100 h 643 C -44.771,743 0,698.229 0,643 Z" /></g><g
           transform="translate(933,823.3613)"
           id="g4619"><path
             id="path4621"
             style="fill:#ffffff;fill-opacity:1;fill-rule:nonzero;stroke:none"
             d="m 0,0 v 9.639 c 0,55.228 -44.771,100 -100,100 h -643 c -55.229,0 -100,-44.772 -100,-100 V -1.262 c 240.995,-108.225 421,-310.599 421,-310.599 0,0 182.338,203.305 422,311.861" /></g><g
           transform="translate(511,453)"
           id="g4623"><path
             id="path4625"
             style="fill:#eaeaea;fill-opacity:1;fill-rule:nonzero;stroke:none"
             d="M 0,0 C -0.02,0.028 -0.04,0.058 -0.06,0.086 L -0.057,-0.105 -0.048,-0.246 0,-0.217 421.997,-263.215 c 0,0.071 0.003,0.143 0.003,0.215 V 369.408 C 382.894,343.786 112.128,163.095 0,0" /></g><g
           transform="translate(510.9404,453.0859)"
           id="g4627"><path
             id="path4629"
             style="fill:#f9f9f9;fill-opacity:1;fill-rule:nonzero;stroke:none"
             d="m 0,0 c -115.284,167.609 -394.634,351.508 -420.94,368.619 v -631.705 c 0,-0.072 0.002,-0.143 0.002,-0.215 L 0.012,-0.332 0.002,-0.191 Z" /></g><g
           transform="translate(190,90)"
           id="g4631"><path
             id="path4633"
             style="fill:#f2f2f2;fill-opacity:1;fill-rule:nonzero;stroke:none"
             d="m 0,0 h 643 c 55.156,0 99.881,44.655 99.997,99.785 L 321,362.783 -99.997,99.785 C -99.881,44.655 -55.157,0 0,0" /></g><g
           transform="translate(933,823.3599)"
           id="g4635"><path
             id="path4637"
             style="fill:#adadad;fill-opacity:1;fill-rule:nonzero;stroke:none"
             d="m 0,0 v -0.95 c -39.11,-25.62 -309.87,-206.32 -422,-369.41 -115.25,167.63 -394.69,351.59 -421,368.7 v 0.4 c 241,-108.23 421,-310.6 421,-310.6 0,0 182.34,203.31 422,311.86" /></g></g></g></g></svg>