<?xml version="1.0" encoding="UTF-8" standalone="no"?>
<svg
   xmlns:dc="http://purl.org/dc/elements/1.1/"
   xmlns:cc="http://creativecommons.org/ns#"
   xmlns:rdf="http://www.w3.org/1999/02/22-rdf-syntax-ns#"
   xmlns:svg="http://www.w3.org/2000/svg"
   xmlns="http://www.w3.org/2000/svg"
   viewBox="0 0 1365.3333 1365.3333"
   height="1365.3333"
   width="1365.3333"
   xml:space="preserve"
   id="svg4665"
   version="1.1"><metadata
     id="metadata4671"><rdf:RDF><cc:Work
         rdf:about=""><dc:format>image/svg+xml</dc:format><dc:type
           rdf:resource="http://purl.org/dc/dcmitype/StillImage" /><dc:title></dc:title></cc:Work></rdf:RDF></metadata><defs
     id="defs4669"><clipPath
       id="clipPath4681"
       clipPathUnits="userSpaceOnUse"><path
         id="path4679"
         d="M 0,1024 H 1024 V 0 H 0 Z" /></clipPath></defs><g
     transform="matrix(1.3333333,0,0,-1.3333333,0,1365.3333)"
     id="g4673"><g
       id="g4675"><g
         clip-path="url(#clipPath4681)"
         id="g4677"><g
           transform="translate(933,190)"
           id="g4683"><path
             id="path4685"
             style="fill:#207caf;fill-opacity:1;fill-rule:nonzero;stroke:none"
             d="m 0,0 c 0,-55.229 -44.772,-100 -100,-100 h -643 c -55.229,0 -100,44.771 -100,100 v 643 c 0,55.229 44.771,100 100,100 h 643 C -44.772,743 0,698.229 0,643 Z" /></g><g
           transform="translate(602.2798,551.0176)"
           id="g4687"><path
             id="path4689"
             style="fill:#ffffff;fill-opacity:1;fill-rule:nonzero;stroke:none"
             d="m 0,0 c 1.164,1.112 2.08,1.988 3.17,3.031 -2.175,3.415 -4.361,6.652 -6.344,10.01 -2.839,4.807 -5.691,9.619 -8.244,14.581 -3.411,6.628 -3.473,13.607 -1.393,20.663 0.807,2.737 2.337,5.06 4.27,7.128 14.935,15.976 31.091,30.572 48.813,43.423 15.133,10.974 31.096,20.558 47.809,28.904 4.083,2.039 8.232,3.953 12.407,5.799 3.689,1.632 7.535,2.558 11.638,2.599 4.883,0.048 9.24,-1.373 13.01,-4.312 3.004,-2.341 5.919,-4.872 8.501,-7.663 6.07,-6.561 12.101,-13.176 17.815,-20.046 9.921,-11.924 18.556,-24.755 25.964,-38.398 6.598,-12.152 12.144,-24.758 16.37,-37.931 4.363,-13.601 7.317,-27.495 9.046,-41.684 1.482,-12.159 1.756,-24.354 1.366,-36.546 -0.418,-13.114 -2.027,-26.138 -4.486,-39.041 -2.863,-15.025 -6.718,-29.794 -11.66,-44.268 -7.87,-23.045 -18.237,-44.877 -31.99,-65.027 -6.787,-9.943 -14.321,-19.288 -22.551,-28.094 -8.106,-8.672 -16.784,-16.712 -26.23,-23.867 -8.561,-6.485 -18.292,-8.645 -28.769,-5.898 -6.888,1.806 -11.53,6.142 -12.211,13.579 -0.241,2.63 0.041,5.432 0.708,7.994 1.242,4.767 2.929,9.42 4.454,14.113 5.643,17.364 11.472,34.671 16.892,52.104 4.782,15.382 9.144,30.896 13.622,46.371 1.397,4.828 2.895,9.663 3.773,14.596 1.393,7.834 0.245,15.564 -1.932,23.173 -1.528,5.345 -3.604,10.374 -7.322,14.615 -3.1,3.535 -6.491,6.672 -10.803,8.713 -2.801,1.327 -5.722,1.843 -8.707,1.153 -9.057,-2.093 -16.526,-6.375 -21.384,-14.78 -6.301,-10.899 -12.587,-21.795 -18.054,-33.141 -5.353,-11.108 -9.442,-22.689 -13.018,-34.475 -10.117,-33.345 -18.661,-67.109 -27.024,-100.923 -1.855,-7.5 -3.821,-14.975 -5.846,-22.431 -0.483,-1.78 -1.312,-3.488 -2.15,-5.145 -3.097,-6.123 -8.238,-9.217 -14.974,-9.661 -4.085,-0.269 -8.185,-0.321 -12.28,-0.393 -5.876,-0.103 -11.753,-0.129 -17.63,-0.198 -10.068,-0.12 -20.136,-0.322 -30.204,-0.326 -2.86,0 -5.763,0.357 -8.573,0.918 -6.262,1.251 -10.292,5.141 -11.797,11.304 -0.743,3.044 -1.027,6.242 -1.146,9.385 -0.184,4.847 0.007,9.707 -0.06,14.56 -0.151,10.998 -0.275,21.998 -0.579,32.992 -0.231,8.371 -0.682,16.737 -1.111,25.102 -0.3,5.851 -0.754,11.693 -1.094,17.542 -0.588,10.091 -2.037,19.993 -6.137,29.35 -4.487,10.242 -11.477,18.213 -21.308,23.633 -5.05,2.784 -10.193,2.83 -15.261,0.234 -7.932,-4.063 -14.238,-9.767 -17.796,-18.178 -5.584,-13.201 -9.528,-26.86 -11.156,-41.106 -0.855,-7.475 -1.326,-15.005 -1.682,-22.523 -0.378,-8.002 -0.48,-16.019 -0.579,-24.031 -0.062,-5.035 0.062,-10.074 0.175,-15.11 0.148,-6.611 0.202,-13.231 0.618,-19.828 0.249,-3.956 0.068,-7.779 -1.177,-11.53 -1.894,-5.706 -6.26,-9.06 -12.232,-9.4 -17.331,-0.988 -34.68,-0.796 -52.024,-0.707 -7.448,0.038 -14.895,0.439 -22.341,0.723 -2.227,0.084 -4.448,0.449 -6.673,0.463 -2.467,0.015 -4.27,1.187 -5.794,2.901 -3.778,4.248 -6.448,9.122 -7.837,14.643 -5.864,23.303 -11.724,46.607 -17.534,69.923 -5.134,20.605 -10.212,41.224 -15.294,61.841 -5.26,21.34 -10.496,42.686 -15.74,64.03 -0.82,3.335 -1.631,6.672 -2.453,10.034 h -6.119 c -0.235,-0.936 -0.544,-1.715 -0.614,-2.515 -0.655,-7.504 -1.254,-15.012 -1.9,-22.517 -1.115,-12.967 -2.25,-25.932 -3.383,-38.897 -0.161,-1.852 -0.336,-3.703 -0.542,-5.55 -0.089,-0.803 -0.273,-1.596 -0.393,-2.272 -0.423,-0.147 -0.595,-0.249 -0.773,-0.262 -5.391,-0.378 -5.377,-0.37 -7.789,4.416 -9.891,19.622 -16.527,40.307 -19.878,62.005 -1.02,6.604 -1.508,13.308 -1.912,19.985 -0.37,6.133 -0.589,12.303 -0.355,18.437 0.39,10.225 1.507,20.398 3.409,30.469 4.071,21.546 11.273,42.063 20.308,61.982 8.666,19.108 19.359,36.97 32.585,53.294 12.341,15.233 26.481,28.523 42.565,39.747 20.852,14.551 43.686,24.82 68.118,31.661 10.77,3.016 21.69,5.347 32.746,6.991 3.488,0.519 7.04,0.646 10.569,0.849 3.436,0.199 6.883,0.436 10.319,0.36 11.92,-0.264 23.763,-1.419 35.506,-3.492 17.003,-3.003 33.62,-7.486 49.915,-13.175 17.099,-5.969 33.647,-13.195 49.639,-21.707 13.03,-6.935 25.522,-14.705 37.267,-23.654 11.011,-8.39 21.21,-17.629 29.694,-28.641 0.672,-0.873 1.285,-1.792 2.081,-2.909 -1.087,-0.913 -2.045,-1.763 -3.047,-2.555 C 27.081,100.581 18.271,93.694 9.532,86.719 0.426,79.452 -8.551,72.018 -16.705,63.681 c -2.98,-3.048 -5.689,-6.426 -8.114,-9.935 -4.396,-6.361 -4.784,-13.166 -1.138,-20.044 1.394,-2.629 2.791,-5.326 4.635,-7.634 C -14.412,17.417 -7.317,8.913 0,0" /></g></g></g></g></svg>