<?xml version="1.0" encoding="UTF-8" standalone="no"?>
<svg
   xmlns:dc="http://purl.org/dc/elements/1.1/"
   xmlns:cc="http://creativecommons.org/ns#"
   xmlns:rdf="http://www.w3.org/1999/02/22-rdf-syntax-ns#"
   xmlns:svg="http://www.w3.org/2000/svg"
   xmlns="http://www.w3.org/2000/svg"
   viewBox="0 0 1365.3333 1365.3333"
   height="1365.3333"
   width="1365.3333"
   xml:space="preserve"
   id="svg4691"
   version="1.1"><metadata
     id="metadata4697"><rdf:RDF><cc:Work
         rdf:about=""><dc:format>image/svg+xml</dc:format><dc:type
           rdf:resource="http://purl.org/dc/dcmitype/StillImage" /><dc:title></dc:title></cc:Work></rdf:RDF></metadata><defs
     id="defs4695"><clipPath
       id="clipPath4707"
       clipPathUnits="userSpaceOnUse"><path
         id="path4705"
         d="M 0,1024 H 1024 V 0 H 0 Z" /></clipPath></defs><g
     transform="matrix(1.3333333,0,0,-1.3333333,0,1365.3333)"
     id="g4699"><g
       id="g4701"><g
         clip-path="url(#clipPath4707)"
         id="g4703"><g
           transform="translate(940,190)"
           id="g4709"><path
             id="path4711"
             style="fill:#d3442d;fill-opacity:1;fill-rule:nonzero;stroke:none"
             d="m 0,0 c 0,-55.229 -44.771,-100 -100,-100 h -643 c -55.229,0 -100,44.771 -100,100 v 643 c 0,55.229 44.771,100 100,100 h 643 C -44.771,743 0,698.229 0,643 Z" /></g><g
           transform="translate(518.1338,781.187)"
           id="g4713"><path
             id="path4715"
             style="fill:#ffffff;fill-opacity:1;fill-rule:nonzero;stroke:none"
             d="m 0,0 c -80.963,0 -154.134,-63.645 -154.134,-152.402 2.02,-53.256 28.577,-91.065 70.718,-154.566 42.143,-63.501 62.346,-112.571 84.854,-239.574 24.064,130.393 36.23,165.537 89.051,246.067 29.874,44.595 65.089,92.798 65.377,148.073 C 155.866,-61.48 80.964,0 0,0 m 0,-35 c 31.229,0 62.029,-11.946 84.503,-32.775 11.356,-10.526 20.252,-22.885 26.438,-36.733 6.574,-14.713 9.913,-30.793 9.925,-47.797 -0.249,-40.875 -27.176,-80.802 -53.216,-119.418 -2.096,-3.109 -4.18,-6.199 -6.239,-9.273 l -0.095,-0.141 -0.092,-0.142 C 32.486,-325.089 14.927,-356.58 1.11,-396.175 c -13.887,39.336 -31.068,71.951 -55.363,108.56 -1.734,2.614 -3.442,5.183 -5.123,7.713 -37.339,56.181 -57.997,87.264 -59.756,128.163 0.173,32.035 12.877,61.649 35.817,83.453 C -61.06,-47.132 -30.692,-35 0,-35" /></g><g
           transform="translate(567.7549,631.1367)"
           id="g4717"><path
             id="path4719"
             style="fill:#ffffff;fill-opacity:1;fill-rule:nonzero;stroke:none"
             d="m 0,0 c 0,-26.879 -21.79,-48.669 -48.67,-48.669 -26.879,0 -48.669,21.79 -48.669,48.669 0,26.879 21.79,48.669 48.669,48.669 C -21.79,48.669 0,26.879 0,0" /></g></g></g></g></svg>