<?xml version="1.0" encoding="UTF-8" standalone="no"?>
<svg
   xmlns:dc="http://purl.org/dc/elements/1.1/"
   xmlns:cc="http://creativecommons.org/ns#"
   xmlns:rdf="http://www.w3.org/1999/02/22-rdf-syntax-ns#"
   xmlns:svg="http://www.w3.org/2000/svg"
   xmlns="http://www.w3.org/2000/svg"
   viewBox="0 0 1365.3333 1365.3333"
   height="1365.3333"
   width="1365.3333"
   xml:space="preserve"
   id="svg4721"
   version="1.1"><metadata
     id="metadata4727"><rdf:RDF><cc:Work
         rdf:about=""><dc:format>image/svg+xml</dc:format><dc:type
           rdf:resource="http://purl.org/dc/dcmitype/StillImage" /><dc:title></dc:title></cc:Work></rdf:RDF></metadata><defs
     id="defs4725"><clipPath
       id="clipPath4737"
       clipPathUnits="userSpaceOnUse"><path
         id="path4735"
         d="M 191,933 C 135.771,933 91,888.229 91,833 v 0 -643 C 91,134.771 135.771,90 191,90 v 0 h 643 c 55.229,0 100,44.771 100,100 v 0 643 c 0,55.229 -44.771,100 -100,100 v 0 z" /></clipPath><clipPath
       id="clipPath4749"
       clipPathUnits="userSpaceOnUse"><path
         id="path4747"
         d="M 0,1024 H 1024 V 0 H 0 Z" /></clipPath></defs><g
     transform="matrix(1.3333333,0,0,-1.3333333,0,1365.3333)"
     id="g4729"><g
       id="g4731"><g
         clip-path="url(#clipPath4737)"
         id="g4733"><g
           transform="translate(933,190)"
           id="g4739"><path
             id="path4741"
             style="fill:#00aff4;fill-opacity:1;fill-rule:nonzero;stroke:none"
             d="m 0,0 c 0,-55.229 -44.772,-100 -100,-100 h -643 c -55.229,0 -100,44.771 -100,100 v 643 c 0,55.229 44.771,100 100,100 h 643 C -44.772,743 0,698.229 0,643 Z" /></g></g></g><g
       id="g4743"><g
         clip-path="url(#clipPath4749)"
         id="g4745"><g
           transform="translate(683.938,749.0031)"
           id="g4751"><path
             id="path4753"
             style="fill:#ffffff;fill-opacity:1;fill-rule:nonzero;stroke:none"
             d="m 0,0 3.052,-62.347 c 50.482,-55.772 70.44,-134.792 45.316,-209.116 -37.567,-110.839 -161.306,-169.194 -276.356,-130.212 -115.051,38.981 -177.977,160.505 -140.527,271.345 25.241,74.558 89.458,125.281 163.772,138.784 l 40.15,47.435 c -125.265,3.405 -243.485,-74.323 -285.749,-199.37 -52.007,-153.461 30.289,-320.072 183.847,-371.969 153.557,-51.898 320.029,30.293 372.037,183.871 C 147.688,-206.885 101.198,-73.502 0,0" /></g><g
           transform="translate(611.9727,565.1318)"
           id="g4755"><path
             id="path4757"
             style="fill:#ffffff;fill-opacity:1;fill-rule:nonzero;stroke:none"
             d="m 0,0 -2.113,87.122 -1.761,50.136 -1.174,43.443 c 0,0 0.235,20.9 -0.47,25.831 -0.117,1.057 -0.469,1.879 -0.822,2.583 0,0.118 -0.117,0.235 -0.117,0.353 0,0.117 -0.117,0.235 -0.117,0.235 -0.822,1.409 -2.114,2.465 -3.64,3.052 -1.643,0.587 -3.404,0.47 -4.93,-0.235 h -0.118 c -0.235,-0.117 -0.352,-0.117 -0.47,-0.234 -0.704,-0.353 -1.408,-0.822 -2.113,-1.527 -3.522,-3.522 -16.083,-20.195 -16.083,-20.195 L -61.165,156.749 -92.98,118.002 -147.57,50.136 c 0,0 -25.006,-31.232 -19.489,-69.744 5.518,-38.512 34.164,-57.181 56.352,-64.696 22.188,-7.514 56.351,-9.98 84.057,17.26 C 0.939,-40.038 0,0 0,0" /></g></g></g></g></svg>