<?xml version="1.0" encoding="UTF-8" standalone="no"?>
<svg
   xmlns:dc="http://purl.org/dc/elements/1.1/"
   xmlns:cc="http://creativecommons.org/ns#"
   xmlns:rdf="http://www.w3.org/1999/02/22-rdf-syntax-ns#"
   xmlns:svg="http://www.w3.org/2000/svg"
   xmlns="http://www.w3.org/2000/svg"
   viewBox="0 0 1365.3333 1365.3333"
   height="1365.3333"
   width="1365.3333"
   xml:space="preserve"
   id="svg5049"
   version="1.1"><metadata
     id="metadata5055"><rdf:RDF><cc:Work
         rdf:about=""><dc:format>image/svg+xml</dc:format><dc:type
           rdf:resource="http://purl.org/dc/dcmitype/StillImage" /><dc:title></dc:title></cc:Work></rdf:RDF></metadata><defs
     id="defs5053"><clipPath
       id="clipPath5065"
       clipPathUnits="userSpaceOnUse"><path
         id="path5063"
         d="M 0,1024 H 1024 V 0 H 0 Z" /></clipPath></defs><g
     transform="matrix(1.3333333,0,0,-1.3333333,0,1365.3333)"
     id="g5057"><g
       id="g5059"><g
         clip-path="url(#clipPath5065)"
         id="g5061"><g
           transform="translate(933,190)"
           id="g5067"><path
             id="path5069"
             style="fill:#5b5b5b;fill-opacity:1;fill-rule:nonzero;stroke:none"
             d="m 0,0 c 0,-55.229 -44.771,-100 -100,-100 h -643 c -55.229,0 -100,44.771 -100,100 v 643 c 0,55.229 44.771,100 100,100 h 643 C -44.771,743 0,698.229 0,643 Z" /></g><g
           transform="translate(718.4248,290)"
           id="g5071"><path
             id="path5073"
             style="fill:#874987;fill-opacity:1;fill-rule:nonzero;stroke:none"
             d="M 0,0 H -114.256 L -410.85,445 h 114.256 z" /></g><path
           id="path5075"
           style="fill:#c965c4;fill-opacity:1;fill-rule:nonzero;stroke:none"
           d="M 425,291 H 308 v 445 h 117 z" /><path
           id="path5077"
           style="fill:#c965c4;fill-opacity:1;fill-rule:nonzero;stroke:none"
           d="M 717,291 H 600 v 445 h 117 z" /></g></g></g></svg>