<?xml version="1.0" encoding="UTF-8" standalone="no"?>
<svg
   xmlns:dc="http://purl.org/dc/elements/1.1/"
   xmlns:cc="http://creativecommons.org/ns#"
   xmlns:rdf="http://www.w3.org/1999/02/22-rdf-syntax-ns#"
   xmlns:svg="http://www.w3.org/2000/svg"
   xmlns="http://www.w3.org/2000/svg"
   viewBox="0 0 1365.3333 1365.3333"
   height="1365.3333"
   width="1365.3333"
   xml:space="preserve"
   id="svg4789"
   version="1.1"><metadata
     id="metadata4795"><rdf:RDF><cc:Work
         rdf:about=""><dc:format>image/svg+xml</dc:format><dc:type
           rdf:resource="http://purl.org/dc/dcmitype/StillImage" /><dc:title></dc:title></cc:Work></rdf:RDF></metadata><defs
     id="defs4793"><clipPath
       id="clipPath4805"
       clipPathUnits="userSpaceOnUse"><path
         id="path4803"
         d="M 0,1024 H 1024 V 0 H 0 Z" /></clipPath></defs><g
     transform="matrix(1.3333333,0,0,-1.3333333,0,1365.3333)"
     id="g4797"><g
       id="g4799"><g
         clip-path="url(#clipPath4805)"
         id="g4801"><g
           transform="translate(933,190)"
           id="g4807"><path
             id="path4809"
             style="fill:#5b5b5b;fill-opacity:1;fill-rule:nonzero;stroke:none"
             d="m 0,0 c 0,-55.229 -44.771,-100 -100,-100 h -643 c -55.229,0 -100,44.771 -100,100 v 643 c 0,55.229 44.771,100 100,100 h 643 C -44.771,743 0,698.229 0,643 Z" /></g><g
           transform="translate(435.3955,289)"
           id="g4811"><path
             id="path4813"
             style="fill:#3d8735;fill-opacity:1;fill-rule:nonzero;stroke:none"
             d="M 0,0 H -114.257 L 182.338,445 H 296.595 Z" /></g><g
           transform="translate(617.7334,289)"
           id="g4815"><path
             id="path4817"
             style="fill:#4daa3c;fill-opacity:1;fill-rule:nonzero;stroke:none"
             d="M 0,0 H 114.257 L -182.338,445 H -296.595 Z" /></g></g></g></g></svg>