<?xml version="1.0" encoding="UTF-8" standalone="no"?>
<svg
   xmlns:dc="http://purl.org/dc/elements/1.1/"
   xmlns:cc="http://creativecommons.org/ns#"
   xmlns:rdf="http://www.w3.org/1999/02/22-rdf-syntax-ns#"
   xmlns:svg="http://www.w3.org/2000/svg"
   xmlns="http://www.w3.org/2000/svg"
   viewBox="0 0 1365.3333 1365.3333"
   height="1365.3333"
   width="1365.3333"
   xml:space="preserve"
   id="svg5317"
   version="1.1"><metadata
     id="metadata5323"><rdf:RDF><cc:Work
         rdf:about=""><dc:format>image/svg+xml</dc:format><dc:type
           rdf:resource="http://purl.org/dc/dcmitype/StillImage" /><dc:title></dc:title></cc:Work></rdf:RDF></metadata><defs
     id="defs5321"><clipPath
       id="clipPath5333"
       clipPathUnits="userSpaceOnUse"><path
         id="path5331"
         d="M 0,1024 H 1024 V 0 H 0 Z" /></clipPath></defs><g
     transform="matrix(1.3333333,0,0,-1.3333333,0,1365.3333)"
     id="g5325"><g
       id="g5327"><g
         clip-path="url(#clipPath5333)"
         id="g5329"><g
           transform="translate(933,190)"
           id="g5335"><path
             id="path5337"
             style="fill:#5b5b5b;fill-opacity:1;fill-rule:nonzero;stroke:none"
             d="m 0,0 c 0,-55.229 -44.771,-100 -100,-100 h -643 c -55.229,0 -100,44.771 -100,100 v 643 c 0,55.229 44.771,100 100,100 h 643 C -44.771,743 0,698.229 0,643 Z" /></g><g
           transform="translate(357,733)"
           id="g5339"><path
             id="path5341"
             style="fill:#a93020;fill-opacity:1;fill-rule:nonzero;stroke:none"
             d="M 0,0 V -106 H 339.021 L 232.701,0 Z" /></g><g
           transform="translate(463.2988,543)"
           id="g5343"><path
             id="path5345"
             style="fill:#a93020;fill-opacity:1;fill-rule:nonzero;stroke:none"
             d="M 0,0 -106.32,-107 H 126.402 L 232.723,0 Z" /></g><g
           transform="translate(357,290)"
           id="g5347"><path
             id="path5349"
             style="fill:#f04918;fill-opacity:1;fill-rule:nonzero;stroke:none"
             d="M 0,0 H 106 V 252.805 L 0,146.485 Z" /></g><g
           transform="translate(696,626.6802)"
           id="g5351"><path
             id="path5353"
             style="fill:#f04918;fill-opacity:1;fill-rule:nonzero;stroke:none"
             d="M 0,0 -106,106.32 V -190.195 L 0,-83.875 Z" /></g></g></g></g></svg>