<?xml version="1.0" encoding="UTF-8" standalone="no"?>
<svg
   xmlns:dc="http://purl.org/dc/elements/1.1/"
   xmlns:cc="http://creativecommons.org/ns#"
   xmlns:rdf="http://www.w3.org/1999/02/22-rdf-syntax-ns#"
   xmlns:svg="http://www.w3.org/2000/svg"
   xmlns="http://www.w3.org/2000/svg"
   xmlns:sodipodi="http://sodipodi.sourceforge.net/DTD/sodipodi-0.dtd"
   xmlns:inkscape="http://www.inkscape.org/namespaces/inkscape"
   viewBox="0 0 1365.3333 1365.3333"
   height="1365.3333"
   width="1365.3333"
   xml:space="preserve"
   id="svg5179"
   version="1.1"
   sodipodi:docname="microsoft outlook.svg"
   inkscape:version="0.92.1 r15371"><sodipodi:namedview
     pagecolor="#ffffff"
     bordercolor="#666666"
     borderopacity="1"
     objecttolerance="10"
     gridtolerance="10"
     guidetolerance="10"
     inkscape:pageopacity="0"
     inkscape:pageshadow="2"
     inkscape:window-width="3200"
     inkscape:window-height="1690"
     id="namedview20"
     showgrid="false"
     inkscape:zoom="0.17285157"
     inkscape:cx="682.66663"
     inkscape:cy="682.66663"
     inkscape:window-x="0"
     inkscape:window-y="54"
     inkscape:window-maximized="1"
     inkscape:current-layer="svg5179" /><metadata
     id="metadata5185"><rdf:RDF><cc:Work
         rdf:about=""><dc:format>image/svg+xml</dc:format><dc:type
           rdf:resource="http://purl.org/dc/dcmitype/StillImage" /><dc:title /></cc:Work></rdf:RDF></metadata><defs
     id="defs5183"><clipPath
       id="clipPath5195"
       clipPathUnits="userSpaceOnUse"><path
         id="path5193"
         d="M 0,1024 H 1024 V 0 H 0 Z" /></clipPath></defs><g
     transform="matrix(1.3333333,0,0,-1.3333333,0,1365.3333)"
     id="g5187"><g
       id="g5189"><g
         clip-path="url(#clipPath5195)"
         id="g5191"><g
           transform="translate(933,190)"
           id="g5197"><path
             id="path5199"
             style="fill:#e4ecef;fill-opacity:1;fill-rule:nonzero;stroke:none"
             d="m 0,0 c 0,-55.229 -44.771,-100 -100,-100 h -643 c -55.229,0 -100,44.771 -100,100 v 643 c 0,55.229 44.771,100 100,100 h 643 C -44.771,743 0,698.229 0,643 Z" /></g><g
           transform="translate(454,733)"
           id="g5201"><path
             id="path5203"
             style="fill:#cb9919;fill-opacity:1;fill-rule:nonzero;stroke:none"
             d="M 0,0 H -1 L -106,-105 V -336 L 0,-442 Z" /></g><g
           transform="translate(705,628)"
           id="g5205"><path
             id="path5207"
             style="fill:#cb9919;fill-opacity:1;fill-rule:nonzero;stroke:none"
             d="M 0,0 -106,106 V -337 L 0,-231.166 Z" /></g><g
           transform="translate(454,734)"
           id="g5209"><path
             id="path5211"
             style="fill:#ead046;fill-opacity:1;fill-rule:nonzero;stroke:none"
             d="M 0,0 -106,-106 H 251 L 145,0 Z" /></g><g
           transform="translate(705.1846,397)"
           id="g5213"><path
             id="path5215"
             style="fill:#ead046;fill-opacity:1;fill-rule:nonzero;stroke:none"
             d="m 0,0 h -357.185 l 106,-106 h 145 l 106,105.834 z" /></g></g></g></g></svg>