<?xml version="1.0" encoding="UTF-8" standalone="no"?>
<svg
   xmlns:dc="http://purl.org/dc/elements/1.1/"
   xmlns:cc="http://creativecommons.org/ns#"
   xmlns:rdf="http://www.w3.org/1999/02/22-rdf-syntax-ns#"
   xmlns:svg="http://www.w3.org/2000/svg"
   xmlns="http://www.w3.org/2000/svg"
   viewBox="0 0 1365.3333 1365.3333"
   height="1365.3333"
   width="1365.3333"
   xml:space="preserve"
   id="svg2"
   version="1.1"><metadata
     id="metadata8"><rdf:RDF><cc:Work
         rdf:about=""><dc:format>image/svg+xml</dc:format><dc:type
           rdf:resource="http://purl.org/dc/dcmitype/StillImage" /><dc:title></dc:title></cc:Work></rdf:RDF></metadata><defs
     id="defs6"><clipPath
       id="clipPath18"
       clipPathUnits="userSpaceOnUse"><path
         id="path16"
         d="M 0,1024 H 1024 V 0 H 0 Z" /></clipPath></defs><g
     transform="matrix(1.3333333,0,0,-1.3333333,0,1365.3333)"
     id="g10"><g
       id="g12"><g
         clip-path="url(#clipPath18)"
         id="g14"><g
           transform="translate(933,190)"
           id="g20"><path
             id="path22"
             style="fill:#ffffff;fill-opacity:1;fill-rule:nonzero;stroke:none"
             d="m 0,0 c 0,-55.229 -44.771,-100 -100,-100 h -643 c -55.229,0 -100,44.771 -100,100 v 643 c 0,55.229 44.771,100 100,100 h 643 C -44.771,743 0,698.229 0,643 Z" /></g><g
           transform="translate(457.4087,276.7988)"
           id="g24"><path
             id="path26"
             style="fill:#59a4ee;fill-opacity:1;fill-rule:evenodd;stroke:none"
             d="m 0,0 c -26.388,28.283 -62.491,40.472 -95.817,56.905 -78.601,38.764 -134.713,96.159 -158.379,182.575 -16.648,60.801 -20.146,121.946 -9.617,184.059 8.773,51.776 20.932,103.434 5.005,161.168 63.819,-64.795 138.808,-107.724 199.264,-168.064 17.901,-17.867 38.187,-33.79 50.201,-56.911 -9.193,-18.865 -18.84,-37.525 -27.479,-56.64 C -59.944,251.944 -62.97,197.371 -51.712,144.296 -42.731,101.951 -24.63,61.16 -5.009,21.866 -1.573,14.985 1.445,8.005 0,0" /></g><g
           transform="translate(452.5176,635.6875)"
           id="g28"><path
             id="path30"
             style="fill:#52d73d;fill-opacity:1;fill-rule:evenodd;stroke:none"
             d="m 0,0 c 35.139,52.291 82.292,94.646 119.813,144.96 7.602,10.196 16.8,19.724 22.028,31.049 10.429,22.585 19.936,15.125 32.742,2.297 63.414,-63.517 83.917,-141.185 76.814,-228.281 -8.444,-3.964 -16.748,-8.263 -25.357,-11.834 -59.271,-24.583 -109.945,-59.636 -142.854,-116.532 0.002,-0.019 -2.1,0.415 -2.1,0.415 2.459,10.611 -2.316,20.073 -5.188,29.671 C 59.731,-94.196 31.189,-46.404 0,0" /></g><g
           transform="translate(535.7031,457.3672)"
           id="g32"><path
             id="path34"
             style="fill:#efad18;fill-opacity:1;fill-rule:evenodd;stroke:none"
             d="m 0,0 c 32.909,56.875 83.583,91.929 142.854,116.512 8.61,3.57 16.914,7.869 25.358,11.834 36.866,12.843 74.205,23.949 112.439,32.068 14.269,3.031 20.501,-0.46 19.996,-16.109 -1.669,-51.797 -10.853,-101.292 -40.901,-145.004 -7.43,-0.864 -11.657,-3.816 -7.824,-12.015 0,0 -0.744,-1.753 -0.752,-1.732 -18.561,34.184 -53.807,44.401 -85.802,58.682 -11.755,5.248 -21.627,-2.221 -26.73,-13.417 C 132.743,17.892 129.078,3.875 122.549,-8.684 93.243,-65.025 52.605,-114.045 18.82,-167.525 10.841,-180.158 1.303,-172.893 -7.588,-167.865 0.16,-112.143 9.914,-56.517 0,0" /></g><g
           transform="translate(452.5176,635.6875)"
           id="g36"><path
             id="path38"
             style="fill:#1fbad8;fill-opacity:1;fill-rule:evenodd;stroke:none"
             d="m 0,0 c 31.189,-46.404 59.731,-94.196 75.898,-148.255 2.872,-9.598 7.647,-19.06 5.188,-29.682 -33.902,-47.917 -51.557,-101.551 -55.065,-159.804 -1.473,-24.463 -0.941,-49.04 -1.319,-73.569 -6.291,17.592 -9.245,36.448 -19.811,52.426 1.445,8 -1.573,14.981 -5.009,21.862 -19.621,39.293 -37.722,80.085 -46.703,122.429 -11.258,53.075 -8.232,107.649 14.89,158.796 8.639,19.115 18.286,37.776 27.479,56.641 C -2.938,0.709 -1.456,0.425 0,0" /></g><g
           transform="translate(528.1152,289.502)"
           id="g40"><path
             id="path42"
             style="fill:#efad18;fill-opacity:1;fill-rule:evenodd;stroke:none"
             d="m 0,0 c 8.891,-5.027 18.429,-12.293 26.408,0.34 33.785,53.48 74.423,102.5 103.729,158.842 6.529,12.558 10.194,26.575 16.089,39.503 5.103,11.195 14.975,18.665 26.73,13.417 31.995,-14.282 67.241,-24.498 85.802,-58.683 C 229.137,105.223 185.159,72.77 137.645,44.767 109.886,28.403 80.93,14.017 52.135,-0.514 25.839,-13.786 6.04,-33.74 -10.318,-57.614 -19.249,-36.182 -4.753,-18.96 0,0" /></g><g
           transform="translate(528.1152,289.502)"
           id="g44"><path
             id="path46"
             style="fill:#59a4ee;fill-opacity:1;fill-rule:evenodd;stroke:none"
             d="m 0,0 c -4.753,-18.96 -19.249,-36.182 -10.318,-57.614 -13.069,-12.564 -11.705,-30.874 -18.242,-46.049 -3.504,-8.135 -2.694,-18.431 -14.151,-23.345 -2.786,21.058 -5.48,41.431 -8.182,61.844 0.375,24.568 -0.157,49.145 1.316,73.608 3.508,58.253 21.163,111.888 55.065,159.805 0,0.011 2.102,-0.424 2.1,-0.404 C 17.502,111.349 7.748,55.723 0,0" /></g><g
           transform="translate(787.625,444.6533)"
           id="g48"><path
             id="path50"
             style="fill:#efad18;fill-opacity:1;fill-rule:evenodd;stroke:none"
             d="M 0,0 C -3.833,8.199 0.395,11.15 7.824,12.015" /></g></g></g></g></svg>