<?xml version="1.0" encoding="UTF-8" standalone="no"?>
<svg
   xmlns:dc="http://purl.org/dc/elements/1.1/"
   xmlns:cc="http://creativecommons.org/ns#"
   xmlns:rdf="http://www.w3.org/1999/02/22-rdf-syntax-ns#"
   xmlns:svg="http://www.w3.org/2000/svg"
   xmlns="http://www.w3.org/2000/svg"
   viewBox="0 0 1365.3333 1365.3333"
   height="1365.3333"
   width="1365.3333"
   xml:space="preserve"
   id="svg4642"
   version="1.1"><metadata
     id="metadata4648"><rdf:RDF><cc:Work
         rdf:about=""><dc:format>image/svg+xml</dc:format><dc:type
           rdf:resource="http://purl.org/dc/dcmitype/StillImage" /><dc:title></dc:title></cc:Work></rdf:RDF></metadata><defs
     id="defs4646"><clipPath
       id="clipPath4658"
       clipPathUnits="userSpaceOnUse"><path
         id="path4656"
         d="M 0,1024 H 1024 V 0 H 0 Z" /></clipPath><clipPath
       id="clipPath4674"
       clipPathUnits="userSpaceOnUse"><path
         id="path4672"
         d="M 0,1024 H 1024 V 0 H 0 Z" /></clipPath><clipPath
       id="clipPath4682"
       clipPathUnits="userSpaceOnUse"><path
         id="path4680"
         d="M 91,933 H 934 V 90 H 91 Z" /></clipPath><clipPath
       id="clipPath4698"
       clipPathUnits="userSpaceOnUse"><path
         id="path4696"
         d="M 0,1024 H 1024 V 0 H 0 Z" /></clipPath><clipPath
       id="clipPath4706"
       clipPathUnits="userSpaceOnUse"><path
         id="path4704"
         d="M 219.009,764.975 H 806.013 V 259 H 219.009 Z" /></clipPath></defs><g
     transform="matrix(1.3333333,0,0,-1.3333333,0,1365.3333)"
     id="g4650"><g
       id="g4652"><g
         clip-path="url(#clipPath4658)"
         id="g4654"><g
           transform="translate(834,933)"
           id="g4660"><path
             id="path4662"
             style="fill:#fff100;fill-opacity:1;fill-rule:nonzero;stroke:none"
             d="m 0,0 h -643 c -55.229,0 -100,-44.771 -100,-100 v -643 c 0,-55.229 44.771,-100 100,-100 H 0 c 55.229,0 100,44.771 100,100 v 643 C 100,-44.771 55.229,0 0,0" /></g><g
           transform="translate(736,805)"
           id="g4664"><path
             id="path4666"
             style="fill:#ec1c23;fill-opacity:1;fill-rule:nonzero;stroke:none"
             d="m 0,0 h -447 c -38.66,0 -70,-31.34 -70,-70 v -447 c 0,-38.66 31.34,-70 70,-70 H 0 c 38.66,0 70,31.34 70,70 V -70 C 70,-31.34 38.66,0 0,0" /></g></g></g><g
       id="g4668"><g
         clip-path="url(#clipPath4674)"
         id="g4670"><g
           id="g4676"><g
             id="g4678" /><g
             id="g4690"><g
               id="g4688"
               clip-path="url(#clipPath4682)"><g
                 id="g4686"
                 transform="translate(834,933)"><path
                   id="path4684"
                   style="fill:#50739e;fill-opacity:1;fill-rule:nonzero;stroke:none"
                   d="m 0,0 h -643 c -55.229,0 -100,-44.771 -100,-100 v -643 c 0,-55.229 44.771,-100 100,-100 H 0 c 55.229,0 100,44.771 100,100 v 643 C 100,-44.771 55.229,0 0,0" /></g></g></g></g></g></g><g
       id="g4692"><g
         clip-path="url(#clipPath4698)"
         id="g4694"><g
           id="g4700"><g
             id="g4702" /><g
             id="g4714"><g
               id="g4712"
               clip-path="url(#clipPath4706)"><g
                 id="g4710"
                 transform="translate(483.1426,479.9492)"><path
                   id="path4708"
                   style="fill:#ffffff;fill-opacity:1;fill-rule:evenodd;stroke:none"
                   d="M 0,0 C 3.603,33.384 26.363,61.816 59.016,63.105 55.892,45.426 50.072,29.213 37.076,16.4 26.921,6.39 14.554,1.145 0,0 m 265.292,32.612 c -1.952,10.038 -1.986,20.433 -3.484,30.579 -1.563,10.581 -3.36,21.191 -6.062,31.525 -3.159,12.084 -7.094,23.995 -11.273,35.774 -4.013,11.316 -8.679,22.402 -13.228,33.521 -3.241,7.922 -6.746,15.735 -10.159,23.585 -3.534,8.127 -7.101,16.239 -10.751,24.581 -23.294,-9.744 -46.518,-19.46 -69.993,-29.281 2.454,-4.599 4.815,-8.982 7.138,-13.384 4.662,-8.83 9.178,-17.741 13.981,-26.491 6.287,-11.455 13.314,-22.531 19.069,-34.24 7.147,-14.543 13.644,-29.43 19.817,-44.419 5.683,-13.803 9.896,-28.21 10.749,-43.161 0.753,-13.203 0.775,-26.519 -1.749,-39.638 -3.69,-19.172 -12.396,-35.808 -25.739,-49.983 -7.003,-7.439 -14.652,-14.105 -23.548,-19.324 -13.513,-7.927 -28.083,-12.298 -43.637,-12.647 -8.398,-0.187 -16.871,0.764 -25.235,1.81 -11.383,1.423 -22.261,4.942 -32.644,9.791 -13.832,6.458 -25.917,15.265 -35.821,27.034 -7.433,8.834 -13.305,18.52 -17.704,29.568 2.406,0.387 4.62,0.727 6.827,1.102 11.757,1.997 23.032,5.496 33.41,11.44 25.142,14.399 38.526,37.034 44.699,64.599 1.033,4.617 1.741,9.31 2.795,15.029 6.242,-3.921 12.335,-6.945 17.463,-11.147 9.234,-7.565 14.827,-17.712 17.575,-29.298 2.957,-12.47 4.138,-24.77 -2.684,-36.701 -7.151,-12.502 -18.122,-19.001 -31.88,-20.668 -8.892,-1.078 -17.894,-0.211 -26.545,2.73 -1.758,0.598 -4.075,1.489 -5.187,-0.61 -0.92,-1.736 -1.422,-4.095 -1.108,-6.013 1.211,-7.398 6.744,-10.808 13.141,-13.143 10.21,-3.725 20.723,-3.715 31.362,-2.541 12.825,1.415 24.572,5.529 35.062,13.15 14.173,10.297 21.34,24.325 21.836,41.681 0.164,5.738 -0.651,11.515 -1.174,17.259 -0.838,9.234 -3.552,17.971 -7.347,26.389 -6.101,13.531 -14.882,24.965 -26.314,34.486 -7.795,6.491 -16.241,12.005 -25.789,15.05 -5.964,1.902 -8.753,4.349 -9.892,10.76 -2.537,14.275 -9.281,26.919 -17.505,38.806 -15.957,23.058 -36.667,40.715 -61.308,53.751 -16.868,8.925 -34.796,14.723 -53.844,17.169 -14.764,1.894 -29.406,1.774 -43.833,-1.656 -32.115,-7.636 -58.9,-24.288 -81.066,-48.7 -11.506,-12.673 -20.785,-26.702 -27.759,-42.304 -8.592,-19.22 -13.083,-39.387 -13.483,-60.397 -0.353,-18.542 1.061,-36.988 3.638,-55.369 3.141,-22.414 8.162,-44.394 16.259,-65.488 8.222,-21.419 17.453,-42.452 26.305,-63.629 3.11,-7.444 6.403,-14.811 9.668,-22.339 23.328,9.774 46.491,19.479 70.23,29.426 -6.672,12.353 -12.883,24.443 -19.63,36.225 -14.875,25.979 -28.88,52.358 -39.777,80.313 -6.676,17.13 -11.609,34.555 -11.863,53.121 -0.206,15.113 0.729,30.048 5.506,44.51 6.603,19.992 19.324,35.632 35.34,48.754 14.187,11.623 30.67,18.053 48.846,19.789 13.103,1.25 26.124,0.003 38.947,-3.041 30.146,-7.156 54.246,-22.938 70.417,-49.807 2.795,-4.645 4.815,-9.755 7.081,-14.42 C 44.7,93.986 36.262,92.692 28.349,89.906 14.084,84.885 1.578,76.964 -8.509,65.316 -16.749,55.801 -22.706,45.12 -26.922,33.38 -30.067,24.621 -32.253,15.617 -33.183,6.332 -33.319,4.966 -33.76,4.197 -35.396,5.04 c -2.353,1.21 -4.903,2.046 -7.223,3.311 -10.07,5.479 -17.467,13.587 -22.356,23.871 -3.117,6.557 -4.785,13.557 -5.814,20.814 -2.2,15.522 1.691,28.616 13.927,38.829 7.506,6.265 16.314,9.081 25.93,9.629 8.198,0.467 16.16,-0.908 23.942,-3.405 2.309,-0.741 3.973,-0.282 5.045,2.008 1.466,3.133 0.505,6.088 -0.892,8.822 -2.846,5.572 -8.026,8.348 -13.67,10.019 -12.389,3.671 -24.98,3.513 -37.476,0.652 -13.535,-3.1 -25.89,-8.504 -35.551,-19.061 -8.849,-9.667 -13.139,-21.077 -13.584,-33.983 -0.178,-5.157 0.203,-10.351 0.591,-15.508 0.813,-10.797 3.884,-21.073 8.46,-30.784 6.63,-14.074 16.312,-25.822 28.803,-35.18 8.151,-6.103 17.003,-10.918 26.696,-14.047 2.563,-0.827 4.395,-0.978 5.015,-4.681 2.567,-15.296 8.854,-29.198 17.642,-41.957 6.894,-10.009 14.583,-19.372 23.737,-27.39 6.243,-5.467 12.642,-10.804 19.344,-15.684 11.177,-8.141 23.378,-14.468 36.266,-19.551 14.65,-5.778 29.823,-9.358 45.459,-10.296 8.612,-0.517 17.363,0.29 25.985,1.161 13.51,1.366 26.172,5.956 38.406,11.652 10.493,4.884 20.213,11.038 29.475,18.039 10.69,8.078 20.241,17.287 28.591,27.674 9.433,11.735 17.117,24.598 22.943,38.543 7.788,18.643 11.658,38.076 11.942,58.238 0.051,3.604 -0.157,7.246 -0.641,10.818 -0.68,4.987 0.704,9.834 -0.304,15.019 m 41.03,-38.655 c -1.039,-9.608 -1.706,-19.393 -4.129,-28.683 -3.02,-11.577 -7.178,-22.931 -11.742,-34.01 -7.296,-17.71 -18.546,-33.137 -30.176,-48.17 -5.048,-6.528 -11.57,-11.893 -16.958,-18.184 -7.971,-9.306 -17.766,-16.331 -27.818,-22.988 -25.068,-16.6 -52.444,-27.017 -82.479,-30.236 -30.869,-3.308 -60.365,1.93 -88.825,13.824 -20.133,8.414 -38.621,19.666 -55.186,33.83 -4.309,3.682 -7.245,4.107 -12.507,1.865 -48.379,-20.623 -96.934,-40.834 -145.438,-61.162 -3.876,-1.625 -3.877,-1.611 -5.625,2.259 -8.79,19.466 -17.872,38.806 -26.26,58.444 -4.584,10.733 -7.936,21.988 -11.952,32.967 -5.746,15.705 -11.668,31.346 -17.351,47.073 -1.972,5.46 -3.294,11.151 -5.195,16.64 -5.515,15.913 -8.281,32.415 -10.579,49.006 -2.45,17.675 -3.23,35.414 -2.666,53.287 0.482,15.28 1.848,30.348 5.811,45.122 9.814,36.583 28.988,67.565 56.334,93.565 22.947,21.821 49.461,37.661 79.827,46.837 16.439,4.968 33.272,7.47 52.49,7.444 41.6,-0.275 79.772,-16.135 114.713,-41.118 4.319,-3.087 8.505,-6.374 12.59,-9.762 1.719,-1.426 3.171,-1.461 5.106,-0.654 41.208,17.206 82.43,34.374 123.655,51.538 9.225,3.84 18.49,7.585 27.687,11.489 2.256,0.958 3.442,0.765 4.514,-1.704 17.825,-41.076 36.494,-81.803 50.826,-124.309 9.105,-27.007 16.285,-54.493 19.889,-82.805 2.597,-20.397 3.662,-40.889 1.444,-61.405 m 15.267,48.283 c -1.349,13.936 -3.292,27.865 -5.931,41.614 -5.898,30.719 -15.376,60.462 -27.161,89.374 -15.039,36.889 -30.883,73.451 -46.316,110.179 -0.918,2.185 -2.075,1.736 -3.657,1.077 -25.823,-10.754 -51.658,-21.478 -77.485,-32.218 -26.787,-11.14 -53.578,-22.27 -80.338,-33.475 -1.982,-0.831 -3.263,-0.533 -5.051,0.667 -11.054,7.42 -21.899,15.251 -33.462,21.796 -26.283,14.874 -54.516,24.184 -84.764,26.282 -19.268,1.336 -38.438,-0.015 -57.311,-4.6 -31.375,-7.624 -59.634,-21.613 -84.365,-42.286 -51.383,-42.953 -79.665,-97.345 -79.88,-165.103 -0.044,-14.026 0.762,-28.083 1.789,-42.08 1.293,-17.649 4.847,-34.965 9.068,-52.132 9.75,-39.647 24.699,-77.427 41.318,-114.592 5.968,-13.344 12.199,-26.569 18.378,-39.817 4.294,-9.21 8.705,-18.364 13.221,-27.875 1.15,0.379 2.048,0.609 2.894,0.964 23.295,9.749 46.571,19.542 69.878,29.261 27.03,11.273 54.167,22.299 81.066,33.875 5.514,2.372 9.066,1.565 13.61,-1.944 20.496,-15.826 43.084,-27.885 67.751,-35.874 22.536,-7.298 45.582,-11.224 69.35,-9.476 7.726,0.569 15.474,1.258 23.112,2.51 25.574,4.196 49.212,13.752 71.222,27.226 19.232,11.771 36.528,25.979 51.375,43.075 34.462,39.679 52.428,85.696 52.944,138.323 0.115,11.75 -0.125,23.567 -1.255,35.249" /></g></g></g></g></g></g></g></svg>