<?xml version="1.0" encoding="UTF-8" standalone="no"?>
<svg
   xmlns:dc="http://purl.org/dc/elements/1.1/"
   xmlns:cc="http://creativecommons.org/ns#"
   xmlns:rdf="http://www.w3.org/1999/02/22-rdf-syntax-ns#"
   xmlns:svg="http://www.w3.org/2000/svg"
   xmlns="http://www.w3.org/2000/svg"
   viewBox="0 0 1365.3333 1365.3333"
   height="1365.3333"
   width="1365.3333"
   xml:space="preserve"
   id="svg4716"
   version="1.1"><metadata
     id="metadata4722"><rdf:RDF><cc:Work
         rdf:about=""><dc:format>image/svg+xml</dc:format><dc:type
           rdf:resource="http://purl.org/dc/dcmitype/StillImage" /><dc:title></dc:title></cc:Work></rdf:RDF></metadata><defs
     id="defs4720"><clipPath
       id="clipPath4732"
       clipPathUnits="userSpaceOnUse"><path
         id="path4730"
         d="M 0,1024 H 1024 V 0 H 0 Z" /></clipPath></defs><g
     transform="matrix(1.3333333,0,0,-1.3333333,0,1365.3333)"
     id="g4724"><g
       id="g4726"><g
         clip-path="url(#clipPath4732)"
         id="g4728"><g
           transform="translate(932,189)"
           id="g4734"><path
             id="path4736"
             style="fill:#efefef;fill-opacity:1;fill-rule:nonzero;stroke:none"
             d="m 0,0 c 0,-55.229 -44.771,-100 -100,-100 h -643 c -55.229,0 -100,44.771 -100,100 v 643 c 0,55.229 44.771,100 100,100 h 643 C -44.771,743 0,698.229 0,643 Z" /></g><g
           transform="translate(692.5449,780.9307)"
           id="g4738"><path
             id="path4740"
             style="fill:#26bcb2;fill-opacity:1;fill-rule:nonzero;stroke:none"
             d="m 0,0 c 0,10.992 -10.318,12.069 -10.333,12.069 h -0.009 c -5.291,1 -10.844,-9.361 -10.844,-9.361 0,0 -139.89,-231.507 -146.515,-242.007 -6.625,-10.5 -13.906,-11.191 -21.531,0.809 -7.625,12 -145.772,242.197 -149.522,247.113 -3.493,4.579 -6.584,4.015 -6.993,3.916 0.126,10e-4 0.202,0.002 0.202,0.002 0,0 -10.333,-1.372 -10.333,-12.372 0,-3.466 -0.861,-59.1 -2.04,-134.1 h 0.002 c 0,0 100.871,-169.567 108.371,-181.817 7.5,-12.25 20,-12.183 20,-12.183 h 100.75 c 10.75,0 17.5,6.25 24.25,16.75 6.75,10.5 106.595,176.629 106.595,176.629 H 2.051 C 0.866,-59.315 0,-3.478 0,0" /></g><g
           transform="translate(210.2114,227.5)"
           id="g4742"><path
             id="path4744"
             style="fill:#b1f3e9;fill-opacity:1;fill-rule:nonzero;stroke:none"
             d="m 0,0 c 0,0 16.289,516 17.289,537 1,21 2.333,28 17.833,28 15.5,0 101.666,0.972 101.666,0.972 0,0 -10.333,-1.305 -10.333,-12.305 0,-11 -8.666,-553.917 -8.666,-553.917 z" /></g><g
           transform="translate(819,227)"
           id="g4746"><path
             id="path4748"
             style="fill:#b1f3e9;fill-opacity:1;fill-rule:nonzero;stroke:none"
             d="m 0,0 c 0,0 -16.289,516.375 -17.289,537.375 -1,21 -2.333,28.063 -17.833,28.063 -15.5,0 -101.667,1.002 -101.667,1.002 0,0 10.334,-1.414 10.334,-12.414 0,-11 8.666,-554.026 8.666,-554.026 z" /></g></g></g></g></svg>