<?xml version="1.0" encoding="UTF-8" standalone="no"?>
<svg
   xmlns:dc="http://purl.org/dc/elements/1.1/"
   xmlns:cc="http://creativecommons.org/ns#"
   xmlns:rdf="http://www.w3.org/1999/02/22-rdf-syntax-ns#"
   xmlns:svg="http://www.w3.org/2000/svg"
   xmlns="http://www.w3.org/2000/svg"
   viewBox="0 0 1365.3333 1365.3333"
   height="1365.3333"
   width="1365.3333"
   xml:space="preserve"
   id="svg4750"
   version="1.1"><metadata
     id="metadata4756"><rdf:RDF><cc:Work
         rdf:about=""><dc:format>image/svg+xml</dc:format><dc:type
           rdf:resource="http://purl.org/dc/dcmitype/StillImage" /><dc:title></dc:title></cc:Work></rdf:RDF></metadata><defs
     id="defs4754"><clipPath
       id="clipPath4766"
       clipPathUnits="userSpaceOnUse"><path
         id="path4764"
         d="M 0,1024 H 1024 V 0 H 0 Z" /></clipPath><clipPath
       id="clipPath4778"
       clipPathUnits="userSpaceOnUse"><path
         id="path4776"
         d="M 188.753,930 C 133.661,930 89,885.339 89,830.247 v 0 -641.494 C 89,133.661 133.661,89 188.753,89 v 0 H 830.247 C 885.339,89 930,133.661 930,188.753 v 0 641.494 C 930,885.339 885.339,930 830.247,930 v 0 z" /></clipPath></defs><g
     transform="matrix(1.3333333,0,0,-1.3333333,0,1365.3333)"
     id="g4758"><g
       id="g4760"><g
         clip-path="url(#clipPath4766)"
         id="g4762"><g
           transform="translate(930,188.753)"
           id="g4768"><path
             id="path4770"
             style="fill:#ffffff;fill-opacity:1;fill-rule:nonzero;stroke:none"
             d="M 0,0 C 0,-55.092 -44.661,-99.753 -99.753,-99.753 H -741.247 C -796.339,-99.753 -841,-55.092 -841,0 v 641.494 c 0,55.092 44.661,99.753 99.753,99.753 H -99.753 C -44.661,741.247 0,696.586 0,641.494 Z" /></g></g></g><g
       id="g4772"><g
         clip-path="url(#clipPath4778)"
         id="g4774"><g
           transform="translate(775.7684,910.9247)"
           id="g4780"><path
             id="path4782"
             style="fill:#26bcb2;fill-opacity:1;fill-rule:nonzero;stroke:none"
             d="m 0,0 c 0,16.41 -15.404,19.075 -15.426,19.075 h -0.013 c -7.899,1 -16.188,-14.246 -16.188,-14.246 0,0 -208.837,-345.745 -218.728,-361.42 -9.89,-15.675 -20.76,-16.775 -32.143,1.14 -11.383,17.914 -217.617,361.532 -223.215,368.871 -5.214,6.836 -9.83,5.977 -10.44,5.829 0.188,0.002 0.301,-0.005 0.301,-0.005 0,0 -15.425,-2.802 -15.425,-19.223 0,-5.174 -1.286,-86.946 -3.045,-200.946 h 0.003 c 0,0 150.586,-252.333 161.783,-270.62 11.196,-18.288 29.857,-17.38 29.857,-17.38 h 150.406 c 16.048,0 26.125,8.487 36.202,24.162 10.077,15.675 159.131,262.838 159.131,262.838 H 3.062 C 1.293,-88.925 0,-5.192 0,0" /></g><g
           transform="translate(55.7108,85.2421)"
           id="g4784"><path
             id="path4786"
             style="fill:#b1f3e9;fill-opacity:1;fill-rule:nonzero;stroke:none"
             d="m 0,0 c 0,0 24.317,770.317 25.81,801.667 1.492,31.35 3.482,41.8 26.622,41.8 23.139,0 151.774,1.451 151.774,1.451 0,0 -15.426,-1.949 -15.426,-18.37 0,-16.422 -12.938,-826.921 -12.938,-826.921 z" /></g><g
           transform="translate(964.5485,84)"
           id="g4788"><path
             id="path4790"
             style="fill:#b1f3e9;fill-opacity:1;fill-rule:nonzero;stroke:none"
             d="m 0,0 c 0,0 -24.317,771.125 -25.81,802.475 -1.493,31.35 -3.483,42.017 -26.622,42.017 -23.14,0 -151.775,1.559 -151.775,1.559 0,0 15.427,-2.328 15.427,-18.75 C -188.78,810.88 -175.843,0 -175.843,0 Z" /></g><path
           id="path4792"
           style="fill:#b1f3e9;fill-opacity:1;fill-rule:nonzero;stroke:none"
           d="m 777,0 h 246 V 981 H 777 Z" /><path
           id="path4794"
           style="fill:#b1f3e9;fill-opacity:1;fill-rule:nonzero;stroke:none"
           d="M 245,-69 H 5 V 963 h 240 z" /></g></g></g></svg>