<?xml version="1.0" encoding="UTF-8"?>
<svg width="1024px" height="1024px" viewBox="0 0 1024 1024" version="1.1" xmlns="http://www.w3.org/2000/svg" xmlns:xlink="http://www.w3.org/1999/xlink">
    <!-- Generator: Sketch 46.2 (44496) - http://www.bohemiancoding.com/sketch -->
    <title>MuseScore</title>
    <desc>Created with Sketch.</desc>
    <defs></defs>
    <g id="Page-1" stroke="none" stroke-width="1" fill="none" fill-rule="evenodd">
        <g id="MuseScore" fill-rule="nonzero">
            <rect id="Outer" fill="#F9F4E9" x="92" y="92" width="840" height="840" rx="100"></rect>
            <path d="M583.735124,641.036484 L583.360829,552.543588 C583.360829,538.890443 582.104203,526.510465 579.589568,515.334134 C577.399468,504.262764 573.197799,494.713333 566.985252,486.80784 C561.168514,478.938471 553.124311,472.836404 542.925991,468.503684 C533.086806,464.170965 520.481798,462.049248 505.184318,462.049248 C491.682512,462.049248 479.472622,464.737347 468.556033,470.112863 C457.639443,475.135328 448.302632,482.156829 440.617563,491.14056 C433.005152,500.088849 427.151739,510.522955 423.165967,522.373355 C419.14421,533.832536 417.13264,546.035307 417.13264,559.015745 L417.13264,734.592104 L406.216743,734.592104 L406.216743,556.857905 C406.216743,543.912226 405.103356,531.674014 402.912564,520.214151 C401.116891,508.719529 397.453578,498.674598 391.995975,490.009159 C386.53768,481.431642 378.852612,474.605751 369.013427,469.582604 C359.174241,464.57786 346.390012,462.049248 330.733398,462.049248 C316.871765,462.049248 303.74784,464.987531 292.472115,471.424929 C281.124426,477.526314 271.15244,486.161148 263.144911,496.930584 C255.459842,507.364688 249.499174,519.568141 245.117591,533.574338 C241.095836,547.581215 239.952572,562.375188 239.952572,577.867881 L239.952572,734.592104 L229,734.592104 L229,577.867884 C229,525.819234 243.864834,505.915679 249.323821,496.930585 C254.782115,487.946854 263.816387,479.479525 271.788625,472.652954 C279.832137,465.827062 289.215742,460.641245 298.695792,457.069154 C308.534977,453.107888 319.780134,451.243007 330.733398,451.243007 C352.63785,450.536222 370.844391,456.106668 385.424294,467.973426 C400.398622,479.46873 410.202516,495.420799 416.019946,515.899834 C421.513531,496.516758 432.286882,480.901383 448.302632,469.034625 C464.355055,457.185588 483.279174,451.243007 505.184318,451.243007 C522.348746,451.243007 536.533531,453.772301 547.84593,458.794766 C559.157636,463.852673 568.242569,470.838051 575.173386,479.787021 C582.104203,488.452461 587.02345,499.028332 589.968493,511.620277 C592.876862,523.823047 594.349383,537.439387 594.349383,552.543588 L594.447387,645.26547 C594.591982,658.997412 595.438129,671.200966 599.628457,681.254056 C604.367098,692.394946 610.760251,701.733092 618.731796,709.266448 C627.135135,716.482877 636.615185,721.859756 647.17264,725.396406 C658.125213,728.685647 669.616141,730.276424 681.646117,730.276424 C698.452101,730.276424 713.175935,727.235955 725.959471,721.150927 C738.707718,714.644691 749.301156,706.260739 757.667819,695.826634 C766.393618,685.074919 772.965991,672.658818 777.382172,658.61718 C781.727772,644.646425 783.917871,629.932082 783.917871,614.475511 L783.917871,457.751969 L794.835153,457.751969 L794.835153,614.475509 C794.835153,650.68462 787.192743,666.586239 787.192743,666.586239 C782.092892,688.161916 767.632155,705.501759 750.179867,719.473878 C733.015439,733.515515 709.369383,740.498561 681.646117,740.498561 C667.066907,740.498561 653.564409,738.517929 641.175297,734.592104 C629.181995,730.276424 618.587866,724.017597 609.467643,715.774729 C600.741152,707.109971 593.810335,696.674503 588.675192,684.473095 C585.191793,675.276034 584.329593,665.373551 583.755254,654.373745 C583.719271,650.235273 583.719271,645.319132 583.719271,641.038893 L583.735124,641.036484 L583.735124,641.036484 Z M678.307052,378.292876 C678.307052,371.484024 683.944568,365.966742 690.83871,365.966742 C697.769527,365.966742 703.37106,371.484024 703.37106,378.292876 C703.37106,385.119448 697.769527,390.636731 690.83871,390.636731 C683.944568,390.636731 678.307052,385.119448 678.307052,378.292876 Z M615.436402,309.346544 C592.713618,327.800607 580.703243,353.641914 580.703243,384.07597 L590.625586,384.07597 C590.625586,324.791713 640.863024,293.773104 690.488379,293.773104 C715.682447,293.773104 738.893286,301.667328 755.846849,316.002028 C774.95914,332.162465 785.062565,355.701596 785.062565,384.07597 L794.984908,384.07597 C794.984908,352.764167 783.68584,326.660208 762.310014,308.586074 C743.558647,292.731657 718.052026,284 690.488379,284 C662.625201,284 635.269924,293.238026 615.436402,309.346544 Z" id="Shape" stroke="#3D78A9" stroke-width="18" fill="#3D78A9"></path>
        </g>
    </g>
</svg>