<?xml version="1.0" encoding="UTF-8" standalone="no"?>
<svg
   xmlns:dc="http://purl.org/dc/elements/1.1/"
   xmlns:cc="http://creativecommons.org/ns#"
   xmlns:rdf="http://www.w3.org/1999/02/22-rdf-syntax-ns#"
   xmlns:svg="http://www.w3.org/2000/svg"
   xmlns="http://www.w3.org/2000/svg"
   viewBox="0 0 1365.3333 1365.3333"
   height="1365.3333"
   width="1365.3333"
   xml:space="preserve"
   id="svg4796"
   version="1.1"><metadata
     id="metadata4802"><rdf:RDF><cc:Work
         rdf:about=""><dc:format>image/svg+xml</dc:format><dc:type
           rdf:resource="http://purl.org/dc/dcmitype/StillImage" /><dc:title></dc:title></cc:Work></rdf:RDF></metadata><defs
     id="defs4800"><clipPath
       id="clipPath4812"
       clipPathUnits="userSpaceOnUse"><path
         id="path4810"
         d="M 0,1024 H 1024 V 0 H 0 Z" /></clipPath><clipPath
       id="clipPath4828"
       clipPathUnits="userSpaceOnUse"><path
         id="path4826"
         d="M 486.179,789.181 279.346,669.748 c -14.208,-8.205 -22.959,-23.365 -22.958,-39.771 v 0 l 0.016,-238.84 c 10e-4,-16.406 8.755,-31.565 22.963,-39.767 v 0 l 206.85,-119.406 c 14.208,-8.202 31.713,-8.201 45.921,0.004 v 0 L 738.97,351.401 c 14.208,8.204 22.959,23.364 22.958,39.771 v 0 l -0.016,238.839 c -0.001,16.406 -8.754,31.565 -22.963,39.767 v 0 L 532.1,789.184 c -7.103,4.101 -15.03,6.151 -22.958,6.151 v 0 c -7.929,0 -15.858,-2.052 -22.963,-6.154" /></clipPath><clipPath
       id="clipPath4836"
       clipPathUnits="userSpaceOnUse"><path
         id="path4834"
         d="M 251.395,665.191 H 766.898 V 218.704 H 251.395 Z" /></clipPath></defs><g
     transform="matrix(1.3333333,0,0,-1.3333333,0,1365.3333)"
     id="g4804"><g
       id="g4806"><g
         clip-path="url(#clipPath4812)"
         id="g4808"><g
           transform="translate(965.98,166.5286)"
           id="g4814"><path
             id="path4816"
             style="fill:#019875;fill-opacity:1;fill-rule:nonzero;stroke:none"
             d="m 0,0 c 0.341,-59.6 -47.698,-108.192 -107.298,-108.534 l -694.153,-3.975 c -59.601,-0.341 -108.193,47.698 -108.534,107.298 l -3.975,694.154 c -0.341,59.6 47.698,108.192 107.298,108.534 l 694.153,3.974 c 59.601,0.342 108.193,-47.697 108.534,-107.297 z" /></g><g
           transform="translate(486.2165,231.9643)"
           id="g4818"><path
             id="path4820"
             style="fill:#86e2d5;fill-opacity:1;fill-rule:nonzero;stroke:none"
             d="m 0,0 -206.849,119.406 c -14.209,8.202 -22.962,23.361 -22.963,39.767 l -0.016,238.84 c -0.002,16.406 8.75,31.566 22.957,39.77 L -0.037,557.217 c 14.207,8.204 31.712,8.205 45.92,0.003 l 206.85,-119.406 c 14.208,-8.202 22.962,-23.361 22.963,-39.767 l 0.016,-238.84 c 0.001,-16.406 -8.75,-31.566 -22.958,-39.77 L 45.921,0.003 C 31.713,-8.201 14.209,-8.202 0,0" /></g></g></g><g
       id="g4822"><g
         clip-path="url(#clipPath4828)"
         id="g4824"><g
           id="g4830"><g
             id="g4832" /><g
             id="g4844"><g
               style="opacity:0.80000299"
               id="g4842"
               clip-path="url(#clipPath4836)"><g
                 id="g4840"
                 transform="translate(509,511)"><path
                   id="path4838"
                   style="fill:none;stroke:#ffffff;stroke-width:20;stroke-linecap:butt;stroke-linejoin:miter;stroke-miterlimit:10;stroke-dasharray:none;stroke-opacity:1"
                   d="M 0,0 0.178,-292.29 M 252.911,145.523 0,0 -252.614,145.49" /></g></g></g></g></g></g></g></svg>