<?xml version="1.0" encoding="UTF-8" standalone="no"?>
<svg
   xmlns:dc="http://purl.org/dc/elements/1.1/"
   xmlns:cc="http://creativecommons.org/ns#"
   xmlns:rdf="http://www.w3.org/1999/02/22-rdf-syntax-ns#"
   xmlns:svg="http://www.w3.org/2000/svg"
   xmlns="http://www.w3.org/2000/svg"
   viewBox="0 0 1280 1280"
   height="1280"
   width="1280"
   xml:space="preserve"
   version="1.1"
   id="svg2"><metadata
     id="metadata8"><rdf:RDF><cc:Work
         rdf:about=""><dc:format>image/svg+xml</dc:format><dc:type
           rdf:resource="http://purl.org/dc/dcmitype/StillImage" /><dc:title></dc:title></cc:Work></rdf:RDF></metadata><defs
     id="defs6"><clipPath
       id="clipPath16"
       clipPathUnits="userSpaceOnUse"><path
         id="path18"
         d="m 677.766,933.5 -487.266,0 c -27.621,0 -52.626,-11.198 -70.724,-29.302 l 0,0 C 101.687,886.102 90.5,861.107 90.5,833.5 l 0,0 0,-345.068 0,-297.932 c 0,-27.621 11.198,-52.627 29.303,-70.723 l 0,0 C 137.898,101.687 162.893,90.5 190.5,90.5 l 0,0 487.264,0 155.736,0 c 27.615,0 52.614,11.194 70.711,29.289 l 0,0 c 18.096,18.096 29.289,43.097 29.289,70.711 l 0,0 0,297.943 0,345.057 c 0,27.607 -11.187,52.602 -29.276,70.698 l 0,0 C 886.126,922.302 861.121,933.5 833.5,933.5 l 0,0 -155.734,0 z" /></clipPath><clipPath
       id="clipPath62"
       clipPathUnits="userSpaceOnUse"><path
         id="path64"
         d="m 0,1024 1024,0 L 1024,0 0,0 0,1024 Z" /></clipPath><clipPath
       id="clipPath86"
       clipPathUnits="userSpaceOnUse"><path
         id="path88"
         d="m 363.307,503.162 c 0,-83.154 65.846,-150.566 147.072,-150.566 l 0,0 c 81.225,0 147.072,67.412 147.072,150.566 l 0,0 c 0,83.157 -65.847,150.569 -147.072,150.569 l 0,0 c -81.226,0 -147.072,-67.412 -147.072,-150.569" /></clipPath></defs><g
     transform="matrix(1.25,0,0,-1.25,0,1280)"
     id="g10"><g
       id="g12"><g
         clip-path="url(#clipPath16)"
         id="g14"><g
           id="g20"><g
             transform="scale(1,-1)"
             id="g22"><g
               id="g24"><path
                 id="path26"
                 style="fill:#ffffff;fill-opacity:1;fill-rule:nonzero;stroke:none"
                 d="M 119.80273,-119.77637 C 137.89795,-101.6875 162.89258,-90.5 190.5,-90.5 c -14.47656,-20.05566 -23.4292,-47.01758 -23.43018,-76.59473 -29.56543,0 -56.51855,-8.94531 -76.56982,-23.40527 0,27.62109 11.19824,52.62695 29.30273,70.72363 z" /><path
                 id="path28"
                 style="fill:#ffffff;fill-opacity:1;fill-rule:nonzero;stroke:none"
                 d="m 190.5,-90.5 c 162.42139,0 324.84277,0 487.26367,0 7.45703,-20.05371 12.06934,-47.01367 12.06934,-76.58789 -174.25391,-0.002 -348.50781,-0.004 -522.76319,-0.007 9.8e-4,29.57715 8.95362,56.53907 23.43018,76.59473 z" /><path
                 id="path30"
                 style="fill:#ffffff;fill-opacity:1;fill-rule:nonzero;stroke:none"
                 d="m 677.76367,-90.5 c 51.91211,0 103.82422,0 155.73633,0 14.46777,-20.05469 23.41699,-47.01172 23.41699,-76.58496 -55.69629,-9.8e-4 -111.38965,-0.002 -167.08398,-0.003 0,29.57422 -4.61231,56.53418 -12.06934,76.58789 z" /><path
                 id="path32"
                 style="fill:#ffffff;fill-opacity:1;fill-rule:nonzero;stroke:none"
                 d="m 833.5,-90.5 c 27.61426,0 52.61426,-11.19336 70.71094,-29.28906 C 922.30664,-137.88574 933.5,-162.88574 933.5,-190.5 c -20.05273,14.4668 -47.01172,23.41504 -76.58301,23.41504 0,29.57324 -8.94922,56.53027 -23.41699,76.58496 z" /><path
                 id="path34"
                 style="fill:#ffffff;fill-opacity:1;fill-rule:nonzero;stroke:none"
                 d="m 90.5,-190.5 c 20.05127,14.45996 47.00439,23.40527 76.56982,23.40527 0.003,-106.54589 0.006,-213.09082 0.009,-319.63672 -29.5708,9.8e-4 -56.52734,-0.64843 -76.57861,-1.70019 0,99.31055 0,198.62109 0,297.93164 z" /><path
                 id="path36"
                 style="fill:#ffffff;fill-opacity:1;fill-rule:nonzero;stroke:none"
                 d="m 167.06982,-167.09473 c 174.25538,0.003 348.50928,0.005 522.76319,0.007 0,-106.54883 0,-213.09766 0,-319.64453 -174.25098,0 -348.50196,0 -522.7544,9.7e-4 -0.003,106.5459 -0.006,213.09083 -0.009,319.63672 z" /><path
                 id="path38"
                 style="fill:#ffffff;fill-opacity:1;fill-rule:nonzero;stroke:none"
                 d="m 689.83301,-167.08789 c 55.69433,9.8e-4 111.38769,0.002 167.08398,0.003 -0.002,-106.55176 -0.003,-213.09863 -0.004,-319.64844 -55.69434,0 -111.38575,-9.8e-4 -167.08008,9.8e-4 0,106.54687 0,213.0957 0,319.64453 z" /><path
                 id="path40"
                 style="fill:#ffffff;fill-opacity:1;fill-rule:nonzero;stroke:none"
                 d="m 856.91699,-167.08496 c 29.57129,0 56.53028,-8.94824 76.58301,-23.41504 0,-99.31445 0,-198.62891 0,-297.94336 -20.05371,1.05664 -47.01367,1.71094 -76.58691,1.70996 9.7e-4,106.54981 0.002,213.09668 0.004,319.64844 z" /><path
                 id="path42"
                 style="fill:#ffffff;fill-opacity:1;fill-rule:nonzero;stroke:none"
                 d="m 90.5,-488.43164 c 20.05127,1.05176 47.00781,1.70117 76.57861,1.70019 0.004,-123.39941 0.007,-246.80078 0.0103,-370.20263 -29.57666,9.7e-4 -56.53565,8.95605 -76.58887,23.43408 0,115.02295 0,230.0459 0,345.06836 z" /><path
                 id="path44"
                 style="fill:#ffffff;fill-opacity:1;fill-rule:nonzero;stroke:none"
                 d="m 167.07861,-486.73145 c 174.25244,-9.7e-4 348.50342,-9.7e-4 522.7544,-9.7e-4 -9.8e-4,-123.40039 -9.8e-4,-246.79981 9.7e-4,-370.20069 -174.24902,-4.8e-4 -348.49658,-4.8e-4 -522.74511,-9.7e-4 -0.003,123.40185 -0.006,246.80322 -0.0103,370.20263 z" /><path
                 id="path46"
                 style="fill:#ffffff;fill-opacity:1;fill-rule:nonzero;stroke:none"
                 d="m 689.83301,-486.73242 c 55.69433,-0.002 111.38574,-9.8e-4 167.08008,-9.8e-4 -9.8e-4,-123.39941 -0.003,-246.79883 -0.004,-370.19922 -55.69238,0 -111.38379,-4.9e-4 -167.0752,-4.9e-4 -0.002,123.40088 -0.002,246.8003 -9.7e-4,370.20069 z" /><path
                 id="path48"
                 style="fill:#ffffff;fill-opacity:1;fill-rule:nonzero;stroke:none"
                 d="m 856.91309,-486.7334 c 29.57324,9.8e-4 56.5332,-0.65332 76.58691,-1.70996 0,-115.01855 0,-230.0376 0,-345.05664 -20.05273,-14.47754 -47.01563,-23.43262 -76.59082,-23.43262 9.8e-4,123.40039 0.003,246.79981 0.004,370.19922 z" /><path
                 id="path50"
                 style="fill:#ffffff;fill-opacity:1;fill-rule:nonzero;stroke:none"
                 d="m 90.5,-833.5 c 20.05322,-14.47803 47.01221,-23.43311 76.58887,-23.43408 9.7e-4,-29.56299 8.94677,-56.51465 23.41113,-76.56592 -27.62109,0 -52.62646,11.19824 -70.72412,29.30273 C 101.6875,-886.10205 90.5,-861.10742 90.5,-833.5 Z" /><path
                 id="path52"
                 style="fill:#ffffff;fill-opacity:1;fill-rule:nonzero;stroke:none"
                 d="m 167.08887,-856.93408 c 174.24853,4.9e-4 348.49609,4.9e-4 522.74511,9.7e-4 9.8e-4,-29.56298 -4.61132,-56.51513 -12.06835,-76.56689 -162.42188,0 -324.84376,0 -487.26563,0 -14.46436,20.05127 -23.41016,47.00293 -23.41113,76.56592 z" /><path
                 id="path54"
                 style="fill:#ffffff;fill-opacity:1;fill-rule:nonzero;stroke:none"
                 d="m 689.83398,-856.93311 c 55.69141,0 111.38282,4.9e-4 167.0752,4.9e-4 0,-29.56347 -8.94629,-56.51562 -23.40918,-76.56738 -51.91113,0 -103.82227,0 -155.73437,0 7.45703,20.05176 12.06933,47.00391 12.06835,76.56689 z" /><path
                 id="path56"
                 style="fill:#ffffff;fill-opacity:1;fill-rule:nonzero;stroke:none"
                 d="m 856.90918,-856.93262 c 29.57519,0 56.53809,8.95508 76.59082,23.43262 0,-27.60742 -11.1875,-52.60205 -29.27637,-70.69727 C 886.12695,-922.30176 861.12109,-933.5 833.5,-933.5 c 14.46289,20.05176 23.40918,47.00391 23.40918,76.56738 z" /></g></g></g></g></g><g
       id="g58"><g
         clip-path="url(#clipPath62)"
         id="g60"><g
           transform="translate(468.6333,632.7822)"
           id="g66"><path
             id="path68"
             style="fill:#424040;fill-opacity:1;fill-rule:nonzero;stroke:#414042;stroke-width:1;stroke-linecap:butt;stroke-linejoin:miter;stroke-miterlimit:10;stroke-dasharray:none;stroke-opacity:1"
             d="m 0,0 c -43.101,44.141 -86.215,88.295 -129.316,132.436 -13.19,13.51 -23.631,29.187 -46.079,37.873 -9.85,3.812 -16.013,0.247 -16.013,0.247 -17.884,-9.695 -62.033,-43.92 -60.482,-73.268 8.374,-23.257 29.051,-41.053 44.126,-56.491 41.467,-42.257 82.947,-84.528 124.413,-126.785" /></g><g
           transform="translate(384.2817,546.5688)"
           id="g70"><path
             id="path72"
             style="fill:#939598;fill-opacity:1;fill-rule:nonzero;stroke:#969696;stroke-width:1;stroke-linecap:butt;stroke-linejoin:miter;stroke-miterlimit:10;stroke-dasharray:none;stroke-opacity:1"
             d="m 0,0 c -1.868,-10.418 -3.737,-20.837 -5.605,-31.254 -4.564,-28.515 6.751,-54.766 14.947,-72.075 -13.908,-13.606 -27.82,-27.214 -41.728,-40.82 -33.42,-31.677 -66.85,-63.362 -100.271,-95.037 -15.468,-15.814 -25.979,-46.168 -9.342,-68.886 12.87,-17.573 42.087,-23.813 63.526,-10.206 14.926,9.477 27.706,26.983 38.614,40.822 18.059,20.197 36.125,40.399 54.183,60.594 13.493,14.669 26.99,29.341 40.483,44.01 3.736,3.827 7.474,7.654 11.211,11.48 4.566,-2.124 9.134,-4.252 13.701,-6.378 13.902,-5.563 35.72,-11.535 56.053,-8.292 21.258,3.391 39.404,7.359 54.806,16.584 5.397,3.614 10.796,7.23 16.193,10.843 20.135,-20.408 40.277,-40.823 60.412,-61.23 4.359,-14.032 8.719,-28.067 13.079,-42.098 31.137,-24.872 62.283,-49.753 93.42,-74.626 11.338,9.302 19.362,18.442 31.141,30.616 l 0,1.276 c -24.287,31.887 -48.58,63.785 -72.869,95.675 -14.115,4.676 -28.235,9.355 -42.35,14.031 -19.72,20.195 -39.446,40.398 -59.167,60.595 0.624,1.063 1.246,2.125 1.869,3.189 6.361,10.144 13.411,20.379 18.061,32.529 7.047,18.407 11.34,48.476 6.228,72.712 -2.075,7.865 -4.153,15.734 -6.228,23.6 10.588,7.441 21.176,14.883 31.763,22.324 18.588,-7.547 49.051,-0.073 61.658,5.103 36.72,15.071 88.286,62.579 76.604,122.462 -2.16,11.071 -4.976,20.868 -7.473,30.616 -19.72,-19.983 -39.445,-39.972 -59.166,-59.955 -9.755,-0.85 -19.516,-1.702 -29.271,-2.552 l -0.624,0 c -11.832,12.118 -23.668,24.239 -35.5,36.356 1.038,9.141 2.077,18.285 3.114,27.427 19.72,20.409 39.446,40.823 59.167,61.232 -0.207,0.424 -0.417,0.851 -0.624,1.276 -74.681,20.663 -132.246,-14.216 -150.717,-74.627 -3.443,-11.254 -7.355,-28.969 -4.983,-44.01 0.623,-5.102 1.245,-10.206 1.868,-15.307 -7.058,-10.63 -14.118,-21.262 -21.176,-31.893 -8.095,2.126 -16.192,4.253 -24.289,6.379 -21.454,4.785 -49.453,1.461 -66.017,-5.103" /></g><g
           transform="translate(285.8643,247.5508)"
           id="g74"><path
             id="path76"
             style="fill:#ffffff;fill-opacity:1;fill-rule:nonzero;stroke:none"
             d="m 0,0 c -14.413,0 -26.097,11.684 -26.097,26.097 0,14.413 11.684,26.096 26.097,26.096 14.413,0 26.097,-11.683 26.097,-26.096 C 26.097,11.684 14.413,0 0,0" /></g><g
           transform="translate(510.3789,653.7217)"
           id="g78"><path
             id="path80"
             style="fill:#a6aecc;fill-opacity:1;fill-rule:nonzero;stroke:none"
             d="m 0,0 c -81.226,0 -147.071,-67.409 -147.071,-150.562 0,-83.154 65.845,-150.564 147.071,-150.564 81.226,0 147.072,67.41 147.072,150.564 C 147.072,-67.409 81.226,0 0,0" /></g></g></g><g
       id="g82"><g
         clip-path="url(#clipPath86)"
         id="g84"><g
           transform="translate(366.5937,551.7187)"
           id="g90"><path
             id="path92"
             style="fill:none;stroke:#ffffff;stroke-width:4.11999989;stroke-linecap:square;stroke-linejoin:miter;stroke-miterlimit:10;stroke-dasharray:none;stroke-opacity:1"
             d="M 0,0 C -7.272,-19.739 162.065,-122.069 291.926,-55.581" /></g><g
           transform="translate(374.9043,572.4961)"
           id="g94"><path
             id="path96"
             style="fill:none;stroke:#ffffff;stroke-width:4.11999989;stroke-linecap:square;stroke-linejoin:miter;stroke-miterlimit:10;stroke-dasharray:none;stroke-opacity:1"
             d="M 0,0 C 31.168,-58.179 206.738,-34.802 219.205,59.735" /></g><g
           transform="translate(541.125,655.0879)"
           id="g98"><path
             id="path100"
             style="fill:none;stroke:#ffffff;stroke-width:4.11999989;stroke-linecap:square;stroke-linejoin:miter;stroke-miterlimit:10;stroke-dasharray:none;stroke-opacity:1"
             d="M 0,0 C -54.021,1.038 -183.371,-141.271 -90.391,-289.831" /></g><g
           transform="translate(595.1484,380.3037)"
           id="g102"><path
             id="path104"
             style="fill:none;stroke:#ffffff;stroke-width:4.11999989;stroke-linecap:square;stroke-linejoin:miter;stroke-miterlimit:10;stroke-dasharray:none;stroke-opacity:1"
             d="M 0,0 C -175.571,-1.039 -200.505,238.942 -133.497,270.108" /></g><g
           transform="translate(565.0195,648.335)"
           id="g106"><path
             id="path108"
             style="fill:none;stroke:#ffffff;stroke-width:4.11999989;stroke-linecap:square;stroke-linejoin:miter;stroke-miterlimit:10;stroke-dasharray:none;stroke-opacity:1"
             d="M 0,0 C -8.311,-1.039 -97.654,-127.264 65.45,-230.632" /></g><g
           transform="translate(549.4365,651.9707)"
           id="g110"><path
             id="path112"
             style="fill:none;stroke:#ffffff;stroke-width:4.11999989;stroke-linecap:square;stroke-linejoin:miter;stroke-miterlimit:10;stroke-dasharray:none;stroke-opacity:1"
             d="M 0,0 C 0,0 119.472,-111.16 38.439,-277.382" /></g><g
           transform="translate(507.3623,353.8213)"
           id="g114"><path
             id="path116"
             style="fill:none;stroke:#ffffff;stroke-width:4.11999989;stroke-linecap:square;stroke-linejoin:miter;stroke-miterlimit:10;stroke-dasharray:none;stroke-opacity:1"
             d="M 0,0 C -31.687,164.662 100.771,245.686 129.86,232.181" /></g><g
           transform="translate(529.1875,354.8594)"
           id="g118"><path
             id="path120"
             style="fill:none;stroke:#ffffff;stroke-width:4.11999989;stroke-linecap:square;stroke-linejoin:miter;stroke-miterlimit:10;stroke-dasharray:none;stroke-opacity:1"
             d="M 0,0 C 0,0 19.21,104.918 125.177,113.748" /></g><g
           transform="translate(512.5566,408.3525)"
           id="g122"><path
             id="path124"
             style="fill:#ffffff;fill-opacity:1;fill-rule:nonzero;stroke:none"
             d="m 0,0 c 0,-5.738 -4.65,-10.389 -10.389,-10.389 -5.738,0 -10.388,4.651 -10.388,10.389 0,5.738 4.65,10.39 10.388,10.39 C -4.65,10.39 0,5.738 0,0" /></g><g
           transform="translate(546.3379,388.2725)"
           id="g126"><path
             id="path128"
             style="fill:#ffffff;fill-opacity:1;fill-rule:nonzero;stroke:none"
             d="m 0,0 c 0,-3.259 -2.642,-5.9 -5.901,-5.9 -3.259,0 -5.901,2.641 -5.901,5.9 0,3.259 2.642,5.901 5.901,5.901 C -2.642,5.901 0,3.259 0,0" /></g><g
           transform="translate(591.0283,604.0508)"
           id="g130"><path
             id="path132"
             style="fill:#ffffff;fill-opacity:1;fill-rule:nonzero;stroke:none"
             d="m 0,0 c 0,-3.672 -2.977,-6.647 -6.649,-6.647 -3.672,0 -6.649,2.975 -6.649,6.647 0,3.673 2.977,6.648 6.649,6.648 C -2.977,6.648 0,3.673 0,0" /></g><g
           transform="translate(606.3896,577.3428)"
           id="g134"><path
             id="path136"
             style="fill:#ffffff;fill-opacity:1;fill-rule:nonzero;stroke:none"
             d="m 0,0 c 0,-4.393 -3.561,-7.954 -7.953,-7.954 -4.394,0 -7.955,3.561 -7.955,7.954 0,4.394 3.561,7.954 7.955,7.954 C -3.561,7.954 0,4.394 0,0" /></g><g
           transform="translate(443.4707,542.6279)"
           id="g138"><path
             id="path140"
             style="fill:#ffffff;fill-opacity:1;fill-rule:nonzero;stroke:none"
             d="m 0,0 c 0,-7.028 -5.697,-12.726 -12.727,-12.726 -7.028,0 -12.725,5.698 -12.725,12.726 0,7.029 5.697,12.727 12.725,12.727 C -5.697,12.727 0,7.029 0,0" /></g><g
           transform="translate(427.8877,507.2305)"
           id="g142"><path
             id="path144"
             style="fill:#ffffff;fill-opacity:1;fill-rule:nonzero;stroke:none"
             d="m 0,0 c 0,-3.637 -2.948,-6.586 -6.586,-6.586 -3.638,0 -6.587,2.949 -6.587,6.586 0,3.639 2.949,6.587 6.587,6.587 C -2.948,6.587 0,3.639 0,0" /></g><g
           transform="translate(444.5273,500.9141)"
           id="g146"><path
             id="path148"
             style="fill:#ffffff;fill-opacity:1;fill-rule:nonzero;stroke:none"
             d="m 0,0 c 0,-3.324 -2.693,-6.018 -6.017,-6.018 -3.322,0 -6.015,2.694 -6.015,6.018 0,3.322 2.693,6.015 6.015,6.015 C -2.693,6.015 0,3.322 0,0" /></g><g
           transform="translate(541.125,559.251)"
           id="g150"><path
             id="path152"
             style="fill:#ffffff;fill-opacity:1;fill-rule:nonzero;stroke:none"
             d="m 0,0 c 0,-4.16 -3.371,-7.532 -7.531,-7.532 -4.159,0 -7.532,3.372 -7.532,7.532 0,4.159 3.373,7.531 7.532,7.531 C -3.371,7.531 0,4.159 0,0" /></g><g
           transform="translate(525.0498,477.4814)"
           id="g154"><path
             id="path156"
             style="fill:#ffffff;fill-opacity:1;fill-rule:nonzero;stroke:none"
             d="m 0,0 c 0,-5.484 -4.446,-9.93 -9.93,-9.93 -5.484,0 -9.929,4.446 -9.929,9.93 0,5.483 4.445,9.93 9.929,9.93 C -4.446,9.93 0,5.483 0,0" /></g><g
           transform="translate(547.0283,523.0312)"
           id="g158"><path
             id="path160"
             style="fill:#ffffff;fill-opacity:1;fill-rule:nonzero;stroke:none"
             d="m 0,0 c 0,-4.401 -3.567,-7.97 -7.97,-7.97 -4.404,0 -7.97,3.569 -7.97,7.97 0,4.403 3.566,7.972 7.97,7.972 C -3.567,7.972 0,4.403 0,0" /></g><g
           transform="translate(624.7734,480.3887)"
           id="g162"><path
             id="path164"
             style="fill:#ffffff;fill-opacity:1;fill-rule:nonzero;stroke:none"
             d="m 0,0 c 0,-4.801 -3.891,-8.691 -8.69,-8.691 -4.8,0 -8.69,3.89 -8.69,8.691 0,4.8 3.89,8.69 8.69,8.69 C -3.891,8.69 0,4.8 0,0" /></g><g
           transform="translate(618.9453,459.6221)"
           id="g166"><path
             id="path168"
             style="fill:#ffffff;fill-opacity:1;fill-rule:nonzero;stroke:none"
             d="m 0,0 c 0,-2.501 -2.188,-4.528 -4.886,-4.528 -2.7,0 -4.886,2.027 -4.886,4.528 0,2.502 2.186,4.529 4.886,4.529 C -2.188,4.529 0,2.502 0,0" /></g><g
           transform="translate(596.1953,447.3779)"
           id="g170"><path
             id="path172"
             style="fill:#ffffff;fill-opacity:1;fill-rule:nonzero;stroke:none"
             d="m 0,0 c 0,-2.916 -2.303,-5.278 -5.145,-5.278 -2.841,0 -5.145,2.362 -5.145,5.278 0,2.916 2.304,5.278 5.145,5.278 C -2.303,5.278 0,2.916 0,0" /></g><g
           transform="translate(614.9043,432.4277)"
           id="g174"><path
             id="path176"
             style="fill:#ffffff;fill-opacity:1;fill-rule:nonzero;stroke:none"
             d="m 0,0 c 0,-3.266 -2.646,-5.912 -5.912,-5.912 -3.266,0 -5.911,2.646 -5.911,5.912 0,3.266 2.645,5.91 5.911,5.91 C -2.646,5.91 0,3.266 0,0" /></g></g></g></g></svg>