<?xml version="1.0" encoding="UTF-8" standalone="no"?>
<svg
   xmlns:dc="http://purl.org/dc/elements/1.1/"
   xmlns:cc="http://creativecommons.org/ns#"
   xmlns:rdf="http://www.w3.org/1999/02/22-rdf-syntax-ns#"
   xmlns:svg="http://www.w3.org/2000/svg"
   xmlns="http://www.w3.org/2000/svg"
   viewBox="0 0 1365.3333 1365.3333"
   height="1365.3333"
   width="1365.3333"
   xml:space="preserve"
   id="svg4892"
   version="1.1"><metadata
     id="metadata4898"><rdf:RDF><cc:Work
         rdf:about=""><dc:format>image/svg+xml</dc:format><dc:type
           rdf:resource="http://purl.org/dc/dcmitype/StillImage" /><dc:title></dc:title></cc:Work></rdf:RDF></metadata><defs
     id="defs4896"><clipPath
       id="clipPath4908"
       clipPathUnits="userSpaceOnUse"><path
         id="path4906"
         d="M 0,1024 H 1024 V 0 H 0 Z" /></clipPath></defs><g
     transform="matrix(1.3333333,0,0,-1.3333333,0,1365.3333)"
     id="g4900"><g
       id="g4902"><g
         clip-path="url(#clipPath4908)"
         id="g4904"><g
           transform="translate(932,189)"
           id="g4910"><path
             id="path4912"
             style="fill:#6baf88;fill-opacity:1;fill-rule:nonzero;stroke:none"
             d="m 0,0 c 0,-55.229 -44.771,-100 -100,-100 h -643 c -55.229,0 -100,44.771 -100,100 v 643 c 0,55.229 44.771,100 100,100 h 643 C -44.771,743 0,698.229 0,643 Z" /></g><g
           transform="translate(936.4453,317.4414)"
           id="g4914"><path
             id="path4916"
             style="fill:#fdfaf4;fill-opacity:1;fill-rule:evenodd;stroke:none"
             d="m 0,0 c 0.024,-24.841 -0.015,-50.218 -0.115,-73.375 0.321,-0.107 0.626,-0.235 0.898,-0.398 0.004,24.742 0.012,49.485 0.015,74.228 C 0.557,0.277 0.285,0.131 0,0" /></g><g
           transform="translate(560.665,556.0269)"
           id="g4918"><path
             id="path4920"
             style="fill:#feb501;fill-opacity:1;fill-rule:evenodd;stroke:none"
             d="M 0,0 C 1.689,1.682 3.378,3.361 5.067,5.041 3.378,3.358 1.689,1.679 0,0" /></g><g
           transform="translate(535.8379,532.2817)"
           id="g4922"><path
             id="path4924"
             style="fill:#feb501;fill-opacity:1;fill-rule:evenodd;stroke:none"
             d="M 0,0 C 0,0 -0.38,-0.348 -0.385,-0.355 -0.392,-0.36 0,0 0,0" /></g><g
           transform="translate(255.2236,299.0801)"
           id="g4926"><path
             id="path4928"
             style="fill:#22da2a;fill-opacity:1;fill-rule:evenodd;stroke:none"
             d="m 0,0 c -1.315,0.042 -2.631,0.086 -3.946,0.128 -7.188,-1.969 -14.858,-4.327 -12.21,-13.951 2.14,-7.775 9.725,-7.098 16.154,-7.24 3.576,-0.081 7.154,-0.037 10.732,-0.037 163.857,-0.002 327.713,-0.027 491.57,0.057 7.834,0.005 15.668,0.968 23.501,1.485 3.463,1.732 4.866,4.534 4.334,8.341 C 525.881,2.332 514.383,-1.021 504.937,-1.002 413.965,-0.827 322.99,-1.059 232.017,-0.911 154.678,-0.787 77.339,-0.318 0,0" /></g><g
           transform="translate(641.5098,740.6943)"
           id="g4930"><path
             id="path4932"
             style="fill:#fcfdfb;fill-opacity:1;fill-rule:evenodd;stroke:none"
             d="m 0,0 c -1.338,-57.626 -3.038,-115.252 0.128,-172.876 -1.681,-53.215 -2.953,-106.433 0.011,-159.649 -0.295,-24.119 -0.589,-48.235 -0.884,-72.348 -0.015,-1.673 -0.029,-3.347 -0.044,-5.023 -0.522,-7.125 -4.809,-9.812 -11.456,-9.725 -35.694,0.467 -71.445,-2.531 -107.074,1.741 -0.549,1.462 -1.102,2.927 -1.656,4.393 -0.05,2.692 -0.1,5.383 -0.149,8.067 0.025,1.571 0.051,3.151 0.076,4.732 -0.072,27.14 -0.145,54.281 -0.217,81.423 0.004,51.711 0.008,103.425 0.013,155.138 -0.036,54.599 -0.072,109.198 -0.105,163.795 3.92,5.278 9.704,5.57 15.474,5.583 30.054,0.076 60.111,0.082 90.166,0.086 C -9.892,5.337 -4.245,4.704 0,0" /></g><g
           transform="translate(781.3047,581.0371)"
           id="g4934"><path
             id="path4936"
             style="fill:#fcfdfb;fill-opacity:1;fill-rule:evenodd;stroke:none"
             d="m 0,0 c 0.004,-61.787 0.009,-123.572 0.015,-185.359 -0.137,-21.579 -0.272,-43.161 -0.409,-64.737 -0.796,-2.928 -1.594,-5.861 -2.391,-8.791 -38.965,-2.39 -77.935,-2.017 -116.906,-0.202 l -0.259,1.838 -1.738,0.692 c -0.33,27.961 -0.66,55.92 -0.99,83.882 0.012,53.562 0.028,107.127 0.039,160.689 0.312,1.382 0.842,2.755 0.906,4.148 2.132,47.211 2.126,47.215 48.9,47.203 15.636,-0.002 31.4,-1.283 46.877,0.283 C -6.181,41.649 1.801,34.556 -1.048,14.767 -1.733,9.994 -0.404,4.929 0,0" /></g><g
           transform="translate(379.9526,399.9687)"
           id="g4938"><path
             id="path4940"
             style="fill:#fcfdfb;fill-opacity:1;fill-rule:evenodd;stroke:none"
             d="m 0,0 c 0.313,33.626 1.235,67.265 0.663,100.879 -0.257,14.996 4.752,20.045 19.849,19.557 32.918,-1.066 65.887,-0.505 98.834,-0.606 0.145,-1.539 0.907,-2.663 2.282,-3.37 0.318,-31.681 0.638,-63.358 0.955,-95.037 -0.138,-31.528 -0.279,-63.056 -0.418,-94.58 -0.518,-1.304 -1.037,-2.609 -1.557,-3.913 l -0.315,0.063 c -1.607,0.236 -2.844,-0.337 -3.711,-1.712 -38.633,0.281 -77.327,-3.025 -115.877,1.906 0.316,1.409 -0.017,2.648 -0.989,3.717 C -0.189,-48.732 -0.095,-24.366 0,0" /></g><g
           transform="translate(242.2295,404.3437)"
           id="g4942"><path
             id="path4944"
             style="fill:#fcfdfb;fill-opacity:1;fill-rule:evenodd;stroke:none"
             d="m 0,0 c 36.822,5.762 73.852,1.545 110.778,2.298 4.759,0.097 7.761,-3.034 10.323,-6.614 0.029,-2.855 0.059,-5.709 0.088,-8.564 -0.004,-4.329 -0.008,-8.658 -0.015,-12.985 -0.305,-14.248 -0.936,-28.5 -0.797,-42.743 0.09,-9.28 -2.35,-15.174 -12.977,-14.89 -35.587,0.951 -71.249,-2.316 -106.781,1.877 -0.343,1.36 -0.688,2.724 -1.033,4.087 C -0.275,-51.689 -0.137,-25.845 0,0" /></g><g
           transform="translate(781.0244,279.5225)"
           id="g4946"><path
             id="path4948"
             style="fill:#fcfdfb;fill-opacity:1;fill-rule:evenodd;stroke:none"
             d="m 0,0 c -7.833,-0.518 -15.667,-1.48 -23.501,-1.485 -163.856,-0.084 -327.713,-0.059 -491.569,-0.057 -3.578,0 -7.157,-0.044 -10.733,0.036 -6.428,0.143 -14.014,-0.534 -16.154,7.24 -2.648,9.624 5.022,11.983 12.208,13.952 1.314,-0.044 2.631,-0.086 3.948,-0.128 77.34,-0.319 154.678,-0.787 232.017,-0.912 90.973,-0.147 181.948,0.084 272.921,-0.09 C -11.418,18.537 0.08,21.89 4.334,8.341 2.891,5.56 1.445,2.779 0,0" /></g><g
           transform="translate(363.4038,378.4785)"
           id="g4950"><path
             id="path4952"
             style="fill:#46e642;fill-opacity:1;fill-rule:evenodd;stroke:none"
             d="M 0,0 C 0.006,4.327 0.01,8.656 0.015,12.985 4.03,8.652 3.948,4.322 0,0" /></g><g
           transform="translate(781.0244,279.5225)"
           id="g4954"><path
             id="path4956"
             style="fill:#46e642;fill-opacity:1;fill-rule:evenodd;stroke:none"
             d="M 0,0 C 1.445,2.779 2.891,5.56 4.334,8.341 4.866,4.533 3.463,1.731 0,0" /></g><g
           transform="translate(778.5195,322.1504)"
           id="g4958"><path
             id="path4960"
             style="fill:#64f057;fill-opacity:1;fill-rule:evenodd;stroke:none"
             d="M 0,0 C 0.797,2.93 1.595,5.862 2.392,8.791 3.649,5.299 3.475,2.2 0,0" /></g><g
           transform="translate(520.5352,327.207)"
           id="g4962"><path
             id="path4964"
             style="fill:#80f96a;fill-opacity:1;fill-rule:evenodd;stroke:none"
             d="m 0,0 c 0.554,-1.466 1.106,-2.931 1.655,-4.393 -1.794,0.403 -4.84,0.388 -5.133,1.278 C -4.234,-0.814 -2.291,0.155 0,0" /></g><g
           transform="translate(255.2236,299.0801)"
           id="g4966"><path
             id="path4968"
             style="fill:#46e642;fill-opacity:1;fill-rule:evenodd;stroke:none"
             d="M 0,0 C -1.317,0.042 -2.634,0.084 -3.948,0.128 -2.631,0.086 -1.315,0.042 0,0" /></g><g
           transform="translate(496.5347,321.25)"
           id="g4970"><path
             id="path4972"
             style="fill:#80f96a;fill-opacity:1;fill-rule:evenodd;stroke:none"
             d="M 0,0 C 0.867,1.375 2.104,1.947 3.711,1.712 3.38,-0.825 2.219,-1.56 0,0" /></g><g
           transform="translate(659.6172,324.4785)"
           id="g4974"><path
             id="path4976"
             style="fill:#64f057;fill-opacity:1;fill-rule:evenodd;stroke:none"
             d="M 0,0 1.737,-0.692 1.996,-2.53 C 0.372,-2.444 -0.292,-1.601 0,0" /></g><g
           transform="translate(500.561,322.8984)"
           id="g4978"><path
             id="path4980"
             style="fill:#64f057;fill-opacity:1;fill-rule:evenodd;stroke:none"
             d="M 0,0 C 0.52,1.305 1.039,2.609 1.557,3.913 3.071,1.797 2.455,0.532 0,0" /></g><g
           transform="translate(379.6689,326.873)"
           id="g4982"><path
             id="path4984"
             style="fill:#80f96a;fill-opacity:1;fill-rule:evenodd;stroke:none"
             d="m 0,0 c 0.972,-1.069 1.304,-2.309 0.989,-3.718 -1.196,0.364 -2.384,0.726 -3.572,1.09 0.86,0.875 1.72,1.75 2.583,2.628" /></g><g
           transform="translate(241.8154,326.8096)"
           id="g4986"><path
             id="path4988"
             style="fill:#46e642;fill-opacity:1;fill-rule:evenodd;stroke:none"
             d="m 0,0 c 0.345,-1.363 0.69,-2.727 1.033,-4.087 -0.657,0.858 -1.425,1.659 -1.898,2.61 C -1.003,-1.199 -0.312,-0.505 0,0" /></g><g
           transform="translate(640.7207,330.7979)"
           id="g4990"><path
             id="path4992"
             style="fill:#80f96a;fill-opacity:1;fill-rule:evenodd;stroke:none"
             d="M 0,0 C 0.015,1.677 0.029,3.351 0.044,5.023 0.514,3.829 1.125,2.665 1.365,1.431 1.438,1.056 0.483,0.483 0,0" /></g><g
           transform="translate(520.4619,340.0059)"
           id="g4994"><path
             id="path4996"
             style="fill:#80f96a;fill-opacity:1;fill-rule:evenodd;stroke:none"
             d="m 0,0 c -0.025,-1.58 -0.051,-3.16 -0.076,-4.731 -0.463,1.137 -1.058,2.238 -1.302,3.412 C -1.447,-0.989 -0.488,-0.446 0,0" /></g><g
           transform="translate(501.5811,516.4292)"
           id="g4998"><path
             id="path5000"
             style="fill:#64f057;fill-opacity:1;fill-rule:evenodd;stroke:none"
             d="M 0,0 C -1.375,0.707 -2.137,1.83 -2.282,3.37 -0.092,3.212 0.911,2.255 0,0" /></g></g></g></g></svg>