<?xml version="1.0" encoding="UTF-8" standalone="no"?>
<svg
   xmlns:dc="http://purl.org/dc/elements/1.1/"
   xmlns:cc="http://creativecommons.org/ns#"
   xmlns:rdf="http://www.w3.org/1999/02/22-rdf-syntax-ns#"
   xmlns:svg="http://www.w3.org/2000/svg"
   xmlns="http://www.w3.org/2000/svg"
   viewBox="0 0 1280 1280"
   height="1280"
   width="1280"
   xml:space="preserve"
   version="1.1"
   id="svg2"><metadata
     id="metadata8"><rdf:RDF><cc:Work
         rdf:about=""><dc:format>image/svg+xml</dc:format><dc:type
           rdf:resource="http://purl.org/dc/dcmitype/StillImage" /><dc:title></dc:title></cc:Work></rdf:RDF></metadata><defs
     id="defs6"><clipPath
       id="clipPath16"
       clipPathUnits="userSpaceOnUse"><path
         id="path18"
         d="m 0,1024 1024,0 L 1024,0 0,0 0,1024 Z" /></clipPath></defs><g
     transform="matrix(1.25,0,0,-1.25,0,1280)"
     id="g10"><g
       id="g12"><g
         clip-path="url(#clipPath16)"
         id="g14"><g
           transform="translate(933,190)"
           id="g20"><path
             id="path22"
             style="fill:#ffffff;fill-opacity:1;fill-rule:nonzero;stroke:none"
             d="m 0,0 c 0,-55.229 -44.772,-100 -100,-100 l -643,0 c -55.229,0 -100,44.771 -100,100 l 0,643 c 0,55.229 44.771,100 100,100 l 643,0 C -44.772,743 0,698.229 0,643 L 0,0 Z" /></g><g
           transform="translate(508.2436,409.2823)"
           id="g24"><path
             id="path26"
             style="fill:#7cd89b;fill-opacity:1;fill-rule:nonzero;stroke:none"
             d="m 0,0 c -4.897,2.732 -8.448,4.496 -11.781,6.605 -64.574,40.856 -129.007,81.939 -193.807,122.433 -9.312,5.819 -12.942,12.173 -12.638,23.126 0.757,27.247 0.249,54.528 0.249,83.678 5.178,-2.745 8.402,-4.19 11.357,-6.06 64.958,-41.108 129.786,-82.423 194.934,-123.227 C -2.498,100.8 1.544,94.523 1.145,83.443 0.304,60.133 0.925,36.772 0.854,13.432 0.843,9.513 0.371,5.595 0,0" /></g><g
           transform="translate(290.3291,508.5405)"
           id="g28"><path
             id="path30"
             style="fill:#7cd89b;fill-opacity:1;fill-rule:nonzero;stroke:none"
             d="m 0,0 c 31.035,-19.606 59.203,-37.368 87.338,-55.182 40.172,-25.436 80.222,-51.068 120.565,-76.23 7.841,-4.89 11.245,-10.411 11.037,-19.899 -0.608,-27.76 -0.216,-55.541 -0.216,-85.23 -4.906,2.412 -8.157,3.656 -11.042,5.479 C 142.756,-190.025 77.99,-148.734 12.85,-108.04 3.127,-101.965 -0.64,-95.271 -0.274,-83.788 0.583,-56.909 0,-29.984 0,0" /></g><g
           transform="translate(759.6418,386.8412)"
           id="g32"><path
             id="path34"
             style="fill:#7cd89b;fill-opacity:1;fill-rule:nonzero;stroke:none"
             d="m 0,0 c -15.185,9.52 -27.158,16.961 -39.066,24.504 -55.683,35.268 -111.247,70.725 -167.129,105.674 -8.282,5.179 -11.949,10.586 -11.656,20.728 0.792,27.354 0.271,54.746 0.271,85.116 6.761,-3.631 11.107,-5.632 15.116,-8.167 C -138.253,187.23 -74.142,146.445 -9.822,105.993 -2.89,101.634 0.336,96.947 0.187,88.474 -0.307,60.207 0,31.926 0,0" /></g><g
           transform="translate(759.2838,525.1848)"
           id="g36"><path
             id="path38"
             style="fill:#7cd89b;fill-opacity:1;fill-rule:nonzero;stroke:none"
             d="m 0,0 c -17.701,11.174 -32.294,20.363 -46.864,29.59 -52.513,33.256 -104.902,66.71 -157.638,99.608 -8.793,5.486 -12.629,11.51 -12.273,22.039 0.755,22.374 0.187,44.791 0.266,67.19 0.016,4.391 0.501,8.78 0.888,15.098 5.217,-2.693 8.853,-4.235 12.147,-6.318 C -139.733,186.905 -76.151,146.35 -12.193,106.396 -2.811,100.535 0.523,93.958 0.232,83.137 -0.479,56.706 0,30.243 0,0" /></g><g
           transform="translate(506.3491,547.9106)"
           id="g40"><path
             id="path42"
             style="fill:#7cd89b;fill-opacity:1;fill-rule:nonzero;stroke:none"
             d="m 0,0 c -22.766,14.376 -44.391,27.994 -65.978,41.671 -46.012,29.15 -91.886,58.523 -138.116,87.323 -8.308,5.175 -13.001,10.735 -11.72,20.812 0.63,4.955 0.043,10.059 0.118,15.093 0.508,34.092 29.968,50.503 59.167,32.533 29.625,-18.231 58.85,-37.111 88.236,-55.729 20.492,-12.983 41.099,-25.795 61.313,-39.199 3.698,-2.452 8.074,-7.312 8.194,-11.182 C 2.09,62.987 1.978,34.621 2.094,6.265 2.099,5.011 1.288,3.755 0,0" /></g><g
           transform="translate(544.5912,485.0484)"
           id="g44"><path
             id="path46"
             style="fill:#7cd89b;fill-opacity:1;fill-rule:nonzero;stroke:none"
             d="m 0,0 c 27.156,-17.186 52.611,-33.283 78.053,-49.398 39.775,-25.193 79.672,-50.198 119.185,-75.794 6.747,-4.37 16.036,-10.752 16.865,-17.149 2.053,-15.848 4.122,-32.935 -9.147,-46.63 -14.817,-15.293 -34.817,-18.009 -54.871,-5.59 -31.088,19.253 -61.831,39.06 -92.722,58.63 -16.99,10.763 -34.193,21.212 -50.819,32.511 -3.948,2.682 -8.371,8.142 -8.481,12.43 -0.718,27.867 -0.331,55.763 -0.2,83.648 C -2.129,-5.686 -1.209,-4.034 0,0" /></g></g></g></g></svg>