<?xml version="1.0" encoding="UTF-8"?>
<svg width="1024px" height="1024px" viewBox="0 0 1024 1024" version="1.1" xmlns="http://www.w3.org/2000/svg" xmlns:xlink="http://www.w3.org/1999/xlink">
    <!-- Generator: Sketch 45.2 (43514) - http://www.bohemiancoding.com/sketch -->
    <title>Omnigraffle</title>
    <desc>Created with Sketch.</desc>
    <defs></defs>
    <g id="Page-1" stroke="none" stroke-width="1" fill="none" fill-rule="evenodd">
        <g id="Omnigraffle" fill-rule="nonzero">
            <rect id="Outer" fill="#02D055" x="92" y="92" width="840" height="840" rx="100"></rect>
            <path d="M736.338028,473.195312 C708.873239,473.195312 685.985915,488.734375 675,511.585938 L509.295775,486.90625 L509.295775,489.648438 C508.380282,475.023438 504.71831,462.226562 498.309859,450.34375 L602.676056,376.304688 C612.746479,382.703125 625.56338,386.359375 638.380282,386.359375 C675.915493,386.359375 707.042254,355.28125 707.042254,317.804688 C707.042254,280.328125 675.915493,249.25 638.380282,249.25 C600.84507,249.25 569.71831,280.328125 569.71831,317.804688 C569.71831,323.289063 570.633803,329.6875 571.549296,335.171875 L469.929577,414.695312 C451.619718,400.070312 428.732394,391.84375 403.098592,391.84375 C393.028169,391.84375 382.957746,393.671875 373.802817,395.5 L342.676056,334.257812 C353.661972,322.375 360.985915,305.921875 360.985915,288.554688 C360.985915,251.078125 329.859155,220 292.323944,220 C254.788732,220 223.661972,251.078125 223.661972,288.554688 C223.661972,326.03125 254.788732,357.109375 292.323944,357.109375 C295.985915,357.109375 299.647887,357.109375 304.225352,356.195312 L332.605634,418.351562 C310.633803,437.546875 296.901408,466.796875 296.901408,497.875 C296.901408,532.609375 313.380282,563.6875 339.929577,583.796875 L296.901408,665.148437 L297.816901,666.0625 C295.070423,666.0625 292.323944,665.148437 288.661972,665.148437 C251.126761,665.148437 220,696.226562 220,733.703125 C220,771.179687 251.126761,802.257812 288.661972,802.257812 C326.197183,802.257812 357.323944,771.179687 357.323944,733.703125 C357.323944,714.507812 350,698.054687 337.183099,685.257812 L381.126761,602.078125 C388.450704,603.90625 395.774648,603.90625 403.098592,603.90625 C421.408451,603.90625 437.887324,599.335938 452.535211,592.023438 L550.492958,705.367188 C545.915493,714.507812 543.169014,725.476562 543.169014,736.445312 C543.169014,773.921875 574.295775,805 611.830986,805 C649.366197,805 680.492958,773.921875 680.492958,736.445312 C680.492958,698.96875 649.366197,667.890625 611.830986,667.890625 C602.676056,667.890625 593.521127,669.71875 585.28169,673.375 L487.323944,562.773438 C493.732394,554.546875 499.225352,545.40625 502.887324,535.351562 L669.507042,554.546875 C675.915493,585.625 703.380282,610.304688 736.338028,610.304688 C773.873239,610.304688 805,579.226562 805,541.75 C805,504.273438 773.873239,473.195312 736.338028,473.195312 L736.338028,473.195312 Z" id="Logo" fill="#2F3030"></path>
        </g>
    </g>
</svg>