<?xml version="1.0" encoding="UTF-8" standalone="no"?>
<svg
   xmlns:dc="http://purl.org/dc/elements/1.1/"
   xmlns:cc="http://creativecommons.org/ns#"
   xmlns:rdf="http://www.w3.org/1999/02/22-rdf-syntax-ns#"
   xmlns:svg="http://www.w3.org/2000/svg"
   xmlns="http://www.w3.org/2000/svg"
   viewBox="0 0 1365.3333 1365.3333"
   height="1365.3333"
   width="1365.3333"
   xml:space="preserve"
   id="svg5002"
   version="1.1"><metadata
     id="metadata5008"><rdf:RDF><cc:Work
         rdf:about=""><dc:format>image/svg+xml</dc:format><dc:type
           rdf:resource="http://purl.org/dc/dcmitype/StillImage" /><dc:title></dc:title></cc:Work></rdf:RDF></metadata><defs
     id="defs5006"><clipPath
       id="clipPath5018"
       clipPathUnits="userSpaceOnUse"><path
         id="path5016"
         d="M 191,933 C 135.771,933 91,888.229 91,833 v 0 -643 C 91,134.771 135.771,90 191,90 v 0 h 643 c 55.229,0 100,44.771 100,100 v 0 643 c 0,55.229 -44.771,100 -100,100 v 0 z" /></clipPath><clipPath
       id="clipPath5030"
       clipPathUnits="userSpaceOnUse"><path
         id="path5028"
         d="m 288,805 c -38.66,0 -70,-31.34 -70,-70 v 0 -447 c 0,-38.66 31.34,-70 70,-70 v 0 h 447 c 38.66,0 70,31.34 70,70 v 0 447 c 0,38.66 -31.34,70 -70,70 v 0 z" /></clipPath></defs><g
     transform="matrix(1.3333333,0,0,-1.3333333,0,1365.3333)"
     id="g5010"><g
       id="g5012"><g
         clip-path="url(#clipPath5018)"
         id="g5014"><g
           transform="translate(933,190)"
           id="g5020"><path
             id="path5022"
             style="fill:#c0392b;fill-opacity:1;fill-rule:nonzero;stroke:none"
             d="m 0,0 c 0,-55.229 -44.772,-100 -100,-100 h -643 c -55.229,0 -100,44.771 -100,100 v 643 c 0,55.229 44.771,100 100,100 h 643 C -44.772,743 0,698.229 0,643 Z" /></g></g></g><g
       id="g5024"><g
         clip-path="url(#clipPath5030)"
         id="g5026"><g
           transform="translate(805,288)"
           id="g5032"><path
             id="path5034"
             style="fill:#2c3e50;fill-opacity:1;fill-rule:nonzero;stroke:none"
             d="m 0,0 c 0,-38.66 -31.34,-70 -70,-70 h -447 c -38.66,0 -70,31.34 -70,70 v 447 c 0,38.66 31.34,70 70,70 h 447 c 38.66,0 70,-31.34 70,-70 z" /></g><g
           transform="translate(664,823)"
           id="g5036"><path
             id="path5038"
             style="fill:none;stroke:#336e7b;stroke-width:4;stroke-linecap:butt;stroke-linejoin:miter;stroke-miterlimit:10;stroke-dasharray:none;stroke-opacity:1"
             d="M 0,0 V -651" /></g><g
           transform="translate(511,823)"
           id="g5040"><path
             id="path5042"
             style="fill:none;stroke:#336e7b;stroke-width:4;stroke-linecap:butt;stroke-linejoin:miter;stroke-miterlimit:10;stroke-dasharray:none;stroke-opacity:1"
             d="M 0,0 V -651" /></g><g
           transform="translate(359,823)"
           id="g5044"><path
             id="path5046"
             style="fill:none;stroke:#336e7b;stroke-width:4;stroke-linecap:butt;stroke-linejoin:miter;stroke-miterlimit:10;stroke-dasharray:none;stroke-opacity:1"
             d="M 0,0 V -651" /></g><g
           transform="translate(837,345)"
           id="g5048"><path
             id="path5050"
             style="fill:none;stroke:#336e7b;stroke-width:4;stroke-linecap:butt;stroke-linejoin:miter;stroke-miterlimit:10;stroke-dasharray:none;stroke-opacity:1"
             d="M 0,0 H -651" /></g><g
           transform="translate(837,498)"
           id="g5052"><path
             id="path5054"
             style="fill:none;stroke:#336e7b;stroke-width:4;stroke-linecap:butt;stroke-linejoin:miter;stroke-miterlimit:10;stroke-dasharray:none;stroke-opacity:1"
             d="M 0,0 H -651" /></g><g
           transform="translate(837,650)"
           id="g5056"><path
             id="path5058"
             style="fill:none;stroke:#336e7b;stroke-width:4;stroke-linecap:butt;stroke-linejoin:miter;stroke-miterlimit:10;stroke-dasharray:none;stroke-opacity:1"
             d="M 0,0 H -651" /></g><g
           transform="translate(590.638,498)"
           id="g5060"><path
             id="path5062"
             style="fill:#22313f;fill-opacity:1;fill-rule:nonzero;stroke:none"
             d="m 0,0 c 0,-43.154 -34.984,-78.138 -78.138,-78.138 -43.154,0 -78.138,34.984 -78.138,78.138 0,43.154 34.984,78.138 78.138,78.138 C -34.984,78.138 0,43.154 0,0" /></g><g
           transform="translate(512.5,498)"
           id="g5064"><path
             id="path5066"
             style="fill:none;stroke:#c5eff7;stroke-width:26;stroke-linecap:round;stroke-linejoin:miter;stroke-miterlimit:10;stroke-dasharray:none;stroke-opacity:1"
             d="M 0,0 64.706,152" /></g><g
           transform="translate(420.3311,338.5013)"
           id="g5068"><path
             id="path5070"
             style="fill:#3498db;fill-opacity:1;fill-rule:nonzero;stroke:none"
             d="m 0,0 c 0,-45.012 -36.489,-81.501 -81.501,-81.501 -45.012,0 -81.502,36.489 -81.502,81.501 0,45.012 36.49,81.501 81.502,81.501 C -36.489,81.501 0,45.012 0,0" /></g><g
           transform="translate(420.3311,338.5013)"
           id="g5072"><path
             id="path5074"
             style="fill:none;stroke:#4183d7;stroke-width:21;stroke-linecap:butt;stroke-linejoin:miter;stroke-miterlimit:10;stroke-dasharray:none;stroke-opacity:1"
             d="m 0,0 c 0,-45.012 -36.489,-81.501 -81.501,-81.501 -45.012,0 -81.502,36.489 -81.502,81.501 0,45.012 36.49,81.501 81.502,81.501 C -36.489,81.501 0,45.012 0,0 Z" /></g><g
           transform="translate(684.3315,650)"
           id="g5076"><path
             id="path5078"
             style="fill:#c0392b;fill-opacity:1;fill-rule:nonzero;stroke:none"
             d="m 0,0 c 0,-59.164 -47.962,-107.126 -107.126,-107.126 -59.164,0 -107.125,47.962 -107.125,107.126 0,59.164 47.961,107.126 107.125,107.126 C -47.962,107.126 0,59.164 0,0" /></g></g></g></g></svg>