<?xml version="1.0" encoding="UTF-8" standalone="no"?>
<svg
   xmlns:dc="http://purl.org/dc/elements/1.1/"
   xmlns:cc="http://creativecommons.org/ns#"
   xmlns:rdf="http://www.w3.org/1999/02/22-rdf-syntax-ns#"
   xmlns:svg="http://www.w3.org/2000/svg"
   xmlns="http://www.w3.org/2000/svg"
   viewBox="0 0 1365.3333 1365.3333"
   height="1365.3333"
   width="1365.3333"
   xml:space="preserve"
   id="svg5146"
   version="1.1"><metadata
     id="metadata5152"><rdf:RDF><cc:Work
         rdf:about=""><dc:format>image/svg+xml</dc:format><dc:type
           rdf:resource="http://purl.org/dc/dcmitype/StillImage" /><dc:title></dc:title></cc:Work></rdf:RDF></metadata><defs
     id="defs5150"><clipPath
       id="clipPath5162"
       clipPathUnits="userSpaceOnUse"><path
         id="path5160"
         d="M 0,1024 H 1024 V 0 H 0 Z" /></clipPath><clipPath
       id="clipPath5178"
       clipPathUnits="userSpaceOnUse"><path
         id="path5176"
         d="M 0,1024 H 1024 V 0 H 0 Z" /></clipPath><clipPath
       id="clipPath5186"
       clipPathUnits="userSpaceOnUse"><path
         id="path5184"
         d="M 91,933 H 934 V 90 H 91 Z" /></clipPath><clipPath
       id="clipPath5202"
       clipPathUnits="userSpaceOnUse"><path
         id="path5200"
         d="M 0,1024 H 1024 V 0 H 0 Z" /></clipPath><clipPath
       id="clipPath5210"
       clipPathUnits="userSpaceOnUse"><path
         id="path5208"
         d="M 218,671.019 H 806.001 V 352.052 H 218 Z" /></clipPath></defs><g
     transform="matrix(1.3333333,0,0,-1.3333333,0,1365.3333)"
     id="g5154"><g
       id="g5156"><g
         clip-path="url(#clipPath5162)"
         id="g5158"><g
           transform="translate(834,933)"
           id="g5164"><path
             id="path5166"
             style="fill:#fff100;fill-opacity:1;fill-rule:nonzero;stroke:none"
             d="m 0,0 h -643 c -55.229,0 -100,-44.771 -100,-100 v -643 c 0,-55.229 44.771,-100 100,-100 H 0 c 55.229,0 100,44.771 100,100 v 643 C 100,-44.771 55.229,0 0,0" /></g><g
           transform="translate(736,805)"
           id="g5168"><path
             id="path5170"
             style="fill:#ec1c23;fill-opacity:1;fill-rule:nonzero;stroke:none"
             d="m 0,0 h -447 c -38.66,0 -70,-31.34 -70,-70 v -447 c 0,-38.66 31.34,-70 70,-70 H 0 c 38.66,0 70,31.34 70,70 V -70 C 70,-31.34 38.66,0 0,0" /></g></g></g><g
       id="g5172"><g
         clip-path="url(#clipPath5178)"
         id="g5174"><g
           id="g5180"><g
             id="g5182" /><g
             id="g5194"><g
               id="g5192"
               clip-path="url(#clipPath5186)"><g
                 id="g5190"
                 transform="translate(834,933)"><path
                   id="path5188"
                   style="fill:#1d2d44;fill-opacity:1;fill-rule:nonzero;stroke:none"
                   d="m 0,0 h -643 c -55.229,0 -100,-44.771 -100,-100 v -643 c 0,-55.229 44.771,-100 100,-100 H 0 c 55.229,0 100,44.771 100,100 v 643 C 100,-44.771 55.229,0 0,0" /></g></g></g></g></g></g><g
       id="g5196"><g
         clip-path="url(#clipPath5202)"
         id="g5198"><g
           id="g5204"><g
             id="g5206" /><g
             id="g5218"><g
               id="g5216"
               clip-path="url(#clipPath5210)"><g
                 id="g5214"
                 transform="translate(386.0205,440.1602)"><path
                   id="path5212"
                   style="fill:#ffffff;fill-opacity:1;fill-rule:evenodd;stroke:none"
                   d="m 0,0 c -23.991,0 -43.285,-19.357 -43.285,-43.431 0,-24.073 19.294,-43.587 43.285,-43.587 18.392,0 34,11.514 40.338,27.709 C 24.87,-43.503 13.753,-23.337 8.845,-0.931 5.97,-0.336 3.054,0 0,0 m 376.536,4.673 c -2.334,0 -4.593,-0.267 -6.824,-0.625 0.125,-1.981 0.155,-3.903 0.155,-5.914 0,-25.321 -9.958,-48.302 -26.067,-65.382 7.927,-9.243 19.565,-15.1 32.736,-15.1 23.992,0 43.444,19.358 43.444,43.43 0,24.077 -19.452,43.591 -43.444,43.591 M -49.956,-27.861 c -23.865,17.3 -39.407,45.464 -39.407,77.209 0,8.068 1.059,15.866 2.947,23.351 -0.783,0.023 -1.536,0.156 -2.327,0.156 -43.767,0 -79.278,-35.323 -79.278,-79.238 0,-43.911 35.511,-79.544 79.278,-79.544 16.66,0 32.091,5.208 44.838,14.01 -5.269,8.213 -8.378,18.029 -8.378,28.486 0,5.429 0.798,10.641 2.327,15.57 M 274.919,84.216 c -14.426,0 -27.942,-3.693 -39.874,-9.961 6.775,-15.058 10.551,-31.764 10.551,-49.347 0,-32.92 -13.194,-62.81 -34.6,-84.526 15.726,-17.519 38.543,-28.49 63.923,-28.49 47.512,0 85.948,38.57 85.948,86.242 0,47.673 -38.436,86.082 -85.948,86.082 M -46.388,-19.301 C -37.682,-2.453 -20.197,9.03 0,9.03 2.441,9.03 4.783,8.732 7.137,8.408 6.399,13.799 6.05,19.315 6.05,24.908 c 0,26.743 8.677,51.477 23.429,71.451 -8.829,11.087 -15.148,24.406 -17.84,38.918 -2,0.137 -4.023,0.313 -6.053,0.313 -47.513,0 -85.951,-38.57 -85.951,-86.242 0,-28.064 13.327,-52.908 33.977,-68.649 M 125.823,136.055 C 64.581,136.055 15.05,86.36 15.05,24.908 c 0,-61.445 49.531,-111.147 110.773,-111.147 61.241,0 110.774,49.702 110.774,111.147 0,61.452 -49.533,111.147 -110.774,111.147 M 231.167,82.351 c 11.334,5.918 23.973,9.682 37.391,10.583 -3.456,40.691 -37.053,72.699 -78.504,72.699 -1.685,0 -3.309,-0.206 -4.966,-0.313 0.719,-4.536 1.239,-9.118 1.239,-13.852 0,-7.374 -0.931,-14.486 -2.635,-21.326 19.965,-11.09 36.551,-27.678 47.475,-47.791 M 5.586,144.616 c 1.628,0 3.201,-0.065 4.81,-0.153 -0.183,2.316 -0.308,4.64 -0.308,7.005 0,12.734 2.753,24.854 7.597,35.803 -6.521,4.388 -14.334,6.849 -22.804,6.849 -22.792,0 -41.113,-18.538 -41.113,-41.408 0,-7.405 1.903,-14.399 5.275,-20.392 13.753,7.783 29.653,12.296 46.543,12.296 m 120.237,0.469 c 17.714,0 34.513,-3.96 49.645,-10.899 1.224,5.562 1.863,11.346 1.863,17.282 0,43.911 -35.36,79.39 -79.123,79.39 -43.764,0 -79.124,-35.479 -79.124,-79.39 0,-18.103 6.008,-34.763 16.136,-48.104 21.969,25.519 54.394,41.721 90.603,41.721" /></g></g></g></g></g></g></g></svg>