<?xml version="1.0" encoding="UTF-8" standalone="no"?>
<svg
   xmlns:dc="http://purl.org/dc/elements/1.1/"
   xmlns:cc="http://creativecommons.org/ns#"
   xmlns:rdf="http://www.w3.org/1999/02/22-rdf-syntax-ns#"
   xmlns:svg="http://www.w3.org/2000/svg"
   xmlns="http://www.w3.org/2000/svg"
   viewBox="0 0 1365.3333 1365.3333"
   height="1365.3333"
   width="1365.3333"
   xml:space="preserve"
   id="svg2"
   version="1.1"><metadata
     id="metadata8"><rdf:RDF><cc:Work
         rdf:about=""><dc:format>image/svg+xml</dc:format><dc:type
           rdf:resource="http://purl.org/dc/dcmitype/StillImage" /><dc:title></dc:title></cc:Work></rdf:RDF></metadata><defs
     id="defs6"><clipPath
       id="clipPath18"
       clipPathUnits="userSpaceOnUse"><path
         id="path16"
         d="M 0,1024 H 1024 V 0 H 0 Z" /></clipPath></defs><g
     transform="matrix(1.3333333,0,0,-1.3333333,0,1365.3333)"
     id="g10"><g
       id="g12"><g
         clip-path="url(#clipPath18)"
         id="g14"><g
           transform="translate(932,189)"
           id="g20"><path
             id="path22"
             style="fill:#edac3a;fill-opacity:1;fill-rule:nonzero;stroke:none"
             d="m 0,0 c 0,-55.229 -44.771,-100 -100,-100 h -643 c -55.229,0 -100,44.771 -100,100 v 643 c 0,55.229 44.771,100 100,100 h 643 C -44.771,743 0,698.229 0,643 Z" /></g><g
           transform="translate(299.417,294.9873)"
           id="g24"><path
             id="path26"
             style="fill:#fdfaf4;fill-opacity:1;fill-rule:evenodd;stroke:none"
             d="m 0,0 c -7.199,-0.003 -14.431,-0.09 -21.585,-0.778 -4.604,-0.444 -7.931,-3.264 -8.357,-8.351 -0.51,-6.056 2.574,-9.908 8.301,-10.559 7.134,-0.807 14.381,-0.816 21.58,-0.816 87.881,-0.019 175.763,-0.089 263.644,-0.08 V 0.092 C 175.722,0.099 87.861,0.017 0,0" /></g><g
           transform="translate(545.9951,295.0791)"
           id="g28"><path
             id="path30"
             style="fill:#fdfaf4;fill-opacity:1;fill-rule:evenodd;stroke:none"
             d="m 0,0 v -20.676 c 55.669,0.003 111.338,0.02 167.005,0.045 V -0.049 C 111.338,-0.021 55.667,-0.003 0,0" /></g><g
           transform="translate(932.0498,311.0918)"
           id="g32"><path
             id="path34"
             style="fill:#fdfaf4;fill-opacity:1;fill-rule:evenodd;stroke:none"
             d="m 0,0 c -1.432,-12.849 -7.672,-16.617 -24.4,-16.544 -65.216,0.285 -130.433,0.42 -195.65,0.482 v -20.582 c 65.918,0.057 131.835,0.179 197.752,0.432 14.945,0.058 21.026,-3.196 22.358,-14.405 C 0.011,-34.189 -0.009,-17.025 0,0" /></g><g
           transform="translate(936.4453,317.4414)"
           id="g36"><path
             id="path38"
             style="fill:#fdfaf4;fill-opacity:1;fill-rule:evenodd;stroke:none"
             d="m 0,0 c 0.024,-24.841 -0.015,-50.218 -0.115,-73.375 0.321,-0.107 0.626,-0.235 0.898,-0.398 0.004,24.742 0.012,49.485 0.015,74.228 C 0.557,0.277 0.285,0.131 0,0" /></g><g
           transform="translate(572.8965,642.5376)"
           id="g40"><path
             id="path42"
             style="fill:#fdfaf4;fill-opacity:1;fill-rule:evenodd;stroke:none"
             d="m 0,0 c 33.158,30.689 66.267,61.429 99.506,92.024 6.858,6.316 13.641,13.001 21.466,17.911 11.498,7.218 24.367,10.458 35.998,0.461 11.699,-10.054 10.699,-23.08 4.171,-35.331 -4.689,-8.794 -7.003,-16.358 -2.329,-26.168 4.751,-9.969 -2.614,-17.878 -8.185,-25.189 C 143.707,14.626 135.97,6.17 128.584,-2.555 98.3,-33.827 67.947,-65.034 37.793,-96.431 c -5.369,-5.59 -11.349,-11.261 -11.251,-19.971 0.078,-7.101 1.813,-16.454 -9.453,-14.03 -10.77,2.317 -14.301,10.898 -10.035,21.417 1.262,3.124 3.998,5.65 6.058,8.448 36.658,45.629 83.758,82.112 118.398,129.51 -1.47,1.351 -2.941,2.702 -4.408,4.052 C 86.914,-8.716 46.729,-50.429 6.541,-92.141 l 0.241,-1.504 c 0,0 1.49,0.325 1.508,0.293 -4.424,1.7 -5.496,-1.722 -6.936,-4.58 -6.742,-5.958 -13.484,-11.918 -20.223,-17.876 -15.392,14.472 -30.788,28.941 -46.184,43.41 10.464,21.795 31.268,34.36 46.424,51.971 C -12.62,-13.444 -6.221,-6.799 0,0" /></g><g
           transform="translate(545.9951,523.0942)"
           id="g44"><path
             id="path46"
             style="fill:#fdfaf4;fill-opacity:1;fill-rule:evenodd;stroke:none"
             d="m 0,0 c -0.78,-2.8 -1.562,-5.601 -2.342,-8.401 -1.497,-1.489 -2.993,-2.976 -4.489,-4.466 -9.033,-5.459 -15.835,-13.258 -22.339,-21.353 0.005,0.007 0.342,0.314 0.342,0.314 -38.692,-35.608 -76.871,-71.799 -116.299,-106.573 -18.573,-16.38 -38.505,-30.726 -60.873,-43.032 -17.688,-9.734 -33.967,-24.863 -54.834,-38.203 0.841,20.125 12.009,32.205 20.568,45.019 50.137,75.054 114.714,137.608 176.288,202.756 4.922,5.209 9.495,10.751 14.229,16.138 C -27.084,35.303 -17.536,12.941 0,0" /></g><g
           transform="translate(560.665,556.0269)"
           id="g48"><path
             id="path50"
             style="fill:#feb501;fill-opacity:1;fill-rule:evenodd;stroke:none"
             d="M 0,0 C 1.689,1.682 3.378,3.361 5.067,5.041 3.378,3.358 1.689,1.679 0,0" /></g><g
           transform="translate(535.8379,532.2817)"
           id="g52"><path
             id="path54"
             style="fill:#feb501;fill-opacity:1;fill-rule:evenodd;stroke:none"
             d="M 0,0 C 0,0 -0.38,-0.348 -0.385,-0.355 -0.392,-0.36 0,0 0,0" /></g></g></g></g></svg>