<?xml version="1.0" encoding="UTF-8" standalone="no"?>
<svg
   xmlns:dc="http://purl.org/dc/elements/1.1/"
   xmlns:cc="http://creativecommons.org/ns#"
   xmlns:rdf="http://www.w3.org/1999/02/22-rdf-syntax-ns#"
   xmlns:svg="http://www.w3.org/2000/svg"
   xmlns="http://www.w3.org/2000/svg"
   viewBox="0 0 1365.3333 1365.3333"
   height="1365.3333"
   width="1365.3333"
   xml:space="preserve"
   id="svg5220"
   version="1.1"><metadata
     id="metadata5226"><rdf:RDF><cc:Work
         rdf:about=""><dc:format>image/svg+xml</dc:format><dc:type
           rdf:resource="http://purl.org/dc/dcmitype/StillImage" /><dc:title></dc:title></cc:Work></rdf:RDF></metadata><defs
     id="defs5224"><clipPath
       id="clipPath5236"
       clipPathUnits="userSpaceOnUse"><path
         id="path5234"
         d="M 0,1024 H 1024 V 0 H 0 Z" /></clipPath></defs><g
     transform="matrix(1.3333333,0,0,-1.3333333,0,1365.3333)"
     id="g5228"><g
       id="g5230"><g
         clip-path="url(#clipPath5236)"
         id="g5232"><g
           transform="translate(933,190)"
           id="g5238"><path
             id="path5240"
             style="fill:#ffffff;fill-opacity:1;fill-rule:nonzero;stroke:none"
             d="m 0,0 c 0,-55.229 -44.772,-100 -100,-100 h -643 c -55.229,0 -100,44.771 -100,100 v 643 c 0,55.229 44.771,100 100,100 h 643 C -44.772,743 0,698.229 0,643 Z" /></g><g
           transform="translate(511.9152,372.8858)"
           id="g5242"><path
             id="path5244"
             style="fill:#0791c1;fill-opacity:1;fill-rule:nonzero;stroke:none"
             d="m 0,0 c 36.614,0.841 68.271,13.181 94.226,38.9 25.839,25.605 39.126,56.967 39.598,93.204 0.483,37.019 -12.428,69.261 -38.488,95.705 -25.708,26.088 -57.347,39.581 -93.853,39.766 -76.424,0.386 -132.5,-59.353 -134.989,-128.518 -1.331,-36.99 10.722,-69.546 36.132,-96.604 C -71.026,14.398 -38.106,0.833 0,0 m -292.373,-3.625 v 279.526 c 0.439,1.53 0.884,3.058 1.316,4.59 2.341,8.3 6.585,15.366 13.28,20.929 8.206,6.82 17.497,10.577 28.257,10.491 6.463,-0.051 12.926,-0.011 19.388,-0.009 3.317,0.002 3.317,0.004 3.324,3.24 0.008,3.752 0.673,4.738 4.298,6.194 1.273,0.511 2.587,0.919 3.883,1.374 h 68.004 c 0.462,-0.217 0.908,-0.573 1.388,-0.628 3.656,-0.415 5.47,-2.389 5.467,-6.051 -0.004,-4.492 -0.298,-4.129 4.215,-4.129 130.914,0 261.829,0 392.743,-0.002 0.956,0 1.934,0.094 2.865,-0.067 7.447,-1.285 14.403,-3.766 20.44,-8.477 10.221,-7.975 15.909,-18.552 15.935,-31.382 0.178,-89.704 0.097,-179.409 0.076,-269.114 -10e-4,-2.483 -0.088,-4.994 -0.451,-7.446 -1.722,-11.631 -6.883,-21.447 -15.64,-29.375 -8.064,-7.299 -17.652,-10.499 -28.339,-10.501 -164.986,-0.03 -329.972,-0.036 -494.958,0.062 -4.472,0.002 -9.088,0.733 -13.384,1.988 -9.223,2.694 -16.599,8.402 -22.287,16.038 -4.44,5.959 -7.775,12.554 -8.789,20.1 -0.122,0.913 -0.677,1.767 -1.031,2.649" /></g><g
           transform="translate(512.0517,585.528)"
           id="g5246"><path
             id="path5248"
             style="fill:#0791c1;fill-opacity:1;fill-rule:nonzero;stroke:none"
             d="m 0,0 c 42.15,1.077 82.91,-35.545 79.968,-84.996 -2.384,-40.08 -35.215,-75.529 -80.789,-75.149 -43.859,0.366 -79.791,35.145 -79.398,81.307 C -79.852,-35.812 -44.829,0.384 0,0" /></g></g></g></g></svg>