<?xml version="1.0" encoding="UTF-8" standalone="no"?>
<svg
   xmlns:dc="http://purl.org/dc/elements/1.1/"
   xmlns:cc="http://creativecommons.org/ns#"
   xmlns:rdf="http://www.w3.org/1999/02/22-rdf-syntax-ns#"
   xmlns:svg="http://www.w3.org/2000/svg"
   xmlns="http://www.w3.org/2000/svg"
   viewBox="0 0 1365.3333 1365.3333"
   height="1365.3333"
   width="1365.3333"
   xml:space="preserve"
   id="svg4531"
   version="1.1"><metadata
     id="metadata4537"><rdf:RDF><cc:Work
         rdf:about=""><dc:format>image/svg+xml</dc:format><dc:type
           rdf:resource="http://purl.org/dc/dcmitype/StillImage" /><dc:title></dc:title></cc:Work></rdf:RDF></metadata><defs
     id="defs4535"><clipPath
       id="clipPath4547"
       clipPathUnits="userSpaceOnUse"><path
         id="path4545"
         d="M 0,1024 H 1024 V 0 H 0 Z" /></clipPath></defs><g
     transform="matrix(1.3333333,0,0,-1.3333333,0,1365.3333)"
     id="g4539"><g
       id="g4541"><g
         clip-path="url(#clipPath4547)"
         id="g4543"><g
           transform="translate(933,190)"
           id="g4549"><path
             id="path4551"
             style="fill:#ffffff;fill-opacity:1;fill-rule:nonzero;stroke:none"
             d="m 0,0 c 0,-55.229 -44.772,-100 -100,-100 h -643 c -55.229,0 -100,44.771 -100,100 v 643 c 0,55.229 44.771,100 100,100 h 643 C -44.772,743 0,698.229 0,643 Z" /></g><g
           transform="translate(466.3637,403.8586)"
           id="g4553"><path
             id="path4555"
             style="fill:#416e9f;fill-opacity:1;fill-rule:nonzero;stroke:none"
             d="m 0,0 v 66.572 h 77.717 c 139.771,0 217.187,73.5 217.187,167.182 0,96.092 -77.416,168.387 -217.187,168.387 H -203.631 V 374.73 c 90.971,0 107.539,-21.689 107.539,-157.544 L -96.092,0 c 0,-135.553 -16.568,-158.748 -107.539,-158.748 v -27.111 h 310.869 v 27.111 C 16.568,-158.748 0,-135.553 0,0 m 188.871,233.754 c 0,-63.861 -35.244,-116.576 -111.154,-116.576 H 0 v 235.863 h 77.717 c 75.91,0 111.154,-54.221 111.154,-119.287" /></g></g></g></g></svg>