<?xml version="1.0" encoding="UTF-8" standalone="no"?>
<svg
   xmlns:dc="http://purl.org/dc/elements/1.1/"
   xmlns:cc="http://creativecommons.org/ns#"
   xmlns:rdf="http://www.w3.org/1999/02/22-rdf-syntax-ns#"
   xmlns:svg="http://www.w3.org/2000/svg"
   xmlns="http://www.w3.org/2000/svg"
   viewBox="0 0 1365.3333 1365.3333"
   height="1365.3333"
   width="1365.3333"
   xml:space="preserve"
   id="svg4557"
   version="1.1"><metadata
     id="metadata4563"><rdf:RDF><cc:Work
         rdf:about=""><dc:format>image/svg+xml</dc:format><dc:type
           rdf:resource="http://purl.org/dc/dcmitype/StillImage" /><dc:title></dc:title></cc:Work></rdf:RDF></metadata><defs
     id="defs4561"><clipPath
       id="clipPath4573"
       clipPathUnits="userSpaceOnUse"><path
         id="path4571"
         d="M 0,1024 H 1024 V 0 H 0 Z" /></clipPath></defs><g
     transform="matrix(1.3333333,0,0,-1.3333333,0,1365.3333)"
     id="g4565"><g
       id="g4567"><g
         clip-path="url(#clipPath4573)"
         id="g4569"><g
           transform="translate(933,189)"
           id="g4575"><path
             id="path4577"
             style="fill:#4e92be;fill-opacity:1;fill-rule:nonzero;stroke:none"
             d="m 0,0 c 0,-55.229 -44.771,-100 -100,-100 h -643 c -55.229,0 -100,44.771 -100,100 v 643 c 0,55.229 44.771,100 100,100 h 643 C -44.771,743 0,698.229 0,643 Z" /></g><g
           transform="translate(280.0381,708.6738)"
           id="g4579"><path
             id="path4581"
             style="fill:#ffffff;fill-opacity:1;fill-rule:nonzero;stroke:none"
             d="m 0,0 231.331,111.766 226.718,-112.725 0.262,-117.992 h -11.424 l -0.672,-206.372 13.776,0.171 -0.337,-47.465 h 22.176 l 29.569,-105.336 H 382.373 v -20.065 H 79.969 l -0.672,20.782 H -51.745 l 31.689,104.53 H -0.119 L 0,-325.323 14.112,-325.152 14.111,-117.519 0,-118.234 C 0,-118.234 0.275,-0.27 0,0" /></g><g
           transform="translate(384.7178,235.9453)"
           id="g4583"><path
             id="path4585"
             style="fill:#4e92be;fill-opacity:1;fill-rule:nonzero;stroke:none"
             d="M 0,0 0.364,20.511 H 249.472 L 249.372,0.39 Z" /></g><g
           transform="translate(279.459,307.9746)"
           id="g4587"><path
             id="path4589"
             style="fill:#4e92be;fill-opacity:1;fill-rule:nonzero;stroke:none"
             d="m 0,0 -16.586,-51.519 h 121.148 l 0.722,24.607 250.228,0.768 V -51.519 H 473.055 L 461.517,0 Z" /></g><g
           transform="translate(419.8574,619.7217)"
           id="g4591"><path
             id="path4593"
             style="fill:#4e92be;fill-opacity:1;fill-rule:nonzero;stroke:none"
             d="m 0,0 v -276.054 l 177.711,-0.78 L 178.443,0" /></g><g
           transform="translate(444.7012,597.9414)"
           id="g4595"><path
             id="path4597"
             style="fill:#ffffff;fill-opacity:1;fill-rule:nonzero;stroke:none"
             d="m 0,0 58.938,-0.102 -0.269,-232.11 -60.657,-0.354" /></g><g
           transform="translate(517.6904,597.5879)"
           id="g4599"><path
             id="path4601"
             style="fill:#ffffff;fill-opacity:1;fill-rule:nonzero;stroke:none"
             d="m 0,0 58.159,0.252 0.207,-232.288 -60.344,-0.354" /></g><g
           transform="translate(305.8877,646.1514)"
           id="g4603"><path
             id="path4605"
             style="fill:#4e92be;fill-opacity:1;fill-rule:nonzero;stroke:none"
             d="m 0,0 v -25.132 l 13.953,-0.099 0.383,-262.437 -13.778,0.278 -0.558,-36.929 85.233,-0.212 0.216,36.863 H 71.995 l -0.421,262.536 h 14.31 v 24.683" /></g><g
           transform="translate(626.9443,646.1514)"
           id="g4607"><path
             id="path4609"
             style="fill:#4e92be;fill-opacity:1;fill-rule:nonzero;stroke:none"
             d="m 0,0 v -25.132 l 13.953,-0.099 0.382,-262.437 -13.55,0.278 -0.785,-36.929 86.062,-0.212 -0.614,36.863 H 71.994 l -0.421,262.536 h 14.31 v 24.683" /></g><g
           transform="translate(305.8877,685.0781)"
           id="g4611"><path
             id="path4613"
             style="fill:#4e92be;fill-opacity:1;fill-rule:nonzero;stroke:none"
             d="m 0,0 0.165,-31.904 h 406.27 l 0.504,31.791 -204.144,100.758 z" /></g></g></g></g></svg>