<?xml version="1.0" encoding="UTF-8" standalone="no"?>
<svg
   xmlns:dc="http://purl.org/dc/elements/1.1/"
   xmlns:cc="http://creativecommons.org/ns#"
   xmlns:rdf="http://www.w3.org/1999/02/22-rdf-syntax-ns#"
   xmlns:svg="http://www.w3.org/2000/svg"
   xmlns="http://www.w3.org/2000/svg"
   viewBox="0 0 1365.3333 1365.3333"
   height="1365.3333"
   width="1365.3333"
   xml:space="preserve"
   id="svg4615"
   version="1.1"><metadata
     id="metadata4621"><rdf:RDF><cc:Work
         rdf:about=""><dc:format>image/svg+xml</dc:format><dc:type
           rdf:resource="http://purl.org/dc/dcmitype/StillImage" /><dc:title></dc:title></cc:Work></rdf:RDF></metadata><defs
     id="defs4619"><clipPath
       id="clipPath4631"
       clipPathUnits="userSpaceOnUse"><path
         id="path4629"
         d="M 0,1024 H 1024 V 0 H 0 Z" /></clipPath></defs><g
     transform="matrix(1.3333333,0,0,-1.3333333,0,1365.3333)"
     id="g4623"><g
       id="g4625"><g
         clip-path="url(#clipPath4631)"
         id="g4627"><g
           transform="translate(933,190)"
           id="g4633"><path
             id="path4635"
             style="fill:#4bafdb;fill-opacity:1;fill-rule:nonzero;stroke:none"
             d="m 0,0 c 0,-55.229 -44.771,-100 -100,-100 h -643 c -55.229,0 -100,44.771 -100,100 v 643 c 0,55.229 44.771,100 100,100 h 643 C -44.771,743 0,698.229 0,643 Z" /></g><g
           transform="translate(549.2705,390)"
           id="g4637"><path
             id="path4639"
             style="fill:#d1d3d4;fill-opacity:1;fill-rule:nonzero;stroke:none"
             d="m 0,0 h -42.543 -42.543 l -13.798,-88 h 56.341 56.342 z" /></g><g
           transform="translate(506.7275,302)"
           id="g4641"><path
             id="path4643"
             style="fill:#f1f2f2;fill-opacity:1;fill-rule:nonzero;stroke:none"
             d="M 0,0 H -80.728 V -9 H 0 80.272 v 9 z" /></g><path
           id="path4645"
           style="fill:#000000;fill-opacity:1;fill-rule:nonzero;stroke:none"
           d="M 805,351 H 218 v 375 h 587 z" /><path
           id="path4647"
           style="fill:#303030;fill-opacity:1;fill-rule:nonzero;stroke:none"
           d="M 782,379 H 240 v 325 h 542 z" /><path
           id="path4649"
           style="fill:#e22f4b;fill-opacity:1;fill-rule:nonzero;stroke:none"
           d="M 782,930 H 691 V 90 h 91 z" /><path
           id="path4651"
           style="fill:#e22f4b;fill-opacity:1;fill-rule:nonzero;stroke:none"
           d="M 638,930 H 547 V 90 h 91 z" /></g></g></g></svg>