<?xml version="1.0" encoding="UTF-8" standalone="no"?>
<svg
   xmlns:dc="http://purl.org/dc/elements/1.1/"
   xmlns:cc="http://creativecommons.org/ns#"
   xmlns:rdf="http://www.w3.org/1999/02/22-rdf-syntax-ns#"
   xmlns:svg="http://www.w3.org/2000/svg"
   xmlns="http://www.w3.org/2000/svg"
   viewBox="0 0 1365.3333 1365.3333"
   height="1365.3333"
   width="1365.3333"
   xml:space="preserve"
   id="svg4741"
   version="1.1"><metadata
     id="metadata4747"><rdf:RDF><cc:Work
         rdf:about=""><dc:format>image/svg+xml</dc:format><dc:type
           rdf:resource="http://purl.org/dc/dcmitype/StillImage" /><dc:title></dc:title></cc:Work></rdf:RDF></metadata><defs
     id="defs4745"><clipPath
       id="clipPath4757"
       clipPathUnits="userSpaceOnUse"><path
         id="path4755"
         d="M 0,1024 H 1024 V 0 H 0 Z" /></clipPath><clipPath
       id="clipPath4769"
       clipPathUnits="userSpaceOnUse"><path
         id="path4767"
         d="M 439.75,803.786 H 582.469 V 511.467 H 439.75 Z" /></clipPath><clipPath
       id="clipPath4785"
       clipPathUnits="userSpaceOnUse"><path
         id="path4783"
         d="M 499.766,733.054 H 727.201 V 500.373 H 499.766 Z" /></clipPath><clipPath
       id="clipPath4801"
       clipPathUnits="userSpaceOnUse"><path
         id="path4799"
         d="M 512.065,582.826 H 804.384 V 440.107 H 512.065 Z" /></clipPath><clipPath
       id="clipPath4817"
       clipPathUnits="userSpaceOnUse"><path
         id="path4815"
         d="M 499.718,522.426 H 732.399 V 294.991 H 499.718 Z" /></clipPath><clipPath
       id="clipPath4833"
       clipPathUnits="userSpaceOnUse"><path
         id="path4831"
         d="M 439.452,510.127 H 582.171 V 217.808 H 439.452 Z" /></clipPath><clipPath
       id="clipPath4849"
       clipPathUnits="userSpaceOnUse"><path
         id="path4847"
         d="M 294.552,523.609 H 521.987 V 290.928 H 294.552 Z" /></clipPath><clipPath
       id="clipPath4865"
       clipPathUnits="userSpaceOnUse"><path
         id="path4863"
         d="M 217.369,583.875 H 509.688 V 441.156 H 217.369 Z" /></clipPath><clipPath
       id="clipPath4881"
       clipPathUnits="userSpaceOnUse"><path
         id="path4879"
         d="M 288.579,727.819 H 521.26 V 500.384 H 288.579 Z" /></clipPath></defs><g
     transform="matrix(1.3333333,0,0,-1.3333333,0,1365.3333)"
     id="g4749"><g
       id="g4751"><g
         clip-path="url(#clipPath4757)"
         id="g4753"><g
           transform="translate(933,190)"
           id="g4759"><path
             id="path4761"
             style="fill:#ffffff;fill-opacity:1;fill-rule:nonzero;stroke:none"
             d="m 0,0 c 0,-55.229 -44.772,-100 -100,-100 h -643 c -55.229,0 -100,44.771 -100,100 v 643 c 0,55.229 44.771,100 100,100 h 643 C -44.772,743 0,698.229 0,643 Z" /></g><g
           id="g4763"><g
             id="g4765" /><g
             id="g4777"><g
               style="opacity:0.75"
               id="g4775"
               clip-path="url(#clipPath4769)"><g
                 id="g4773"
                 transform="translate(582.4692,657.6262)"><path
                   id="path4771"
                   style="fill:#e67e22;fill-opacity:1;fill-rule:nonzero;stroke:none"
                   d="m 0,0 c 0,-80.722 -31.949,-146.159 -71.359,-146.159 -39.411,0 -71.36,65.437 -71.36,146.159 0,80.722 31.949,146.159 71.36,146.159 C -31.949,146.159 0,80.722 0,0" /></g></g></g></g><g
           id="g4779"><g
             id="g4781" /><g
             id="g4793"><g
               style="opacity:0.75"
               id="g4791"
               clip-path="url(#clipPath4785)"><g
                 id="g4789"
                 transform="translate(664.8682,567.1978)"><path
                   id="path4787"
                   style="fill:#f1c40f;fill-opacity:1;fill-rule:nonzero;stroke:none"
                   d="m 0,0 c -56.012,-58.126 -124.424,-83.078 -152.803,-55.731 -28.379,27.347 -5.978,96.636 50.034,154.762 56.012,58.126 124.424,83.078 152.803,55.731 C 78.413,127.416 56.012,58.126 0,0" /></g></g></g></g><g
           id="g4795"><g
             id="g4797" /><g
             id="g4809"><g
               style="opacity:0.75"
               id="g4807"
               clip-path="url(#clipPath4801)"><g
                 id="g4805"
                 transform="translate(658.2244,440.1073)"><path
                   id="path4803"
                   style="fill:#27ae60;fill-opacity:1;fill-rule:nonzero;stroke:none"
                   d="m 0,0 c -80.722,0 -146.159,31.949 -146.159,71.359 0,39.411 65.437,71.36 146.159,71.36 80.722,0 146.159,-31.949 146.159,-71.36 C 146.159,31.949 80.722,0 0,0" /></g></g></g></g><g
           id="g4811"><g
             id="g4813" /><g
             id="g4825"><g
               style="opacity:0.75"
               id="g4823"
               clip-path="url(#clipPath4817)"><g
                 id="g4821"
                 transform="translate(566.5428,357.3239)"><path
                   id="path4819"
                   style="fill:#16a085;fill-opacity:1;fill-rule:nonzero;stroke:none"
                   d="m 0,0 c -58.126,56.012 -83.078,124.424 -55.731,152.803 27.347,28.379 96.636,5.978 154.762,-50.034 C 157.157,46.757 182.109,-21.655 154.762,-50.034 127.416,-78.413 58.126,-56.012 0,0" /></g></g></g></g><g
           id="g4827"><g
             id="g4829" /><g
             id="g4841"><g
               style="opacity:0.75"
               id="g4839"
               clip-path="url(#clipPath4833)"><g
                 id="g4837"
                 transform="translate(439.4523,363.9677)"><path
                   id="path4835"
                   style="fill:#2980b9;fill-opacity:1;fill-rule:nonzero;stroke:none"
                   d="m 0,0 c 0,80.722 31.949,146.159 71.359,146.159 39.411,0 71.36,-65.437 71.36,-146.159 0,-80.722 -31.949,-146.159 -71.36,-146.159 C 31.949,-146.159 0,-80.722 0,0" /></g></g></g></g><g
           id="g4843"><g
             id="g4845" /><g
             id="g4857"><g
               style="opacity:0.75"
               id="g4855"
               clip-path="url(#clipPath4849)"><g
                 id="g4853"
                 transform="translate(356.8852,456.7841)"><path
                   id="path4851"
                   style="fill:#8e44ad;fill-opacity:1;fill-rule:nonzero;stroke:none"
                   d="M 0,0 C 56.012,58.126 124.424,83.078 152.803,55.731 181.182,28.384 158.781,-40.905 102.769,-99.031 46.757,-157.157 -21.655,-182.109 -50.034,-154.762 -78.413,-127.416 -56.012,-58.126 0,0" /></g></g></g></g><g
           id="g4859"><g
             id="g4861" /><g
             id="g4873"><g
               style="opacity:0.75"
               id="g4871"
               clip-path="url(#clipPath4865)"><g
                 id="g4869"
                 transform="translate(363.529,583.8746)"><path
                   id="path4867"
                   style="fill:#bf2c6f;fill-opacity:1;fill-rule:nonzero;stroke:none"
                   d="m 0,0 c 80.722,0 146.159,-31.949 146.159,-71.359 0,-39.411 -65.437,-71.36 -146.159,-71.36 -80.722,0 -146.159,31.949 -146.159,71.36 C -146.159,-31.949 -80.722,0 0,0" /></g></g></g></g><g
           id="g4875"><g
             id="g4877" /><g
             id="g4889"><g
               style="opacity:0.75"
               id="g4887"
               clip-path="url(#clipPath4881)"><g
                 id="g4885"
                 transform="translate(454.435,665.4866)"><path
                   id="path4883"
                   style="fill:#c0392b;fill-opacity:1;fill-rule:nonzero;stroke:none"
                   d="m 0,0 c 58.126,-56.012 83.078,-124.424 55.731,-152.803 -27.347,-28.379 -96.636,-5.978 -154.762,50.034 -58.126,56.012 -83.078,124.424 -55.731,152.803 C -127.416,78.413 -58.126,56.012 0,0" /></g></g></g></g></g></g></g></svg>