<?xml version="1.0" encoding="UTF-8"?>
<svg width="1024px" height="1024px" viewBox="0 0 1024 1024" version="1.1" xmlns="http://www.w3.org/2000/svg" xmlns:xlink="http://www.w3.org/1999/xlink">
    <!-- Generator: Sketch 46.2 (44496) - http://www.bohemiancoding.com/sketch -->
    <title>Photo Booth</title>
    <desc>Created with Sketch.</desc>
    <defs></defs>
    <g id="Page-1" stroke="none" stroke-width="1" fill="none" fill-rule="evenodd">
        <g id="Photo-Booth">
            <rect id="Outer" fill="#C63F5A" fill-rule="nonzero" x="92" y="92" width="840" height="840" rx="100"></rect>
            <g id="Back-Row" transform="translate(619.715368, 521.655827) rotate(18.000000) translate(-619.715368, -521.655827) translate(512.215368, 240.655827)">
                <rect id="Rectangle" fill="#FFFFFF" x="0" y="0" width="215" height="562"></rect>
                <rect id="Rectangle-2" fill="#565656" x="10" y="10" width="195" height="128"></rect>
                <rect id="Rectangle-2" fill="#565656" x="10" y="148" width="195" height="128"></rect>
                <rect id="Rectangle-2" fill="#565656" x="10" y="286" width="195" height="128"></rect>
                <rect id="Rectangle-2" fill="#565656" x="10" y="424" width="195" height="128"></rect>
            </g>
            <g id="Front-Row" transform="translate(425.802652, 512.686025) rotate(-26.000000) translate(-425.802652, -512.686025) translate(318.302652, 231.686025)">
                <rect id="Rectangle" fill="#FFFFFF" x="0" y="0" width="215" height="562"></rect>
                <rect id="Rectangle-2" fill="#393939" x="10" y="10" width="195" height="128"></rect>
                <rect id="Rectangle-2" fill="#393939" x="10" y="148" width="195" height="128"></rect>
                <rect id="Rectangle-2" fill="#393939" x="10" y="286" width="195" height="128"></rect>
                <rect id="Rectangle-2" fill="#393939" x="10" y="424" width="195" height="128"></rect>
            </g>
        </g>
    </g>
</svg>