<?xml version="1.0" encoding="UTF-8" standalone="no"?>
<svg
   xmlns:dc="http://purl.org/dc/elements/1.1/"
   xmlns:cc="http://creativecommons.org/ns#"
   xmlns:rdf="http://www.w3.org/1999/02/22-rdf-syntax-ns#"
   xmlns:svg="http://www.w3.org/2000/svg"
   xmlns="http://www.w3.org/2000/svg"
   viewBox="0 0 1365.3333 1365.3333"
   height="1365.3333"
   width="1365.3333"
   xml:space="preserve"
   id="svg4961"
   version="1.1"><metadata
     id="metadata4967"><rdf:RDF><cc:Work
         rdf:about=""><dc:format>image/svg+xml</dc:format><dc:type
           rdf:resource="http://purl.org/dc/dcmitype/StillImage" /><dc:title></dc:title></cc:Work></rdf:RDF></metadata><defs
     id="defs4965"><clipPath
       id="clipPath4977"
       clipPathUnits="userSpaceOnUse"><path
         id="path4975"
         d="M 0,1024 H 1024 V 0 H 0 Z" /></clipPath><clipPath
       id="clipPath4989"
       clipPathUnits="userSpaceOnUse"><path
         id="path4987"
         d="m 436.367,448.266 76.331,38.113 -30.532,-180.827 117.466,273.57 -73.787,-39.807 23.747,179.133 z" /></clipPath><clipPath
       id="clipPath4999"
       clipPathUnits="userSpaceOnUse"><path
         id="path4997"
         d="m 292.116,744.349 c -15.294,-20.641 -22.94,-48.599 -22.94,-83.877 v 0 -45.878 c 0,-21.391 -3.19,-37.81 -9.57,-49.256 v 0 C 248.16,544.697 225.831,532.406 192.618,528.466 v 0 -32.087 c 33.025,-3.565 55.355,-16.137 66.988,-37.716 v 0 c 6.38,-11.822 9.57,-27.959 9.57,-48.412 v 0 -57.982 c 0,-37.154 10.93,-63.846 32.791,-80.077 v 0 c 21.86,-16.231 49.49,-26.036 82.891,-29.413 v 0 32.931 c -17.451,2.064 -33.494,9.242 -48.13,21.532 v 0 c -14.637,12.291 -21.955,32.885 -21.955,61.782 v 0 42.501 c 0,26.834 -3.471,48.037 -10.414,63.611 v 0 c -12.76,28.335 -37.153,44.097 -73.181,47.286 v 0 c 36.216,3.378 60.609,18.671 73.181,45.879 v 0 c 6.943,15.012 10.414,36.59 10.414,64.737 v 0 31.524 c 0,23.268 2.909,41.469 8.726,54.604 v 0 c 10.695,24.018 31.149,37.341 61.359,39.968 v 0 32.087 c -46.535,-3.94 -77.45,-16.231 -92.742,-36.872" /></clipPath><clipPath
       id="clipPath5007"
       clipPathUnits="userSpaceOnUse"><path
         id="path5005"
         d="m 186.208,787.63 h 205.06 V 236.37 h -205.06 z" /></clipPath><clipPath
       id="clipPath5021"
       clipPathUnits="userSpaceOnUse"><path
         id="path5019"
         d="m 639.142,748.29 c 17.451,-2.065 33.495,-9.242 48.13,-21.533 v 0 c 14.637,-12.29 21.955,-32.884 21.955,-61.781 v 0 -42.501 c 0,-26.833 3.471,-48.037 10.414,-63.611 v 0 c 12.76,-28.335 37.153,-44.096 73.181,-47.286 v 0 c -36.215,-3.378 -60.609,-18.67 -73.181,-45.879 v 0 c -6.943,-15.011 -10.414,-36.59 -10.414,-64.736 v 0 -31.525 c 0,-23.267 -2.909,-41.469 -8.726,-54.604 v 0 c -10.695,-24.019 -31.149,-37.341 -61.359,-39.968 v 0 -32.087 c 46.536,3.941 77.45,16.231 92.742,36.872 v 0 c 15.293,20.641 22.94,48.6 22.94,83.876 v 0 45.879 c 0,21.392 3.19,37.81 9.569,49.257 v 0 c 11.447,20.64 33.776,32.931 66.989,36.872 v 0 32.086 c -33.025,3.565 -55.354,16.137 -66.989,37.717 v 0 c -6.379,11.821 -9.569,27.958 -9.569,48.412 v 0 57.981 c 0,37.154 -10.93,63.845 -32.791,80.077 v 0 c -21.86,16.231 -49.49,26.035 -82.891,29.413 v 0 z" /></clipPath><clipPath
       id="clipPath5029"
       clipPathUnits="userSpaceOnUse"><path
         id="path5027"
         d="m 632.732,787.63 h 205.06 V 236.37 h -205.06 z" /></clipPath></defs><g
     transform="matrix(1.3333333,0,0,-1.3333333,0,1365.3333)"
     id="g4969"><g
       id="g4971"><g
         clip-path="url(#clipPath4977)"
         id="g4973"><g
           transform="translate(933,190)"
           id="g4979"><path
             id="path4981"
             style="fill:#5c4a72;fill-opacity:1;fill-rule:nonzero;stroke:none"
             d="m 0,0 c 0,-55.229 -44.772,-100 -100,-100 h -643 c -55.229,0 -100,44.771 -100,100 v 643 c 0,55.229 44.771,100 100,100 h 643 C -44.772,743 0,698.229 0,643 Z" /></g></g></g><g
       id="g4983"><g
         clip-path="url(#clipPath4989)"
         id="g4985"><path
           id="path4991"
           style="fill:#dd7e2b;fill-opacity:1;fill-rule:nonzero;stroke:none"
           d="M 429.957,724.858 H 606.042 V 299.143 H 429.957 Z" /></g></g><g
       id="g4993"><g
         clip-path="url(#clipPath4999)"
         id="g4995"><g
           id="g5001"><g
             id="g5003" /><g
             id="g5013"><g
               style="opacity:0.64280701"
               id="g5011"
               clip-path="url(#clipPath5007)"><path
                 id="path5009"
                 style="fill:#ffffff;fill-opacity:1;fill-rule:nonzero;stroke:none"
                 d="M 186.208,787.63 H 391.267 V 236.369 H 186.208 Z" /></g></g></g></g></g><g
       id="g5015"><g
         clip-path="url(#clipPath5021)"
         id="g5017"><g
           id="g5023"><g
             id="g5025" /><g
             id="g5035"><g
               style="opacity:0.64280701"
               id="g5033"
               clip-path="url(#clipPath5029)"><path
                 id="path5031"
                 style="fill:#ffffff;fill-opacity:1;fill-rule:nonzero;stroke:none"
                 d="m 632.732,787.63 h 205.06 V 236.369 h -205.06 z" /></g></g></g></g></g></g></svg>