<?xml version="1.0" encoding="UTF-8" standalone="no"?>
<svg
   xmlns:dc="http://purl.org/dc/elements/1.1/"
   xmlns:cc="http://creativecommons.org/ns#"
   xmlns:rdf="http://www.w3.org/1999/02/22-rdf-syntax-ns#"
   xmlns:svg="http://www.w3.org/2000/svg"
   xmlns="http://www.w3.org/2000/svg"
   viewBox="0 0 1365.3333 1365.3333"
   height="1365.3333"
   width="1365.3333"
   xml:space="preserve"
   id="svg4891"
   version="1.1"><metadata
     id="metadata4897"><rdf:RDF><cc:Work
         rdf:about=""><dc:format>image/svg+xml</dc:format><dc:type
           rdf:resource="http://purl.org/dc/dcmitype/StillImage" /><dc:title></dc:title></cc:Work></rdf:RDF></metadata><defs
     id="defs4895"><clipPath
       id="clipPath4907"
       clipPathUnits="userSpaceOnUse"><path
         id="path4905"
         d="M 0,1024 H 1024 V 0 H 0 Z" /></clipPath><clipPath
       id="clipPath4919"
       clipPathUnits="userSpaceOnUse"><path
         id="path4917"
         d="M 0,1024 H 1024 V 0 H 0 Z" /></clipPath><clipPath
       id="clipPath4927"
       clipPathUnits="userSpaceOnUse"><path
         id="path4925"
         d="M 91,933 H 934 V 90 H 91 Z" /></clipPath><clipPath
       id="clipPath4943"
       clipPathUnits="userSpaceOnUse"><path
         id="path4941"
         d="M 0,1024 H 1024 V 0 H 0 Z" /></clipPath><clipPath
       id="clipPath4951"
       clipPathUnits="userSpaceOnUse"><path
         id="path4949"
         d="M 218.003,749.907 H 806.974 V 274.051 H 218.003 Z" /></clipPath></defs><g
     transform="matrix(1.3333333,0,0,-1.3333333,0,1365.3333)"
     id="g4899"><g
       id="g4901"><g
         clip-path="url(#clipPath4907)"
         id="g4903"><g
           transform="translate(834,933)"
           id="g4909"><path
             id="path4911"
             style="fill:#fff100;fill-opacity:1;fill-rule:nonzero;stroke:none"
             d="m 0,0 h -643 c -55.229,0 -100,-44.771 -100,-100 v -643 c 0,-55.229 44.771,-100 100,-100 H 0 c 55.229,0 100,44.771 100,100 v 643 C 100,-44.771 55.229,0 0,0" /></g></g></g><g
       id="g4913"><g
         clip-path="url(#clipPath4919)"
         id="g4915"><g
           id="g4921"><g
             id="g4923" /><g
             id="g4935"><g
               id="g4933"
               clip-path="url(#clipPath4927)"><g
                 id="g4931"
                 transform="translate(834,933)"><path
                   id="path4929"
                   style="fill:#5058a6;fill-opacity:1;fill-rule:nonzero;stroke:none"
                   d="m 0,0 h -643 c -55.229,0 -100,-44.771 -100,-100 v -643 c 0,-55.229 44.771,-100 100,-100 H 0 c 55.229,0 100,44.771 100,100 v 643 C 100,-44.771 55.229,0 0,0" /></g></g></g></g></g></g><g
       id="g4937"><g
         clip-path="url(#clipPath4943)"
         id="g4939"><g
           id="g4945"><g
             id="g4947" /><g
             id="g4959"><g
               id="g4957"
               clip-path="url(#clipPath4951)"><g
                 id="g4955"
                 transform="translate(806.4951,430.9248)"><path
                   id="path4953"
                   style="fill:#ffffff;fill-opacity:1;fill-rule:evenodd;stroke:none"
                   d="m 0,0 c 0,22.078 -15.666,54.558 -15.666,54.558 -2.457,5.755 -10.74,17.848 -16.074,25.328 h 0.111 c -1.705,2.313 -2.885,3.844 -2.885,3.844 -15.614,18.069 -39.332,38.259 -49.752,51.242 -12.237,15.207 -12.576,29.453 -13.226,40.577 -1.771,29.983 10.267,48.075 23.14,65.788 19.481,26.732 26.496,31.729 41.469,49.203 9.575,11.175 17.468,20.219 23.949,28.442 h -145.213 c -8.632,-11.118 -26.18,-32.553 -36.196,-51.569 -13.226,-25.163 -24.121,-44.056 -25.185,-90.385 l 0.465,-14.944 c 0,-22.078 15.698,-54.515 15.698,-54.515 2.448,-5.77 10.732,-17.919 16.028,-25.341 h -0.126 c 1.757,-2.342 2.9,-3.846 2.9,-3.846 15.651,-18.069 39.331,-38.263 49.789,-51.246 12.222,-15.23 12.539,-29.477 13.175,-40.559 1.793,-29.981 -10.267,-48.079 -23.14,-65.791 -19.458,-26.762 -26.487,-31.735 -41.455,-49.241 -9.566,-11.147 -17.422,-20.195 -23.908,-28.419 h 149.999 c 8.813,11.427 21.31,32.436 31.392,51.572 13.226,25.17 24.135,44.063 25.19,90.363 z m -492.004,-30.451 v 53.634 c 0,11.878 -4.088,18.214 -12.297,18.214 -8.232,0 -12.348,-6.336 -12.348,-18.214 v -53.634 c 0,-11.896 4.116,-17.422 12.348,-17.422 8.209,0 12.297,5.526 12.297,17.422 m 293.104,-83.458 c 4.97,5.799 9.125,10.304 13.1,14.639 7.936,8.609 14.788,16.028 27.276,33.215 12.275,16.852 20.218,29.506 18.937,51.293 -0.651,11.185 -1.102,18.875 -8.335,27.885 -4.353,5.415 -12.424,13.283 -21.009,21.581 -9.272,9.021 -17.319,17.601 -28.237,29.038 -10.945,11.474 -25.077,40.689 -25.077,40.689 -4.92,11.325 -14.871,36.84 -14.871,57.653 l -0.466,14.233 c 0,0.585 0.052,1.025 0.075,1.597 H -397.973 V 61.592 c 8.204,10.486 19.977,14.069 30.959,14.069 17.835,0 33.2,-10.491 33.2,-33.706 V -77.173 H -375.51 V 27.586 c 0,9.394 -3.804,13.811 -10.941,13.811 -7.996,0 -11.522,-5.236 -11.522,-13.811 V -77.173 h -41.669 v 255.087 h -148.85 v -334.788 h 30.184 V 71.549 h 37.538 V 53.873 c 8.775,14.903 21.942,21.788 34.002,21.788 21.408,0 36.46,-16.565 36.46,-46.688 v -67.976 c 0,-25.459 -16.984,-42.31 -36.46,-42.31 -11.234,0 -20.571,5.227 -29.881,17.404 v -92.965 h 195.824 V 71.549 h 37.524 V 53.873 c 8.8,14.903 21.951,21.788 33.998,21.788 21.412,0 36.47,-16.565 36.47,-46.688 v -67.976 c 0,-25.459 -16.98,-42.31 -36.47,-42.31 -11.219,0 -20.544,5.227 -29.858,17.404 v -92.965 h 42.987 l 12.799,13.881 c 5.725,7.24 12.479,15.137 20.47,24.419 z m -55.61,83.458 v 53.634 c 0,11.878 -4.103,18.214 -12.312,18.214 -8.246,0 -12.339,-6.336 -12.339,-18.214 v -53.634 c 0,-11.896 4.093,-17.422 12.339,-17.422 8.209,0 12.312,5.526 12.312,17.422" /></g></g></g></g></g></g></g></svg>