<?xml version="1.0" encoding="UTF-8" standalone="no"?>
<svg
   xmlns:dc="http://purl.org/dc/elements/1.1/"
   xmlns:cc="http://creativecommons.org/ns#"
   xmlns:rdf="http://www.w3.org/1999/02/22-rdf-syntax-ns#"
   xmlns:svg="http://www.w3.org/2000/svg"
   xmlns="http://www.w3.org/2000/svg"
   viewBox="0 0 1365.3333 1365.3333"
   height="1365.3333"
   width="1365.3333"
   xml:space="preserve"
   id="svg5037"
   version="1.1"><metadata
     id="metadata5043"><rdf:RDF><cc:Work
         rdf:about=""><dc:format>image/svg+xml</dc:format><dc:type
           rdf:resource="http://purl.org/dc/dcmitype/StillImage" /><dc:title></dc:title></cc:Work></rdf:RDF></metadata><defs
     id="defs5041"><clipPath
       id="clipPath5053"
       clipPathUnits="userSpaceOnUse"><path
         id="path5051"
         d="M 0,1024 H 1024 V 0 H 0 Z" /></clipPath></defs><g
     transform="matrix(1.3333333,0,0,-1.3333333,0,1365.3333)"
     id="g5045"><g
       id="g5047"><g
         clip-path="url(#clipPath5053)"
         id="g5049"><g
           transform="translate(933,190)"
           id="g5055"><path
             id="path5057"
             style="fill:#b59761;fill-opacity:1;fill-rule:nonzero;stroke:none"
             d="m 0,0 c 0,-55.229 -44.771,-100 -100,-100 h -643 c -55.229,0 -100,44.771 -100,100 v 643 c 0,55.229 44.771,100 100,100 h 643 C -44.771,743 0,698.229 0,643 Z" /></g><g
           transform="translate(280.9839,325.9424)"
           id="g5059"><path
             id="path5061"
             style="fill:#f3c43a;fill-opacity:1;fill-rule:nonzero;stroke:none"
             d="m 0,0 c -26.498,0 -48.975,20.72 -51.172,47.17 l -26.009,313.076 c -1.137,13.688 3.124,27 11.999,37.483 8.875,10.483 21.302,16.882 34.99,18.02 l 422.699,35.115 c 1.44,0.12 2.897,0.181 4.331,0.181 26.497,0 48.975,-20.719 51.172,-47.169 L 474.02,90.8 C 476.368,62.543 455.288,37.644 427.03,35.296 L 4.332,0.18 C 2.892,0.061 1.435,0 0,0" /></g><g
           transform="translate(677.8223,791.9873)"
           id="g5063"><path
             id="path5065"
             style="fill:#ffffff;fill-opacity:1;fill-rule:nonzero;stroke:none"
             d="m 0,0 c -1.843,0 -3.703,-0.077 -5.573,-0.232 l -422.699,-35.116 c -36.559,-3.037 -63.733,-35.135 -60.696,-71.693 l 26.009,-313.076 c 2.882,-34.689 31.926,-60.928 66.121,-60.928 1.843,0 3.703,0.076 5.573,0.232 l 422.699,35.116 c 36.558,3.037 63.733,35.135 60.696,71.694 L 66.12,-60.927 C 63.238,-26.239 34.195,0.001 0,0 m 0.002,-29.987 c 9.08,0 17.794,-3.409 24.537,-9.585 6.773,-6.204 10.923,-14.671 11.684,-23.836 l 26.009,-313.076 c 1.664,-20.015 -13.267,-37.653 -33.282,-39.315 l -422.7,-35.118 c -1.027,-0.085 -2.066,-0.128 -3.088,-0.128 -9.081,0 -17.796,3.401 -24.54,9.578 -6.773,6.204 -10.922,14.668 -11.684,23.833 l -26.009,313.077 c -0.805,9.695 2.213,19.124 8.499,26.549 6.286,7.425 15.088,11.958 24.783,12.763 l 422.7,35.122 c 1.027,0.086 2.067,0.136 3.089,0.136 h 0.178" /></g><g
           transform="translate(633.0635,291.6318)"
           id="g5067"><path
             id="path5069"
             style="fill:#e5e5e5;fill-opacity:1;fill-rule:nonzero;stroke:none"
             d="M 0,0 -49.109,22.458 9.277,150.14 58.387,127.684 Z" /></g><g
           transform="translate(691.4502,419.3154)"
           id="g5071"><path
             id="path5073"
             style="fill:#508cc4;fill-opacity:1;fill-rule:nonzero;stroke:none"
             d="M 0,0 -49.109,22.456 92.366,331.841 c 6.202,13.56 22.221,19.527 35.783,13.326 13.562,-6.201 19.527,-22.221 13.327,-35.782 z" /></g><g
           transform="translate(603.8691,227.793)"
           id="g5075"><path
             id="path5077"
             style="fill:#8b5e3c;fill-opacity:1;fill-rule:nonzero;stroke:none"
             d="m 0,0 c -6.202,-13.562 -22.221,-19.529 -35.784,-13.328 -13.56,6.203 -19.525,22.223 -13.325,35.783 l 29.194,63.842 49.109,-22.458 z" /></g></g></g></g></svg>