<?xml version="1.0" encoding="UTF-8" standalone="no"?>
<!DOCTYPE svg PUBLIC "-//W3C//DTD SVG 1.1//EN" "http://www.w3.org/Graphics/SVG/1.1/DTD/svg11.dtd">
<svg width="100%" height="100%" viewBox="0 0 1366 1366" version="1.1" xmlns="http://www.w3.org/2000/svg" xmlns:xlink="http://www.w3.org/1999/xlink" xml:space="preserve" xmlns:serif="http://www.serif.com/" style="fill-rule:evenodd;clip-rule:evenodd;stroke-linejoin:round;stroke-miterlimit:1.41421;">
    <g transform="matrix(1.33333,0,0,-1.33333,1239.15,1111.31)">
        <g id="g4753">
            <path id="path4761" d="M0,0C0,-55.229 -44.772,-100 -100,-100L-743,-100C-798.229,-100 -843,-55.229 -843,0L-843,643C-843,698.229 -798.229,743 -743,743L-100,743C-44.772,743 0,698.229 0,643L0,0Z" style="fill:white;fill-rule:nonzero;"/>
            <clipPath id="_clip1">
                <path id="path47611" serif:id="path4761" d="M0,0C0,-55.229 -44.772,-100 -100,-100L-743,-100C-798.229,-100 -843,-55.229 -843,0L-843,643C-843,698.229 -798.229,743 -743,743L-100,743C-44.772,743 0,698.229 0,643L0,0Z" clip-rule="nonzero"/>
            </clipPath>
            <g clip-path="url(#_clip1)">
                <g transform="matrix(1,0,0,1,-908.837,-157.647)">
                    <g transform="matrix(0.680156,0.31605,0.31605,-0.680156,-272.579,822.895)">
                        <path d="M561.928,725.07C422.236,735.805 201.953,873.451 249.487,971.919C297.02,1070.39 668.419,1113.23 758.575,1082.49C848.731,1051.75 1062.51,935.053 872.069,822.139C681.63,709.224 701.62,714.335 561.928,725.07Z" style="fill:rgb(255,159,93);fill-opacity:0.752941;"/>
                    </g>
                    <g transform="matrix(-0.371261,-0.440783,-0.507474,0.427433,1210.14,256.833)">
                        <path d="M902.219,699.615C783.81,606.397 569.127,781.13 495.89,839.455C422.652,897.781 362.076,947.426 377.141,989.714C392.206,1032 398.165,1121.36 434.068,1129.57C656.087,1180.38 841.527,1084.8 890.263,1016.27C938.998,947.738 1020.63,792.832 902.219,699.615Z" style="fill:rgb(185,134,235);fill-opacity:0.752941;"/>
                    </g>
                    <g transform="matrix(-0.272381,-0.698791,-0.548148,0.213662,1345.14,901.612)">
                        <path d="M1062.56,494.996C946.308,469.22 862.532,544.906 812.695,734.272C762.858,923.638 824.364,1111.8 876.098,1133.67C927.832,1155.55 1098.37,1077.61 1130.27,953.634C1164.46,820.738 1167.14,726.873 1162.38,690.442C1153.92,625.626 1161.12,516.849 1062.56,494.996Z" style="fill:rgb(134,171,235);fill-opacity:0.752941;"/>
                    </g>
                    <g transform="matrix(0.75,0,0,-0.75,-38.9623,1000.66)">
                        <path d="M867.198,506.043C933.494,496.448 1164.34,679.156 1147.07,730.804C1129.8,782.452 840.607,852.264 791.493,777.048C742.379,701.833 800.901,515.637 867.198,506.043Z" style="fill:rgb(101,218,133);fill-opacity:0.752941;"/>
                    </g>
                    <g transform="matrix(0.75,0,0,-0.75,30.0705,955.122)">
                        <path d="M837.245,376.185C882.129,411.8 810.774,713.708 722.591,710.364C634.408,707.02 529.282,553.815 552.735,492.903C576.188,431.991 789.7,338.46 837.245,376.185Z" style="fill:rgb(255,209,75);fill-opacity:0.752941;"/>
                    </g>
                    <g transform="matrix(0.75,0,0,-0.75,0,1024)">
                        <path d="M391.478,297.779C525.187,310.919 820.206,553.748 804.767,639.33C789.328,724.912 467.46,923.25 295.784,712.333C124.108,501.415 257.769,284.639 391.478,297.779Z" style="fill:rgb(235,110,134);fill-opacity:0.752941;"/>
                    </g>
                </g>
                <g transform="matrix(0.833527,4.47234e-18,-1.0655e-16,-0.833527,-887.03,940.675)">
                    <g transform="matrix(0.713215,7.00417e-17,5.55112e-17,1,408.172,-160.112)">
                        <path d="M619.108,226.535C670.207,227.938 681.711,256.682 682.667,270.249C672.089,688.849 654.531,1099.89 654.52,1100.16L608.01,1100.16L582.573,1100.16C582.573,1100.16 565.007,688.989 554.426,270.249C555.382,256.682 566.886,227.938 617.984,226.535L618.007,226.509L618.546,226.521L619.086,226.509L619.108,226.535Z" style="fill:rgb(159,171,176);"/>
                        <clipPath id="_clip2">
                            <path d="M619.108,226.535C670.207,227.938 681.711,256.682 682.667,270.249C672.089,688.849 654.531,1099.89 654.52,1100.16L608.01,1100.16L582.573,1100.16C582.573,1100.16 565.007,688.989 554.426,270.249C555.382,256.682 566.886,227.938 617.984,226.535L618.007,226.509L618.546,226.521L619.086,226.509L619.108,226.535Z"/>
                        </clipPath>
                        <g clip-path="url(#_clip2)">
                            <g transform="matrix(1.2616,-8.35367e-17,9.12377e-17,0.899791,-643.503,288.716)">
                                <rect x="920.49" y="689.213" width="152.285" height="256.084" style="fill:rgb(229,229,229);"/>
                            </g>
                        </g>
                    </g>
                    <g transform="matrix(1.09336,0,0,1.09336,-79.2946,-86.2295)">
                        <path d="M849.328,924.06C959.477,924.06 847.403,1141.9 849.328,1141.9C851.253,1141.9 739.18,924.06 849.328,924.06Z" style="fill:rgb(67,53,51);"/>
                    </g>
                </g>
            </g>
        </g>
    </g>
</svg>
