<?xml version="1.0" encoding="UTF-8" standalone="no"?>
<svg
   xmlns:dc="http://purl.org/dc/elements/1.1/"
   xmlns:cc="http://creativecommons.org/ns#"
   xmlns:rdf="http://www.w3.org/1999/02/22-rdf-syntax-ns#"
   xmlns:svg="http://www.w3.org/2000/svg"
   xmlns="http://www.w3.org/2000/svg"
   viewBox="0 0 1365.3333 1365.3333"
   height="1365.3333"
   width="1365.3333"
   xml:space="preserve"
   id="svg5105"
   version="1.1"><metadata
     id="metadata5111"><rdf:RDF><cc:Work
         rdf:about=""><dc:format>image/svg+xml</dc:format><dc:type
           rdf:resource="http://purl.org/dc/dcmitype/StillImage" /><dc:title></dc:title></cc:Work></rdf:RDF></metadata><defs
     id="defs5109"><clipPath
       id="clipPath5121"
       clipPathUnits="userSpaceOnUse"><path
         id="path5119"
         d="M 0,1024 H 1024 V 0 H 0 Z" /></clipPath></defs><g
     transform="matrix(1.3333333,0,0,-1.3333333,0,1365.3333)"
     id="g5113"><g
       id="g5115"><g
         clip-path="url(#clipPath5121)"
         id="g5117"><g
           transform="translate(933,190)"
           id="g5123"><path
             id="path5125"
             style="fill:#fcfcfc;fill-opacity:1;fill-rule:nonzero;stroke:none"
             d="m 0,0 v 643 c 0,55.229 -44.771,100 -100,100 h -643 c -55.229,0 -100,-44.771 -100,-100 V 0 c 0,-12.314 2.231,-24.105 6.302,-35 H -6.303 C -2.231,-24.105 0,-12.314 0,0" /></g><path
           id="path5127"
           style="fill:#4db4b0;fill-opacity:1;fill-rule:nonzero;stroke:none"
           d="m 301,90 h 209 v 65 H 301 Z" /><path
           id="path5129"
           style="fill:#ef3d57;fill-opacity:1;fill-rule:nonzero;stroke:none"
           d="m 510,90 h 214 v 65 H 510 Z" /><g
           transform="translate(926.6973,155)"
           id="g5131"><path
             id="path5133"
             style="fill:#eead45;fill-opacity:1;fill-rule:nonzero;stroke:none"
             d="m 0,0 h -202.697 v -65 h 109 C -50.783,-65 -14.188,-37.965 0,0" /></g><g
           transform="translate(96.3022,155)"
           id="g5135"><path
             id="path5137"
             style="fill:#81e3b4;fill-opacity:1;fill-rule:nonzero;stroke:none"
             d="m 0,0 c 14.188,-37.965 50.784,-65 93.698,-65 h 111 V 0 Z" /></g><g
           transform="translate(319,731)"
           id="g5139"><path
             id="path5141"
             style="fill:#ef3d57;fill-opacity:1;fill-rule:nonzero;stroke:none"
             d="m 0,0 h 386 c 9,0 17,-2.25 21,-7.25 7,-8.5 7,-13.75 7,-20.75 v -186 c 0,-23 -2.75,-44 -22.75,-74 -20,-30 -87.625,-109 -198.625,-109 -111,0 -184.25,83 -200.25,109 -11.637,18.91 -25.375,45 -25.375,73 v 181 c 0,5 0.25,16.25 11.25,26.25 C -14.75,-0.75 -9,0 0,0" /></g><g
           transform="translate(392,614)"
           id="g5143"><path
             id="path5145"
             style="fill:#f3f3f3;fill-opacity:1;fill-rule:nonzero;stroke:none"
             d="m 0,0 c 10.245,7.684 26,11 38,-1 12,-12 69,-70 74,-75 5,-5 8,-5 14,1 6,6 64,66 77,77 13,11 31,6 39,-4 8,-10 18,-23 1,-41 -17,-18 -94,-95 -104,-105 -10,-10 -27,-11 -38,-1 -11,10 -102,100 -110,110 -8,10 -3,30 9,39" /></g></g></g></g></svg>