<?xml version="1.0" encoding="UTF-8" standalone="no"?>
<svg
   xmlns:dc="http://purl.org/dc/elements/1.1/"
   xmlns:cc="http://creativecommons.org/ns#"
   xmlns:rdf="http://www.w3.org/1999/02/22-rdf-syntax-ns#"
   xmlns:svg="http://www.w3.org/2000/svg"
   xmlns="http://www.w3.org/2000/svg"
   viewBox="0 0 1280 1280"
   height="1280"
   width="1280"
   xml:space="preserve"
   version="1.1"
   id="svg2"><metadata
     id="metadata8"><rdf:RDF><cc:Work
         rdf:about=""><dc:format>image/svg+xml</dc:format><dc:type
           rdf:resource="http://purl.org/dc/dcmitype/StillImage" /><dc:title></dc:title></cc:Work></rdf:RDF></metadata><defs
     id="defs6"><clipPath
       id="clipPath16"
       clipPathUnits="userSpaceOnUse"><path
         id="path18"
         d="M 191,933 C 135.771,933 91,888.229 91,833 l 0,0 0,-643 C 91,134.771 135.771,90 191,90 l 0,0 643,0 c 55.229,0 100,44.771 100,100 l 0,0 0,643 c 0,55.229 -44.771,100 -100,100 l 0,0 -643,0 z" /></clipPath><clipPath
       id="clipPath28"
       clipPathUnits="userSpaceOnUse"><path
         id="path30"
         d="m 288,805 c -38.66,0 -70,-31.34 -70,-70 l 0,0 0,-447 c 0,-38.66 31.34,-70 70,-70 l 0,0 447,0 c 38.66,0 70,31.34 70,70 l 0,0 0,447 c 0,38.66 -31.34,70 -70,70 l 0,0 -447,0 z" /></clipPath></defs><g
     transform="matrix(1.25,0,0,-1.25,0,1280)"
     id="g10"><g
       id="g12"><g
         clip-path="url(#clipPath16)"
         id="g14"><g
           transform="translate(933,190)"
           id="g20"><path
             id="path22"
             style="fill:#ffffff;fill-opacity:1;fill-rule:nonzero;stroke:none"
             d="m 0,0 c 0,-55.229 -44.772,-100 -100,-100 l -643,0 c -55.229,0 -100,44.771 -100,100 l 0,643 c 0,55.229 44.771,100 100,100 l 643,0 C -44.772,743 0,698.229 0,643 L 0,0 Z" /></g></g></g><g
       id="g24"><g
         clip-path="url(#clipPath28)"
         id="g26"><g
           transform="translate(231.2462,249.6838)"
           id="g32"><path
             id="path34"
             style="fill:#4eb8ef;fill-opacity:1;fill-rule:nonzero;stroke:none"
             d="m 0,0 c -0.21,3.032 -0.604,6.063 -0.605,9.095 -0.032,101.647 -0.033,203.294 0.013,304.942 0.001,2.696 -1.343,6.419 0.838,7.881 2.879,1.931 5.53,-1.494 7.992,-2.915 90.813,-52.418 181.568,-104.937 272.331,-157.442 0.008,-0.546 0.002,-1.09 -0.017,-1.635 -3.717,-0.412 -6.732,-2.507 -9.812,-4.306 C 249.259,143.081 227.905,130.323 206.371,117.876 152.308,86.63 98.247,55.381 44.017,24.428 29.449,16.113 15.726,6.235 0,0" /></g><g
           transform="translate(511.7977,409.6096)"
           id="g36"><path
             id="path38"
             style="fill:#b4fef3;fill-opacity:1;fill-rule:nonzero;stroke:none"
             d="m 0,0 c 0.02,0.545 0.025,1.09 0.017,1.635 35.801,20.532 71.624,41.027 107.397,61.608 41.778,24.035 83.511,48.146 125.266,72.221 13.438,7.748 26.877,15.495 40.333,23.212 2.356,1.351 4.799,2.553 7.396,3.926 1.997,-2.604 1.236,-5.151 1.237,-7.461 0.045,-102.735 0.053,-205.471 -0.032,-308.207 -0.002,-2.794 1.54,-6.208 -1.896,-8.325 -29.862,17.393 -59.701,34.831 -89.596,52.172 -38.776,22.491 -77.571,44.952 -116.409,67.335 C 49.28,-27.802 24.751,-13.886 0.266,0.104 L 0,0 Z" /></g><g
           transform="translate(790.0841,615.9277)"
           id="g40"><path
             id="path42"
             style="fill:#fc8069;fill-opacity:1;fill-rule:nonzero;stroke:none"
             d="m 0,0 c 6.409,-3.437 -0.567,-4.096 -1.378,-4.581 -15.457,-9.242 -31.058,-18.245 -46.653,-27.256 -73.901,-42.697 -147.809,-85.382 -221.72,-128.062 -2.597,-1.5 -4.937,-3.651 -8.248,-3.477 -0.118,53.977 -0.233,107.951 -0.349,161.926 0.588,0.032 1.176,0.063 1.764,0.095 89.554,-0.009 179.109,-0.026 268.663,0.013 C -5.254,-1.341 -2.326,-2.261 0,0" /></g><g
           transform="translate(513.4998,614.5725)"
           id="g44"><path
             id="path46"
             style="fill:#fc7485;fill-opacity:1;fill-rule:nonzero;stroke:none"
             d="m 0,0 c -0.588,-0.032 -1.176,-0.063 -1.763,-0.094 -88.828,0.025 -177.657,0.029 -266.485,0.15 -3.382,0.004 -7.284,-1.611 -10.126,1.842 17.992,12.422 37.448,22.387 56.311,33.333 71.142,41.285 142.429,82.32 213.693,123.395 2.543,1.465 4.874,3.902 8.328,2.96 C -0.028,107.724 -0.014,53.862 0,0" /></g><g
           transform="translate(235.1258,616.4708)"
           id="g48"><path
             id="path50"
             style="fill:#fb425b;fill-opacity:1;fill-rule:nonzero;stroke:none"
             d="m 0,0 c 2.842,-3.454 6.744,-1.838 10.126,-1.842 88.828,-0.122 177.657,-0.125 266.485,-0.15 0.115,-53.976 0.231,-107.95 0.348,-161.927 -23.845,13.492 -47.781,26.833 -71.523,40.51 C 137.745,-84.414 70.118,-45.306 2.595,-6.02 1.293,-5.262 -6.734,-5.102 0,0" /></g><g
           transform="translate(231.2462,249.6838)"
           id="g52"><path
             id="path54"
             style="fill:#53def2;fill-opacity:1;fill-rule:nonzero;stroke:none"
             d="m 0,0 c 15.726,6.235 29.449,16.113 44.017,24.428 54.23,30.953 108.291,62.202 162.354,93.448 21.534,12.447 42.888,25.205 64.369,37.744 3.08,1.799 6.095,3.894 9.812,4.306 0,0 0.265,0.104 0.264,0.103 C 280.716,106.196 280.619,52.363 280.521,-1.47 221.689,-1.55 162.857,-1.643 104.026,-1.703 72.11,-1.735 40.194,-1.763 8.279,-1.611 5.553,-1.598 2.188,-3.339 0,0" /></g><g
           transform="translate(511.7673,248.2137)"
           id="g56"><path
             id="path58"
             style="fill:#79fdef;fill-opacity:1;fill-rule:nonzero;stroke:none"
             d="M 0,0 C 0.098,53.833 0.195,107.666 0.294,161.499 24.782,147.51 49.31,133.594 73.743,119.512 112.582,97.129 151.376,74.668 190.153,52.177 220.048,34.836 249.887,17.398 279.748,0.004 238.118,-0.077 196.489,-0.231 154.86,-0.226 103.24,-0.219 51.62,-0.081 0,0" /></g><g
           transform="translate(513.4998,614.5725)"
           id="g60"><path
             id="path62"
             style="fill:#fcac9b;fill-opacity:1;fill-rule:nonzero;stroke:none"
             d="M 0,0 C -0.014,53.862 -0.028,107.724 -0.042,161.586 29.061,144.999 58.23,128.525 87.254,111.8 146.54,77.64 205.758,43.363 264.964,9.064 268.975,6.74 273.437,5.014 276.585,1.356 274.258,-0.906 271.33,0.014 268.664,0.013 179.109,-0.025 89.555,-0.009 0,0" /></g></g></g></g></svg>