<?xml version="1.0" encoding="UTF-8" standalone="no"?>
<svg
   xmlns:dc="http://purl.org/dc/elements/1.1/"
   xmlns:cc="http://creativecommons.org/ns#"
   xmlns:rdf="http://www.w3.org/1999/02/22-rdf-syntax-ns#"
   xmlns:svg="http://www.w3.org/2000/svg"
   xmlns="http://www.w3.org/2000/svg"
   viewBox="0 0 1365.3333 1365.3333"
   height="1365.3333"
   width="1365.3333"
   xml:space="preserve"
   id="svg5147"
   version="1.1"><metadata
     id="metadata5153"><rdf:RDF><cc:Work
         rdf:about=""><dc:format>image/svg+xml</dc:format><dc:type
           rdf:resource="http://purl.org/dc/dcmitype/StillImage" /><dc:title></dc:title></cc:Work></rdf:RDF></metadata><defs
     id="defs5151"><clipPath
       id="clipPath5163"
       clipPathUnits="userSpaceOnUse"><path
         id="path5161"
         d="M 0,1024 H 1024 V 0 H 0 Z" /></clipPath></defs><g
     transform="matrix(1.3333333,0,0,-1.3333333,0,1365.3333)"
     id="g5155"><g
       id="g5157"><g
         clip-path="url(#clipPath5163)"
         id="g5159"><g
           transform="translate(933,190)"
           id="g5165"><path
             id="path5167"
             style="fill:#b3e5fc;fill-opacity:1;fill-rule:nonzero;stroke:none"
             d="m 0,0 c 0,-55.229 -44.771,-100 -100,-100 h -643 c -55.229,0 -100,44.771 -100,100 v 643 c 0,55.229 44.771,100 100,100 h 643 C -44.771,743 0,698.229 0,643 Z" /></g><g
           transform="translate(303.2881,498.3984)"
           id="g5169"><path
             id="path5171"
             style="fill:#faebd6;fill-opacity:1;fill-rule:nonzero;stroke:none"
             d="m 0,0 c -9.942,16.525 2.205,29.025 2.205,29.025 0,0 -32.845,16.002 -30.104,50.935 2.7,34.433 39.902,46.643 39.902,46.643 0,0 -53.305,10.307 -36.393,76.645 15.49,52.25 62.671,55.575 84.912,56.173 40.182,1.08 55.892,-17.804 55.892,-17.804 0,0 28.395,83.611 115.384,95.118 106.283,14.061 160.098,-57.1 169.05,-65.409 46.345,-56.495 20.376,-124.175 18.748,-126.63 -1.628,-2.455 -14.073,-20.12 -14.073,-20.12 0,0 44.532,-4.714 51.213,-38.437 11.298,-57.017 -33.6,-67.428 -33.6,-67.428 0,0 14.587,-6.036 16.359,-16.976 C 442.193,-14.9 429.12,-24.489 429.12,-24.489 L 126.366,-71.057 C 126.366,-71.057 9.94,-16.523 0,0" /></g><g
           transform="translate(485.6162,584.166)"
           id="g5173"><path
             id="path5175"
             style="fill:#db2726;fill-opacity:1;fill-rule:nonzero;stroke:none"
             d="M 0,0 C 5.253,1.326 68.025,2.539 85.675,0 90.455,-0.893 107.491,-63.401 40.944,-70.645 -18.47,-77.111 -17.789,-0.437 0,0" /></g><g
           transform="translate(634.1865,584.166)"
           id="g5177"><path
             id="path5179"
             style="fill:#000000;fill-opacity:1;fill-rule:nonzero;stroke:none"
             d="m 0,0 c -17.421,0 -31.545,13.68 -31.545,30.553 0,16.873 14.124,30.551 31.545,30.551 17.422,0 31.545,-13.678 31.545,-30.551 C 31.545,13.68 17.422,0 0,0" /></g><g
           transform="translate(417.6201,585.6504)"
           id="g5181"><path
             id="path5183"
             style="fill:#000000;fill-opacity:1;fill-rule:nonzero;stroke:none"
             d="m 0,0 c -17.422,0 -31.544,13.678 -31.544,30.551 0,16.873 14.122,30.552 31.544,30.552 17.423,0 31.545,-13.679 31.545,-30.552 C 31.545,13.678 17.423,0 0,0" /></g><g
           transform="translate(645.4844,614.8018)"
           id="g5185"><path
             id="path5187"
             style="fill:#ffffff;fill-opacity:1;fill-rule:nonzero;stroke:none"
             d="m 0,0 c -5.744,0 -10.4,4.771 -10.4,10.657 0,5.886 4.656,10.656 10.4,10.656 5.745,0 10.401,-4.77 10.401,-10.656 C 10.401,4.771 5.745,0 0,0" /></g><g
           transform="translate(428.5303,616.5664)"
           id="g5189"><path
             id="path5191"
             style="fill:#ffffff;fill-opacity:1;fill-rule:nonzero;stroke:none"
             d="m 0,0 c -5.744,0 -10.4,4.772 -10.4,10.658 0,5.885 4.656,10.657 10.4,10.657 5.745,0 10.401,-4.772 10.401,-10.657 C 10.401,4.772 5.745,0 0,0" /></g><g
           transform="translate(655.8232,475.5635)"
           id="g5193"><path
             id="path5195"
             style="fill:#db2726;fill-opacity:1;fill-rule:nonzero;stroke:none"
             d="M 0,0 C 0,0 14.113,22.891 28.041,21.288 41.97,19.684 47.41,4.828 47.41,4.828 l -27.54,-279.666 -40.419,-5.451 z" /></g><g
           transform="translate(703.2334,480.3916)"
           id="g5197"><path
             id="path5199"
             style="fill:#e8e8e8;fill-opacity:1;fill-rule:nonzero;stroke:none"
             d="M 0,0 C 0,0 15.357,21.569 28.17,18.955 40.984,16.342 42.841,7.819 45.626,6.23 48.412,4.643 12.943,-273.724 12.943,-273.724 l -40.483,-5.942 z" /></g><g
           transform="translate(561.1914,467.8398)"
           id="g5201"><path
             id="path5203"
             style="fill:#db2726;fill-opacity:1;fill-rule:nonzero;stroke:none"
             d="M 0,0 C 0,0 14.875,21.872 28.803,20.269 42.731,18.666 48.925,2.177 48.925,2.177 l -13.577,-279.511 -40.895,-4.293 z" /></g><g
           transform="translate(610.1162,470.0166)"
           id="g5205"><path
             id="path5207"
             style="fill:#e8e8e8;fill-opacity:1;fill-rule:nonzero;stroke:none"
             d="M 0,0 C 0,0 15.295,25.771 27.242,23.426 39.19,21.079 45.707,5.547 45.707,5.547 l -20.549,-280.289 -38.735,-4.769 z" /></g><g
           transform="translate(518.3076,463.0098)"
           id="g5209"><path
             id="path5211"
             style="fill:#e8e8e8;fill-opacity:1;fill-rule:nonzero;stroke:none"
             d="M 0,0 C 0,0 13.015,24.885 24.963,22.538 36.91,20.191 42.884,4.83 42.884,4.83 l -5.547,-281.627 -38.619,-4.48 z" /></g><g
           transform="translate(470.0391,458.6914)"
           id="g5213"><path
             id="path5215"
             style="fill:#db2726;fill-opacity:1;fill-rule:nonzero;stroke:none"
             d="M 0,0 C 0,0 12.655,21.731 26.651,20.908 41.159,20.055 48.269,4.318 48.269,4.318 l -1.283,-281.277 -39.75,-5.095 z" /></g><g
           transform="translate(426.6494,459.0508)"
           id="g5217"><path
             id="path5219"
             style="fill:#e8e8e8;fill-opacity:1;fill-rule:nonzero;stroke:none"
             d="M 0,0 C 0,0 10.076,17.729 22.25,17.983 33.771,18.225 43.39,-0.359 43.39,-0.359 l 7.236,-282.054 -38.404,-2.987 z" /></g><g
           transform="translate(438.8711,173.6504)"
           id="g5221"><path
             id="path5223"
             style="fill:#db2726;fill-opacity:1;fill-rule:nonzero;stroke:none"
             d="m 0,0 -16.903,11.631 -16.06,277.728 c 0,0 1.605,12.236 7.523,16.613 5.311,3.929 13.218,-20.572 13.218,-20.572 z" /></g><g
           transform="translate(421.9678,185.2812)"
           id="g5225"><path
             id="path5227"
             style="fill:#e8e9e8;fill-opacity:1;fill-rule:nonzero;stroke:none"
             d="m 0,0 -12.473,9.993 -22.625,273.718 c 0,0 -0.377,12.989 4.919,18.101 7.359,7.102 13.73,-21.174 13.73,-21.174 z" /></g><g
           transform="translate(409.4951,195.2744)"
           id="g5229"><path
             id="path5231"
             style="fill:#db2726;fill-opacity:1;fill-rule:nonzero;stroke:none"
             d="m 0,0 -15.346,11.06 -27.347,269.741 c 0,0 0.575,14.117 6.493,18.494 5.311,3.929 13.575,-25.577 13.575,-25.577 z" /></g><g
           transform="translate(394.1494,206.334)"
           id="g5233"><path
             id="path5235"
             style="fill:#e8e9e8;fill-opacity:1;fill-rule:nonzero;stroke:none"
             d="M 0,0 -16.358,11.346 -47.54,270.703 c 0,0 -0.057,21.077 5.239,26.19 7.36,7.101 14.953,-27.152 14.953,-27.152 z" /></g><g
           transform="translate(377.791,217.6797)"
           id="g5237"><path
             id="path5239"
             style="fill:#db2726;fill-opacity:1;fill-rule:nonzero;stroke:none"
             d="m 0,0 -14.531,9.902 -35.022,260.611 c 0,0 -1.753,19.661 5.314,21.723 7.475,2.182 13.057,-32.879 13.057,-32.879 z" /></g><g
           transform="translate(363.2598,227.582)"
           id="g5241"><path
             id="path5243"
             style="fill:#e8e9e8;fill-opacity:1;fill-rule:nonzero;stroke:none"
             d="m 0,0 -16.65,12.153 -39.619,255.195 c 0,0 -0.968,19.514 4.328,24.627 7.359,7.101 16.92,-31.365 16.92,-31.365 z" /></g><g
           transform="translate(346.6094,239.7354)"
           id="g5245"><path
             id="path5247"
             style="fill:#db2726;fill-opacity:1;fill-rule:nonzero;stroke:none"
             d="m 0,0 -15.114,10.079 -44.5,255.296 c 0,0 -1.237,18.09 5.83,20.152 7.475,2.181 14.166,-30.333 14.166,-30.333 z" /></g></g></g></g></svg>