<?xml version="1.0" encoding="UTF-8"?>
<svg width="1024px" height="1024px" viewBox="0 0 1024 1024" version="1.1" xmlns="http://www.w3.org/2000/svg" xmlns:xlink="http://www.w3.org/1999/xlink">
    <!-- Generator: Sketch 46.2 (44496) - http://www.bohemiancoding.com/sketch -->
    <title>Postman</title>
    <desc>Created with Sketch.</desc>
    <defs></defs>
    <g id="Page-1" stroke="none" stroke-width="1" fill="none" fill-rule="evenodd">
        <g id="Postman">
            <rect id="Outer" fill="#A9DDF3" fill-rule="nonzero" x="92" y="92" width="840" height="840" rx="100"></rect>
            <g id="logo-big" transform="translate(193.000000, 218.000000)">
                <polygon id="Shape" fill="#F15A24" fill-rule="nonzero" points="109.995609 616.139553 0 620 56.3853738 562 110 616.143995"></polygon>
                <path d="M612.582963,329.735824 C592.033556,489.95912 445.476631,603.157913 285.280446,582.58635 C125.057768,562.032448 11.8594111,415.479373 32.4088183,255.269324 C52.9714719,95.050444 199.497488,-18.1615961 359.733412,2.41438308 C519.947259,22.9594542 633.172109,169.525775 612.582963,329.731409" id="Shape" fill="#F15A24" fill-rule="nonzero"></path>
                <path d="M397.362935,210.002041 C416.647914,230.378733 397.615461,278.557036 397.615461,278.557036 C397.615461,278.557036 378.804521,346.671644 271.10458,435 L251,415.385177 L387.71823,276.487218 L390.358673,272.942106 C393.995927,267.049732 397.008513,209.605693 397.362935,210.002041" id="Shape" fill="#999999" fill-rule="nonzero"></path>
                <path d="M397.362935,210.002041 C416.647914,230.378733 397.615461,278.557036 397.615461,278.557036 C397.615461,278.557036 378.804521,346.671644 271.10458,435 L251,415.385177 L387.71823,276.487218 L390.358673,272.942106 C393.995927,267.049732 397.008513,209.605693 397.362935,210.002041 L397.362935,210.002041 Z" id="Shape" stroke="#FFFFFF" stroke-width="7" stroke-linecap="round" stroke-linejoin="round"></path>
                <path d="M222,387.967487 L396.756816,210 C405.627586,220.577806 407.514608,231.974739 404.939792,248.211161 C403.207082,259.457552 383.8651,281.932622 383.8651,281.932622 L251.385528,417" id="Shape" fill="#666666" fill-rule="nonzero"></path>
                <path d="M222,387.967487 L396.756816,210 C405.627586,220.577806 407.514608,231.974739 404.939792,248.211161 C403.207082,259.457552 383.8651,281.932622 383.8651,281.932622 L251.385528,417" id="Shape" stroke="#FFFFFF" stroke-width="7" stroke-linecap="round" stroke-linejoin="round"></path>
                <path d="M397,208.921901 L221.302585,386 L221.656617,385.655155 L221.590236,385.681681 L178,342.770538 C268.902237,229.807152 327.676036,208.745057 327.676036,208.745057 C327.676036,208.745057 365.938085,193.823863 393.233981,205.40271 C395.331622,206.525668 396.243256,207.171148 396.995575,208.926322" id="Shape" fill="#FF931E" fill-rule="nonzero"></path>
                <path d="M397,208.921901 L221.302585,386 L221.656617,385.655155 L221.590236,385.681681 L178,342.770538 C268.902237,229.807152 327.676036,208.745057 327.676036,208.745057 C327.676036,208.745057 365.938085,193.823863 393.233981,205.40271 C395.331622,206.525668 396.243256,207.171148 396.995575,208.926322 L397,208.921901 Z" id="Shape" stroke="#FFFFFF" stroke-width="7" stroke-linecap="round" stroke-linejoin="round"></path>
                <path d="M271,434.596961 C229.08346,469.02974 175.439848,523.117583 102.524009,560.843126 L118.742771,630 L50,562.467438 L221.418823,386" id="Shape" fill="#999999" fill-rule="nonzero"></path>
                <path d="M271,434.596961 C229.08346,469.02974 175.439848,523.117583 102.524009,560.843126 L118.742771,630 L50,562.467438 L221.418823,386" id="Shape" stroke="#FFFFFF" stroke-width="7" stroke-linecap="round" stroke-linejoin="round"></path>
                <polygon id="Shape" fill="#F15A24" fill-rule="nonzero" points="180.01219 343.759761 222 385.854045 125 407 179.082812 343 180.016553 343.759761"></polygon>
                <polygon id="Shape" stroke="#FFFFFF" stroke-width="7" stroke-linecap="round" stroke-linejoin="round" points="180.01219 343.759761 222 385.854045 125 407 179.082812 343 180.016553 343.759761"></polygon>
                <path d="M380.423092,157.933969 C376.256889,195.534091 403.328382,229.383028 440.93013,233.57553 C478.500984,237.750379 512.382277,210.65799 516.574961,173.071107 C520.754404,135.484225 493.638777,101.599983 456.054683,97.4207204 C418.448521,93.267937 384.593708,120.32502 380.423092,157.933969" id="Shape" fill="#999999" fill-rule="nonzero"></path>
                <path d="M380.423092,157.933969 C376.256889,195.534091 403.328382,229.383028 440.93013,233.57553 C478.500984,237.750379 512.382277,210.65799 516.574961,173.071107 C520.754404,135.484225 493.638777,101.599983 456.054683,97.4207204 C418.448521,93.267937 384.593708,120.32502 380.423092,157.933969 L380.423092,157.933969 Z" id="Shape" stroke="#FFFFFF" stroke-width="7" stroke-linecap="round" stroke-linejoin="round"></path>
                <path d="M508.059746,204.547495 C520.705018,185.982013 520.051333,158.207021 517.511678,149.978381 C514.397841,139.9034 507.428145,123.517131 495.273138,115 L431,174.491208 C431,174.491208 480.397387,227.822032 481.682673,227.999565 C482.217104,228.061701 496.527506,221.475238 508.059746,204.547495" id="Shape" fill-rule="nonzero"></path>
                <path d="M508.059746,204.547495 C520.705018,185.982013 520.051333,158.207021 517.511678,149.978381 C514.397841,139.9034 507.428145,123.517131 495.273138,115 L431,174.491208 C431,174.491208 480.397387,227.822032 481.682673,227.999565 C482.217104,228.061701 496.527506,221.475238 508.059746,204.547495 L508.059746,204.547495 Z M495.092049,157.945161 C495.092049,157.945161 501.271139,173.19522 493.431336,185.058843 L495.092049,157.945161 Z" id="Shape" stroke="#FFFFFF" stroke-width="7" stroke-linecap="round" stroke-linejoin="round"></path>
                <polyline id="Shape" fill="#666666" fill-rule="nonzero" points="252.834004 415.270979 181.523947 427.862168 224.567514 383.489021"></polyline>
                <polyline id="Shape" stroke="#FFFFFF" stroke-width="7" stroke-linecap="round" stroke-linejoin="round" points="252.834004 415.270979 181.523947 427.862168 224.567514 383.489021"></polyline>
                <path d="M181,344 L272,429" id="Shape" stroke="#FFFFFF" stroke-width="7" stroke-linecap="round" stroke-linejoin="round"></path>
            </g>
        </g>
    </g>
</svg>