<?xml version="1.0" encoding="UTF-8" standalone="no"?>
<svg
   xmlns:dc="http://purl.org/dc/elements/1.1/"
   xmlns:cc="http://creativecommons.org/ns#"
   xmlns:rdf="http://www.w3.org/1999/02/22-rdf-syntax-ns#"
   xmlns:svg="http://www.w3.org/2000/svg"
   xmlns="http://www.w3.org/2000/svg"
   viewBox="0 0 1365.3333 1365.3333"
   height="1365.3333"
   width="1365.3333"
   xml:space="preserve"
   id="svg5249"
   version="1.1"><metadata
     id="metadata5255"><rdf:RDF><cc:Work
         rdf:about=""><dc:format>image/svg+xml</dc:format><dc:type
           rdf:resource="http://purl.org/dc/dcmitype/StillImage" /><dc:title></dc:title></cc:Work></rdf:RDF></metadata><defs
     id="defs5253"><clipPath
       id="clipPath5265"
       clipPathUnits="userSpaceOnUse"><path
         id="path5263"
         d="M 0,1024 H 1024 V 0 H 0 Z" /></clipPath></defs><g
     transform="matrix(1.3333333,0,0,-1.3333333,0,1365.3333)"
     id="g5257"><g
       id="g5259"><g
         clip-path="url(#clipPath5265)"
         id="g5261"><g
           transform="translate(933,190)"
           id="g5267"><path
             id="path5269"
             style="fill:#96d4ea;fill-opacity:1;fill-rule:nonzero;stroke:none"
             d="m 0,0 c 0,-55.229 -44.771,-100 -100,-100 h -643 c -55.229,0 -100,44.771 -100,100 v 643 c 0,55.229 44.771,100 100,100 h 643 C -44.771,743 0,698.229 0,643 Z" /></g><g
           transform="translate(190,90)"
           id="g5271"><path
             id="path5273"
             style="fill:#788af4;fill-opacity:1;fill-rule:nonzero;stroke:none"
             d="m 0,0 h 643 c 55.229,0 100,44.771 100,100 V 258.5 L 571,447 367,271 133,517 -100,258.5 V 232.534 100 C -100,44.771 -55.229,0 0,0" /></g><g
           transform="translate(710.002,715)"
           id="g5275"><path
             id="path5277"
             style="fill:#e8e897;fill-opacity:1;fill-rule:nonzero;stroke:none"
             d="m 0,0 c 0,-48.05 -38.951,-87.002 -87.002,-87.002 -48.051,0 -87.002,38.952 -87.002,87.002 0,48.05 38.951,87.002 87.002,87.002 C -38.951,87.002 0,48.05 0,0" /></g></g></g></g></svg>