<?xml version="1.0" encoding="UTF-8" standalone="no"?>
<svg
   xmlns:dc="http://purl.org/dc/elements/1.1/"
   xmlns:cc="http://creativecommons.org/ns#"
   xmlns:rdf="http://www.w3.org/1999/02/22-rdf-syntax-ns#"
   xmlns:svg="http://www.w3.org/2000/svg"
   xmlns="http://www.w3.org/2000/svg"
   viewBox="0 0 1365.3333 1365.3333"
   height="1365.3333"
   width="1365.3333"
   xml:space="preserve"
   id="svg5349"
   version="1.1"><metadata
     id="metadata5355"><rdf:RDF><cc:Work
         rdf:about=""><dc:format>image/svg+xml</dc:format><dc:type
           rdf:resource="http://purl.org/dc/dcmitype/StillImage" /><dc:title></dc:title></cc:Work></rdf:RDF></metadata><defs
     id="defs5353"><clipPath
       id="clipPath5365"
       clipPathUnits="userSpaceOnUse"><path
         id="path5363"
         d="M 0,1024 H 1024 V 0 H 0 Z" /></clipPath><clipPath
       id="clipPath5381"
       clipPathUnits="userSpaceOnUse"><path
         id="path5379"
         d="M 0,1024 H 1024 V 0 H 0 Z" /></clipPath><clipPath
       id="clipPath5389"
       clipPathUnits="userSpaceOnUse"><path
         id="path5387"
         d="M 91,933 H 934 V 90 H 91 Z" /></clipPath><clipPath
       id="clipPath5405"
       clipPathUnits="userSpaceOnUse"><path
         id="path5403"
         d="M 0,1024 H 1024 V 0 H 0 Z" /></clipPath><clipPath
       id="clipPath5413"
       clipPathUnits="userSpaceOnUse"><path
         id="path5411"
         d="M 218.003,797.04 H 805.992 V 226.003 H 218.003 Z" /></clipPath></defs><g
     transform="matrix(1.3333333,0,0,-1.3333333,0,1365.3333)"
     id="g5357"><g
       id="g5359"><g
         clip-path="url(#clipPath5365)"
         id="g5361"><g
           transform="translate(834,933)"
           id="g5367"><path
             id="path5369"
             style="fill:#fff100;fill-opacity:1;fill-rule:nonzero;stroke:none"
             d="m 0,0 h -643 c -55.229,0 -100,-44.771 -100,-100 v -643 c 0,-55.229 44.771,-100 100,-100 H 0 c 55.229,0 100,44.771 100,100 v 643 C 100,-44.771 55.229,0 0,0" /></g><g
           transform="translate(736,805)"
           id="g5371"><path
             id="path5373"
             style="fill:#ec1c23;fill-opacity:1;fill-rule:nonzero;stroke:none"
             d="m 0,0 h -447 c -38.66,0 -70,-31.34 -70,-70 v -447 c 0,-38.66 31.34,-70 70,-70 H 0 c 38.66,0 70,31.34 70,70 V -70 C 70,-31.34 38.66,0 0,0" /></g></g></g><g
       id="g5375"><g
         clip-path="url(#clipPath5381)"
         id="g5377"><g
           id="g5383"><g
             id="g5385" /><g
             id="g5397"><g
               id="g5395"
               clip-path="url(#clipPath5389)"><g
                 id="g5393"
                 transform="translate(834,933)"><path
                   id="path5391"
                   style="fill:#f48f09;fill-opacity:1;fill-rule:nonzero;stroke:none"
                   d="m 0,0 h -643 c -55.229,0 -100,-44.771 -100,-100 v -643 c 0,-55.229 44.771,-100 100,-100 H 0 c 55.229,0 100,44.771 100,100 v 643 C 100,-44.771 55.229,0 0,0" /></g></g></g></g></g></g><g
       id="g5399"><g
         clip-path="url(#clipPath5405)"
         id="g5401"><g
           id="g5407"><g
             id="g5409" /><g
             id="g5421"><g
               id="g5419"
               clip-path="url(#clipPath5413)"><g
                 id="g5417"
                 transform="translate(708.7598,754.2578)"><path
                   id="path5415"
                   style="fill:#ffffff;fill-opacity:1;fill-rule:evenodd;stroke:none"
                   d="M 0,0 C 2.486,12.377 14.604,20.475 27.117,18.009 39.533,15.502 47.635,3.497 45.148,-8.97 42.67,-21.431 30.593,-29.437 18.096,-26.937 5.632,-24.472 -2.486,-12.404 0,0 m -323.07,-181.86 c -1.079,-5.149 -1.89,-10.008 -1.89,-14.396 0,-40.832 33.408,-74.069 74.41,-74.069 35.672,0 66.321,25.286 73.015,60.142 l 0.45,0.729 c 14.958,59.969 69.288,104.483 134.173,104.483 1.44,0 2.785,0.073 4.217,0 h 3.194 v -0.024 c 0,0 58.594,0.064 60.454,0.094 10.789,0.313 20.985,2.933 30.157,7.377 -2.342,0.272 -4.682,0.624 -7.057,1.096 -35.911,7.085 -63.245,33.078 -73.624,65.397 13.825,-17.952 34.019,-31.309 58.143,-36.128 20.429,-4.062 40.553,-1.212 58.207,6.605 3.935,8.991 6.139,18.905 6.139,29.323 0,40.702 -33.256,73.813 -73.89,73.83 -0.062,-0.009 -40.336,0.101 -54.248,0.142 v 0.025 c -6.01,0 -10.114,0.007 -10.395,0.016 v -0.033 h -1.305 c -137.384,0 -252.125,-96.226 -280.15,-224.609 M 22.987,-380.461 c -0.989,-0.07 -64.475,0 -65.915,0 -6.106,0 -12.109,0.528 -18.015,1.274 -43.725,-44.858 -103.26,-74.172 -169.626,-79.105 50.305,-43.449 115.82,-69.925 187.649,-69.925 h 65.515 c 0.113,0 0.249,-0.038 0.401,-0.038 40.988,0 74.236,33.088 74.236,73.875 0,40.811 -33.248,73.919 -74.245,73.919 m -33.277,184.213 c 0,23.39 -3.549,45.932 -9.843,67.286 h -18.603 v -0.009 h -2.519 c -54.641,0 -99.355,-36.578 -111.997,-85.704 h -0.602 c -8.627,-45.344 -48.6,-79.634 -96.679,-79.634 -54.441,0 -98.568,43.913 -98.568,98.061 0,3.643 0.267,7.245 0.765,10.793 0.088,0.728 0.16,1.458 0.315,2.17 0.201,1.387 0.491,2.779 0.787,4.139 19.522,92.872 81.197,170.376 163.969,212.27 -21.364,6.198 -43.877,9.658 -67.268,9.658 -125.66,0 -228.647,-96.066 -239.186,-218.395 -0.298,-0.872 -0.748,-1.699 -1.038,-2.594 V -527.11 h 142.058 v 112.828 c 30.013,-13.433 63.158,-21.02 98.166,-21.02 132.669,0 240.243,107 240.243,239.054" /></g></g></g></g></g></g></g></svg>