<?xml version="1.0" encoding="UTF-8" standalone="no"?>
<svg
   xmlns:dc="http://purl.org/dc/elements/1.1/"
   xmlns:cc="http://creativecommons.org/ns#"
   xmlns:rdf="http://www.w3.org/1999/02/22-rdf-syntax-ns#"
   xmlns:svg="http://www.w3.org/2000/svg"
   xmlns="http://www.w3.org/2000/svg"
   viewBox="0 0 1365.3333 1365.3333"
   height="1365.3333"
   width="1365.3333"
   xml:space="preserve"
   id="svg2"
   version="1.1"><metadata
     id="metadata8"><rdf:RDF><cc:Work
         rdf:about=""><dc:format>image/svg+xml</dc:format><dc:type
           rdf:resource="http://purl.org/dc/dcmitype/StillImage" /><dc:title></dc:title></cc:Work></rdf:RDF></metadata><defs
     id="defs6"><clipPath
       id="clipPath18"
       clipPathUnits="userSpaceOnUse"><path
         id="path16"
         d="M 0,1024 H 1024 V 0 H 0 Z" /></clipPath></defs><g
     transform="matrix(1.3333333,0,0,-1.3333333,0,1365.3333)"
     id="g10"><g
       id="g12"><g
         clip-path="url(#clipPath18)"
         id="g14"><g
           transform="translate(933,190)"
           id="g20"><path
             id="path22"
             style="fill:#80baeb;fill-opacity:1;fill-rule:nonzero;stroke:none"
             d="m 0,0 c 0,-55.229 -44.771,-100 -100,-100 h -643 c -55.229,0 -100,44.771 -100,100 v 643 c 0,55.229 44.771,100 100,100 h 643 C -44.771,743 0,698.229 0,643 Z" /></g><g
           transform="translate(556.25,553.5)"
           id="g24"><path
             id="path26"
             style="fill:#2b4a63;fill-opacity:1;fill-rule:nonzero;stroke:none"
             d="m 0,0 c -14,13.5 -45.79,32.01 -77.87,3.25 -32.63,-29.25 -15.44,-68.5 -1.69,-82.5 6.69,-6.81 65.16,-65.74 123.44,-124.47 -25.62,-13.4 -54.76,-20.98 -85.67,-20.98 -102.23,0 -185.09,82.86 -185.09,185.09 0,102.22 82.86,185.08 185.09,185.08 102.22,0 185.08,-82.86 185.08,-185.08 0,-30.17 -7.22,-58.65 -20.02,-83.82 C 65.31,-65.24 6.85,-6.6 0,0 m 245.75,-39.61 c 0,158.8 -128.74,287.54 -287.54,287.54 -158.81,0 -287.55,-128.74 -287.55,-287.54 0,-158.81 128.74,-287.55 287.55,-287.55 59.21,0 114.24,17.89 159.97,48.58 28.6,-28.8 48.57,-48.92 48.57,-48.92 h 77 v 83 c 0,0 -18.73,18.84 -45.82,46.06 30.22,45.5 47.82,100.11 47.82,158.83" /></g></g></g></g></svg>