<?xml version="1.0" encoding="UTF-8" standalone="no"?>
<svg
   xmlns:dc="http://purl.org/dc/elements/1.1/"
   xmlns:cc="http://creativecommons.org/ns#"
   xmlns:rdf="http://www.w3.org/1999/02/22-rdf-syntax-ns#"
   xmlns:svg="http://www.w3.org/2000/svg"
   xmlns="http://www.w3.org/2000/svg"
   viewBox="0 0 1365.3333 1365.3333"
   height="1365.3333"
   width="1365.3333"
   xml:space="preserve"
   id="svg4503"
   version="1.1"><metadata
     id="metadata4509"><rdf:RDF><cc:Work
         rdf:about=""><dc:format>image/svg+xml</dc:format><dc:type
           rdf:resource="http://purl.org/dc/dcmitype/StillImage" /><dc:title></dc:title></cc:Work></rdf:RDF></metadata><defs
     id="defs4507"><clipPath
       id="clipPath4519"
       clipPathUnits="userSpaceOnUse"><path
         id="path4517"
         d="M 0,1024 H 1024 V 0 H 0 Z" /></clipPath><clipPath
       id="clipPath4535"
       clipPathUnits="userSpaceOnUse"><path
         id="path4533"
         d="M 0,1024 H 1024 V 0 H 0 Z" /></clipPath><clipPath
       id="clipPath4543"
       clipPathUnits="userSpaceOnUse"><path
         id="path4541"
         d="M 91,933 H 934 V 90 H 91 Z" /></clipPath><clipPath
       id="clipPath4559"
       clipPathUnits="userSpaceOnUse"><path
         id="path4557"
         d="M 0,1024 H 1024 V 0 H 0 Z" /></clipPath></defs><g
     transform="matrix(1.3333333,0,0,-1.3333333,0,1365.3333)"
     id="g4511"><g
       id="g4513"><g
         clip-path="url(#clipPath4519)"
         id="g4515"><g
           transform="translate(834,933)"
           id="g4521"><path
             id="path4523"
             style="fill:#fff100;fill-opacity:1;fill-rule:nonzero;stroke:none"
             d="m 0,0 h -643 c -55.229,0 -100,-44.771 -100,-100 v -643 c 0,-55.229 44.771,-100 100,-100 H 0 c 55.229,0 100,44.771 100,100 v 643 C 100,-44.771 55.229,0 0,0" /></g><g
           transform="translate(736,805)"
           id="g4525"><path
             id="path4527"
             style="fill:#ec1c23;fill-opacity:1;fill-rule:nonzero;stroke:none"
             d="m 0,0 h -447 c -38.66,0 -70,-31.34 -70,-70 v -447 c 0,-38.66 31.34,-70 70,-70 H 0 c 38.66,0 70,31.34 70,70 V -70 C 70,-31.34 38.66,0 0,0" /></g></g></g><g
       id="g4529"><g
         clip-path="url(#clipPath4535)"
         id="g4531"><g
           id="g4537"><g
             id="g4539" /><g
             id="g4551"><g
               id="g4549"
               clip-path="url(#clipPath4543)"><g
                 id="g4547"
                 transform="translate(834,933)"><path
                   id="path4545"
                   style="fill:#ffffff;fill-opacity:1;fill-rule:nonzero;stroke:none"
                   d="m 0,0 h -643 c -55.229,0 -100,-44.771 -100,-100 v -643 c 0,-55.229 44.771,-100 100,-100 H 0 c 55.229,0 100,44.771 100,100 v 643 C 100,-44.771 55.229,0 0,0" /></g></g></g></g></g></g><g
       id="g4553"><g
         clip-path="url(#clipPath4559)"
         id="g4555"><g
           transform="translate(513,805)"
           id="g4561"><path
             id="path4563"
             style="fill:#ff9298;fill-opacity:1;fill-rule:nonzero;stroke:none"
             d="m 0,0 c -162.372,0 -294,-131.628 -294,-294 0,-162.372 131.628,-294 294,-294 162.372,0 294,131.628 294,294 C 294,-131.628 162.372,0 0,0" /></g><g
           transform="translate(512.5986,728.6885)"
           id="g4565"><path
             id="path4567"
             style="fill:#ff6266;fill-opacity:1;fill-rule:nonzero;stroke:none"
             d="m 0,0 c -120.005,0 -217.287,-97.282 -217.287,-217.287 0,-120.004 97.282,-217.286 217.287,-217.286 120.004,0 217.286,97.282 217.286,217.286 C 217.286,-97.282 120.004,0 0,0" /></g><g
           transform="translate(512.5986,654.7871)"
           id="g4569"><path
             id="path4571"
             style="fill:#ff3b32;fill-opacity:1;fill-rule:nonzero;stroke:none"
             d="m 0,0 c -79.189,0 -143.386,-64.196 -143.386,-143.386 0,-79.189 64.197,-143.385 143.386,-143.385 79.189,0 143.385,64.196 143.385,143.385 C 143.385,-64.196 79.189,0 0,0" /></g><g
           transform="translate(512.5986,592.9346)"
           id="g4573"><path
             id="path4575"
             style="fill:#ea0000;fill-opacity:1;fill-rule:nonzero;stroke:none"
             d="m 0,0 c -45.029,0 -81.533,-36.504 -81.533,-81.533 0,-45.03 36.504,-81.532 81.533,-81.532 45.029,0 81.532,36.502 81.532,81.532 C 81.532,-36.504 45.029,0 0,0" /></g><g
           transform="translate(586.4785,262.0088)"
           id="g4577"><path
             id="path4579"
             style="fill:#ffffff;fill-opacity:1;fill-rule:nonzero;stroke:none"
             d="m 0,0 c -1.414,0.786 -3.12,1.292 -4.196,2.404 -7.527,7.778 -14.904,15.697 -22.363,23.536 -12.769,13.421 -25.488,26.89 -38.411,40.162 -2.507,2.573 -2.518,4.113 0.084,6.442 7.969,7.127 15.788,14.423 24.009,21.968 C -27.139,64.086 -12.945,32.65 1.248,1.214 0.832,0.81 0.416,0.405 0,0 m -68.121,149.73 c 0.382,0.158 0.764,0.314 1.146,0.47 0.563,-0.753 1.279,-1.436 1.665,-2.271 5.914,-12.729 11.833,-25.455 17.59,-38.253 0.561,-1.244 0.708,-3.544 -0.04,-4.37 -6.335,-6.994 -12.923,-13.761 -20.361,-20.171 z M -81.51,87.329 c -10e-4,-0.513 -0.2,-1.026 -0.453,-2.244 -1.44,0.674 -2.918,0.96 -3.792,1.843 -5.35,5.407 -10.647,10.876 -15.745,16.519 -0.881,0.976 -1.426,3.193 -0.937,4.321 6.04,13.904 12.299,27.712 18.501,41.546 0.434,-0.011 0.868,-0.023 1.301,-0.036 0.395,-1.299 1.13,-2.598 1.134,-3.899 0.059,-19.35 0.022,-38.699 -0.009,-58.05 m -3.611,-21.145 c -9.586,-9.733 -19.068,-19.568 -28.487,-29.462 -10.371,-10.896 -20.619,-21.91 -30.962,-32.831 -1.113,-1.175 -2.511,-2.079 -3.776,-3.11 -0.388,0.275 -0.778,0.549 -1.167,0.823 0.3,1.362 0.393,2.813 0.931,4.073 4.855,11.373 9.663,22.768 14.728,34.049 7.706,17.163 15.605,34.242 23.425,51.353 2.072,4.53 2.633,4.666 6.012,1.212 6.462,-6.605 12.792,-13.346 19.371,-19.833 2.427,-2.394 2.204,-3.963 -0.075,-6.274 M 16.361,5.12 C 7.774,24.764 -0.817,44.404 -9.445,64.03 c -7.847,17.85 -15.628,35.73 -23.651,53.5 -7.144,15.825 -14.523,31.548 -21.909,47.264 -6.264,13.332 -11.036,27.123 -11.945,41.895 -0.578,9.401 0.388,18.505 7.777,25.854 6.586,6.55 9.463,14.346 6.392,23.863 -3.128,9.686 -17.77,19.093 -28.278,15.142 -15.961,-6.001 -23.262,-25.593 -9.09,-39.555 2.719,-2.68 4.837,-6.47 5.982,-10.137 2.285,-7.328 1.709,-14.968 0.739,-22.533 -1.998,-15.605 -9.584,-29.209 -15.686,-43.309 -8.275,-19.12 -17.074,-38.015 -25.501,-57.07 -10.296,-23.286 -20.436,-46.64 -30.649,-69.962 -8.05,-18.382 -16.11,-36.762 -24.247,-55.33 4.891,-1.731 9.686,-3.43 14.42,-5.107 5.062,7.373 79.691,83.493 83.161,84.197 v -97.75 h 13.464 v 99.546 c 1.97,-1.577 3.252,-2.399 4.284,-3.463 9.318,-9.607 18.576,-19.273 27.883,-28.89 16.303,-16.846 32.606,-33.693 48.992,-50.456 1.187,-1.214 3.27,-2.729 4.57,-2.443 4.378,0.96 8.591,2.672 12.88,4.102 C 25.32,-15.506 20.865,-5.183 16.361,5.12" /></g></g></g></g></svg>