<?xml version="1.0" encoding="UTF-8" standalone="no"?>
<svg
   xmlns:dc="http://purl.org/dc/elements/1.1/"
   xmlns:cc="http://creativecommons.org/ns#"
   xmlns:rdf="http://www.w3.org/1999/02/22-rdf-syntax-ns#"
   xmlns:svg="http://www.w3.org/2000/svg"
   xmlns="http://www.w3.org/2000/svg"
   viewBox="0 0 1365.3333 1365.3333"
   height="1365.3333"
   width="1365.3333"
   xml:space="preserve"
   id="svg4581"
   version="1.1"><metadata
     id="metadata4587"><rdf:RDF><cc:Work
         rdf:about=""><dc:format>image/svg+xml</dc:format><dc:type
           rdf:resource="http://purl.org/dc/dcmitype/StillImage" /><dc:title></dc:title></cc:Work></rdf:RDF></metadata><defs
     id="defs4585"><clipPath
       id="clipPath4597"
       clipPathUnits="userSpaceOnUse"><path
         id="path4595"
         d="M 0,1024 H 1024 V 0 H 0 Z" /></clipPath><clipPath
       id="clipPath4609"
       clipPathUnits="userSpaceOnUse"><path
         id="path4607"
         d="M 0,1024 H 1024 V 0 H 0 Z" /></clipPath><clipPath
       id="clipPath4617"
       clipPathUnits="userSpaceOnUse"><path
         id="path4615"
         d="M 91,933 H 934 V 90 H 91 Z" /></clipPath><clipPath
       id="clipPath4633"
       clipPathUnits="userSpaceOnUse"><path
         id="path4631"
         d="M 0,1024 H 1024 V 0 H 0 Z" /></clipPath><clipPath
       id="clipPath4641"
       clipPathUnits="userSpaceOnUse"><path
         id="path4639"
         d="m 218.017,755.016 h 588.95 V 267.987 h -588.95 z" /></clipPath></defs><g
     transform="matrix(1.3333333,0,0,-1.3333333,0,1365.3333)"
     id="g4589"><g
       id="g4591"><g
         clip-path="url(#clipPath4597)"
         id="g4593"><g
           transform="translate(834,933)"
           id="g4599"><path
             id="path4601"
             style="fill:#fff100;fill-opacity:1;fill-rule:nonzero;stroke:none"
             d="m 0,0 h -643 c -55.229,0 -100,-44.771 -100,-100 v -643 c 0,-55.229 44.771,-100 100,-100 H 0 c 55.229,0 100,44.771 100,100 v 643 C 100,-44.771 55.229,0 0,0" /></g></g></g><g
       id="g4603"><g
         clip-path="url(#clipPath4609)"
         id="g4605"><g
           id="g4611"><g
             id="g4613" /><g
             id="g4625"><g
               id="g4623"
               clip-path="url(#clipPath4617)"><g
                 id="g4621"
                 transform="translate(834,933)"><path
                   id="path4619"
                   style="fill:#018fd4;fill-opacity:1;fill-rule:nonzero;stroke:none"
                   d="m 0,0 h -643 c -55.229,0 -100,-44.771 -100,-100 v -643 c 0,-55.229 44.771,-100 100,-100 H 0 c 55.229,0 100,44.771 100,100 v 643 C 100,-44.771 55.229,0 0,0" /></g></g></g></g></g></g><g
       id="g4627"><g
         clip-path="url(#clipPath4633)"
         id="g4629"><g
           id="g4635"><g
             id="g4637" /><g
             id="g4649"><g
               id="g4647"
               clip-path="url(#clipPath4641)"><g
                 id="g4645"
                 transform="translate(790.4834,645.1729)"><path
                   id="path4643"
                   style="fill:#ffffff;fill-opacity:1;fill-rule:nonzero;stroke:none"
                   d="m 0,0 c -26.61,-0.091 -51.701,6.696 -76.232,16.138 -36.108,13.896 -69.234,33.455 -101.804,54.078 -6.636,4.199 -13.682,7.75 -21.841,12.331 V 71.375 c 0,-59.29 -0.601,-118.59 0.239,-177.869 0.459,-32.443 -10.794,-59.5 -31.708,-83.297 -39.231,-44.636 -103.864,-60.144 -156.242,-37.532 -41.16,17.769 -60.451,57.142 -48.716,99.428 15.946,57.455 79.66,102.715 139.096,97.738 16.312,-1.365 32.357,-5.912 48.969,-9.083 -0.256,-0.776 0.217,-0.007 0.218,0.761 0.054,44.612 -0.015,89.224 0.194,133.834 0.025,5.452 -3.365,5.872 -7.006,6.716 -55.218,12.821 -109.559,10.102 -162.48,-10.554 -172.667,-67.391 -210.13,-296.823 -67.079,-412.411 61.844,-49.97 133.391,-64.304 210.83,-52.283 120.955,18.776 207.198,120.915 206.133,243.545 -0.08,9.376 -0.009,18.754 -0.009,28.775 2.07,0.695 5.058,1.648 8.011,2.693 27.114,9.607 49.736,25.489 64.827,50.206 5.504,9.019 9.025,19.9 10.795,30.381 C 18.028,-6.716 10.943,0.037 0,0" /></g></g></g></g></g></g></g></svg>