<?xml version="1.0" encoding="UTF-8" standalone="no"?>
<svg
   xmlns:dc="http://purl.org/dc/elements/1.1/"
   xmlns:cc="http://creativecommons.org/ns#"
   xmlns:rdf="http://www.w3.org/1999/02/22-rdf-syntax-ns#"
   xmlns:svg="http://www.w3.org/2000/svg"
   xmlns="http://www.w3.org/2000/svg"
   viewBox="0 0 1365.3333 1365.3333"
   height="1365.3333"
   width="1365.3333"
   xml:space="preserve"
   id="svg4651"
   version="1.1"><metadata
     id="metadata4657"><rdf:RDF><cc:Work
         rdf:about=""><dc:format>image/svg+xml</dc:format><dc:type
           rdf:resource="http://purl.org/dc/dcmitype/StillImage" /><dc:title></dc:title></cc:Work></rdf:RDF></metadata><defs
     id="defs4655"><clipPath
       id="clipPath4667"
       clipPathUnits="userSpaceOnUse"><path
         id="path4665"
         d="M 0,1024 H 1024 V 0 H 0 Z" /></clipPath></defs><g
     transform="matrix(1.3333333,0,0,-1.3333333,0,1365.3333)"
     id="g4659"><g
       id="g4661"><g
         clip-path="url(#clipPath4667)"
         id="g4663"><g
           transform="translate(933,190)"
           id="g4669"><path
             id="path4671"
             style="fill:#736f66;fill-opacity:1;fill-rule:nonzero;stroke:none"
             d="m 0,0 c 0,-55.229 -44.771,-100 -100,-100 h -643 c -55.229,0 -100,44.771 -100,100 v 643 c 0,55.229 44.771,100 100,100 h 643 C -44.771,743 0,698.229 0,643 Z" /></g><g
           transform="translate(512,783.3525)"
           id="g4673"><path
             id="path4675"
             style="fill:#f3f1ed;fill-opacity:1;fill-rule:nonzero;stroke:none"
             d="m 0,0 67.008,-207.772 218.309,0.477 L 108.42,-335.228 176.336,-542.705 0,-414 l -176.336,-128.705 67.915,207.477 -176.896,127.933 218.309,-0.477 z" /></g></g></g></g></svg>