<?xml version="1.0" encoding="UTF-8" standalone="no"?>
<svg
   xmlns:dc="http://purl.org/dc/elements/1.1/"
   xmlns:cc="http://creativecommons.org/ns#"
   xmlns:rdf="http://www.w3.org/1999/02/22-rdf-syntax-ns#"
   xmlns:svg="http://www.w3.org/2000/svg"
   xmlns="http://www.w3.org/2000/svg"
   viewBox="0 0 1365.3333 1365.3333"
   height="1365.3333"
   width="1365.3333"
   xml:space="preserve"
   id="svg4677"
   version="1.1"><metadata
     id="metadata4683"><rdf:RDF><cc:Work
         rdf:about=""><dc:format>image/svg+xml</dc:format><dc:type
           rdf:resource="http://purl.org/dc/dcmitype/StillImage" /><dc:title></dc:title></cc:Work></rdf:RDF></metadata><defs
     id="defs4681"><clipPath
       id="clipPath4693"
       clipPathUnits="userSpaceOnUse"><path
         id="path4691"
         d="M 0,1024 H 1024 V 0 H 0 Z" /></clipPath></defs><g
     transform="matrix(1.3333333,0,0,-1.3333333,0,1365.3333)"
     id="g4685"><g
       id="g4687"><g
         clip-path="url(#clipPath4693)"
         id="g4689"><g
           transform="translate(933,190)"
           id="g4695"><path
             id="path4697"
             style="fill:#eaeaea;fill-opacity:1;fill-rule:nonzero;stroke:none"
             d="m 0,0 c 0,-55.229 -44.771,-100 -100,-100 h -643 c -55.229,0 -100,44.771 -100,100 v 643 c 0,55.229 44.771,100 100,100 h 643 C -44.771,743 0,698.229 0,643 Z" /></g><g
           transform="translate(256.1685,466.8857)"
           id="g4699"><path
             id="path4701"
             style="fill:#e53838;fill-opacity:1;fill-rule:nonzero;stroke:none"
             d="m 0,0 c -0.485,12.1 -4.642,20.893 11.026,45.845 15.668,24.953 40.622,49.906 74.86,49.906 34.238,0 52.227,-35.978 61.512,-77.761 9.285,-41.783 23.792,-66.156 39.461,-66.156 11.025,-0.579 23.212,15.089 35.398,31.337 12.186,16.248 200.204,255.917 216.453,279.129 16.25,23.211 47.005,52.808 72.54,52.808 25.534,0 35.398,-31.337 35.398,-59.192 -0.579,-17.408 -2.318,-31.915 -16.827,-55.128 -14.51,-23.212 -224.869,-321.782 -275.356,-379.232 -50.487,-57.452 -80.083,-84.436 -101.844,-84.436 -21.762,0 -28.725,4.353 -53.098,14.799 -24.373,10.445 -48.691,30.195 -62.674,67.895 C 18.332,-125.886 4.832,-50.386 0,0" /></g></g></g></g></svg>