<?xml version="1.0" encoding="UTF-8" standalone="no"?>
<svg
   xmlns:dc="http://purl.org/dc/elements/1.1/"
   xmlns:cc="http://creativecommons.org/ns#"
   xmlns:rdf="http://www.w3.org/1999/02/22-rdf-syntax-ns#"
   xmlns:svg="http://www.w3.org/2000/svg"
   xmlns="http://www.w3.org/2000/svg"
   viewBox="0 0 1365.3333 1365.3333"
   height="1365.3333"
   width="1365.3333"
   xml:space="preserve"
   id="svg4703"
   version="1.1"><metadata
     id="metadata4709"><rdf:RDF><cc:Work
         rdf:about=""><dc:format>image/svg+xml</dc:format><dc:type
           rdf:resource="http://purl.org/dc/dcmitype/StillImage" /><dc:title></dc:title></cc:Work></rdf:RDF></metadata><defs
     id="defs4707"><clipPath
       id="clipPath4719"
       clipPathUnits="userSpaceOnUse"><path
         id="path4717"
         d="M 191,933 C 135.771,933 91,888.229 91,833 v 0 -643 C 91,134.771 135.771,90 191,90 v 0 h 643 c 55.229,0 100,44.771 100,100 v 0 643 c 0,55.229 -44.771,100 -100,100 v 0 z" /></clipPath><clipPath
       id="clipPath4731"
       clipPathUnits="userSpaceOnUse"><path
         id="path4729"
         d="m 287.482,803 c -38.661,0 -70.001,-31.34 -70.001,-70 v 0 -447 c 0,-38.66 31.34,-70 70.001,-70 v 0 h 447 c 38.659,0 69.999,31.34 69.999,70 v 0 447 c 0,38.66 -31.34,70 -69.999,70 v 0 z" /></clipPath></defs><g
     transform="matrix(1.3333333,0,0,-1.3333333,0,1365.3333)"
     id="g4711"><g
       id="g4713"><g
         clip-path="url(#clipPath4719)"
         id="g4715"><g
           transform="translate(933,190)"
           id="g4721"><path
             id="path4723"
             style="fill:#f44336;fill-opacity:1;fill-rule:nonzero;stroke:none"
             d="m 0,0 c 0,-55.229 -44.772,-100 -100,-100 h -643 c -55.229,0 -100,44.771 -100,100 v 643 c 0,55.229 44.771,100 100,100 h 643 C -44.772,743 0,698.229 0,643 Z" /></g></g></g><g
       id="g4725"><g
         clip-path="url(#clipPath4731)"
         id="g4727"><g
           transform="translate(734.4815,803)"
           id="g4733"><path
             id="path4735"
             style="fill:#ffffff;fill-opacity:1;fill-rule:nonzero;stroke:none"
             d="m 0,0 h -447 c -38.66,0 -70,-31.34 -70,-70 v -447 c 0,-38.66 31.34,-70 70,-70 H 0 c 38.66,0 70,31.34 70,70 V -70 C 70,-31.34 38.66,0 0,0 m 0,-40 c 16.542,0 30,-13.458 30,-30 v -447 c 0,-16.542 -13.458,-30 -30,-30 h -447 c -16.542,0 -30,13.458 -30,30 v 447 c 0,16.542 13.458,30 30,30 H 0" /></g></g></g><g
       transform="translate(511.694,568.6063)"
       id="g4737"><path
         id="path4739"
         style="fill:#ffffff;fill-opacity:1;fill-rule:nonzero;stroke:none"
         d="m 0,0 -212.694,-134.694 v 57.473 L -90,0 -212.694,71.815 v 57.474 z" /></g><g
       transform="translate(512.5,448.1026)"
       id="g4741"><path
         id="path4743"
         style="fill:#ffffff;fill-opacity:1;fill-rule:nonzero;stroke:none"
         d="M 0,0 212.5,134.582 V 77.173 L 90,0 212.5,-71.772 v -57.409 z" /></g></g></svg>