<?xml version="1.0" encoding="UTF-8" standalone="no"?>
<svg
   xmlns:dc="http://purl.org/dc/elements/1.1/"
   xmlns:cc="http://creativecommons.org/ns#"
   xmlns:rdf="http://www.w3.org/1999/02/22-rdf-syntax-ns#"
   xmlns:svg="http://www.w3.org/2000/svg"
   xmlns="http://www.w3.org/2000/svg"
   viewBox="0 0 1280 1280"
   height="1280"
   width="1280"
   xml:space="preserve"
   version="1.1"
   id="svg2"><metadata
     id="metadata8"><rdf:RDF><cc:Work
         rdf:about=""><dc:format>image/svg+xml</dc:format><dc:type
           rdf:resource="http://purl.org/dc/dcmitype/StillImage" /><dc:title></dc:title></cc:Work></rdf:RDF></metadata><defs
     id="defs6"><clipPath
       id="clipPath16"
       clipPathUnits="userSpaceOnUse"><path
         id="path18"
         d="m 0,1024 1024,0 L 1024,0 0,0 0,1024 Z" /></clipPath></defs><g
     transform="matrix(1.25,0,0,-1.25,0,1280)"
     id="g10"><g
       id="g12"><g
         clip-path="url(#clipPath16)"
         id="g14"><g
           transform="translate(933,190)"
           id="g20"><path
             id="path22"
             style="fill:#be1e00;fill-opacity:1;fill-rule:nonzero;stroke:none"
             d="m 0,0 c 0,-55.229 -44.771,-100 -100,-100 l -643,0 c -55.229,0 -100,44.771 -100,100 l 0,643 c 0,55.229 44.771,100 100,100 l 643,0 C -44.771,743 0,698.229 0,643 L 0,0 Z" /></g><g
           transform="translate(767.1182,630)"
           id="g24"><path
             id="path26"
             style="fill:#ffffff;fill-opacity:1;fill-rule:nonzero;stroke:none"
             d="m 0,0 -138.118,0 0,138.118 c 0,19.817 -16.065,35.882 -35.882,35.882 l -163.236,0 c -19.817,0 -35.882,-16.065 -35.882,-35.882 l 0,-138.118 -138.118,0 c -19.817,0 -35.882,-16.064 -35.882,-35.881 l 0,-163.238 c 0,-19.817 16.065,-35.881 35.882,-35.881 l 138.118,0 0,-138.118 c 0,-19.818 16.065,-35.882 35.882,-35.882 l 163.236,0 c 19.817,0 35.882,16.064 35.882,35.882 l 0,138.118 L 0,-235 c 19.817,0 35.882,16.064 35.882,35.881 l 0,163.238 C 35.882,-16.064 19.817,0 0,0" /></g><g
           transform="translate(530,547.7183)"
           id="g28"><path
             id="path30"
             style="fill:#000000;fill-opacity:1;fill-rule:nonzero;stroke:none"
             d="m 0,0 0,164.75 17,-6.095 -35,49.627 -35,-49.627 17,6.095 L -36,0 c -13.047,-6.588 -22,-20.104 -22,-35.718 0,-22.091 17.909,-40 40,-40 22.091,0 40,17.909 40,40 C 22,-20.104 13.047,-6.588 0,0 m 176.373,-70.718 6.095,17 -148.497,0 c 1.954,5.641 3.029,11.693 3.029,18 0,6.306 -1.075,12.358 -3.029,18 l 148.497,0 -6.095,17 49.627,-35 -49.627,-35 z" /></g></g></g></g></svg>