<?xml version="1.0" encoding="UTF-8" standalone="no"?>
<svg
   xmlns:dc="http://purl.org/dc/elements/1.1/"
   xmlns:cc="http://creativecommons.org/ns#"
   xmlns:rdf="http://www.w3.org/1999/02/22-rdf-syntax-ns#"
   xmlns:svg="http://www.w3.org/2000/svg"
   xmlns="http://www.w3.org/2000/svg"
   id="svg2"
   version="1.1"
   viewBox="0 0 1024 1024"
   height="1024px"
   width="1024px">
  <metadata
     id="metadata16">
    <rdf:RDF>
      <cc:Work
         rdf:about="">
        <dc:format>image/svg+xml</dc:format>
        <dc:type
           rdf:resource="http://purl.org/dc/dcmitype/StillImage" />
        <dc:title>Icon Template</dc:title>
      </cc:Work>
    </rdf:RDF>
  </metadata>
  <!-- Generator: Sketch 45.2 (43514) - http://www.bohemiancoding.com/sketch -->
  <title
     id="title4">Icon Template</title>
  <desc
     id="desc6">Created with Sketch.</desc>
  <defs
     id="defs8" />
  <g
     fill-rule="evenodd"
     fill="none"
     stroke-width="1"
     stroke="none"
     id="Page-1">
    <g
       fill-rule="nonzero"
       id="Icon-Template">
      <rect
         style="fill:#75aadb;fill-opacity:1"
         rx="100"
         height="840"
         width="840"
         y="92"
         x="92"
         fill="#FFFF00"
         id="Outer" />
    </g>
  </g>
  <path
     id="path3355"
     d="m 492.79955,700.04817 0,-18.53837 -32.77319,-0.35418 -32.77319,-0.35417 0,-75.45451 0,-75.45451 34.4274,0 34.4274,0 63.11704,94.67809 63.11703,94.6781 36.85874,0 36.85873,0 0,-19.20045 0,-19.20046 -24.96791,0 -24.96792,0 -52.49597,-77.35658 c -28.8728,-42.54613 -52.49599,-78.21885 -52.49599,-79.27273 0,-1.14792 3.31803,-3.11799 8.27606,-4.91391 33.70053,-12.20708 58.83027,-33.7136 70.66676,-60.47805 7.03656,-15.91089 9.03409,-26.21558 9.06917,-46.78507 0.0387,-22.69489 -1.65193,-30.42799 -10.66393,-48.77765 -12.51144,-25.47499 -38.30958,-44.31049 -72.71347,-53.08892 -25.89502,-6.60733 -52.7431,-7.11893 -97.32643,-1.85462 -49.0329,5.78972 -85.73647,4.8271 -117.52001,-3.0822 -2.97574,-0.7405 -2.97938,-0.72026 -2.97938,16.59111 0,16.90564 0.0734,17.34799 2.97938,17.96045 1.63866,0.34535 14.44999,1.96868 28.46963,3.60739 l 25.49026,2.97949 0,167.20931 0,167.20931 -28.1386,0.35738 -28.13859,0.35738 -0.37256,17.14416 c -0.2049,9.4293 -0.0728,17.92509 0.29337,18.87953 0.54117,1.41024 15.99184,1.67144 82.47105,1.3942 l 81.80512,-0.34116 z m -55.28407,-206.7965 -10.26231,-0.54738 0,-72.66839 0,-72.66839 3.64147,-0.73726 c 10.19507,-2.06412 40.94122,-3.9596 63.89116,-3.93885 22.37914,0.0203 27.23347,0.40875 36.41465,2.91434 34.76801,9.48837 52.35801,30.22158 54.4648,64.19727 2.71929,43.85318 -23.59124,71.52461 -77.06266,81.0487 -11.98283,2.13432 -51.2276,3.45926 -71.08711,2.39996 z"
     style="fill:#ffffff;fill-opacity:1" />
</svg>
