<?xml version="1.0" encoding="UTF-8" standalone="no"?>
<svg
   xmlns:dc="http://purl.org/dc/elements/1.1/"
   xmlns:cc="http://creativecommons.org/ns#"
   xmlns:rdf="http://www.w3.org/1999/02/22-rdf-syntax-ns#"
   xmlns:svg="http://www.w3.org/2000/svg"
   xmlns="http://www.w3.org/2000/svg"
   viewBox="0 0 1365.3333 1365.3333"
   height="1365.3333"
   width="1365.3333"
   xml:space="preserve"
   id="svg4745"
   version="1.1"><metadata
     id="metadata4751"><rdf:RDF><cc:Work
         rdf:about=""><dc:format>image/svg+xml</dc:format><dc:type
           rdf:resource="http://purl.org/dc/dcmitype/StillImage" /><dc:title></dc:title></cc:Work></rdf:RDF></metadata><defs
     id="defs4749"><clipPath
       id="clipPath4761"
       clipPathUnits="userSpaceOnUse"><path
         id="path4759"
         d="M 0,1024 H 1024 V 0 H 0 Z" /></clipPath><clipPath
       id="clipPath4777"
       clipPathUnits="userSpaceOnUse"><path
         id="path4775"
         d="M 0,1024 H 1024 V 0 H 0 Z" /></clipPath><clipPath
       id="clipPath4785"
       clipPathUnits="userSpaceOnUse"><path
         id="path4783"
         d="M 91,933 H 934 V 90 H 91 Z" /></clipPath><clipPath
       id="clipPath4801"
       clipPathUnits="userSpaceOnUse"><path
         id="path4799"
         d="M 0,1024 H 1024 V 0 H 0 Z" /></clipPath><clipPath
       id="clipPath4809"
       clipPathUnits="userSpaceOnUse"><path
         id="path4807"
         d="M 218.112,773.959 H 806.898 V 248.264 H 218.112 Z" /></clipPath></defs><g
     transform="matrix(1.3333333,0,0,-1.3333333,0,1365.3333)"
     id="g4753"><g
       id="g4755"><g
         clip-path="url(#clipPath4761)"
         id="g4757"><g
           transform="translate(834,933)"
           id="g4763"><path
             id="path4765"
             style="fill:#fff100;fill-opacity:1;fill-rule:nonzero;stroke:none"
             d="m 0,0 h -643 c -55.229,0 -100,-44.771 -100,-100 v -643 c 0,-55.229 44.771,-100 100,-100 H 0 c 55.229,0 100,44.771 100,100 v 643 C 100,-44.771 55.229,0 0,0" /></g><g
           transform="translate(736,805)"
           id="g4767"><path
             id="path4769"
             style="fill:#ec1c23;fill-opacity:1;fill-rule:nonzero;stroke:none"
             d="m 0,0 h -447 c -38.66,0 -70,-31.34 -70,-70 v -447 c 0,-38.66 31.34,-70 70,-70 H 0 c 38.66,0 70,31.34 70,70 V -70 C 70,-31.34 38.66,0 0,0" /></g></g></g><g
       id="g4771"><g
         clip-path="url(#clipPath4777)"
         id="g4773"><g
           id="g4779"><g
             id="g4781" /><g
             id="g4793"><g
               id="g4791"
               clip-path="url(#clipPath4785)"><g
                 id="g4789"
                 transform="translate(834,933)"><path
                   id="path4787"
                   style="fill:#bc0a3c;fill-opacity:1;fill-rule:nonzero;stroke:none"
                   d="m 0,0 h -643 c -55.229,0 -100,-44.771 -100,-100 v -643 c 0,-55.229 44.771,-100 100,-100 H 0 c 55.229,0 100,44.771 100,100 v 643 C 100,-44.771 55.229,0 0,0" /></g></g></g></g></g></g><g
       id="g4795"><g
         clip-path="url(#clipPath4801)"
         id="g4797"><g
           id="g4803"><g
             id="g4805" /><g
             id="g4817"><g
               id="g4815"
               clip-path="url(#clipPath4809)"><g
                 id="g4813"
                 transform="translate(614.3262,773.1445)"><path
                   id="path4811"
                   style="fill:#ffffff;fill-opacity:1;fill-rule:evenodd;stroke:none"
                   d="m 0,0 c -15.051,-1.178 -29.587,-4.042 -43.357,-8.745 v 0.18 c -1.246,-0.431 -2.41,-0.985 -3.656,-1.431 -4.216,-1.536 -8.393,-3.083 -12.463,-4.923 -1.561,-0.707 -3.073,-1.567 -4.645,-2.356 -4.069,-1.993 -8.216,-3.818 -12.091,-6.102 v -0.179 c -9.787,-5.728 -18.976,-12.317 -27.442,-19.776 -31.027,27.39 -71.657,44.146 -116.243,44.146 -97.369,0 -176.317,-79.205 -176.317,-176.971 0,-0.179 0,-0.405 0.041,-0.583 h -0.041 v -337.948 h 119.921 l 0.056,114.289 h 0.215 v 59.572 h -0.174 l 0.036,27.624 0.138,136.463 h -0.062 c -0.036,0.178 -0.076,0.404 -0.076,0.583 0,31.206 25.195,56.478 56.263,56.478 30.924,0 55.946,-25.007 56.196,-55.997 v -0.481 c 0,-0.179 0,-0.405 0.046,-0.583 h -0.112 v -135.562 h -0.117 l 0.113,-202.386 h 119.95 l 0.102,205.686 h 0.072 l 0.152,132.262 h -0.076 c -0.041,0.025 -0.041,0.112 -0.041,0.178 0,0.155 0.041,0.267 0.041,0.405 0,0.149 -0.041,0.329 -0.041,0.481 0,1.513 0.337,2.906 0.48,4.376 v 2.905 c 3.232,23.362 20.575,41.949 43.132,47.041 z m 175.136,-421.784 c -6.08,9.509 -62.686,87.126 -67.301,96.419 l -1.69,3.278 3.048,2.214 c 48.692,34.458 77.774,90.527 77.774,150.013 v 5.061 c 0,41.509 -14.475,81.138 -39.712,108.746 -29.5,32.286 -71.933,51.238 -120.532,54.808 v -120.109 c 25.568,-7.346 42.937,-31.123 42.937,-62.292 0,-35.362 -27.284,-54.159 -50.187,-67.791 l -9.083,-5.518 c -20.443,-13.704 -30.879,-32.789 -30.879,-56.791 0,-19.867 7.356,-36.344 8.828,-39.5 l 7.949,-13.945 83.017,-119.146 c 0.06,-0.052 1.353,-2.069 1.353,-2.069 -0.041,0.051 11.17,-16.323 11.17,-16.323 6.627,-8.7 15.711,-15.288 28.725,-18.526 16.301,-4.048 34.533,-0.298 47.65,8.567 12.974,8.751 20.56,19.98 23.389,35.196 l 0.98,9.938 c -0.036,11.559 -5.239,31.181 -17.436,47.77" /></g></g></g></g></g></g></g></svg>