<?xml version="1.0" encoding="UTF-8" standalone="no"?>
<svg
   xmlns:dc="http://purl.org/dc/elements/1.1/"
   xmlns:cc="http://creativecommons.org/ns#"
   xmlns:rdf="http://www.w3.org/1999/02/22-rdf-syntax-ns#"
   xmlns:svg="http://www.w3.org/2000/svg"
   xmlns="http://www.w3.org/2000/svg"
   viewBox="0 0 1365.3333 1365.3333"
   height="1365.3333"
   width="1365.3333"
   xml:space="preserve"
   id="svg4819"
   version="1.1"><metadata
     id="metadata4825"><rdf:RDF><cc:Work
         rdf:about=""><dc:format>image/svg+xml</dc:format><dc:type
           rdf:resource="http://purl.org/dc/dcmitype/StillImage" /><dc:title></dc:title></cc:Work></rdf:RDF></metadata><defs
     id="defs4823"><clipPath
       id="clipPath4835"
       clipPathUnits="userSpaceOnUse"><path
         id="path4833"
         d="M 0,1024 H 1024 V 0 H 0 Z" /></clipPath></defs><g
     transform="matrix(1.3333333,0,0,-1.3333333,0,1365.3333)"
     id="g4827"><g
       id="g4829"><g
         clip-path="url(#clipPath4835)"
         id="g4831"><g
           transform="translate(933,190)"
           id="g4837"><path
             id="path4839"
             style="fill:#53b1e0;fill-opacity:1;fill-rule:nonzero;stroke:none"
             d="m 0,0 c 0,-55.229 -44.771,-100 -100,-100 h -643 c -55.229,0 -100,44.771 -100,100 v 643 c 0,55.229 44.771,100 100,100 h 643 C -44.771,743 0,698.229 0,643 Z" /></g><g
           transform="translate(617.1719,511.5)"
           id="g4841"><path
             id="path4843"
             style="fill:none;stroke:#83cdea;stroke-width:40;stroke-linecap:butt;stroke-linejoin:miter;stroke-miterlimit:10;stroke-dasharray:none;stroke-opacity:1"
             d="m 0,0 c 0,-58.361 -47.311,-105.672 -105.672,-105.672 -58.361,0 -105.672,47.311 -105.672,105.672 0,58.361 47.311,105.672 105.672,105.672 C -47.311,105.672 0,58.361 0,0 Z" /></g><g
           transform="translate(488.5713,483.8369)"
           id="g4845"><path
             id="path4847"
             style="fill:#ed1c24;fill-opacity:1;fill-rule:nonzero;stroke:none"
             d="M 0,0 -292.098,340.363 48.268,48.267 Z" /></g><g
           transform="translate(511.7842,614.8784)"
           id="g4849"><path
             id="path4851"
             style="fill:#176060;fill-opacity:1;fill-rule:nonzero;stroke:none"
             d="M 0,0 28.784,-1.878 H -29.784 Z" /></g><g
           transform="translate(482,613)"
           id="g4853"><path
             id="path4855"
             style="fill:#83cdea;fill-opacity:1;fill-rule:nonzero;stroke:none"
             d="M 0,0 29.284,207.333 58.568,0 Z" /></g><g
           transform="translate(536.7412,532.2002)"
           id="g4857"><path
             id="path4859"
             style="fill:#ffffff;fill-opacity:1;fill-rule:nonzero;stroke:none"
             d="M 0,0 292.098,-340.363 -48.268,-48.267 Z" /></g><g
           transform="translate(540.5684,406)"
           id="g4861"><path
             id="path4863"
             style="fill:#83cdea;fill-opacity:1;fill-rule:nonzero;stroke:none"
             d="M 0,0 -29.284,-207.334 -58.568,0 Z" /></g><g
           transform="translate(617,541.6172)"
           id="g4865"><path
             id="path4867"
             style="fill:#83cdea;fill-opacity:1;fill-rule:nonzero;stroke:none"
             d="M 0,0 207.334,-29.284 0,-58.568 Z" /></g><g
           transform="translate(408,481.0488)"
           id="g4869"><path
             id="path4871"
             style="fill:#83cdea;fill-opacity:1;fill-rule:nonzero;stroke:none"
             d="M 0,0 -207.334,29.284 0,58.568 Z" /></g></g></g></g></svg>