<?xml version="1.0" encoding="UTF-8"?>
<svg width="1024px" height="1024px" viewBox="0 0 1024 1024" version="1.1" xmlns="http://www.w3.org/2000/svg" xmlns:xlink="http://www.w3.org/1999/xlink">
    <!-- Generator: Sketch 48.2 (47327) - http://www.bohemiancoding.com/sketch -->
    <title>Scrivener</title>
    <desc>Created with Sketch.</desc>
    <defs></defs>
    <g id="Page-1" stroke="none" stroke-width="1" fill="none" fill-rule="evenodd">
        <g id="Scrivener">
            <rect id="Outer" fill="#F6F4E5" fill-rule="nonzero" x="92" y="92" width="840" height="840" rx="100"></rect>
            <rect id="Inner" fill="#2D0F03" fill-rule="nonzero" x="220" y="220" width="585" height="585" rx="64"></rect>
            <g id="Icon" transform="translate(305.000000, 219.000000)" fill="#F6F4E5">
                <path d="M172.183267,0 C114.443577,8.84723998 85.7092708,58.193759 86.9052048,100.321952 C86.9849337,103.084719 87.1762831,105.783606 87.5111446,108.498463 C92.1194767,148.023587 121.794584,182.997334 160.06447,194.064369 C206.03617,207.415077 256.010263,203.48652 300.993324,220.206845 C338.147005,234.004707 372.701523,258.023206 391.374038,293.81141 C411.49762,332.442229 416.520542,377.700492 410.780059,420.531355 C406.793613,450.267024 396.811551,479.236145 380.3555,504.436407 C350.520935,550.125854 305.011662,576.795332 255.292702,587 L222.477518,587 L222.445614,586.98403 C282.169044,578.15276 332.129991,529.157575 332.129991,460.343934 C332.129991,354.161085 184.464448,362.417444 114.771161,339.596675 C90.9232631,331.803439 67.7931953,320.209402 49.0977198,303.185652 C-30.772797,230.459423 -7.25988672,86.8594553 76.8697529,27.0687216 C96.3628169,13.206981 118.184839,4.72704519 140.900161,0 L172.183267,0 Z" id="Combined-Shape"></path>
                <path d="M114.921673,454.305191 C107.731884,473.536224 87.651154,487.480319 67.2061834,487.480319 L52.3515106,487.448374 L57.070799,501.664005 C63.959693,522.268682 77.6107889,538.960068 92.3704424,553 C84.6105387,548.735311 77.1832023,544.039361 70.0884333,538.960068 C49.4534242,524.137479 23.164771,499.475756 15.1356462,466.188819 C7.78749249,435.681118 19.9341172,403.24073 43.3880301,390.686252 C50.3719434,386.964632 58.4485778,385 66.8261064,385 C79.5903561,385 92.0378751,389.568169 100.985519,397.554478 C116.283615,411.147176 122.15897,435.010268 114.921673,454.305191 Z" id="Path"></path>
                <path d="M353.093105,182.870017 C346.75506,186.236568 339.3793,188 331.748102,188 C320.077797,188 308.726789,183.84792 300.536822,176.617851 C286.567579,164.225737 281.187425,142.55156 287.828802,125.029463 C294.390355,107.57149 312.718002,94.8908146 331.34898,94.8908146 L348.096107,94.9068458 L342.763848,78.9558059 C337.73492,63.982669 329.018113,51.1577123 318.928328,40 C321.849895,41.8756499 324.723568,43.8314558 327.565311,45.8513865 C346.882779,59.6542461 371.484611,82.6429809 379.02002,113.583189 C385.80508,141.589688 374.661616,171.343588 353.093105,182.870017 Z" id="Path"></path>
            </g>
        </g>
    </g>
</svg>