<?xml version="1.0" encoding="UTF-8" standalone="no"?>
<svg
   xmlns:dc="http://purl.org/dc/elements/1.1/"
   xmlns:cc="http://creativecommons.org/ns#"
   xmlns:rdf="http://www.w3.org/1999/02/22-rdf-syntax-ns#"
   xmlns:svg="http://www.w3.org/2000/svg"
   xmlns="http://www.w3.org/2000/svg"
   viewBox="0 0 1365.3333 1365.3333"
   height="1365.3333"
   width="1365.3333"
   xml:space="preserve"
   id="svg4873"
   version="1.1"><metadata
     id="metadata4879"><rdf:RDF><cc:Work
         rdf:about=""><dc:format>image/svg+xml</dc:format><dc:type
           rdf:resource="http://purl.org/dc/dcmitype/StillImage" /><dc:title></dc:title></cc:Work></rdf:RDF></metadata><defs
     id="defs4877"><clipPath
       id="clipPath4889"
       clipPathUnits="userSpaceOnUse"><path
         id="path4887"
         d="M 0,1024 H 1024 V 0 H 0 Z" /></clipPath></defs><g
     transform="matrix(1.3333333,0,0,-1.3333333,0,1365.3333)"
     id="g4881"><g
       id="g4883"><g
         clip-path="url(#clipPath4889)"
         id="g4885"><g
           transform="translate(933,190)"
           id="g4891"><path
             id="path4893"
             style="fill:#00618a;fill-opacity:1;fill-rule:nonzero;stroke:none"
             d="m 0,0 c 0,-55.229 -44.772,-100 -100,-100 h -643 c -55.229,0 -100,44.771 -100,100 v 643 c 0,55.229 44.771,100 100,100 h 643 C -44.772,743 0,698.229 0,643 Z" /></g><g
           transform="translate(274.0328,785.4252)"
           id="g4895"><path
             id="path4897"
             style="fill:#ffffff;fill-opacity:1;fill-rule:nonzero;stroke:none"
             d="m 0,0 c 3.818,-1.062 7.779,-1.771 11.426,-3.251 10.635,-4.317 21.262,-8.69 31.67,-13.52 9.622,-4.466 17.699,-11.313 25.869,-17.991 1.747,-1.428 4.504,-2.241 6.81,-2.27 22.027,-0.28 43.484,-4.013 63.725,-12.524 10.626,-4.468 20.565,-10.845 30.236,-17.236 13.518,-8.934 26.687,-18.431 39.628,-28.189 7.138,-5.382 13.617,-11.667 20.18,-17.773 5.285,-4.917 10.581,-9.892 15.292,-15.342 10.229,-11.837 20.627,-23.593 29.953,-36.127 10.259,-13.787 20.249,-27.905 27.364,-43.691 4.412,-9.79 8.09,-19.909 12.393,-29.75 5.698,-13.032 11.525,-26.011 17.586,-38.877 7.343,-15.588 15.343,-30.875 22.373,-46.599 4.393,-9.826 11.146,-15.551 21.277,-19.356 24.541,-9.217 47.564,-21.495 68.136,-38.022 10.435,-8.383 21.419,-16.13 31.41,-25.003 6.654,-5.909 11.997,-13.295 17.922,-20.024 1.23,-1.397 2.456,-2.798 3.651,-4.225 1.821,-2.174 1.467,-4.101 -1.24,-4.743 -10.187,-2.414 -20.343,-5.124 -30.664,-6.758 -11.955,-1.892 -23.897,-3.577 -35.507,-7.167 -4.338,-1.34 -8.876,-2.03 -13.476,-3.051 2.559,-7.089 7.628,-11.977 13.563,-15.92 9.993,-6.641 20.365,-12.717 30.266,-19.487 14.064,-9.618 26.374,-21.211 36.93,-34.628 1.305,-1.659 2.568,-3.387 4.084,-4.841 6.427,-6.166 12.985,-12.209 15.017,-21.485 -1.311,0.929 -2.906,1.837 -4.238,3.038 -16.974,15.3 -35.594,28.026 -56.714,37.008 -15.853,6.742 -30.092,16.187 -43.465,26.967 -10.724,8.645 -19.326,18.935 -24.353,31.931 -0.75,1.939 -2.251,4.134 -1.854,5.852 0.773,3.343 4.129,4.301 7.163,5.205 11.207,3.337 22.345,6.933 33.643,9.926 4.858,1.287 10.034,1.733 15.083,1.862 10.607,0.272 21.227,0.083 31.841,0.083 0.25,0.488 0.5,0.975 0.75,1.463 -0.906,1.558 -1.465,3.55 -2.777,4.599 -5.989,4.789 -12.093,9.449 -18.336,13.901 -9.975,7.113 -20.265,13.793 -30.111,21.075 -14.493,10.718 -31.317,16.112 -48.011,21.881 -5.127,1.771 -10.183,3.882 -15.441,5.11 -10.388,2.425 -16.757,9.424 -21.184,18.316 -8.099,16.266 -15.728,32.766 -23.556,49.166 -2.83,5.928 -5.602,11.885 -8.52,17.769 -7.805,15.743 -14.784,31.807 -21.036,48.26 -3.663,9.639 -9.156,18.721 -14.765,27.45 -8.483,13.204 -17.058,26.474 -26.939,38.623 -10.383,12.765 -21.852,24.762 -33.754,36.145 -13.804,13.201 -29.087,24.732 -45.267,34.98 -17.304,10.96 -35.213,20.751 -55.02,26.391 -6.113,1.741 -12.603,2.362 -18.972,2.954 -8.672,0.807 -17.432,0.759 -26.07,1.787 -2.962,0.353 -6.161,2.318 -8.413,4.438 -15.349,14.453 -34.304,22.387 -53.469,29.899 -3.713,1.456 -7.907,1.812 -11.922,2.345 -9.988,1.328 -15.678,-7.744 -12.513,-17.082 3.084,-9.1 8.802,-16.475 14.329,-24.093 8.932,-12.313 18.597,-24.293 25.853,-37.562 6.09,-11.134 9.573,-23.78 13.514,-35.982 6.319,-19.565 12.452,-39.156 24.727,-56.05 1.819,-2.505 3.938,-4.88 6.272,-6.907 9.246,-8.032 10.981,-17.557 6.905,-28.894 -4,-11.125 -7.944,-22.335 -10.795,-33.787 -2.136,-8.578 -3.083,-17.568 -3.529,-26.426 -0.878,-17.446 0.264,-34.827 5.22,-51.698 3.341,-11.375 6.889,-22.799 14.401,-32.274 2.042,-2.575 5.201,-4.543 8.23,-5.985 3.741,-1.779 5.088,-0.325 5.647,3.875 1.842,13.836 3.702,27.676 5.993,41.442 1.841,11.057 7.679,20.256 14.807,28.705 2.374,2.815 4.592,5.762 7.621,9.58 1.087,-3.191 1.869,-5.798 2.855,-8.325 2.87,-7.349 5.592,-14.767 8.784,-21.976 9.542,-21.555 20.564,-42.36 33.368,-62.146 7.992,-12.35 16.255,-24.596 25.357,-36.131 5.721,-7.249 13.223,-13.094 19.921,-19.574 0.416,-0.403 0.783,-0.856 0.653,-1.988 -2.964,2.124 -6.124,4.025 -8.859,6.412 -11.166,9.742 -22.49,19.332 -33.216,29.545 -13.985,13.316 -27.803,26.869 -36.117,44.841 -3.178,6.87 -6.787,13.54 -10.205,20.298 -0.543,1.075 -1.114,2.137 -2.001,3.832 -0.703,-1.403 -1.335,-2.166 -1.471,-3.008 -1.576,-9.745 -3.045,-19.506 -4.608,-29.252 -1.097,-6.843 -1.918,-13.884 -6.489,-19.474 -7.407,-9.06 -19.842,-10.417 -29.427,-3.809 -8.438,5.819 -14.472,13.899 -19.471,22.793 -8.61,15.321 -13.401,31.927 -15.579,49.183 -1.354,10.73 -1.938,21.681 -1.518,32.481 0.66,16.957 4.443,33.477 9.105,49.808 2.061,7.221 3.182,14.645 6.341,21.631 0.821,1.818 -1.308,6.025 -3.271,7.875 -12.68,11.954 -18.972,27.727 -25.674,43.073 -5.567,12.748 -9.612,26.166 -14.199,39.333 -2.144,6.156 -2.977,12.995 -6.158,18.514 -6.034,10.47 -13.283,20.245 -20.118,30.247 -6.767,9.902 -13.833,19.606 -20.369,29.656 -2.121,3.261 -2.984,7.341 -4.423,11.046 v 12.811 c 0.323,0.566 0.767,1.096 0.951,1.704 2.342,7.725 6.414,14.302 13.386,18.562 3.239,1.979 7.005,3.095 10.531,4.602 z" /></g><g
           transform="translate(274.0328,785.4252)"
           id="g4899"><path
             id="path4901"
             style="fill:none;stroke:#ffffff;stroke-width:1;stroke-linecap:butt;stroke-linejoin:miter;stroke-miterlimit:10;stroke-dasharray:none;stroke-opacity:1"
             d="m 0,0 c 3.818,-1.062 7.779,-1.771 11.426,-3.251 10.635,-4.317 21.262,-8.69 31.67,-13.52 9.622,-4.466 17.699,-11.313 25.869,-17.991 1.747,-1.428 4.504,-2.241 6.81,-2.27 22.027,-0.28 43.484,-4.013 63.725,-12.524 10.626,-4.468 20.565,-10.845 30.236,-17.236 13.518,-8.934 26.687,-18.431 39.628,-28.189 7.138,-5.382 13.617,-11.667 20.18,-17.773 5.285,-4.917 10.581,-9.892 15.292,-15.342 10.229,-11.837 20.627,-23.593 29.953,-36.127 10.259,-13.787 20.249,-27.905 27.364,-43.691 4.412,-9.79 8.09,-19.909 12.393,-29.75 5.698,-13.032 11.525,-26.011 17.586,-38.877 7.343,-15.588 15.343,-30.875 22.373,-46.599 4.393,-9.826 11.146,-15.551 21.277,-19.356 24.541,-9.217 47.564,-21.495 68.136,-38.022 10.435,-8.383 21.419,-16.13 31.41,-25.003 6.654,-5.909 11.997,-13.295 17.922,-20.024 1.23,-1.397 2.456,-2.798 3.651,-4.225 1.821,-2.174 1.467,-4.101 -1.24,-4.743 -10.187,-2.414 -20.343,-5.124 -30.664,-6.758 -11.955,-1.892 -23.897,-3.577 -35.507,-7.167 -4.338,-1.34 -8.876,-2.03 -13.476,-3.051 2.559,-7.089 7.628,-11.977 13.563,-15.92 9.993,-6.641 20.365,-12.717 30.266,-19.487 14.064,-9.618 26.374,-21.211 36.93,-34.628 1.305,-1.659 2.568,-3.387 4.084,-4.841 6.427,-6.166 12.985,-12.209 15.017,-21.485 -1.311,0.929 -2.906,1.837 -4.238,3.038 -16.974,15.3 -35.594,28.026 -56.714,37.008 -15.853,6.742 -30.092,16.187 -43.465,26.967 -10.724,8.645 -19.326,18.935 -24.353,31.931 -0.75,1.939 -2.251,4.134 -1.854,5.852 0.773,3.343 4.129,4.301 7.163,5.205 11.207,3.337 22.345,6.933 33.643,9.926 4.858,1.287 10.034,1.733 15.083,1.862 10.607,0.272 21.227,0.083 31.841,0.083 0.25,0.488 0.5,0.975 0.75,1.463 -0.906,1.558 -1.465,3.55 -2.777,4.599 -5.989,4.789 -12.093,9.449 -18.336,13.901 -9.975,7.113 -20.265,13.793 -30.111,21.075 -14.493,10.718 -31.317,16.112 -48.011,21.881 -5.127,1.771 -10.183,3.882 -15.441,5.11 -10.388,2.425 -16.757,9.424 -21.184,18.316 -8.099,16.266 -15.728,32.766 -23.556,49.166 -2.83,5.928 -5.602,11.885 -8.52,17.769 -7.805,15.743 -14.784,31.807 -21.036,48.26 -3.663,9.639 -9.156,18.721 -14.765,27.45 -8.483,13.204 -17.058,26.474 -26.939,38.623 -10.383,12.765 -21.852,24.762 -33.754,36.145 -13.804,13.201 -29.087,24.732 -45.267,34.98 -17.304,10.96 -35.213,20.751 -55.02,26.391 -6.113,1.741 -12.603,2.362 -18.972,2.954 -8.672,0.807 -17.432,0.759 -26.07,1.787 -2.962,0.353 -6.161,2.318 -8.413,4.438 -15.349,14.453 -34.304,22.387 -53.469,29.899 -3.713,1.456 -7.907,1.812 -11.922,2.345 -9.988,1.328 -15.678,-7.744 -12.513,-17.082 3.084,-9.1 8.802,-16.475 14.329,-24.093 8.932,-12.313 18.597,-24.293 25.853,-37.562 6.09,-11.134 9.573,-23.78 13.514,-35.982 6.319,-19.565 12.452,-39.156 24.727,-56.05 1.819,-2.505 3.938,-4.88 6.272,-6.907 9.246,-8.032 10.981,-17.557 6.905,-28.894 -4,-11.125 -7.944,-22.335 -10.795,-33.787 -2.136,-8.578 -3.083,-17.568 -3.529,-26.426 -0.878,-17.446 0.264,-34.827 5.22,-51.698 3.341,-11.375 6.889,-22.799 14.401,-32.274 2.042,-2.575 5.201,-4.543 8.23,-5.985 3.741,-1.779 5.088,-0.325 5.647,3.875 1.842,13.836 3.702,27.676 5.993,41.442 1.841,11.057 7.679,20.256 14.807,28.705 2.374,2.815 4.592,5.762 7.621,9.58 1.087,-3.191 1.869,-5.798 2.855,-8.325 2.87,-7.349 5.592,-14.767 8.784,-21.976 9.542,-21.555 20.564,-42.36 33.368,-62.146 7.992,-12.35 16.255,-24.596 25.357,-36.131 5.721,-7.249 13.223,-13.094 19.921,-19.574 0.416,-0.403 0.783,-0.856 0.653,-1.988 -2.964,2.124 -6.124,4.025 -8.859,6.412 -11.166,9.742 -22.49,19.332 -33.216,29.545 -13.985,13.316 -27.803,26.869 -36.117,44.841 -3.178,6.87 -6.787,13.54 -10.205,20.298 -0.543,1.075 -1.114,2.137 -2.001,3.832 -0.703,-1.403 -1.335,-2.166 -1.471,-3.008 -1.576,-9.745 -3.045,-19.506 -4.608,-29.252 -1.097,-6.843 -1.918,-13.884 -6.489,-19.474 -7.407,-9.06 -19.842,-10.417 -29.427,-3.809 -8.438,5.819 -14.472,13.899 -19.471,22.793 -8.61,15.321 -13.401,31.927 -15.579,49.183 -1.354,10.73 -1.938,21.681 -1.518,32.481 0.66,16.957 4.443,33.477 9.105,49.808 2.061,7.221 3.182,14.645 6.341,21.631 0.821,1.818 -1.308,6.025 -3.271,7.875 -12.68,11.954 -18.972,27.727 -25.674,43.073 -5.567,12.748 -9.612,26.166 -14.199,39.333 -2.144,6.156 -2.977,12.995 -6.158,18.514 -6.034,10.47 -13.283,20.245 -20.118,30.247 -6.767,9.902 -13.833,19.606 -20.369,29.656 -2.121,3.261 -2.984,7.341 -4.423,11.046 v 12.811 c 0.323,0.566 0.767,1.096 0.951,1.704 2.342,7.725 6.414,14.302 13.386,18.562 3.239,1.979 7.005,3.095 10.531,4.602 z" /></g></g></g></g></svg>