<?xml version="1.0" encoding="UTF-8" standalone="no"?>
<svg
   xmlns:dc="http://purl.org/dc/elements/1.1/"
   xmlns:cc="http://creativecommons.org/ns#"
   xmlns:rdf="http://www.w3.org/1999/02/22-rdf-syntax-ns#"
   xmlns:svg="http://www.w3.org/2000/svg"
   xmlns="http://www.w3.org/2000/svg"
   viewBox="0 0 1365.3333 1365.3333"
   height="1365.3333"
   width="1365.3333"
   xml:space="preserve"
   id="svg4903"
   version="1.1"><metadata
     id="metadata4909"><rdf:RDF><cc:Work
         rdf:about=""><dc:format>image/svg+xml</dc:format><dc:type
           rdf:resource="http://purl.org/dc/dcmitype/StillImage" /><dc:title></dc:title></cc:Work></rdf:RDF></metadata><defs
     id="defs4907"><clipPath
       id="clipPath4919"
       clipPathUnits="userSpaceOnUse"><path
         id="path4917"
         d="M 0,1024 H 1024 V 0 H 0 Z" /></clipPath></defs><g
     transform="matrix(1.3333333,0,0,-1.3333333,0,1365.3333)"
     id="g4911"><g
       id="g4913"><g
         clip-path="url(#clipPath4919)"
         id="g4915"><g
           transform="translate(933,190)"
           id="g4921"><path
             id="path4923"
             style="fill:#231f20;fill-opacity:1;fill-rule:nonzero;stroke:none"
             d="m 0,0 c 0,-55.229 -44.772,-100 -100,-100 h -643 c -55.229,0 -100,44.771 -100,100 v 643 c 0,55.229 44.771,100 100,100 h 643 C -44.772,743 0,698.229 0,643 Z" /></g><g
           transform="translate(609.9098,592.8588)"
           id="g4925"><path
             id="path4927"
             style="fill:#ffffff;fill-opacity:1;fill-rule:nonzero;stroke:none"
             d="m 0,0 h -0.076 c 0,16.167 0.38,32.346 -0.123,48.497 -0.388,12.441 -8.773,20.696 -19.098,20.15 -10.08,-0.532 -16.98,-8.533 -17.52,-20.415 -0.131,-2.896 0.046,-5.806 -0.058,-8.704 -0.463,-12.867 -7.918,-21.031 -19.38,-21.292 -12.039,-0.273 -19.991,8.026 -20.244,21.565 -0.249,13.261 -0.004,26.531 -0.273,39.791 -0.297,14.656 -8.804,24.181 -21.148,24.152 -12.445,-0.029 -20.73,-9.482 -20.925,-24.244 -0.187,-14.092 0.282,-28.203 -0.264,-42.277 -0.45,-11.606 -9.196,-19.275 -20.314,-18.99 -10.636,0.274 -18.288,7.705 -19.154,18.897 -0.383,4.949 0.378,10.069 -0.576,14.874 -1.794,9.031 -7.397,14.866 -17.006,15.273 -9.499,0.403 -15.822,-4.455 -18.284,-13.553 -1.059,-3.912 -1.078,-8.178 -1.102,-12.286 -0.171,-29.43 -0.297,-58.861 -0.272,-88.292 0.009,-10.468 -5.221,-16.498 -15.226,-17.738 -9.002,-1.116 -16.259,6.734 -17.018,17.461 -0.233,3.301 -0.002,6.632 -0.111,9.946 -0.288,8.791 -4.888,14.135 -13.566,14.815 -8.844,0.692 -15.258,-4.531 -15.454,-12.792 -0.728,-30.644 -0.745,-61.324 -0.088,-91.969 0.175,-8.134 6.128,-13.66 15.173,-13.138 8.814,0.509 13.309,5.77 13.929,14.45 0.118,1.651 0.04,3.316 0.1,4.973 0.061,1.656 0.011,3.341 0.305,4.96 1.76,9.707 6.745,16.253 17.452,15.482 9.924,-0.715 14.617,-6.926 14.645,-16.63 0.091,-31.504 -0.133,-63.012 0.215,-94.513 0.142,-12.8 7.784,-20.713 18.462,-20.668 10.597,0.046 17.751,8.185 18.261,20.837 0.1,2.484 -0.046,4.977 0.055,7.461 0.525,12.916 7.996,21.131 19.385,21.374 11.83,0.252 20.017,-8.318 20.287,-21.788 0.266,-13.261 -0.011,-26.531 0.167,-39.795 0.196,-14.706 8.552,-24.274 20.915,-24.3 12.434,-0.025 20.874,9.432 21.158,24.185 0.27,14.09 -0.133,28.198 0.364,42.277 0.413,11.726 8.959,19.607 19.962,19.417 10.429,-0.181 18.505,-7.819 19.459,-18.801 0.429,-4.943 -0.304,-10.015 0.399,-14.898 1.397,-9.708 6.891,-15.912 17.129,-16.444 10.258,-0.533 16.396,4.964 18.604,14.642 0.906,3.972 0.779,8.225 0.79,12.352 0.079,29.432 0.002,58.864 0.13,88.296 0.044,10.176 4.851,16.768 15.546,17.017 10.799,0.251 15.339,-6.745 16.555,-16.427 0.514,-4.092 -1.157,-9.25 0.786,-12.195 3.269,-4.956 8.242,-11.144 13.231,-11.886 4.211,-0.627 9.999,5.204 14.017,9.242 1.878,1.887 1.639,6.291 1.653,9.557 0.117,26.53 0.149,53.061 0.023,79.591 -0.047,9.929 -2.762,18.458 -14.633,19.313 -9.603,0.691 -14.406,-6.001 -14.905,-19.789 -0.045,-1.242 0.037,-2.493 -0.07,-3.729 C 31.298,-57.875 24.708,-65.41 15.59,-64.608 4.638,-63.646 -0.129,-56.803 -0.034,-46.014 0.1,-30.677 0,-15.338 0,0 M -97.705,212.139 C 64.95,211.553 195.458,80.294 195.368,-82.621 c -0.09,-163.406 -131.643,-294.489 -294.9,-293.845 -161.506,0.637 -292.76,132.807 -292.377,294.417 0.385,162.355 132.807,294.77 294.204,294.188" /></g><g
           transform="translate(536.4169,510.3943)"
           id="g4929"><path
             id="path4931"
             style="fill:#ffffff;fill-opacity:1;fill-rule:nonzero;stroke:none"
             d="m 0,0 c -0.082,-14.261 -11.376,-25.422 -25.241,-24.945 -13.153,0.453 -24.273,11.977 -24.255,25.135 0.018,13.911 11.422,24.809 25.658,24.52 C -9.935,24.427 0.081,14.045 0,0" /></g></g></g></g></svg>