<?xml version="1.0" encoding="UTF-8"?>
<svg width="1024px" height="1024px" viewBox="0 0 1024 1024" version="1.1" xmlns="http://www.w3.org/2000/svg" xmlns:xlink="http://www.w3.org/1999/xlink">
    <!-- Generator: Sketch 46.2 (44496) - http://www.bohemiancoding.com/sketch -->
    <title>Shazam</title>
    <desc>Created with Sketch.</desc>
    <defs></defs>
    <g id="Page-1" stroke="none" stroke-width="1" fill="none" fill-rule="evenodd">
        <g id="Shazam" fill-rule="nonzero">
            <rect id="Outer" fill="#0088FF" x="92" y="92" width="840" height="840" rx="100"></rect>
            <g id="Logo" transform="translate(241.000000, 220.000000)" fill="#FFFFFF">
                <path d="M345.630497,127.041975 C463.168876,125.996372 549.817437,229.511055 541.440537,338.253752 C538.037421,382.430473 521.807177,422.163382 490.917358,454.31567 C453.221308,493.525777 414.216366,531.690281 375.473203,570.116186 C361.337184,583.970424 344.059828,587.630034 325.735359,580.310814 C307.41089,572.991594 296.939765,558.614555 294.583762,539.009501 C293.013093,526.462267 296.416209,515.222036 305.578443,506.073011 C331.756256,479.410138 357.934069,452.747265 384.111882,426.084393 C396.93901,412.752956 410.027916,399.68292 421.546154,385.567282 C447.985745,353.414994 451.650639,317.603096 433.849726,280.745595 C415.001701,242.05829 383.064769,223.237438 339.6096,224.544442 C315.526012,225.067243 295.369096,234.216268 278.353518,250.684513 C261.861496,266.629957 245.369474,283.098202 228.353895,298.520844 C211.861873,313.420685 190.396067,314.989089 172.333376,303.748858 C153.747129,292.247227 144.846672,270.028166 150.867569,249.116109 C152.17646,244.410896 154.532463,239.444282 157.6738,235.523272 C181.757388,206.769193 207.149867,179.322118 238.563242,158.410061 C271.02373,136.452401 307.41089,126.257773 345.630497,127.041975 Z" id="Shape"></path>
                <path d="M194.415243,456.99558 C79.7175205,457.780474 -7.80807667,353.912853 0.552577386,245.33587 C3.9490931,202.68997 18.8415081,163.96854 47.8425269,132.834417 C84.4203884,93.589724 123.088413,56.1764502 160.972627,18.2399138 C165.152954,14.0538132 169.855822,10.6526065 174.81996,7.51303104 C193.631432,-3.99874552 212.965444,-2.16732652 230.209293,12.2223942 C245.101709,24.7806959 251.633469,48.0658803 243.795356,65.8568077 C240.921381,72.6592212 235.434702,78.6767407 230.209293,84.1709977 C197.550489,117.659802 164.630413,151.148607 132.232879,184.637411 C119.169357,197.980607 107.673457,212.370328 101.925508,230.946149 C82.8527657,291.906238 129.358904,363.331579 201.208275,359.668741 C224.983885,358.360585 245.362979,350.511646 262.606828,334.028875 C279.066866,318.069367 295.265633,301.848227 312.509482,286.15035 C328.969519,271.237367 349.087343,269.144317 366.853733,279.347937 C385.142664,289.551557 395.070941,309.697166 391.151884,330.627669 C389.845532,337.168451 386.971557,344.232496 382.79123,349.20349 C358.75435,377.7213 333.149847,405.192585 302.058664,426.384719 C269.66113,448.361747 233.083268,456.733948 194.415243,456.99558 Z" id="Shape"></path>
            </g>
        </g>
    </g>
</svg>