<?xml version="1.0" encoding="UTF-8" standalone="no"?>
<svg
   xmlns:dc="http://purl.org/dc/elements/1.1/"
   xmlns:cc="http://creativecommons.org/ns#"
   xmlns:rdf="http://www.w3.org/1999/02/22-rdf-syntax-ns#"
   xmlns:svg="http://www.w3.org/2000/svg"
   xmlns="http://www.w3.org/2000/svg"
   viewBox="0 0 1365.3333 1365.3333"
   height="1365.3333"
   width="1365.3333"
   xml:space="preserve"
   id="svg4933"
   version="1.1"><metadata
     id="metadata4939"><rdf:RDF><cc:Work
         rdf:about=""><dc:format>image/svg+xml</dc:format><dc:type
           rdf:resource="http://purl.org/dc/dcmitype/StillImage" /><dc:title></dc:title></cc:Work></rdf:RDF></metadata><defs
     id="defs4937"><clipPath
       id="clipPath4949"
       clipPathUnits="userSpaceOnUse"><path
         id="path4947"
         d="M 0,1024 H 1024 V 0 H 0 Z" /></clipPath><clipPath
       id="clipPath4965"
       clipPathUnits="userSpaceOnUse"><path
         id="path4963"
         d="M 0,1024 H 1024 V 0 H 0 Z" /></clipPath><clipPath
       id="clipPath4973"
       clipPathUnits="userSpaceOnUse"><path
         id="path4971"
         d="M 91,933 H 934 V 90 H 91 Z" /></clipPath><clipPath
       id="clipPath4989"
       clipPathUnits="userSpaceOnUse"><path
         id="path4987"
         d="M 0,1024 H 1024 V 0 H 0 Z" /></clipPath><clipPath
       id="clipPath4997"
       clipPathUnits="userSpaceOnUse"><path
         id="path4995"
         d="M 222.622,802.118 H 801 V 222.498 H 222.622 Z" /></clipPath></defs><g
     transform="matrix(1.3333333,0,0,-1.3333333,0,1365.3333)"
     id="g4941"><g
       id="g4943"><g
         clip-path="url(#clipPath4949)"
         id="g4945"><g
           transform="translate(834,933)"
           id="g4951"><path
             id="path4953"
             style="fill:#fff100;fill-opacity:1;fill-rule:nonzero;stroke:none"
             d="m 0,0 h -643 c -55.229,0 -100,-44.771 -100,-100 v -643 c 0,-55.229 44.771,-100 100,-100 H 0 c 55.229,0 100,44.771 100,100 v 643 C 100,-44.771 55.229,0 0,0" /></g><g
           transform="translate(736,805)"
           id="g4955"><path
             id="path4957"
             style="fill:#ec1c23;fill-opacity:1;fill-rule:nonzero;stroke:none"
             d="m 0,0 h -447 c -38.66,0 -70,-31.34 -70,-70 v -447 c 0,-38.66 31.34,-70 70,-70 H 0 c 38.66,0 70,31.34 70,70 V -70 C 70,-31.34 38.66,0 0,0" /></g></g></g><g
       id="g4959"><g
         clip-path="url(#clipPath4965)"
         id="g4961"><g
           id="g4967"><g
             id="g4969" /><g
             id="g4981"><g
               id="g4979"
               clip-path="url(#clipPath4973)"><g
                 id="g4977"
                 transform="translate(834,933)"><path
                   id="path4975"
                   style="fill:#ffffff;fill-opacity:1;fill-rule:nonzero;stroke:none"
                   d="m 0,0 h -643 c -55.229,0 -100,-44.771 -100,-100 v -643 c 0,-55.229 44.771,-100 100,-100 H 0 c 55.229,0 100,44.771 100,100 v 643 C 100,-44.771 55.229,0 0,0" /></g></g></g></g></g></g><g
       id="g4983"><g
         clip-path="url(#clipPath4989)"
         id="g4985"><g
           id="g4991"><g
             id="g4993" /><g
             id="g5005"><g
               id="g5003"
               clip-path="url(#clipPath4997)"><g
                 id="g5001"
                 transform="translate(579,449)"><path
                   id="path4999"
                   style="fill:#4389c9;fill-opacity:1;fill-rule:evenodd;stroke:none"
                   d="m 0,0 c -24,14 -125,67 -162,85 -37,18 -64,33 -90,77 -26,44 -20,107 -20,107 -157,-174 -53,-349 -20,-390 33,-41 108,-105 218.5,-105.5 C 37,-227 71,-131 69,-87 67,-43 24,-14 0,0 m 222,71 c -5,193 -175,279 -271,282 -96,3 -121,-52 -124,-95 -3,-43 39,-80 65,-93 26,-13 144,-75 163,-85 19,-10 48,-25 70,-50 50,-55 43,-136 43,-136 31,48 52,80 54,177" /></g></g></g></g></g></g></g></svg>