<?xml version="1.0" encoding="UTF-8"?>
<svg width="1024px" height="1024px" viewBox="0 0 1024 1024" version="1.1" xmlns="http://www.w3.org/2000/svg" xmlns:xlink="http://www.w3.org/1999/xlink">
    <!-- Generator: Sketch 46.2 (44496) - http://www.bohemiancoding.com/sketch -->
    <title>Siri</title>
    <desc>Created with Sketch.</desc>
    <defs></defs>
    <g id="Page-1" stroke="none" stroke-width="1" fill="none" fill-rule="evenodd">
        <g id="Siri">
            <rect id="Outer" fill="#090F28" fill-rule="nonzero" x="92" y="92" width="840" height="840" rx="100"></rect>
            <g id="Waves" transform="translate(92.000000, 438.000000)">
                <path d="M-7.95807864e-13,71.9901853 C67.0941951,94.4634969 124.644126,141.757082 187.394117,139.412876 C293.301078,134.796007 349.356838,1.31682834 411.665994,0.0418573578 C464.949793,-1.96211278 529.077295,68.6520977 657.556029,69.7273666 C721.665014,69.7273666 732.538016,49.660475 819.78604,52.8603432 C827.288936,53.1355159 833.864442,53.6161427 840,54.2538681 L840,95.2145359 C834.616659,95.6654709 828.660507,95.9233008 821.470389,95.9345663 C764.863628,96.0232579 698.826578,80.9878789 657.556029,80.9878789 C510.449645,80.9878789 483.951868,149 419.5,149 C334.562463,149 300.760778,9.87199519 189.078466,9.87199519 C125.133268,9.87199519 64.4144779,55.1103132 1.31450406e-13,77.6090909 L-6.75461867e-14,71.9901853 L-7.95807864e-13,71.9901853 Z" id="Blue" fill="#019AEA" style="mix-blend-mode: lighten;"></path>
                <path d="M5.17275112e-12,55.66739 C36.031222,42.8036439 71.0164925,27.1714594 97.5619215,27.1714594 C196.034018,27.1714594 266.960065,117.602938 339.415854,117.602938 C425.913907,117.602938 508.419393,8 578.639636,8 C654.835838,8 727.756999,70.6248331 805.613695,70.6248331 C821.218624,70.6248331 831.971187,70.1609826 840,69.4723343 L840,78.594952 C830.219104,76.9247805 819.346206,75.6258855 805.613695,75.6258855 C745.045143,75.6258855 652.49519,139 578.639636,139 C510.346602,139 422.484631,30.13497 339.415854,30.13497 C256.347076,30.13497 203.946442,119.278382 97.5619215,119.278382 C65.9550329,119.278382 34.7155612,103.466529 0,90.8754879 L5.1159077e-12,55.66739 L5.17275112e-12,55.66739 Z" id="Red" fill="#F70086" style="mix-blend-mode: lighten;"></path>
                <path d="M840,54.5503753 L840,90.8847926 C712.185748,110.454853 725.753807,141 637.374464,141 C564.691557,141 485.965252,37.3543069 437.770664,37.3543069 C373.817463,37.3543069 277.828848,109.318515 166.113411,109.318515 C57.0230762,109.318515 87.2531701,95.9511344 1.31421984e-10,85.9306866 L0,61.8239946 C97.8645889,50.9069285 67.1678407,37.3543069 166.113411,37.3543069 C274.853246,37.3543069 368.374908,109.318515 437.770664,109.318515 C499.590714,109.318515 556.772512,7 642.98233,7 C720.974988,7 706.991096,34.40367 840,54.5503753 L840,54.5503753 Z" id="Green" fill="#00FFEF" fill-rule="nonzero" style="mix-blend-mode: lighten;"></path>
            </g>
        </g>
    </g>
</svg>