<?xml version="1.0" encoding="UTF-8" standalone="no"?>
<svg
   xmlns:dc="http://purl.org/dc/elements/1.1/"
   xmlns:cc="http://creativecommons.org/ns#"
   xmlns:rdf="http://www.w3.org/1999/02/22-rdf-syntax-ns#"
   xmlns:svg="http://www.w3.org/2000/svg"
   xmlns="http://www.w3.org/2000/svg"
   viewBox="0 0 1365.3333 1365.3333"
   height="1365.3333"
   width="1365.3333"
   xml:space="preserve"
   id="svg5089"
   version="1.1"><metadata
     id="metadata5095"><rdf:RDF><cc:Work
         rdf:about=""><dc:format>image/svg+xml</dc:format><dc:type
           rdf:resource="http://purl.org/dc/dcmitype/StillImage" /><dc:title></dc:title></cc:Work></rdf:RDF></metadata><defs
     id="defs5093"><clipPath
       id="clipPath5105"
       clipPathUnits="userSpaceOnUse"><path
         id="path5103"
         d="M 0,1024 H 1024 V 0 H 0 Z" /></clipPath><clipPath
       id="clipPath5117"
       clipPathUnits="userSpaceOnUse"><path
         id="path5115"
         d="M 0,1024 H 1024 V 0 H 0 Z" /></clipPath><clipPath
       id="clipPath5133"
       clipPathUnits="userSpaceOnUse"><path
         id="path5131"
         d="M 191,934 C 135.771,934 91,889.229 91,834 v 0 -643 C 91,135.771 135.771,91 191,91 v 0 h 643 c 55.229,0 100,44.771 100,100 v 0 643 c 0,55.229 -44.771,100 -100,100 v 0 z" /></clipPath><clipPath
       id="clipPath5167"
       clipPathUnits="userSpaceOnUse"><path
         id="path5165"
         d="M 91,435 V 191 C 91,135.771 135.771,91 191,91 v 0 h 643 c 50.408,0 92.106,37.301 99,85.804 v 0 V 435 Z" /></clipPath><clipPath
       id="clipPath5183"
       clipPathUnits="userSpaceOnUse"><path
         id="path5181"
         d="M 191,934 C 135.771,934 91,889.229 91,834 v 0 -643 C 91,135.771 135.771,91 191,91 v 0 h 643 c 55.229,0 100,44.771 100,100 v 0 643 c 0,55.229 -44.771,100 -100,100 v 0 z" /></clipPath></defs><g
     transform="matrix(1.3333333,0,0,-1.3333333,0,1365.3333)"
     id="g5097"><g
       id="g5099"><g
         clip-path="url(#clipPath5105)"
         id="g5101"><g
           transform="translate(805,288)"
           id="g5107"><path
             id="path5109"
             style="fill:#ed1c24;fill-opacity:1;fill-rule:nonzero;stroke:none"
             d="m 0,0 c 0,-38.66 -31.34,-70 -70,-70 h -447 c -38.66,0 -70,31.34 -70,70 v 447 c 0,38.66 31.34,70 70,70 h 447 c 38.66,0 70,-31.34 70,-70 z" /></g></g></g><g
       id="g5111"><g
         clip-path="url(#clipPath5117)"
         id="g5113"><g
           transform="translate(190,111)"
           id="g5119"><path
             id="path5121"
             style="fill:#aa2f29;fill-opacity:1;fill-rule:nonzero;stroke:none"
             d="m 0,0 c -44.112,0 -80,35.888 -80,80 v 643 c 0,44.112 35.888,80 80,80 h 643 c 44.112,0 80,-35.888 80,-80 V 80 C 723,35.888 687.112,0 643,0 Z" /></g><g
           transform="translate(833,934)"
           id="g5123"><path
             id="path5125"
             style="fill:#c0392b;fill-opacity:1;fill-rule:nonzero;stroke:none"
             d="m 0,0 h -643 c -55.228,0 -100,-44.772 -100,-100 v -643 c 0,-55.228 44.772,-100 100,-100 H 0 c 55.228,0 100,44.772 100,100 v 643 C 100,-44.772 55.228,0 0,0 m 0,-40 c 33.084,0 60,-26.916 60,-60 v -643 c 0,-33.084 -26.916,-60 -60,-60 h -643 c -33.084,0 -60,26.916 -60,60 v 643 c 0,33.084 26.916,60 60,60 H 0" /></g></g></g><g
       id="g5127"><g
         clip-path="url(#clipPath5133)"
         id="g5129"><g
           transform="translate(801.25,680)"
           id="g5135"><path
             id="path5137"
             style="fill:#e38b26;fill-opacity:1;fill-rule:nonzero;stroke:none"
             d="M 0,0 -288.5,-430 -580,0 l 100,116 90,29 h 200 l 90,-29 z" /></g><g
           transform="translate(512.75,250)"
           id="g5139"><path
             id="path5141"
             style="fill:#ecc13e;fill-opacity:1;fill-rule:nonzero;stroke:none"
             d="m 0,0 -191.5,378 h 380 z" /></g><g
           transform="translate(321.25,628)"
           id="g5143"><path
             id="path5145"
             style="fill:#faea98;fill-opacity:1;fill-rule:nonzero;stroke:none"
             d="M 0,0 H 380 L 310,130 H 70 Z" /></g><g
           transform="translate(391.25,758)"
           id="g5147"><path
             id="path5149"
             style="fill:#fdfaca;fill-opacity:1;fill-rule:nonzero;stroke:none"
             d="M 0,0 -70,38 20,67 H 220 L 310,38 240,0 Z" /></g><g
           transform="translate(221.25,680)"
           id="g5151"><path
             id="path5153"
             style="fill:#f5d563;fill-opacity:1;fill-rule:nonzero;stroke:none"
             d="M 0,0 100,116 170,78 100,-52 Z" /></g><g
           transform="translate(631.25,758)"
           id="g5155"><path
             id="path5157"
             style="fill:#f5d563;fill-opacity:1;fill-rule:nonzero;stroke:none"
             d="M 0,0 70,38 170,-78 70,-130 Z" /></g><path
           id="path5159"
           style="fill:#c0392b;fill-opacity:1;fill-rule:nonzero;stroke:none"
           d="M 933,91 H 90.024 V 435 H 933 Z" /></g></g><g
       id="g5161"><g
         clip-path="url(#clipPath5167)"
         id="g5163"><g
           transform="translate(290.25,357.0015)"
           id="g5169"><path
             id="path5171"
             style="fill:#ecc13e;fill-opacity:1;fill-rule:nonzero;stroke:none"
             d="m 0,0 h -38 c -6.6,0 -12,5.4 -12,12 v 67.999 c 0,6.6 5.4,12 12,12 H 0 c 6.6,0 12,-5.4 12,-12 V 12 C 12,5.4 6.6,0 0,0" /></g><g
           transform="translate(770.25,357.0015)"
           id="g5173"><path
             id="path5175"
             style="fill:#ecc13e;fill-opacity:1;fill-rule:nonzero;stroke:none"
             d="m 0,0 h -38 c -6.6,0 -12,5.4 -12,12 v 67.999 c 0,6.6 5.4,12 12,12 H 0 c 6.6,0 12,-5.4 12,-12 V 12 C 12,5.4 6.6,0 0,0" /></g></g></g><g
       id="g5177"><g
         clip-path="url(#clipPath5183)"
         id="g5179"><g
           transform="translate(291.3436,887.1177)"
           id="g5185"><path
             id="path5187"
             style="fill:#ecc13e;fill-opacity:1;fill-rule:nonzero;stroke:none"
             d="m 0,0 h -38 c -6.6,0 -12,5.4 -12,12 v 38 c 0,6.6 5.4,12 12,12 H 0 C 6.6,62 12,56.6 12,50 V 12 C 12,5.4 6.6,0 0,0" /></g><g
           transform="translate(771.1711,886.9719)"
           id="g5189"><path
             id="path5191"
             style="fill:#ecc13e;fill-opacity:1;fill-rule:nonzero;stroke:none"
             d="m 0,0 h -38 c -6.6,0 -12,5.4 -12,12 v 38 c 0,6.6 5.4,12 12,12 H 0 C 6.6,62 12,56.6 12,50 V 12 C 12,5.4 6.6,0 0,0" /></g></g></g></g></svg>