<?xml version="1.0" encoding="UTF-8" standalone="no"?>
<svg
   xmlns:dc="http://purl.org/dc/elements/1.1/"
   xmlns:cc="http://creativecommons.org/ns#"
   xmlns:rdf="http://www.w3.org/1999/02/22-rdf-syntax-ns#"
   xmlns:svg="http://www.w3.org/2000/svg"
   xmlns="http://www.w3.org/2000/svg"
   viewBox="0 0 1365.3333 1365.3333"
   height="1365.3333"
   width="1365.3333"
   xml:space="preserve"
   id="svg5007"
   version="1.1"><metadata
     id="metadata5013"><rdf:RDF><cc:Work
         rdf:about=""><dc:format>image/svg+xml</dc:format><dc:type
           rdf:resource="http://purl.org/dc/dcmitype/StillImage" /><dc:title></dc:title></cc:Work></rdf:RDF></metadata><defs
     id="defs5011"><clipPath
       id="clipPath5023"
       clipPathUnits="userSpaceOnUse"><path
         id="path5021"
         d="M 0,1024 H 1024 V 0 H 0 Z" /></clipPath><clipPath
       id="clipPath5059"
       clipPathUnits="userSpaceOnUse"><path
         id="path5057"
         d="M 0,1024 H 1024 V 0 H 0 Z" /></clipPath></defs><g
     transform="matrix(1.3333333,0,0,-1.3333333,0,1365.3333)"
     id="g5015"><g
       id="g5017"><g
         clip-path="url(#clipPath5023)"
         id="g5019"><g
           transform="translate(805,288)"
           id="g5025"><path
             id="path5027"
             style="fill:#ed1c24;fill-opacity:1;fill-rule:nonzero;stroke:none"
             d="m 0,0 c 0,-38.66 -31.34,-70 -70,-70 h -447 c -38.66,0 -70,31.34 -70,70 v 447 c 0,38.66 31.34,70 70,70 h 447 c 38.66,0 70,-31.34 70,-70 z" /></g></g></g><g
       transform="translate(800,654)"
       id="g5029"><path
         id="path5031"
         style="fill:none;stroke:#231f20;stroke-width:26;stroke-linecap:butt;stroke-linejoin:round;stroke-miterlimit:10;stroke-dasharray:none;stroke-opacity:1"
         d="M 0,0 -288.5,-430 -580,0 -480,-52 h 380 z" /></g><g
       transform="translate(511.5,224)"
       id="g5033"><path
         id="path5035"
         style="fill:none;stroke:#231f20;stroke-width:26;stroke-linecap:butt;stroke-linejoin:round;stroke-miterlimit:10;stroke-dasharray:none;stroke-opacity:1"
         d="m 0,0 -191.5,378 h 380 z" /></g><g
       transform="translate(320,602)"
       id="g5037"><path
         id="path5039"
         style="fill:none;stroke:#231f20;stroke-width:26;stroke-linecap:butt;stroke-linejoin:round;stroke-miterlimit:10;stroke-dasharray:none;stroke-opacity:1"
         d="M 0,0 H 380 L 310,130 H 70 Z" /></g><g
       transform="translate(390,732)"
       id="g5041"><path
         id="path5043"
         style="fill:none;stroke:#231f20;stroke-width:26;stroke-linecap:butt;stroke-linejoin:round;stroke-miterlimit:10;stroke-dasharray:none;stroke-opacity:1"
         d="M 0,0 -70,38 20,67 H 220 L 310,38 240,0 Z" /></g><g
       transform="translate(220,654)"
       id="g5045"><path
         id="path5047"
         style="fill:none;stroke:#231f20;stroke-width:26;stroke-linecap:butt;stroke-linejoin:round;stroke-miterlimit:10;stroke-dasharray:none;stroke-opacity:1"
         d="M 0,0 100,116 170,78 100,-52 Z" /></g><g
       transform="translate(630,732)"
       id="g5049"><path
         id="path5051"
         style="fill:none;stroke:#231f20;stroke-width:26;stroke-linecap:butt;stroke-linejoin:round;stroke-miterlimit:10;stroke-dasharray:none;stroke-opacity:1"
         d="M 0,0 70,38 170,-78 70,-130 Z" /></g><g
       id="g5053"><g
         clip-path="url(#clipPath5059)"
         id="g5055"><g
           transform="translate(933,190)"
           id="g5061"><path
             id="path5063"
             style="fill:#061524;fill-opacity:1;fill-rule:nonzero;stroke:none"
             d="m 0,0 c 0,-55.229 -44.771,-100 -100,-100 h -643 c -55.229,0 -100,44.771 -100,100 v 643 c 0,55.229 44.771,100 100,100 h 643 C -44.771,743 0,698.229 0,643 Z" /></g></g></g><g
       transform="translate(800,654)"
       id="g5065"><path
         id="path5067"
         style="fill:#e38b26;fill-opacity:1;fill-rule:nonzero;stroke:none"
         d="M 0,0 -288.5,-430 -580,0 l 100,116 90,29 h 200 l 90,-29 z" /></g><g
       transform="translate(511.5,224)"
       id="g5069"><path
         id="path5071"
         style="fill:#ecc13e;fill-opacity:1;fill-rule:nonzero;stroke:none"
         d="m 0,0 -191.5,378 h 380 z" /></g><g
       transform="translate(320,602)"
       id="g5073"><path
         id="path5075"
         style="fill:#faea98;fill-opacity:1;fill-rule:nonzero;stroke:none"
         d="M 0,0 H 380 L 310,130 H 70 Z" /></g><g
       transform="translate(390,732)"
       id="g5077"><path
         id="path5079"
         style="fill:#fdfaca;fill-opacity:1;fill-rule:nonzero;stroke:none"
         d="M 0,0 -70,38 20,67 H 220 L 310,38 240,0 Z" /></g><g
       transform="translate(220,654)"
       id="g5081"><path
         id="path5083"
         style="fill:#f5d563;fill-opacity:1;fill-rule:nonzero;stroke:none"
         d="M 0,0 100,116 170,78 100,-52 Z" /></g><g
       transform="translate(630,732)"
       id="g5085"><path
         id="path5087"
         style="fill:#f5d563;fill-opacity:1;fill-rule:nonzero;stroke:none"
         d="M 0,0 70,38 170,-78 70,-130 Z" /></g></g></svg>