<?xml version="1.0" encoding="UTF-8" standalone="no"?>
<svg
   xmlns:dc="http://purl.org/dc/elements/1.1/"
   xmlns:cc="http://creativecommons.org/ns#"
   xmlns:rdf="http://www.w3.org/1999/02/22-rdf-syntax-ns#"
   xmlns:svg="http://www.w3.org/2000/svg"
   xmlns="http://www.w3.org/2000/svg"
   viewBox="0 0 1365.3333 1365.3333"
   height="1365.3333"
   width="1365.3333"
   xml:space="preserve"
   id="svg5281"
   version="1.1"><metadata
     id="metadata5287"><rdf:RDF><cc:Work
         rdf:about=""><dc:format>image/svg+xml</dc:format><dc:type
           rdf:resource="http://purl.org/dc/dcmitype/StillImage" /><dc:title></dc:title></cc:Work></rdf:RDF></metadata><defs
     id="defs5285"><clipPath
       id="clipPath5297"
       clipPathUnits="userSpaceOnUse"><path
         id="path5295"
         d="M 0,1024 H 1024 V 0 H 0 Z" /></clipPath></defs><g
     transform="matrix(1.3333333,0,0,-1.3333333,0,1365.3333)"
     id="g5289"><g
       id="g5291"><g
         clip-path="url(#clipPath5297)"
         id="g5293"><g
           transform="translate(933,190)"
           id="g5299"><path
             id="path5301"
             style="fill:#00a4e6;fill-opacity:1;fill-rule:nonzero;stroke:none"
             d="m 0,0 c 0,-55.229 -44.771,-100 -100,-100 h -643 c -55.229,0 -100,44.771 -100,100 v 643 c 0,55.229 44.771,100 100,100 h 643 C -44.771,743 0,698.229 0,643 Z" /></g><g
           transform="translate(241.3335,560.666)"
           id="g5303"><path
             id="path5305"
             style="fill:#ffffff;fill-opacity:1;fill-rule:nonzero;stroke:none"
             d="m 0,0 c 0,0 -37.833,62.834 -14.333,126.334 23.5,63.5 76.667,116.666 154,116.666 53,-0.333 82.666,-21 82.666,-21 0,0 19.334,4.834 50.334,4.834 31,0 174,-5.5 251,-161.5 37,-77 25.5,-142.5 21,-165.5 0,0 58.999,-98.835 -25.001,-192.168 -46.667,-49.333 -135.333,-68.666 -197.333,-29.333 0,0 -119.333,-24.001 -211.333,45.999 C 19,-205.668 -15.666,-106.332 0,0" /></g><g
           transform="translate(514,686.334)"
           id="g5307"><path
             id="path5309"
             style="fill:#00a4e6;fill-opacity:1;fill-rule:nonzero;stroke:none"
             d="m 0,0 c 11.666,0 80.667,-3.667 119,-52.333 7.333,-11 16,-34.667 -3,-48.334 -12.833,-9.501 -29.666,-11.667 -43.333,-2.001 C 59,-93.001 52.835,-74.833 31.501,-66.5 c -21.334,8.333 -57.834,9.999 -73.668,1.332 -15.833,-8.667 -22.666,-18.501 -22.666,-32.334 0,-13.834 6.083,-27.332 55.833,-37.832 C 40.75,-145.834 75.666,-151 101.333,-168 127,-185.001 141,-210.333 141,-246 c 0,-35.667 -18.332,-72.997 -59.332,-89.664 -41,-16.667 -96.666,-22.668 -148.666,-6.001 -32.667,9.667 -56,28.667 -64,43 -8,14.333 -20.667,43.334 3.333,58.667 15.333,9.333 35.667,4.666 46,-7.334 10.333,-12 31.33,-47.999 79.665,-47.999 48.335,0 65.668,25.333 65.668,44.333 0,19 -10.666,30.999 -60.333,41.999 -49.667,11 -90.334,20 -111.334,37 -21,17 -32.001,34.666 -32.001,67.666 C -140,-71.333 -124.999,0 0,0" /></g></g></g></g></svg>