<?xml version="1.0" encoding="UTF-8" standalone="no"?>
<svg
   xmlns:dc="http://purl.org/dc/elements/1.1/"
   xmlns:cc="http://creativecommons.org/ns#"
   xmlns:rdf="http://www.w3.org/1999/02/22-rdf-syntax-ns#"
   xmlns:svg="http://www.w3.org/2000/svg"
   xmlns="http://www.w3.org/2000/svg"
   viewBox="0 0 1365.3333 1365.3333"
   height="1365.3333"
   width="1365.3333"
   xml:space="preserve"
   id="svg2"
   version="1.1"><metadata
     id="metadata8"><rdf:RDF><cc:Work
         rdf:about=""><dc:format>image/svg+xml</dc:format><dc:type
           rdf:resource="http://purl.org/dc/dcmitype/StillImage" /><dc:title></dc:title></cc:Work></rdf:RDF></metadata><defs
     id="defs6"><clipPath
       id="clipPath18"
       clipPathUnits="userSpaceOnUse"><path
         id="path16"
         d="M 0,1024 H 1024 V 0 H 0 Z" /></clipPath></defs><g
     transform="matrix(1.3333333,0,0,-1.3333333,0,1365.3333)"
     id="g10"><g
       id="g12"><g
         clip-path="url(#clipPath18)"
         id="g14"><g
           transform="translate(933,190)"
           id="g20"><path
             id="path22"
             style="fill:#dd2618;fill-opacity:1;fill-rule:nonzero;stroke:none"
             d="M 0,0 V 233.15 L -128.458,186.995 -34.212,-75.308 C -13.246,-56.978 0,-30.037 0,0" /></g><g
           transform="translate(111.5396,127.999)"
           id="g24"><path
             id="path26"
             style="fill:#541557;fill-opacity:1;fill-rule:nonzero;stroke:none"
             d="m 0,0 c 18.315,-23.146 46.652,-37.999 78.46,-37.999 h 261.8 l -50.996,141.932 z" /></g><g
           transform="translate(898.7881,114.6924)"
           id="g28"><path
             id="path30"
             style="fill:#ee3c99;fill-opacity:1;fill-rule:nonzero;stroke:none"
             d="m 0,0 -94.246,262.303 -403.739,-145.064 50.997,-141.931 h 381.2 c 25.191,0 48.204,9.318 65.788,24.692" /></g><g
           transform="translate(923.4932,875.5952)"
           id="g32"><path
             id="path34"
             style="fill:#b4c581;fill-opacity:1;fill-rule:nonzero;stroke:none"
             d="m 0,0 c -15.996,33.924 -50.5,57.405 -90.493,57.405 h -228.232 l 54.71,-152.266 z" /></g><g
           transform="translate(90,833)"
           id="g36"><path
             id="path38"
             style="fill:#59bca9;fill-opacity:1;fill-rule:nonzero;stroke:none"
             d="M 0,0 V -256.88 L 165.74,-197.33 61.648,92.375 C 25.454,77.332 0,41.641 0,0" /></g><g
           transform="translate(604.7686,933)"
           id="g40"><path
             id="path42"
             style="fill:#b8e7ef;fill-opacity:1;fill-rule:nonzero;stroke:none"
             d="m 0,0 h -414.769 c -13.587,0 -26.54,-2.715 -38.351,-7.625 L -349.029,-297.33 54.71,-152.266 Z" /></g><g
           transform="translate(90,576.1201)"
           id="g44"><path
             id="path46"
             style="fill:#5bd0b3;fill-opacity:1;fill-rule:nonzero;stroke:none"
             d="m 0,0 v -386.12 c 0,-23.421 8.054,-44.958 21.54,-62.001 L 310.803,-344.188 165.74,59.55 Z" /></g><g
           transform="translate(933,423.1504)"
           id="g48"><path
             id="path50"
             style="fill:#f0c856;fill-opacity:1;fill-rule:nonzero;stroke:none"
             d="m 0,0 v 409.85 c 0,15.235 -3.413,29.671 -9.507,42.595 l -264.014,-94.861 145.063,-403.739 z" /></g><g
           transform="translate(659.4785,780.7344)"
           id="g52"><path
             id="path54"
             style="fill:#ffffff;fill-opacity:1;fill-rule:nonzero;stroke:none"
             d="m 0,0 -403.739,-145.064 145.064,-403.739 403.738,145.064 z" /></g></g></g><text
       id="text58"
       style="font-variant:normal;font-weight:bold;font-stretch:normal;font-size:470px;font-family:'Myriad Pro';-inkscape-font-specification:MyriadPro-Bold;writing-mode:lr-tb;fill:#654663;fill-opacity:1;fill-rule:nonzero;stroke:none"
       transform="matrix(1,0,0,-1,400,342.3037)"><tspan
         id="tspan56"
         y="0"
         x="0">S</tspan></text>
</g></svg>