<?xml version="1.0" encoding="UTF-8" standalone="no"?>
<svg
   xmlns:dc="http://purl.org/dc/elements/1.1/"
   xmlns:cc="http://creativecommons.org/ns#"
   xmlns:rdf="http://www.w3.org/1999/02/22-rdf-syntax-ns#"
   xmlns:svg="http://www.w3.org/2000/svg"
   xmlns="http://www.w3.org/2000/svg"
   xmlns:sodipodi="http://sodipodi.sourceforge.net/DTD/sodipodi-0.dtd"
   xmlns:inkscape="http://www.inkscape.org/namespaces/inkscape"
   viewBox="0 0 1365.3333 1365.3333"
   height="1365.3333"
   width="1365.3333"
   xml:space="preserve"
   id="svg2"
   version="1.1"
   inkscape:version="0.91 r13725"
   sodipodi:docname="Slack.svg"><sodipodi:namedview
     pagecolor="#ffffff"
     bordercolor="#666666"
     borderopacity="1"
     objecttolerance="10"
     gridtolerance="10"
     guidetolerance="10"
     inkscape:pageopacity="0"
     inkscape:pageshadow="2"
     inkscape:window-width="718"
     inkscape:window-height="480"
     id="namedview30"
     showgrid="false"
     inkscape:zoom="0.17285157"
     inkscape:cx="682.66663"
     inkscape:cy="682.66663"
     inkscape:window-x="0"
     inkscape:window-y="0"
     inkscape:window-maximized="0"
     inkscape:current-layer="svg2" /><metadata
     id="metadata8"><rdf:RDF><cc:Work
         rdf:about=""><dc:format>image/svg+xml</dc:format><dc:type
           rdf:resource="http://purl.org/dc/dcmitype/StillImage" /><dc:title /></cc:Work></rdf:RDF></metadata><defs
     id="defs6"><clipPath
       id="clipPath18"
       clipPathUnits="userSpaceOnUse"><path
         id="path16"
         d="M 0,1024 H 1024 V 0 H 0 Z" /></clipPath></defs><g
     transform="matrix(1.3333333,0,0,-1.3333333,0,1365.3333)"
     id="g10"><g
       id="g12"><g
         clip-path="url(#clipPath18)"
         id="g14"><g
           transform="translate(933,190)"
           id="g20"><path
             id="path22"
             style="fill:#dd2618;fill-opacity:1;fill-rule:nonzero;stroke:none"
             d="M 0,0 V 233.15 L -128.458,186.995 -34.212,-75.308 C -13.246,-56.978 0,-30.037 0,0" /></g><g
           transform="translate(111.5396,127.999)"
           id="g24"><path
             id="path26"
             style="fill:#541557;fill-opacity:1;fill-rule:nonzero;stroke:none"
             d="m 0,0 c 18.315,-23.146 46.652,-37.999 78.46,-37.999 h 261.8 l -50.996,141.932 z" /></g><g
           transform="translate(898.7881,114.6924)"
           id="g28"><path
             id="path30"
             style="fill:#ee3c99;fill-opacity:1;fill-rule:nonzero;stroke:none"
             d="m 0,0 -94.246,262.303 -403.739,-145.064 50.997,-141.931 h 381.2 c 25.191,0 48.204,9.318 65.788,24.692" /></g><g
           transform="translate(923.4932,875.5952)"
           id="g32"><path
             id="path34"
             style="fill:#b4c581;fill-opacity:1;fill-rule:nonzero;stroke:none"
             d="m 0,0 c -15.996,33.924 -50.5,57.405 -90.493,57.405 h -228.232 l 54.71,-152.266 z" /></g><g
           transform="translate(90,833)"
           id="g36"><path
             id="path38"
             style="fill:#59bca9;fill-opacity:1;fill-rule:nonzero;stroke:none"
             d="M 0,0 V -256.88 L 165.74,-197.33 61.648,92.375 C 25.454,77.332 0,41.641 0,0" /></g><g
           transform="translate(604.7686,933)"
           id="g40"><path
             id="path42"
             style="fill:#b8e7ef;fill-opacity:1;fill-rule:nonzero;stroke:none"
             d="m 0,0 h -414.769 c -13.587,0 -26.54,-2.715 -38.351,-7.625 L -349.029,-297.33 54.71,-152.266 Z" /></g><g
           transform="translate(90,576.1201)"
           id="g44"><path
             id="path46"
             style="fill:#5bd0b3;fill-opacity:1;fill-rule:nonzero;stroke:none"
             d="m 0,0 v -386.12 c 0,-23.421 8.054,-44.958 21.54,-62.001 L 310.803,-344.188 165.74,59.55 Z" /></g><g
           transform="translate(933,423.1504)"
           id="g48"><path
             id="path50"
             style="fill:#f0c856;fill-opacity:1;fill-rule:nonzero;stroke:none"
             d="m 0,0 v 409.85 c 0,15.235 -3.413,29.671 -9.507,42.595 l -264.014,-94.861 145.063,-403.739 z" /></g><g
           transform="translate(659.4785,780.7344)"
           id="g52"><path
             id="path54"
             style="fill:#ffffff;fill-opacity:1;fill-rule:nonzero;stroke:none"
             d="m 0,0 -403.739,-145.064 145.064,-403.739 403.738,145.064 z" /></g></g></g><g
       transform="matrix(1,0,0,-1,400,342.3037)"
       style="font-variant:normal;font-weight:bold;font-stretch:normal;font-size:470px;font-family:'Myriad Pro';-inkscape-font-specification:MyriadPro-Bold;writing-mode:lr-tb;fill:#654663;fill-opacity:1;fill-rule:nonzero;stroke:none"
       id="text58"><path
         d="m 281.58691,-331.8457 0,72.51953 q -28.22754,-12.62207 -55.07812,-19.04785 -26.85059,-6.42578 -50.71777,-6.42578 -31.66993,0 -46.81641,8.7207 -15.14648,8.7207 -15.14648,27.08008 0,13.76953 10.09765,21.57226 10.32715,7.57324 37.17774,13.08106 l 37.63671,7.57324 q 57.14356,11.47461 81.24024,34.88281 24.09668,23.4082 24.09668,66.55274 0,56.684566 -33.73535,84.453121 -33.50586,27.5390624 -102.58301,27.5390624 -32.58789,0 -65.40527,-6.19628902 Q 69.536133,-5.7373047 36.71875,-17.900391 l 0,-74.584961 q 32.817383,17.441407 63.33984,26.391602 30.75196,8.720703 59.20899,8.720703 28.91601,0 44.29199,-9.638672 15.37598,-9.638672 15.37598,-27.539062 0,-16.064449 -10.55664,-24.785159 -10.32715,-8.7207 -41.53809,-15.60547 l -34.19434,-7.57324 q -51.406246,-11.01562 -75.273433,-35.1123 -23.637695,-24.09668 -23.637695,-64.94629 0,-51.17676 33.046875,-78.71582 33.046875,-27.53906 95.009763,-27.53906 28.22754,0 58.06153,4.36035 29.83398,4.13086 61.73339,12.62207 z"
         style=""
         id="path3359" /></g></g></svg>