<?xml version="1.0" encoding="UTF-8" standalone="no"?>
<svg
   xmlns:dc="http://purl.org/dc/elements/1.1/"
   xmlns:cc="http://creativecommons.org/ns#"
   xmlns:rdf="http://www.w3.org/1999/02/22-rdf-syntax-ns#"
   xmlns:svg="http://www.w3.org/2000/svg"
   xmlns="http://www.w3.org/2000/svg"
   viewBox="0 0 1365.3333 1365.3333"
   height="1365.3333"
   width="1365.3333"
   xml:space="preserve"
   id="svg4535"
   version="1.1"><metadata
     id="metadata4541"><rdf:RDF><cc:Work
         rdf:about=""><dc:format>image/svg+xml</dc:format><dc:type
           rdf:resource="http://purl.org/dc/dcmitype/StillImage" /><dc:title></dc:title></cc:Work></rdf:RDF></metadata><defs
     id="defs4539"><clipPath
       id="clipPath4551"
       clipPathUnits="userSpaceOnUse"><path
         id="path4549"
         d="M 0,1024 H 1024 V 0 H 0 Z" /></clipPath><clipPath
       id="clipPath4563"
       clipPathUnits="userSpaceOnUse"><path
         id="path4561"
         d="M 0,1024 H 1024 V 0 H 0 Z" /></clipPath><clipPath
       id="clipPath4571"
       clipPathUnits="userSpaceOnUse"><path
         id="path4569"
         d="M 91,933 H 934 V 90 H 91 Z" /></clipPath><clipPath
       id="clipPath4587"
       clipPathUnits="userSpaceOnUse"><path
         id="path4585"
         d="M 0,1024 H 1024 V 0 H 0 Z" /></clipPath><clipPath
       id="clipPath4595"
       clipPathUnits="userSpaceOnUse"><path
         id="path4593"
         d="M 218,567 H 808 V 455 H 218 Z" /></clipPath></defs><g
     transform="matrix(1.3333333,0,0,-1.3333333,0,1365.3333)"
     id="g4543"><g
       id="g4545"><g
         clip-path="url(#clipPath4551)"
         id="g4547"><g
           transform="translate(834,933)"
           id="g4553"><path
             id="path4555"
             style="fill:#fff100;fill-opacity:1;fill-rule:nonzero;stroke:none"
             d="m 0,0 h -643 c -55.229,0 -100,-44.771 -100,-100 v -643 c 0,-55.229 44.771,-100 100,-100 H 0 c 55.229,0 100,44.771 100,100 v 643 C 100,-44.771 55.229,0 0,0" /></g></g></g><g
       id="g4557"><g
         clip-path="url(#clipPath4563)"
         id="g4559"><g
           id="g4565"><g
             id="g4567" /><g
             id="g4579"><g
               id="g4577"
               clip-path="url(#clipPath4571)"><g
                 id="g4575"
                 transform="translate(834,933)"><path
                   id="path4573"
                   style="fill:#202020;fill-opacity:1;fill-rule:nonzero;stroke:none"
                   d="m 0,0 h -643 c -55.229,0 -100,-44.771 -100,-100 v -643 c 0,-55.229 44.771,-100 100,-100 H 0 c 55.229,0 100,44.771 100,100 v 643 C 100,-44.771 55.229,0 0,0" /></g></g></g></g></g></g><g
       id="g4581"><g
         clip-path="url(#clipPath4587)"
         id="g4583"><g
           id="g4589"><g
             id="g4591" /><g
             id="g4603"><g
               id="g4601"
               clip-path="url(#clipPath4595)"><g
                 id="g4599"
                 transform="translate(540.3584,494.623)"><path
                   id="path4597"
                   style="fill:#ffffff;fill-opacity:1;fill-rule:evenodd;stroke:none"
                   d="M 0,0 C -23.847,23.723 -47.035,46.792 -70.28,69.918 V -34.845 h 15.481 V 32.384 C -31.146,8.796 -7.996,-14.29 15.496,-37.716 V 68.063 H 0 Z m -262.518,14.919 c -6.559,3.61 -13.724,6.111 -20.586,9.183 -6.088,2.724 -12.488,4.988 -18.088,8.508 -6.18,3.885 -6.496,11.036 -1.678,16.603 3.003,3.468 6.924,5.366 11.347,6.251 9.137,1.828 17.406,-0.523 25.197,-5.269 0.831,-0.507 2.322,-0.968 2.966,-0.572 3.98,2.452 7.806,5.155 11.902,7.923 -5.988,6.396 -12.917,10.496 -20.882,12.885 -2.587,0.776 -5.248,1.303 -7.876,1.946 h -10.693 c -2.404,-0.603 -4.844,-1.092 -7.205,-1.828 -12.323,-3.848 -20.871,-11.406 -23.773,-24.446 -0.063,-0.282 -0.31,-0.522 -0.472,-0.783 v -8.179 c 2.924,-13.2 12.382,-20.118 24.041,-24.787 5.245,-2.1 10.736,-3.592 15.946,-5.766 4.321,-1.803 8.693,-3.772 12.509,-6.432 6.208,-4.328 6.64,-11.601 1.326,-17.092 -5.931,-6.128 -13.589,-7.536 -21.476,-5.995 -5.119,1 -9.902,3.695 -14.868,5.541 -0.928,0.345 -2.296,0.736 -2.973,0.317 -3.896,-2.415 -7.646,-5.068 -11.71,-7.818 6.491,-6.866 14.084,-11.179 22.899,-13.44 1.707,-0.438 3.418,-0.862 5.127,-1.292 h 11.951 c 0.793,0.228 1.572,0.521 2.379,0.675 6.492,1.232 12.493,3.62 17.529,7.966 8.677,7.487 12.614,16.839 10.314,28.309 -1.58,7.884 -6.338,13.841 -13.153,17.592 m 504.912,5.892 c -5.367,2.08 -10.943,3.631 -16.248,5.842 -3.93,1.638 -7.866,3.559 -11.286,6.056 -5.785,4.223 -6.292,11.054 -1.453,16.438 5.718,6.362 13.352,7.983 21.261,6.524 5.323,-0.981 10.312,-3.742 15.482,-5.621 0.933,-0.338 2.304,-0.717 2.986,-0.294 3.902,2.416 7.658,5.069 11.727,7.821 -7.34,7.613 -15.931,12.187 -25.994,14.094 -0.903,0.171 -1.785,0.468 -2.677,0.706 h -10.693 c -0.896,-0.234 -1.783,-0.523 -2.692,-0.693 -7.039,-1.309 -13.495,-3.934 -18.799,-8.84 -8.145,-7.534 -11.663,-16.762 -9.319,-27.8 1.62,-7.62 6.208,-13.491 12.832,-17.106 6.94,-3.787 14.491,-6.442 21.737,-9.676 5.714,-2.551 11.731,-4.663 16.961,-7.996 6.547,-4.173 7.099,-11.885 1.381,-17.153 -2.867,-2.64 -6.763,-4.716 -10.544,-5.698 -9.125,-2.372 -17.58,0.249 -25.471,5.064 -0.827,0.505 -2.312,0.964 -2.952,0.57 -3.977,-2.451 -7.798,-5.152 -11.948,-7.957 5.059,-5.29 10.613,-9.125 17.08,-11.498 3.61,-1.324 7.397,-2.161 11.105,-3.217 h 11.951 c 2.202,0.576 4.433,1.06 6.602,1.744 12.326,3.889 20.882,11.456 23.745,24.532 0.061,0.282 0.311,0.521 0.474,0.78 v 8.179 c -3.154,13.675 -13.168,20.517 -25.248,25.199 m -405.833,-44.527 c -21.827,0.048 -39.564,17.983 -39.589,40.033 -0.027,22.201 17.799,40.244 39.731,40.213 21.73,-0.032 39.604,-18.078 39.658,-40.042 0.055,-22.076 -17.938,-40.251 -39.8,-40.204 m 12.588,94.672 c -2.23,0.503 -4.473,0.948 -6.711,1.421 h -11.951 c -0.677,-0.213 -1.341,-0.522 -2.037,-0.624 -26.706,-3.991 -47.001,-26.671 -47.675,-53.3 -0.709,-28.001 17.991,-51.562 45.19,-56.954 1.723,-0.342 3.435,-0.747 5.151,-1.122 h 10.694 c 0.801,0.205 1.591,0.494 2.406,0.603 26.683,3.571 47.131,26.028 48.304,53.072 1.162,26.804 -17.297,51.027 -43.371,56.904 m 259.573,-94.673 c -21.872,-0.072 -39.829,18.059 -39.8,40.185 0.029,22.108 18.054,40.193 39.93,40.06 21.804,-0.132 39.502,-18.158 39.457,-40.191 -0.044,-22.058 -17.76,-39.982 -39.587,-40.054 m 14.308,94.165 c -2.924,0.763 -5.908,1.292 -8.863,1.929 h -11.322 c -0.693,-0.2 -1.373,-0.485 -2.079,-0.589 C 74.117,67.902 54.167,46.009 52.753,19.08 c -1.389,-26.5 16.468,-50.481 42.46,-56.967 2.727,-0.68 5.505,-1.163 8.26,-1.736 h 10.694 c 0.786,0.216 1.562,0.524 2.363,0.635 25.89,3.557 46.409,25.589 47.889,51.439 1.559,27.215 -15.592,51.275 -41.389,57.997" /></g></g></g></g></g></g></g></svg>