<?xml version="1.0" encoding="UTF-8" standalone="no"?>
<svg
   xmlns:dc="http://purl.org/dc/elements/1.1/"
   xmlns:cc="http://creativecommons.org/ns#"
   xmlns:rdf="http://www.w3.org/1999/02/22-rdf-syntax-ns#"
   xmlns:svg="http://www.w3.org/2000/svg"
   xmlns="http://www.w3.org/2000/svg"
   viewBox="0 0 1365.3333 1365.3333"
   height="1365.3333"
   width="1365.3333"
   xml:space="preserve"
   id="svg4605"
   version="1.1"><metadata
     id="metadata4611"><rdf:RDF><cc:Work
         rdf:about=""><dc:format>image/svg+xml</dc:format><dc:type
           rdf:resource="http://purl.org/dc/dcmitype/StillImage" /><dc:title></dc:title></cc:Work></rdf:RDF></metadata><defs
     id="defs4609"><clipPath
       id="clipPath4621"
       clipPathUnits="userSpaceOnUse"><path
         id="path4619"
         d="M 0,1024 H 1024 V 0 H 0 Z" /></clipPath></defs><g
     transform="matrix(1.3333333,0,0,-1.3333333,0,1365.3333)"
     id="g4613"><g
       id="g4615"><g
         clip-path="url(#clipPath4621)"
         id="g4617"><g
           transform="translate(931,188)"
           id="g4623"><path
             id="path4625"
             style="fill:#004b8b;fill-opacity:1;fill-rule:nonzero;stroke:none"
             d="m 0,0 c 0,-55.229 -44.771,-100 -100,-100 h -643 c -55.229,0 -100,44.771 -100,100 v 643 c 0,55.229 44.771,100 100,100 h 643 C -44.771,743 0,698.229 0,643 Z" /></g><g
           transform="translate(415,88)"
           id="g4627"><path
             id="path4629"
             style="fill:none;stroke:#d0e5c8;stroke-width:40;stroke-linecap:butt;stroke-linejoin:round;stroke-miterlimit:10;stroke-dasharray:none;stroke-opacity:1"
             d="m 0,0 v 193 l -118.044,73.042" /></g><g
           transform="translate(508,88)"
           id="g4631"><path
             id="path4633"
             style="fill:none;stroke:#d0e5c8;stroke-width:40;stroke-linecap:butt;stroke-linejoin:miter;stroke-miterlimit:10;stroke-dasharray:none;stroke-opacity:1"
             d="M 0,0 V 672" /></g><g
           transform="translate(505,552.4067)"
           id="g4635"><path
             id="path4637"
             style="fill:none;stroke:#d0e5c8;stroke-width:40;stroke-linecap:butt;stroke-linejoin:round;stroke-miterlimit:10;stroke-dasharray:none;stroke-opacity:1"
             d="M 0,0 121,59.621 V 94.593" /></g><g
           transform="translate(507.6094,528.7695)"
           id="g4639"><path
             id="path4641"
             style="fill:none;stroke:#d0e5c8;stroke-width:40;stroke-linecap:butt;stroke-linejoin:round;stroke-miterlimit:10;stroke-dasharray:none;stroke-opacity:1"
             d="m 0,0 -84.609,50.761 v 56.469 l -43.548,29.025" /></g><g
           transform="translate(507.6055,342.0215)"
           id="g4643"><path
             id="path4645"
             style="fill:none;stroke:#d0e5c8;stroke-width:40;stroke-linecap:butt;stroke-linejoin:round;stroke-miterlimit:10;stroke-dasharray:none;stroke-opacity:1"
             d="m 0,0 -98.605,58.013 v 75.966 l -135,82.031" /></g><g
           transform="translate(508.8379,311.2627)"
           id="g4647"><path
             id="path4649"
             style="fill:none;stroke:#d0e5c8;stroke-width:40;stroke-linecap:butt;stroke-linejoin:round;stroke-miterlimit:10;stroke-dasharray:none;stroke-opacity:1"
             d="m 0,0 70.162,35.776 v 116.961 l 177,88.532 v 62.468" /></g><g
           transform="translate(505,198.4238)"
           id="g4651"><path
             id="path4653"
             style="fill:none;stroke:#d0e5c8;stroke-width:40;stroke-linecap:butt;stroke-linejoin:round;stroke-miterlimit:10;stroke-dasharray:none;stroke-opacity:1"
             d="m 0,0 193,94.617 v 47.959" /></g><g
           transform="translate(356,353.6309)"
           id="g4655"><path
             id="path4657"
             style="fill:#d0e5c8;fill-opacity:1;fill-rule:nonzero;stroke:none"
             d="m 0,0 c 0,-30.375 -24.625,-55 -55,-55 -30.375,0 -55,24.625 -55,55 0,30.376 24.625,55 55,55 C -24.625,55 0,30.376 0,0" /></g><g
           transform="translate(313,569.0005)"
           id="g4659"><path
             id="path4661"
             style="fill:#d0e5c8;fill-opacity:1;fill-rule:nonzero;stroke:none"
             d="m 0,0 c 0,-30.375 -24.625,-55 -55,-55 -30.375,0 -55,24.625 -55,55 0,30.375 24.625,55 55,55 C -24.625,55 0,30.375 0,0" /></g><g
           transform="translate(402,689.0005)"
           id="g4663"><path
             id="path4665"
             style="fill:#d0e5c8;fill-opacity:1;fill-rule:nonzero;stroke:none"
             d="m 0,0 c 0,-30.376 -24.625,-55 -55,-55 -30.375,0 -55,24.624 -55,55 0,30.375 24.625,55 55,55 C -24.625,55 0,30.375 0,0" /></g><g
           transform="translate(753,390)"
           id="g4667"><path
             id="path4669"
             style="fill:#d0e5c8;fill-opacity:1;fill-rule:nonzero;stroke:none"
             d="m 0,0 c 0,-30.377 -24.625,-55 -55,-55 -30.375,0 -55,24.623 -55,55 0,30.377 24.625,55 55,55 C -24.625,55 0,30.377 0,0" /></g><g
           transform="translate(811,645.0005)"
           id="g4671"><path
             id="path4673"
             style="fill:#d0e5c8;fill-opacity:1;fill-rule:nonzero;stroke:none"
             d="m 0,0 c 0,-30.375 -24.625,-55 -55,-55 -30.375,0 -55,24.625 -55,55 0,30.375 24.625,55 55,55 C -24.625,55 0,30.375 0,0" /></g><g
           transform="translate(682,692.0005)"
           id="g4675"><path
             id="path4677"
             style="fill:#d0e5c8;fill-opacity:1;fill-rule:nonzero;stroke:none"
             d="m 0,0 c 0,-30.376 -24.625,-55 -55,-55 -30.375,0 -55,24.624 -55,55 0,30.375 24.625,55 55,55 C -24.625,55 0,30.375 0,0" /></g><g
           transform="translate(564,767.0005)"
           id="g4679"><path
             id="path4681"
             style="fill:#d0e5c8;fill-opacity:1;fill-rule:nonzero;stroke:none"
             d="m 0,0 c 0,-30.375 -24.625,-55 -55,-55 -30.375,0 -55,24.625 -55,55 0,30.375 24.625,55 55,55 C -24.625,55 0,30.375 0,0" /></g></g></g></g></svg>