<?xml version="1.0" encoding="UTF-8" standalone="no"?>
<svg
   xmlns:dc="http://purl.org/dc/elements/1.1/"
   xmlns:cc="http://creativecommons.org/ns#"
   xmlns:rdf="http://www.w3.org/1999/02/22-rdf-syntax-ns#"
   xmlns:svg="http://www.w3.org/2000/svg"
   xmlns="http://www.w3.org/2000/svg"
   viewBox="0 0 1365.3333 1365.3333"
   height="1365.3333"
   width="1365.3333"
   xml:space="preserve"
   id="svg4683"
   version="1.1"><metadata
     id="metadata4689"><rdf:RDF><cc:Work
         rdf:about=""><dc:format>image/svg+xml</dc:format><dc:type
           rdf:resource="http://purl.org/dc/dcmitype/StillImage" /><dc:title></dc:title></cc:Work></rdf:RDF></metadata><defs
     id="defs4687"><clipPath
       id="clipPath4699"
       clipPathUnits="userSpaceOnUse"><path
         id="path4697"
         d="M 0,1024 H 1024 V 0 H 0 Z" /></clipPath><clipPath
       id="clipPath4719"
       clipPathUnits="userSpaceOnUse"><path
         id="path4717"
         d="m 481,805.782 h 60 V 215 h -60 z" /></clipPath></defs><g
     transform="matrix(1.3333333,0,0,-1.3333333,0,1365.3333)"
     id="g4691"><g
       id="g4693"><g
         clip-path="url(#clipPath4699)"
         id="g4695"><g
           transform="translate(933,190)"
           id="g4701"><path
             id="path4703"
             style="fill:#4f4e48;fill-opacity:1;fill-rule:nonzero;stroke:none"
             d="m 0,0 c 0,-55.229 -44.772,-100 -100,-100 h -643 c -55.229,0 -100,44.771 -100,100 v 643 c 0,55.229 44.771,100 100,100 h 643 C -44.772,743 0,698.229 0,643 Z" /></g><g
           transform="translate(511.5,805.782)"
           id="g4705"><path
             id="path4707"
             style="fill:#3498db;fill-opacity:1;fill-rule:nonzero;stroke:none"
             d="m 0,0 -294.773,-519.967 c 0.611,-34.031 17.446,-60.815 69.934,-70.815 l 194.339,50 30,-50 30,50 195.339,-50 c 39.827,4 64.927,25.631 69.934,70.815 z" /></g><g
           transform="translate(216.727,286.1703)"
           id="g4709"><path
             id="path4711"
             style="fill:#f5f7fa;fill-opacity:1;fill-rule:nonzero;stroke:none"
             d="M 0,0 294.773,87.489 589.546,0 294.773,519.612 Z" /></g><g
           id="g4713"><g
             id="g4715" /><g
             id="g4727"><g
               style="opacity:0.10000598"
               id="g4725"
               clip-path="url(#clipPath4719)"><g
                 id="g4723"
                 transform="translate(509.5331,802.3149)"><path
                   id="path4721"
                   style="fill:#000000;fill-opacity:1;fill-rule:nonzero;stroke:none"
                   d="m 0,0 -28.533,-537.315 30,-50 30,50 L 4,0 1.967,3.467 Z" /></g></g></g></g></g></g></g></svg>