<?xml version="1.0" encoding="UTF-8" standalone="no"?>
<svg
   xmlns:dc="http://purl.org/dc/elements/1.1/"
   xmlns:cc="http://creativecommons.org/ns#"
   xmlns:rdf="http://www.w3.org/1999/02/22-rdf-syntax-ns#"
   xmlns:svg="http://www.w3.org/2000/svg"
   xmlns="http://www.w3.org/2000/svg"
   viewBox="0 0 1280 1280"
   height="1280"
   width="1280"
   xml:space="preserve"
   version="1.1"
   id="svg2"><metadata
     id="metadata8"><rdf:RDF><cc:Work
         rdf:about=""><dc:format>image/svg+xml</dc:format><dc:type
           rdf:resource="http://purl.org/dc/dcmitype/StillImage" /><dc:title></dc:title></cc:Work></rdf:RDF></metadata><defs
     id="defs6"><clipPath
       id="clipPath16"
       clipPathUnits="userSpaceOnUse"><path
         id="path18"
         d="m 0,1024 1024,0 L 1024,0 0,0 0,1024 Z" /></clipPath></defs><g
     transform="matrix(1.25,0,0,-1.25,0,1280)"
     id="g10"><g
       id="g12"><g
         clip-path="url(#clipPath16)"
         id="g14"><g
           transform="translate(933,190)"
           id="g20"><path
             id="path22"
             style="fill:#96c200;fill-opacity:1;fill-rule:nonzero;stroke:none"
             d="m 0,0 c 0,-55.229 -44.771,-100 -100,-100 l -643,0 c -55.229,0 -100,44.771 -100,100 l 0,643 c 0,55.229 44.771,100 100,100 l 643,0 C -44.771,743 0,698.229 0,643 L 0,0 Z" /></g><g
           transform="translate(443,613)"
           id="g24"><path
             id="path26"
             style="fill:#231f20;fill-opacity:1;fill-rule:nonzero;stroke:none"
             d="m 0,0 c -95,0 -149,-23 -167,-23 -18,0 -38,17 -38,37 0,20 16,35 42,41 26,6 106,19 174,19 126,0 257,-30 328,-77 20,-15 22,-43 10,-56 -12,-13 -28,-18 -53,-4 C 271,-49 179,-1 0,0" /></g><g
           transform="translate(266,501)"
           id="g28"><path
             id="path30"
             style="fill:#231f20;fill-opacity:1;fill-rule:nonzero;stroke:none"
             d="m 0,0 c 0,14 8,26 32,32 24,6 80,19 141,19 142,0 247,-46 289,-72 12,-8 18,-18 17,-28 -1,-10 -5,-33 -31,-33 -10,0 -13,4 -24,10 -11,6 -104,61 -243,61 C 83,-12 49,-32 30,-32 -1,-32 -1,-2 0,0" /></g><g
           transform="translate(282,383)"
           id="g32"><path
             id="path34"
             style="fill:#231f20;fill-opacity:1;fill-rule:nonzero;stroke:none"
             d="m 0,0 c 0,9 3,21 32,26 29,5 80,14 135,14 94,0 175,-25 230,-58 11,-7 16,-15 16,-24 0,-9 -7,-26 -24,-26 -17,0 -71,58 -224,58 C 79,-10 42,-27 26,-27 10,-27 0,-18 0,0" /></g></g></g></g></svg>