<?xml version="1.0" encoding="UTF-8" standalone="no"?>
<svg
   xmlns:dc="http://purl.org/dc/elements/1.1/"
   xmlns:cc="http://creativecommons.org/ns#"
   xmlns:rdf="http://www.w3.org/1999/02/22-rdf-syntax-ns#"
   xmlns:svg="http://www.w3.org/2000/svg"
   xmlns="http://www.w3.org/2000/svg"
   viewBox="0 0 1365.3333 1365.3333"
   height="1365.3333"
   width="1365.3333"
   xml:space="preserve"
   id="svg4729"
   version="1.1"><metadata
     id="metadata4735"><rdf:RDF><cc:Work
         rdf:about=""><dc:format>image/svg+xml</dc:format><dc:type
           rdf:resource="http://purl.org/dc/dcmitype/StillImage" /><dc:title></dc:title></cc:Work></rdf:RDF></metadata><defs
     id="defs4733"><clipPath
       id="clipPath4745"
       clipPathUnits="userSpaceOnUse"><path
         id="path4743"
         d="M 0,1024 H 1024 V 0 H 0 Z" /></clipPath></defs><g
     transform="matrix(1.3333333,0,0,-1.3333333,0,1365.3333)"
     id="g4737"><g
       id="g4739"><g
         clip-path="url(#clipPath4745)"
         id="g4741"><g
           transform="translate(933,190)"
           id="g4747"><path
             id="path4749"
             style="fill:#6b6b6a;fill-opacity:1;fill-rule:nonzero;stroke:none"
             d="m 0,0 c 0,-55.229 -44.771,-100 -100,-100 h -643 c -55.229,0 -100,44.771 -100,100 v 643 c 0,55.229 44.771,100 100,100 h 643 C -44.771,743 0,698.229 0,643 Z" /></g><g
           transform="translate(538.0234,761.1118)"
           id="g4751"><path
             id="path4753"
             style="fill:#e8c638;fill-opacity:1;fill-rule:nonzero;stroke:none"
             d="m 0,0 -370.02,-114.715 97.65,-314.976 318.047,98.603 35.876,68.041 z" /></g><g
           transform="translate(540.5,547)"
           id="g4755"><path
             id="path4757"
             style="fill:#77701b;fill-opacity:1;fill-rule:nonzero;stroke:none"
             d="m 0,0 13.879,-44.769 30.93,58.661 z" /></g><g
           transform="translate(884.9014,500.707)"
           id="g4759"><path
             id="path4761"
             style="fill:#f9de6a;fill-opacity:1;fill-rule:nonzero;stroke:none"
             d="m 0,0 -365.087,129.562 -110.288,-310.776 267.596,-94.967 130.336,57.956 z" /></g><g
           transform="translate(713.249,331.4209)"
           id="g4763"><path
             id="path4765"
             style="fill:#e8cf64;fill-opacity:1;fill-rule:nonzero;stroke:none"
             d="M 0,0 -36.127,-106.895 94.209,-48.938 Z" /></g></g></g></g></svg>