<?xml version="1.0" encoding="UTF-8" standalone="no"?>
<svg
   xmlns:dc="http://purl.org/dc/elements/1.1/"
   xmlns:cc="http://creativecommons.org/ns#"
   xmlns:rdf="http://www.w3.org/1999/02/22-rdf-syntax-ns#"
   xmlns:svg="http://www.w3.org/2000/svg"
   xmlns="http://www.w3.org/2000/svg"
   viewBox="0 0 1365.3333 1365.3333"
   height="1365.3333"
   width="1365.3333"
   xml:space="preserve"
   id="svg4795"
   version="1.1"><metadata
     id="metadata4801"><rdf:RDF><cc:Work
         rdf:about=""><dc:format>image/svg+xml</dc:format><dc:type
           rdf:resource="http://purl.org/dc/dcmitype/StillImage" /><dc:title></dc:title></cc:Work></rdf:RDF></metadata><defs
     id="defs4799"><clipPath
       id="clipPath4811"
       clipPathUnits="userSpaceOnUse"><path
         id="path4809"
         d="M 0,1024 H 1024 V 0 H 0 Z" /></clipPath></defs><g
     transform="matrix(1.3333333,0,0,-1.3333333,0,1365.3333)"
     id="g4803"><g
       id="g4805"><g
         clip-path="url(#clipPath4811)"
         id="g4807"><g
           transform="translate(933,190)"
           id="g4813"><path
             id="path4815"
             style="fill:#fa6451;fill-opacity:1;fill-rule:nonzero;stroke:none"
             d="m 0,0 c 0,-55.229 -44.771,-100 -100,-100 h -643 c -55.229,0 -100,44.771 -100,100 v 643 c 0,55.229 44.771,100 100,100 h 643 C -44.771,743 0,698.229 0,643 Z" /></g><g
           transform="translate(765,515)"
           id="g4817"><path
             id="path4819"
             style="fill:#ffffff;fill-opacity:1;fill-rule:nonzero;stroke:none"
             d="m 0,0 c 0,140.28 -113.72,254 -254,254 -140.28,0 -254,-113.72 -254,-254 0,-27.584 4.414,-54.133 12.545,-79 h 482.91 C -4.414,-54.133 0,-27.584 0,0" /></g><g
           transform="translate(744.5439,415)"
           id="g4821"><path
             id="path4823"
             style="fill:#ffffff;fill-opacity:1;fill-rule:nonzero;stroke:none"
             d="m 0,0 h -467.088 c 3.53,-8.234 7.488,-16.241 11.837,-24 H -11.837 C -7.488,-16.241 -3.53,-8.234 0,0" /></g><g
           transform="translate(511,261)"
           id="g4825"><path
             id="path4827"
             style="fill:#ffffff;fill-opacity:1;fill-rule:nonzero;stroke:none"
             d="M 0,0 C 36.873,0 71.904,7.865 103.52,22 H -103.519 C -71.904,7.865 -36.873,0 0,0" /></g><g
           transform="translate(680.6602,326)"
           id="g4829"><path
             id="path4831"
             style="fill:#ffffff;fill-opacity:1;fill-rule:nonzero;stroke:none"
             d="m 0,0 h -339.32 c 8.431,-7.575 17.371,-14.595 26.763,-21 H -26.764 C -17.371,-14.595 -8.431,-7.575 0,0" /></g><g
           transform="translate(718.8457,369)"
           id="g4833"><path
             id="path4835"
             style="fill:#ffffff;fill-opacity:1;fill-rule:nonzero;stroke:none"
             d="m 0,0 h -415.692 c 4.877,-6.931 10.095,-13.604 15.623,-20 H -15.623 C -10.095,-13.604 -4.877,-6.931 0,0" /></g></g></g></g></svg>