<?xml version="1.0" encoding="UTF-8" standalone="no"?>
<svg
   xmlns:dc="http://purl.org/dc/elements/1.1/"
   xmlns:cc="http://creativecommons.org/ns#"
   xmlns:rdf="http://www.w3.org/1999/02/22-rdf-syntax-ns#"
   xmlns:svg="http://www.w3.org/2000/svg"
   xmlns="http://www.w3.org/2000/svg"
   viewBox="0 0 1365.3333 1365.3333"
   height="1365.3333"
   width="1365.3333"
   xml:space="preserve"
   id="svg4837"
   version="1.1"><metadata
     id="metadata4843"><rdf:RDF><cc:Work
         rdf:about=""><dc:format>image/svg+xml</dc:format><dc:type
           rdf:resource="http://purl.org/dc/dcmitype/StillImage" /><dc:title></dc:title></cc:Work></rdf:RDF></metadata><defs
     id="defs4841"><clipPath
       id="clipPath4853"
       clipPathUnits="userSpaceOnUse"><path
         id="path4851"
         d="M 0,1024 H 1024 V 0 H 0 Z" /></clipPath></defs><g
     transform="matrix(1.3333333,0,0,-1.3333333,0,1365.3333)"
     id="g4845"><g
       id="g4847"><g
         clip-path="url(#clipPath4853)"
         id="g4849"><g
           transform="translate(833,933)"
           id="g4855"><path
             id="path4857"
             style="fill:#4c4d4d;fill-opacity:1;fill-rule:nonzero;stroke:none"
             d="m 0,0 h -643 c -55.229,0 -100,-44.771 -100,-100 v -643 c 0,-55.229 44.771,-100 100,-100 H 0 c 55.229,0 100,44.771 100,100 v 643 C 100,-44.771 55.229,0 0,0" /></g><g
           transform="translate(512,334.8252)"
           id="g4859"><path
             id="path4861"
             style="fill:#d6d6d6;fill-opacity:1;fill-rule:nonzero;stroke:none"
             d="m 0,0 c -33.186,0 -60.087,26.903 -60.087,60.088 0,33.184 26.901,60.088 60.087,60.088 33.185,0 60.087,-26.904 60.087,-60.088 C 60.087,26.903 33.185,0 0,0 m 0,219.171 c -87.859,0 -159.083,-71.224 -159.083,-159.083 0,-87.859 71.224,-159.083 159.083,-159.083 87.859,0 159.083,71.224 159.083,159.083 0,87.859 -71.224,159.083 -159.083,159.083" /></g><g
           transform="translate(666.6064,178.9648)"
           id="g4863"><path
             id="path4865"
             style="fill:#d6d6d6;fill-opacity:1;fill-rule:nonzero;stroke:none"
             d="m 0,0 c -43.548,-31.233 -96.927,-49.63 -154.606,-49.63 -58.318,0 -112.234,18.812 -156.043,50.677 6.617,-21.021 10.971,-43.043 12.771,-65.787 20.053,-10.257 41.351,-18.426 63.606,-24.225 h 159.291 c 21.84,5.692 42.76,13.661 62.488,23.649 C -10.751,-42.745 -6.488,-20.883 0,0" /></g><g
           transform="translate(512,709.9883)"
           id="g4867"><path
             id="path4869"
             style="fill:#d6d6d6;fill-opacity:1;fill-rule:nonzero;stroke:none"
             d="m 0,0 c -174.011,0 -315.075,-141.064 -315.075,-315.075 0,-11.774 0.667,-23.389 1.925,-34.827 20.355,-9.629 39.437,-21.504 56.947,-35.291 -6.1,22.339 -9.375,45.844 -9.375,70.118 0,146.675 118.903,265.578 265.578,265.578 146.675,0 265.578,-118.903 265.578,-265.578 0,-23.882 -3.171,-47.02 -9.082,-69.036 17.459,13.578 36.465,25.257 56.713,34.728 1.221,11.27 1.866,22.713 1.866,34.308 C 315.075,-141.064 174.012,0 0,0" /></g><g
           transform="translate(255.7969,324.7949)"
           id="g4871"><path
             id="path4873"
             style="fill:#d6d6d6;fill-opacity:1;fill-rule:nonzero;stroke:none"
             d="m 0,0 c -17.51,13.787 -36.592,25.662 -56.947,35.291 4.196,-38.148 15.195,-74.246 31.769,-107.053 20.645,-20.205 37.449,-44.314 49.239,-71.132 25.25,-27.502 55.314,-50.514 88.87,-67.676 -1.799,22.744 -6.153,44.766 -12.77,65.787 C 52.02,-109.767 16.104,-58.978 0,0" /></g><g
           transform="translate(666.6064,178.9648)"
           id="g4875"><path
             id="path4877"
             style="fill:#d6d6d6;fill-opacity:1;fill-rule:nonzero;stroke:none"
             d="m 0,0 c -6.488,-20.883 -10.751,-42.745 -12.493,-65.316 33.102,16.758 62.838,39.19 87.945,66.014 12.215,28.605 30.129,54.189 52.305,75.347 16.097,32.429 26.776,68.018 30.846,105.596 C 138.354,172.169 119.349,160.49 101.89,146.912 85.773,86.887 49.161,35.259 0,0" /></g><g
           transform="translate(364.123,336.1504)"
           id="g4879"><path
             id="path4881"
             style="fill:#d6d6d6;fill-opacity:1;fill-rule:nonzero;stroke:none"
             d="m 0,0 c 4.377,-8.275 -1.6,-12.857 -1.6,-12.857 l -60.707,-43.508 c 12.742,-15.477 23.941,-32.269 33.393,-50.129 22.542,16.464 59.788,43.677 62.793,45.943 4.334,3.268 8.776,0 8.776,0 C 49.925,-47.907 -4.775,9.027 0,0" /></g><g
           transform="translate(280.5635,264.5537)"
           id="g4883"><path
             id="path4885"
             style="fill:#d6d6d6;fill-opacity:1;fill-rule:nonzero;stroke:none"
             d="m 0,0 c -5.105,-21.11 37.598,-47.346 37.598,-47.346 0,0 7.091,5.178 17.048,12.449 -9.452,17.86 -20.652,34.652 -33.393,50.128 z" /></g><g
           transform="translate(622.7686,636.3579)"
           id="g4887"><path
             id="path4889"
             style="fill:#d6d6d6;fill-opacity:1;fill-rule:nonzero;stroke:none"
             d="m 0,0 c -16.398,28.191 -58.242,18.939 -58.242,18.939 0,0 -25.694,-82.464 -29.027,-92.464 -3.333,-10 -7.002,-9.683 -7.002,-9.683 0,0 67.335,-26.817 63.821,-20.89 -3.515,5.927 -0.819,11.073 -0.819,11.073 z" /></g><g
           transform="translate(776,423)"
           id="g4891"><path
             id="path4893"
             style="fill:#d6d6d6;fill-opacity:1;fill-rule:nonzero;stroke:none"
             d="m 0,0 h -102 c 0,0 -3.781,0.725 -6.953,7.175 -3.172,6.45 -0.783,-74.772 -0.783,-74.772 0,0 2.611,8.659 8.861,8.659 6.25,0 100.669,-0.377 100.669,-0.377 0,0 19.831,56.315 0.206,59.315" /></g><g
           transform="translate(592.3213,257.5684)"
           id="g4895"><path
             id="path4897"
             style="fill:#d6d6d6;fill-opacity:1;fill-rule:nonzero;stroke:none"
             d="m 0,0 c 3.681,3.596 -71.464,-21.494 -71.464,-21.494 0,0 9.977,0.258 11.977,-5.242 2,-5.5 31.341,-96.373 31.341,-96.373 0,0 55.429,2.643 58.044,18.757 L -2.319,-9.07 c 0,0 -1.362,5.474 2.319,9.07" /></g><g
           transform="translate(398.3354,513.9961)"
           id="g4899"><path
             id="path4901"
             style="fill:#d6d6d6;fill-opacity:1;fill-rule:nonzero;stroke:none"
             d="m 0,0 c -4.5,3 -81.997,60.496 -81.997,60.496 0,0 -45.701,-31.311 -36.019,-49.654 L -36,-48.667 c 0,0 4.752,-4.214 2.698,-9.415 -2.054,-5.201 41.132,52.701 40.8,57.475 C 7.498,-0.607 4.5,-3 0,0" /></g><g
           transform="translate(535.417,716.2725)"
           id="g4903"><path
             id="path4905"
             style="fill:#d6d6d6;fill-opacity:1;fill-rule:nonzero;stroke:none"
             d="m 0,0 c -0.12,7.417 -1.667,41.395 -3.221,48.118 -0.786,3.4 -2.146,7.123 -6.32,8.069 -4.417,1 -16.625,0.79 -21.626,0.315 -6.666,-0.633 -7.625,-4.899 -8.25,-7.609 -2.334,-8.5 -3.333,-44 -3.5,-48.833 -0.249,-6.916 -6.011,-7.363 -6.011,-7.363 l 1.886,-6.469 46.5,-1 4.99,7.272 C 0.473,-6.915 0,-2 0,0" /></g><g
           transform="translate(623.3047,756.0811)"
           id="g4907"><path
             id="path4909"
             style="fill:#d6d6d6;fill-opacity:1;fill-rule:nonzero;stroke:none"
             d="m 0,0 c -4.025,2.076 -15.895,4.933 -20.855,5.727 -6.614,1.059 -8.611,-2.831 -9.895,-5.298 -4.391,-7.643 -14.259,-41.759 -15.631,-46.396 -1.973,-6.633 -7.666,-5.621 -7.666,-5.621 l 0.205,-6.735 44.764,-12.626 6.654,5.79 c -3.702,1.561 -2.928,6.439 -2.426,8.375 1.745,7.209 8.764,40.49 8.946,47.388 C 4.187,-5.907 3.805,-1.961 0,0" /></g><g
           transform="translate(709.5293,715.6182)"
           id="g4911"><path
             id="path4913"
             style="fill:#d6d6d6;fill-opacity:1;fill-rule:nonzero;stroke:none"
             d="m 0,0 c -3.361,3.037 -14.105,8.832 -18.699,10.868 -6.121,2.715 -9.047,-0.535 -10.92,-2.592 -6.197,-6.266 -24.459,-36.726 -26.973,-40.859 -3.602,-5.906 -8.846,-3.474 -8.846,-3.474 l -1.525,-6.564 40.049,-23.65 7.913,3.897 c -3.181,2.457 -1.183,6.974 -0.204,8.716 3.529,6.525 18.824,36.905 20.763,43.527 C 2.539,-6.781 3.176,-2.869 0,0" /></g><g
           transform="translate(766.751,673.0688)"
           id="g4915"><path
             id="path4917"
             style="fill:#d6d6d6;fill-opacity:1;fill-rule:nonzero;stroke:none"
             d="m 0,0 c -5.278,4.123 -8.905,1.682 -11.224,0.143 -7.535,-4.572 -32.658,-29.673 -36.101,-33.071 -4.932,-4.852 -9.426,-1.217 -9.426,-1.217 l -3.076,-5.996 33.094,-32.682 8.622,1.854 c -2.488,3.157 0.549,7.052 1.923,8.504 5.01,5.471 27.236,31.218 30.727,37.169 1.768,3.01 3.336,6.65 0.952,10.206 C 12.972,-11.327 3.96,-3.093 0,0" /></g><g
           transform="translate(828.416,600.2002)"
           id="g4919"><path
             id="path4921"
             style="fill:#d6d6d6;fill-opacity:1;fill-rule:nonzero;stroke:none"
             d="m 0,0 c -3.998,5.373 -8.142,3.979 -10.784,3.109 -8.478,-2.414 -39.35,-19.966 -43.57,-22.331 -6.04,-3.374 -9.412,1.323 -9.412,1.323 l -4.553,-4.967 23.258,-40.28 8.805,-0.494 c -1.562,3.702 2.399,6.654 4.106,7.691 6.281,3.949 34.53,22.892 39.473,27.707 2.501,2.433 4.978,5.527 3.621,9.59 C 9.51,-14.357 3.002,-4.031 0,0" /></g><g
           transform="translate(867.8281,513.5479)"
           id="g4923"><path
             id="path4925"
             style="fill:#d6d6d6;fill-opacity:1;fill-rule:nonzero;stroke:none"
             d="M 0,0 C -2.591,6.179 -6.946,5.821 -9.721,5.614 -18.531,5.31 -52.717,-4.298 -57.382,-5.578 -64.057,-7.401 -66.2,-2.03 -66.2,-2.03 l -5.614,-3.726 12.883,-44.692 8.429,-2.598 c -0.627,3.969 3.928,5.881 5.834,6.477 7.046,2.322 39.024,13.912 44.981,17.394 3.011,1.762 6.16,4.168 5.822,8.438 C 5.774,-16.224 1.942,-4.634 0,0" /></g><g
           transform="translate(880.4775,428.7402)"
           id="g4927"><path
             id="path4929"
             style="fill:#d6d6d6;fill-opacity:1;fill-rule:nonzero;stroke:none"
             d="m 0,0 c -8.62,1.841 -44.116,0.816 -48.95,0.705 -6.919,-0.149 -7.696,5.581 -7.696,5.581 l -6.35,-2.252 1.655,-46.482 7.547,-4.566 c 0.355,4.003 5.236,4.753 7.231,4.868 7.399,0.542 41.235,4.029 47.857,5.961 3.349,0.979 6.986,2.548 7.694,6.773 0.746,4.467 -0.16,16.641 -0.919,21.606 C 7.055,-1.183 2.742,-0.473 0,0" /></g><g
           transform="translate(877.5859,335.6836)"
           id="g4931"><path
             id="path4933"
             style="fill:#d6d6d6;fill-opacity:1;fill-rule:nonzero;stroke:none"
             d="m 0,0 c -7.924,3.859 -42.625,11.4 -47.344,12.455 -6.752,1.519 -6.128,7.268 -6.128,7.268 l -6.706,-0.66 -9.57,-45.516 6.227,-6.246 c 1.308,3.8 6.226,3.354 8.191,2.986 5.99,-1.026 29.675,-4.4 41.831,-5.431 5.134,2.136 10.36,4.094 15.676,5.857 1.653,5.002 3.365,15.249 3.779,19.77 C 6.563,-2.845 2.549,-1.118 0,0" /></g><g
           transform="translate(453.1309,710.668)"
           id="g4935"><path
             id="path4937"
             style="fill:#d6d6d6;fill-opacity:1;fill-rule:nonzero;stroke:none"
             d="m 0,0 c -2.069,7.123 -12.511,39.494 -15.781,45.57 -1.654,3.073 -3.948,6.306 -8.223,6.118 -4.525,-0.197 -16.246,-3.616 -20.944,-5.391 -6.266,-2.367 -6.066,-6.735 -5.956,-9.514 -0.012,-8.814 8.375,-43.324 9.487,-48.031 1.582,-6.737 -3.859,-8.685 -3.859,-8.685 l 3.523,-5.745 45.122,11.284 2.899,8.331 C 2.278,-6.546 0.527,-1.93 0,0" /></g><g
           transform="translate(373.5752,685.3267)"
           id="g4939"><path
             id="path4941"
             style="fill:#d6d6d6;fill-opacity:1;fill-rule:nonzero;stroke:none"
             d="m 0,0 c -3.696,6.43 -21.506,35.408 -26.122,40.537 -2.334,2.594 -5.328,5.192 -9.438,3.998 -4.349,-1.264 -14.928,-7.36 -19.072,-10.198 -5.526,-3.783 -4.298,-7.979 -3.534,-10.653 2.076,-8.566 18.395,-40.109 20.59,-44.418 3.133,-6.172 -1.693,-9.352 -1.693,-9.352 l 4.784,-4.748 41.167,21.647 0.843,8.78 C 3.764,-5.821 0.97,-1.75 0,0" /></g><g
           transform="translate(305.9707,641.9941)"
           id="g4943"><path
             id="path4945"
             style="fill:#d6d6d6;fill-opacity:1;fill-rule:nonzero;stroke:none"
             d="m 0,0 c -5.202,5.287 -29.758,28.822 -35.521,32.617 -2.914,1.92 -6.468,3.677 -10.142,1.483 -3.889,-2.323 -12.583,-10.896 -15.875,-14.687 -4.39,-5.059 -2.14,-8.808 -0.726,-11.202 4.174,-7.763 27.937,-34.157 31.149,-37.771 4.591,-5.179 0.727,-9.476 0.727,-9.476 l 5.828,-3.384 34.357,31.351 -1.402,8.707 C 5.113,-4.681 1.38,-1.448 0,0" /></g><g
           transform="translate(252.0186,584.0249)"
           id="g4947"><path
             id="path4949"
             style="fill:#d6d6d6;fill-opacity:1;fill-rule:nonzero;stroke:none"
             d="m 0,0 c -6.406,3.739 -36.271,20.019 -42.827,22.171 -3.315,1.089 -7.205,1.854 -10.176,-1.227 -3.144,-3.26 -9.289,-13.812 -11.472,-18.333 -2.912,-6.032 0.242,-9.061 2.233,-11.001 6.062,-6.398 35.911,-25.643 39.958,-28.289 5.788,-3.797 3.184,-8.955 3.184,-8.955 l 6.511,-1.739 L 12.354,-8.116 8.72,-0.08 C 6.159,-3.178 1.71,-1.036 0,0" /></g><g
           transform="translate(213.5454,516.8135)"
           id="g4951"><path
             id="path4953"
             style="fill:#d6d6d6;fill-opacity:1;fill-rule:nonzero;stroke:none"
             d="m 0,0 c -7.089,2.185 -39.872,11.251 -46.745,11.857 -3.476,0.308 -7.439,0.168 -9.631,-3.507 -2.32,-3.89 -5.907,-15.562 -7.005,-20.46 -1.465,-6.537 2.295,-8.77 4.674,-10.205 7.358,-4.854 40.8,-16.813 45.341,-18.469 6.501,-2.382 5.138,-7.996 5.138,-7.996 l 6.734,-0.215 15.369,43.899 -5.365,7 C 6.72,-1.695 1.9,-0.62 0,0" /></g><g
           transform="translate(193.0293,439.6367)"
           id="g4955"><path
             id="path4957"
             style="fill:#d6d6d6;fill-opacity:1;fill-rule:nonzero;stroke:none"
             d="m 0,0 c -7.411,0.31 -41.423,0.735 -48.224,-0.428 -3.439,-0.586 -7.236,-1.731 -8.422,-5.842 -1.252,-4.353 -1.75,-16.552 -1.566,-21.57 0.246,-6.695 4.45,-7.896 7.116,-8.68 8.352,-2.821 43.736,-5.876 48.549,-6.324 6.893,-0.648 7.003,-6.424 7.003,-6.424 l 6.567,1.506 3.693,46.366 -6.971,5.404 C 6.931,0.072 1.995,-0.115 0,0" /></g><g
           transform="translate(199.9199,363.1875)"
           id="g4959"><path
             id="path4961"
             style="fill:#d6d6d6;fill-opacity:1;fill-rule:nonzero;stroke:none"
             d="M 0,0 C 0.004,-1.278 -0.481,-2.27 -1.205,-3.039 2.046,-4.575 5.258,-6.177 8.442,-7.825 L 7.933,-3.854 Z" /></g><g
           transform="translate(198.7153,360.1484)"
           id="g4963"><path
             id="path4965"
             style="fill:#d6d6d6;fill-opacity:1;fill-rule:nonzero;stroke:none"
             d="m 0,0 c -1.55,-1.648 -4.204,-2.273 -5.55,-2.477 -7.317,-1.222 -40.69,-7.801 -47.105,-10.339 -3.245,-1.281 -6.724,-3.184 -7.04,-7.45 -0.331,-4.519 1.693,-16.559 2.904,-21.431 1.619,-6.5 5.98,-6.813 8.75,-7.03 8.753,-1.043 44.009,3.247 48.812,3.8 6.879,0.784 8.175,-4.846 8.175,-4.846 l 6.117,2.824 -5.416,42.163 C 6.462,-3.138 3.25,-1.536 0,0" /></g><g
           transform="translate(680.4102,222.1904)"
           id="g4967"><path
             id="path4969"
             style="fill:#adadad;fill-opacity:1;fill-rule:nonzero;stroke:none"
             d="M 0,0 C -0.08,-0.15 -0.15,-0.29 -0.23,-0.44 0.42,-2.36 -0.7,-3.801 -0.7,-3.801 l 2.062,-0.534 c 0.006,0.012 0.011,0.023 0.017,0.035 l -1.869,0.499 c 0,0 0.84,1.67 0.49,3.801" /></g><g
           transform="translate(681.7725,217.8555)"
           id="g4971"><path
             id="path4973"
             style="fill:#adadad;fill-opacity:1;fill-rule:nonzero;stroke:none"
             d="m 0,0 4.657,-1.205 -4.64,1.24 C 0.011,0.023 0.006,0.012 0,0" /></g><g
           transform="translate(706.0596,262.7803)"
           id="g4975"><path
             id="path4977"
             style="fill:#adadad;fill-opacity:1;fill-rule:nonzero;stroke:none"
             d="M 0,0 C -0.029,-0.04 -0.06,-0.08 -0.09,-0.12 0.53,0.109 1.11,0.5 1.61,1.1 L 1.58,1.17 C 1.141,0.63 0.561,0.25 0,0" /></g><g
           transform="translate(648.3193,123.4902)"
           id="g4979"><path
             id="path4981"
             style="fill:#adadad;fill-opacity:1;fill-rule:nonzero;stroke:none"
             d="m 0,0 6.681,-5.072 v 0.005 L -0.1,0.149 C -0.11,0.1 0,0.05 0,0" /></g><g
           transform="translate(654.5205,118.418)"
           id="g4983"><path
             id="path4985"
             style="fill:#adadad;fill-opacity:1;fill-rule:nonzero;stroke:none"
             d="M 0,0 0.229,-0.178 0.001,0.005 C 0.001,0.003 0,0.001 0,0" /></g><g
           transform="translate(648.3193,123.4902)"
           id="g4987"><path
             id="path4989"
             style="fill:#adadad;fill-opacity:1;fill-rule:nonzero;stroke:none"
             d="m 0,0 6.681,-5.072 v 0.005 L -0.1,0.149 C -0.11,0.1 0,0.05 0,0" /></g><g
           transform="translate(654.5205,118.418)"
           id="g4991"><path
             id="path4993"
             style="fill:#adadad;fill-opacity:1;fill-rule:nonzero;stroke:none"
             d="M 0,0 0.229,-0.178 0.001,0.005 C 0.001,0.003 0,0.001 0,0" /></g><g
           transform="translate(680.4102,222.1904)"
           id="g4995"><path
             id="path4997"
             style="fill:#adadad;fill-opacity:1;fill-rule:nonzero;stroke:none"
             d="M 0,0 C -0.08,-0.15 -0.15,-0.29 -0.23,-0.44 0.42,-2.36 -0.7,-3.801 -0.7,-3.801 l 2.062,-0.534 c 0.006,0.012 0.011,0.023 0.017,0.035 l -1.869,0.499 c 0,0 0.84,1.67 0.49,3.801" /></g><g
           transform="translate(681.7725,217.8555)"
           id="g4999"><path
             id="path5001"
             style="fill:#adadad;fill-opacity:1;fill-rule:nonzero;stroke:none"
             d="m 0,0 4.657,-1.205 -4.64,1.24 C 0.011,0.023 0.006,0.012 0,0" /></g><g
           transform="translate(706.0596,262.7803)"
           id="g5003"><path
             id="path5005"
             style="fill:#adadad;fill-opacity:1;fill-rule:nonzero;stroke:none"
             d="m 0,0 c -0.1,-0.04 -0.199,-0.08 -0.3,-0.12 -0.019,-0.03 -0.05,-0.07 -0.069,-0.101 0.09,0.031 0.189,0.061 0.279,0.101 0.62,0.229 1.2,0.62 1.7,1.22 L 1.58,1.17 C 1.141,0.63 0.561,0.25 0,0" /></g><g
           transform="translate(833,90)"
           id="g5007"><path
             id="path5009"
             style="fill:#adadad;fill-opacity:1;fill-rule:nonzero;stroke:none"
             d="M 0,0 C 55.23,0 100,44.77 100,100 100,44.771 55.229,0 0,0" /></g><g
           transform="translate(900.1299,390.6699)"
           id="g5011"><path
             id="path5013"
             style="fill:#adadad;fill-opacity:1;fill-rule:nonzero;stroke:none"
             d="m 0,0 c -2.07,7.12 -12.51,39.49 -15.78,45.57 -1.65,3.07 -3.949,6.3 -8.22,6.12 -4.53,-0.2 -16.25,-3.62 -20.95,-5.4 -6.26,-2.36 -6.06,-6.729 -5.949,-9.51 -0.021,-8.81 8.369,-43.32 9.479,-48.03 0.64,-2.71 0.14,-4.64 -0.68,-5.99 -10.91,-3.68 -21.56,-7.949 -31.9,-12.77 -2.75,0.27 -4.77,3.24 -5.55,4.67 -3.7,6.43 -21.51,35.401 -26.13,40.53 -2.33,2.6 -5.33,5.2 -9.43,4 -4.35,-1.26 -14.93,-7.36 -19.079,-10.2 -5.521,-3.78 -4.29,-7.98 -3.531,-10.65 2.08,-8.569 18.39,-40.11 20.59,-44.42 3.13,-6.17 -1.69,-9.35 -1.69,-9.35 l 0.07,-0.07 c -7.49,-5.12 -14.74,-10.55 -21.74,-16.28 -2.78,-0.51 -5.53,1.91 -6.67,3.1 -5.2,5.29 -29.76,28.83 -35.52,32.62 -2.91,1.92 -6.469,3.68 -10.14,1.48 -3.89,-2.32 -12.59,-10.89 -15.88,-14.68 -4.39,-5.06 -2.14,-8.81 -0.72,-11.2 4.17,-7.769 27.93,-34.16 31.15,-37.78 3.3,-3.73 2.23,-6.989 1.36,-8.53 -6.02,-6.78 -11.75,-13.83 -17.16,-21.12 0.56,0.25 1.14,0.63 1.58,1.17 l 0.03,-0.07 c 0.03,0.02 0.05,0.05 0.07,0.07 l 3.63,-8.04 -3.7,7.97 c -0.5,-0.6 -1.08,-0.99 -1.7,-1.22 -0.09,-0.04 -0.19,-0.07 -0.279,-0.1 -2.451,-0.77 -5.371,0.671 -6.681,1.47 -6.41,3.73 -36.27,20.01 -42.83,22.17 -3.31,1.09 -7.22,1.85 -10.19,-1.23 -3.15,-3.26 -9.31,-13.81 -11.5,-18.33 -2.91,-6.04 0.201,-9.06 2.19,-11.01 6.06,-6.39 35.81,-25.64 39.85,-28.28 2.48,-1.64 3.47,-3.52 3.47,-5.15 v -0.009 c 0.07,-0.151 0.13,-0.291 0.18,-0.441 0.08,0.15 0.15,0.29 0.23,0.441 0.35,-2.131 -0.49,-3.801 -0.49,-3.801 l 6.51,-1.74 -6.72,1.74 c 0,0 1.12,1.44 0.47,3.36 -3.98,-7.54 -7.67,-15.26 -11.04,-23.15 l -0.09,0.12 c -1.78,-3.6 -6.6,-2.529 -8.51,-1.91 -7.08,2.19 -39.87,11.25 -46.74,11.86 -3.48,0.311 -7.44,0.17 -9.63,-3.51 -2.32,-3.89 -5.91,-15.56 -7.01,-20.46 -1.46,-6.53 2.3,-8.78 4.68,-10.21 7.36,-4.86 40.8,-16.81 45.34,-18.47 6.5,-2.39 5.14,-8.02 5.14,-8.02 h 0.13 c -1.94,-8.22 -3.58,-16.559 -4.87,-25.019 0.08,0.21 0.14,0.429 0.19,0.659 l 0.19,-0.15 c 0,0.05 0.01,0.1 0.021,0.15 l 6.769,-5.4 -6.79,5.25 c 0,-0.18 0.04,-0.35 0.04,-0.509 v -0.011 c -2,-3.279 -5.89,-3.44 -7.76,-3.33 -7.41,0.31 -41.63,0.73 -48.43,-0.43 -3.44,-0.59 -7.24,-1.729 -8.43,-5.84 -1.25,-4.36 -1.75,-16.56 -1.56,-21.57 0.02,-0.66 0.09,-1.25 0.19,-1.8 h 111.85 c 2.331,41.55 14.21,80.55 33.48,114.83 l 82,-59.5 c 0,0 4.75,-4.21 2.69,-9.42 -0.02,-0.05 -0.04,-0.1 -0.04,-0.14 -0.009,-0.01 -0.009,-0.01 -0.009,-0.02 -5.941,-14.309 -9.841,-29.68 -11.351,-45.75 h 32.37 c 55.229,0 100,44.772 100,100 v 41.87 c -30.53,-5.02 -58,-18.73 -80,-38.51 v 0.03 c 0,0 -3.08,-2.39 -7.58,0.61 -4.46,2.981 -80.87,59.6 -82.07,60.481 43.04,46.869 102.7,78.229 169.65,84.739 V -1.76 C 22.97,-2.57 13.2,-3.84 3.58,-5.54 1.45,-4.32 0.39,-1.42 0,0" /></g><g
           transform="translate(680.4102,222.1904)"
           id="g5015"><path
             id="path5017"
             style="fill:#adadad;fill-opacity:1;fill-rule:nonzero;stroke:none"
             d="M 0,0 C -0.08,-0.15 -0.15,-0.29 -0.23,-0.44 0.42,-2.36 -0.7,-3.801 -0.7,-3.801 l 2.062,-0.534 c 0.006,0.012 0.011,0.023 0.017,0.035 l -1.869,0.499 c 0,0 0.84,1.67 0.49,3.801" /></g><g
           transform="translate(681.7725,217.8555)"
           id="g5019"><path
             id="path5021"
             style="fill:#adadad;fill-opacity:1;fill-rule:nonzero;stroke:none"
             d="m 0,0 4.657,-1.205 -4.64,1.24 C 0.011,0.023 0.006,0.012 0,0" /></g><g
           transform="translate(707.6699,263.8799)"
           id="g5023"><path
             id="path5025"
             style="fill:#adadad;fill-opacity:1;fill-rule:nonzero;stroke:none"
             d="m 0,0 0.468,-1.008 c 0.018,0.027 0.036,0.053 0.053,0.078 l -0.451,1 C 0.05,0.05 0.03,0.021 0,0" /></g><g
           transform="translate(708.1377,262.8721)"
           id="g5027"><path
             id="path5029"
             style="fill:#adadad;fill-opacity:1;fill-rule:nonzero;stroke:none"
             d="M 0,0 3.232,-6.962 0.054,0.078 C 0.036,0.053 0.019,0.026 0,0" /></g><g
           transform="translate(648.3193,123.4902)"
           id="g5031"><path
             id="path5033"
             style="fill:#adadad;fill-opacity:1;fill-rule:nonzero;stroke:none"
             d="m 0,0 6.681,-5.072 v 0.005 L -0.1,0.149 C -0.11,0.1 0,0.05 0,0" /></g><g
           transform="translate(654.5205,118.418)"
           id="g5035"><path
             id="path5037"
             style="fill:#adadad;fill-opacity:1;fill-rule:nonzero;stroke:none"
             d="M 0,0 0.229,-0.178 0.001,0.005 C 0.001,0.003 0,0.001 0,0" /></g><g
           transform="translate(90,190)"
           id="g5039"><path
             id="path5041"
             style="fill:#adadad;fill-opacity:1;fill-rule:nonzero;stroke:none"
             d="M 0,0 C 0,-55.23 44.551,-100 99.781,-100 H 100 C 44.771,-100 0,-55.229 0,0" /></g><g
           transform="translate(439.4014,113.3701)"
           id="g5043"><path
             id="path5045"
             style="fill:#adadad;fill-opacity:1;fill-rule:nonzero;stroke:none"
             d="m 0,0 c -1.19,4.11 -4.99,5.25 -8.43,5.84 -6.8,1.16 -40.911,0.74 -48.321,0.43 -1.87,-0.11 -5.65,0.05 -7.65,3.33 v 0.01 c 0,0.16 -0.07,0.329 -0.07,0.51 l -6.844,-5.25 6.742,5.4 c 0.01,-0.05 0.007,-0.1 0.007,-0.15 l 0.183,0.15 c 0.05,-0.23 0.107,-0.45 0.187,-0.66 -1.291,8.46 -2.934,16.8 -4.874,25.02 h 0.13 c 0,0 -1.36,5.63 5.14,8.019 4.54,1.661 37.98,13.611 45.34,18.471 2.38,1.43 6.14,3.68 4.68,10.21 -1.1,4.899 -4.69,16.569 -7.01,20.46 -2.19,3.68 -6.15,3.82 -9.63,3.51 -6.87,-0.611 -39.66,-9.67 -46.74,-11.861 -1.91,-0.619 -6.73,-1.689 -8.51,1.911 l -0.09,-0.121 c -3.37,7.891 -7.06,15.611 -11.04,23.151 -0.65,-1.92 0.47,-3.36 0.47,-3.36 l -6.72,-1.74 6.51,1.74 c 0,0 -0.84,1.669 -0.49,3.8 0.08,-0.15 0.259,-0.29 0.34,-0.44 0.049,0.15 0.289,0.29 0.289,0.44 v 0.01 c 0,1.63 0.88,3.51 3.36,5.149 4.04,2.641 33.735,21.891 39.796,28.281 1.989,1.95 5.072,4.969 2.162,11.01 -2.189,4.52 -8.363,15.07 -11.514,18.33 -2.969,3.08 -6.886,2.32 -10.196,1.23 -6.561,-2.16 -36.423,-18.44 -42.833,-22.17 -1.311,-0.8 -4.232,-2.24 -6.683,-1.471 -0.089,0.031 -0.19,0.061 -0.28,0.101 -0.62,0.23 -1.201,0.62 -1.701,1.22 l -3.7,-7.97 3.63,8.04 c 0.02,-0.02 0.04,-0.05 0.07,-0.07 l 0.03,0.07 c 0.44,-0.54 1.02,-0.92 1.58,-1.17 -5.41,7.29 -11.14,14.34 -17.16,21.12 -0.87,1.54 -1.94,4.8 1.36,8.53 3.22,3.62 26.98,30.01 31.15,37.78 1.42,2.389 3.67,6.139 -0.72,11.2 -3.29,3.79 -11.99,12.359 -15.88,14.68 -3.671,2.2 -7.23,0.44 -10.14,-1.48 -5.76,-3.79 -30.32,-27.33 -35.52,-32.62 -1.14,-1.19 -3.89,-3.61 -6.67,-3.1 -7,5.73 -14.25,11.16 -21.74,16.28 l 0.07,0.07 c 0,0 -4.82,3.18 -1.69,9.35 2.2,4.31 18.51,35.85 20.59,44.42 0.759,2.67 1.99,6.87 -3.531,10.65 -4.149,2.84 -14.729,8.939 -19.079,10.2 -4.1,1.199 -7.1,-1.4 -9.43,-4 -4.62,-5.13 -22.43,-34.1 -26.13,-40.53 -0.78,-1.43 -2.8,-4.4 -5.55,-4.67 -10.34,4.82 -20.99,9.09 -31.9,12.77 -0.82,1.35 -1.32,3.28 -0.68,5.99 1.11,4.71 9.5,39.22 9.479,48.03 0.111,2.78 0.311,7.149 -5.949,9.51 -4.7,1.78 -16.42,5.2 -20.95,5.4 -4.271,0.18 -6.57,-3.051 -8.22,-6.12 -3.27,-6.08 -13.71,-38.45 -15.78,-45.57 -0.39,-1.42 -1.341,-4.321 -3.471,-5.54 -9.62,1.7 -19.18,2.969 -29.18,3.78 v -49.69 c 67,-6.51 126.501,-37.871 169.541,-84.74 -1.201,-0.881 -77.556,-57.5 -82.016,-60.48 -4.5,-3 -7.525,-0.61 -7.525,-0.61 v -0.03 c -22,19.78 -50,33.489 -80,38.51 V 76.63 c 0,-55.229 44.771,-100 100,-100 h 32.151 c -1.51,16.07 -5.41,31.44 -11.351,45.75 0,0.01 0,0.01 -0.009,0.019 0,0.04 -0.02,0.091 -0.04,0.141 -2.06,5.21 2.69,9.42 2.69,9.42 l 82,59.5 c 19.27,-34.28 31.149,-73.28 33.48,-114.83 H 1.37 c 0.1,0.55 0.17,1.14 0.19,1.8 C 1.75,-16.561 1.25,-4.36 0,0" /></g><g
           transform="translate(653.207,90.3848)"
           id="g5047"><path
             id="path5049"
             style="fill:#adadad;fill-opacity:1;fill-rule:nonzero;stroke:none"
             d="m 0,0 c 0,-0.129 0.005,-0.256 0.005,-0.385 h 70.666 c 0,0.129 -0.005,0.256 -0.005,0.385 0,119.467 92.072,217.419 209.127,226.792 V 297.62 C 123.678,288.109 0,158.51 0,0" /></g><g
           transform="translate(90,388.0049)"
           id="g5051"><path
             id="path5053"
             style="fill:#adadad;fill-opacity:1;fill-rule:nonzero;stroke:none"
             d="m 0,0 v -70.828 c 117,-9.373 209.018,-107.325 209.018,-226.792 0,-0.129 -0.115,-0.256 -0.115,-0.385 h 70.666 c 0,0.129 0.115,0.256 0.115,0.385 C 279.684,-139.11 156,-9.511 0,0" /></g></g></g></g></svg>