<?xml version="1.0" encoding="UTF-8" standalone="no"?>
<svg
   xmlns:dc="http://purl.org/dc/elements/1.1/"
   xmlns:cc="http://creativecommons.org/ns#"
   xmlns:rdf="http://www.w3.org/1999/02/22-rdf-syntax-ns#"
   xmlns:svg="http://www.w3.org/2000/svg"
   xmlns="http://www.w3.org/2000/svg"
   viewBox="0 0 1365.3333 1365.3333"
   height="1365.3333"
   width="1365.3333"
   xml:space="preserve"
   id="svg5055"
   version="1.1"><metadata
     id="metadata5061"><rdf:RDF><cc:Work
         rdf:about=""><dc:format>image/svg+xml</dc:format><dc:type
           rdf:resource="http://purl.org/dc/dcmitype/StillImage" /><dc:title></dc:title></cc:Work></rdf:RDF></metadata><defs
     id="defs5059"><clipPath
       id="clipPath5071"
       clipPathUnits="userSpaceOnUse"><path
         id="path5069"
         d="M 0,1024 H 1024 V 0 H 0 Z" /></clipPath></defs><g
     transform="matrix(1.3333333,0,0,-1.3333333,0,1365.3333)"
     id="g5063"><g
       id="g5065"><g
         clip-path="url(#clipPath5071)"
         id="g5067"><g
           transform="translate(933,190)"
           id="g5073"><path
             id="path5075"
             style="fill:#19b5fe;fill-opacity:1;fill-rule:nonzero;stroke:none"
             d="m 0,0 c 0,-55.229 -44.772,-100 -100,-100 h -643 c -55.229,0 -100,44.771 -100,100 v 643 c 0,55.229 44.771,100 100,100 h 643 C -44.772,743 0,698.229 0,643 Z" /></g><g
           transform="translate(610,396.9263)"
           id="g5077"><path
             id="path5079"
             style="fill:#ffffff;fill-opacity:1;fill-rule:nonzero;stroke:none"
             d="M 0,0 V 69.074 L -200,69 V 0 l -190.5,115.574 190.5,115.5 v -70 H 0 v 70 l 194.5,-115.5 z m 195,115.574 c 0,162.095 -131.404,293.5 -293.5,293.5 v 0 c -162.096,0 -293.5,-131.405 -293.5,-293.5 v -0.001 c 0,-162.095 131.404,-293.499 293.5,-293.499 v 0 c 162.096,0 293.5,131.404 293.5,293.499 z" /></g></g></g></g></svg>