<?xml version="1.0" encoding="UTF-8" standalone="no"?>
<svg
   xmlns:dc="http://purl.org/dc/elements/1.1/"
   xmlns:cc="http://creativecommons.org/ns#"
   xmlns:rdf="http://www.w3.org/1999/02/22-rdf-syntax-ns#"
   xmlns:svg="http://www.w3.org/2000/svg"
   xmlns="http://www.w3.org/2000/svg"
   viewBox="0 0 1365.3333 1365.3333"
   height="1365.3333"
   width="1365.3333"
   xml:space="preserve"
   id="svg5081"
   version="1.1"><metadata
     id="metadata5087"><rdf:RDF><cc:Work
         rdf:about=""><dc:format>image/svg+xml</dc:format><dc:type
           rdf:resource="http://purl.org/dc/dcmitype/StillImage" /><dc:title></dc:title></cc:Work></rdf:RDF></metadata><defs
     id="defs5085"><clipPath
       id="clipPath5097"
       clipPathUnits="userSpaceOnUse"><path
         id="path5095"
         d="M 0,1024 H 1024 V 0 H 0 Z" /></clipPath></defs><g
     transform="matrix(1.3333333,0,0,-1.3333333,0,1365.3333)"
     id="g5089"><g
       id="g5091"><g
         clip-path="url(#clipPath5097)"
         id="g5093"><g
           transform="translate(932,189)"
           id="g5099"><path
             id="path5101"
             style="fill:#252529;fill-opacity:1;fill-rule:nonzero;stroke:none"
             d="m 0,0 c 0,-55.229 -44.771,-100 -100,-100 h -643 c -55.229,0 -100,44.771 -100,100 v 643 c 0,55.229 44.771,100 100,100 h 643 C -44.771,743 0,698.229 0,643 Z" /></g><g
           transform="translate(215,805)"
           id="g5103"><path
             id="path5105"
             style="fill:#e2e2e2;fill-opacity:1;fill-rule:nonzero;stroke:none"
             d="M 0,0 V -34.57 L 100.486,-74.21 0,-113.391 v -34.571 l 145,57.618 v 32.265 z" /></g><path
           id="path5107"
           style="fill:#e2e2e2;fill-opacity:1;fill-rule:nonzero;stroke:none"
           d="m 371,611 h 139 v 29 H 371 Z" /></g></g></g></svg>