<?xml version="1.0" encoding="UTF-8" standalone="no"?>
<svg
   xmlns:dc="http://purl.org/dc/elements/1.1/"
   xmlns:cc="http://creativecommons.org/ns#"
   xmlns:rdf="http://www.w3.org/1999/02/22-rdf-syntax-ns#"
   xmlns:svg="http://www.w3.org/2000/svg"
   xmlns="http://www.w3.org/2000/svg"
   viewBox="0 0 1365.3333 1365.3333"
   height="1365.3333"
   width="1365.3333"
   xml:space="preserve"
   id="svg5109"
   version="1.1"><metadata
     id="metadata5115"><rdf:RDF><cc:Work
         rdf:about=""><dc:format>image/svg+xml</dc:format><dc:type
           rdf:resource="http://purl.org/dc/dcmitype/StillImage" /><dc:title></dc:title></cc:Work></rdf:RDF></metadata><defs
     id="defs5113"><clipPath
       id="clipPath5125"
       clipPathUnits="userSpaceOnUse"><path
         id="path5123"
         d="M 0,1024 H 1024 V 0 H 0 Z" /></clipPath></defs><g
     transform="matrix(1.3333333,0,0,-1.3333333,0,1365.3333)"
     id="g5117"><g
       id="g5119"><g
         clip-path="url(#clipPath5125)"
         id="g5121"><g
           transform="translate(933,190)"
           id="g5127"><path
             id="path5129"
             style="fill:#e4e4ea;fill-opacity:1;fill-rule:nonzero;stroke:none"
             d="m 0,0 c 0,-55.229 -44.771,-100 -100,-100 h -643 c -55.229,0 -100,44.771 -100,100 v 643 c 0,55.229 44.771,100 100,100 h 643 C -44.771,743 0,698.229 0,643 Z" /></g><g
           transform="translate(765.8965,418.2334)"
           id="g5131"><path
             id="path5133"
             style="fill:#000000;fill-opacity:1;fill-rule:evenodd;stroke:none"
             d="m 0,0 v 8.685 c 4.272,1.411 8.484,2.264 12.175,4.142 5.971,3.038 6.878,7.879 3.163,13.335 -22.934,33.667 -45.864,67.335 -68.8,101.002 -0.803,1.178 -1.631,2.337 -2.6,3.719 -10.235,-14.932 -20.268,-29.564 -30.296,-44.197 -11.484,-16.757 -22.65,-33.741 -34.553,-50.193 -7.931,-10.961 -3.083,-25.429 10.486,-26.751 0.436,-0.043 0.859,-0.233 1.487,-0.411 V 0.308 c -10.369,0 -20.708,-0.011 -31.048,0.006 -3.127,0.005 -6.256,0.028 -9.377,0.164 -1.783,0.077 -2.603,-0.555 -2.858,-2.38 -2.895,-20.772 -5.846,-41.536 -8.787,-62.303 -1.127,-7.952 -2.267,-15.901 -3.429,-24.04 h -210.794 v 9.399 c 1.432,0.082 2.841,0.17 4.252,0.242 6.347,0.322 12.715,0.428 19.039,1.022 5.362,0.503 8.399,3.652 9.243,8.971 0.399,2.524 0.659,5.101 0.66,7.655 0.035,73.149 0.04,146.297 -0.015,219.445 -0.004,3.097 -0.493,6.216 -0.996,9.285 -0.678,4.144 -3.553,6.517 -7.403,7.197 -4.481,0.79 -9.07,1.054 -13.624,1.306 -3.645,0.202 -7.31,0.041 -11.145,0.041 v 11.246 h 21.268 c -0.527,5.849 -0.829,11.373 -1.564,16.841 -1.128,8.4 -2.069,16.87 -3.963,25.11 -2.772,12.058 -7.983,22.828 -19.887,28.657 -8.473,4.149 -17.676,5.535 -26.952,5.878 -13.721,0.506 -27.46,0.554 -41.193,0.716 -5.477,0.064 -8.294,-2.396 -8.9,-7.855 -0.344,-3.094 -0.301,-6.238 -0.302,-9.359 -0.023,-73.261 -0.034,-146.521 -0.012,-219.781 0.001,-2.555 0.249,-5.127 0.604,-7.661 0.552,-3.932 3.064,-6.593 6.647,-7.672 3.917,-1.178 8.042,-2.094 12.11,-2.248 8.783,-0.333 17.588,-0.102 26.562,-0.102 V 0.271 h -118.737 v 9.788 c 8.548,0 17.005,-0.217 25.441,0.09 4.3,0.158 8.628,0.997 12.83,2 4.674,1.117 7.485,4.299 7.919,9.211 0.275,3.109 0.467,6.237 0.468,9.354 0.025,72.144 0.024,144.287 -0.004,216.431 -0.001,3.45 -0.109,6.921 -0.494,10.346 -0.53,4.729 -2.994,7.327 -7.658,7.2 -18.51,-0.499 -37.033,-0.941 -55.5,-2.181 -5.48,-0.368 -11.132,-2.609 -16.108,-5.157 -11.863,-6.082 -16.854,-17.3 -19.001,-29.581 -2.285,-13.054 -3.401,-26.312 -5.034,-39.481 -0.08,-0.65 -0.216,-1.294 -0.364,-2.173 h -7.085 c 2.268,29.787 4.525,59.444 6.795,89.241 h 234.063 c 2.177,-29.163 4.35,-58.273 6.542,-87.631 h 176.544 c 3.246,-29.878 6.47,-59.547 9.726,-89.515 h -6.975 c -1.2,8.062 -2.05,16.266 -3.724,24.301 -1.629,7.819 -3.426,15.729 -6.34,23.13 -6.292,15.985 -18.873,24.927 -35.435,27.844 -9.618,1.695 -19.474,2.57 -29.243,2.766 -19.982,0.4 -39.977,0.168 -59.967,0.054 -11.679,-0.068 -13.654,-2.153 -13.659,-13.724 -0.013,-32.944 -0.002,-65.89 0,-98.835 v -2.955 c 0.485,-0.193 0.78,-0.417 1.072,-0.414 16.632,0.193 33.266,0.299 49.892,0.702 3.395,0.083 6.832,1.046 10.129,2.019 11.758,3.466 16.666,12.326 17.91,23.712 0.737,6.751 1.015,13.553 1.52,20.612 h 5.871 V 2.384 h -6.02 c -0.201,4.336 -0.281,8.651 -0.635,12.941 -0.368,4.442 -0.647,8.94 -1.591,13.277 -2.578,11.844 -10.475,18.228 -22.096,20.327 -3.504,0.633 -7.08,1.179 -10.629,1.212 -14.959,0.132 -29.92,0.056 -45.425,0.056 v -3.092 c 0,-37.412 -0.013,-74.824 0.011,-112.235 0.006,-9.92 1.171,-13.434 12.511,-13.442 21.66,-0.016 43.324,-0.342 64.975,0.016 8.981,0.15 18.024,1.222 26.884,2.759 20.836,3.616 34.989,15.615 42.723,35.35 5.091,12.989 6.781,26.702 9.555,40.478 h -23.849 v 8.986 c 5.491,0.771 11.045,1.199 16.433,2.379 14.345,3.141 25.922,10.841 34.238,22.887 23.27,33.707 46.293,67.585 69.491,101.342 1.3,1.89 1.258,3.081 -0.019,4.949 -25.561,37.413 -51.108,74.837 -76.502,112.363 -6.233,9.215 -14.931,12.974 -25.62,13.135 -4.114,0.063 -8.23,0.011 -12.605,0.011 v 9.688 h 86.077 v -8.977 c -3.413,-0.891 -6.907,-1.534 -10.184,-2.764 -1.895,-0.712 -3.597,-2.199 -5.1,-3.637 -2.337,-2.238 -2.785,-5.004 -1.317,-7.963 0.542,-1.096 1.092,-2.204 1.78,-3.211 19.698,-28.849 39.414,-57.686 59.13,-86.523 0.361,-0.527 0.755,-1.032 1.28,-1.747 0.744,0.963 1.385,1.712 1.939,2.518 17.566,25.441 35.126,50.886 52.676,76.337 3.244,4.705 4.902,9.786 3.151,15.487 -1.679,5.467 -5.384,8.856 -10.952,10.187 -1.392,0.333 -2.798,0.614 -4.341,0.95 v 9.35 h 74.092 v -8.989 C 64.749,265.909 58.979,265.364 53.351,264.148 39.504,261.155 28.687,253.356 20.68,241.865 0.835,213.389 -18.784,184.754 -38.585,156.246 c -1.553,-2.232 -1.697,-3.705 -0.086,-6.053 C -9.552,107.776 19.533,65.335 48.428,22.766 53.961,14.613 61.098,10.188 70.919,9.938 76.024,9.806 81.126,9.496 86.336,9.261 V 0 Z" /></g></g></g></g></svg>