<?xml version="1.0" encoding="UTF-8" standalone="no"?>
<svg
   xmlns:dc="http://purl.org/dc/elements/1.1/"
   xmlns:cc="http://creativecommons.org/ns#"
   xmlns:rdf="http://www.w3.org/1999/02/22-rdf-syntax-ns#"
   xmlns:svg="http://www.w3.org/2000/svg"
   xmlns="http://www.w3.org/2000/svg"
   viewBox="0 0 1365.3333 1365.3333"
   height="1365.3333"
   width="1365.3333"
   xml:space="preserve"
   id="svg5279"
   version="1.1"><metadata
     id="metadata5285"><rdf:RDF><cc:Work
         rdf:about=""><dc:format>image/svg+xml</dc:format><dc:type
           rdf:resource="http://purl.org/dc/dcmitype/StillImage" /><dc:title></dc:title></cc:Work></rdf:RDF></metadata><defs
     id="defs5283"><clipPath
       id="clipPath5295"
       clipPathUnits="userSpaceOnUse"><path
         id="path5293"
         d="M 0,1024 H 1024 V 0 H 0 Z" /></clipPath><clipPath
       id="clipPath5311"
       clipPathUnits="userSpaceOnUse"><path
         id="path5309"
         d="M 0,1024 H 1024 V 0 H 0 Z" /></clipPath><clipPath
       id="clipPath5319"
       clipPathUnits="userSpaceOnUse"><path
         id="path5317"
         d="M 91,933 H 934 V 90 H 91 Z" /></clipPath><clipPath
       id="clipPath5335"
       clipPathUnits="userSpaceOnUse"><path
         id="path5333"
         d="M 0,1024 H 1024 V 0 H 0 Z" /></clipPath><clipPath
       id="clipPath5343"
       clipPathUnits="userSpaceOnUse"><path
         id="path5341"
         d="M 91,512 H 512 V 90 H 91 Z" /></clipPath><clipPath
       id="clipPath5359"
       clipPathUnits="userSpaceOnUse"><path
         id="path5357"
         d="M 0,1024 H 1024 V 0 H 0 Z" /></clipPath><clipPath
       id="clipPath5367"
       clipPathUnits="userSpaceOnUse"><path
         id="path5365"
         d="M 512,933 H 933 V 511 H 512 Z" /></clipPath><clipPath
       id="clipPath5383"
       clipPathUnits="userSpaceOnUse"><path
         id="path5381"
         d="M 0,1024 H 1024 V 0 H 0 Z" /></clipPath><clipPath
       id="clipPath5391"
       clipPathUnits="userSpaceOnUse"><path
         id="path5389"
         d="M 165.01,751.036 H 752.002 V 272.001 H 165.01 Z" /></clipPath></defs><g
     transform="matrix(1.3333333,0,0,-1.3333333,0,1365.3333)"
     id="g5287"><g
       id="g5289"><g
         clip-path="url(#clipPath5295)"
         id="g5291"><g
           transform="translate(834,933)"
           id="g5297"><path
             id="path5299"
             style="fill:#fff100;fill-opacity:1;fill-rule:nonzero;stroke:none"
             d="m 0,0 h -643 c -55.229,0 -100,-44.771 -100,-100 v -643 c 0,-55.229 44.771,-100 100,-100 H 0 c 55.229,0 100,44.771 100,100 v 643 C 100,-44.771 55.229,0 0,0" /></g><g
           transform="translate(736,805)"
           id="g5301"><path
             id="path5303"
             style="fill:#ec1c23;fill-opacity:1;fill-rule:nonzero;stroke:none"
             d="m 0,0 h -447 c -38.66,0 -70,-31.34 -70,-70 v -447 c 0,-38.66 31.34,-70 70,-70 H 0 c 38.66,0 70,31.34 70,70 V -70 C 70,-31.34 38.66,0 0,0" /></g></g></g><g
       id="g5305"><g
         clip-path="url(#clipPath5311)"
         id="g5307"><g
           id="g5313"><g
             id="g5315" /><g
             id="g5327"><g
               id="g5325"
               clip-path="url(#clipPath5319)"><g
                 id="g5323"
                 transform="translate(834,933)"><path
                   id="path5321"
                   style="fill:#5ebddd;fill-opacity:1;fill-rule:nonzero;stroke:none"
                   d="m 0,0 h -643 c -55.229,0 -100,-44.771 -100,-100 v -643 c 0,-55.229 44.771,-100 100,-100 H 0 c 55.229,0 100,44.771 100,100 v 643 C 100,-44.771 55.229,0 0,0" /></g></g></g></g></g></g><g
       id="g5329"><g
         clip-path="url(#clipPath5335)"
         id="g5331"><g
           id="g5337"><g
             id="g5339" /><g
             id="g5351"><g
               id="g5349"
               clip-path="url(#clipPath5343)"><g
                 id="g5347"
                 transform="translate(91,512)"><path
                   id="path5345"
                   style="fill:#307ea8;fill-opacity:1;fill-rule:nonzero;stroke:none"
                   d="M 0,0 V -321 C 0,-422 101.5,-422 102,-422 H 421 V 0 Z" /></g></g></g></g></g></g><g
       id="g5353"><g
         clip-path="url(#clipPath5359)"
         id="g5355"><g
           id="g5361"><g
             id="g5363" /><g
             id="g5375"><g
               id="g5373"
               clip-path="url(#clipPath5367)"><g
                 id="g5371"
                 transform="translate(831,933)"><path
                   id="path5369"
                   style="fill:#307ea8;fill-opacity:1;fill-rule:nonzero;stroke:none"
                   d="m 0,0 h -319 v -422 h 421 v 321 C 102,0 0.5,0 0,0" /></g></g></g></g></g></g><g
       id="g5377"><g
         clip-path="url(#clipPath5383)"
         id="g5379"><g
           id="g5385"><g
             id="g5387" /><g
             id="g5399"><g
               id="g5397"
               clip-path="url(#clipPath5391)"><g
                 id="g5395"
                 transform="translate(523.7539,417.3057)"><path
                   id="path5393"
                   style="fill:#feda68;fill-opacity:1;fill-rule:nonzero;stroke:none"
                   d="m 0,0 c -2.178,-5.346 -4.845,-10.494 -7.391,-15.681 -0.826,-1.682 -1.264,-4.18 -3.344,-4.422 -2.789,-0.326 -3.237,2.582 -4.143,4.413 -10.797,21.838 -18.501,44.746 -22.97,68.695 -3.943,21.14 -6.243,42.445 -5.272,59.187 -0.502,48.92 6.494,91.457 26.328,131.287 1.484,2.981 1.957,8.011 6.334,7.605 3.924,-0.365 4.508,-5.14 5.962,-8.271 C 9.917,211.756 17.555,179.055 20.266,144.923 24.229,95.023 18.979,46.581 0,0 m 222.934,183.685 c -8.535,50.216 -25.723,96.762 -58.32,136.712 -12.55,15.381 -32.922,17.763 -48.469,5.532 -13.552,-10.659 -15.893,-31.936 -4.301,-46.886 22.824,-29.438 36.235,-62.794 42.578,-99.231 8.6,-49.414 9.241,-98.682 -4.092,-147.445 C 140.905,-2.105 126.855,-34.24 99.772,-58.914 84.826,-72.53 67.642,-80.127 46.905,-75.809 c -8.973,1.869 -9.495,2.968 -4.678,10.696 12.017,19.283 21.758,39.677 28.47,61.325 17.195,55.449 22.266,112.04 15.544,169.816 -4.899,42.123 -16.517,81.947 -36.613,119.332 -19.749,36.741 -80.496,55.045 -114.728,8.481 -17.108,-23.271 -26.732,-50.477 -34.132,-78.375 -11.877,-44.771 -13.565,-90.209 -9.925,-136.126 3.977,-50.19 16.578,-97.655 42.789,-141.033 7.347,-12.161 6.332,-14.009 -8.088,-15.16 -0.821,-0.064 -1.648,-0.074 -2.475,-0.088 -24.154,-0.427 -41.93,11.897 -56.478,29.477 -20.215,24.427 -32.469,52.943 -40.131,83.506 -11.647,46.461 -11.035,93.403 -3.742,140.284 4.519,29.059 13.694,56.662 31.21,81.019 6.238,8.676 11.349,18.267 16.142,27.859 8.016,16.037 2.686,33.819 -12.278,43.221 -14.334,9.008 -33.008,6.159 -43.928,-7.271 -8.518,-10.476 -16.556,-21.465 -22.415,-33.65 -8.037,-16.716 -19.456,-30.567 -32.922,-43.02 -21.007,-19.428 -42.184,-22.118 -66.268,-7.795 -6.295,3.745 -12.884,4.384 -19.845,4.15 -13.65,-0.46 -25.472,-9.687 -29.812,-23.333 -3.837,-12.062 0.794,-27.402 10.607,-35.189 27.089,-21.501 56.723,-33.71 91.992,-25.194 5.34,1.287 7.506,-1.041 6.623,-6.022 -2.042,-11.518 -0.761,-23.116 -1.189,-34.664 0,-6.342 -0.191,-12.69 0.054,-19.023 0.245,-6.317 0.932,-12.616 1.417,-18.923 5.038,-65.471 26.065,-124.495 68.03,-175.883 36.943,-45.241 101.771,-61.126 153.528,-34.156 12.042,6.277 19.93,4.918 31.128,-0.305 44.509,-20.756 87.788,-17.964 127.727,11.665 29.214,21.677 48.733,51.404 64.188,83.831 21.24,44.559 28.95,92.283 31.167,141.075 1.2,26.451 -0.497,52.835 -4.94,78.967" /></g></g></g></g></g></g></g></svg>