<?xml version="1.0" encoding="UTF-8" standalone="no"?>
<svg
   xmlns:dc="http://purl.org/dc/elements/1.1/"
   xmlns:cc="http://creativecommons.org/ns#"
   xmlns:rdf="http://www.w3.org/1999/02/22-rdf-syntax-ns#"
   xmlns:svg="http://www.w3.org/2000/svg"
   xmlns="http://www.w3.org/2000/svg"
   viewBox="0 0 1365.3333 1365.3333"
   height="1365.3333"
   width="1365.3333"
   xml:space="preserve"
   id="svg5161"
   version="1.1"><metadata
     id="metadata5167"><rdf:RDF><cc:Work
         rdf:about=""><dc:format>image/svg+xml</dc:format><dc:type
           rdf:resource="http://purl.org/dc/dcmitype/StillImage" /><dc:title></dc:title></cc:Work></rdf:RDF></metadata><defs
     id="defs5165"><clipPath
       id="clipPath5177"
       clipPathUnits="userSpaceOnUse"><path
         id="path5175"
         d="M 0,1024 H 1024 V 0 H 0 Z" /></clipPath></defs><g
     transform="matrix(1.3333333,0,0,-1.3333333,0,1365.3333)"
     id="g5169"><g
       id="g5171"><g
         clip-path="url(#clipPath5177)"
         id="g5173"><g
           transform="translate(933,190)"
           id="g5179"><path
             id="path5181"
             style="fill:#34495e;fill-opacity:1;fill-rule:nonzero;stroke:none"
             d="m 0,0 c 0,-55.229 -44.772,-100 -100,-100 h -643 c -55.229,0 -100,44.771 -100,100 v 643 c 0,55.229 44.771,100 100,100 h 643 C -44.772,743 0,698.229 0,643 Z" /></g><g
           transform="translate(378.8527,312.2087)"
           id="g5183"><path
             id="path5185"
             style="fill:#3498db;fill-opacity:1;fill-rule:nonzero;stroke:none"
             d="m 0,0 c 17.912,-39.443 -58.101,-16.831 -60,-33.962 -3.329,-30.03 91.873,-71.387 98.77,-57.063 7.539,15.658 -19.831,49.894 9.827,68.818 26.549,-9.003 54.962,-13.952 84.55,-13.952 145.458,0 263.383,117.926 263.383,263.384 0,145.464 -117.925,263.383 -263.383,263.383 -145.457,0 -263.383,-117.919 -263.383,-263.383 C -130.236,130.351 -77.904,45.749 0,0" /></g><g
           transform="translate(322.951,489.2455)"
           id="g5187"><path
             id="path5189"
             style="fill:#ffffff;fill-opacity:1;fill-rule:nonzero;stroke:none"
             d="m 0,0 c 10.068,43.659 20.137,87.318 30.205,130.977 -11.502,0.459 -22.927,0.73 -34.438,0.778 3.612,15.661 7.224,31.322 10.835,46.983 12.096,4.026 24.433,7.312 36.908,9.931 5.274,22.869 10.548,45.738 15.822,68.607 21.837,10.038 43.722,17.807 67.018,23.712 -6.477,-28.089 -12.955,-56.178 -19.433,-84.266 16.858,0.805 33.785,0.843 50.637,-0.147 -5.962,-25.852 -11.924,-51.704 -17.885,-77.556 -16.31,2.648 -32.685,4.902 -49.093,6.843 C 79.878,79.474 69.18,33.085 58.482,-13.303 c -3.814,-14.592 -2.675,-36.903 12.122,-44.848 8.575,-4.605 18.402,-3.713 22.864,-0.323 -0.843,-24.433 -1.727,-48.865 -2.644,-73.296 -18.112,-11.467 -38.122,-1.416 -52.941,9.413 C 1.903,-96.065 -9.708,-42.868 0,0" /></g><g
           transform="translate(620.8557,588.9965)"
           id="g5191"><path
             id="path5193"
             style="fill:#ffffff;fill-opacity:1;fill-rule:nonzero;stroke:none"
             d="M 0,0 C -39.441,12.533 -66.861,-31.149 -77.028,-62.606 -38.536,-71.367 0.02,-79.81 38.688,-87.762 44.649,-54.955 35.995,-11.438 0,0 m -151.224,-79.408 c 14.721,66.432 80.405,187.233 167.746,151.05 71.697,-29.703 82.59,-134.178 67.448,-199.609 -1.336,-5.794 -2.004,-8.691 -3.341,-14.485 -57.813,-2.99 -114.745,4.422 -171.273,16.166 -5.056,-36.413 5.822,-90.234 51.913,-90.4 26.088,-0.094 52.841,15.991 70.536,34.395 4.576,-14.237 9.285,-28.369 15.207,-42.116 -26.909,-31.066 -66.759,-61.399 -109.28,-63.392 -101.314,-4.75 -103.456,142.955 -88.956,208.391" /></g><g
           transform="translate(365.8407,293.1861)"
           id="g5195"><path
             id="path5197"
             style="fill:#f39c12;fill-opacity:1;fill-rule:nonzero;stroke:none"
             d="m 0,0 c 10.239,-4.071 20.404,-8.368 30.413,-12.975 5.889,-2.71 11.907,-5.435 17.369,-8.955 5.925,-3.818 11.326,-8.535 16.631,-13.15 14.033,-12.209 27.383,-25.198 41.825,-36.937 6.419,-5.217 13.055,-10.268 20.212,-14.441 4.899,-2.857 11.278,-6.686 17.139,-6.352 15.167,0.863 29.616,14.359 40.744,23.284 7.428,5.957 14.717,12.083 22.116,18.075 4.008,3.245 8.041,6.46 12.123,9.612 0.884,0.682 1.77,1.361 2.657,2.039 -3.178,-2.429 1.305,0.967 1.598,1.183 2.304,1.7 4.625,3.377 6.967,5.025 4.502,3.17 9.062,6.291 13.771,9.148 1.432,0.869 2.884,1.706 4.355,2.506 0.589,0.32 4.286,2.096 0.702,0.415 1.051,0.493 2.1,0.989 3.164,1.454 2.993,1.306 6.059,2.451 9.187,3.389 1.613,0.484 3.241,0.889 4.878,1.279 0.086,0.02 3.218,0.619 1.259,0.279 -1.782,-0.309 1.77,0.224 2.102,0.261 5.236,0.591 10.279,0.276 15.435,-0.712 2.833,-0.544 -1.022,0.633 1.555,-0.465 1.036,-0.441 2.064,-0.852 3.062,-1.378 1.855,-0.98 3.602,-2.177 5.133,-3.614 0.847,-0.795 2.562,-3.671 1.146,-1.054 0.467,-0.863 1.063,-1.649 1.498,-2.537 0.532,-1.087 0.839,-2.208 1.26,-3.334 0.988,-2.636 0.149,2.403 0.096,-0.469 -0.01,-0.565 -0.246,-3.574 -0.004,-3.883 -0.15,0.192 0.774,4.053 0.196,1.949 -0.181,-0.658 -0.327,-1.404 -0.429,-2.085 -0.459,-3.037 1.81,4.607 0.55,1.72 -0.31,-0.711 -0.591,-1.47 -0.851,-2.199 -0.574,-1.603 -1.976,-2.079 1.263,2.708 -0.465,-0.687 -0.855,-1.532 -1.231,-2.28 -1.726,-3.428 3.643,5.088 1.208,1.997 -0.581,-0.737 -1.22,-1.56 -1.694,-2.359 3.808,6.422 1.509,1.888 -0.3,-0.092 -1.177,-1.289 -3.941,-3.106 0.721,0.61 -0.923,-0.736 -1.736,-1.662 -2.611,-2.454 -1.729,-1.564 -3.705,-2.915 -5.372,-4.529 -1.982,-1.92 3.704,2.594 0.009,-0.012 -1.175,-0.829 -2.337,-1.674 -3.526,-2.483 -2.321,-1.581 -4.687,-3.092 -7.089,-4.546 -5.329,-3.226 -10.857,-6.157 -15.631,-8.416 -9.3,-4.4 -17.006,-13.559 -20.434,-23.272 -1.566,-4.439 -3.689,-18.594 5.961,-14.029 21.258,10.059 41.959,22.46 57.469,40.488 11.176,12.99 23.353,31.437 21.897,49.524 -2.278,28.293 -35.416,28.846 -56.06,21.716 -20.861,-7.205 -38.994,-21.653 -56.176,-35.051 -8.383,-6.537 -16.565,-13.325 -24.782,-20.068 -3.491,-2.864 -6.988,-5.721 -10.536,-8.515 -0.818,-0.644 -1.644,-1.277 -2.462,-1.92 -1.542,-1.212 -2.95,-0.988 0.49,0.352 -1.791,-0.697 -3.783,-2.76 -5.381,-3.842 -1.363,-0.923 -2.745,-1.823 -4.158,-2.667 -0.522,-0.312 -1.06,-0.602 -1.579,-0.918 -3.062,-1.864 0.295,0.619 0.577,0.225 -0.006,0.008 -3.307,-1.343 -3.476,-1.397 -0.403,-0.129 -0.903,-0.213 -1.301,-0.376 -1.763,-0.722 2.715,-0.37 0.418,0.128 -0.82,0.179 -1.861,0.099 -2.72,0.215 -0.95,0.129 2.431,-1.173 -0.042,0.098 -0.736,0.378 -1.556,0.64 -2.313,0.981 -3.557,1.597 -6.948,3.551 -10.231,5.646 -16.196,10.338 -30.329,23.817 -44.507,36.68 C 91.488,0.808 79.023,12.785 63.431,20.467 51.17,26.507 38.509,31.813 25.811,36.862 17.767,40.06 9.095,29.695 5.164,23.851 2.222,19.476 -0.805,14.5 -1.694,9.231 -2.1,6.823 -3.081,1.225 0,0" /></g></g></g></g></svg>