<?xml version="1.0" encoding="UTF-8" standalone="no"?>
<svg
   xmlns:dc="http://purl.org/dc/elements/1.1/"
   xmlns:cc="http://creativecommons.org/ns#"
   xmlns:rdf="http://www.w3.org/1999/02/22-rdf-syntax-ns#"
   xmlns:svg="http://www.w3.org/2000/svg"
   xmlns="http://www.w3.org/2000/svg"
   viewBox="0 0 1365.3333 1365.3333"
   height="1365.3333"
   width="1365.3333"
   xml:space="preserve"
   id="svg5431"
   version="1.1"><metadata
     id="metadata5437"><rdf:RDF><cc:Work
         rdf:about=""><dc:format>image/svg+xml</dc:format><dc:type
           rdf:resource="http://purl.org/dc/dcmitype/StillImage" /><dc:title></dc:title></cc:Work></rdf:RDF></metadata><defs
     id="defs5435"><clipPath
       id="clipPath5447"
       clipPathUnits="userSpaceOnUse"><path
         id="path5445"
         d="M 0,1024 H 1024 V 0 H 0 Z" /></clipPath></defs><g
     transform="matrix(1.3333333,0,0,-1.3333333,0,1365.3333)"
     id="g5439"><g
       id="g5441"><g
         clip-path="url(#clipPath5447)"
         id="g5443"><g
           transform="translate(933,190)"
           id="g5449"><path
             id="path5451"
             style="fill:#067a71;fill-opacity:1;fill-rule:nonzero;stroke:none"
             d="m 0,0 c 0,-55.229 -44.771,-100 -100,-100 h -643 c -55.229,0 -100,44.771 -100,100 v 643 c 0,55.229 44.771,100 100,100 h 643 C -44.771,743 0,698.229 0,643 Z" /></g><g
           transform="translate(350.4761,325.4961)"
           id="g5453"><path
             id="path5455"
             style="fill:none;stroke:#ffffff;stroke-width:48;stroke-linecap:butt;stroke-linejoin:miter;stroke-miterlimit:10;stroke-dasharray:none;stroke-opacity:1"
             d="m 0,0 c 44.75,-40.84 104.292,-65.746 169.651,-65.746 139.038,0 251.75,112.712 251.75,251.75 0,139.038 -112.712,251.75 -251.75,251.75 -139.038,0 -251.75,-112.712 -251.75,-251.75" /></g><g
           transform="translate(172.373,519)"
           id="g5457"><path
             id="path5459"
             style="fill:#ffffff;fill-opacity:1;fill-rule:nonzero;stroke:none"
             d="M 0,0 H 204.491 L 103.732,-101.057 Z" /></g><g
           transform="translate(501.4019,498.1934)"
           id="g5461"><path
             id="path5463"
             style="fill:#ffffff;fill-opacity:1;fill-rule:nonzero;stroke:none"
             d="M 0,0 10.997,188.807 H 25.264 L 35.667,9.809 118.89,-81.177 108.785,-93.049 Z" /></g></g></g></g></svg>