<?xml version="1.0" encoding="UTF-8"?>
<svg width="1024px" height="1024px" viewBox="0 0 1024 1024" version="1.1" xmlns="http://www.w3.org/2000/svg" xmlns:xlink="http://www.w3.org/1999/xlink">
    <!-- Generator: Sketch 46.2 (44496) - http://www.bohemiancoding.com/sketch -->
    <title>Todoist</title>
    <desc>Created with Sketch.</desc>
    <defs></defs>
    <g id="Page-1" stroke="none" stroke-width="1" fill="none" fill-rule="evenodd">
        <g id="Todoist" fill-rule="nonzero">
            <rect id="Outer" fill="#F7F7F7" x="92" y="92" width="840" height="840" rx="100"></rect>
            <path d="M739.667189,686.193792 C722.664273,701.074099 703.728068,711.201322 682.861581,716.608518 C662.014126,721.999687 637.009601,724.723319 607.839993,724.723319 L589.983625,724.723319 C596.791203,714.76939 600.416368,702.885179 600.416368,689.693744 C600.416368,676.035516 596.527755,663.78969 589.146201,653.608375 C613.975428,653.608375 635.275652,653.532245 653.008811,648.086985 C671.56537,642.395305 687.204968,629.121731 699.835448,608.266262 C700.610767,606.988089 701.365049,605.667843 702.082269,604.294508 C713.212198,583.489124 718.784675,553.436014 718.784675,514.107128 C718.784675,465.673758 709.26248,428.90723 690.190044,403.778494 C685.821615,398.036729 680.97337,392.89799 675.621267,388.372293 C669.273472,382.765758 661.718624,378.401336 653.008811,375.323101 C644.367114,372.243864 635.953806,370.303564 627.820974,369.534256 C619.70417,368.758937 608.505124,368.382296 594.233853,368.382296 L464.803734,368.382296 L464.803734,351.589738 C464.803734,330.385676 460.023605,313.100279 450.658678,300 L499.106072,300 L506.052886,300 L609.581956,300 C629.107162,300 646.584886,301.259141 662.167387,303.762399 C677.71583,306.292702 692.224504,310.628075 705.747503,316.812593 C716.116136,321.554658 725.880743,327.503775 735.023291,334.660947 C737.796007,336.802589 740.488586,339.064436 743.138092,341.44248 C757.611707,354.747107 769.511945,369.879843 778.774698,386.785595 C788.062494,403.65829 794.911141,422.636566 799.325649,443.687366 C803.790242,464.738167 806,488.035789 806,513.52614 C806,590.765499 783.893404,648.322385 739.667189,686.193792 M562.117233,664.481867 C554.884934,658.125056 544.044497,654.942644 529.634991,654.942644 L437.340027,654.942644 L437.321997,654.942644 L437.321997,567.929663 L437.321997,368.382296 L437.321997,351.574712 C437.321997,334.104 433.464436,321.136947 425.688211,312.699598 C417.88494,304.252232 407.804797,300.022037 395.472825,300.022037 C382.94552,300.022037 372.714119,304.300313 364.857758,312.84184 C356.952313,321.396388 353.020627,334.307346 353.020627,351.574712 L353.020627,493.632307 L353.020627,654.942644 L260.751707,654.942644 C246.304136,654.942644 235.599932,658.125056 228.566971,664.481867 C221.520988,670.854705 218,679.24798 218,689.694746 C218,700.536184 221.648204,709.067693 229.017738,715.356388 C236.266065,721.599005 246.864089,724.73033 260.751707,724.73033 L437.321997,724.73033 L521.649411,724.73033 L529.634991,724.73033 C544.259864,724.73033 555.140368,721.502842 562.263482,715.032838 C569.398617,708.600899 572.940641,700.14552 572.940641,689.694746 C572.940641,679.24798 569.328497,670.854705 562.117233,664.481867" id="path3379" fill="#E0483D" transform="translate(512.000000, 512.365165) scale(1, -1) translate(-512.000000, -512.365165) "></path>
        </g>
    </g>
</svg>