<?xml version="1.0" encoding="UTF-8" standalone="no"?>
<svg
   xmlns:dc="http://purl.org/dc/elements/1.1/"
   xmlns:cc="http://creativecommons.org/ns#"
   xmlns:rdf="http://www.w3.org/1999/02/22-rdf-syntax-ns#"
   xmlns:svg="http://www.w3.org/2000/svg"
   xmlns="http://www.w3.org/2000/svg"
   viewBox="0 0 1365.3333 1365.3333"
   height="1365.3333"
   width="1365.3333"
   xml:space="preserve"
   id="svg5465"
   version="1.1"><metadata
     id="metadata5471"><rdf:RDF><cc:Work
         rdf:about=""><dc:format>image/svg+xml</dc:format><dc:type
           rdf:resource="http://purl.org/dc/dcmitype/StillImage" /><dc:title></dc:title></cc:Work></rdf:RDF></metadata><defs
     id="defs5469"><clipPath
       id="clipPath5481"
       clipPathUnits="userSpaceOnUse"><path
         id="path5479"
         d="M 0,1024 H 1024 V 0 H 0 Z" /></clipPath></defs><g
     transform="matrix(1.3333333,0,0,-1.3333333,0,1365.3333)"
     id="g5473"><g
       id="g5475"><g
         clip-path="url(#clipPath5481)"
         id="g5477"><g
           transform="translate(933,190)"
           id="g5483"><path
             id="path5485"
             style="fill:#606162;fill-opacity:1;fill-rule:nonzero;stroke:none"
             d="m 0,0 c 0,-55.229 -44.771,-100 -100,-100 h -643 c -55.229,0 -100,44.771 -100,100 v 643 c 0,55.229 44.771,100 100,100 h 643 C -44.771,743 0,698.229 0,643 Z" /></g><g
           transform="translate(805,288)"
           id="g5487"><path
             id="path5489"
             style="fill:#606162;fill-opacity:1;fill-rule:nonzero;stroke:none"
             d="m 0,0 c 0,-38.66 -31.34,-70 -70,-70 h -447 c -38.66,0 -70,31.34 -70,70 v 447 c 0,38.66 31.34,70 70,70 h 447 c 38.66,0 70,-31.34 70,-70 z" /></g><g
           transform="translate(558.0088,656.1118)"
           id="g5491"><path
             id="path5493"
             style="fill:#ffffff;fill-opacity:1;fill-rule:evenodd;stroke:none"
             d="m 0,0 c 68.092,-16.461 139.93,-86.812 130.514,-188.85 -8.498,-92.098 -88.092,-162.003 -181.14,-160.258 -90.718,1.701 -167.606,74.793 -173.346,165.125 -6.387,100.547 65.757,168.719 130.8,183.798 0,-16.403 0.193,-32.642 -0.266,-48.864 -0.054,-1.845 -3.503,-4.168 -5.846,-5.287 -34.258,-16.352 -57.818,-42.265 -69.374,-78.464 -23.688,-74.184 24.931,-152.602 101.789,-164.666 72.092,-11.316 137.547,37.662 147.287,110.203 7.437,55.408 -22.369,109.063 -73.99,132.629 -4.813,2.197 -6.735,4.559 -6.576,9.999 C 0.281,-29.965 0,-15.274 0,0" /></g><g
           transform="translate(486.2246,716.0132)"
           id="g5495"><path
             id="path5497"
             style="fill:#ffffff;fill-opacity:1;fill-rule:evenodd;stroke:none"
             d="m 0,0 c 16.308,0 31.884,0.086 47.451,-0.159 1.288,-0.02 3.046,-2.071 3.675,-3.563 0.65,-1.547 0.223,-3.56 0.223,-5.369 0.005,-78.512 0.005,-157.025 0.002,-235.537 0,-9.428 -0.017,-9.434 -9.737,-9.436 -13.735,-0.004 -27.468,-0.002 -41.614,-0.002 z" /></g></g></g></g></svg>