<?xml version="1.0" encoding="UTF-8" standalone="no"?>
<svg
   xmlns:dc="http://purl.org/dc/elements/1.1/"
   xmlns:cc="http://creativecommons.org/ns#"
   xmlns:rdf="http://www.w3.org/1999/02/22-rdf-syntax-ns#"
   xmlns:svg="http://www.w3.org/2000/svg"
   xmlns="http://www.w3.org/2000/svg"
   viewBox="0 0 1365.3333 1365.3333"
   height="1365.3333"
   width="1365.3333"
   xml:space="preserve"
   id="svg5533"
   version="1.1"><metadata
     id="metadata5539"><rdf:RDF><cc:Work
         rdf:about=""><dc:format>image/svg+xml</dc:format><dc:type
           rdf:resource="http://purl.org/dc/dcmitype/StillImage" /><dc:title></dc:title></cc:Work></rdf:RDF></metadata><defs
     id="defs5537"><clipPath
       id="clipPath5549"
       clipPathUnits="userSpaceOnUse"><path
         id="path5547"
         d="M 0,1024 H 1024 V 0 H 0 Z" /></clipPath><clipPath
       id="clipPath5561"
       clipPathUnits="userSpaceOnUse"><path
         id="path5559"
         d="M 0,1024 H 1024 V 0 H 0 Z" /></clipPath></defs><g
     transform="matrix(1.3333333,0,0,-1.3333333,0,1365.3333)"
     id="g5541"><g
       id="g5543"><g
         clip-path="url(#clipPath5549)"
         id="g5545"><g
           transform="translate(933,190)"
           id="g5551"><path
             id="path5553"
             style="fill:#56367b;fill-opacity:1;fill-rule:nonzero;stroke:none"
             d="m 0,0 c 0,-55.229 -44.771,-100 -100,-100 h -643 c -55.229,0 -100,44.771 -100,100 v 643 c 0,55.229 44.771,100 100,100 h 643 C -44.771,743 0,698.229 0,643 Z" /></g></g></g><g
       id="g5555"><g
         clip-path="url(#clipPath5561)"
         id="g5557"><g
           transform="translate(518.1104,402.0781)"
           id="g5563"><path
             id="path5565"
             style="fill:#eaeaea;fill-opacity:1;fill-rule:evenodd;stroke:none"
             d="m 0,0 c 17.403,-36.68 20.99,-75.326 15.667,-115.022 -1.794,-13.381 -5.216,-26.543 -8.125,-40.96 3.092,4.077 6.277,7.511 8.591,11.458 12.791,21.826 16.331,46.343 19.629,70.778 C 41.107,-34.142 34.069,3.19 13.927,37.938 11.048,42.905 9.073,48.413 6.866,53.746 6.083,55.644 5.854,57.771 5.094,60.971 38.511,6.243 60.222,-31.897 30.396,-134.977 c 0.903,1.56 2.116,3.019 2.664,4.692 19.935,60.938 30.185,122.555 9.575,185.394 -5.458,16.634 -14.284,32.152 -21.376,48.263 -5.442,12.362 -10.586,24.852 -14.824,37.521 8.936,-16.558 17.94,-33.081 26.796,-49.683 26.903,-50.436 32.65,-103.932 22.68,-159.591 -2.887,-16.124 -6.373,-32.143 -8.529,-48.757 1.849,4.744 4.171,9.364 5.48,14.252 20.208,75.298 20.832,150.662 -3.488,224.927 -7.281,22.23 -21.551,42.123 -32.128,63.331 -9.081,18.207 -8.889,37.904 -9.016,57.445 0.902,0.15 1.804,0.298 2.707,0.447 1.864,-11.423 4.089,-22.8 5.503,-34.278 1.934,-15.701 6.627,-29.977 16.314,-42.881 22.11,-29.455 35.636,-62.834 43.089,-98.776 0.299,-1.453 0.862,-2.852 0.928,-3.069 4.112,2.803 7.826,6.484 12.294,8.187 21.772,8.303 43.745,16.077 67.707,24.784 -10.625,10.953 -19.881,22.765 -31.336,31.791 -20.043,15.792 -41.998,29.158 -62.04,44.949 -11.029,8.688 -21.092,19.324 -29.234,30.76 -9.007,12.656 -11.634,27.912 -8.347,41.625 -14.86,7.5 -28.823,14.545 -42.479,21.437 8.358,29.688 16.221,57.617 24.083,85.546 0.868,-0.221 1.737,-0.441 2.604,-0.662 -0.877,-6.714 -1.752,-13.428 -2.728,-20.903 8.201,10.625 15.381,20.636 23.352,29.973 4.371,5.122 10.269,8.91 15.106,13.676 2.984,2.941 5.277,6.587 7.868,9.926 3.413,4.395 6.817,8.798 11.964,11.975 -8.907,-17.08 -17.816,-34.16 -26.723,-51.241 0.633,-0.634 1.268,-1.27 1.904,-1.904 5.549,4.968 10.859,10.25 16.751,14.773 2.963,2.274 7.26,2.738 10.458,4.794 3.671,2.36 7.065,5.317 10.093,8.48 5.519,5.757 9.998,13.016 19.359,12.08 C 87.892,370.095 78.848,355.892 69.059,342.223 59.165,328.409 48.021,315.478 38.396,301.491 31.372,291.282 25.735,280.084 20.041,269.04 c -0.616,-1.198 2.006,-5.197 4.01,-6.328 2.478,-1.4 5.869,-1.428 8.887,-1.575 8.227,-0.401 10.114,-6.829 8.285,-12.093 -8.252,-23.74 3.723,-40.276 19.452,-54.572 10.021,-9.11 22.173,-15.995 33.779,-23.217 27.54,-17.132 53.504,-36.078 73.9,-61.702 62.197,-78.149 45.633,-194.756 -28.217,-247.787 -31.473,-22.602 -66.863,-34.723 -105.049,-38.455 -45.992,-4.496 -91.267,-1.173 -134.353,17.289 -123.241,52.813 -135.698,210.192 -46.189,289.049 18.851,16.608 40.3,30.277 60.637,45.184 9.069,6.648 18.676,12.596 27.465,19.583 18.367,14.599 24.654,33.636 17.709,56.103 -3.569,11.548 -9.003,22.513 -13.308,33.85 -0.815,2.146 -0.277,4.806 -0.363,7.229 2.172,-0.411 4.691,-0.257 6.45,-1.338 5.354,-3.29 10.413,-7.059 14.901,-12.171 -2.717,0.572 -5.433,1.143 -9.959,2.096 2.083,-4.411 3.681,-7.761 5.252,-11.123 19.441,-41.587 12.091,-69.917 -25.443,-96.456 -17.882,-12.644 -36.784,-23.925 -54.094,-37.288 -41.416,-31.975 -67.026,-73.203 -71.18,-126.486 -5.646,-72.414 37.292,-136.641 106.364,-158.457 0.51,-0.161 1.134,0.037 3.716,2.087 -1.61,0.642 -3.489,0.947 -4.789,1.98 -16.651,13.24 -30.433,29.155 -40.419,47.813 -9.458,17.675 -18.095,35.879 -25.713,54.419 -10.673,25.977 -4.717,50.82 8.087,74.535 11.768,21.792 28.109,39.781 47.808,54.52 14.838,11.104 30.464,21.155 47.011,30.126 -4.846,-3.493 -9.938,-6.692 -14.497,-10.525 C -78.861,89.315 -98.612,74 -116.414,56.692 -130.691,42.808 -140.465,25.06 -145.021,5.436 c -2.217,-9.548 -3.892,-20.38 -1.644,-29.615 10.876,-44.673 31.111,-84.497 66.596,-114.988 20.879,-17.939 45.573,-26.973 73.299,-27.178 -3.771,0.691 -7.558,1.297 -11.308,2.082 -35.294,7.381 -58.232,30.14 -74.568,60.674 -5.584,10.44 -10.285,21.402 -14.735,32.391 -7.348,18.139 -4.758,35.802 3.777,52.936 8.876,17.822 21.91,32.137 37.696,43.963 8.169,6.118 16.848,11.555 26.314,15.904 -7.48,-5.808 -15.037,-11.519 -22.425,-17.442 -16.85,-13.506 -30.872,-29.256 -39.391,-49.465 -5.831,-13.831 -6.483,-27.588 -1.298,-41.779 9.073,-24.836 20.71,-48.096 39.979,-66.772 15.652,-15.168 34.48,-23.36 57.004,-25.543 -29.273,20.306 -35.866,50.768 -37.607,81.886 -1.444,25.823 11.445,47.2 31.67,63.786 -2.885,-4.019 -5.687,-8.1 -8.667,-12.048 -28.02,-37.128 -20.083,-77.66 3.706,-115.726 0.637,-1.021 1.434,-2.088 2.422,-2.707 3.763,-2.362 7.636,-4.553 11.468,-6.806 2.136,3.794 5.263,7.344 6.256,11.418 9.547,39.076 10.492,78.239 0.542,117.471 -1.859,7.331 -2.638,14.937 -3.917,22.415 z" /></g><g
           transform="translate(518.2588,402.3711)"
           id="g5567"><path
             id="path5569"
             style="fill:#eaeaea;fill-opacity:1;fill-rule:evenodd;stroke:none"
             d="m 0,0 c -0.596,-5.394 -1.686,-10.789 -1.707,-16.187 -0.152,-37.098 -0.08,-74.198 -0.08,-111.297 h -2.355 v 348.736 c 0.807,0.002 1.614,0.002 2.421,0.005 0,-45.906 -0.183,-91.809 0.068,-137.714 0.152,-27.96 0.97,-55.915 1.498,-83.854 C -0.148,-0.293 0,0 0,0" /></g></g></g></g></svg>