<?xml version="1.0" encoding="UTF-8" standalone="no"?>
<svg
   xmlns:dc="http://purl.org/dc/elements/1.1/"
   xmlns:cc="http://creativecommons.org/ns#"
   xmlns:rdf="http://www.w3.org/1999/02/22-rdf-syntax-ns#"
   xmlns:svg="http://www.w3.org/2000/svg"
   xmlns="http://www.w3.org/2000/svg"
   viewBox="0 0 1365.3333 1365.3333"
   height="1365.3333"
   width="1365.3333"
   xml:space="preserve"
   id="svg2"
   version="1.1"><metadata
     id="metadata8"><rdf:RDF><cc:Work
         rdf:about=""><dc:format>image/svg+xml</dc:format><dc:type
           rdf:resource="http://purl.org/dc/dcmitype/StillImage" /><dc:title></dc:title></cc:Work></rdf:RDF></metadata><defs
     id="defs6"><clipPath
       id="clipPath18"
       clipPathUnits="userSpaceOnUse"><path
         id="path16"
         d="M 0,1024 H 1024 V 0 H 0 Z" /></clipPath><clipPath
       id="clipPath30"
       clipPathUnits="userSpaceOnUse"><path
         id="path28"
         d="M 0,1024 H 1024 V 0 H 0 Z" /></clipPath></defs><g
     transform="matrix(1.3333333,0,0,-1.3333333,0,1365.3333)"
     id="g10"><g
       id="g12"><g
         clip-path="url(#clipPath18)"
         id="g14"><g
           transform="translate(933,190)"
           id="g20"><path
             id="path22"
             style="fill:#01608a;fill-opacity:1;fill-rule:nonzero;stroke:none"
             d="m 0,0 c 0,-55.229 -44.772,-100 -100,-100 h -643 c -55.229,0 -100,44.771 -100,100 v 643 c 0,55.229 44.771,100 100,100 h 643 C -44.772,743 0,698.229 0,643 Z" /></g></g></g><g
       transform="translate(421.1093,218.745)"
       id="g36"><path
         id="path38"
         style="fill:#e38b26;fill-opacity:1;fill-rule:nonzero;stroke:none"
         d="M 0,0 H 182.293 L 327.889,328.224 241.893,286.255 H -63.598 l -83.539,42.123 z" /></g><g
       transform="translate(358.3305,504.9999)"
       id="g40"><path
         id="path42"
         style="fill:#ecc13e;fill-opacity:1;fill-rule:nonzero;stroke:none"
         d="m 0,0 90.233,-286.255 h 126.94 L 305.491,0 Z" /></g><g
       transform="translate(366.8364,503.7597)"
       id="g44"><path
         id="path46"
         style="fill:#000000;fill-opacity:1;fill-rule:nonzero;stroke:none"
         d="M 0,0 V -25.744 L 4.793,-40.95 H 40.95 l 0,40.95 z" /></g><g
       transform="translate(384.5379,421.8588)"
       id="g48"><path
         id="path50"
         style="fill:#000000;fill-opacity:1;fill-rule:nonzero;stroke:none"
         d="m 0,0 12.908,-40.95 h 10.34 V 0 Z" /></g><path
       id="path52"
       style="fill:#000000;fill-opacity:1;fill-rule:nonzero;stroke:none"
       d="m 407.786,421.859 h 40.951 v 40.951 h -40.951 z" /><g
       transform="translate(407.7864,380.9088)"
       id="g54"><path
         id="path56"
         style="fill:#000000;fill-opacity:1;fill-rule:nonzero;stroke:none"
         d="m 0,0 v -32.804 l 2.568,-8.147 H 40.951 V 0 Z" /></g><path
       id="path58"
       style="fill:#000000;fill-opacity:1;fill-rule:nonzero;stroke:none"
       d="m 448.737,462.81 h 40.95 v 40.95 h -40.95 z" /><path
       id="path60"
       style="fill:#000000;fill-opacity:1;fill-rule:nonzero;stroke:none"
       d="m 448.737,380.909 h 40.95 v 40.95 h -40.95 z" /><path
       id="path62"
       style="fill:#000000;fill-opacity:1;fill-rule:nonzero;stroke:none"
       d="m 489.687,421.859 h 40.951 v 40.951 h -40.951 z" /><path
       id="path64"
       style="fill:#000000;fill-opacity:1;fill-rule:nonzero;stroke:none"
       d="m 489.687,339.958 h 40.951 v 40.951 h -40.951 z" /><path
       id="path66"
       style="fill:#000000;fill-opacity:1;fill-rule:nonzero;stroke:none"
       d="m 531.281,462.81 h 40.95 v 40.95 h -40.95 z" /><path
       id="path68"
       style="fill:#000000;fill-opacity:1;fill-rule:nonzero;stroke:none"
       d="m 531.281,380.909 h 40.95 v 40.95 h -40.95 z" /><path
       id="path70"
       style="fill:#000000;fill-opacity:1;fill-rule:nonzero;stroke:none"
       d="m 572.231,421.859 h 40.951 v 40.951 h -40.951 z" /><g
       transform="translate(572.2308,380.9088)"
       id="g72"><path
         id="path74"
         style="fill:#000000;fill-opacity:1;fill-rule:nonzero;stroke:none"
         d="m 0,0 v -40.951 h 40.67 l 0.281,0.91 V 0 Z" /></g><g
       transform="translate(613.1817,503.7597)"
       id="g76"><path
         id="path78"
         style="fill:#000000;fill-opacity:1;fill-rule:nonzero;stroke:none"
         d="m 0,0 v -40.95 h 37.622 l 3.328,10.785 V 0 Z" /></g><g
       transform="translate(613.1817,421.8588)"
       id="g80"><path
         id="path82"
         style="fill:#000000;fill-opacity:1;fill-rule:nonzero;stroke:none"
         d="M 0,0 V -40.95 H 12.354 L 24.988,0 Z" /></g><g
       transform="translate(702.7057,488.4173)"
       id="g84"><path
         id="path86"
         style="fill:#000000;fill-opacity:1;fill-rule:nonzero;stroke:none"
         d="m 0,0 -23.891,-11.856 9.416,39.313 27.618,13.677 z" /></g><g
       transform="translate(654.2144,464.7203)"
       id="g88"><path
         id="path90"
         style="fill:#000000;fill-opacity:1;fill-rule:nonzero;stroke:none"
         d="m 0,0 -3.015,-2.082 0.558,33.477 2.487,7.473 z" /></g><g
       transform="translate(669.5329,437.5653)"
       id="g92"><path
         id="path94"
         style="fill:#000000;fill-opacity:1;fill-rule:nonzero;stroke:none"
         d="m 0,0 -22.365,-11.03 7.074,38.151 24.573,11.875 z" /></g><g
       transform="translate(641.8421,389.2771)"
       id="g96"><path
         id="path98"
         style="fill:#000000;fill-opacity:1;fill-rule:nonzero;stroke:none"
         d="m 0,0 -16.532,-8.334 13.106,40.632 8.752,4.961 z" /></g><g
       transform="translate(709.8545,457.0417)"
       id="g100"><path
         id="path102"
         style="fill:#000000;fill-opacity:1;fill-rule:nonzero;stroke:none"
         d="M 0,0 -17.924,-8.975 -6.881,31.259 19.667,44.007 Z" /></g><g
       transform="translate(743.0607,542.9646)"
       id="g104"><path
         id="path106"
         style="fill:#000000;fill-opacity:1;fill-rule:nonzero;stroke:none"
         d="M 0,0 -13.058,-41.151 6.705,3.383 Z" /></g><g
       transform="translate(655.6459,363.304)"
       id="g108"><path
         id="path110"
         style="fill:#000000;fill-opacity:1;fill-rule:nonzero;stroke:none"
         d="M 0,0 -21.06,-11.229 -13.99,25.825 6.457,37.12 Z" /></g><g
       transform="translate(681.222,410.2652)"
       id="g112"><path
         id="path114"
         style="fill:#000000;fill-opacity:1;fill-rule:nonzero;stroke:none"
         d="m 0,0 -19.119,-9.842 7.43,37.142 22.397,10.501 z" /></g><g
       transform="translate(671.9595,372.2461)"
       id="g116"><path
         id="path118"
         style="fill:#000000;fill-opacity:1;fill-rule:nonzero;stroke:none"
         d="M 0,0 V 0 L 9.195,38.321 19.38,43.365 Z" /></g><g
       transform="translate(320.1852,488.6003)"
       id="g120"><path
         id="path122"
         style="fill:#000000;fill-opacity:1;fill-rule:nonzero;stroke:none"
         d="M 0,0 23.891,-11.856 14.475,27.457 -13.143,41.134 Z" /></g><g
       transform="translate(367.0109,464.869)"
       id="g124"><path
         id="path126"
         style="fill:#000000;fill-opacity:1;fill-rule:nonzero;stroke:none"
         d="M 0,0 4.173,-2.048 2.485,31.43 -0.003,34.591 Z" /></g><g
       transform="translate(353.358,437.7483)"
       id="g128"><path
         id="path130"
         style="fill:#000000;fill-opacity:1;fill-rule:nonzero;stroke:none"
         d="M 0,0 22.365,-11.03 15.291,27.121 -9.282,38.996 Z" /></g><g
       transform="translate(381.0488,389.4601)"
       id="g132"><path
         id="path134"
         style="fill:#000000;fill-opacity:1;fill-rule:nonzero;stroke:none"
         d="M 0,0 16.532,-8.334 3.426,32.298 -5.326,37.259 Z" /></g><g
       transform="translate(313.0364,457.2248)"
       id="g136"><path
         id="path138"
         style="fill:#000000;fill-opacity:1;fill-rule:nonzero;stroke:none"
         d="M 0,0 17.924,-8.975 6.882,31.259 -19.667,44.007 Z" /></g><g
       transform="translate(292.8879,501.9975)"
       id="g140"><path
         id="path142"
         style="fill:#000000;fill-opacity:1;fill-rule:nonzero;stroke:none"
         d="m 0,0 -13.058,41.15 -6.704,3.384 z" /></g><g
       transform="translate(367.245,363.4871)"
       id="g144"><path
         id="path146"
         style="fill:#000000;fill-opacity:1;fill-rule:nonzero;stroke:none"
         d="M 0,0 21.06,-11.229 13.99,25.825 -6.457,37.12 Z" /></g><g
       transform="translate(341.6688,410.4482)"
       id="g148"><path
         id="path150"
         style="fill:#000000;fill-opacity:1;fill-rule:nonzero;stroke:none"
         d="M 0,0 19.119,-9.842 11.689,27.3 -10.708,37.801 Z" /></g><g
       transform="translate(350.9314,372.4291)"
       id="g152"><path
         id="path154"
         style="fill:#000000;fill-opacity:1;fill-rule:nonzero;stroke:none"
         d="M 0,0 V 0 L -9.195,38.321 -19.38,43.365 Z" /></g><path
       id="path156"
       style="fill:#858585;fill-opacity:1;fill-rule:nonzero;stroke:none"
       d="M 409,219 H 614 V 340 H 409 Z" /><g
       transform="translate(350,246.7598)"
       id="g158"><path
         id="path160"
         style="fill:#505050;fill-opacity:1;fill-rule:nonzero;stroke:none"
         d="M 0,0 V 125.486 L 59,94.115 V -29.17 Z" /></g><g
       transform="translate(614,340.3241)"
       id="g162"><path
         id="path164"
         style="fill:#505050;fill-opacity:1;fill-rule:nonzero;stroke:none"
         d="M 0,0 58,31.922 V -93.564 l -58,-28.62 z" /></g><path
       id="path166"
       style="fill:#9beae6;fill-opacity:1;fill-rule:nonzero;stroke:none"
       d="M 360,505 H 663 V 686 H 360 Z" /><g
       transform="translate(274,546.3481)"
       id="g168"><path
         id="path170"
         style="fill:#87c4bf;fill-opacity:1;fill-rule:nonzero;stroke:none"
         d="M 0,0 V 186.734 L 86,140.05 V -43.407 Z" /></g><g
       transform="translate(663,685.5797)"
       id="g172"><path
         id="path174"
         style="fill:#87c4bf;fill-opacity:1;fill-rule:nonzero;stroke:none"
         d="M 0,0 87,47.502 V -139.232 L 0,-181.82 Z" /></g><g
       transform="translate(345.6456,676.7975)"
       id="g176"><path
         id="path178"
         style="fill:#505050;fill-opacity:1;fill-rule:nonzero;stroke:none"
         d="M 0,0 -95.294,52.231 28.376,92.094 H 303.2 L 426.871,52.231 331.576,0 Z" /></g><path
       id="path180"
       style="fill:#858585;fill-opacity:1;fill-rule:nonzero;stroke:none"
       d="M 677.222,676.797 H 345.646 v 36.582 h 331.576 z" /><g
       transform="translate(676.1975,676.7975)"
       id="g182"><path
         id="path184"
         style="fill:#505050;fill-opacity:1;fill-rule:nonzero;stroke:none"
         d="M 0,0 96.319,52.231 V 88.813 L 0,36.582 Z" /></g><g
       transform="translate(346.6702,676.7975)"
       id="g186"><path
         id="path188"
         style="fill:#505050;fill-opacity:1;fill-rule:nonzero;stroke:none"
         d="M 0,0 -96.319,52.231 V 88.813 L 0,36.582 Z" /></g><g
       transform="translate(345.6456,713.3798)"
       id="g190"><path
         id="path192"
         style="fill:#d1d1d1;fill-opacity:1;fill-rule:nonzero;stroke:none"
         d="M 0,0 -95.294,52.231 28.376,92.094 H 303.2 L 426.871,52.231 331.576,0 Z" /></g></g></svg>