<?xml version="1.0" encoding="UTF-8" standalone="no"?>
<svg
   xmlns:dc="http://purl.org/dc/elements/1.1/"
   xmlns:cc="http://creativecommons.org/ns#"
   xmlns:rdf="http://www.w3.org/1999/02/22-rdf-syntax-ns#"
   xmlns:svg="http://www.w3.org/2000/svg"
   xmlns="http://www.w3.org/2000/svg"
   viewBox="0 0 1365.3333 1365.3333"
   height="1365.3333"
   width="1365.3333"
   xml:space="preserve"
   id="svg5855"
   version="1.1"><metadata
     id="metadata5861"><rdf:RDF><cc:Work
         rdf:about=""><dc:format>image/svg+xml</dc:format><dc:type
           rdf:resource="http://purl.org/dc/dcmitype/StillImage" /><dc:title></dc:title></cc:Work></rdf:RDF></metadata><defs
     id="defs5859"><clipPath
       id="clipPath5871"
       clipPathUnits="userSpaceOnUse"><path
         id="path5869"
         d="M 0,1024 H 1024 V 0 H 0 Z" /></clipPath></defs><g
     transform="matrix(1.3333333,0,0,-1.3333333,0,1365.3333)"
     id="g5863"><g
       id="g5865"><g
         clip-path="url(#clipPath5871)"
         id="g5867"><g
           transform="translate(934,190)"
           id="g5873"><path
             id="path5875"
             style="fill:#6455b3;fill-opacity:1;fill-rule:nonzero;stroke:none"
             d="m 0,0 c 0,-55.229 -44.771,-100 -100,-100 h -643 c -55.229,0 -100,44.771 -100,100 v 643 c 0,55.229 44.771,100 100,100 h 643 C -44.771,743 0,698.229 0,643 Z" /></g><g
           transform="translate(673.917,430.666)"
           id="g5877"><path
             id="path5879"
             style="fill:#aba7d8;fill-opacity:1;fill-rule:evenodd;stroke:none"
             d="m 0,0 c -35.682,0 -64.668,-28.986 -64.668,-64.666 0,-35.68 28.986,-64.666 64.668,-64.666 35.68,0 64.666,28.986 64.666,64.666 C 64.666,-28.986 35.68,0 0,0 m -291,97.002 h -115.204 l 44.459,76.791 H -291 Z m 32.333,129.332 h -121.25 l -72.75,-129.332 19.214,-129.336 h 59.803 c 12.978,33.061 44.981,56.586 82.65,56.586 25.576,0 48.468,-10.959 64.665,-28.231 v 198.974 c 0,31.339 -32.332,31.339 -32.332,31.339 M -291,0 c -35.696,0 -64.667,-28.986 -64.667,-64.666 0,-35.68 28.971,-64.666 64.667,-64.666 35.696,0 64.665,28.986 64.665,64.666 C -226.335,-28.986 -255.304,0 -291,0 M 64.666,291 h -193.999 c -64.668,0 -64.668,-64.666 -64.668,-64.666 V -32.334 H -82.633 C -69.655,0.727 -37.639,24.252 0,24.252 c 37.637,0 69.655,-23.525 82.633,-56.586 h 46.7 V 226.334 C 129.333,291 64.666,291 64.666,291" /></g></g></g></g></svg>