<?xml version="1.0" encoding="UTF-8" standalone="no"?>
<svg
   xmlns:dc="http://purl.org/dc/elements/1.1/"
   xmlns:cc="http://creativecommons.org/ns#"
   xmlns:rdf="http://www.w3.org/1999/02/22-rdf-syntax-ns#"
   xmlns:svg="http://www.w3.org/2000/svg"
   xmlns="http://www.w3.org/2000/svg"
   viewBox="0 0 1365.3333 1365.3333"
   height="1365.3333"
   width="1365.3333"
   xml:space="preserve"
   id="svg5763"
   version="1.1"><metadata
     id="metadata5769"><rdf:RDF><cc:Work
         rdf:about=""><dc:format>image/svg+xml</dc:format><dc:type
           rdf:resource="http://purl.org/dc/dcmitype/StillImage" /><dc:title></dc:title></cc:Work></rdf:RDF></metadata><defs
     id="defs5767"><clipPath
       id="clipPath5779"
       clipPathUnits="userSpaceOnUse"><path
         id="path5777"
         d="M 0,1024 H 1024 V 0 H 0 Z" /></clipPath></defs><g
     transform="matrix(1.3333333,0,0,-1.3333333,0,1365.3333)"
     id="g5771"><g
       id="g5773"><g
         clip-path="url(#clipPath5779)"
         id="g5775"><g
           transform="translate(933,190)"
           id="g5781"><path
             id="path5783"
             style="fill:#efefef;fill-opacity:1;fill-rule:nonzero;stroke:none"
             d="m 0,0 c 0,-55.228 -44.772,-100 -100,-100 h -643 c -55.228,0 -100,44.772 -100,100 v 643 c 0,55.228 44.772,100 100,100 h 643 C -44.772,743 0,698.228 0,643 Z" /></g><g
           transform="translate(568.494,716.473)"
           id="g5785"><path
             id="path5787"
             style="fill:#c9c9c9;fill-opacity:1;fill-rule:nonzero;stroke:none"
             d="M 0,0 H 24.115 L -56.322,91.115 -136.76,0 h 24.993 c 4.434,0 8.028,-3.134 8.028,-7 v -394.103 c 0,-3.866 -3.594,-7 -8.028,-7 h -24.993 l 80.438,-91.115 80.437,91.115 H 0 c -4.434,0 -8.028,3.134 -8.028,7 V -7 c 0,3.866 3.594,7 8.028,7" /></g><g
           transform="translate(680.8254,529.7582)"
           id="g5789"><path
             id="path5791"
             style="fill:#ce5451;fill-opacity:1;fill-rule:nonzero;stroke:none"
             d="m 0,0 c 0,0 -126.373,-4.036 -168.497,-4.036 -42.124,0 -168.497,4.036 -168.497,4.036 -15.764,0 -28.544,10.577 -28.544,23.624 v 48.959 c 0,13.047 12.78,23.623 28.544,23.623 0,0 126.133,4.036 168.177,4.036 C -126.613,100.242 0,96.206 0,96.206 15.764,96.206 28.544,85.63 28.544,72.583 V 23.624 C 28.544,10.577 15.764,0 0,0" /></g><g
           transform="translate(706.469,674.4645)"
           id="g5793"><path
             id="path5795"
             style="fill:#c9c9c9;fill-opacity:1;fill-rule:nonzero;stroke:none"
             d="m 0,0 h -99.636 c -3.988,0 -7.224,3.235 -7.224,7.229 0,3.995 3.236,7.23 7.224,7.23 H 0 c 3.988,0 7.224,-3.235 7.224,-7.23 C 7.224,3.235 3.988,0 0,0" /></g><g
           transform="translate(706.469,464.1324)"
           id="g5797"><path
             id="path5799"
             style="fill:#c9c9c9;fill-opacity:1;fill-rule:nonzero;stroke:none"
             d="m 0,0 h -99.636 c -3.988,0 -7.224,3.235 -7.224,7.229 0,3.995 3.236,7.23 7.224,7.23 H 0 c 3.988,0 7.224,-3.235 7.224,-7.23 C 7.224,3.235 3.988,0 0,0" /></g><g
           transform="translate(706.469,358.9664)"
           id="g5801"><path
             id="path5803"
             style="fill:#c9c9c9;fill-opacity:1;fill-rule:nonzero;stroke:none"
             d="m 0,0 h -99.636 c -3.988,0 -7.224,3.235 -7.224,7.229 0,3.995 3.236,7.23 7.224,7.23 H 0 c 3.988,0 7.224,-3.235 7.224,-7.23 C 7.224,3.235 3.988,0 0,0" /></g></g></g></g></svg>