<?xml version="1.0" encoding="UTF-8" standalone="no"?>
<svg
   xmlns:dc="http://purl.org/dc/elements/1.1/"
   xmlns:cc="http://creativecommons.org/ns#"
   xmlns:rdf="http://www.w3.org/1999/02/22-rdf-syntax-ns#"
   xmlns:svg="http://www.w3.org/2000/svg"
   xmlns="http://www.w3.org/2000/svg"
   viewBox="0 0 1365.3333 1365.3333"
   height="1365.3333"
   width="1365.3333"
   xml:space="preserve"
   id="svg5805"
   version="1.1"><metadata
     id="metadata5811"><rdf:RDF><cc:Work
         rdf:about=""><dc:format>image/svg+xml</dc:format><dc:type
           rdf:resource="http://purl.org/dc/dcmitype/StillImage" /><dc:title></dc:title></cc:Work></rdf:RDF></metadata><defs
     id="defs5809"><clipPath
       id="clipPath5821"
       clipPathUnits="userSpaceOnUse"><path
         id="path5819"
         d="M 0,1024 H 1024 V 0 H 0 Z" /></clipPath></defs><g
     transform="matrix(1.3333333,0,0,-1.3333333,0,1365.3333)"
     id="g5813"><g
       id="g5815"><g
         clip-path="url(#clipPath5821)"
         id="g5817"><g
           transform="translate(933,190)"
           id="g5823"><path
             id="path5825"
             style="fill:#adadad;fill-opacity:1;fill-rule:nonzero;stroke:none"
             d="m 0,0 c 0,-55.229 -44.772,-100 -100,-100 h -643 c -55.229,0 -100,44.771 -100,100 v 643 c 0,55.229 44.771,100 100,100 h 643 C -44.772,743 0,698.229 0,643 Z" /></g><g
           transform="translate(321.7649,222.5233)"
           id="g5827"><path
             id="path5829"
             style="fill:#000000;fill-opacity:1;fill-rule:nonzero;stroke:none"
             d="m 0,0 h 379.537 c 10.906,0 19.746,8.841 19.746,19.747 v 15.14 c 0,10.906 -8.84,19.747 -19.746,19.747 H 0 c -10.906,0 -19.747,-8.841 -19.747,-19.747 V 19.747 C -19.747,8.841 -10.906,0 0,0" /></g><g
           transform="translate(323.7841,270.273)"
           id="g5831"><path
             id="path5833"
             style="fill:#000000;fill-opacity:1;fill-rule:nonzero;stroke:none"
             d="m 0,0 378.83,23.147 c 10.886,0.665 19.171,10.029 18.506,20.914 l -0.923,15.112 c -0.666,10.886 -10.029,19.171 -20.915,18.506 L -3.332,54.532 C -14.217,53.867 -22.503,44.503 -21.838,33.618 l 0.924,-15.112 C -20.249,7.62 -10.885,-0.665 0,0" /></g><g
           transform="translate(331.8995,309.3968)"
           id="g5835"><path
             id="path5837"
             style="fill:#000000;fill-opacity:1;fill-rule:nonzero;stroke:none"
             d="m 0,0 362.625,63.782 c 10.42,1.833 17.335,12.026 15.446,22.767 l -2.623,14.911 c -1.889,10.741 -11.868,17.963 -22.287,16.13 L -9.464,53.808 C -19.884,51.975 -26.8,41.782 -24.91,31.041 L -22.288,16.13 C -20.398,5.389 -10.42,-1.833 0,0" /></g><g
           transform="translate(336.9248,357.1938)"
           id="g5839"><path
             id="path5841"
             style="fill:#000000;fill-opacity:1;fill-rule:nonzero;stroke:none"
             d="m 0,0 322.474,82.933 c 9.266,2.383 14.806,11.982 12.373,21.441 l -3.377,13.131 c -2.432,9.459 -11.916,15.195 -21.182,12.812 L -12.186,47.384 C -21.452,45.001 -26.992,35.401 -24.559,25.943 l 3.377,-13.132 C -18.75,3.353 -9.266,-2.383 0,0" /></g><g
           transform="translate(508.183,706.4756)"
           id="g5843"><path
             id="path5845"
             style="fill:#000000;fill-opacity:1;fill-rule:nonzero;stroke:none"
             d="m 0,0 c 0,-51.522 -41.767,-93.29 -93.29,-93.29 -51.522,0 -93.289,41.768 -93.289,93.29 0,51.522 41.767,93.29 93.289,93.29 C -41.767,93.29 0,51.522 0,0" /></g><g
           transform="translate(498.8408,468.8903)"
           id="g5847"><path
             id="path5849"
             style="fill:#000000;fill-opacity:1;fill-rule:nonzero;stroke:none"
             d="m 0,0 c -2.988,-13.091 -26.873,-11.813 -26.873,-11.813 -9.331,0 -17.43,6.437 -19.536,15.528 l -37.538,162.033 h 31.328 c 8.325,0 15.55,-5.743 17.429,-13.853 z" /></g><g
           transform="translate(341.2096,745.0688)"
           id="g5851"><path
             id="path5853"
             style="fill:#cccccc;fill-opacity:1;fill-rule:nonzero;stroke:none"
             d="M 0,0 C -29.417,-70.741 42.774,-142.304 106.934,-115.982 0.963,-110.431 0,0 0,0" /></g></g></g></g></svg>