<?xml version="1.0" encoding="UTF-8" standalone="no"?>
<svg
   xmlns:dc="http://purl.org/dc/elements/1.1/"
   xmlns:cc="http://creativecommons.org/ns#"
   xmlns:rdf="http://www.w3.org/1999/02/22-rdf-syntax-ns#"
   xmlns:svg="http://www.w3.org/2000/svg"
   xmlns="http://www.w3.org/2000/svg"
   viewBox="0 0 1365.3333 1365.3333"
   height="1365.3333"
   width="1365.3333"
   xml:space="preserve"
   id="svg5881"
   version="1.1"><metadata
     id="metadata5887"><rdf:RDF><cc:Work
         rdf:about=""><dc:format>image/svg+xml</dc:format><dc:type
           rdf:resource="http://purl.org/dc/dcmitype/StillImage" /><dc:title></dc:title></cc:Work></rdf:RDF></metadata><defs
     id="defs5885"><clipPath
       id="clipPath5897"
       clipPathUnits="userSpaceOnUse"><path
         id="path5895"
         d="M 0,1024 H 1024 V 0 H 0 Z" /></clipPath></defs><g
     transform="matrix(1.3333333,0,0,-1.3333333,0,1365.3333)"
     id="g5889"><g
       id="g5891"><g
         clip-path="url(#clipPath5897)"
         id="g5893"><g
           transform="translate(933,195)"
           id="g5899"><path
             id="path5901"
             style="fill:#3f3f3f;fill-opacity:1;fill-rule:nonzero;stroke:none"
             d="m 0,0 c 0,-55.229 -44.771,-100 -100,-100 h -643 c -55.229,0 -100,44.771 -100,100 v 643 c 0,55.229 44.771,100 100,100 h 643 C -44.771,743 0,698.229 0,643 Z" /></g><g
           transform="translate(297.1221,690)"
           id="g5903"><path
             id="path5905"
             style="fill:#333333;fill-opacity:1;fill-rule:nonzero;stroke:none"
             d="m 0,0 29.939,35 94.939,39 h 152 L 378,53 427.878,24 V -7 l -60,-39.5 L 217.271,-59.814 71.878,-46 Z" /></g><g
           transform="translate(304.0288,663)"
           id="g5907"><path
             id="path5909"
             style="fill:#727272;fill-opacity:1;fill-rule:nonzero;stroke:none"
             d="m 0,0 40.354,-315.841 28.617,-53.065 134,-25.094 126.001,23.666 31.499,18.834 14.117,35.118 L 420.727,5.335 377.006,-14 l -79.035,-12 -90,-7 -112,11 z" /></g><g
           transform="translate(292,718)"
           id="g5911"><path
             id="path5913"
             style="fill:#aaaaaa;fill-opacity:1;fill-rule:nonzero;stroke:none"
             d="M 0,0 C 0,0 40,68 222,68 404,68 429,15 439,0 l -2.5,-18.5 c 0,0 -2.334,-12.333 -8.5,-11.167 C 401.667,9.333 369.5,38 236.5,38 103.5,38 28.667,9.333 13.667,-34 L 10,-36.333 Z" /></g><g
           transform="translate(292,718)"
           id="g5915"><path
             id="path5917"
             style="fill:#c4c4c4;fill-opacity:1;fill-rule:nonzero;stroke:none"
             d="M 0,0 V -41 C 0,-55 37.25,-110 221.25,-110 409.5,-110 439,-55.5 439,-41 V 0 C 439,0 429.402,-77.5 233,-77.5 56,-76.5 10,-25 0,0" /></g><g
           transform="translate(520.334,247.666)"
           id="g5919"><path
             id="path5921"
             style="fill:#c4c4c4;fill-opacity:1;fill-rule:nonzero;stroke:none"
             d="m 0,0 c 55.667,-0.013 100.999,13.667 139.999,38.666 13.186,10.032 16.667,17.334 20.666,64.666 0,0 -22.725,-67.664 -159.332,-68.665 C -88,34 -166.002,69.333 -177.334,103.332 -172.334,54 -166.334,46 -152.418,37.569 -115.751,16.236 -59.001,-0.332 0,0" /></g></g></g></g></svg>