<?xml version="1.0" encoding="UTF-8" standalone="no"?>
<svg
   xmlns:dc="http://purl.org/dc/elements/1.1/"
   xmlns:cc="http://creativecommons.org/ns#"
   xmlns:rdf="http://www.w3.org/1999/02/22-rdf-syntax-ns#"
   xmlns:svg="http://www.w3.org/2000/svg"
   xmlns="http://www.w3.org/2000/svg"
   viewBox="0 0 1365.3333 1365.3333"
   height="1365.3333"
   width="1365.3333"
   xml:space="preserve"
   id="svg2"
   version="1.1"><metadata
     id="metadata8"><rdf:RDF><cc:Work
         rdf:about=""><dc:format>image/svg+xml</dc:format><dc:type
           rdf:resource="http://purl.org/dc/dcmitype/StillImage" /><dc:title></dc:title></cc:Work></rdf:RDF></metadata><defs
     id="defs6"><clipPath
       id="clipPath18"
       clipPathUnits="userSpaceOnUse"><path
         id="path16"
         d="M 0,1024 H 1024 V 0 H 0 Z" /></clipPath></defs><g
     transform="matrix(1.3333333,0,0,-1.3333333,0,1365.3333)"
     id="g10"><g
       id="g12"><g
         clip-path="url(#clipPath18)"
         id="g14"><g
           transform="translate(933,195)"
           id="g20"><path
             id="path22"
             style="fill:#3f3f3f;fill-opacity:1;fill-rule:nonzero;stroke:none"
             d="m 0,0 c 0,-55.229 -44.771,-100 -100,-100 h -643 c -55.229,0 -100,44.771 -100,100 v 643 c 0,55.229 44.771,100 100,100 h 643 C -44.771,743 0,698.229 0,643 Z" /></g><g
           transform="translate(297.1221,690)"
           id="g24"><path
             id="path26"
             style="fill:#333333;fill-opacity:1;fill-rule:nonzero;stroke:none"
             d="m 0,0 29.939,35 94.939,39 h 152 L 378,53 427.878,24 V -7 l -60,-39.5 L 217.271,-59.814 71.878,-46 Z" /></g><g
           transform="translate(304.0288,663)"
           id="g28"><path
             id="path30"
             style="fill:#727272;fill-opacity:1;fill-rule:nonzero;stroke:none"
             d="m 0,0 40.354,-315.841 28.617,-53.065 134,-25.094 126.001,23.666 31.999,18.834 13.617,35.118 L 420.727,5.335 377.006,-14 l -79.035,-12 -90,-7 -112,11 z" /></g><g
           transform="translate(292,718)"
           id="g32"><path
             id="path34"
             style="fill:#aaaaaa;fill-opacity:1;fill-rule:nonzero;stroke:none"
             d="M 0,0 C 0,0 40,68 222,68 404,68 429,15 439,0 l -2.5,-18.5 c 0,0 -2.334,-12.333 -8.5,-11.167 C 401.667,9.333 369.5,38 236.5,38 103.5,38 28.667,9.333 13.667,-34 L 10,-36.333 Z" /></g><g
           transform="translate(472,709)"
           id="g36"><path
             id="path38"
             style="fill:#eaeaea;fill-opacity:1;fill-rule:nonzero;stroke:none"
             d="M 0,0 30.636,28.375 100.818,32.938 123,4.75 V -43 L 117.227,-65.28 67.387,-87.75 5,-77.5 Z" /></g><g
           transform="translate(614.4785,688.5122)"
           id="g40"><path
             id="path42"
             style="fill:#eaeaea;fill-opacity:1;fill-rule:nonzero;stroke:none"
             d="m 0,0 18.209,16.3 17.812,4.188 h 35.5 l 15,-10.307 10.75,-10.306 4,-20.052 -70.5,-30.335 h -41.25 v 41 z" /></g><g
           transform="translate(395.8423,699.1396)"
           id="g44"><path
             id="path46"
             style="fill:#eaeaea;fill-opacity:1;fill-rule:nonzero;stroke:none"
             d="m 0,0 -20.842,15.61 -27.75,1.25 -29.25,-5 -19.75,-11.86 11.75,-25.64 25.75,-20 40.25,-15.5 33.25,39 z" /></g><g
           transform="translate(642.75,653.313)"
           id="g48"><path
             id="path50"
             style="fill:#ffffff;fill-opacity:1;fill-rule:nonzero;stroke:none"
             d="m 0,0 -16,30.187 -42.25,17 -32,-3.407 -16.5,-38.093 -9,-30.25 56.5,-3.25 61.75,20.5 z" /></g><g
           transform="translate(372.9551,659.8584)"
           id="g52"><path
             id="path54"
             style="fill:#ffffff;fill-opacity:1;fill-rule:nonzero;stroke:none"
             d="m 0,0 14.045,31.892 49,26.25 h 55.25 l 30.75,-36.334 5,-45.666 h -93.25 l -72.25,14.25 z" /></g><g
           transform="translate(292,718)"
           id="g56"><path
             id="path58"
             style="fill:#c4c4c4;fill-opacity:1;fill-rule:nonzero;stroke:none"
             d="M 0,0 V -41 C 0,-55 37.25,-110 221.25,-110 409.5,-110 439,-55.5 439,-41 V 0 C 439,0 429.402,-77.5 233,-77.5 56,-76.5 10,-25 0,0" /></g><g
           transform="translate(520.334,247.666)"
           id="g60"><path
             id="path62"
             style="fill:#c4c4c4;fill-opacity:1;fill-rule:nonzero;stroke:none"
             d="m 0,0 c 55.667,-0.013 100.999,13.667 139.999,38.666 13.186,10.032 16.667,17.334 20.666,64.666 0,0 -22.725,-67.664 -159.332,-68.665 C -88,34 -166.002,69.333 -177.334,103.332 -172.334,54 -166.334,46 -152.418,37.569 -115.751,16.236 -59.001,-0.332 0,0" /></g></g></g></g></svg>