<?xml version="1.0" encoding="UTF-8"?>
<svg width="1024px" height="1024px" viewBox="0 0 1024 1024" version="1.1" xmlns="http://www.w3.org/2000/svg" xmlns:xlink="http://www.w3.org/1999/xlink">
    <!-- Generator: Sketch 48.2 (47327) - http://www.bohemiancoding.com/sketch -->
    <title>Tunnelblick</title>
    <desc>Created with Sketch.</desc>
    <defs></defs>
    <g id="Page-1" stroke="none" stroke-width="1" fill="none" fill-rule="evenodd">
        <g id="Tunnelblick">
            <rect id="Outer" fill="#C8DAEE" fill-rule="nonzero" x="92" y="92" width="840" height="840" rx="100"></rect>
            <path d="M347.299304,775.582226 L450.941225,657.869866 C462.636488,593.76962 481.865828,561.170048 508.629245,560.071148 C535.392661,558.972249 557.617542,591.571821 575.303886,657.869866 L679.207287,775.582226 L718.358368,753.782362 C718.516497,464.762824 662.193847,320.876211 549.390416,322.122524 C380.18527,323.991994 347.323984,378.498086 307.936563,441.08176 C281.678282,482.804209 294.799196,594.304365 347.299304,775.582226 Z" id="Path" fill="#96A1AF"></path>
            <path d="M768.650485,776 L768.650485,775.422395 L678.912621,775.422395 L678.912621,541.492239 L678.52971,541.492239 C672.692428,453.731615 600.843524,384.383592 513.067961,384.383592 C425.292398,384.383592 353.443494,453.731615 347.606212,541.492239 L347.223301,541.492239 L347.223301,775.422395 L318.863335,775.422395 L220,775.422395 L220,552.466741 C220,388.180396 350.956711,255 512.5,255 C674.043289,255 805,388.180396 805,552.466741 C805,552.659318 804.99982,552.851854 804.99946,553.044346 L805,776 L768.650485,776 Z" id="Combined-Shape" fill="#788695"></path>
            <path d="M554.712463,658.168514 L548.281553,658.168514 L548.281553,608.557468 L548.20025,608.557468 C546.960827,589.808608 531.705238,574.993348 513.067961,574.993348 C494.430684,574.993348 479.175095,589.808608 477.935672,608.557468 L477.854369,608.557468 L477.854369,658.168514 L471.423459,658.168514 L450.592233,658.168514 L450.592233,610.804878 C450.592233,575.714591 478.563569,547.268293 513.067961,547.268293 C547.572353,547.268293 575.543689,575.714591 575.543689,610.804878 L575.543689,658.168514 L554.712463,658.168514 Z" id="Combined-Shape" fill="#727880"></path>
        </g>
    </g>
</svg>