<?xml version="1.0" encoding="UTF-8" standalone="no"?>
<svg
   xmlns:dc="http://purl.org/dc/elements/1.1/"
   xmlns:cc="http://creativecommons.org/ns#"
   xmlns:rdf="http://www.w3.org/1999/02/22-rdf-syntax-ns#"
   xmlns:svg="http://www.w3.org/2000/svg"
   xmlns="http://www.w3.org/2000/svg"
   viewBox="0 0 1365.3333 1365.3333"
   height="1365.3333"
   width="1365.3333"
   xml:space="preserve"
   id="svg2"
   version="1.1"><metadata
     id="metadata8"><rdf:RDF><cc:Work
         rdf:about=""><dc:format>image/svg+xml</dc:format><dc:type
           rdf:resource="http://purl.org/dc/dcmitype/StillImage" /><dc:title></dc:title></cc:Work></rdf:RDF></metadata><defs
     id="defs6"><clipPath
       id="clipPath18"
       clipPathUnits="userSpaceOnUse"><path
         id="path16"
         d="M 191,933 C 135.771,933 91,888.229 91,833 v 0 -643 C 91,134.771 135.771,90 191,90 v 0 h 643 c 55.229,0 100,44.771 100,100 v 0 643 c 0,55.229 -44.771,100 -100,100 v 0 z" /></clipPath><clipPath
       id="clipPath30"
       clipPathUnits="userSpaceOnUse"><path
         id="path28"
         d="m 288,805 c -38.66,0 -70,-31.34 -70,-70 v 0 -447 c 0,-38.66 31.34,-70 70,-70 v 0 h 447 c 38.66,0 70,31.34 70,70 v 0 447 c 0,38.66 -31.34,70 -70,70 v 0 z" /></clipPath></defs><g
     transform="matrix(1.3333333,0,0,-1.3333333,0,1365.3333)"
     id="g10"><g
       style="fill:#ff5557;fill-opacity:1;stroke:none"
       id="g12"><g
         style="fill:#ff5557;fill-opacity:1;stroke:none"
         clip-path="url(#clipPath18)"
         id="g14"><g
           style="fill:#ff5557;fill-opacity:1;stroke:none"
           transform="translate(933,190)"
           id="g20"><path
             id="path22"
             style="fill:#ff5557;fill-opacity:1;fill-rule:nonzero;stroke:none"
             d="m 0,0 c 0,-55.229 -44.772,-100 -100,-100 h -643 c -55.229,0 -100,44.771 -100,100 v 643 c 0,55.229 44.771,100 100,100 h 643 C -44.772,743 0,698.229 0,643 Z" /></g></g></g><path
       id="rect4524"
       d="m 711.27523,797.24654 -1.7959,-2.21775 c -0.9878,-1.21987 -65.061,-83.74658 -142.3857,-183.39263 -77.3247,-99.64605 -140.8624,-181.14203 -141.1949,-181.10153 -0.3326,0.0405 -26.5946,28.93463 -58.3594,64.20998 -31.7647,35.27527 -58.3421,64.03328 -59.061,63.90525 -2.2986,-0.40935 -88.7503,-69.888 -88.5264,-71.14598 0.1182,-0.66502 46.986,-59.96557 104.1519,-131.78032 99.7274,-125.28278 104.0088,-130.49911 105.6665,-128.73923 0.9503,1.00875 85.8456,110.88825 188.6572,244.17623 152.7075,197.9742 186.6867,242.56605 185.5958,243.5625 -0.7346,0.67095 -21.9036,19.51253 -47.042,41.87116 z"
       style="fill:#ffffff;fill-opacity:1;stroke:none;stroke-width:0.10178027;stroke-miterlimit:4;stroke-dasharray:none;stroke-opacity:1" /></g></svg>