<?xml version="1.0" encoding="UTF-8" standalone="no"?>
<svg
   xmlns:dc="http://purl.org/dc/elements/1.1/"
   xmlns:cc="http://creativecommons.org/ns#"
   xmlns:rdf="http://www.w3.org/1999/02/22-rdf-syntax-ns#"
   xmlns:svg="http://www.w3.org/2000/svg"
   xmlns="http://www.w3.org/2000/svg"
   viewBox="0 0 1365.3333 1365.3333"
   height="1365.3333"
   width="1365.3333"
   xml:space="preserve"
   id="svg6259"
   version="1.1"><metadata
     id="metadata6265"><rdf:RDF><cc:Work
         rdf:about=""><dc:format>image/svg+xml</dc:format><dc:type
           rdf:resource="http://purl.org/dc/dcmitype/StillImage" /><dc:title></dc:title></cc:Work></rdf:RDF></metadata><defs
     id="defs6263"><clipPath
       id="clipPath6275"
       clipPathUnits="userSpaceOnUse"><path
         id="path6273"
         d="M 0,1024 H 1024 V 0 H 0 Z" /></clipPath><clipPath
       id="clipPath6291"
       clipPathUnits="userSpaceOnUse"><path
         id="path6289"
         d="M 0,1024 H 1024 V 0 H 0 Z" /></clipPath><clipPath
       id="clipPath6299"
       clipPathUnits="userSpaceOnUse"><path
         id="path6297"
         d="M 91,933 H 934 V 90 H 91 Z" /></clipPath><clipPath
       id="clipPath6315"
       clipPathUnits="userSpaceOnUse"><path
         id="path6313"
         d="M 0,1024 H 1024 V 0 H 0 Z" /></clipPath></defs><g
     transform="matrix(1.3333333,0,0,-1.3333333,0,1365.3333)"
     id="g6267"><g
       id="g6269"><g
         clip-path="url(#clipPath6275)"
         id="g6271"><g
           transform="translate(834,933)"
           id="g6277"><path
             id="path6279"
             style="fill:#fff100;fill-opacity:1;fill-rule:nonzero;stroke:none"
             d="m 0,0 h -643 c -55.229,0 -100,-44.771 -100,-100 v -643 c 0,-55.229 44.771,-100 100,-100 H 0 c 55.229,0 100,44.771 100,100 v 643 C 100,-44.771 55.229,0 0,0" /></g><g
           transform="translate(736,805)"
           id="g6281"><path
             id="path6283"
             style="fill:#ec1c23;fill-opacity:1;fill-rule:nonzero;stroke:none"
             d="m 0,0 h -447 c -38.66,0 -70,-31.34 -70,-70 v -447 c 0,-38.66 31.34,-70 70,-70 H 0 c 38.66,0 70,31.34 70,70 V -70 C 70,-31.34 38.66,0 0,0" /></g></g></g><g
       id="g6285"><g
         clip-path="url(#clipPath6291)"
         id="g6287"><g
           id="g6293"><g
             id="g6295" /><g
             id="g6307"><g
               id="g6305"
               clip-path="url(#clipPath6299)"><g
                 id="g6303"
                 transform="translate(834,933)"><path
                   id="path6301"
                   style="fill:#5aa4df;fill-opacity:1;fill-rule:nonzero;stroke:none"
                   d="m 0,0 h -643 c -55.229,0 -100,-44.771 -100,-100 v -643 c 0,-55.229 44.771,-100 100,-100 H -407 -239.333 0 c 55.229,0 100,44.771 100,100 v 643 C 100,-44.771 55.229,0 0,0" /></g></g></g></g></g></g><g
       id="g6309"><g
         clip-path="url(#clipPath6315)"
         id="g6311"><g
           transform="translate(512.4971,512.0166)"
           id="g6317"><path
             id="path6319"
             style="fill:#fc8439;fill-opacity:1;fill-rule:nonzero;stroke:none"
             d="m 0,0 c -122.884,0 -222.5,-99.617 -222.5,-222.5 0,-86.715 50.621,-162.803 123.003,-199.517 h 198 C 172.02,-385.698 222.5,-310.048 222.5,-222.5 222.5,-99.617 122.883,0 0,0" /></g><g
           transform="translate(512.5,440)"
           id="g6321"><path
             id="path6323"
             style="fill:#c55520;fill-opacity:1;fill-rule:nonzero;stroke:none"
             d="m 0,0 c -85.88,0 -155.5,-69.62 -155.5,-155.5 0,-85.88 69.62,-155.5 155.5,-155.5 85.88,0 155.5,69.62 155.5,155.5 C 155.5,-69.62 85.88,0 0,0" /></g><g
           transform="translate(512.5,347)"
           id="g6325"><path
             id="path6327"
             style="fill:#474747;fill-opacity:1;fill-rule:nonzero;stroke:none"
             d="m 0,0 c -34.518,0 -62.5,-27.982 -62.5,-62.5 0,-34.518 27.982,-62.5 62.5,-62.5 34.518,0 62.5,27.982 62.5,62.5 C 62.5,-27.982 34.518,0 0,0" /></g><g
           transform="translate(552.5312,281.0312)"
           id="g6329"><path
             id="path6331"
             style="fill:#303030;fill-opacity:1;fill-rule:evenodd;stroke:none"
             d="m 0,0 c -4.491,4.491 -11.368,4.896 -15.361,0.902 l -21.604,-21.603 c -3.993,-3.993 -3.589,-10.87 0.902,-15.362 4.492,-4.491 11.369,-4.895 15.362,-0.902 L 0.902,-15.361 C 4.896,-11.368 4.491,-4.491 0,0 m -4.175,38.823 c -4.882,4.882 -13.739,3.941 -19.783,-2.103 l -48.824,-48.824 c -6.044,-6.044 -6.986,-14.902 -2.104,-19.784 4.882,-4.882 13.74,-3.94 19.783,2.104 L -6.278,19.04 c 6.044,6.044 6.985,14.901 2.103,19.783 M -64.701,6.035 -43.098,27.639 c 3.994,3.993 3.589,10.87 -0.902,15.361 -4.491,4.491 -11.368,4.896 -15.361,0.902 L -80.965,22.299 c -3.993,-3.993 -3.589,-10.87 0.902,-15.362 4.492,-4.491 11.369,-4.895 15.362,-0.902" /></g><g
           transform="translate(668,735)"
           id="g6333"><path
             id="path6335"
             style="fill:#000000;fill-opacity:1;fill-rule:nonzero;stroke:none"
             d="M 0,0 C -27.614,0 -50,-20.014 -50,-44.703 V -178.297 C -50,-202.986 -27.614,-223 0,-223 c 27.614,0 50,20.014 50,44.703 V -44.703 C 50,-20.014 27.614,0 0,0" /></g><g
           transform="translate(668,712)"
           id="g6337"><path
             id="path6339"
             style="fill:#ffffff;fill-opacity:1;fill-rule:nonzero;stroke:none"
             d="M 0,0 C -13.807,0 -25,-7.897 -25,-17.641 V -70.359 C -25,-80.102 -13.807,-88 0,-88 c 13.807,0 25,7.898 25,17.641 v 52.718 C 25,-7.897 13.807,0 0,0" /></g><g
           transform="translate(357,735)"
           id="g6341"><path
             id="path6343"
             style="fill:#000000;fill-opacity:1;fill-rule:nonzero;stroke:none"
             d="M 0,0 C -27.614,0 -50,-20.014 -50,-44.703 V -178.297 C -50,-202.986 -27.614,-223 0,-223 c 27.614,0 50,20.014 50,44.703 V -44.703 C 50,-20.014 27.614,0 0,0" /></g><g
           transform="translate(357,712)"
           id="g6345"><path
             id="path6347"
             style="fill:#ffffff;fill-opacity:1;fill-rule:nonzero;stroke:none"
             d="M 0,0 C -13.807,0 -25,-7.897 -25,-17.641 V -70.359 C -25,-80.102 -13.807,-88 0,-88 c 13.807,0 25,7.898 25,17.641 v 52.718 C 25,-7.897 13.807,0 0,0" /></g></g></g></g></svg>