<?xml version="1.0" encoding="UTF-8" standalone="no"?>
<svg
   xmlns:dc="http://purl.org/dc/elements/1.1/"
   xmlns:cc="http://creativecommons.org/ns#"
   xmlns:rdf="http://www.w3.org/1999/02/22-rdf-syntax-ns#"
   xmlns:svg="http://www.w3.org/2000/svg"
   xmlns="http://www.w3.org/2000/svg"
   viewBox="0 0 1365.3333 1365.3333"
   height="1365.3333"
   width="1365.3333"
   xml:space="preserve"
   id="svg6892"
   version="1.1"><metadata
     id="metadata6898"><rdf:RDF><cc:Work
         rdf:about=""><dc:format>image/svg+xml</dc:format><dc:type
           rdf:resource="http://purl.org/dc/dcmitype/StillImage" /><dc:title></dc:title></cc:Work></rdf:RDF></metadata><defs
     id="defs6896"><clipPath
       id="clipPath6908"
       clipPathUnits="userSpaceOnUse"><path
         id="path6906"
         d="M 0,1024 H 1024 V 0 H 0 Z" /></clipPath></defs><g
     transform="matrix(1.3333333,0,0,-1.3333333,0,1365.3333)"
     id="g6900"><g
       id="g6902"><g
         clip-path="url(#clipPath6908)"
         id="g6904"><g
           transform="translate(933,191)"
           id="g6910"><path
             id="path6912"
             style="fill:#00b0ed;fill-opacity:1;fill-rule:nonzero;stroke:none"
             d="m 0,0 c 0,-55.229 -44.772,-100 -100,-100 h -643 c -55.229,0 -100,44.771 -100,100 v 643 c 0,55.229 44.771,100 100,100 h 643 C -44.772,743 0,698.229 0,643 Z" /></g><g
           transform="translate(805.6948,694.6714)"
           id="g6914"><path
             id="path6916"
             style="fill:#ffffff;fill-opacity:1;fill-rule:nonzero;stroke:none"
             d="m 0,0 c -21.611,-9.584 -44.836,-16.064 -69.215,-18.976 24.882,14.914 43.991,38.531 52.988,66.672 -23.284,-13.81 -49.075,-23.84 -76.525,-29.245 -21.983,23.423 -53.303,38.057 -87.963,38.057 -66.556,0 -120.513,-53.957 -120.513,-120.507 0,-9.446 1.065,-18.642 3.12,-27.463 -100.155,5.025 -188.953,53.002 -248.39,125.912 -10.373,-17.799 -16.315,-38.5 -16.315,-60.585 0,-41.808 21.275,-78.695 53.61,-100.306 -19.754,0.625 -38.336,6.047 -54.584,15.073 -0.009,-0.503 -0.011,-1.007 -0.011,-1.515 0,-58.389 41.54,-107.096 96.67,-118.166 -10.113,-2.753 -20.759,-4.226 -31.75,-4.226 -7.765,0 -15.314,0.755 -22.673,2.161 15.336,-47.876 59.841,-82.719 112.574,-83.692 -41.244,-32.321 -93.205,-51.586 -149.665,-51.586 -9.728,0 -19.32,0.57 -28.748,1.682 53.332,-34.192 116.676,-54.141 184.731,-54.141 221.663,0 342.875,183.629 342.875,342.878 0,5.225 -0.117,10.422 -0.348,15.59 C -36.588,-45.392 -16.156,-24.167 0,0" /></g></g></g></g></svg>