<?xml version="1.0" encoding="UTF-8" standalone="no"?>
<svg
   xmlns:dc="http://purl.org/dc/elements/1.1/"
   xmlns:cc="http://creativecommons.org/ns#"
   xmlns:rdf="http://www.w3.org/1999/02/22-rdf-syntax-ns#"
   xmlns:svg="http://www.w3.org/2000/svg"
   xmlns="http://www.w3.org/2000/svg"
   viewBox="0 0 1280 1280"
   height="1280"
   width="1280"
   xml:space="preserve"
   version="1.1"
   id="svg3424"><metadata
     id="metadata3430"><rdf:RDF><cc:Work
         rdf:about=""><dc:format>image/svg+xml</dc:format><dc:type
           rdf:resource="http://purl.org/dc/dcmitype/StillImage" /><dc:title></dc:title></cc:Work></rdf:RDF></metadata><defs
     id="defs3428"><clipPath
       id="clipPath3438"
       clipPathUnits="userSpaceOnUse"><path
         id="path3440"
         d="M 191,933 C 135.771,933 91,888.229 91,833 l 0,0 0,-643 C 91,134.771 135.771,90 191,90 l 0,0 643,0 c 55.229,0 100,44.771 100,100 l 0,0 0,643 c 0,55.229 -44.771,100 -100,100 l 0,0 -643,0 z" /></clipPath><clipPath
       id="clipPath3450"
       clipPathUnits="userSpaceOnUse"><path
         id="path3452"
         d="m 288,805 c -38.66,0 -70,-31.34 -70,-70 l 0,0 0,-447 c 0,-38.66 31.34,-70 70,-70 l 0,0 447,0 c 38.66,0 70,31.34 70,70 l 0,0 0,447 c 0,38.66 -31.34,70 -70,70 l 0,0 -447,0 z" /></clipPath></defs><g
     transform="matrix(1.25,0,0,-1.25,0,1280)"
     id="g3432"><g
       id="g3434"><g
         clip-path="url(#clipPath3438)"
         id="g3436"><g
           transform="translate(933,190)"
           id="g3442"><path
             id="path3444"
             style="fill:#eaebec;fill-opacity:1;fill-rule:nonzero;stroke:none"
             d="m 0,0 c 0,-55.229 -44.772,-100 -100,-100 l -643,0 c -55.229,0 -100,44.771 -100,100 l 0,643 c 0,55.229 44.771,100 100,100 l 643,0 C -44.772,743 0,698.229 0,643 L 0,0 Z" /></g></g></g><g
       id="g3446"><g
         clip-path="url(#clipPath3450)"
         id="g3448"><g
           transform="translate(404.9365,221.3271)"
           id="g3454"><path
             id="path3456"
             style="fill:#ff993c;fill-opacity:1;fill-rule:nonzero;stroke:none"
             d="m 0,0 c -3.329,7.56 -6.693,15.137 -10.007,22.736 -11.762,26.976 -23.545,53.943 -35.248,80.945 -9.481,21.878 -18.806,43.823 -28.296,65.697 -9.247,21.315 -18.681,42.548 -27.909,63.871 -9.342,21.588 -18.444,43.279 -27.813,64.855 -8.266,19.033 -16.774,37.96 -25.121,56.958 -1.058,2.408 -1.57,4.238 2.587,4.223 23.17,-0.08 46.341,0.126 69.511,0.279 7.757,0.051 7.71,0.095 10.427,-7.029 10.642,-27.912 21.272,-55.83 31.993,-83.712 10.274,-26.72 20.522,-53.453 31.077,-80.062 2.845,-7.173 4.868,-14.713 8.926,-21.636 3.426,3.384 3.818,8.055 5.406,12.068 7.963,20.122 15.653,40.352 23.33,60.586 8.222,21.669 16.265,43.407 24.495,65.073 6.586,17.334 13.372,34.592 19.97,51.921 0.886,2.326 2.316,2.952 4.601,2.948 20.467,-0.04 40.933,-0.011 61.399,-0.005 4.175,10e-4 8.366,-0.233 12.519,0.063 3.299,0.235 3.389,-1.203 2.428,-3.511 -2.97,-7.132 -5.975,-14.251 -9.012,-21.355 -5.159,-12.068 -10.331,-24.131 -15.539,-36.178 -4.112,-9.511 -8.339,-18.971 -12.419,-28.495 -3.953,-9.224 -7.731,-18.524 -11.684,-27.748 -4.011,-9.359 -8.149,-18.664 -12.22,-27.997 C 89.509,205.572 85.577,196.666 81.763,187.71 77.644,178.041 73.665,168.313 69.582,158.629 65.384,148.671 61.165,138.722 56.9,128.793 53.359,120.55 49.747,112.338 46.15,104.119 42.059,94.77 37.88,85.459 33.868,76.076 28.763,64.136 23.855,52.112 18.738,40.177 13.431,27.797 7.978,15.479 2.584,3.136 2.102,2.035 1.926,0.709 0,0" /></g><g
           transform="translate(745.6436,507.8053)"
           id="g3458"><path
             id="path3460"
             style="fill:#ff993c;fill-opacity:1;fill-rule:nonzero;stroke:none"
             d="m 0,0 c -7.768,0 -15.558,0.354 -23.295,-0.129 -4.867,-0.304 -5.775,1.873 -5.783,5.873 -0.032,15.575 -2.176,30.918 -5.698,46.049 -6.381,27.409 -16.903,53.059 -32.508,76.616 -12.41,18.734 -26.578,35.933 -43.614,50.565 -9.847,8.458 -20.264,16.23 -31.476,22.972 -9.71,5.84 -19.546,11.394 -29.925,15.828 -16.556,7.072 -33.665,12.544 -51.498,15.432 -12.695,2.056 -25.404,4.097 -38.337,3.774 -3.896,-0.097 -5.304,1.614 -5.278,5.607 0.107,15.707 -0.04,31.416 -0.222,47.123 -0.043,3.664 1.812,5.256 5.066,5.153 14.356,-0.456 28.617,-1.728 42.85,-3.898 17.358,-2.646 34.23,-6.993 50.737,-12.764 12.698,-4.44 25.045,-9.754 37.02,-15.984 11.557,-6.012 22.813,-12.515 33.441,-19.98 13.045,-9.163 25.179,-19.458 36.821,-30.425 15.476,-14.578 28.225,-31.247 40.356,-48.548 C -3.445,137.738 8.925,109.63 17.621,79.884 24.197,57.39 27.879,34.331 28.489,10.85 28.771,-0.01 28.704,-0.014 17.708,-0.021 11.805,-0.025 5.903,-0.022 0,-0.022 L 0,0 Z" /></g><g
           transform="translate(478.4134,673.5317)"
           id="g3462"><path
             id="path3464"
             style="fill:#ff993c;fill-opacity:1;fill-rule:nonzero;stroke:none"
             d="m 0,0 c 0,8.347 0.13,16.697 -0.073,25.039 -0.068,2.804 0.974,3.523 3.488,3.52 19.07,-0.024 37.623,-3.273 55.792,-8.888 13.363,-4.13 26.118,-9.802 38.165,-16.806 16.539,-9.615 31.579,-21.158 44.626,-35.389 11.08,-12.086 20.74,-24.987 28.918,-39.205 7.877,-13.692 13.527,-28.168 17.829,-43.254 4.181,-14.663 6.438,-29.622 7.039,-44.872 0.164,-4.178 -0.867,-6.024 -5.289,-5.997 -15.995,0.097 -31.992,0.037 -47.987,-0.1 -3.285,-0.029 -4.464,1.504 -4.542,4.463 -0.48,18.213 -4.592,35.683 -12.189,52.126 -6.454,13.967 -15.101,26.598 -25.861,37.825 -11.632,12.137 -24.812,22.07 -39.927,29.179 -14.629,6.881 -30.021,11.596 -46.309,12.704 -3.237,0.22 -6.494,0.471 -9.725,0.328 -2.909,-0.129 -3.878,1.023 -3.852,3.79 C 0.184,-17.025 0.132,-8.512 0.132,0 0.088,0 0.044,0 0,0" /></g></g></g></g></svg>