<?xml version="1.0" encoding="UTF-8" standalone="no"?>
<svg
   xmlns:dc="http://purl.org/dc/elements/1.1/"
   xmlns:cc="http://creativecommons.org/ns#"
   xmlns:rdf="http://www.w3.org/1999/02/22-rdf-syntax-ns#"
   xmlns:svg="http://www.w3.org/2000/svg"
   xmlns="http://www.w3.org/2000/svg"
   viewBox="0 0 1365.3333 1365.3333"
   height="1365.3333"
   width="1365.3333"
   xml:space="preserve"
   id="svg4689"
   version="1.1"><metadata
     id="metadata4695"><rdf:RDF><cc:Work
         rdf:about=""><dc:format>image/svg+xml</dc:format><dc:type
           rdf:resource="http://purl.org/dc/dcmitype/StillImage" /><dc:title></dc:title></cc:Work></rdf:RDF></metadata><defs
     id="defs4693"><clipPath
       id="clipPath4705"
       clipPathUnits="userSpaceOnUse"><path
         id="path4703"
         d="M 0,1024 H 1024 V 0 H 0 Z" /></clipPath></defs><g
     transform="matrix(1.3333333,0,0,-1.3333333,0,1365.3333)"
     id="g4697"><g
       id="g4699"><g
         clip-path="url(#clipPath4705)"
         id="g4701"><g
           transform="translate(932,167)"
           id="g4707"><path
             id="path4709"
             style="fill:#2980b9;fill-opacity:1;fill-rule:nonzero;stroke:none"
             d="m 0,0 c 0,-55.229 -44.772,-100 -100,-100 h -643 c -55.229,0 -100,44.771 -100,100 v 643 c 0,55.229 44.771,100 100,100 h 643 C -44.772,743 0,698.229 0,643 Z" /></g><g
           transform="translate(89,603)"
           id="g4711"><path
             id="path4713"
             style="fill:none;stroke:#ffffff;stroke-width:40;stroke-linecap:butt;stroke-linejoin:miter;stroke-miterlimit:10;stroke-dasharray:none;stroke-opacity:1"
             d="M 0,0 H 128 L 242.469,-224 374.463,58 468.5,-133.978 564.953,58 715,-224 h 128" /></g></g></g></g></svg>