<?xml version="1.0" encoding="UTF-8" standalone="no"?>
<svg
   xmlns:dc="http://purl.org/dc/elements/1.1/"
   xmlns:cc="http://creativecommons.org/ns#"
   xmlns:rdf="http://www.w3.org/1999/02/22-rdf-syntax-ns#"
   xmlns:svg="http://www.w3.org/2000/svg"
   xmlns="http://www.w3.org/2000/svg"
   viewBox="0 0 1365.3333 1365.3333"
   height="1365.3333"
   width="1365.3333"
   xml:space="preserve"
   id="svg4715"
   version="1.1"><metadata
     id="metadata4721"><rdf:RDF><cc:Work
         rdf:about=""><dc:format>image/svg+xml</dc:format><dc:type
           rdf:resource="http://purl.org/dc/dcmitype/StillImage" /><dc:title></dc:title></cc:Work></rdf:RDF></metadata><defs
     id="defs4719"><clipPath
       id="clipPath4731"
       clipPathUnits="userSpaceOnUse"><path
         id="path4729"
         d="M 0,1024 H 1024 V 0 H 0 Z" /></clipPath></defs><g
     transform="matrix(1.3333333,0,0,-1.3333333,0,1365.3333)"
     id="g4723"><g
       id="g4725"><g
         clip-path="url(#clipPath4731)"
         id="g4727"><g
           transform="translate(933,190)"
           id="g4733"><path
             id="path4735"
             style="fill:#ed8800;fill-opacity:1;fill-rule:nonzero;stroke:none"
             d="m 0,0 c 0,-55.229 -44.771,-100 -100,-100 h -643 c -55.229,0 -100,44.771 -100,100 v 643 c 0,55.229 44.771,100 100,100 h 643 C -44.771,743 0,698.229 0,643 Z" /></g><g
           transform="translate(514.834,713.75)"
           id="g4737"><path
             id="path4739"
             style="fill:#ffffff;fill-opacity:1;fill-rule:nonzero;stroke:none"
             d="m 0,0 c 0,0 11.581,-0.334 25.164,1.082 13.094,1.366 19.683,3.98 26.112,9.54 C 41.67,42.281 34.737,64.942 33.166,69.625 27.604,87.291 20.499,87.25 9.166,87.25 H -13.167 C -26.334,87.25 -33,87.25 -37.834,71.5 -39.084,67.393 -56.629,9.751 -56.629,9.751 -53.694,7.287 -46.642,2.792 -33,1.25 -21.834,-0.25 -10.82,-0.103 0,0" /></g><g
           transform="translate(597.3291,621.1094)"
           id="g4741"><path
             id="path4743"
             style="fill:#ffffff;fill-opacity:1;fill-rule:nonzero;stroke:none"
             d="m 0,0 c -1.042,-2.905 -4.671,-8.581 -17.329,-12.859 -17.75,-6 -37,-8.5 -59.5,-8.5 -14.5,0 -35.125,-1.125 -59.125,3.75 -21.857,4.439 -30.338,9.606 -33.944,18.896 l -32.372,-106.353 0.441,0.457 c 0,0 -1.084,-3.916 1.166,-7.333 2.25,-3.417 20.668,-34.834 115.334,-34.834 58.333,0 98,15.667 111,29 2.666,3.334 5.753,6 5.919,12.25 -0.001,-0.026 0.07,-0.031 0.204,-0.016 C 22.346,-74.147 11.087,-36.76 0,0" /></g><g
           transform="translate(461.375,603.5)"
           id="g4745"><path
             id="path4747"
             style="fill:#ed8800;fill-opacity:1;fill-rule:nonzero;stroke:none"
             d="m 0,0 c 24,-4.875 44.625,-3.75 59.125,-3.75 22.5,0 41.75,2.5 59.5,8.5 12.658,4.279 16.287,9.954 17.329,12.859 -11.281,37.4 -22.381,74.139 -31.219,103.263 -6.429,-5.56 -13.018,-8.174 -26.112,-9.54 C 65.04,109.916 53.459,110.25 53.459,110.25 42.639,110.147 31.625,110 20.458,111.5 6.817,113.042 -0.235,117.537 -3.17,120.001 L -33.944,18.896 C -30.337,9.606 -21.856,4.439 0,0" /></g><g
           transform="translate(767,231.3311)"
           id="g4749"><path
             id="path4751"
             style="fill:#ffffff;fill-opacity:1;fill-rule:nonzero;stroke:none"
             d="m 0,0 v 11.418 c 0,5.25 -1.538,11.372 -1.538,11.372 0,0 -48.877,158.879 -53.044,171.463 C -58.749,206.837 -68,205.669 -68,205.669 h -46.249 c 0,0 -0.125,0.415 -0.357,1.19 l -0.019,-0.065 3.75,-11.875 c 0,0 3.25,-13.125 -6.5,-23.5 -9.75,-10.375 -50.289,-40.417 -135.957,-40.417 -47.001,0.333 -111.334,10.667 -139.334,41 -2.668,2.999 -9.834,12.167 -6.584,22.917 l 4,12.25 -0.138,0.512 -0.612,-2.012 h -45.875 c -9.125,0 -11.73,-5.278 -12.73,-8.278 -12.333,-33 -54.869,-179.011 -54.869,-179.011 C -511.095,12.807 -512,7.669 -512,7.669 V 0.086 c 0,-12 16.541,-11.668 16.541,-11.668 0,0 455.043,0.084 475.459,0.001 C 0.416,-11.664 0,0 0,0" /></g><g
           transform="translate(367.75,426.25)"
           id="g4753"><path
             id="path4755"
             style="fill:#ed8800;fill-opacity:1;fill-rule:nonzero;stroke:none"
             d="m 0,0 c -3.25,-10.75 3.916,-19.918 6.584,-22.917 28,-30.333 92.333,-40.667 139.334,-41 85.668,0 126.207,30.042 135.957,40.417 9.75,10.375 6.5,23.5 6.5,23.5 l -3.75,11.875 0.019,0.065 c -1.878,6.249 -11.061,36.803 -23.271,77.378 -0.134,-0.015 -0.205,-0.011 -0.204,0.015 -0.166,-6.25 -3.253,-8.916 -5.919,-12.25 -13,-13.333 -52.667,-29 -111,-29 C 49.584,48.083 31.167,79.5 28.917,82.917 26.667,86.334 27.75,90.25 27.75,90.25 L 27.309,89.793 3.862,12.762 4,12.25 Z" /></g></g></g></g></svg>