<?xml version="1.0" encoding="UTF-8" standalone="no"?>
<svg
   xmlns:dc="http://purl.org/dc/elements/1.1/"
   xmlns:cc="http://creativecommons.org/ns#"
   xmlns:rdf="http://www.w3.org/1999/02/22-rdf-syntax-ns#"
   xmlns:svg="http://www.w3.org/2000/svg"
   xmlns="http://www.w3.org/2000/svg"
   viewBox="0 0 1365.3333 1365.3333"
   height="1365.3333"
   width="1365.3333"
   xml:space="preserve"
   id="svg4757"
   version="1.1"><metadata
     id="metadata4763"><rdf:RDF><cc:Work
         rdf:about=""><dc:format>image/svg+xml</dc:format><dc:type
           rdf:resource="http://purl.org/dc/dcmitype/StillImage" /><dc:title></dc:title></cc:Work></rdf:RDF></metadata><defs
     id="defs4761"><clipPath
       id="clipPath4773"
       clipPathUnits="userSpaceOnUse"><path
         id="path4771"
         d="M 0,1024 H 1024 V 0 H 0 Z" /></clipPath></defs><g
     transform="matrix(1.3333333,0,0,-1.3333333,0,1365.3333)"
     id="g4765"><g
       id="g4767"><g
         clip-path="url(#clipPath4773)"
         id="g4769"><g
           transform="translate(933,190)"
           id="g4775"><path
             id="path4777"
             style="fill:#22313f;fill-opacity:1;fill-rule:nonzero;stroke:none"
             d="m 0,0 c 0,-55.229 -44.772,-100 -100,-100 h -643 c -55.229,0 -100,44.771 -100,100 v 643 c 0,55.229 44.771,100 100,100 h 643 C -44.772,743 0,698.229 0,643 Z" /></g><g
           transform="translate(582.1125,370.8958)"
           id="g4779"><path
             id="path4781"
             style="fill:#4b76be;fill-opacity:1;fill-rule:nonzero;stroke:none"
             d="m 0,0 h -294.149 c -38.5,0 -70,31.5 -70,70 v 294.149 c 0,38.5 31.5,70 70,70 H 0 c 38.5,0 70,-31.5 70,-70 V 70 C 70,31.5 38.5,0 0,0" /></g><g
           transform="translate(735,218.4317)"
           id="g4783"><path
             id="path4785"
             style="fill:#d91e18;fill-opacity:1;fill-rule:nonzero;stroke:none"
             d="m 0,0 h -293.848 c -38.5,0 -70,31.5 -70,70 v 293.478 c 0,38.5 31.5,70 70,70 H 0 c 38.5,0 70,-31.5 70,-70 V 70 C 70,31.5 38.5,0 0,0" /></g><g
           transform="translate(470.0161,371)"
           id="g4787"><path
             id="path4789"
             style="fill:#4b76be;fill-opacity:1;fill-rule:nonzero;stroke:none"
             d="M 0,0 H 182.25 L 76.97,105 H -101.016 V 0 Z" /></g><g
           transform="translate(651.9456,548)"
           id="g4791"><path
             id="path4793"
             style="fill:#4b76be;fill-opacity:1;fill-rule:nonzero;stroke:none"
             d="M 0,0 H -104.946 V -71.986 L 0.167,-177.098 Z" /></g><g
           transform="translate(488.8846,323.6517)"
           id="g4795"><path
             id="path4797"
             style="fill:#ffffff;fill-opacity:1;fill-rule:nonzero;stroke:none"
             d="m 0,0 h 207.048 c 1.923,0 3.481,1.559 3.481,3.481 v 205.256 c 0,8.845 -7.17,16.015 -16.014,16.015 H 163.061 V 120.374 l -208.919,207.92 h 103.96 l -0.204,31.444 c -0.057,8.804 -7.21,15.91 -16.014,15.91 h -203.587 c -1.923,0 -3.482,-1.558 -3.482,-3.481 V 168.625 c 0,-8.845 7.17,-16.015 16.015,-16.015 h 31.34 V 255.655 L 89.09,47.403 H -16.014 V 16.014 C -16.014,7.17 -8.845,0 0,0" /></g></g></g></g></svg>