<?xml version="1.0" encoding="UTF-8" standalone="no"?>
<svg
   xmlns:dc="http://purl.org/dc/elements/1.1/"
   xmlns:cc="http://creativecommons.org/ns#"
   xmlns:rdf="http://www.w3.org/1999/02/22-rdf-syntax-ns#"
   xmlns:svg="http://www.w3.org/2000/svg"
   xmlns="http://www.w3.org/2000/svg"
   viewBox="0 0 1365.3333 1365.3333"
   height="1365.3333"
   width="1365.3333"
   xml:space="preserve"
   id="svg4799"
   version="1.1"><metadata
     id="metadata4805"><rdf:RDF><cc:Work
         rdf:about=""><dc:format>image/svg+xml</dc:format><dc:type
           rdf:resource="http://purl.org/dc/dcmitype/StillImage" /><dc:title></dc:title></cc:Work></rdf:RDF></metadata><defs
     id="defs4803"><clipPath
       id="clipPath4815"
       clipPathUnits="userSpaceOnUse"><path
         id="path4813"
         d="M 0,1024 H 1024 V 0 H 0 Z" /></clipPath></defs><g
     transform="matrix(1.3333333,0,0,-1.3333333,0,1365.3333)"
     id="g4807"><g
       id="g4809"><g
         clip-path="url(#clipPath4815)"
         id="g4811"><g
           transform="translate(933,190)"
           id="g4817"><path
             id="path4819"
             style="fill:#cccccc;fill-opacity:1;fill-rule:nonzero;stroke:none"
             d="m 0,0 c 0,-55.229 -44.772,-100 -100,-100 h -643 c -55.229,0 -100,44.771 -100,100 v 643 c 0,55.229 44.771,100 100,100 h 643 C -44.772,743 0,698.229 0,643 Z" /></g><g
           transform="translate(510.4766,241.3926)"
           id="g4821"><path
             id="path4823"
             style="fill:#e48f00;fill-opacity:1;fill-rule:nonzero;stroke:none"
             d="m 0,0 c -147.837,0.584 -267.827,121.417 -267.476,269.357 0.17,71.697 28.255,139.264 79.08,190.256 50.774,50.94 117.919,78.994 189.065,78.994 l 0.969,-0.002 C 73.635,538.346 141.085,510.243 191.566,459.472 242.057,408.69 269.842,340.996 269.802,268.859 269.762,196.714 241.863,129.1 191.245,78.474 140.648,27.867 73.119,-0.002 1.099,-0.002 Z" /></g><g
           transform="translate(511.1459,805)"
           id="g4825"><path
             id="path4827"
             style="fill:#393939;fill-opacity:1;fill-rule:nonzero;stroke:none"
             d="m 0,0 c -160.915,-0.003 -292.761,-132.192 -293.145,-294.19 -0.383,-161.61 130.871,-293.78 292.377,-294.417 0.409,-0.002 0.789,-0.002 1.198,-0.002 162.689,0 293.612,130.849 293.702,293.847 C 294.222,-131.848 163.714,-0.588 1.059,-0.002 0.704,-0.001 0.354,0 0,0 M 0.001,-50 H 0 l 0.879,-10e-4 c 65.325,-0.236 126.512,-25.721 172.289,-71.761 45.798,-46.062 71,-107.491 70.964,-172.972 -0.036,-65.474 -25.334,-126.815 -71.235,-172.724 C 127.022,-513.341 65.772,-538.609 0.43,-538.609 l -1.001,0.002 c -32.729,0.129 -64.481,6.69 -94.373,19.502 -28.92,12.395 -54.908,30.083 -77.243,52.574 -22.337,22.492 -39.852,48.612 -52.059,77.634 -12.618,30.001 -18.977,61.825 -18.899,94.588 0.078,32.878 6.592,64.805 19.363,94.894 12.349,29.095 29.987,55.261 52.423,77.771 22.414,22.486 48.434,40.138 77.337,52.464 29.841,12.727 61.475,19.18 94.023,19.18" /></g><g
           transform="translate(695.7789,510.2723)"
           id="g4829"><path
             id="path4831"
             style="fill:#ffdc48;fill-opacity:1;fill-rule:nonzero;stroke:none"
             d="m 0,0 c 0,-101.681 -82.429,-184.11 -184.11,-184.11 -101.681,0 -184.11,82.429 -184.11,184.11 0,101.681 82.429,184.11 184.11,184.11 C -82.429,184.11 0,101.681 0,0" /></g><g
           transform="translate(563.3183,510.5269)"
           id="g4833"><path
             id="path4835"
             style="fill:#393939;fill-opacity:1;fill-rule:nonzero;stroke:none"
             d="m 0,0 c -0.171,-29.763 -23.743,-53.057 -52.679,-52.06 -27.449,0.946 -50.658,24.995 -50.621,52.456 0.039,29.033 23.839,51.777 53.55,51.174 C -20.735,50.98 0.169,29.313 0,0" /></g></g></g></g></svg>