<?xml version="1.0" encoding="UTF-8" standalone="no"?>
<svg
   xmlns:dc="http://purl.org/dc/elements/1.1/"
   xmlns:cc="http://creativecommons.org/ns#"
   xmlns:rdf="http://www.w3.org/1999/02/22-rdf-syntax-ns#"
   xmlns:svg="http://www.w3.org/2000/svg"
   xmlns="http://www.w3.org/2000/svg"
   viewBox="0 0 1365.3333 1365.3333"
   height="1365.3333"
   width="1365.3333"
   xml:space="preserve"
   id="svg4981"
   version="1.1"><metadata
     id="metadata4987"><rdf:RDF><cc:Work
         rdf:about=""><dc:format>image/svg+xml</dc:format><dc:type
           rdf:resource="http://purl.org/dc/dcmitype/StillImage" /><dc:title></dc:title></cc:Work></rdf:RDF></metadata><defs
     id="defs4985"><clipPath
       id="clipPath4997"
       clipPathUnits="userSpaceOnUse"><path
         id="path4995"
         d="M 0,1024 H 1024 V 0 H 0 Z" /></clipPath><clipPath
       id="clipPath5013"
       clipPathUnits="userSpaceOnUse"><path
         id="path5011"
         d="M 0,1024 H 1024 V 0 H 0 Z" /></clipPath><clipPath
       id="clipPath5021"
       clipPathUnits="userSpaceOnUse"><path
         id="path5019"
         d="M 91,933 H 934 V 90 H 91 Z" /></clipPath><clipPath
       id="clipPath5037"
       clipPathUnits="userSpaceOnUse"><path
         id="path5035"
         d="M 0,1024 H 1024 V 0 H 0 Z" /></clipPath><clipPath
       id="clipPath5045"
       clipPathUnits="userSpaceOnUse"><path
         id="path5043"
         d="M 218.958,761.917 H 805.991 V 262.036 H 218.958 Z" /></clipPath></defs><g
     transform="matrix(1.3333333,0,0,-1.3333333,0,1365.3333)"
     id="g4989"><g
       id="g4991"><g
         clip-path="url(#clipPath4997)"
         id="g4993"><g
           transform="translate(834,933)"
           id="g4999"><path
             id="path5001"
             style="fill:#fff100;fill-opacity:1;fill-rule:nonzero;stroke:none"
             d="m 0,0 h -643 c -55.229,0 -100,-44.771 -100,-100 v -643 c 0,-55.229 44.771,-100 100,-100 H 0 c 55.229,0 100,44.771 100,100 v 643 C 100,-44.771 55.229,0 0,0" /></g><g
           transform="translate(736,805)"
           id="g5003"><path
             id="path5005"
             style="fill:#ec1c23;fill-opacity:1;fill-rule:nonzero;stroke:none"
             d="m 0,0 h -447 c -38.66,0 -70,-31.34 -70,-70 v -447 c 0,-38.66 31.34,-70 70,-70 H 0 c 38.66,0 70,31.34 70,70 V -70 C 70,-31.34 38.66,0 0,0" /></g></g></g><g
       id="g5007"><g
         clip-path="url(#clipPath5013)"
         id="g5009"><g
           id="g5015"><g
             id="g5017" /><g
             id="g5029"><g
               id="g5027"
               clip-path="url(#clipPath5021)"><g
                 id="g5025"
                 transform="translate(834,933)"><path
                   id="path5023"
                   style="fill:#2788b5;fill-opacity:1;fill-rule:nonzero;stroke:none"
                   d="m 0,0 h -643 c -55.229,0 -100,-44.771 -100,-100 v -643 c 0,-55.229 44.771,-100 100,-100 H 0 c 55.229,0 100,44.771 100,100 v 643 C 100,-44.771 55.229,0 0,0" /></g></g></g></g></g></g><g
       id="g5031"><g
         clip-path="url(#clipPath5037)"
         id="g5033"><g
           id="g5039"><g
             id="g5041" /><g
             id="g5053"><g
               id="g5051"
               clip-path="url(#clipPath5045)"><g
                 id="g5049"
                 transform="translate(805.4727,426.7832)"><path
                   id="path5047"
                   style="fill:#ffffff;fill-opacity:1;fill-rule:evenodd;stroke:none"
                   d="m 0,0 c 0,23.245 -16.633,57.333 -16.633,57.333 -2.597,6.04 -11.406,18.746 -17.044,26.609 h 0.14 c -1.804,2.411 -3.062,4.024 -3.062,4.024 -16.604,19.003 -41.748,40.188 -52.826,53.831 -12.97,16.006 -13.316,30.979 -14.014,42.632 -1.876,31.482 10.897,50.507 24.576,69.116 20.657,28.051 28.092,33.315 43.993,51.674 10.144,11.736 18.505,21.249 25.368,29.884 h -154.073 c -9.17,-11.681 -27.78,-34.202 -38.411,-54.175 -14.039,-26.444 -25.589,-46.283 -26.735,-94.963 l 0.519,-15.679 c 0,-23.208 16.629,-57.284 16.629,-57.284 2.598,-6.041 11.401,-18.829 17.032,-26.609 h -0.144 c 1.855,-2.461 3.078,-4.046 3.078,-4.046 16.607,-18.984 41.733,-40.201 52.827,-53.826 12.972,-15.969 13.316,-30.966 14.015,-42.625 1.878,-31.516 -10.899,-50.505 -24.559,-69.115 -20.666,-28.125 -28.11,-33.332 -44.016,-51.714 -10.144,-11.722 -18.5,-21.217 -25.371,-29.814 h 159.195 c 9.334,11.956 22.626,34.034 33.298,54.133 14.038,26.445 25.604,46.284 26.737,94.92 z m -211.07,-119.655 c 5.292,6.093 9.689,10.803 13.912,15.372 8.403,9.046 15.674,16.845 28.951,34.884 13.025,17.706 21.441,31.035 20.068,53.884 -0.667,11.76 -1.137,19.829 -8.826,29.303 -4.617,5.682 -13.189,13.941 -22.283,22.675 -9.838,9.474 -18.398,18.488 -29.994,30.544 -11.605,12.014 -26.609,42.734 -26.609,42.734 -4.466,10.17 -12.814,31.288 -15.137,50.921 l -34.091,174.472 h -97.15 l -47.525,-220.033 -42.088,220.033 h -114.673 l 103.455,-499.881 h 96.592 l 48.286,216.382 42.706,-216.382 h 44.839 l 13.592,14.526 c 6.07,7.611 13.246,15.911 21.742,25.692 z" /></g></g></g></g></g></g></g></svg>