<?xml version="1.0" encoding="UTF-8" standalone="no"?>
<svg
   xmlns:dc="http://purl.org/dc/elements/1.1/"
   xmlns:cc="http://creativecommons.org/ns#"
   xmlns:rdf="http://www.w3.org/1999/02/22-rdf-syntax-ns#"
   xmlns:svg="http://www.w3.org/2000/svg"
   xmlns="http://www.w3.org/2000/svg"
   viewBox="0 0 1280 1280"
   height="1280"
   width="1280"
   xml:space="preserve"
   version="1.1"
   id="svg2"><metadata
     id="metadata8"><rdf:RDF><cc:Work
         rdf:about=""><dc:format>image/svg+xml</dc:format><dc:type
           rdf:resource="http://purl.org/dc/dcmitype/StillImage" /><dc:title></dc:title></cc:Work></rdf:RDF></metadata><defs
     id="defs6"><clipPath
       id="clipPath16"
       clipPathUnits="userSpaceOnUse"><path
         id="path18"
         d="m 0,1024 1024,0 L 1024,0 0,0 0,1024 Z" /></clipPath></defs><g
     transform="matrix(1.25,0,0,-1.25,0,1280)"
     id="g10"><g
       id="g12"><g
         clip-path="url(#clipPath16)"
         id="g14"><g
           transform="translate(933,190)"
           id="g20"><path
             id="path22"
             style="fill:#e8edf0;fill-opacity:1;fill-rule:nonzero;stroke:none"
             d="m 0,0 c 0,-55.229 -44.771,-100 -100,-100 l -643,0 c -55.229,0 -100,44.771 -100,100 l 0,643 c 0,55.229 44.771,100 100,100 l 643,0 C -44.771,743 0,698.229 0,643 L 0,0 Z" /></g><g
           transform="translate(511.292,571.2402)"
           id="g24"><path
             id="path26"
             style="fill:#9eacb7;fill-opacity:1;fill-rule:evenodd;stroke:none"
             d="m 0,0 c -30.077,-93.04 -60.154,-186.08 -90.409,-279.675 l -37.107,0 c -1.139,3.304 -2.359,6.368 -3.261,9.529 -34.816,121.885 -69.496,243.812 -104.571,365.624 -3.182,11.049 -7.816,22.008 -13.68,31.875 -8.173,13.758 -21.175,21.528 -37.334,23.495 -1.917,0.235 -3.765,1.019 -5.954,1.635 -0.162,2.354 -0.295,6.006 -0.476,8.63 7.124,0 4.848,-0.008 7.124,0 32.245,0.105 64.49,0.084 96.736,0.023 1.943,-0.004 3.885,-0.616 6.702,-1.095 24.011,-86.477 48.007,-172.898 72.002,-259.316 0.724,-0.108 1.448,-0.214 2.172,-0.323 29.978,86.452 59.954,172.905 90.147,259.973 l 37.421,0 c 30.084,-86.761 60.196,-173.604 90.309,-260.447 0.585,-0.042 1.17,-0.085 1.752,-0.126 24.083,86.717 48.166,173.432 72.567,261.3 36.839,0.217 73.055,0.189 109.672,0.044 0.184,-3.877 0.277,-5.791 0.396,-8.268 -2.342,-0.764 -4.338,-1.771 -6.433,-2.043 -19.459,-2.527 -33.338,-13.285 -41.407,-30.501 -5.659,-12.069 -9.557,-25.071 -13.246,-37.94 -33.52,-116.906 -66.815,-233.875 -100.2,-350.82 -1.03,-3.615 -2.309,-7.159 -3.656,-11.314 l -37.213,0 C 61.83,-186.279 31.693,-93.079 1.557,0.121 1.038,0.08 0.52,0.04 0,0" /></g></g></g></g></svg>