<?xml version="1.0" encoding="UTF-8" standalone="no"?>
<svg
   xmlns:dc="http://purl.org/dc/elements/1.1/"
   xmlns:cc="http://creativecommons.org/ns#"
   xmlns:rdf="http://www.w3.org/1999/02/22-rdf-syntax-ns#"
   xmlns:svg="http://www.w3.org/2000/svg"
   xmlns="http://www.w3.org/2000/svg"
   viewBox="0 0 1365.3333 1365.3333"
   height="1365.3333"
   width="1365.3333"
   xml:space="preserve"
   id="svg5055"
   version="1.1"><metadata
     id="metadata5061"><rdf:RDF><cc:Work
         rdf:about=""><dc:format>image/svg+xml</dc:format><dc:type
           rdf:resource="http://purl.org/dc/dcmitype/StillImage" /><dc:title></dc:title></cc:Work></rdf:RDF></metadata><defs
     id="defs5059"><clipPath
       id="clipPath5071"
       clipPathUnits="userSpaceOnUse"><path
         id="path5069"
         d="M 0,1024 H 1024 V 0 H 0 Z" /></clipPath><clipPath
       id="clipPath5083"
       clipPathUnits="userSpaceOnUse"><path
         id="path5081"
         d="M 0,1024 H 1024 V 0 H 0 Z" /></clipPath></defs><g
     transform="matrix(1.3333333,0,0,-1.3333333,0,1365.3333)"
     id="g5063"><g
       id="g5065"><g
         clip-path="url(#clipPath5071)"
         id="g5067"><g
           transform="translate(933,190)"
           id="g5073"><path
             id="path5075"
             style="fill:#3099ca;fill-opacity:1;fill-rule:nonzero;stroke:none"
             d="m 0,0 c 0,-55.229 -44.771,-100 -100,-100 h -643 c -55.229,0 -100,44.771 -100,100 v 643 c 0,55.229 44.771,100 100,100 h 643 C -44.771,743 0,698.229 0,643 Z" /></g></g></g><g
       id="g5077"><g
         clip-path="url(#clipPath5083)"
         id="g5079"><g
           transform="translate(933,341.0645)"
           id="g5085"><path
             id="path5087"
             style="fill:#e5e5e5;fill-opacity:1;fill-rule:nonzero;stroke:none"
             d="m 0,0 v -35.708 c -41.809,-0.565 -167.701,0.554 -209.517,0.357 -10.295,0.197 -20.681,1.368 -30.863,0.389 -21.274,-2.045 -29.343,10.923 -34.461,28.094 -1.46,4.914 -2.996,9.805 -4.589,14.674 -26.988,82.499 -39.668,166.198 -22.874,252.766 5.249,27.067 15.946,52.344 25.206,78.637 -44.865,2.489 -115.359,-24.848 -157.716,-59.07 -67.859,-54.824 -105.691,-127.722 -130.15,-209.644 -9.951,-33.32 -11.415,-68.35 -23.246,-101.087 -8.509,-3.283 -17.285,-4.18 -26.418,-4.143 -46.336,0.188 -182.063,-1.747 -228.372,-0.616 v 33.738 c 35.414,0.515 155.771,0.73 191.192,0.655 39.497,-0.09 39.497,-0.099 43.801,39.819 0.202,10.406 5.478,19.425 7.956,29.188 13.149,51.809 33.822,100.369 62.165,145.665 32.249,51.541 74.85,93.336 127.382,122.87 47.846,26.899 101.135,38.546 156.322,39.623 24.067,0.472 30.906,-10.035 19.168,-31.235 -11.541,-20.838 -21.798,-42.073 -28.35,-65.018 -24.621,-86.212 -12.537,-170.425 12.469,-254.35 6.129,-20.577 15.614,-31.098 37.703,-26.419" /></g></g></g></g></svg>