<?xml version="1.0" encoding="UTF-8" standalone="no"?>
<svg
   xmlns:dc="http://purl.org/dc/elements/1.1/"
   xmlns:cc="http://creativecommons.org/ns#"
   xmlns:rdf="http://www.w3.org/1999/02/22-rdf-syntax-ns#"
   xmlns:svg="http://www.w3.org/2000/svg"
   xmlns="http://www.w3.org/2000/svg"
   viewBox="0 0 1365.3333 1365.3333"
   height="1365.3333"
   width="1365.3333"
   xml:space="preserve"
   id="svg5089"
   version="1.1"><metadata
     id="metadata5095"><rdf:RDF><cc:Work
         rdf:about=""><dc:format>image/svg+xml</dc:format><dc:type
           rdf:resource="http://purl.org/dc/dcmitype/StillImage" /><dc:title></dc:title></cc:Work></rdf:RDF></metadata><defs
     id="defs5093"><clipPath
       id="clipPath5105"
       clipPathUnits="userSpaceOnUse"><path
         id="path5103"
         d="M 0,1024 H 1024 V 0 H 0 Z" /></clipPath></defs><g
     transform="matrix(1.3333333,0,0,-1.3333333,0,1365.3333)"
     id="g5097"><g
       id="g5099"><g
         clip-path="url(#clipPath5105)"
         id="g5101"><g
           transform="translate(833,933)"
           id="g5107"><path
             id="path5109"
             style="fill:#f9f9f9;fill-opacity:1;fill-rule:nonzero;stroke:none"
             d="m 0,0 h -643 c -55.229,0 -100,-44.771 -100,-100 v -643 c 0,-55.229 44.771,-100 100,-100 H 0 c 55.229,0 100,44.771 100,100 v 643 C 100,-44.771 55.229,0 0,0" /></g><g
           transform="translate(340,641)"
           id="g5111"><path
             id="path5113"
             style="fill:#ff4f00;fill-opacity:1;fill-rule:nonzero;stroke:none"
             d="m 0,0 c 3,0 112,12 115,12 3,0 5,2 7,6 2,4 46,101 47,104 1,3 4,4 6,0 0,0 48,-103 49,-105 1,-2 2.039,-3.608 4,-4 5,-1 116,-13 118,-13 2,0 2,-2 1,-3 -1,-1 -86,-79 -88,-81 -2,-2 -2,-3 -1,-6 1,-3 21.03,-109.119 22,-113 1,-4 0,-6 -4,-4 -2,1 -95,53 -98,55 -3,2 -7,4 -9,2 -2,-2 -100,-56 -102,-57 -2,-1 -4,0 -3,4 1,4 22,107 23,111 1,4 0,7 -2,8 -2,1 -83,77 -85,79 -2,2 -3,5 0,5 m 172,-271 225,-171 -0.966,734 H -53 v -735 z" /></g></g></g></g></svg>