<?xml version="1.0" encoding="UTF-8" standalone="no"?>
<svg
   xmlns:dc="http://purl.org/dc/elements/1.1/"
   xmlns:cc="http://creativecommons.org/ns#"
   xmlns:rdf="http://www.w3.org/1999/02/22-rdf-syntax-ns#"
   xmlns:svg="http://www.w3.org/2000/svg"
   xmlns="http://www.w3.org/2000/svg"
   viewBox="0 0 1365.3333 1365.3333"
   height="1365.3333"
   width="1365.3333"
   xml:space="preserve"
   id="svg5115"
   version="1.1"><metadata
     id="metadata5121"><rdf:RDF><cc:Work
         rdf:about=""><dc:format>image/svg+xml</dc:format><dc:type
           rdf:resource="http://purl.org/dc/dcmitype/StillImage" /><dc:title></dc:title></cc:Work></rdf:RDF></metadata><defs
     id="defs5119"><clipPath
       id="clipPath5131"
       clipPathUnits="userSpaceOnUse"><path
         id="path5129"
         d="M 0,1024 H 1024 V 0 H 0 Z" /></clipPath><clipPath
       id="clipPath5147"
       clipPathUnits="userSpaceOnUse"><path
         id="path5145"
         d="M 0,1024 H 1024 V 0 H 0 Z" /></clipPath><clipPath
       id="clipPath5155"
       clipPathUnits="userSpaceOnUse"><path
         id="path5153"
         d="M 91,933 H 934 V 90 H 91 Z" /></clipPath><clipPath
       id="clipPath5171"
       clipPathUnits="userSpaceOnUse"><path
         id="path5169"
         d="M 0,1024 H 1024 V 0 H 0 Z" /></clipPath><clipPath
       id="clipPath5179"
       clipPathUnits="userSpaceOnUse"><path
         id="path5177"
         d="M 219.022,772.009 H 806.977 V 250.016 H 219.022 Z" /></clipPath></defs><g
     transform="matrix(1.3333333,0,0,-1.3333333,0,1365.3333)"
     id="g5123"><g
       id="g5125"><g
         clip-path="url(#clipPath5131)"
         id="g5127"><g
           transform="translate(834,933)"
           id="g5133"><path
             id="path5135"
             style="fill:#fff100;fill-opacity:1;fill-rule:nonzero;stroke:none"
             d="m 0,0 h -643 c -55.229,0 -100,-44.771 -100,-100 v -643 c 0,-55.229 44.771,-100 100,-100 H 0 c 55.229,0 100,44.771 100,100 v 643 C 100,-44.771 55.229,0 0,0" /></g><g
           transform="translate(736,805)"
           id="g5137"><path
             id="path5139"
             style="fill:#ec1c23;fill-opacity:1;fill-rule:nonzero;stroke:none"
             d="m 0,0 h -447 c -38.66,0 -70,-31.34 -70,-70 v -447 c 0,-38.66 31.34,-70 70,-70 H 0 c 38.66,0 70,31.34 70,70 V -70 C 70,-31.34 38.66,0 0,0" /></g></g></g><g
       id="g5141"><g
         clip-path="url(#clipPath5147)"
         id="g5143"><g
           id="g5149"><g
             id="g5151" /><g
             id="g5163"><g
               id="g5161"
               clip-path="url(#clipPath5155)"><g
                 id="g5159"
                 transform="translate(834,933)"><path
                   id="path5157"
                   style="fill:#3498db;fill-opacity:1;fill-rule:nonzero;stroke:none"
                   d="m 0,0 h -643 c -55.229,0 -100,-44.771 -100,-100 v -643 c 0,-55.229 44.771,-100 100,-100 H 0 c 55.229,0 100,44.771 100,100 v 643 C 100,-44.771 55.229,0 0,0" /></g></g></g></g></g></g><g
       id="g5165"><g
         clip-path="url(#clipPath5171)"
         id="g5167"><g
           id="g5173"><g
             id="g5175" /><g
             id="g5187"><g
               id="g5185"
               clip-path="url(#clipPath5179)"><g
                 id="g5183"
                 transform="translate(629.0576,376.6621)"><path
                   id="path5181"
                   style="fill:#ffffff;fill-opacity:1;fill-rule:nonzero;stroke:none"
                   d="m 0,0 c -11.041,-0.168 -22.089,0.117 -33.126,-0.109 -5.524,-0.113 -8.966,1.987 -11.682,6.874 -22.034,39.649 -44.268,79.189 -66.469,118.745 -1.232,2.196 -1.971,5.679 -4.471,5.864 -3.243,0.239 -3.806,-3.626 -5.106,-5.935 -22.137,-39.3 -44.251,-78.614 -66.21,-118.012 -2.959,-5.309 -6.745,-7.769 -12.942,-7.573 -10.775,0.345 -21.572,-0.036 -32.354,0.153 -8.924,0.154 -11.126,4.023 -6.8,11.75 21.531,38.465 43.006,76.961 64.818,115.265 3.074,5.399 3.014,9.351 -0.032,14.724 -21.613,38.123 -42.898,76.432 -64.23,114.712 -4.899,8.793 -2.94,12.143 7.125,12.26 10.527,0.123 21.066,-0.219 31.583,0.125 6.218,0.204 9.974,-2.343 12.922,-7.623 21.238,-38.041 42.634,-75.993 63.996,-113.963 1.985,-3.526 4.085,-6.984 7.012,-11.975 12.627,22.444 24.302,43.183 35.965,63.927 11.682,20.776 23.48,41.487 34.938,62.385 2.832,5.164 6.435,7.378 12.276,7.227 10.522,-0.269 21.058,-0.001 31.587,-0.092 10.68,-0.093 12.668,-3.332 7.57,-12.479 -21.334,-38.281 -42.639,-76.579 -64.223,-114.719 -2.865,-5.06 -3.152,-8.855 -0.194,-14.054 C -36.249,89.162 -14.777,50.663 6.779,12.214 11.384,4 9.312,0.142 0,0 M 170.219,160.731 C 129.889,230.413 89.636,300.138 49.423,369.886 39.564,386.984 25.024,395.36 5.171,395.33 c -80.672,-0.128 -161.343,-0.151 -242.014,0.017 -20.167,0.042 -34.858,-8.352 -44.871,-25.738 -40.183,-69.764 -80.462,-139.474 -120.771,-209.168 -10.172,-17.588 -10.013,-34.909 0.155,-52.472 40.337,-69.675 80.593,-139.399 120.799,-209.151 9.862,-17.108 24.395,-25.53 44.244,-25.446 40.335,0.17 80.671,0.051 121.008,0.05 40.335,0 80.672,0.16 121.007,-0.068 20.164,-0.114 34.847,8.347 44.864,25.739 40.177,69.768 80.457,139.478 120.771,209.168 10.178,17.594 10.017,34.915 -0.144,52.47" /></g></g></g></g></g></g></g></svg>