<?xml version="1.0" encoding="UTF-8" standalone="no"?>
<svg
   xmlns:dc="http://purl.org/dc/elements/1.1/"
   xmlns:cc="http://creativecommons.org/ns#"
   xmlns:rdf="http://www.w3.org/1999/02/22-rdf-syntax-ns#"
   xmlns:svg="http://www.w3.org/2000/svg"
   xmlns="http://www.w3.org/2000/svg"
   viewBox="0 0 1365.3333 1365.3333"
   height="1365.3333"
   width="1365.3333"
   xml:space="preserve"
   id="svg5219"
   version="1.1"><metadata
     id="metadata5225"><rdf:RDF><cc:Work
         rdf:about=""><dc:format>image/svg+xml</dc:format><dc:type
           rdf:resource="http://purl.org/dc/dcmitype/StillImage" /><dc:title></dc:title></cc:Work></rdf:RDF></metadata><defs
     id="defs5223"><clipPath
       id="clipPath5235"
       clipPathUnits="userSpaceOnUse"><path
         id="path5233"
         d="M 0,1024 H 1024 V 0 H 0 Z" /></clipPath><clipPath
       id="clipPath5255"
       clipPathUnits="userSpaceOnUse"><path
         id="path5253"
         d="M 190,933 C 134.771,933 90,888.229 90,833 v 0 -643 C 90,134.771 134.771,90 190,90 v 0 h 643 c 55.229,0 100,44.771 100,100 v 0 643 c 0,55.229 -44.771,100 -100,100 v 0 z" /></clipPath></defs><g
     transform="matrix(1.3333333,0,0,-1.3333333,0,1365.3333)"
     id="g5227"><g
       id="g5229"><g
         clip-path="url(#clipPath5235)"
         id="g5231"><g
           transform="translate(833,933)"
           id="g5237"><path
             id="path5239"
             style="fill:#599cd4;fill-opacity:1;fill-rule:nonzero;stroke:none"
             d="m 0,0 h -643 c -55.229,0 -100,-44.771 -100,-100 v -643 c 0,-55.229 44.771,-100 100,-100 H 0 c 55.229,0 100,44.771 100,100 v 643 C 100,-44.771 55.229,0 0,0" /></g><g
           transform="translate(358.96,251.3145)"
           id="g5241"><path
             id="path5243"
             style="fill:#404040;fill-opacity:1;fill-rule:nonzero;stroke:none"
             d="m 0,0 70.473,-28.534 c 0,0 1.771,-0.718 4.069,-0.718 2.298,0 3.112,0.239 5.123,1.628 2.01,1.388 4.069,3.351 5.17,7.995 1.102,4.644 0.335,4.022 3.304,13.884 2.968,9.862 30.721,81.134 34.042,90.964 3.319,9.83 43.277,121.285 60.895,188.948 1.82,7.149 4.117,9.831 4.117,13.661 0,3.83 -3.925,7.085 -7.181,8.713 -3.255,1.627 -31.215,13.405 -35.045,14.362 -3.83,0.958 -10.341,2.777 -13.693,-4.117 C 127.923,299.892 92.304,232.675 51.706,144.201 11.107,55.727 3.064,32.363 3.064,32.363 c 0,0 -0.638,-3.574 -4.851,-9.702 C -6,16.533 -8.426,12.83 -8.298,9.512 -8.17,6.192 -6.683,2.705 0,0" /></g><g
           transform="translate(750.3896,719.2822)"
           id="g5245"><path
             id="path5247"
             style="fill:#e5e8ed;fill-opacity:1;fill-rule:nonzero;stroke:none"
             d="m 0,0 c -2.426,0.894 -22.979,9.064 -24.703,9.83 -1.724,0.766 -5.745,0.479 -5.745,0.479 0,0 -2.298,-0.67 -8.426,-0.67 -20.108,0.095 -33.034,6.702 -42.609,15.128 -9.576,8.426 -11.682,18.671 -11.778,20.778 -0.095,2.107 -1.819,3.639 -3.257,4.245 -30.896,14.299 -86.302,32.427 -133.795,32.427 -47.493,0 -81.068,-16.085 -96.389,-23.745 -15.32,-7.66 -25.566,-15.416 -27.385,-16.661 -1.819,-1.245 -0.383,-2.298 0.766,-2.873 1.149,-0.574 3.002,0.386 3.002,0.386 0,0 27.066,13.278 82.985,12.767 55.919,-0.51 65.365,-21.703 68.685,-31.661 3.319,-9.958 3.83,-27.576 1.277,-36.257 -5.616,-25.278 -56.732,-140.442 -56.733,-140.445 2.715,0.493 5.571,-0.274 7.642,-0.792 3.83,-0.957 31.79,-12.735 35.045,-14.363 2.073,-1.036 4.414,-2.734 5.844,-4.819 0,0 27.86,72.515 42.989,110.624 15.129,38.109 48.642,46.631 56.78,46.631 24.8,0 48.101,-25.439 49.825,-28.695 1.723,-3.255 4.403,-4.658 5.233,-5.105 0.831,-0.447 21.959,-9.192 23.874,-10.086 1.915,-0.894 3.191,-0.383 3.64,0.191 C -2.551,-41.493 2.426,-8.554 2.809,-5.745 3.191,-2.937 2.426,-0.894 0,0" /></g></g></g><g
       id="g5249"><g
         clip-path="url(#clipPath5255)"
         id="g5251"><g
           transform="translate(414.5352,1029.6177)"
           id="g5257"><path
             id="path5259"
             style="fill:#dd3974;fill-opacity:1;fill-rule:nonzero;stroke:none"
             d="m 0,0 -406.586,-406.586 66.467,-66.468 406.587,406.586 z" /></g></g></g><text
       id="text5263"
       style="font-variant:normal;font-weight:500;font-stretch:normal;font-size:70.40831757px;font-family:'Helvetica 65 Medium';-inkscape-font-specification:HelveticaNeue-Medium;writing-mode:lr-tb;fill:#ffffff;fill-opacity:1;fill-rule:nonzero;stroke:none"
       transform="matrix(0.70710678,0.70710678,0.70710678,-0.70710678,194.6379,704.6105)"><tspan
         id="tspan5261"
         y="0"
         x="0 49.567455 93.924698 129.19926">BETA</tspan></text>
</g></svg>