<?xml version="1.0" encoding="UTF-8" standalone="no"?>
<svg
   xmlns:dc="http://purl.org/dc/elements/1.1/"
   xmlns:cc="http://creativecommons.org/ns#"
   xmlns:rdf="http://www.w3.org/1999/02/22-rdf-syntax-ns#"
   xmlns:svg="http://www.w3.org/2000/svg"
   xmlns="http://www.w3.org/2000/svg"
   xmlns:sodipodi="http://sodipodi.sourceforge.net/DTD/sodipodi-0.dtd"
   xmlns:inkscape="http://www.inkscape.org/namespaces/inkscape"
   viewBox="0 0 1365.3333 1365.3333"
   height="1365.3333"
   width="1365.3333"
   xml:space="preserve"
   id="svg5219"
   version="1.1"
   inkscape:version="0.91 r13725"
   sodipodi:docname="Xcode 6 Beta.svg"><sodipodi:namedview
     pagecolor="#ffffff"
     bordercolor="#666666"
     borderopacity="1"
     objecttolerance="10"
     gridtolerance="10"
     guidetolerance="10"
     inkscape:pageopacity="0"
     inkscape:pageshadow="2"
     inkscape:window-width="718"
     inkscape:window-height="480"
     id="namedview24"
     showgrid="false"
     inkscape:zoom="0.17285157"
     inkscape:cx="682.66663"
     inkscape:cy="682.66663"
     inkscape:window-x="0"
     inkscape:window-y="0"
     inkscape:window-maximized="0"
     inkscape:current-layer="svg5219" /><metadata
     id="metadata5225"><rdf:RDF><cc:Work
         rdf:about=""><dc:format>image/svg+xml</dc:format><dc:type
           rdf:resource="http://purl.org/dc/dcmitype/StillImage" /><dc:title /></cc:Work></rdf:RDF></metadata><defs
     id="defs5223"><clipPath
       id="clipPath5235"
       clipPathUnits="userSpaceOnUse"><path
         id="path5233"
         d="M 0,1024 H 1024 V 0 H 0 Z" /></clipPath><clipPath
       id="clipPath5255"
       clipPathUnits="userSpaceOnUse"><path
         id="path5253"
         d="M 190,933 C 134.771,933 90,888.229 90,833 v 0 -643 C 90,134.771 134.771,90 190,90 v 0 h 643 c 55.229,0 100,44.771 100,100 v 0 643 c 0,55.229 -44.771,100 -100,100 v 0 z" /></clipPath></defs><g
     transform="matrix(1.3333333,0,0,-1.3333333,0,1365.3333)"
     id="g5227"><g
       id="g5229"><g
         clip-path="url(#clipPath5235)"
         id="g5231"><g
           transform="translate(833,933)"
           id="g5237"><path
             id="path5239"
             style="fill:#599cd4;fill-opacity:1;fill-rule:nonzero;stroke:none"
             d="m 0,0 h -643 c -55.229,0 -100,-44.771 -100,-100 v -643 c 0,-55.229 44.771,-100 100,-100 H 0 c 55.229,0 100,44.771 100,100 v 643 C 100,-44.771 55.229,0 0,0" /></g><g
           transform="translate(358.96,251.3145)"
           id="g5241"><path
             id="path5243"
             style="fill:#404040;fill-opacity:1;fill-rule:nonzero;stroke:none"
             d="m 0,0 70.473,-28.534 c 0,0 1.771,-0.718 4.069,-0.718 2.298,0 3.112,0.239 5.123,1.628 2.01,1.388 4.069,3.351 5.17,7.995 1.102,4.644 0.335,4.022 3.304,13.884 2.968,9.862 30.721,81.134 34.042,90.964 3.319,9.83 43.277,121.285 60.895,188.948 1.82,7.149 4.117,9.831 4.117,13.661 0,3.83 -3.925,7.085 -7.181,8.713 -3.255,1.627 -31.215,13.405 -35.045,14.362 -3.83,0.958 -10.341,2.777 -13.693,-4.117 C 127.923,299.892 92.304,232.675 51.706,144.201 11.107,55.727 3.064,32.363 3.064,32.363 c 0,0 -0.638,-3.574 -4.851,-9.702 C -6,16.533 -8.426,12.83 -8.298,9.512 -8.17,6.192 -6.683,2.705 0,0" /></g><g
           transform="translate(750.3896,719.2822)"
           id="g5245"><path
             id="path5247"
             style="fill:#e5e8ed;fill-opacity:1;fill-rule:nonzero;stroke:none"
             d="m 0,0 c -2.426,0.894 -22.979,9.064 -24.703,9.83 -1.724,0.766 -5.745,0.479 -5.745,0.479 0,0 -2.298,-0.67 -8.426,-0.67 -20.108,0.095 -33.034,6.702 -42.609,15.128 -9.576,8.426 -11.682,18.671 -11.778,20.778 -0.095,2.107 -1.819,3.639 -3.257,4.245 -30.896,14.299 -86.302,32.427 -133.795,32.427 -47.493,0 -81.068,-16.085 -96.389,-23.745 -15.32,-7.66 -25.566,-15.416 -27.385,-16.661 -1.819,-1.245 -0.383,-2.298 0.766,-2.873 1.149,-0.574 3.002,0.386 3.002,0.386 0,0 27.066,13.278 82.985,12.767 55.919,-0.51 65.365,-21.703 68.685,-31.661 3.319,-9.958 3.83,-27.576 1.277,-36.257 -5.616,-25.278 -56.732,-140.442 -56.733,-140.445 2.715,0.493 5.571,-0.274 7.642,-0.792 3.83,-0.957 31.79,-12.735 35.045,-14.363 2.073,-1.036 4.414,-2.734 5.844,-4.819 0,0 27.86,72.515 42.989,110.624 15.129,38.109 48.642,46.631 56.78,46.631 24.8,0 48.101,-25.439 49.825,-28.695 1.723,-3.255 4.403,-4.658 5.233,-5.105 0.831,-0.447 21.959,-9.192 23.874,-10.086 1.915,-0.894 3.191,-0.383 3.64,0.191 C -2.551,-41.493 2.426,-8.554 2.809,-5.745 3.191,-2.937 2.426,-0.894 0,0" /></g></g></g><g
       id="g5249"><g
         clip-path="url(#clipPath5255)"
         id="g5251"><g
           transform="translate(414.5352,1029.6177)"
           id="g5257"><path
             id="path5259"
             style="fill:#dd3974;fill-opacity:1;fill-rule:nonzero;stroke:none"
             d="m 0,0 -406.586,-406.586 66.467,-66.468 406.587,406.586 z" /></g></g></g><g
       transform="matrix(0.70710678,0.70710678,0.70710678,-0.70710678,194.6379,704.6105)"
       style="font-variant:normal;font-weight:500;font-stretch:normal;font-size:70.40831757px;font-family:'Helvetica 65 Medium';-inkscape-font-specification:HelveticaNeue-Medium;writing-mode:lr-tb;fill:#ffffff;fill-opacity:1;fill-rule:nonzero;stroke:none"
       id="text5263"><path
         d="m 13.854762,-24.512271 0,18.8053468 11.138816,0 q 5.603787,0 8.285353,-2.3033971 2.715946,-2.3377757 2.715946,-7.1164657 0,-4.813069 -2.715946,-7.082087 -2.681566,-2.303397 -8.285353,-2.303397 l -11.138816,0 z m 0,-21.108743 0,15.470577 10.279339,0 q 5.088101,0 7.563394,-1.890848 2.509671,-1.925228 2.509671,-5.844441 0,-3.884833 -2.509671,-5.810061 -2.475293,-1.925227 -7.563394,-1.925227 l -10.279339,0 z m -6.9445707,-5.706925 17.7395957,0 q 7.941563,0 12.238946,3.30039 4.297382,3.30039 4.297382,9.385484 0,4.709931 -2.200259,7.494635 -2.20026,2.784704 -6.463264,3.472286 5.12248,1.10013 7.941563,4.606794 2.853462,3.472285 2.853462,8.697902 0,6.8758126 -4.675552,10.6231303 Q 33.966513,0 25.337368,0 l -18.4271767,0 0,-51.327939 z"
         style=""
         id="path3353" /><path
         d="m 56.477647,-51.327939 32.453833,0 0,5.844441 -25.509263,0 0,15.195545 24.443513,0 0,5.84444 -24.443513,0 0,18.5990726 26.128087,0 0,5.8444404 -33.072657,0 0,-51.327939 z"
         style=""
         id="path3355" /><path
         d="m 93.718424,-51.327939 43.420756,0 0,5.844441 -18.2209,0 0,45.483498 -6.97895,0 0,-45.483498 -18.220906,0 0,-5.844441 z"
         style=""
         id="path3357" /><path
         d="m 153.26461,-44.486505 -9.41987,25.543642 18.87411,0 -9.45424,-25.543642 z m -3.91922,-6.841434 7.87281,0 L 176.77989,0 l -7.21961,0 -4.67555,-13.16718 -23.13711,0 L 137.07207,0 l -7.32274,0 19.59606,-51.327939 z"
         style=""
         id="path3359" /></g></g></svg>