<?xml version="1.0" encoding="UTF-8" standalone="no"?>
<svg
   xmlns:dc="http://purl.org/dc/elements/1.1/"
   xmlns:cc="http://creativecommons.org/ns#"
   xmlns:rdf="http://www.w3.org/1999/02/22-rdf-syntax-ns#"
   xmlns:svg="http://www.w3.org/2000/svg"
   xmlns="http://www.w3.org/2000/svg"
   viewBox="0 0 1365.3333 1365.3333"
   height="1365.3333"
   width="1365.3333"
   xml:space="preserve"
   id="svg5345"
   version="1.1"><metadata
     id="metadata5351"><rdf:RDF><cc:Work
         rdf:about=""><dc:format>image/svg+xml</dc:format><dc:type
           rdf:resource="http://purl.org/dc/dcmitype/StillImage" /><dc:title></dc:title></cc:Work></rdf:RDF></metadata><defs
     id="defs5349"><clipPath
       id="clipPath5361"
       clipPathUnits="userSpaceOnUse"><path
         id="path5359"
         d="M 0,1024 H 1024 V 0 H 0 Z" /></clipPath></defs><g
     transform="matrix(1.3333333,0,0,-1.3333333,0,1365.3333)"
     id="g5353"><g
       id="g5355"><g
         clip-path="url(#clipPath5361)"
         id="g5357"><g
           transform="translate(933,190)"
           id="g5363"><path
             id="path5365"
             style="fill:#42b1d6;fill-opacity:1;fill-rule:nonzero;stroke:none"
             d="m 0,0 c 0,-55.229 -44.772,-100 -100,-100 h -643 c -55.229,0 -100,44.771 -100,100 v 643 c 0,55.229 44.771,100 100,100 h 643 C -44.772,743 0,698.229 0,643 Z" /></g><g
           transform="translate(329.787,533.9857)"
           id="g5367"><path
             id="path5369"
             style="fill:#ffffff;fill-opacity:1;fill-rule:nonzero;stroke:none"
             d="m 0,0 c 37.906,0 71.872,0.693 105.757,-0.656 5.909,-0.236 13.074,-8.061 16.918,-14.12 15.49,-24.414 29.842,-49.549 44.766,-74.325 3.586,-5.954 7.756,-11.556 13.627,-20.228 19.421,31.796 37.995,60.304 54.477,89.973 8.563,15.415 19.189,20.848 36.409,20.099 28.709,-1.25 57.513,-0.341 89.517,-0.341 -4.269,-7.532 -6.423,-12.001 -9.166,-16.072 -36.361,-53.974 -73.191,-107.639 -108.853,-162.069 -6.031,-9.205 -9.449,-21.526 -10.029,-32.619 -1.439,-27.54 -1.048,-55.216 -0.368,-82.812 0.344,-13.939 -3.683,-20.614 -18.843,-19.988 -21.66,0.895 -43.404,0.783 -65.074,0.023 -14.357,-0.503 -19.997,4.816 -19.714,19.398 0.535,27.596 0.802,55.286 -0.982,82.796 -0.757,11.668 -4.691,24.474 -11.075,34.21 C 81.688,-122.314 44.804,-68.686 8.386,-14.752 6.237,-11.57 4.562,-8.068 0,0" /></g><g
           transform="translate(243.0746,637.0319)"
           id="g5371"><path
             id="path5373"
             style="fill:#badb92;fill-opacity:1;fill-rule:nonzero;stroke:none"
             d="M 0,0 C 25.994,1.475 46.162,5.278 65.639,3.048 89.766,0.285 107.31,-23.507 105.858,-47.894 105.478,-54.279 99.931,-62.602 94.313,-66.049 66.331,-83.213 38.371,-76.269 21.601,-47.927 14.076,-35.21 9.273,-20.881 0,0" /></g><g
           transform="translate(381.5244,659.8859)"
           id="g5375"><path
             id="path5377"
             style="fill:#badb92;fill-opacity:1;fill-rule:nonzero;stroke:none"
             d="m 0,0 c 24.362,-10.82 44.708,-16.656 61.274,-28.008 21.74,-14.897 24.438,-45.942 8.448,-66.836 -3.294,-4.305 -10.845,-7.23 -16.577,-7.478 -30.062,-1.301 -51.85,16.458 -55.384,47.033 C -4.05,-39.626 -1.14,-23.418 0,0" /></g><g
           transform="translate(777.6232,633.8172)"
           id="g5379"><path
             id="path5381"
             style="fill:#badb92;fill-opacity:1;fill-rule:nonzero;stroke:none"
             d="m 0,0 c -9.564,-19.522 -15.39,-35.611 -24.646,-49.399 -17.164,-25.567 -47.376,-30.112 -72.305,-11.636 -4.715,3.495 -8.578,11.783 -8.357,17.692 1.27,33.927 26.702,55.594 60.306,51.824 C -31.584,6.976 -18.384,3.537 0,0" /></g><g
           transform="translate(238.9213,435.735)"
           id="g5383"><path
             id="path5385"
             style="fill:#badb92;fill-opacity:1;fill-rule:nonzero;stroke:none"
             d="M 0,0 C 16.61,15.117 29.012,29.55 44.302,39.58 67.259,54.642 98.846,45.595 112.631,21.643 115.23,17.128 114.84,8.888 112.537,3.881 98.066,-27.585 71.224,-37.718 39.572,-23.401 27.327,-17.863 16.254,-9.732 0,0" /></g><g
           transform="translate(616.2118,765.7206)"
           id="g5387"><path
             id="path5389"
             style="fill:#badb92;fill-opacity:1;fill-rule:nonzero;stroke:none"
             d="m 0,0 c 13.272,-29.388 21.092,-51.351 8.612,-74.97 -8.72,-16.505 -33.254,-28.219 -44.219,-21.71 -13.666,8.111 -21.769,39.295 -10.66,53.082 C -34.033,-28.417 -17.815,-16.446 0,0" /></g><g
           transform="translate(652.7749,676.0591)"
           id="g5391"><path
             id="path5393"
             style="fill:#badb92;fill-opacity:1;fill-rule:nonzero;stroke:none"
             d="m 0,0 c -0.368,23.31 28.512,49.778 51.437,46.433 3.547,-0.517 7.924,-4.415 9.501,-7.857 C 70.074,18.642 54.511,-16.642 33.887,-23.965 11.274,-31.994 0.384,-24.293 0,0" /></g><g
           transform="translate(507.7856,678.2526)"
           id="g5395"><path
             id="path5397"
             style="fill:#badb92;fill-opacity:1;fill-rule:nonzero;stroke:none"
             d="m 0,0 c 35.589,-27.405 40.266,-57.969 15.635,-81.043 -9.884,-9.259 -17.565,-8.207 -26.716,0.521 -16.208,15.458 -20.001,31.374 -9.478,50.963 C -15.123,-19.439 -7.431,-10.53 0,0" /></g><g
           transform="translate(220.4031,523.405)"
           id="g5399"><path
             id="path5401"
             style="fill:#badb92;fill-opacity:1;fill-rule:nonzero;stroke:none"
             d="M 0,0 C 31.708,30.669 61.231,32.991 80.939,9.279 89.928,-1.535 89.37,-9.705 78.497,-18.84 61.94,-32.75 43.665,-34.273 24.547,-20.883 16.129,-14.988 8.786,-7.556 0,0" /></g><g
           transform="translate(510.5591,572.2265)"
           id="g5403"><path
             id="path5405"
             style="fill:#badb92;fill-opacity:1;fill-rule:nonzero;stroke:none"
             d="M 0,0 C 32.658,-25.695 37.159,-59.499 10.373,-79.108 5.576,-82.619 -6.276,-82.591 -11.034,-79.046 -37.675,-59.2 -32.969,-26.377 0,0" /></g><g
           transform="translate(337.3518,373.3692)"
           id="g5407"><path
             id="path5409"
             style="fill:#badb92;fill-opacity:1;fill-rule:nonzero;stroke:none"
             d="M 0,0 C 0.721,21.73 11.798,36.743 29.963,36.694 36.028,36.678 45.477,29.979 47.488,24.262 53.582,6.936 43.509,-8.549 23.578,-16.904 4.074,-25.081 -0.718,-21.645 0,0" /></g><g
           transform="translate(509.9578,803.2122)"
           id="g5411"><path
             id="path5413"
             style="fill:#badb92;fill-opacity:1;fill-rule:nonzero;stroke:none"
             d="M 0,0 C 11.605,-14.763 22.143,-25.531 29.541,-38.141 43.99,-62.77 33.56,-93.919 7.452,-105.633 c -4.817,-2.161 -12.926,-1.24 -17.701,1.464 -27.324,15.476 -34.349,43.431 -17.353,70.086 C -20.453,-22.87 -10.843,-13.225 0,0" /></g><g
           transform="translate(640.4331,659.8859)"
           id="g5415"><path
             id="path5417"
             style="fill:#badb92;fill-opacity:1;fill-rule:nonzero;stroke:none"
             d="m 0,0 c -24.362,-10.82 -44.708,-16.656 -61.274,-28.008 -21.74,-14.897 -24.438,-45.942 -8.448,-66.836 3.294,-4.305 10.845,-7.23 16.577,-7.478 30.062,-1.301 51.85,16.458 55.384,47.033 C 4.05,-39.626 1.14,-23.418 0,0" /></g><g
           transform="translate(405.7458,768.6312)"
           id="g5419"><path
             id="path5421"
             style="fill:#badb92;fill-opacity:1;fill-rule:nonzero;stroke:none"
             d="m 0,0 c -13.272,-29.388 -21.092,-51.351 -8.612,-74.97 8.72,-16.505 33.254,-28.219 44.219,-21.71 13.666,8.111 21.769,39.295 10.66,53.082 C 34.033,-28.417 17.815,-16.446 0,0" /></g><g
           transform="translate(803.5969,523.405)"
           id="g5423"><path
             id="path5425"
             style="fill:#badb92;fill-opacity:1;fill-rule:nonzero;stroke:none"
             d="m 0,0 c -31.708,30.669 -61.231,32.991 -80.939,9.279 -8.989,-10.814 -8.431,-18.984 2.442,-28.119 16.557,-13.91 34.832,-15.433 53.95,-2.043 C -16.129,-14.988 -8.786,-7.556 0,0" /></g><g
           transform="translate(782.1779,435.735)"
           id="g5427"><path
             id="path5429"
             style="fill:#badb92;fill-opacity:1;fill-rule:nonzero;stroke:none"
             d="m 0,0 c -16.61,15.117 -29.012,29.55 -44.302,39.58 -22.957,15.062 -54.544,6.015 -68.329,-17.937 -2.599,-4.515 -2.209,-12.755 0.094,-17.762 14.471,-31.466 41.313,-41.599 72.965,-27.282 C -27.327,-17.863 -16.254,-9.732 0,0" /></g><g
           transform="translate(684.5119,373.3692)"
           id="g5431"><path
             id="path5433"
             style="fill:#badb92;fill-opacity:1;fill-rule:nonzero;stroke:none"
             d="M 0,0 C -0.721,21.73 -11.798,36.743 -29.963,36.694 -36.028,36.678 -45.477,29.979 -47.488,24.262 -53.582,6.936 -43.509,-8.549 -23.578,-16.904 -4.074,-25.081 0.718,-21.645 0,0" /></g><g
           transform="translate(369.0888,676.0591)"
           id="g5435"><path
             id="path5437"
             style="fill:#badb92;fill-opacity:1;fill-rule:nonzero;stroke:none"
             d="m 0,0 c 0.368,23.31 -28.512,49.778 -51.437,46.433 -3.547,-0.517 -7.924,-4.415 -9.501,-7.857 -9.136,-19.934 6.427,-55.218 27.051,-62.541 C -11.274,-31.994 -0.384,-24.293 0,0" /></g></g></g></g></svg>