<?xml version="1.0" encoding="UTF-8" standalone="no"?>
<svg
   xmlns:dc="http://purl.org/dc/elements/1.1/"
   xmlns:cc="http://creativecommons.org/ns#"
   xmlns:rdf="http://www.w3.org/1999/02/22-rdf-syntax-ns#"
   xmlns:svg="http://www.w3.org/2000/svg"
   xmlns="http://www.w3.org/2000/svg"
   viewBox="0 0 1365.3333 1365.3333"
   height="1365.3333"
   width="1365.3333"
   xml:space="preserve"
   id="svg4587"
   version="1.1"><metadata
     id="metadata4593"><rdf:RDF><cc:Work
         rdf:about=""><dc:format>image/svg+xml</dc:format><dc:type
           rdf:resource="http://purl.org/dc/dcmitype/StillImage" /><dc:title></dc:title></cc:Work></rdf:RDF></metadata><defs
     id="defs4591"><clipPath
       id="clipPath4603"
       clipPathUnits="userSpaceOnUse"><path
         id="path4601"
         d="M 0,1024 H 1024 V 0 H 0 Z" /></clipPath></defs><g
     transform="matrix(1.3333333,0,0,-1.3333333,0,1365.3333)"
     id="g4595"><g
       id="g4597"><g
         clip-path="url(#clipPath4603)"
         id="g4599"><g
           transform="translate(833,933)"
           id="g4605"><path
             id="path4607"
             style="fill:#8ec461;fill-opacity:1;fill-rule:nonzero;stroke:none"
             d="m 0,0 h -643 c -55.229,0 -100,-44.771 -100,-100 v -643 c 0,-55.229 44.771,-100 100,-100 H 0 c 55.229,0 100,44.771 100,100 v 643 C 100,-44.771 55.229,0 0,0" /></g><g
           transform="translate(914.25,456.5)"
           id="g4609"><path
             id="path4611"
             style="fill:#ffffff;fill-opacity:1;fill-rule:nonzero;stroke:none"
             d="m 0,0 c -22.75,10.75 -42.75,41.5 -54.75,67.5 -12,26 -104.25,222.25 -108.25,230.75 -4,8.5 -9.75,17.75 -27.75,14.25 -18,-3.5 -89.25,-16.5 -98,-18.25 -8.75,-1.75 -19,-6 -13,-21.5 6,-15.5 95.5,-215.25 105.5,-239.75 10,-24.5 -1.5,-78.5 -51,-104.5 -49.5,-26 -102.5,-24.5 -155,17.5 -28,21 -48.5,55.5 -58.5,80 -10,24.5 -76,190.5 -80.5,201 -4.5,10.5 -11.5,17.25 -30.5,14.5 -19,-2.75 -99.75,-18.5 -115.5,-21.5 -15.75,-3 -25.63,-10.157 -18.667,-28.834 L -497.985,-366.5 h 187.515 c -17.656,37.32 -74.588,158.63 -84.28,191.5 0,0 48.167,-30.166 132.167,-4.166 84,26 117.334,83.667 123,118.334 0,0 0.417,1.497 1.501,0.581 C -136.998,-61.167 -93.25,-105 -29,-105 c 19.434,0 36.394,3.836 47.75,7.554 V -4.667 C 12.561,-4.229 6.102,-2.883 0,0" /></g></g></g></g></svg>